<svg xmlns="http://www.w3.org/2000/svg" width="900" height="290" style="font-family: -apple-system, BlinkMacSystemFont, 'Segoe UI', Helvetica, Arial, sans-serif;">
  <rect width="100%" height="100%" fill="#0d1117"/>
  <g>
    <line x1="40" y1="220.00" x2="860" y2="220.00" stroke="#30363d"/><text x="32" y="224.00" font-size="10" fill="#c9d1d9" text-anchor="end">0</text><line x1="40" y1="175.00" x2="860" y2="175.00" stroke="#30363d"/><text x="32" y="179.00" font-size="10" fill="#c9d1d9" text-anchor="end">500</text><line x1="40" y1="130.00" x2="860" y2="130.00" stroke="#30363d"/><text x="32" y="134.00" font-size="10" fill="#c9d1d9" text-anchor="end">1k</text><line x1="40" y1="85.00" x2="860" y2="85.00" stroke="#30363d"/><text x="32" y="89.00" font-size="10" fill="#c9d1d9" text-anchor="end">1.5k</text><line x1="40" y1="40.00" x2="860" y2="40.00" stroke="#30363d"/><text x="32" y="44.00" font-size="10" fill="#c9d1d9" text-anchor="end">2k</text>
    <line x1="40.00" y1="40" x2="40.00" y2="220" stroke="#30363d" opacity="0.5"/><line x1="120.31" y1="40" x2="120.31" y2="220" stroke="#30363d" opacity="0.5"/><line x1="200.62" y1="40" x2="200.62" y2="220" stroke="#30363d" opacity="0.5"/><line x1="280.93" y1="40" x2="280.93" y2="220" stroke="#30363d" opacity="0.5"/><line x1="361.24" y1="40" x2="361.24" y2="220" stroke="#30363d" opacity="0.5"/><line x1="441.55" y1="40" x2="441.55" y2="220" stroke="#30363d" opacity="0.5"/><line x1="521.86" y1="40" x2="521.86" y2="220" stroke="#30363d" opacity="0.5"/><line x1="602.16" y1="40" x2="602.16" y2="220" stroke="#30363d" opacity="0.5"/><line x1="682.47" y1="40" x2="682.47" y2="220" stroke="#30363d" opacity="0.5"/><line x1="762.78" y1="40" x2="762.78" y2="220" stroke="#30363d" opacity="0.5"/><line x1="843.09" y1="40" x2="843.09" y2="220" stroke="#30363d" opacity="0.5"/>
    <line x1="40" y1="220" x2="860" y2="220" stroke="#30363d"/>
    <line x1="40" y1="40"   x2="40"   y2="220" stroke="#30363d"/>
    <path d="M 40.00 219.82 L 44.23 211.81 L 48.45 211.81 L 52.68 211.81 L 56.91 171.85 L 61.13 171.58 L 65.36 164.38 L 69.59 118.93 L 73.81 119.11 L 78.04 111.10 L 82.27 110.56 L 86.49 110.56 L 90.72 110.56 L 94.95 95.35 L 99.18 95.35 L 103.40 95.35 L 107.63 94.63 L 111.86 94.54 L 116.08 94.45 L 120.31 94.09 L 124.54 94.09 L 128.76 94.09 L 132.99 94.09 L 137.22 94.09 L 141.44 94.09 L 145.67 94.09 L 149.90 94.09 L 154.12 94.09 L 158.35 91.84 L 162.58 83.65 L 166.80 83.65 L 171.03 83.47 L 175.26 83.65 L 179.48 91.03 L 183.71 91.03 L 187.94 91.03 L 192.16 91.03 L 196.39 91.03 L 200.62 91.03 L 204.85 91.03 L 209.07 91.03 L 213.30 91.03 L 217.53 91.03 L 221.75 91.03 L 225.98 90.94 L 230.21 91.03 L 234.43 90.94 L 238.66 90.94 L 242.89 90.94 L 247.11 90.94 L 251.34 90.94 L 255.57 90.94 L 259.79 90.94 L 264.02 90.94 L 268.25 90.94 L 272.47 90.94 L 276.70 90.94 L 280.93 90.94 L 285.15 90.94 L 289.38 90.94 L 293.61 90.94 L 297.84 90.94 L 302.06 90.94 L 306.29 90.94 L 310.52 90.94 L 314.74 90.94 L 318.97 90.94 L 323.20 90.94 L 327.42 90.94 L 331.65 90.94 L 335.88 90.94 L 340.10 123.79 L 344.33 123.79 L 348.56 123.79 L 352.78 123.79 L 357.01 123.79 L 361.24 123.79 L 365.46 123.79 L 369.69 123.79 L 373.92 123.79 L 378.14 123.79 L 382.37 123.79 L 386.60 123.79 L 390.82 123.79 L 395.05 123.79 L 399.28 123.79 L 403.51 123.79 L 407.73 123.79 L 411.96 123.79 L 416.19 123.79 L 420.41 123.79 L 424.64 123.79 L 428.87 123.79 L 433.09 123.79 L 437.32 123.79 L 441.55 123.79 L 445.77 123.79 L 450.00 123.79 L 454.23 123.79 L 458.45 123.79 L 462.68 123.79 L 466.91 123.79 L 471.13 123.79 L 475.36 123.79 L 479.59 123.79 L 483.81 123.79 L 488.04 123.79 L 492.27 123.79 L 496.49 123.79 L 500.72 123.79 L 504.95 123.79 L 509.18 123.79 L 513.40 123.79 L 517.63 123.79 L 521.86 123.79 L 526.08 123.79 L 530.31 123.79 L 534.54 123.79 L 538.76 123.79 L 542.99 123.79 L 547.22 123.79 L 551.44 123.79 L 555.67 123.79 L 559.90 123.79 L 564.12 123.79 L 568.35 123.79 L 572.58 123.79 L 576.80 123.79 L 581.03 123.79 L 585.26 123.79 L 589.48 123.79 L 593.71 123.79 L 597.94 123.79 L 602.16 123.79 L 606.39 123.79 L 610.62 123.79 L 614.85 123.79 L 619.07 123.79 L 623.30 123.79 L 627.53 123.79 L 631.75 123.79 L 635.98 123.79 L 640.21 123.79 L 644.43 123.79 L 648.66 123.79 L 652.89 123.79 L 657.11 123.79 L 661.34 123.79 L 665.57 115.42 L 669.79 111.64 L 674.02 107.86 L 678.25 104.08 L 682.47 100.30 L 686.70 95.98 L 690.93 95.98 L 695.15 95.98 L 699.38 95.98 L 703.61 85.72 L 707.84 85.72 L 712.06 85.72 L 716.29 85.72 L 720.52 85.72 L 724.74 85.72 L 728.97 85.72 L 733.20 85.72 L 737.42 85.72 L 741.65 85.72 L 745.88 85.72 L 750.10 85.72 L 754.33 85.72 L 758.56 85.72 L 762.78 85.72 L 767.01 85.72 L 771.24 85.72 L 775.46 85.72 L 779.69 85.72 L 783.92 85.72 L 788.14 85.72 L 792.37 85.72 L 796.60 85.72 L 800.82 85.72 L 805.05 85.72 L 809.28 85.72 L 813.51 85.72 L 817.73 85.72 L 821.96 85.72 L 826.19 85.72 L 830.41 85.72 L 834.64 85.72 L 838.87 85.72 L 843.09 85.72 L 847.32 85.72 L 851.55 85.72 L 855.77 85.72 L 860.00 85.72" fill="none" stroke="#3fb950" stroke-width="2"/>
    <circle cx="860.00" cy="85.72" r="3" fill="#3fb950"/>
    <text x="40.00" y="235.00" font-size="9" fill="#c9d1d9" text-anchor="middle" transform="rotate(-45 40.00 235.00)">09.08.2025</text><text x="120.31" y="235.00" font-size="9" fill="#c9d1d9" text-anchor="middle" transform="rotate(-45 120.31 235.00)">13.08.2025</text><text x="200.62" y="235.00" font-size="9" fill="#c9d1d9" text-anchor="middle" transform="rotate(-45 200.62 235.00)">24.08.2025</text><text x="280.93" y="235.00" font-size="9" fill="#c9d1d9" text-anchor="middle" transform="rotate(-45 280.93 235.00)">07.09.2025</text><text x="361.24" y="235.00" font-size="9" fill="#c9d1d9" text-anchor="middle" transform="rotate(-45 361.24 235.00)">24.09.2025</text><text x="441.55" y="235.00" font-size="9" fill="#c9d1d9" text-anchor="middle" transform="rotate(-45 441.55 235.00)">13.10.2025</text><text x="521.86" y="235.00" font-size="9" fill="#c9d1d9" text-anchor="middle" transform="rotate(-45 521.86 235.00)">01.11.2025</text><text x="602.16" y="235.00" font-size="9" fill="#c9d1d9" text-anchor="middle" transform="rotate(-45 602.16 235.00)">20.11.2025</text><text x="682.47" y="235.00" font-size="9" fill="#c9d1d9" text-anchor="middle" transform="rotate(-45 682.47 235.00)">04.12.2025</text><text x="762.78" y="235.00" font-size="9" fill="#c9d1d9" text-anchor="middle" transform="rotate(-45 762.78 235.00)">21.12.2025</text><text x="843.09" y="235.00" font-size="9" fill="#c9d1d9" text-anchor="middle" transform="rotate(-45 843.09 235.00)">09.01.2026</text>
  </g>
</svg>