<svg xmlns="http://www.w3.org/2000/svg" width="900" height="290" style="font-family: -apple-system, BlinkMacSystemFont, 'Segoe UI', Helvetica, Arial, sans-serif;">
  <rect width="100%" height="100%" fill="white"/>
  <g>
    <line x1="40" y1="220.00" x2="860" y2="220.00" stroke="#e5e7eb"/><text x="32" y="224.00" font-size="10" fill="#111827" text-anchor="end">0</text><line x1="40" y1="175.00" x2="860" y2="175.00" stroke="#e5e7eb"/><text x="32" y="179.00" font-size="10" fill="#111827" text-anchor="end">500</text><line x1="40" y1="130.00" x2="860" y2="130.00" stroke="#e5e7eb"/><text x="32" y="134.00" font-size="10" fill="#111827" text-anchor="end">1k</text><line x1="40" y1="85.00" x2="860" y2="85.00" stroke="#e5e7eb"/><text x="32" y="89.00" font-size="10" fill="#111827" text-anchor="end">1.5k</text><line x1="40" y1="40.00" x2="860" y2="40.00" stroke="#e5e7eb"/><text x="32" y="44.00" font-size="10" fill="#111827" text-anchor="end">2k</text>
    <line x1="40.00" y1="40" x2="40.00" y2="220" stroke="#e5e7eb" opacity="0.5"/><line x1="123.19" y1="40" x2="123.19" y2="220" stroke="#e5e7eb" opacity="0.5"/><line x1="206.38" y1="40" x2="206.38" y2="220" stroke="#e5e7eb" opacity="0.5"/><line x1="289.57" y1="40" x2="289.57" y2="220" stroke="#e5e7eb" opacity="0.5"/><line x1="372.75" y1="40" x2="372.75" y2="220" stroke="#e5e7eb" opacity="0.5"/><line x1="455.94" y1="40" x2="455.94" y2="220" stroke="#e5e7eb" opacity="0.5"/><line x1="539.13" y1="40" x2="539.13" y2="220" stroke="#e5e7eb" opacity="0.5"/><line x1="622.32" y1="40" x2="622.32" y2="220" stroke="#e5e7eb" opacity="0.5"/><line x1="705.51" y1="40" x2="705.51" y2="220" stroke="#e5e7eb" opacity="0.5"/><line x1="788.70" y1="40" x2="788.70" y2="220" stroke="#e5e7eb" opacity="0.5"/>
    <line x1="40" y1="220" x2="860" y2="220" stroke="#9ca3af"/>
    <line x1="40" y1="40"   x2="40"   y2="220" stroke="#9ca3af"/>
    <path d="M 40.00 219.82 L 51.88 211.81 L 63.77 211.81 L 75.65 211.81 L 87.54 171.85 L 99.42 171.58 L 111.30 164.38 L 123.19 118.93 L 135.07 119.11 L 146.96 111.10 L 158.84 110.56 L 170.72 110.56 L 182.61 110.56 L 194.49 95.35 L 206.38 95.35 L 218.26 95.35 L 230.14 94.63 L 242.03 94.54 L 253.91 94.45 L 265.80 94.09 L 277.68 94.09 L 289.57 94.09 L 301.45 94.09 L 313.33 94.09 L 325.22 94.09 L 337.10 94.09 L 348.99 94.09 L 360.87 94.09 L 372.75 91.84 L 384.64 83.65 L 396.52 83.65 L 408.41 83.47 L 420.29 83.65 L 432.17 91.03 L 444.06 91.03 L 455.94 91.03 L 467.83 91.03 L 479.71 91.03 L 491.59 91.03 L 503.48 91.03 L 515.36 91.03 L 527.25 91.03 L 539.13 91.03 L 551.01 91.03 L 562.90 90.94 L 574.78 91.03 L 586.67 90.94 L 598.55 90.94 L 610.43 90.94 L 622.32 90.94 L 634.20 90.94 L 646.09 90.94 L 657.97 90.94 L 669.86 90.94 L 681.74 90.94 L 693.62 90.94 L 705.51 90.94 L 717.39 90.94 L 729.28 90.94 L 741.16 90.94 L 753.04 90.94 L 764.93 90.94 L 776.81 90.94 L 788.70 90.94 L 800.58 90.94 L 812.46 90.94 L 824.35 90.94 L 836.23 90.94 L 848.12 90.94 L 860.00 90.94" fill="none" stroke="#111827" stroke-width="2"/>
    <circle cx="860.00" cy="90.94" r="3" fill="#111827"/>
    <text x="40.00" y="235.00" font-size="9" fill="#111827" text-anchor="middle" transform="rotate(-45 40.00 235.00)">09.08.2025</text><text x="123.19" y="235.00" font-size="9" fill="#111827" text-anchor="middle" transform="rotate(-45 123.19 235.00)">09.08.2025</text><text x="206.38" y="235.00" font-size="9" fill="#111827" text-anchor="middle" transform="rotate(-45 206.38 235.00)">13.08.2025</text><text x="289.57" y="235.00" font-size="9" fill="#111827" text-anchor="middle" transform="rotate(-45 289.57 235.00)">15.08.2025</text><text x="372.75" y="235.00" font-size="9" fill="#111827" text-anchor="middle" transform="rotate(-45 372.75 235.00)">21.08.2025</text><text x="455.94" y="235.00" font-size="9" fill="#111827" text-anchor="middle" transform="rotate(-45 455.94 235.00)">21.08.2025</text><text x="539.13" y="235.00" font-size="9" fill="#111827" text-anchor="middle" transform="rotate(-45 539.13 235.00)">28.08.2025</text><text x="622.32" y="235.00" font-size="9" fill="#111827" text-anchor="middle" transform="rotate(-45 622.32 235.00)">30.08.2025</text><text x="705.51" y="235.00" font-size="9" fill="#111827" text-anchor="middle" transform="rotate(-45 705.51 235.00)">06.09.2025</text><text x="788.70" y="235.00" font-size="9" fill="#111827" text-anchor="middle" transform="rotate(-45 788.70 235.00)">13.09.2025</text>
  </g>
</svg>