<svg xmlns="http://www.w3.org/2000/svg" width="900" height="290" style="font-family: -apple-system, BlinkMacSystemFont, 'Segoe UI', Helvetica, Arial, sans-serif;">
  <rect width="100%" height="100%" fill="white"/>
  <g>
    <line x1="40" y1="220.00" x2="860" y2="220.00" stroke="#e5e7eb"/><text x="32" y="224.00" font-size="10" fill="#111827" text-anchor="end">0</text><line x1="40" y1="175.00" x2="860" y2="175.00" stroke="#e5e7eb"/><text x="32" y="179.00" font-size="10" fill="#111827" text-anchor="end">500</text><line x1="40" y1="130.00" x2="860" y2="130.00" stroke="#e5e7eb"/><text x="32" y="134.00" font-size="10" fill="#111827" text-anchor="end">1k</text><line x1="40" y1="85.00" x2="860" y2="85.00" stroke="#e5e7eb"/><text x="32" y="89.00" font-size="10" fill="#111827" text-anchor="end">1.5k</text><line x1="40" y1="40.00" x2="860" y2="40.00" stroke="#e5e7eb"/><text x="32" y="44.00" font-size="10" fill="#111827" text-anchor="end">2k</text>
    <line x1="40.00" y1="40" x2="40.00" y2="220" stroke="#e5e7eb" opacity="0.5"/><line x1="119.90" y1="40" x2="119.90" y2="220" stroke="#e5e7eb" opacity="0.5"/><line x1="199.79" y1="40" x2="199.79" y2="220" stroke="#e5e7eb" opacity="0.5"/><line x1="279.69" y1="40" x2="279.69" y2="220" stroke="#e5e7eb" opacity="0.5"/><line x1="359.59" y1="40" x2="359.59" y2="220" stroke="#e5e7eb" opacity="0.5"/><line x1="439.49" y1="40" x2="439.49" y2="220" stroke="#e5e7eb" opacity="0.5"/><line x1="519.38" y1="40" x2="519.38" y2="220" stroke="#e5e7eb" opacity="0.5"/><line x1="599.28" y1="40" x2="599.28" y2="220" stroke="#e5e7eb" opacity="0.5"/><line x1="679.18" y1="40" x2="679.18" y2="220" stroke="#e5e7eb" opacity="0.5"/><line x1="759.08" y1="40" x2="759.08" y2="220" stroke="#e5e7eb" opacity="0.5"/><line x1="838.97" y1="40" x2="838.97" y2="220" stroke="#e5e7eb" opacity="0.5"/>
    <line x1="40" y1="220" x2="860" y2="220" stroke="#9ca3af"/>
    <line x1="40" y1="40"   x2="40"   y2="220" stroke="#9ca3af"/>
    <path d="M 40.00 219.82 L 44.21 211.81 L 48.41 211.81 L 52.62 211.81 L 56.82 171.85 L 61.03 171.58 L 65.23 164.38 L 69.44 118.93 L 73.64 119.11 L 77.85 111.10 L 82.05 110.56 L 86.26 110.56 L 90.46 110.56 L 94.67 95.35 L 98.87 95.35 L 103.08 95.35 L 107.28 94.63 L 111.49 94.54 L 115.69 94.45 L 119.90 94.09 L 124.10 94.09 L 128.31 94.09 L 132.51 94.09 L 136.72 94.09 L 140.92 94.09 L 145.13 94.09 L 149.33 94.09 L 153.54 94.09 L 157.74 91.84 L 161.95 83.65 L 166.15 83.65 L 170.36 83.47 L 174.56 83.65 L 178.77 91.03 L 182.97 91.03 L 187.18 91.03 L 191.38 91.03 L 195.59 91.03 L 199.79 91.03 L 204.00 91.03 L 208.21 91.03 L 212.41 91.03 L 216.62 91.03 L 220.82 91.03 L 225.03 90.94 L 229.23 91.03 L 233.44 90.94 L 237.64 90.94 L 241.85 90.94 L 246.05 90.94 L 250.26 90.94 L 254.46 90.94 L 258.67 90.94 L 262.87 90.94 L 267.08 90.94 L 271.28 90.94 L 275.49 90.94 L 279.69 90.94 L 283.90 90.94 L 288.10 90.94 L 292.31 90.94 L 296.51 90.94 L 300.72 90.94 L 304.92 90.94 L 309.13 90.94 L 313.33 90.94 L 317.54 90.94 L 321.74 90.94 L 325.95 90.94 L 330.15 90.94 L 334.36 90.94 L 338.56 123.79 L 342.77 123.79 L 346.97 123.79 L 351.18 123.79 L 355.38 123.79 L 359.59 123.79 L 363.79 123.79 L 368.00 123.79 L 372.21 123.79 L 376.41 123.79 L 380.62 123.79 L 384.82 123.79 L 389.03 123.79 L 393.23 123.79 L 397.44 123.79 L 401.64 123.79 L 405.85 123.79 L 410.05 123.79 L 414.26 123.79 L 418.46 123.79 L 422.67 123.79 L 426.87 123.79 L 431.08 123.79 L 435.28 123.79 L 439.49 123.79 L 443.69 123.79 L 447.90 123.79 L 452.10 123.79 L 456.31 123.79 L 460.51 123.79 L 464.72 123.79 L 468.92 123.79 L 473.13 123.79 L 477.33 123.79 L 481.54 123.79 L 485.74 123.79 L 489.95 123.79 L 494.15 123.79 L 498.36 123.79 L 502.56 123.79 L 506.77 123.79 L 510.97 123.79 L 515.18 123.79 L 519.38 123.79 L 523.59 123.79 L 527.79 123.79 L 532.00 123.79 L 536.21 123.79 L 540.41 123.79 L 544.62 123.79 L 548.82 123.79 L 553.03 123.79 L 557.23 123.79 L 561.44 123.79 L 565.64 123.79 L 569.85 123.79 L 574.05 123.79 L 578.26 123.79 L 582.46 123.79 L 586.67 123.79 L 590.87 123.79 L 595.08 123.79 L 599.28 123.79 L 603.49 123.79 L 607.69 123.79 L 611.90 123.79 L 616.10 123.79 L 620.31 123.79 L 624.51 123.79 L 628.72 123.79 L 632.92 123.79 L 637.13 123.79 L 641.33 123.79 L 645.54 123.79 L 649.74 123.79 L 653.95 123.79 L 658.15 123.79 L 662.36 115.42 L 666.56 111.64 L 670.77 107.86 L 674.97 104.08 L 679.18 100.30 L 683.38 95.98 L 687.59 95.98 L 691.79 95.98 L 696.00 95.98 L 700.21 85.72 L 704.41 85.72 L 708.62 85.72 L 712.82 85.72 L 717.03 85.72 L 721.23 85.72 L 725.44 85.72 L 729.64 85.72 L 733.85 85.72 L 738.05 85.72 L 742.26 85.72 L 746.46 85.72 L 750.67 85.72 L 754.87 85.72 L 759.08 85.72 L 763.28 85.72 L 767.49 85.72 L 771.69 85.72 L 775.90 85.72 L 780.10 85.72 L 784.31 85.72 L 788.51 85.72 L 792.72 85.72 L 796.92 85.72 L 801.13 85.72 L 805.33 85.72 L 809.54 85.72 L 813.74 85.72 L 817.95 85.72 L 822.15 85.72 L 826.36 85.72 L 830.56 85.72 L 834.77 85.72 L 838.97 85.72 L 843.18 85.72 L 847.38 85.72 L 851.59 85.72 L 855.79 85.72 L 860.00 85.72" fill="none" stroke="#111827" stroke-width="2"/>
    <circle cx="860.00" cy="85.72" r="3" fill="#111827"/>
    <text x="40.00" y="235.00" font-size="9" fill="#111827" text-anchor="middle" transform="rotate(-45 40.00 235.00)">09.08.2025</text><text x="119.90" y="235.00" font-size="9" fill="#111827" text-anchor="middle" transform="rotate(-45 119.90 235.00)">13.08.2025</text><text x="199.79" y="235.00" font-size="9" fill="#111827" text-anchor="middle" transform="rotate(-45 199.79 235.00)">24.08.2025</text><text x="279.69" y="235.00" font-size="9" fill="#111827" text-anchor="middle" transform="rotate(-45 279.69 235.00)">07.09.2025</text><text x="359.59" y="235.00" font-size="9" fill="#111827" text-anchor="middle" transform="rotate(-45 359.59 235.00)">24.09.2025</text><text x="439.49" y="235.00" font-size="9" fill="#111827" text-anchor="middle" transform="rotate(-45 439.49 235.00)">13.10.2025</text><text x="519.38" y="235.00" font-size="9" fill="#111827" text-anchor="middle" transform="rotate(-45 519.38 235.00)">01.11.2025</text><text x="599.28" y="235.00" font-size="9" fill="#111827" text-anchor="middle" transform="rotate(-45 599.28 235.00)">20.11.2025</text><text x="679.18" y="235.00" font-size="9" fill="#111827" text-anchor="middle" transform="rotate(-45 679.18 235.00)">04.12.2025</text><text x="759.08" y="235.00" font-size="9" fill="#111827" text-anchor="middle" transform="rotate(-45 759.08 235.00)">21.12.2025</text><text x="838.97" y="235.00" font-size="9" fill="#111827" text-anchor="middle" transform="rotate(-45 838.97 235.00)">09.01.2026</text>
  </g>
</svg>