<svg xmlns="http://www.w3.org/2000/svg" width="900" height="290" style="font-family: -apple-system, BlinkMacSystemFont, 'Segoe UI', Helvetica, Arial, sans-serif;">
  <rect width="100%" height="100%" fill="white"/>
  <g>
    <line x1="40" y1="220.00" x2="860" y2="220.00" stroke="#e5e7eb"/><text x="32" y="224.00" font-size="10" fill="#111827" text-anchor="end">0</text><line x1="40" y1="175.00" x2="860" y2="175.00" stroke="#e5e7eb"/><text x="32" y="179.00" font-size="10" fill="#111827" text-anchor="end">500</text><line x1="40" y1="130.00" x2="860" y2="130.00" stroke="#e5e7eb"/><text x="32" y="134.00" font-size="10" fill="#111827" text-anchor="end">1k</text><line x1="40" y1="85.00" x2="860" y2="85.00" stroke="#e5e7eb"/><text x="32" y="89.00" font-size="10" fill="#111827" text-anchor="end">1.5k</text><line x1="40" y1="40.00" x2="860" y2="40.00" stroke="#e5e7eb"/><text x="32" y="44.00" font-size="10" fill="#111827" text-anchor="end">2k</text>
    <line x1="40.00" y1="40" x2="40.00" y2="220" stroke="#e5e7eb" opacity="0.5"/><line x1="117.18" y1="40" x2="117.18" y2="220" stroke="#e5e7eb" opacity="0.5"/><line x1="194.35" y1="40" x2="194.35" y2="220" stroke="#e5e7eb" opacity="0.5"/><line x1="271.53" y1="40" x2="271.53" y2="220" stroke="#e5e7eb" opacity="0.5"/><line x1="348.71" y1="40" x2="348.71" y2="220" stroke="#e5e7eb" opacity="0.5"/><line x1="425.88" y1="40" x2="425.88" y2="220" stroke="#e5e7eb" opacity="0.5"/><line x1="503.06" y1="40" x2="503.06" y2="220" stroke="#e5e7eb" opacity="0.5"/><line x1="580.24" y1="40" x2="580.24" y2="220" stroke="#e5e7eb" opacity="0.5"/><line x1="657.41" y1="40" x2="657.41" y2="220" stroke="#e5e7eb" opacity="0.5"/><line x1="734.59" y1="40" x2="734.59" y2="220" stroke="#e5e7eb" opacity="0.5"/><line x1="811.76" y1="40" x2="811.76" y2="220" stroke="#e5e7eb" opacity="0.5"/>
    <line x1="40" y1="220" x2="860" y2="220" stroke="#9ca3af"/>
    <line x1="40" y1="40"   x2="40"   y2="220" stroke="#9ca3af"/>
    <path d="M 40.00 219.82 L 49.65 211.81 L 59.29 211.81 L 68.94 211.81 L 78.59 171.85 L 88.24 171.58 L 97.88 164.38 L 107.53 118.93 L 117.18 119.11 L 126.82 111.10 L 136.47 110.56 L 146.12 110.56 L 155.76 110.56 L 165.41 95.35 L 175.06 95.35 L 184.71 95.35 L 194.35 94.63 L 204.00 94.54 L 213.65 94.45 L 223.29 94.09 L 232.94 94.09 L 242.59 94.09 L 252.24 94.09 L 261.88 94.09 L 271.53 94.09 L 281.18 94.09 L 290.82 94.09 L 300.47 94.09 L 310.12 91.84 L 319.76 83.65 L 329.41 83.65 L 339.06 83.47 L 348.71 83.65 L 358.35 91.03 L 368.00 91.03 L 377.65 91.03 L 387.29 91.03 L 396.94 91.03 L 406.59 91.03 L 416.24 91.03 L 425.88 91.03 L 435.53 91.03 L 445.18 91.03 L 454.82 91.03 L 464.47 90.94 L 474.12 91.03 L 483.76 90.94 L 493.41 90.94 L 503.06 90.94 L 512.71 90.94 L 522.35 90.94 L 532.00 90.94 L 541.65 90.94 L 551.29 90.94 L 560.94 90.94 L 570.59 90.94 L 580.24 90.94 L 589.88 90.94 L 599.53 90.94 L 609.18 90.94 L 618.82 90.94 L 628.47 90.94 L 638.12 90.94 L 647.76 90.94 L 657.41 90.94 L 667.06 90.94 L 676.71 90.94 L 686.35 90.94 L 696.00 90.94 L 705.65 90.94 L 715.29 90.94 L 724.94 123.79 L 734.59 123.79 L 744.24 123.79 L 753.88 123.79 L 763.53 123.79 L 773.18 123.79 L 782.82 123.79 L 792.47 123.79 L 802.12 123.79 L 811.76 123.79 L 821.41 123.79 L 831.06 123.79 L 840.71 123.79 L 850.35 123.79 L 860.00 123.79" fill="none" stroke="#111827" stroke-width="2"/>
    <circle cx="860.00" cy="123.79" r="3" fill="#111827"/>
    <text x="40.00" y="235.00" font-size="9" fill="#111827" text-anchor="middle" transform="rotate(-45 40.00 235.00)">09.08.2025</text><text x="117.18" y="235.00" font-size="9" fill="#111827" text-anchor="middle" transform="rotate(-45 117.18 235.00)">12.08.2025</text><text x="194.35" y="235.00" font-size="9" fill="#111827" text-anchor="middle" transform="rotate(-45 194.35 235.00)">13.08.2025</text><text x="271.53" y="235.00" font-size="9" fill="#111827" text-anchor="middle" transform="rotate(-45 271.53 235.00)">18.08.2025</text><text x="348.71" y="235.00" font-size="9" fill="#111827" text-anchor="middle" transform="rotate(-45 348.71 235.00)">21.08.2025</text><text x="425.88" y="235.00" font-size="9" fill="#111827" text-anchor="middle" transform="rotate(-45 425.88 235.00)">26.08.2025</text><text x="503.06" y="235.00" font-size="9" fill="#111827" text-anchor="middle" transform="rotate(-45 503.06 235.00)">29.08.2025</text><text x="580.24" y="235.00" font-size="9" fill="#111827" text-anchor="middle" transform="rotate(-45 580.24 235.00)">06.09.2025</text><text x="657.41" y="235.00" font-size="9" fill="#111827" text-anchor="middle" transform="rotate(-45 657.41 235.00)">14.09.2025</text><text x="734.59" y="235.00" font-size="9" fill="#111827" text-anchor="middle" transform="rotate(-45 734.59 235.00)">21.09.2025</text><text x="811.76" y="235.00" font-size="9" fill="#111827" text-anchor="middle" transform="rotate(-45 811.76 235.00)">28.09.2025</text>
  </g>
</svg>