<svg xmlns="http://www.w3.org/2000/svg" width="900" height="290" style="font-family: -apple-system, BlinkMacSystemFont, 'Segoe UI', Helvetica, Arial, sans-serif;">
  <rect width="100%" height="100%" fill="#0d1117"/>
  <g>
    <line x1="40" y1="220.00" x2="860" y2="220.00" stroke="#30363d"/><text x="32" y="224.00" font-size="10" fill="#c9d1d9" text-anchor="end">0</text><line x1="40" y1="175.00" x2="860" y2="175.00" stroke="#30363d"/><text x="32" y="179.00" font-size="10" fill="#c9d1d9" text-anchor="end">500</text><line x1="40" y1="130.00" x2="860" y2="130.00" stroke="#30363d"/><text x="32" y="134.00" font-size="10" fill="#c9d1d9" text-anchor="end">1k</text><line x1="40" y1="85.00" x2="860" y2="85.00" stroke="#30363d"/><text x="32" y="89.00" font-size="10" fill="#c9d1d9" text-anchor="end">1.5k</text><line x1="40" y1="40.00" x2="860" y2="40.00" stroke="#30363d"/><text x="32" y="44.00" font-size="10" fill="#c9d1d9" text-anchor="end">2k</text>
    <line x1="40.00" y1="40" x2="40.00" y2="220" stroke="#30363d" opacity="0.5"/><line x1="117.81" y1="40" x2="117.81" y2="220" stroke="#30363d" opacity="0.5"/><line x1="195.62" y1="40" x2="195.62" y2="220" stroke="#30363d" opacity="0.5"/><line x1="273.43" y1="40" x2="273.43" y2="220" stroke="#30363d" opacity="0.5"/><line x1="351.24" y1="40" x2="351.24" y2="220" stroke="#30363d" opacity="0.5"/><line x1="429.05" y1="40" x2="429.05" y2="220" stroke="#30363d" opacity="0.5"/><line x1="506.86" y1="40" x2="506.86" y2="220" stroke="#30363d" opacity="0.5"/><line x1="584.67" y1="40" x2="584.67" y2="220" stroke="#30363d" opacity="0.5"/><line x1="662.48" y1="40" x2="662.48" y2="220" stroke="#30363d" opacity="0.5"/><line x1="740.29" y1="40" x2="740.29" y2="220" stroke="#30363d" opacity="0.5"/><line x1="818.10" y1="40" x2="818.10" y2="220" stroke="#30363d" opacity="0.5"/>
    <line x1="40" y1="220" x2="860" y2="220" stroke="#30363d"/>
    <line x1="40" y1="40"   x2="40"   y2="220" stroke="#30363d"/>
    <path d="M 40.00 219.82 L 45.99 211.81 L 51.97 211.81 L 57.96 211.81 L 63.94 171.85 L 69.93 171.58 L 75.91 164.38 L 81.90 118.93 L 87.88 119.11 L 93.87 111.10 L 99.85 110.56 L 105.84 110.56 L 111.82 110.56 L 117.81 95.35 L 123.80 95.35 L 129.78 95.35 L 135.77 94.63 L 141.75 94.54 L 147.74 94.45 L 153.72 94.09 L 159.71 94.09 L 165.69 94.09 L 171.68 94.09 L 177.66 94.09 L 183.65 94.09 L 189.64 94.09 L 195.62 94.09 L 201.61 94.09 L 207.59 91.84 L 213.58 83.65 L 219.56 83.65 L 225.55 83.47 L 231.53 83.65 L 237.52 91.03 L 243.50 91.03 L 249.49 91.03 L 255.47 91.03 L 261.46 91.03 L 267.45 91.03 L 273.43 91.03 L 279.42 91.03 L 285.40 91.03 L 291.39 91.03 L 297.37 91.03 L 303.36 90.94 L 309.34 91.03 L 315.33 90.94 L 321.31 90.94 L 327.30 90.94 L 333.28 90.94 L 339.27 90.94 L 345.26 90.94 L 351.24 90.94 L 357.23 90.94 L 363.21 90.94 L 369.20 90.94 L 375.18 90.94 L 381.17 90.94 L 387.15 90.94 L 393.14 90.94 L 399.12 90.94 L 405.11 90.94 L 411.09 90.94 L 417.08 90.94 L 423.07 90.94 L 429.05 90.94 L 435.04 90.94 L 441.02 90.94 L 447.01 90.94 L 452.99 90.94 L 458.98 90.94 L 464.96 123.79 L 470.95 123.79 L 476.93 123.79 L 482.92 123.79 L 488.91 123.79 L 494.89 123.79 L 500.88 123.79 L 506.86 123.79 L 512.85 123.79 L 518.83 123.79 L 524.82 123.79 L 530.80 123.79 L 536.79 123.79 L 542.77 123.79 L 548.76 123.79 L 554.74 123.79 L 560.73 123.79 L 566.72 123.79 L 572.70 123.79 L 578.69 123.79 L 584.67 123.79 L 590.66 123.79 L 596.64 123.79 L 602.63 123.79 L 608.61 123.79 L 614.60 123.79 L 620.58 123.79 L 626.57 123.79 L 632.55 123.79 L 638.54 123.79 L 644.53 123.79 L 650.51 123.79 L 656.50 123.79 L 662.48 123.79 L 668.47 123.79 L 674.45 123.79 L 680.44 123.79 L 686.42 123.79 L 692.41 123.79 L 698.39 123.79 L 704.38 123.79 L 710.36 123.79 L 716.35 123.79 L 722.34 123.79 L 728.32 123.79 L 734.31 123.79 L 740.29 123.79 L 746.28 123.79 L 752.26 123.79 L 758.25 123.79 L 764.23 123.79 L 770.22 123.79 L 776.20 123.79 L 782.19 123.79 L 788.18 123.79 L 794.16 123.79 L 800.15 123.79 L 806.13 123.79 L 812.12 123.79 L 818.10 123.79 L 824.09 123.79 L 830.07 123.79 L 836.06 123.79 L 842.04 123.79 L 848.03 123.79 L 854.01 123.79 L 860.00 123.79" fill="none" stroke="#3fb950" stroke-width="2"/>
    <circle cx="860.00" cy="123.79" r="3" fill="#3fb950"/>
    <text x="40.00" y="235.00" font-size="9" fill="#c9d1d9" text-anchor="middle" transform="rotate(-45 40.00 235.00)">09.08.2025</text><text x="117.81" y="235.00" font-size="9" fill="#c9d1d9" text-anchor="middle" transform="rotate(-45 117.81 235.00)">13.08.2025</text><text x="195.62" y="235.00" font-size="9" fill="#c9d1d9" text-anchor="middle" transform="rotate(-45 195.62 235.00)">20.08.2025</text><text x="273.43" y="235.00" font-size="9" fill="#c9d1d9" text-anchor="middle" transform="rotate(-45 273.43 235.00)">25.08.2025</text><text x="351.24" y="235.00" font-size="9" fill="#c9d1d9" text-anchor="middle" transform="rotate(-45 351.24 235.00)">02.09.2025</text><text x="429.05" y="235.00" font-size="9" fill="#c9d1d9" text-anchor="middle" transform="rotate(-45 429.05 235.00)">15.09.2025</text><text x="506.86" y="235.00" font-size="9" fill="#c9d1d9" text-anchor="middle" transform="rotate(-45 506.86 235.00)">26.09.2025</text><text x="584.67" y="235.00" font-size="9" fill="#c9d1d9" text-anchor="middle" transform="rotate(-45 584.67 235.00)">09.10.2025</text><text x="662.48" y="235.00" font-size="9" fill="#c9d1d9" text-anchor="middle" transform="rotate(-45 662.48 235.00)">22.10.2025</text><text x="740.29" y="235.00" font-size="9" fill="#c9d1d9" text-anchor="middle" transform="rotate(-45 740.29 235.00)">04.11.2025</text><text x="818.10" y="235.00" font-size="9" fill="#c9d1d9" text-anchor="middle" transform="rotate(-45 818.10 235.00)">17.11.2025</text>
  </g>
</svg>