<svg xmlns="http://www.w3.org/2000/svg" width="900" height="290" style="font-family: -apple-system, BlinkMacSystemFont, 'Segoe UI', Helvetica, Arial, sans-serif;">
  <rect width="100%" height="100%" fill="white"/>
  <g>
    <line x1="40" y1="220.00" x2="860" y2="220.00" stroke="#e5e7eb"/><text x="32" y="224.00" font-size="10" fill="#111827" text-anchor="end">0</text><line x1="40" y1="175.00" x2="860" y2="175.00" stroke="#e5e7eb"/><text x="32" y="179.00" font-size="10" fill="#111827" text-anchor="end">500</text><line x1="40" y1="130.00" x2="860" y2="130.00" stroke="#e5e7eb"/><text x="32" y="134.00" font-size="10" fill="#111827" text-anchor="end">1k</text><line x1="40" y1="85.00" x2="860" y2="85.00" stroke="#e5e7eb"/><text x="32" y="89.00" font-size="10" fill="#111827" text-anchor="end">1.5k</text><line x1="40" y1="40.00" x2="860" y2="40.00" stroke="#e5e7eb"/><text x="32" y="44.00" font-size="10" fill="#111827" text-anchor="end">2k</text>
    <line x1="40.00" y1="40" x2="40.00" y2="220" stroke="#e5e7eb" opacity="0.5"/><line x1="118.85" y1="40" x2="118.85" y2="220" stroke="#e5e7eb" opacity="0.5"/><line x1="197.69" y1="40" x2="197.69" y2="220" stroke="#e5e7eb" opacity="0.5"/><line x1="276.54" y1="40" x2="276.54" y2="220" stroke="#e5e7eb" opacity="0.5"/><line x1="355.38" y1="40" x2="355.38" y2="220" stroke="#e5e7eb" opacity="0.5"/><line x1="434.23" y1="40" x2="434.23" y2="220" stroke="#e5e7eb" opacity="0.5"/><line x1="513.08" y1="40" x2="513.08" y2="220" stroke="#e5e7eb" opacity="0.5"/><line x1="591.92" y1="40" x2="591.92" y2="220" stroke="#e5e7eb" opacity="0.5"/><line x1="670.77" y1="40" x2="670.77" y2="220" stroke="#e5e7eb" opacity="0.5"/><line x1="749.62" y1="40" x2="749.62" y2="220" stroke="#e5e7eb" opacity="0.5"/><line x1="828.46" y1="40" x2="828.46" y2="220" stroke="#e5e7eb" opacity="0.5"/>
    <line x1="40" y1="220" x2="860" y2="220" stroke="#9ca3af"/>
    <line x1="40" y1="40"   x2="40"   y2="220" stroke="#9ca3af"/>
    <path d="M 40.00 219.82 L 55.77 211.81 L 71.54 211.81 L 87.31 211.81 L 103.08 171.85 L 118.85 171.58 L 134.62 164.38 L 150.38 118.93 L 166.15 119.11 L 181.92 111.10 L 197.69 110.56 L 213.46 110.56 L 229.23 110.56 L 245.00 95.35 L 260.77 95.35 L 276.54 95.35 L 292.31 94.63 L 308.08 94.54 L 323.85 94.45 L 339.62 94.09 L 355.38 94.09 L 371.15 94.09 L 386.92 94.09 L 402.69 94.09 L 418.46 94.09 L 434.23 94.09 L 450.00 94.09 L 465.77 94.09 L 481.54 91.84 L 497.31 83.65 L 513.08 83.65 L 528.85 83.47 L 544.62 83.65 L 560.38 91.03 L 576.15 91.03 L 591.92 91.03 L 607.69 91.03 L 623.46 91.03 L 639.23 91.03 L 655.00 91.03 L 670.77 91.03 L 686.54 91.03 L 702.31 91.03 L 718.08 91.03 L 733.85 90.94 L 749.62 91.03 L 765.38 90.94 L 781.15 90.94 L 796.92 90.94 L 812.69 90.94 L 828.46 90.94 L 844.23 90.94 L 860.00 90.94" fill="none" stroke="#111827" stroke-width="2"/>
    <circle cx="860.00" cy="90.94" r="3" fill="#111827"/>
    <text x="40.00" y="235.00" font-size="9" fill="#111827" text-anchor="middle" transform="rotate(-45 40.00 235.00)">09.08.2025</text><text x="118.85" y="235.00" font-size="9" fill="#111827" text-anchor="middle" transform="rotate(-45 118.85 235.00)">09.08.2025</text><text x="197.69" y="235.00" font-size="9" fill="#111827" text-anchor="middle" transform="rotate(-45 197.69 235.00)">13.08.2025</text><text x="276.54" y="235.00" font-size="9" fill="#111827" text-anchor="middle" transform="rotate(-45 276.54 235.00)">13.08.2025</text><text x="355.38" y="235.00" font-size="9" fill="#111827" text-anchor="middle" transform="rotate(-45 355.38 235.00)">14.08.2025</text><text x="434.23" y="235.00" font-size="9" fill="#111827" text-anchor="middle" transform="rotate(-45 434.23 235.00)">19.08.2025</text><text x="513.08" y="235.00" font-size="9" fill="#111827" text-anchor="middle" transform="rotate(-45 513.08 235.00)">21.08.2025</text><text x="591.92" y="235.00" font-size="9" fill="#111827" text-anchor="middle" transform="rotate(-45 591.92 235.00)">21.08.2025</text><text x="670.77" y="235.00" font-size="9" fill="#111827" text-anchor="middle" transform="rotate(-45 670.77 235.00)">26.08.2025</text><text x="749.62" y="235.00" font-size="9" fill="#111827" text-anchor="middle" transform="rotate(-45 749.62 235.00)">28.08.2025</text><text x="828.46" y="235.00" font-size="9" fill="#111827" text-anchor="middle" transform="rotate(-45 828.46 235.00)">31.08.2025</text>
  </g>
</svg>