<svg xmlns="http://www.w3.org/2000/svg" width="900" height="290" style="font-family: -apple-system, BlinkMacSystemFont, 'Segoe UI', Helvetica, Arial, sans-serif;">
  <rect width="100%" height="100%" fill="#0d1117"/>
  <g>
    <line x1="40" y1="220.00" x2="860" y2="220.00" stroke="#30363d"/><text x="32" y="224.00" font-size="10" fill="#c9d1d9" text-anchor="end">0</text><line x1="40" y1="175.00" x2="860" y2="175.00" stroke="#30363d"/><text x="32" y="179.00" font-size="10" fill="#c9d1d9" text-anchor="end">500</text><line x1="40" y1="130.00" x2="860" y2="130.00" stroke="#30363d"/><text x="32" y="134.00" font-size="10" fill="#c9d1d9" text-anchor="end">1k</text><line x1="40" y1="85.00" x2="860" y2="85.00" stroke="#30363d"/><text x="32" y="89.00" font-size="10" fill="#c9d1d9" text-anchor="end">1.5k</text><line x1="40" y1="40.00" x2="860" y2="40.00" stroke="#30363d"/><text x="32" y="44.00" font-size="10" fill="#c9d1d9" text-anchor="end">2k</text>
    <line x1="40.00" y1="40" x2="40.00" y2="220" stroke="#30363d" opacity="0.5"/><line x1="118.51" y1="40" x2="118.51" y2="220" stroke="#30363d" opacity="0.5"/><line x1="197.02" y1="40" x2="197.02" y2="220" stroke="#30363d" opacity="0.5"/><line x1="275.53" y1="40" x2="275.53" y2="220" stroke="#30363d" opacity="0.5"/><line x1="354.04" y1="40" x2="354.04" y2="220" stroke="#30363d" opacity="0.5"/><line x1="432.55" y1="40" x2="432.55" y2="220" stroke="#30363d" opacity="0.5"/><line x1="511.06" y1="40" x2="511.06" y2="220" stroke="#30363d" opacity="0.5"/><line x1="589.57" y1="40" x2="589.57" y2="220" stroke="#30363d" opacity="0.5"/><line x1="668.09" y1="40" x2="668.09" y2="220" stroke="#30363d" opacity="0.5"/><line x1="746.60" y1="40" x2="746.60" y2="220" stroke="#30363d" opacity="0.5"/><line x1="825.11" y1="40" x2="825.11" y2="220" stroke="#30363d" opacity="0.5"/>
    <line x1="40" y1="220" x2="860" y2="220" stroke="#30363d"/>
    <line x1="40" y1="40"   x2="40"   y2="220" stroke="#30363d"/>
    <path d="M 40.00 219.82 L 44.36 211.81 L 48.72 211.81 L 53.09 211.81 L 57.45 171.85 L 61.81 171.58 L 66.17 164.38 L 70.53 118.93 L 74.89 119.11 L 79.26 111.10 L 83.62 110.56 L 87.98 110.56 L 92.34 110.56 L 96.70 95.35 L 101.06 95.35 L 105.43 95.35 L 109.79 94.63 L 114.15 94.54 L 118.51 94.45 L 122.87 94.09 L 127.23 94.09 L 131.60 94.09 L 135.96 94.09 L 140.32 94.09 L 144.68 94.09 L 149.04 94.09 L 153.40 94.09 L 157.77 94.09 L 162.13 91.84 L 166.49 83.65 L 170.85 83.65 L 175.21 83.47 L 179.57 83.65 L 183.94 91.03 L 188.30 91.03 L 192.66 91.03 L 197.02 91.03 L 201.38 91.03 L 205.74 91.03 L 210.11 91.03 L 214.47 91.03 L 218.83 91.03 L 223.19 91.03 L 227.55 91.03 L 231.91 90.94 L 236.28 91.03 L 240.64 90.94 L 245.00 90.94 L 249.36 90.94 L 253.72 90.94 L 258.09 90.94 L 262.45 90.94 L 266.81 90.94 L 271.17 90.94 L 275.53 90.94 L 279.89 90.94 L 284.26 90.94 L 288.62 90.94 L 292.98 90.94 L 297.34 90.94 L 301.70 90.94 L 306.06 90.94 L 310.43 90.94 L 314.79 90.94 L 319.15 90.94 L 323.51 90.94 L 327.87 90.94 L 332.23 90.94 L 336.60 90.94 L 340.96 90.94 L 345.32 90.94 L 349.68 123.79 L 354.04 123.79 L 358.40 123.79 L 362.77 123.79 L 367.13 123.79 L 371.49 123.79 L 375.85 123.79 L 380.21 123.79 L 384.57 123.79 L 388.94 123.79 L 393.30 123.79 L 397.66 123.79 L 402.02 123.79 L 406.38 123.79 L 410.74 123.79 L 415.11 123.79 L 419.47 123.79 L 423.83 123.79 L 428.19 123.79 L 432.55 123.79 L 436.91 123.79 L 441.28 123.79 L 445.64 123.79 L 450.00 123.79 L 454.36 123.79 L 458.72 123.79 L 463.09 123.79 L 467.45 123.79 L 471.81 123.79 L 476.17 123.79 L 480.53 123.79 L 484.89 123.79 L 489.26 123.79 L 493.62 123.79 L 497.98 123.79 L 502.34 123.79 L 506.70 123.79 L 511.06 123.79 L 515.43 123.79 L 519.79 123.79 L 524.15 123.79 L 528.51 123.79 L 532.87 123.79 L 537.23 123.79 L 541.60 123.79 L 545.96 123.79 L 550.32 123.79 L 554.68 123.79 L 559.04 123.79 L 563.40 123.79 L 567.77 123.79 L 572.13 123.79 L 576.49 123.79 L 580.85 123.79 L 585.21 123.79 L 589.57 123.79 L 593.94 123.79 L 598.30 123.79 L 602.66 123.79 L 607.02 123.79 L 611.38 123.79 L 615.74 123.79 L 620.11 123.79 L 624.47 123.79 L 628.83 123.79 L 633.19 123.79 L 637.55 123.79 L 641.91 123.79 L 646.28 123.79 L 650.64 123.79 L 655.00 123.79 L 659.36 123.79 L 663.72 123.79 L 668.09 123.79 L 672.45 123.79 L 676.81 123.79 L 681.17 123.79 L 685.53 115.42 L 689.89 111.64 L 694.26 107.86 L 698.62 104.08 L 702.98 100.30 L 707.34 95.98 L 711.70 95.98 L 716.06 95.98 L 720.43 95.98 L 724.79 85.72 L 729.15 85.72 L 733.51 85.72 L 737.87 85.72 L 742.23 85.72 L 746.60 85.72 L 750.96 85.72 L 755.32 85.72 L 759.68 85.72 L 764.04 85.72 L 768.40 85.72 L 772.77 85.72 L 777.13 85.72 L 781.49 85.72 L 785.85 85.72 L 790.21 85.72 L 794.57 85.72 L 798.94 85.72 L 803.30 85.72 L 807.66 85.72 L 812.02 85.72 L 816.38 85.72 L 820.74 85.72 L 825.11 85.72 L 829.47 85.72 L 833.83 85.72 L 838.19 85.72 L 842.55 85.72 L 846.91 85.72 L 851.28 85.72 L 855.64 85.72 L 860.00 85.72" fill="none" stroke="#3fb950" stroke-width="2"/>
    <circle cx="860.00" cy="85.72" r="3" fill="#3fb950"/>
    <text x="40.00" y="235.00" font-size="9" fill="#c9d1d9" text-anchor="middle" transform="rotate(-45 40.00 235.00)">09.08.2025</text><text x="118.51" y="235.00" font-size="9" fill="#c9d1d9" text-anchor="middle" transform="rotate(-45 118.51 235.00)">13.08.2025</text><text x="197.02" y="235.00" font-size="9" fill="#c9d1d9" text-anchor="middle" transform="rotate(-45 197.02 235.00)">22.08.2025</text><text x="275.53" y="235.00" font-size="9" fill="#c9d1d9" text-anchor="middle" transform="rotate(-45 275.53 235.00)">04.09.2025</text><text x="354.04" y="235.00" font-size="9" fill="#c9d1d9" text-anchor="middle" transform="rotate(-45 354.04 235.00)">21.09.2025</text><text x="432.55" y="235.00" font-size="9" fill="#c9d1d9" text-anchor="middle" transform="rotate(-45 432.55 235.00)">08.10.2025</text><text x="511.06" y="235.00" font-size="9" fill="#c9d1d9" text-anchor="middle" transform="rotate(-45 511.06 235.00)">26.10.2025</text><text x="589.57" y="235.00" font-size="9" fill="#c9d1d9" text-anchor="middle" transform="rotate(-45 589.57 235.00)">13.11.2025</text><text x="668.09" y="235.00" font-size="9" fill="#c9d1d9" text-anchor="middle" transform="rotate(-45 668.09 235.00)">01.12.2025</text><text x="746.60" y="235.00" font-size="9" fill="#c9d1d9" text-anchor="middle" transform="rotate(-45 746.60 235.00)">12.12.2025</text><text x="825.11" y="235.00" font-size="9" fill="#c9d1d9" text-anchor="middle" transform="rotate(-45 825.11 235.00)">30.12.2025</text>
  </g>
</svg>