<svg xmlns="http://www.w3.org/2000/svg" width="900" height="290" style="font-family: -apple-system, BlinkMacSystemFont, 'Segoe UI', Helvetica, Arial, sans-serif;">
  <rect width="100%" height="100%" fill="white"/>
  <g>
    <line x1="40" y1="220.00" x2="860" y2="220.00" stroke="#e5e7eb"/><text x="32" y="224.00" font-size="10" fill="#111827" text-anchor="end">0</text><line x1="40" y1="175.00" x2="860" y2="175.00" stroke="#e5e7eb"/><text x="32" y="179.00" font-size="10" fill="#111827" text-anchor="end">500</text><line x1="40" y1="130.00" x2="860" y2="130.00" stroke="#e5e7eb"/><text x="32" y="134.00" font-size="10" fill="#111827" text-anchor="end">1k</text><line x1="40" y1="85.00" x2="860" y2="85.00" stroke="#e5e7eb"/><text x="32" y="89.00" font-size="10" fill="#111827" text-anchor="end">1.5k</text><line x1="40" y1="40.00" x2="860" y2="40.00" stroke="#e5e7eb"/><text x="32" y="44.00" font-size="10" fill="#111827" text-anchor="end">2k</text>
    <line x1="40.00" y1="40" x2="40.00" y2="220" stroke="#e5e7eb" opacity="0.5"/><line x1="120.79" y1="40" x2="120.79" y2="220" stroke="#e5e7eb" opacity="0.5"/><line x1="201.58" y1="40" x2="201.58" y2="220" stroke="#e5e7eb" opacity="0.5"/><line x1="282.36" y1="40" x2="282.36" y2="220" stroke="#e5e7eb" opacity="0.5"/><line x1="363.15" y1="40" x2="363.15" y2="220" stroke="#e5e7eb" opacity="0.5"/><line x1="443.94" y1="40" x2="443.94" y2="220" stroke="#e5e7eb" opacity="0.5"/><line x1="524.73" y1="40" x2="524.73" y2="220" stroke="#e5e7eb" opacity="0.5"/><line x1="605.52" y1="40" x2="605.52" y2="220" stroke="#e5e7eb" opacity="0.5"/><line x1="686.31" y1="40" x2="686.31" y2="220" stroke="#e5e7eb" opacity="0.5"/><line x1="767.09" y1="40" x2="767.09" y2="220" stroke="#e5e7eb" opacity="0.5"/><line x1="847.88" y1="40" x2="847.88" y2="220" stroke="#e5e7eb" opacity="0.5"/>
    <line x1="40" y1="220" x2="860" y2="220" stroke="#9ca3af"/>
    <line x1="40" y1="40"   x2="40"   y2="220" stroke="#9ca3af"/>
    <path d="M 40.00 219.82 L 44.04 211.81 L 48.08 211.81 L 52.12 211.81 L 56.16 171.85 L 60.20 171.58 L 64.24 164.38 L 68.28 118.93 L 72.32 119.11 L 76.35 111.10 L 80.39 110.56 L 84.43 110.56 L 88.47 110.56 L 92.51 95.35 L 96.55 95.35 L 100.59 95.35 L 104.63 94.63 L 108.67 94.54 L 112.71 94.45 L 116.75 94.09 L 120.79 94.09 L 124.83 94.09 L 128.87 94.09 L 132.91 94.09 L 136.95 94.09 L 140.99 94.09 L 145.02 94.09 L 149.06 94.09 L 153.10 91.84 L 157.14 83.65 L 161.18 83.65 L 165.22 83.47 L 169.26 83.65 L 173.30 91.03 L 177.34 91.03 L 181.38 91.03 L 185.42 91.03 L 189.46 91.03 L 193.50 91.03 L 197.54 91.03 L 201.58 91.03 L 205.62 91.03 L 209.66 91.03 L 213.69 91.03 L 217.73 90.94 L 221.77 91.03 L 225.81 90.94 L 229.85 90.94 L 233.89 90.94 L 237.93 90.94 L 241.97 90.94 L 246.01 90.94 L 250.05 90.94 L 254.09 90.94 L 258.13 90.94 L 262.17 90.94 L 266.21 90.94 L 270.25 90.94 L 274.29 90.94 L 278.33 90.94 L 282.36 90.94 L 286.40 90.94 L 290.44 90.94 L 294.48 90.94 L 298.52 90.94 L 302.56 90.94 L 306.60 90.94 L 310.64 90.94 L 314.68 90.94 L 318.72 90.94 L 322.76 90.94 L 326.80 123.79 L 330.84 123.79 L 334.88 123.79 L 338.92 123.79 L 342.96 123.79 L 347.00 123.79 L 351.03 123.79 L 355.07 123.79 L 359.11 123.79 L 363.15 123.79 L 367.19 123.79 L 371.23 123.79 L 375.27 123.79 L 379.31 123.79 L 383.35 123.79 L 387.39 123.79 L 391.43 123.79 L 395.47 123.79 L 399.51 123.79 L 403.55 123.79 L 407.59 123.79 L 411.63 123.79 L 415.67 123.79 L 419.70 123.79 L 423.74 123.79 L 427.78 123.79 L 431.82 123.79 L 435.86 123.79 L 439.90 123.79 L 443.94 123.79 L 447.98 123.79 L 452.02 123.79 L 456.06 123.79 L 460.10 123.79 L 464.14 123.79 L 468.18 123.79 L 472.22 123.79 L 476.26 123.79 L 480.30 123.79 L 484.33 123.79 L 488.37 123.79 L 492.41 123.79 L 496.45 123.79 L 500.49 123.79 L 504.53 123.79 L 508.57 123.79 L 512.61 123.79 L 516.65 123.79 L 520.69 123.79 L 524.73 123.79 L 528.77 123.79 L 532.81 123.79 L 536.85 123.79 L 540.89 123.79 L 544.93 123.79 L 548.97 123.79 L 553.00 123.79 L 557.04 123.79 L 561.08 123.79 L 565.12 123.79 L 569.16 123.79 L 573.20 123.79 L 577.24 123.79 L 581.28 123.79 L 585.32 123.79 L 589.36 123.79 L 593.40 123.79 L 597.44 123.79 L 601.48 123.79 L 605.52 123.79 L 609.56 123.79 L 613.60 123.79 L 617.64 123.79 L 621.67 123.79 L 625.71 123.79 L 629.75 123.79 L 633.79 123.79 L 637.83 115.42 L 641.87 111.64 L 645.91 107.86 L 649.95 104.08 L 653.99 100.30 L 658.03 95.98 L 662.07 95.98 L 666.11 95.98 L 670.15 95.98 L 674.19 85.72 L 678.23 85.72 L 682.27 85.72 L 686.31 85.72 L 690.34 85.72 L 694.38 85.72 L 698.42 85.72 L 702.46 85.72 L 706.50 85.72 L 710.54 85.72 L 714.58 85.72 L 718.62 85.72 L 722.66 85.72 L 726.70 85.72 L 730.74 85.72 L 734.78 85.72 L 738.82 85.72 L 742.86 85.72 L 746.90 85.72 L 750.94 85.72 L 754.98 85.72 L 759.01 85.72 L 763.05 85.72 L 767.09 85.72 L 771.13 85.72 L 775.17 85.72 L 779.21 85.72 L 783.25 85.72 L 787.29 85.72 L 791.33 85.72 L 795.37 85.72 L 799.41 85.72 L 803.45 85.72 L 807.49 85.72 L 811.53 85.72 L 815.57 85.72 L 819.61 85.72 L 823.65 85.72 L 827.68 85.72 L 831.72 85.72 L 835.76 85.72 L 839.80 85.72 L 843.84 85.72 L 847.88 85.72 L 851.92 85.72 L 855.96 85.72 L 860.00 85.72" fill="none" stroke="#111827" stroke-width="2"/>
    <circle cx="860.00" cy="85.72" r="3" fill="#111827"/>
    <text x="40.00" y="235.00" font-size="9" fill="#111827" text-anchor="middle" transform="rotate(-45 40.00 235.00)">09.08.2025</text><text x="120.79" y="235.00" font-size="9" fill="#111827" text-anchor="middle" transform="rotate(-45 120.79 235.00)">14.08.2025</text><text x="201.58" y="235.00" font-size="9" fill="#111827" text-anchor="middle" transform="rotate(-45 201.58 235.00)">26.08.2025</text><text x="282.36" y="235.00" font-size="9" fill="#111827" text-anchor="middle" transform="rotate(-45 282.36 235.00)">10.09.2025</text><text x="363.15" y="235.00" font-size="9" fill="#111827" text-anchor="middle" transform="rotate(-45 363.15 235.00)">28.09.2025</text><text x="443.94" y="235.00" font-size="9" fill="#111827" text-anchor="middle" transform="rotate(-45 443.94 235.00)">18.10.2025</text><text x="524.73" y="235.00" font-size="9" fill="#111827" text-anchor="middle" transform="rotate(-45 524.73 235.00)">07.11.2025</text><text x="605.52" y="235.00" font-size="9" fill="#111827" text-anchor="middle" transform="rotate(-45 605.52 235.00)">27.11.2025</text><text x="686.31" y="235.00" font-size="9" fill="#111827" text-anchor="middle" transform="rotate(-45 686.31 235.00)">10.12.2025</text><text x="767.09" y="235.00" font-size="9" fill="#111827" text-anchor="middle" transform="rotate(-45 767.09 235.00)">30.12.2025</text><text x="847.88" y="235.00" font-size="9" fill="#111827" text-anchor="middle" transform="rotate(-45 847.88 235.00)">19.01.2026</text>
  </g>
</svg>