<svg xmlns="http://www.w3.org/2000/svg" width="900" height="290" style="font-family: -apple-system, BlinkMacSystemFont, 'Segoe UI', Helvetica, Arial, sans-serif;">
  <rect width="100%" height="100%" fill="#0d1117"/>
  <g>
    <line x1="40" y1="220.00" x2="860" y2="220.00" stroke="#30363d"/><text x="32" y="224.00" font-size="10" fill="#c9d1d9" text-anchor="end">0</text><line x1="40" y1="175.00" x2="860" y2="175.00" stroke="#30363d"/><text x="32" y="179.00" font-size="10" fill="#c9d1d9" text-anchor="end">500</text><line x1="40" y1="130.00" x2="860" y2="130.00" stroke="#30363d"/><text x="32" y="134.00" font-size="10" fill="#c9d1d9" text-anchor="end">1k</text><line x1="40" y1="85.00" x2="860" y2="85.00" stroke="#30363d"/><text x="32" y="89.00" font-size="10" fill="#c9d1d9" text-anchor="end">1.5k</text><line x1="40" y1="40.00" x2="860" y2="40.00" stroke="#30363d"/><text x="32" y="44.00" font-size="10" fill="#c9d1d9" text-anchor="end">2k</text>
    <line x1="40.00" y1="40" x2="40.00" y2="220" stroke="#30363d" opacity="0.5"/><line x1="118.96" y1="40" x2="118.96" y2="220" stroke="#30363d" opacity="0.5"/><line x1="197.93" y1="40" x2="197.93" y2="220" stroke="#30363d" opacity="0.5"/><line x1="276.89" y1="40" x2="276.89" y2="220" stroke="#30363d" opacity="0.5"/><line x1="355.85" y1="40" x2="355.85" y2="220" stroke="#30363d" opacity="0.5"/><line x1="434.81" y1="40" x2="434.81" y2="220" stroke="#30363d" opacity="0.5"/><line x1="513.78" y1="40" x2="513.78" y2="220" stroke="#30363d" opacity="0.5"/><line x1="592.74" y1="40" x2="592.74" y2="220" stroke="#30363d" opacity="0.5"/><line x1="671.70" y1="40" x2="671.70" y2="220" stroke="#30363d" opacity="0.5"/><line x1="750.67" y1="40" x2="750.67" y2="220" stroke="#30363d" opacity="0.5"/><line x1="829.63" y1="40" x2="829.63" y2="220" stroke="#30363d" opacity="0.5"/>
    <line x1="40" y1="220" x2="860" y2="220" stroke="#30363d"/>
    <line x1="40" y1="40"   x2="40"   y2="220" stroke="#30363d"/>
    <path d="M 40.00 219.82 L 46.07 211.81 L 52.15 211.81 L 58.22 211.81 L 64.30 171.85 L 70.37 171.58 L 76.44 164.38 L 82.52 118.93 L 88.59 119.11 L 94.67 111.10 L 100.74 110.56 L 106.81 110.56 L 112.89 110.56 L 118.96 95.35 L 125.04 95.35 L 131.11 95.35 L 137.19 94.63 L 143.26 94.54 L 149.33 94.45 L 155.41 94.09 L 161.48 94.09 L 167.56 94.09 L 173.63 94.09 L 179.70 94.09 L 185.78 94.09 L 191.85 94.09 L 197.93 94.09 L 204.00 94.09 L 210.07 91.84 L 216.15 83.65 L 222.22 83.65 L 228.30 83.47 L 234.37 83.65 L 240.44 91.03 L 246.52 91.03 L 252.59 91.03 L 258.67 91.03 L 264.74 91.03 L 270.81 91.03 L 276.89 91.03 L 282.96 91.03 L 289.04 91.03 L 295.11 91.03 L 301.19 91.03 L 307.26 90.94 L 313.33 91.03 L 319.41 90.94 L 325.48 90.94 L 331.56 90.94 L 337.63 90.94 L 343.70 90.94 L 349.78 90.94 L 355.85 90.94 L 361.93 90.94 L 368.00 90.94 L 374.07 90.94 L 380.15 90.94 L 386.22 90.94 L 392.30 90.94 L 398.37 90.94 L 404.44 90.94 L 410.52 90.94 L 416.59 90.94 L 422.67 90.94 L 428.74 90.94 L 434.81 90.94 L 440.89 90.94 L 446.96 90.94 L 453.04 90.94 L 459.11 90.94 L 465.19 90.94 L 471.26 123.79 L 477.33 123.79 L 483.41 123.79 L 489.48 123.79 L 495.56 123.79 L 501.63 123.79 L 507.70 123.79 L 513.78 123.79 L 519.85 123.79 L 525.93 123.79 L 532.00 123.79 L 538.07 123.79 L 544.15 123.79 L 550.22 123.79 L 556.30 123.79 L 562.37 123.79 L 568.44 123.79 L 574.52 123.79 L 580.59 123.79 L 586.67 123.79 L 592.74 123.79 L 598.81 123.79 L 604.89 123.79 L 610.96 123.79 L 617.04 123.79 L 623.11 123.79 L 629.19 123.79 L 635.26 123.79 L 641.33 123.79 L 647.41 123.79 L 653.48 123.79 L 659.56 123.79 L 665.63 123.79 L 671.70 123.79 L 677.78 123.79 L 683.85 123.79 L 689.93 123.79 L 696.00 123.79 L 702.07 123.79 L 708.15 123.79 L 714.22 123.79 L 720.30 123.79 L 726.37 123.79 L 732.44 123.79 L 738.52 123.79 L 744.59 123.79 L 750.67 123.79 L 756.74 123.79 L 762.81 123.79 L 768.89 123.79 L 774.96 123.79 L 781.04 123.79 L 787.11 123.79 L 793.19 123.79 L 799.26 123.79 L 805.33 123.79 L 811.41 123.79 L 817.48 123.79 L 823.56 123.79 L 829.63 123.79 L 835.70 123.79 L 841.78 123.79 L 847.85 123.79 L 853.93 123.79 L 860.00 123.79" fill="none" stroke="#3fb950" stroke-width="2"/>
    <circle cx="860.00" cy="123.79" r="3" fill="#3fb950"/>
    <text x="40.00" y="235.00" font-size="9" fill="#c9d1d9" text-anchor="middle" transform="rotate(-45 40.00 235.00)">09.08.2025</text><text x="118.96" y="235.00" font-size="9" fill="#c9d1d9" text-anchor="middle" transform="rotate(-45 118.96 235.00)">13.08.2025</text><text x="197.93" y="235.00" font-size="9" fill="#c9d1d9" text-anchor="middle" transform="rotate(-45 197.93 235.00)">20.08.2025</text><text x="276.89" y="235.00" font-size="9" fill="#c9d1d9" text-anchor="middle" transform="rotate(-45 276.89 235.00)">25.08.2025</text><text x="355.85" y="235.00" font-size="9" fill="#c9d1d9" text-anchor="middle" transform="rotate(-45 355.85 235.00)">02.09.2025</text><text x="434.81" y="235.00" font-size="9" fill="#c9d1d9" text-anchor="middle" transform="rotate(-45 434.81 235.00)">15.09.2025</text><text x="513.78" y="235.00" font-size="9" fill="#c9d1d9" text-anchor="middle" transform="rotate(-45 513.78 235.00)">26.09.2025</text><text x="592.74" y="235.00" font-size="9" fill="#c9d1d9" text-anchor="middle" transform="rotate(-45 592.74 235.00)">09.10.2025</text><text x="671.70" y="235.00" font-size="9" fill="#c9d1d9" text-anchor="middle" transform="rotate(-45 671.70 235.00)">22.10.2025</text><text x="750.67" y="235.00" font-size="9" fill="#c9d1d9" text-anchor="middle" transform="rotate(-45 750.67 235.00)">04.11.2025</text><text x="829.63" y="235.00" font-size="9" fill="#c9d1d9" text-anchor="middle" transform="rotate(-45 829.63 235.00)">17.11.2025</text>
  </g>
</svg>