<svg xmlns="http://www.w3.org/2000/svg" width="900" height="290" style="font-family: -apple-system, BlinkMacSystemFont, 'Segoe UI', Helvetica, Arial, sans-serif;">
  <rect width="100%" height="100%" fill="#0d1117"/>
  <g>
    <line x1="40" y1="220.00" x2="860" y2="220.00" stroke="#30363d"/><text x="32" y="224.00" font-size="10" fill="#c9d1d9" text-anchor="end">0</text><line x1="40" y1="175.00" x2="860" y2="175.00" stroke="#30363d"/><text x="32" y="179.00" font-size="10" fill="#c9d1d9" text-anchor="end">500</text><line x1="40" y1="130.00" x2="860" y2="130.00" stroke="#30363d"/><text x="32" y="134.00" font-size="10" fill="#c9d1d9" text-anchor="end">1k</text><line x1="40" y1="85.00" x2="860" y2="85.00" stroke="#30363d"/><text x="32" y="89.00" font-size="10" fill="#c9d1d9" text-anchor="end">1.5k</text><line x1="40" y1="40.00" x2="860" y2="40.00" stroke="#30363d"/><text x="32" y="44.00" font-size="10" fill="#c9d1d9" text-anchor="end">2k</text>
    <line x1="40.00" y1="40" x2="40.00" y2="220" stroke="#30363d" opacity="0.5"/><line x1="117.76" y1="40" x2="117.76" y2="220" stroke="#30363d" opacity="0.5"/><line x1="195.52" y1="40" x2="195.52" y2="220" stroke="#30363d" opacity="0.5"/><line x1="273.28" y1="40" x2="273.28" y2="220" stroke="#30363d" opacity="0.5"/><line x1="351.03" y1="40" x2="351.03" y2="220" stroke="#30363d" opacity="0.5"/><line x1="428.79" y1="40" x2="428.79" y2="220" stroke="#30363d" opacity="0.5"/><line x1="506.55" y1="40" x2="506.55" y2="220" stroke="#30363d" opacity="0.5"/><line x1="584.31" y1="40" x2="584.31" y2="220" stroke="#30363d" opacity="0.5"/><line x1="662.07" y1="40" x2="662.07" y2="220" stroke="#30363d" opacity="0.5"/><line x1="739.83" y1="40" x2="739.83" y2="220" stroke="#30363d" opacity="0.5"/><line x1="817.59" y1="40" x2="817.59" y2="220" stroke="#30363d" opacity="0.5"/>
    <line x1="40" y1="220" x2="860" y2="220" stroke="#30363d"/>
    <line x1="40" y1="40"   x2="40"   y2="220" stroke="#30363d"/>
    <path d="M 40.00 219.82 L 47.07 211.81 L 54.14 211.81 L 61.21 211.81 L 68.28 171.85 L 75.34 171.58 L 82.41 164.38 L 89.48 118.93 L 96.55 119.11 L 103.62 111.10 L 110.69 110.56 L 117.76 110.56 L 124.83 110.56 L 131.90 95.35 L 138.97 95.35 L 146.03 95.35 L 153.10 94.63 L 160.17 94.54 L 167.24 94.45 L 174.31 94.09 L 181.38 94.09 L 188.45 94.09 L 195.52 94.09 L 202.59 94.09 L 209.66 94.09 L 216.72 94.09 L 223.79 94.09 L 230.86 94.09 L 237.93 91.84 L 245.00 83.65 L 252.07 83.65 L 259.14 83.47 L 266.21 83.65 L 273.28 91.03 L 280.34 91.03 L 287.41 91.03 L 294.48 91.03 L 301.55 91.03 L 308.62 91.03 L 315.69 91.03 L 322.76 91.03 L 329.83 91.03 L 336.90 91.03 L 343.97 91.03 L 351.03 90.94 L 358.10 91.03 L 365.17 90.94 L 372.24 90.94 L 379.31 90.94 L 386.38 90.94 L 393.45 90.94 L 400.52 90.94 L 407.59 90.94 L 414.66 90.94 L 421.72 90.94 L 428.79 90.94 L 435.86 90.94 L 442.93 90.94 L 450.00 90.94 L 457.07 90.94 L 464.14 90.94 L 471.21 90.94 L 478.28 90.94 L 485.34 90.94 L 492.41 90.94 L 499.48 90.94 L 506.55 90.94 L 513.62 90.94 L 520.69 90.94 L 527.76 90.94 L 534.83 90.94 L 541.90 123.79 L 548.97 123.79 L 556.03 123.79 L 563.10 123.79 L 570.17 123.79 L 577.24 123.79 L 584.31 123.79 L 591.38 123.79 L 598.45 123.79 L 605.52 123.79 L 612.59 123.79 L 619.66 123.79 L 626.72 123.79 L 633.79 123.79 L 640.86 123.79 L 647.93 123.79 L 655.00 123.79 L 662.07 123.79 L 669.14 123.79 L 676.21 123.79 L 683.28 123.79 L 690.34 123.79 L 697.41 123.79 L 704.48 123.79 L 711.55 123.79 L 718.62 123.79 L 725.69 123.79 L 732.76 123.79 L 739.83 123.79 L 746.90 123.79 L 753.97 123.79 L 761.03 123.79 L 768.10 123.79 L 775.17 123.79 L 782.24 123.79 L 789.31 123.79 L 796.38 123.79 L 803.45 123.79 L 810.52 123.79 L 817.59 123.79 L 824.66 123.79 L 831.72 123.79 L 838.79 123.79 L 845.86 123.79 L 852.93 123.79 L 860.00 123.79" fill="none" stroke="#3fb950" stroke-width="2"/>
    <circle cx="860.00" cy="123.79" r="3" fill="#3fb950"/>
    <text x="40.00" y="235.00" font-size="9" fill="#c9d1d9" text-anchor="middle" transform="rotate(-45 40.00 235.00)">09.08.2025</text><text x="117.76" y="235.00" font-size="9" fill="#c9d1d9" text-anchor="middle" transform="rotate(-45 117.76 235.00)">13.08.2025</text><text x="195.52" y="235.00" font-size="9" fill="#c9d1d9" text-anchor="middle" transform="rotate(-45 195.52 235.00)">16.08.2025</text><text x="273.28" y="235.00" font-size="9" fill="#c9d1d9" text-anchor="middle" transform="rotate(-45 273.28 235.00)">21.08.2025</text><text x="351.03" y="235.00" font-size="9" fill="#c9d1d9" text-anchor="middle" transform="rotate(-45 351.03 235.00)">28.08.2025</text><text x="428.79" y="235.00" font-size="9" fill="#c9d1d9" text-anchor="middle" transform="rotate(-45 428.79 235.00)">05.09.2025</text><text x="506.55" y="235.00" font-size="9" fill="#c9d1d9" text-anchor="middle" transform="rotate(-45 506.55 235.00)">16.09.2025</text><text x="584.31" y="235.00" font-size="9" fill="#c9d1d9" text-anchor="middle" transform="rotate(-45 584.31 235.00)">25.09.2025</text><text x="662.07" y="235.00" font-size="9" fill="#c9d1d9" text-anchor="middle" transform="rotate(-45 662.07 235.00)">06.10.2025</text><text x="739.83" y="235.00" font-size="9" fill="#c9d1d9" text-anchor="middle" transform="rotate(-45 739.83 235.00)">17.10.2025</text><text x="817.59" y="235.00" font-size="9" fill="#c9d1d9" text-anchor="middle" transform="rotate(-45 817.59 235.00)">28.10.2025</text>
  </g>
</svg>