<svg xmlns="http://www.w3.org/2000/svg" width="900" height="290" style="font-family: -apple-system, BlinkMacSystemFont, 'Segoe UI', Helvetica, Arial, sans-serif;">
  <rect width="100%" height="100%" fill="white"/>
  <g>
    <line x1="40" y1="220.00" x2="860" y2="220.00" stroke="#e5e7eb"/><text x="32" y="224.00" font-size="10" fill="#111827" text-anchor="end">0</text><line x1="40" y1="175.00" x2="860" y2="175.00" stroke="#e5e7eb"/><text x="32" y="179.00" font-size="10" fill="#111827" text-anchor="end">500</text><line x1="40" y1="130.00" x2="860" y2="130.00" stroke="#e5e7eb"/><text x="32" y="134.00" font-size="10" fill="#111827" text-anchor="end">1k</text><line x1="40" y1="85.00" x2="860" y2="85.00" stroke="#e5e7eb"/><text x="32" y="89.00" font-size="10" fill="#111827" text-anchor="end">1.5k</text><line x1="40" y1="40.00" x2="860" y2="40.00" stroke="#e5e7eb"/><text x="32" y="44.00" font-size="10" fill="#111827" text-anchor="end">2k</text>
    <line x1="40.00" y1="40" x2="40.00" y2="220" stroke="#e5e7eb" opacity="0.5"/><line x1="115.69" y1="40" x2="115.69" y2="220" stroke="#e5e7eb" opacity="0.5"/><line x1="191.38" y1="40" x2="191.38" y2="220" stroke="#e5e7eb" opacity="0.5"/><line x1="267.08" y1="40" x2="267.08" y2="220" stroke="#e5e7eb" opacity="0.5"/><line x1="342.77" y1="40" x2="342.77" y2="220" stroke="#e5e7eb" opacity="0.5"/><line x1="418.46" y1="40" x2="418.46" y2="220" stroke="#e5e7eb" opacity="0.5"/><line x1="494.15" y1="40" x2="494.15" y2="220" stroke="#e5e7eb" opacity="0.5"/><line x1="569.85" y1="40" x2="569.85" y2="220" stroke="#e5e7eb" opacity="0.5"/><line x1="645.54" y1="40" x2="645.54" y2="220" stroke="#e5e7eb" opacity="0.5"/><line x1="721.23" y1="40" x2="721.23" y2="220" stroke="#e5e7eb" opacity="0.5"/><line x1="796.92" y1="40" x2="796.92" y2="220" stroke="#e5e7eb" opacity="0.5"/>
    <line x1="40" y1="220" x2="860" y2="220" stroke="#9ca3af"/>
    <line x1="40" y1="40"   x2="40"   y2="220" stroke="#9ca3af"/>
    <path d="M 40.00 219.82 L 52.62 211.81 L 65.23 211.81 L 77.85 211.81 L 90.46 171.85 L 103.08 171.58 L 115.69 164.38 L 128.31 118.93 L 140.92 119.11 L 153.54 111.10 L 166.15 110.56 L 178.77 110.56 L 191.38 110.56 L 204.00 95.35 L 216.62 95.35 L 229.23 95.35 L 241.85 94.63 L 254.46 94.54 L 267.08 94.45 L 279.69 94.09 L 292.31 94.09 L 304.92 94.09 L 317.54 94.09 L 330.15 94.09 L 342.77 94.09 L 355.38 94.09 L 368.00 94.09 L 380.62 94.09 L 393.23 91.84 L 405.85 83.65 L 418.46 83.65 L 431.08 83.47 L 443.69 83.65 L 456.31 91.03 L 468.92 91.03 L 481.54 91.03 L 494.15 91.03 L 506.77 91.03 L 519.38 91.03 L 532.00 91.03 L 544.62 91.03 L 557.23 91.03 L 569.85 91.03 L 582.46 91.03 L 595.08 90.94 L 607.69 91.03 L 620.31 90.94 L 632.92 90.94 L 645.54 90.94 L 658.15 90.94 L 670.77 90.94 L 683.38 90.94 L 696.00 90.94 L 708.62 90.94 L 721.23 90.94 L 733.85 90.94 L 746.46 90.94 L 759.08 90.94 L 771.69 90.94 L 784.31 90.94 L 796.92 90.94 L 809.54 90.94 L 822.15 90.94 L 834.77 90.94 L 847.38 90.94 L 860.00 90.94" fill="none" stroke="#111827" stroke-width="2"/>
    <circle cx="860.00" cy="90.94" r="3" fill="#111827"/>
    <text x="40.00" y="235.00" font-size="9" fill="#111827" text-anchor="middle" transform="rotate(-45 40.00 235.00)">09.08.2025</text><text x="115.69" y="235.00" font-size="9" fill="#111827" text-anchor="middle" transform="rotate(-45 115.69 235.00)">09.08.2025</text><text x="191.38" y="235.00" font-size="9" fill="#111827" text-anchor="middle" transform="rotate(-45 191.38 235.00)">13.08.2025</text><text x="267.08" y="235.00" font-size="9" fill="#111827" text-anchor="middle" transform="rotate(-45 267.08 235.00)">13.08.2025</text><text x="342.77" y="235.00" font-size="9" fill="#111827" text-anchor="middle" transform="rotate(-45 342.77 235.00)">18.08.2025</text><text x="418.46" y="235.00" font-size="9" fill="#111827" text-anchor="middle" transform="rotate(-45 418.46 235.00)">21.08.2025</text><text x="494.15" y="235.00" font-size="9" fill="#111827" text-anchor="middle" transform="rotate(-45 494.15 235.00)">22.08.2025</text><text x="569.85" y="235.00" font-size="9" fill="#111827" text-anchor="middle" transform="rotate(-45 569.85 235.00)">28.08.2025</text><text x="645.54" y="235.00" font-size="9" fill="#111827" text-anchor="middle" transform="rotate(-45 645.54 235.00)">29.08.2025</text><text x="721.23" y="235.00" font-size="9" fill="#111827" text-anchor="middle" transform="rotate(-45 721.23 235.00)">04.09.2025</text><text x="796.92" y="235.00" font-size="9" fill="#111827" text-anchor="middle" transform="rotate(-45 796.92 235.00)">10.09.2025</text>
  </g>
</svg>