<svg xmlns="http://www.w3.org/2000/svg" width="900" height="290" style="font-family: -apple-system, BlinkMacSystemFont, 'Segoe UI', Helvetica, Arial, sans-serif;">
  <rect width="100%" height="100%" fill="white"/>
  <g>
    <line x1="40" y1="220.00" x2="860" y2="220.00" stroke="#e5e7eb"/><text x="32" y="224.00" font-size="10" fill="#111827" text-anchor="end">0</text><line x1="40" y1="175.00" x2="860" y2="175.00" stroke="#e5e7eb"/><text x="32" y="179.00" font-size="10" fill="#111827" text-anchor="end">500</text><line x1="40" y1="130.00" x2="860" y2="130.00" stroke="#e5e7eb"/><text x="32" y="134.00" font-size="10" fill="#111827" text-anchor="end">1k</text><line x1="40" y1="85.00" x2="860" y2="85.00" stroke="#e5e7eb"/><text x="32" y="89.00" font-size="10" fill="#111827" text-anchor="end">1.5k</text><line x1="40" y1="40.00" x2="860" y2="40.00" stroke="#e5e7eb"/><text x="32" y="44.00" font-size="10" fill="#111827" text-anchor="end">2k</text>
    <line x1="40.00" y1="40" x2="40.00" y2="220" stroke="#e5e7eb" opacity="0.5"/><line x1="121.61" y1="40" x2="121.61" y2="220" stroke="#e5e7eb" opacity="0.5"/><line x1="203.22" y1="40" x2="203.22" y2="220" stroke="#e5e7eb" opacity="0.5"/><line x1="284.83" y1="40" x2="284.83" y2="220" stroke="#e5e7eb" opacity="0.5"/><line x1="366.45" y1="40" x2="366.45" y2="220" stroke="#e5e7eb" opacity="0.5"/><line x1="448.06" y1="40" x2="448.06" y2="220" stroke="#e5e7eb" opacity="0.5"/><line x1="529.67" y1="40" x2="529.67" y2="220" stroke="#e5e7eb" opacity="0.5"/><line x1="611.28" y1="40" x2="611.28" y2="220" stroke="#e5e7eb" opacity="0.5"/><line x1="692.89" y1="40" x2="692.89" y2="220" stroke="#e5e7eb" opacity="0.5"/><line x1="774.50" y1="40" x2="774.50" y2="220" stroke="#e5e7eb" opacity="0.5"/><line x1="856.11" y1="40" x2="856.11" y2="220" stroke="#e5e7eb" opacity="0.5"/>
    <line x1="40" y1="220" x2="860" y2="220" stroke="#9ca3af"/>
    <line x1="40" y1="40"   x2="40"   y2="220" stroke="#9ca3af"/>
    <path d="M 40.00 219.82 L 43.89 211.81 L 47.77 211.81 L 51.66 211.81 L 55.55 171.85 L 59.43 171.58 L 63.32 164.38 L 67.20 118.93 L 71.09 119.11 L 74.98 111.10 L 78.86 110.56 L 82.75 110.56 L 86.64 110.56 L 90.52 95.35 L 94.41 95.35 L 98.29 95.35 L 102.18 94.63 L 106.07 94.54 L 109.95 94.45 L 113.84 94.09 L 117.73 94.09 L 121.61 94.09 L 125.50 94.09 L 129.38 94.09 L 133.27 94.09 L 137.16 94.09 L 141.04 94.09 L 144.93 94.09 L 148.82 91.84 L 152.70 83.65 L 156.59 83.65 L 160.47 83.47 L 164.36 83.65 L 168.25 91.03 L 172.13 91.03 L 176.02 91.03 L 179.91 91.03 L 183.79 91.03 L 187.68 91.03 L 191.56 91.03 L 195.45 91.03 L 199.34 91.03 L 203.22 91.03 L 207.11 91.03 L 211.00 90.94 L 214.88 91.03 L 218.77 90.94 L 222.65 90.94 L 226.54 90.94 L 230.43 90.94 L 234.31 90.94 L 238.20 90.94 L 242.09 90.94 L 245.97 90.94 L 249.86 90.94 L 253.74 90.94 L 257.63 90.94 L 261.52 90.94 L 265.40 90.94 L 269.29 90.94 L 273.18 90.94 L 277.06 90.94 L 280.95 90.94 L 284.83 90.94 L 288.72 90.94 L 292.61 90.94 L 296.49 90.94 L 300.38 90.94 L 304.27 90.94 L 308.15 90.94 L 312.04 90.94 L 315.92 123.79 L 319.81 123.79 L 323.70 123.79 L 327.58 123.79 L 331.47 123.79 L 335.36 123.79 L 339.24 123.79 L 343.13 123.79 L 347.01 123.79 L 350.90 123.79 L 354.79 123.79 L 358.67 123.79 L 362.56 123.79 L 366.45 123.79 L 370.33 123.79 L 374.22 123.79 L 378.10 123.79 L 381.99 123.79 L 385.88 123.79 L 389.76 123.79 L 393.65 123.79 L 397.54 123.79 L 401.42 123.79 L 405.31 123.79 L 409.19 123.79 L 413.08 123.79 L 416.97 123.79 L 420.85 123.79 L 424.74 123.79 L 428.63 123.79 L 432.51 123.79 L 436.40 123.79 L 440.28 123.79 L 444.17 123.79 L 448.06 123.79 L 451.94 123.79 L 455.83 123.79 L 459.72 123.79 L 463.60 123.79 L 467.49 123.79 L 471.37 123.79 L 475.26 123.79 L 479.15 123.79 L 483.03 123.79 L 486.92 123.79 L 490.81 123.79 L 494.69 123.79 L 498.58 123.79 L 502.46 123.79 L 506.35 123.79 L 510.24 123.79 L 514.12 123.79 L 518.01 123.79 L 521.90 123.79 L 525.78 123.79 L 529.67 123.79 L 533.55 123.79 L 537.44 123.79 L 541.33 123.79 L 545.21 123.79 L 549.10 123.79 L 552.99 123.79 L 556.87 123.79 L 560.76 123.79 L 564.64 123.79 L 568.53 123.79 L 572.42 123.79 L 576.30 123.79 L 580.19 123.79 L 584.08 123.79 L 587.96 123.79 L 591.85 123.79 L 595.73 123.79 L 599.62 123.79 L 603.51 123.79 L 607.39 123.79 L 611.28 123.79 L 615.17 115.42 L 619.05 111.64 L 622.94 107.86 L 626.82 104.08 L 630.71 100.30 L 634.60 95.98 L 638.48 95.98 L 642.37 95.98 L 646.26 95.98 L 650.14 85.72 L 654.03 85.72 L 657.91 85.72 L 661.80 85.72 L 665.69 85.72 L 669.57 85.72 L 673.46 85.72 L 677.35 85.72 L 681.23 85.72 L 685.12 85.72 L 689.00 85.72 L 692.89 85.72 L 696.78 85.72 L 700.66 85.72 L 704.55 85.72 L 708.44 85.72 L 712.32 85.72 L 716.21 85.72 L 720.09 85.72 L 723.98 85.72 L 727.87 85.72 L 731.75 85.72 L 735.64 85.72 L 739.53 85.72 L 743.41 85.72 L 747.30 85.72 L 751.18 85.72 L 755.07 85.72 L 758.96 85.72 L 762.84 85.72 L 766.73 85.72 L 770.62 85.72 L 774.50 85.72 L 778.39 85.72 L 782.27 85.72 L 786.16 85.72 L 790.05 85.72 L 793.93 85.72 L 797.82 85.72 L 801.71 85.72 L 805.59 85.72 L 809.48 85.72 L 813.36 85.72 L 817.25 85.72 L 821.14 85.72 L 825.02 85.72 L 828.91 85.72 L 832.80 85.72 L 836.68 85.72 L 840.57 85.72 L 844.45 85.72 L 848.34 85.72 L 852.23 85.72 L 856.11 85.72 L 860.00 85.72" fill="none" stroke="#111827" stroke-width="2"/>
    <circle cx="860.00" cy="85.72" r="3" fill="#111827"/>
    <text x="40.00" y="235.00" font-size="9" fill="#111827" text-anchor="middle" transform="rotate(-45 40.00 235.00)">09.08.2025</text><text x="121.61" y="235.00" font-size="9" fill="#111827" text-anchor="middle" transform="rotate(-45 121.61 235.00)">15.08.2025</text><text x="203.22" y="235.00" font-size="9" fill="#111827" text-anchor="middle" transform="rotate(-45 203.22 235.00)">28.08.2025</text><text x="284.83" y="235.00" font-size="9" fill="#111827" text-anchor="middle" transform="rotate(-45 284.83 235.00)">13.09.2025</text><text x="366.45" y="235.00" font-size="9" fill="#111827" text-anchor="middle" transform="rotate(-45 366.45 235.00)">02.10.2025</text><text x="448.06" y="235.00" font-size="9" fill="#111827" text-anchor="middle" transform="rotate(-45 448.06 235.00)">23.10.2025</text><text x="529.67" y="235.00" font-size="9" fill="#111827" text-anchor="middle" transform="rotate(-45 529.67 235.00)">13.11.2025</text><text x="611.28" y="235.00" font-size="9" fill="#111827" text-anchor="middle" transform="rotate(-45 611.28 235.00)">04.12.2025</text><text x="692.89" y="235.00" font-size="9" fill="#111827" text-anchor="middle" transform="rotate(-45 692.89 235.00)">18.12.2025</text><text x="774.50" y="235.00" font-size="9" fill="#111827" text-anchor="middle" transform="rotate(-45 774.50 235.00)">08.01.2026</text><text x="856.11" y="235.00" font-size="9" fill="#111827" text-anchor="middle" transform="rotate(-45 856.11 235.00)">29.01.2026</text>
  </g>
</svg>