<svg xmlns="http://www.w3.org/2000/svg" width="900" height="290" style="font-family: -apple-system, BlinkMacSystemFont, 'Segoe UI', Helvetica, Arial, sans-serif;">
  <rect width="100%" height="100%" fill="#0d1117"/>
  <g>
    <line x1="40" y1="220.00" x2="860" y2="220.00" stroke="#30363d"/><text x="32" y="224.00" font-size="10" fill="#c9d1d9" text-anchor="end">0</text><line x1="40" y1="175.00" x2="860" y2="175.00" stroke="#30363d"/><text x="32" y="179.00" font-size="10" fill="#c9d1d9" text-anchor="end">500</text><line x1="40" y1="130.00" x2="860" y2="130.00" stroke="#30363d"/><text x="32" y="134.00" font-size="10" fill="#c9d1d9" text-anchor="end">1k</text><line x1="40" y1="85.00" x2="860" y2="85.00" stroke="#30363d"/><text x="32" y="89.00" font-size="10" fill="#c9d1d9" text-anchor="end">1.5k</text><line x1="40" y1="40.00" x2="860" y2="40.00" stroke="#30363d"/><text x="32" y="44.00" font-size="10" fill="#c9d1d9" text-anchor="end">2k</text>
    <line x1="40.00" y1="40" x2="40.00" y2="220" stroke="#30363d" opacity="0.5"/><line x1="115.53" y1="40" x2="115.53" y2="220" stroke="#30363d" opacity="0.5"/><line x1="191.05" y1="40" x2="191.05" y2="220" stroke="#30363d" opacity="0.5"/><line x1="266.58" y1="40" x2="266.58" y2="220" stroke="#30363d" opacity="0.5"/><line x1="342.11" y1="40" x2="342.11" y2="220" stroke="#30363d" opacity="0.5"/><line x1="417.63" y1="40" x2="417.63" y2="220" stroke="#30363d" opacity="0.5"/><line x1="493.16" y1="40" x2="493.16" y2="220" stroke="#30363d" opacity="0.5"/><line x1="568.68" y1="40" x2="568.68" y2="220" stroke="#30363d" opacity="0.5"/><line x1="644.21" y1="40" x2="644.21" y2="220" stroke="#30363d" opacity="0.5"/><line x1="719.74" y1="40" x2="719.74" y2="220" stroke="#30363d" opacity="0.5"/><line x1="795.26" y1="40" x2="795.26" y2="220" stroke="#30363d" opacity="0.5"/>
    <line x1="40" y1="220" x2="860" y2="220" stroke="#30363d"/>
    <line x1="40" y1="40"   x2="40"   y2="220" stroke="#30363d"/>
    <path d="M 40.00 219.82 L 50.79 211.81 L 61.58 211.81 L 72.37 211.81 L 83.16 171.85 L 93.95 171.58 L 104.74 164.38 L 115.53 118.93 L 126.32 119.11 L 137.11 111.10 L 147.89 110.56 L 158.68 110.56 L 169.47 110.56 L 180.26 95.35 L 191.05 95.35 L 201.84 95.35 L 212.63 94.63 L 223.42 94.54 L 234.21 94.45 L 245.00 94.09 L 255.79 94.09 L 266.58 94.09 L 277.37 94.09 L 288.16 94.09 L 298.95 94.09 L 309.74 94.09 L 320.53 94.09 L 331.32 94.09 L 342.11 91.84 L 352.89 83.65 L 363.68 83.65 L 374.47 83.47 L 385.26 83.65 L 396.05 91.03 L 406.84 91.03 L 417.63 91.03 L 428.42 91.03 L 439.21 91.03 L 450.00 91.03 L 460.79 91.03 L 471.58 91.03 L 482.37 91.03 L 493.16 91.03 L 503.95 91.03 L 514.74 90.94 L 525.53 91.03 L 536.32 90.94 L 547.11 90.94 L 557.89 90.94 L 568.68 90.94 L 579.47 90.94 L 590.26 90.94 L 601.05 90.94 L 611.84 90.94 L 622.63 90.94 L 633.42 90.94 L 644.21 90.94 L 655.00 90.94 L 665.79 90.94 L 676.58 90.94 L 687.37 90.94 L 698.16 90.94 L 708.95 90.94 L 719.74 90.94 L 730.53 90.94 L 741.32 90.94 L 752.11 90.94 L 762.89 90.94 L 773.68 90.94 L 784.47 90.94 L 795.26 90.94 L 806.05 123.79 L 816.84 123.79 L 827.63 123.79 L 838.42 123.79 L 849.21 123.79 L 860.00 123.79" fill="none" stroke="#3fb950" stroke-width="2"/>
    <circle cx="860.00" cy="123.79" r="3" fill="#3fb950"/>
    <text x="40.00" y="235.00" font-size="9" fill="#c9d1d9" text-anchor="middle" transform="rotate(-45 40.00 235.00)">09.08.2025</text><text x="115.53" y="235.00" font-size="9" fill="#c9d1d9" text-anchor="middle" transform="rotate(-45 115.53 235.00)">09.08.2025</text><text x="191.05" y="235.00" font-size="9" fill="#c9d1d9" text-anchor="middle" transform="rotate(-45 191.05 235.00)">13.08.2025</text><text x="266.58" y="235.00" font-size="9" fill="#c9d1d9" text-anchor="middle" transform="rotate(-45 266.58 235.00)">15.08.2025</text><text x="342.11" y="235.00" font-size="9" fill="#c9d1d9" text-anchor="middle" transform="rotate(-45 342.11 235.00)">21.08.2025</text><text x="417.63" y="235.00" font-size="9" fill="#c9d1d9" text-anchor="middle" transform="rotate(-45 417.63 235.00)">21.08.2025</text><text x="493.16" y="235.00" font-size="9" fill="#c9d1d9" text-anchor="middle" transform="rotate(-45 493.16 235.00)">28.08.2025</text><text x="568.68" y="235.00" font-size="9" fill="#c9d1d9" text-anchor="middle" transform="rotate(-45 568.68 235.00)">30.08.2025</text><text x="644.21" y="235.00" font-size="9" fill="#c9d1d9" text-anchor="middle" transform="rotate(-45 644.21 235.00)">06.09.2025</text><text x="719.74" y="235.00" font-size="9" fill="#c9d1d9" text-anchor="middle" transform="rotate(-45 719.74 235.00)">13.09.2025</text><text x="795.26" y="235.00" font-size="9" fill="#c9d1d9" text-anchor="middle" transform="rotate(-45 795.26 235.00)">20.09.2025</text>
  </g>
</svg>