<svg xmlns="http://www.w3.org/2000/svg" width="900" height="290" style="font-family: -apple-system, BlinkMacSystemFont, 'Segoe UI', Helvetica, Arial, sans-serif;">
  <rect width="100%" height="100%" fill="white"/>
  <g>
    <line x1="40" y1="220.00" x2="860" y2="220.00" stroke="#e5e7eb"/><text x="32" y="224.00" font-size="10" fill="#111827" text-anchor="end">0</text><line x1="40" y1="175.00" x2="860" y2="175.00" stroke="#e5e7eb"/><text x="32" y="179.00" font-size="10" fill="#111827" text-anchor="end">500</text><line x1="40" y1="130.00" x2="860" y2="130.00" stroke="#e5e7eb"/><text x="32" y="134.00" font-size="10" fill="#111827" text-anchor="end">1k</text><line x1="40" y1="85.00" x2="860" y2="85.00" stroke="#e5e7eb"/><text x="32" y="89.00" font-size="10" fill="#111827" text-anchor="end">1.5k</text><line x1="40" y1="40.00" x2="860" y2="40.00" stroke="#e5e7eb"/><text x="32" y="44.00" font-size="10" fill="#111827" text-anchor="end">2k</text>
    <line x1="40.00" y1="40" x2="40.00" y2="220" stroke="#e5e7eb" opacity="0.5"/><line x1="119.78" y1="40" x2="119.78" y2="220" stroke="#e5e7eb" opacity="0.5"/><line x1="199.57" y1="40" x2="199.57" y2="220" stroke="#e5e7eb" opacity="0.5"/><line x1="279.35" y1="40" x2="279.35" y2="220" stroke="#e5e7eb" opacity="0.5"/><line x1="359.14" y1="40" x2="359.14" y2="220" stroke="#e5e7eb" opacity="0.5"/><line x1="438.92" y1="40" x2="438.92" y2="220" stroke="#e5e7eb" opacity="0.5"/><line x1="518.70" y1="40" x2="518.70" y2="220" stroke="#e5e7eb" opacity="0.5"/><line x1="598.49" y1="40" x2="598.49" y2="220" stroke="#e5e7eb" opacity="0.5"/><line x1="678.27" y1="40" x2="678.27" y2="220" stroke="#e5e7eb" opacity="0.5"/><line x1="758.05" y1="40" x2="758.05" y2="220" stroke="#e5e7eb" opacity="0.5"/><line x1="837.84" y1="40" x2="837.84" y2="220" stroke="#e5e7eb" opacity="0.5"/>
    <line x1="40" y1="220" x2="860" y2="220" stroke="#9ca3af"/>
    <line x1="40" y1="40"   x2="40"   y2="220" stroke="#9ca3af"/>
    <path d="M 40.00 219.82 L 44.43 211.81 L 48.86 211.81 L 53.30 211.81 L 57.73 171.85 L 62.16 171.58 L 66.59 164.38 L 71.03 118.93 L 75.46 119.11 L 79.89 111.10 L 84.32 110.56 L 88.76 110.56 L 93.19 110.56 L 97.62 95.35 L 102.05 95.35 L 106.49 95.35 L 110.92 94.63 L 115.35 94.54 L 119.78 94.45 L 124.22 94.09 L 128.65 94.09 L 133.08 94.09 L 137.51 94.09 L 141.95 94.09 L 146.38 94.09 L 150.81 94.09 L 155.24 94.09 L 159.68 94.09 L 164.11 91.84 L 168.54 83.65 L 172.97 83.65 L 177.41 83.47 L 181.84 83.65 L 186.27 91.03 L 190.70 91.03 L 195.14 91.03 L 199.57 91.03 L 204.00 91.03 L 208.43 91.03 L 212.86 91.03 L 217.30 91.03 L 221.73 91.03 L 226.16 91.03 L 230.59 91.03 L 235.03 90.94 L 239.46 91.03 L 243.89 90.94 L 248.32 90.94 L 252.76 90.94 L 257.19 90.94 L 261.62 90.94 L 266.05 90.94 L 270.49 90.94 L 274.92 90.94 L 279.35 90.94 L 283.78 90.94 L 288.22 90.94 L 292.65 90.94 L 297.08 90.94 L 301.51 90.94 L 305.95 90.94 L 310.38 90.94 L 314.81 90.94 L 319.24 90.94 L 323.68 90.94 L 328.11 90.94 L 332.54 90.94 L 336.97 90.94 L 341.41 90.94 L 345.84 90.94 L 350.27 90.94 L 354.70 123.79 L 359.14 123.79 L 363.57 123.79 L 368.00 123.79 L 372.43 123.79 L 376.86 123.79 L 381.30 123.79 L 385.73 123.79 L 390.16 123.79 L 394.59 123.79 L 399.03 123.79 L 403.46 123.79 L 407.89 123.79 L 412.32 123.79 L 416.76 123.79 L 421.19 123.79 L 425.62 123.79 L 430.05 123.79 L 434.49 123.79 L 438.92 123.79 L 443.35 123.79 L 447.78 123.79 L 452.22 123.79 L 456.65 123.79 L 461.08 123.79 L 465.51 123.79 L 469.95 123.79 L 474.38 123.79 L 478.81 123.79 L 483.24 123.79 L 487.68 123.79 L 492.11 123.79 L 496.54 123.79 L 500.97 123.79 L 505.41 123.79 L 509.84 123.79 L 514.27 123.79 L 518.70 123.79 L 523.14 123.79 L 527.57 123.79 L 532.00 123.79 L 536.43 123.79 L 540.86 123.79 L 545.30 123.79 L 549.73 123.79 L 554.16 123.79 L 558.59 123.79 L 563.03 123.79 L 567.46 123.79 L 571.89 123.79 L 576.32 123.79 L 580.76 123.79 L 585.19 123.79 L 589.62 123.79 L 594.05 123.79 L 598.49 123.79 L 602.92 123.79 L 607.35 123.79 L 611.78 123.79 L 616.22 123.79 L 620.65 123.79 L 625.08 123.79 L 629.51 123.79 L 633.95 123.79 L 638.38 123.79 L 642.81 123.79 L 647.24 123.79 L 651.68 123.79 L 656.11 123.79 L 660.54 123.79 L 664.97 123.79 L 669.41 123.79 L 673.84 123.79 L 678.27 123.79 L 682.70 123.79 L 687.14 123.79 L 691.57 123.79 L 696.00 115.42 L 700.43 111.64 L 704.86 107.86 L 709.30 104.08 L 713.73 100.30 L 718.16 95.98 L 722.59 95.98 L 727.03 95.98 L 731.46 95.98 L 735.89 85.72 L 740.32 85.72 L 744.76 85.72 L 749.19 85.72 L 753.62 85.72 L 758.05 85.72 L 762.49 85.72 L 766.92 85.72 L 771.35 85.72 L 775.78 85.72 L 780.22 85.72 L 784.65 85.72 L 789.08 85.72 L 793.51 85.72 L 797.95 85.72 L 802.38 85.72 L 806.81 85.72 L 811.24 85.72 L 815.68 85.72 L 820.11 85.72 L 824.54 85.72 L 828.97 85.72 L 833.41 85.72 L 837.84 85.72 L 842.27 85.72 L 846.70 85.72 L 851.14 85.72 L 855.57 85.72 L 860.00 85.72" fill="none" stroke="#111827" stroke-width="2"/>
    <circle cx="860.00" cy="85.72" r="3" fill="#111827"/>
    <text x="40.00" y="235.00" font-size="9" fill="#111827" text-anchor="middle" transform="rotate(-45 40.00 235.00)">09.08.2025</text><text x="119.78" y="235.00" font-size="9" fill="#111827" text-anchor="middle" transform="rotate(-45 119.78 235.00)">13.08.2025</text><text x="199.57" y="235.00" font-size="9" fill="#111827" text-anchor="middle" transform="rotate(-45 199.57 235.00)">22.08.2025</text><text x="279.35" y="235.00" font-size="9" fill="#111827" text-anchor="middle" transform="rotate(-45 279.35 235.00)">04.09.2025</text><text x="359.14" y="235.00" font-size="9" fill="#111827" text-anchor="middle" transform="rotate(-45 359.14 235.00)">21.09.2025</text><text x="438.92" y="235.00" font-size="9" fill="#111827" text-anchor="middle" transform="rotate(-45 438.92 235.00)">08.10.2025</text><text x="518.70" y="235.00" font-size="9" fill="#111827" text-anchor="middle" transform="rotate(-45 518.70 235.00)">26.10.2025</text><text x="598.49" y="235.00" font-size="9" fill="#111827" text-anchor="middle" transform="rotate(-45 598.49 235.00)">13.11.2025</text><text x="678.27" y="235.00" font-size="9" fill="#111827" text-anchor="middle" transform="rotate(-45 678.27 235.00)">01.12.2025</text><text x="758.05" y="235.00" font-size="9" fill="#111827" text-anchor="middle" transform="rotate(-45 758.05 235.00)">12.12.2025</text><text x="837.84" y="235.00" font-size="9" fill="#111827" text-anchor="middle" transform="rotate(-45 837.84 235.00)">30.12.2025</text>
  </g>
</svg>