<svg xmlns="http://www.w3.org/2000/svg" width="900" height="290" style="font-family: -apple-system, BlinkMacSystemFont, 'Segoe UI', Helvetica, Arial, sans-serif;">
  <rect width="100%" height="100%" fill="#0d1117"/>
  <g>
    <line x1="40" y1="220.00" x2="860" y2="220.00" stroke="#30363d"/><text x="32" y="224.00" font-size="10" fill="#c9d1d9" text-anchor="end">0</text><line x1="40" y1="175.00" x2="860" y2="175.00" stroke="#30363d"/><text x="32" y="179.00" font-size="10" fill="#c9d1d9" text-anchor="end">500</text><line x1="40" y1="130.00" x2="860" y2="130.00" stroke="#30363d"/><text x="32" y="134.00" font-size="10" fill="#c9d1d9" text-anchor="end">1k</text><line x1="40" y1="85.00" x2="860" y2="85.00" stroke="#30363d"/><text x="32" y="89.00" font-size="10" fill="#c9d1d9" text-anchor="end">1.5k</text><line x1="40" y1="40.00" x2="860" y2="40.00" stroke="#30363d"/><text x="32" y="44.00" font-size="10" fill="#c9d1d9" text-anchor="end">2k</text>
    <line x1="40.00" y1="40" x2="40.00" y2="220" stroke="#30363d" opacity="0.5"/><line x1="120.22" y1="40" x2="120.22" y2="220" stroke="#30363d" opacity="0.5"/><line x1="200.43" y1="40" x2="200.43" y2="220" stroke="#30363d" opacity="0.5"/><line x1="280.65" y1="40" x2="280.65" y2="220" stroke="#30363d" opacity="0.5"/><line x1="360.87" y1="40" x2="360.87" y2="220" stroke="#30363d" opacity="0.5"/><line x1="441.09" y1="40" x2="441.09" y2="220" stroke="#30363d" opacity="0.5"/><line x1="521.30" y1="40" x2="521.30" y2="220" stroke="#30363d" opacity="0.5"/><line x1="601.52" y1="40" x2="601.52" y2="220" stroke="#30363d" opacity="0.5"/><line x1="681.74" y1="40" x2="681.74" y2="220" stroke="#30363d" opacity="0.5"/><line x1="761.96" y1="40" x2="761.96" y2="220" stroke="#30363d" opacity="0.5"/><line x1="842.17" y1="40" x2="842.17" y2="220" stroke="#30363d" opacity="0.5"/>
    <line x1="40" y1="220" x2="860" y2="220" stroke="#30363d"/>
    <line x1="40" y1="40"   x2="40"   y2="220" stroke="#30363d"/>
    <path d="M 40.00 219.82 L 44.46 211.81 L 48.91 211.81 L 53.37 211.81 L 57.83 171.85 L 62.28 171.58 L 66.74 164.38 L 71.20 118.93 L 75.65 119.11 L 80.11 111.10 L 84.57 110.56 L 89.02 110.56 L 93.48 110.56 L 97.93 95.35 L 102.39 95.35 L 106.85 95.35 L 111.30 94.63 L 115.76 94.54 L 120.22 94.45 L 124.67 94.09 L 129.13 94.09 L 133.59 94.09 L 138.04 94.09 L 142.50 94.09 L 146.96 94.09 L 151.41 94.09 L 155.87 94.09 L 160.33 94.09 L 164.78 91.84 L 169.24 83.65 L 173.70 83.65 L 178.15 83.47 L 182.61 83.65 L 187.07 91.03 L 191.52 91.03 L 195.98 91.03 L 200.43 91.03 L 204.89 91.03 L 209.35 91.03 L 213.80 91.03 L 218.26 91.03 L 222.72 91.03 L 227.17 91.03 L 231.63 91.03 L 236.09 90.94 L 240.54 91.03 L 245.00 90.94 L 249.46 90.94 L 253.91 90.94 L 258.37 90.94 L 262.83 90.94 L 267.28 90.94 L 271.74 90.94 L 276.20 90.94 L 280.65 90.94 L 285.11 90.94 L 289.57 90.94 L 294.02 90.94 L 298.48 90.94 L 302.93 90.94 L 307.39 90.94 L 311.85 90.94 L 316.30 90.94 L 320.76 90.94 L 325.22 90.94 L 329.67 90.94 L 334.13 90.94 L 338.59 90.94 L 343.04 90.94 L 347.50 90.94 L 351.96 90.94 L 356.41 123.79 L 360.87 123.79 L 365.33 123.79 L 369.78 123.79 L 374.24 123.79 L 378.70 123.79 L 383.15 123.79 L 387.61 123.79 L 392.07 123.79 L 396.52 123.79 L 400.98 123.79 L 405.43 123.79 L 409.89 123.79 L 414.35 123.79 L 418.80 123.79 L 423.26 123.79 L 427.72 123.79 L 432.17 123.79 L 436.63 123.79 L 441.09 123.79 L 445.54 123.79 L 450.00 123.79 L 454.46 123.79 L 458.91 123.79 L 463.37 123.79 L 467.83 123.79 L 472.28 123.79 L 476.74 123.79 L 481.20 123.79 L 485.65 123.79 L 490.11 123.79 L 494.57 123.79 L 499.02 123.79 L 503.48 123.79 L 507.93 123.79 L 512.39 123.79 L 516.85 123.79 L 521.30 123.79 L 525.76 123.79 L 530.22 123.79 L 534.67 123.79 L 539.13 123.79 L 543.59 123.79 L 548.04 123.79 L 552.50 123.79 L 556.96 123.79 L 561.41 123.79 L 565.87 123.79 L 570.33 123.79 L 574.78 123.79 L 579.24 123.79 L 583.70 123.79 L 588.15 123.79 L 592.61 123.79 L 597.07 123.79 L 601.52 123.79 L 605.98 123.79 L 610.43 123.79 L 614.89 123.79 L 619.35 123.79 L 623.80 123.79 L 628.26 123.79 L 632.72 123.79 L 637.17 123.79 L 641.63 123.79 L 646.09 123.79 L 650.54 123.79 L 655.00 123.79 L 659.46 123.79 L 663.91 123.79 L 668.37 123.79 L 672.83 123.79 L 677.28 123.79 L 681.74 123.79 L 686.20 123.79 L 690.65 123.79 L 695.11 123.79 L 699.57 115.42 L 704.02 111.64 L 708.48 107.86 L 712.93 104.08 L 717.39 100.30 L 721.85 95.98 L 726.30 95.98 L 730.76 95.98 L 735.22 95.98 L 739.67 85.72 L 744.13 85.72 L 748.59 85.72 L 753.04 85.72 L 757.50 85.72 L 761.96 85.72 L 766.41 85.72 L 770.87 85.72 L 775.33 85.72 L 779.78 85.72 L 784.24 85.72 L 788.70 85.72 L 793.15 85.72 L 797.61 85.72 L 802.07 85.72 L 806.52 85.72 L 810.98 85.72 L 815.43 85.72 L 819.89 85.72 L 824.35 85.72 L 828.80 85.72 L 833.26 85.72 L 837.72 85.72 L 842.17 85.72 L 846.63 85.72 L 851.09 85.72 L 855.54 85.72 L 860.00 85.72" fill="none" stroke="#3fb950" stroke-width="2"/>
    <circle cx="860.00" cy="85.72" r="3" fill="#3fb950"/>
    <text x="40.00" y="235.00" font-size="9" fill="#c9d1d9" text-anchor="middle" transform="rotate(-45 40.00 235.00)">09.08.2025</text><text x="120.22" y="235.00" font-size="9" fill="#c9d1d9" text-anchor="middle" transform="rotate(-45 120.22 235.00)">13.08.2025</text><text x="200.43" y="235.00" font-size="9" fill="#c9d1d9" text-anchor="middle" transform="rotate(-45 200.43 235.00)">22.08.2025</text><text x="280.65" y="235.00" font-size="9" fill="#c9d1d9" text-anchor="middle" transform="rotate(-45 280.65 235.00)">04.09.2025</text><text x="360.87" y="235.00" font-size="9" fill="#c9d1d9" text-anchor="middle" transform="rotate(-45 360.87 235.00)">21.09.2025</text><text x="441.09" y="235.00" font-size="9" fill="#c9d1d9" text-anchor="middle" transform="rotate(-45 441.09 235.00)">08.10.2025</text><text x="521.30" y="235.00" font-size="9" fill="#c9d1d9" text-anchor="middle" transform="rotate(-45 521.30 235.00)">26.10.2025</text><text x="601.52" y="235.00" font-size="9" fill="#c9d1d9" text-anchor="middle" transform="rotate(-45 601.52 235.00)">13.11.2025</text><text x="681.74" y="235.00" font-size="9" fill="#c9d1d9" text-anchor="middle" transform="rotate(-45 681.74 235.00)">01.12.2025</text><text x="761.96" y="235.00" font-size="9" fill="#c9d1d9" text-anchor="middle" transform="rotate(-45 761.96 235.00)">12.12.2025</text><text x="842.17" y="235.00" font-size="9" fill="#c9d1d9" text-anchor="middle" transform="rotate(-45 842.17 235.00)">30.12.2025</text>
  </g>
</svg>