<svg xmlns="http://www.w3.org/2000/svg" width="900" height="290" style="font-family: -apple-system, BlinkMacSystemFont, 'Segoe UI', Helvetica, Arial, sans-serif;">
  <rect width="100%" height="100%" fill="#0d1117"/>
  <g>
    <line x1="40" y1="220.00" x2="860" y2="220.00" stroke="#30363d"/><text x="32" y="224.00" font-size="10" fill="#c9d1d9" text-anchor="end">0</text><line x1="40" y1="175.00" x2="860" y2="175.00" stroke="#30363d"/><text x="32" y="179.00" font-size="10" fill="#c9d1d9" text-anchor="end">500</text><line x1="40" y1="130.00" x2="860" y2="130.00" stroke="#30363d"/><text x="32" y="134.00" font-size="10" fill="#c9d1d9" text-anchor="end">1k</text><line x1="40" y1="85.00" x2="860" y2="85.00" stroke="#30363d"/><text x="32" y="89.00" font-size="10" fill="#c9d1d9" text-anchor="end">1.5k</text><line x1="40" y1="40.00" x2="860" y2="40.00" stroke="#30363d"/><text x="32" y="44.00" font-size="10" fill="#c9d1d9" text-anchor="end">2k</text>
    <line x1="40.00" y1="40" x2="40.00" y2="220" stroke="#30363d" opacity="0.5"/><line x1="118.93" y1="40" x2="118.93" y2="220" stroke="#30363d" opacity="0.5"/><line x1="197.86" y1="40" x2="197.86" y2="220" stroke="#30363d" opacity="0.5"/><line x1="276.79" y1="40" x2="276.79" y2="220" stroke="#30363d" opacity="0.5"/><line x1="355.72" y1="40" x2="355.72" y2="220" stroke="#30363d" opacity="0.5"/><line x1="434.65" y1="40" x2="434.65" y2="220" stroke="#30363d" opacity="0.5"/><line x1="513.58" y1="40" x2="513.58" y2="220" stroke="#30363d" opacity="0.5"/><line x1="592.51" y1="40" x2="592.51" y2="220" stroke="#30363d" opacity="0.5"/><line x1="671.44" y1="40" x2="671.44" y2="220" stroke="#30363d" opacity="0.5"/><line x1="750.37" y1="40" x2="750.37" y2="220" stroke="#30363d" opacity="0.5"/><line x1="829.30" y1="40" x2="829.30" y2="220" stroke="#30363d" opacity="0.5"/>
    <line x1="40" y1="220" x2="860" y2="220" stroke="#30363d"/>
    <line x1="40" y1="40"   x2="40"   y2="220" stroke="#30363d"/>
    <path d="M 40.00 219.82 L 44.39 211.81 L 48.77 211.81 L 53.16 211.81 L 57.54 171.85 L 61.93 171.58 L 66.31 164.38 L 70.70 118.93 L 75.08 119.11 L 79.47 111.10 L 83.85 110.56 L 88.24 110.56 L 92.62 110.56 L 97.01 95.35 L 101.39 95.35 L 105.78 95.35 L 110.16 94.63 L 114.55 94.54 L 118.93 94.45 L 123.32 94.09 L 127.70 94.09 L 132.09 94.09 L 136.47 94.09 L 140.86 94.09 L 145.24 94.09 L 149.63 94.09 L 154.01 94.09 L 158.40 94.09 L 162.78 91.84 L 167.17 83.65 L 171.55 83.65 L 175.94 83.47 L 180.32 83.65 L 184.71 91.03 L 189.09 91.03 L 193.48 91.03 L 197.86 91.03 L 202.25 91.03 L 206.63 91.03 L 211.02 91.03 L 215.40 91.03 L 219.79 91.03 L 224.17 91.03 L 228.56 91.03 L 232.94 90.94 L 237.33 91.03 L 241.71 90.94 L 246.10 90.94 L 250.48 90.94 L 254.87 90.94 L 259.25 90.94 L 263.64 90.94 L 268.02 90.94 L 272.41 90.94 L 276.79 90.94 L 281.18 90.94 L 285.56 90.94 L 289.95 90.94 L 294.33 90.94 L 298.72 90.94 L 303.10 90.94 L 307.49 90.94 L 311.87 90.94 L 316.26 90.94 L 320.64 90.94 L 325.03 90.94 L 329.41 90.94 L 333.80 90.94 L 338.18 90.94 L 342.57 90.94 L 346.95 90.94 L 351.34 123.79 L 355.72 123.79 L 360.11 123.79 L 364.49 123.79 L 368.88 123.79 L 373.26 123.79 L 377.65 123.79 L 382.03 123.79 L 386.42 123.79 L 390.80 123.79 L 395.19 123.79 L 399.57 123.79 L 403.96 123.79 L 408.34 123.79 L 412.73 123.79 L 417.11 123.79 L 421.50 123.79 L 425.88 123.79 L 430.27 123.79 L 434.65 123.79 L 439.04 123.79 L 443.42 123.79 L 447.81 123.79 L 452.19 123.79 L 456.58 123.79 L 460.96 123.79 L 465.35 123.79 L 469.73 123.79 L 474.12 123.79 L 478.50 123.79 L 482.89 123.79 L 487.27 123.79 L 491.66 123.79 L 496.04 123.79 L 500.43 123.79 L 504.81 123.79 L 509.20 123.79 L 513.58 123.79 L 517.97 123.79 L 522.35 123.79 L 526.74 123.79 L 531.12 123.79 L 535.51 123.79 L 539.89 123.79 L 544.28 123.79 L 548.66 123.79 L 553.05 123.79 L 557.43 123.79 L 561.82 123.79 L 566.20 123.79 L 570.59 123.79 L 574.97 123.79 L 579.36 123.79 L 583.74 123.79 L 588.13 123.79 L 592.51 123.79 L 596.90 123.79 L 601.28 123.79 L 605.67 123.79 L 610.05 123.79 L 614.44 123.79 L 618.82 123.79 L 623.21 123.79 L 627.59 123.79 L 631.98 123.79 L 636.36 123.79 L 640.75 123.79 L 645.13 123.79 L 649.52 123.79 L 653.90 123.79 L 658.29 123.79 L 662.67 123.79 L 667.06 123.79 L 671.44 123.79 L 675.83 123.79 L 680.21 123.79 L 684.60 123.79 L 688.98 115.42 L 693.37 111.64 L 697.75 107.86 L 702.14 104.08 L 706.52 100.30 L 710.91 95.98 L 715.29 95.98 L 719.68 95.98 L 724.06 95.98 L 728.45 85.72 L 732.83 85.72 L 737.22 85.72 L 741.60 85.72 L 745.99 85.72 L 750.37 85.72 L 754.76 85.72 L 759.14 85.72 L 763.53 85.72 L 767.91 85.72 L 772.30 85.72 L 776.68 85.72 L 781.07 85.72 L 785.45 85.72 L 789.84 85.72 L 794.22 85.72 L 798.61 85.72 L 802.99 85.72 L 807.38 85.72 L 811.76 85.72 L 816.15 85.72 L 820.53 85.72 L 824.92 85.72 L 829.30 85.72 L 833.69 85.72 L 838.07 85.72 L 842.46 85.72 L 846.84 85.72 L 851.23 85.72 L 855.61 85.72 L 860.00 85.72" fill="none" stroke="#3fb950" stroke-width="2"/>
    <circle cx="860.00" cy="85.72" r="3" fill="#3fb950"/>
    <text x="40.00" y="235.00" font-size="9" fill="#c9d1d9" text-anchor="middle" transform="rotate(-45 40.00 235.00)">09.08.2025</text><text x="118.93" y="235.00" font-size="9" fill="#c9d1d9" text-anchor="middle" transform="rotate(-45 118.93 235.00)">13.08.2025</text><text x="197.86" y="235.00" font-size="9" fill="#c9d1d9" text-anchor="middle" transform="rotate(-45 197.86 235.00)">22.08.2025</text><text x="276.79" y="235.00" font-size="9" fill="#c9d1d9" text-anchor="middle" transform="rotate(-45 276.79 235.00)">04.09.2025</text><text x="355.72" y="235.00" font-size="9" fill="#c9d1d9" text-anchor="middle" transform="rotate(-45 355.72 235.00)">21.09.2025</text><text x="434.65" y="235.00" font-size="9" fill="#c9d1d9" text-anchor="middle" transform="rotate(-45 434.65 235.00)">08.10.2025</text><text x="513.58" y="235.00" font-size="9" fill="#c9d1d9" text-anchor="middle" transform="rotate(-45 513.58 235.00)">26.10.2025</text><text x="592.51" y="235.00" font-size="9" fill="#c9d1d9" text-anchor="middle" transform="rotate(-45 592.51 235.00)">13.11.2025</text><text x="671.44" y="235.00" font-size="9" fill="#c9d1d9" text-anchor="middle" transform="rotate(-45 671.44 235.00)">01.12.2025</text><text x="750.37" y="235.00" font-size="9" fill="#c9d1d9" text-anchor="middle" transform="rotate(-45 750.37 235.00)">12.12.2025</text><text x="829.30" y="235.00" font-size="9" fill="#c9d1d9" text-anchor="middle" transform="rotate(-45 829.30 235.00)">30.12.2025</text>
  </g>
</svg>