<svg xmlns="http://www.w3.org/2000/svg" width="900" height="290" style="font-family: -apple-system, BlinkMacSystemFont, 'Segoe UI', Helvetica, Arial, sans-serif;">
  <rect width="100%" height="100%" fill="#0d1117"/>
  <g>
    <line x1="40" y1="220.00" x2="860" y2="220.00" stroke="#30363d"/><text x="32" y="224.00" font-size="10" fill="#c9d1d9" text-anchor="end">0</text><line x1="40" y1="175.00" x2="860" y2="175.00" stroke="#30363d"/><text x="32" y="179.00" font-size="10" fill="#c9d1d9" text-anchor="end">500</text><line x1="40" y1="130.00" x2="860" y2="130.00" stroke="#30363d"/><text x="32" y="134.00" font-size="10" fill="#c9d1d9" text-anchor="end">1k</text><line x1="40" y1="85.00" x2="860" y2="85.00" stroke="#30363d"/><text x="32" y="89.00" font-size="10" fill="#c9d1d9" text-anchor="end">1.5k</text><line x1="40" y1="40.00" x2="860" y2="40.00" stroke="#30363d"/><text x="32" y="44.00" font-size="10" fill="#c9d1d9" text-anchor="end">2k</text>
    <line x1="40.00" y1="40" x2="40.00" y2="220" stroke="#30363d" opacity="0.5"/><line x1="119.09" y1="40" x2="119.09" y2="220" stroke="#30363d" opacity="0.5"/><line x1="198.17" y1="40" x2="198.17" y2="220" stroke="#30363d" opacity="0.5"/><line x1="277.26" y1="40" x2="277.26" y2="220" stroke="#30363d" opacity="0.5"/><line x1="356.35" y1="40" x2="356.35" y2="220" stroke="#30363d" opacity="0.5"/><line x1="435.43" y1="40" x2="435.43" y2="220" stroke="#30363d" opacity="0.5"/><line x1="514.52" y1="40" x2="514.52" y2="220" stroke="#30363d" opacity="0.5"/><line x1="593.60" y1="40" x2="593.60" y2="220" stroke="#30363d" opacity="0.5"/><line x1="672.69" y1="40" x2="672.69" y2="220" stroke="#30363d" opacity="0.5"/><line x1="751.78" y1="40" x2="751.78" y2="220" stroke="#30363d" opacity="0.5"/><line x1="830.86" y1="40" x2="830.86" y2="220" stroke="#30363d" opacity="0.5"/>
    <line x1="40" y1="220" x2="860" y2="220" stroke="#30363d"/>
    <line x1="40" y1="40"   x2="40"   y2="220" stroke="#30363d"/>
    <path d="M 40.00 219.82 L 44.16 211.81 L 48.32 211.81 L 52.49 211.81 L 56.65 171.85 L 60.81 171.58 L 64.97 164.38 L 69.14 118.93 L 73.30 119.11 L 77.46 111.10 L 81.62 110.56 L 85.79 110.56 L 89.95 110.56 L 94.11 95.35 L 98.27 95.35 L 102.44 95.35 L 106.60 94.63 L 110.76 94.54 L 114.92 94.45 L 119.09 94.09 L 123.25 94.09 L 127.41 94.09 L 131.57 94.09 L 135.74 94.09 L 139.90 94.09 L 144.06 94.09 L 148.22 94.09 L 152.39 94.09 L 156.55 91.84 L 160.71 83.65 L 164.87 83.65 L 169.04 83.47 L 173.20 83.65 L 177.36 91.03 L 181.52 91.03 L 185.69 91.03 L 189.85 91.03 L 194.01 91.03 L 198.17 91.03 L 202.34 91.03 L 206.50 91.03 L 210.66 91.03 L 214.82 91.03 L 218.98 91.03 L 223.15 90.94 L 227.31 91.03 L 231.47 90.94 L 235.63 90.94 L 239.80 90.94 L 243.96 90.94 L 248.12 90.94 L 252.28 90.94 L 256.45 90.94 L 260.61 90.94 L 264.77 90.94 L 268.93 90.94 L 273.10 90.94 L 277.26 90.94 L 281.42 90.94 L 285.58 90.94 L 289.75 90.94 L 293.91 90.94 L 298.07 90.94 L 302.23 90.94 L 306.40 90.94 L 310.56 90.94 L 314.72 90.94 L 318.88 90.94 L 323.05 90.94 L 327.21 90.94 L 331.37 90.94 L 335.53 123.79 L 339.70 123.79 L 343.86 123.79 L 348.02 123.79 L 352.18 123.79 L 356.35 123.79 L 360.51 123.79 L 364.67 123.79 L 368.83 123.79 L 372.99 123.79 L 377.16 123.79 L 381.32 123.79 L 385.48 123.79 L 389.64 123.79 L 393.81 123.79 L 397.97 123.79 L 402.13 123.79 L 406.29 123.79 L 410.46 123.79 L 414.62 123.79 L 418.78 123.79 L 422.94 123.79 L 427.11 123.79 L 431.27 123.79 L 435.43 123.79 L 439.59 123.79 L 443.76 123.79 L 447.92 123.79 L 452.08 123.79 L 456.24 123.79 L 460.41 123.79 L 464.57 123.79 L 468.73 123.79 L 472.89 123.79 L 477.06 123.79 L 481.22 123.79 L 485.38 123.79 L 489.54 123.79 L 493.71 123.79 L 497.87 123.79 L 502.03 123.79 L 506.19 123.79 L 510.36 123.79 L 514.52 123.79 L 518.68 123.79 L 522.84 123.79 L 527.01 123.79 L 531.17 123.79 L 535.33 123.79 L 539.49 123.79 L 543.65 123.79 L 547.82 123.79 L 551.98 123.79 L 556.14 123.79 L 560.30 123.79 L 564.47 123.79 L 568.63 123.79 L 572.79 123.79 L 576.95 123.79 L 581.12 123.79 L 585.28 123.79 L 589.44 123.79 L 593.60 123.79 L 597.77 123.79 L 601.93 123.79 L 606.09 123.79 L 610.25 123.79 L 614.42 123.79 L 618.58 123.79 L 622.74 123.79 L 626.90 123.79 L 631.07 123.79 L 635.23 123.79 L 639.39 123.79 L 643.55 123.79 L 647.72 123.79 L 651.88 123.79 L 656.04 115.42 L 660.20 111.64 L 664.37 107.86 L 668.53 104.08 L 672.69 100.30 L 676.85 95.98 L 681.02 95.98 L 685.18 95.98 L 689.34 95.98 L 693.50 85.72 L 697.66 85.72 L 701.83 85.72 L 705.99 85.72 L 710.15 85.72 L 714.31 85.72 L 718.48 85.72 L 722.64 85.72 L 726.80 85.72 L 730.96 85.72 L 735.13 85.72 L 739.29 85.72 L 743.45 85.72 L 747.61 85.72 L 751.78 85.72 L 755.94 85.72 L 760.10 85.72 L 764.26 85.72 L 768.43 85.72 L 772.59 85.72 L 776.75 85.72 L 780.91 85.72 L 785.08 85.72 L 789.24 85.72 L 793.40 85.72 L 797.56 85.72 L 801.73 85.72 L 805.89 85.72 L 810.05 85.72 L 814.21 85.72 L 818.38 85.72 L 822.54 85.72 L 826.70 85.72 L 830.86 85.72 L 835.03 85.72 L 839.19 85.72 L 843.35 85.72 L 847.51 85.72 L 851.68 85.72 L 855.84 85.72 L 860.00 85.72" fill="none" stroke="#3fb950" stroke-width="2"/>
    <circle cx="860.00" cy="85.72" r="3" fill="#3fb950"/>
    <text x="40.00" y="235.00" font-size="9" fill="#c9d1d9" text-anchor="middle" transform="rotate(-45 40.00 235.00)">09.08.2025</text><text x="119.09" y="235.00" font-size="9" fill="#c9d1d9" text-anchor="middle" transform="rotate(-45 119.09 235.00)">13.08.2025</text><text x="198.17" y="235.00" font-size="9" fill="#c9d1d9" text-anchor="middle" transform="rotate(-45 198.17 235.00)">24.08.2025</text><text x="277.26" y="235.00" font-size="9" fill="#c9d1d9" text-anchor="middle" transform="rotate(-45 277.26 235.00)">07.09.2025</text><text x="356.35" y="235.00" font-size="9" fill="#c9d1d9" text-anchor="middle" transform="rotate(-45 356.35 235.00)">24.09.2025</text><text x="435.43" y="235.00" font-size="9" fill="#c9d1d9" text-anchor="middle" transform="rotate(-45 435.43 235.00)">13.10.2025</text><text x="514.52" y="235.00" font-size="9" fill="#c9d1d9" text-anchor="middle" transform="rotate(-45 514.52 235.00)">01.11.2025</text><text x="593.60" y="235.00" font-size="9" fill="#c9d1d9" text-anchor="middle" transform="rotate(-45 593.60 235.00)">20.11.2025</text><text x="672.69" y="235.00" font-size="9" fill="#c9d1d9" text-anchor="middle" transform="rotate(-45 672.69 235.00)">04.12.2025</text><text x="751.78" y="235.00" font-size="9" fill="#c9d1d9" text-anchor="middle" transform="rotate(-45 751.78 235.00)">21.12.2025</text><text x="830.86" y="235.00" font-size="9" fill="#c9d1d9" text-anchor="middle" transform="rotate(-45 830.86 235.00)">09.01.2026</text>
  </g>
</svg>