<svg xmlns="http://www.w3.org/2000/svg" width="900" height="290" style="font-family: -apple-system, BlinkMacSystemFont, 'Segoe UI', Helvetica, Arial, sans-serif;">
  <rect width="100%" height="100%" fill="#0d1117"/>
  <g>
    <line x1="40" y1="220.00" x2="860" y2="220.00" stroke="#30363d"/><text x="32" y="224.00" font-size="10" fill="#c9d1d9" text-anchor="end">0</text><line x1="40" y1="175.00" x2="860" y2="175.00" stroke="#30363d"/><text x="32" y="179.00" font-size="10" fill="#c9d1d9" text-anchor="end">500</text><line x1="40" y1="130.00" x2="860" y2="130.00" stroke="#30363d"/><text x="32" y="134.00" font-size="10" fill="#c9d1d9" text-anchor="end">1k</text><line x1="40" y1="85.00" x2="860" y2="85.00" stroke="#30363d"/><text x="32" y="89.00" font-size="10" fill="#c9d1d9" text-anchor="end">1.5k</text><line x1="40" y1="40.00" x2="860" y2="40.00" stroke="#30363d"/><text x="32" y="44.00" font-size="10" fill="#c9d1d9" text-anchor="end">2k</text>
    <line x1="40.00" y1="40" x2="40.00" y2="220" stroke="#30363d" opacity="0.5"/><line x1="116.08" y1="40" x2="116.08" y2="220" stroke="#30363d" opacity="0.5"/><line x1="192.16" y1="40" x2="192.16" y2="220" stroke="#30363d" opacity="0.5"/><line x1="268.25" y1="40" x2="268.25" y2="220" stroke="#30363d" opacity="0.5"/><line x1="344.33" y1="40" x2="344.33" y2="220" stroke="#30363d" opacity="0.5"/><line x1="420.41" y1="40" x2="420.41" y2="220" stroke="#30363d" opacity="0.5"/><line x1="496.49" y1="40" x2="496.49" y2="220" stroke="#30363d" opacity="0.5"/><line x1="572.58" y1="40" x2="572.58" y2="220" stroke="#30363d" opacity="0.5"/><line x1="648.66" y1="40" x2="648.66" y2="220" stroke="#30363d" opacity="0.5"/><line x1="724.74" y1="40" x2="724.74" y2="220" stroke="#30363d" opacity="0.5"/><line x1="800.82" y1="40" x2="800.82" y2="220" stroke="#30363d" opacity="0.5"/>
    <line x1="40" y1="220" x2="860" y2="220" stroke="#30363d"/>
    <line x1="40" y1="40"   x2="40"   y2="220" stroke="#30363d"/>
    <path d="M 40.00 219.82 L 48.45 211.81 L 56.91 211.81 L 65.36 211.81 L 73.81 171.85 L 82.27 171.58 L 90.72 164.38 L 99.18 118.93 L 107.63 119.11 L 116.08 111.10 L 124.54 110.56 L 132.99 110.56 L 141.44 110.56 L 149.90 95.35 L 158.35 95.35 L 166.80 95.35 L 175.26 94.63 L 183.71 94.54 L 192.16 94.45 L 200.62 94.09 L 209.07 94.09 L 217.53 94.09 L 225.98 94.09 L 234.43 94.09 L 242.89 94.09 L 251.34 94.09 L 259.79 94.09 L 268.25 94.09 L 276.70 91.84 L 285.15 83.65 L 293.61 83.65 L 302.06 83.47 L 310.52 83.65 L 318.97 91.03 L 327.42 91.03 L 335.88 91.03 L 344.33 91.03 L 352.78 91.03 L 361.24 91.03 L 369.69 91.03 L 378.14 91.03 L 386.60 91.03 L 395.05 91.03 L 403.51 91.03 L 411.96 90.94 L 420.41 91.03 L 428.87 90.94 L 437.32 90.94 L 445.77 90.94 L 454.23 90.94 L 462.68 90.94 L 471.13 90.94 L 479.59 90.94 L 488.04 90.94 L 496.49 90.94 L 504.95 90.94 L 513.40 90.94 L 521.86 90.94 L 530.31 90.94 L 538.76 90.94 L 547.22 90.94 L 555.67 90.94 L 564.12 90.94 L 572.58 90.94 L 581.03 90.94 L 589.48 90.94 L 597.94 90.94 L 606.39 90.94 L 614.85 90.94 L 623.30 90.94 L 631.75 90.94 L 640.21 123.79 L 648.66 123.79 L 657.11 123.79 L 665.57 123.79 L 674.02 123.79 L 682.47 123.79 L 690.93 123.79 L 699.38 123.79 L 707.84 123.79 L 716.29 123.79 L 724.74 123.79 L 733.20 123.79 L 741.65 123.79 L 750.10 123.79 L 758.56 123.79 L 767.01 123.79 L 775.46 123.79 L 783.92 123.79 L 792.37 123.79 L 800.82 123.79 L 809.28 123.79 L 817.73 123.79 L 826.19 123.79 L 834.64 123.79 L 843.09 123.79 L 851.55 123.79 L 860.00 123.79" fill="none" stroke="#3fb950" stroke-width="2"/>
    <circle cx="860.00" cy="123.79" r="3" fill="#3fb950"/>
    <text x="40.00" y="235.00" font-size="9" fill="#c9d1d9" text-anchor="middle" transform="rotate(-45 40.00 235.00)">09.08.2025</text><text x="116.08" y="235.00" font-size="9" fill="#c9d1d9" text-anchor="middle" transform="rotate(-45 116.08 235.00)">13.08.2025</text><text x="192.16" y="235.00" font-size="9" fill="#c9d1d9" text-anchor="middle" transform="rotate(-45 192.16 235.00)">13.08.2025</text><text x="268.25" y="235.00" font-size="9" fill="#c9d1d9" text-anchor="middle" transform="rotate(-45 268.25 235.00)">21.08.2025</text><text x="344.33" y="235.00" font-size="9" fill="#c9d1d9" text-anchor="middle" transform="rotate(-45 344.33 235.00)">22.08.2025</text><text x="420.41" y="235.00" font-size="9" fill="#c9d1d9" text-anchor="middle" transform="rotate(-45 420.41 235.00)">28.08.2025</text><text x="496.49" y="235.00" font-size="9" fill="#c9d1d9" text-anchor="middle" transform="rotate(-45 496.49 235.00)">04.09.2025</text><text x="572.58" y="235.00" font-size="9" fill="#c9d1d9" text-anchor="middle" transform="rotate(-45 572.58 235.00)">13.09.2025</text><text x="648.66" y="235.00" font-size="9" fill="#c9d1d9" text-anchor="middle" transform="rotate(-45 648.66 235.00)">21.09.2025</text><text x="724.74" y="235.00" font-size="9" fill="#c9d1d9" text-anchor="middle" transform="rotate(-45 724.74 235.00)">29.09.2025</text><text x="800.82" y="235.00" font-size="9" fill="#c9d1d9" text-anchor="middle" transform="rotate(-45 800.82 235.00)">08.10.2025</text>
  </g>
</svg>