<svg xmlns="http://www.w3.org/2000/svg" width="900" height="290" style="font-family: -apple-system, BlinkMacSystemFont, 'Segoe UI', Helvetica, Arial, sans-serif;">
  <rect width="100%" height="100%" fill="#0d1117"/>
  <g>
    <line x1="40" y1="220.00" x2="860" y2="220.00" stroke="#30363d"/><text x="32" y="224.00" font-size="10" fill="#c9d1d9" text-anchor="end">0</text><line x1="40" y1="175.00" x2="860" y2="175.00" stroke="#30363d"/><text x="32" y="179.00" font-size="10" fill="#c9d1d9" text-anchor="end">500</text><line x1="40" y1="130.00" x2="860" y2="130.00" stroke="#30363d"/><text x="32" y="134.00" font-size="10" fill="#c9d1d9" text-anchor="end">1k</text><line x1="40" y1="85.00" x2="860" y2="85.00" stroke="#30363d"/><text x="32" y="89.00" font-size="10" fill="#c9d1d9" text-anchor="end">1.5k</text><line x1="40" y1="40.00" x2="860" y2="40.00" stroke="#30363d"/><text x="32" y="44.00" font-size="10" fill="#c9d1d9" text-anchor="end">2k</text>
    <line x1="40.00" y1="40" x2="40.00" y2="220" stroke="#30363d" opacity="0.5"/><line x1="119.35" y1="40" x2="119.35" y2="220" stroke="#30363d" opacity="0.5"/><line x1="198.71" y1="40" x2="198.71" y2="220" stroke="#30363d" opacity="0.5"/><line x1="278.06" y1="40" x2="278.06" y2="220" stroke="#30363d" opacity="0.5"/><line x1="357.42" y1="40" x2="357.42" y2="220" stroke="#30363d" opacity="0.5"/><line x1="436.77" y1="40" x2="436.77" y2="220" stroke="#30363d" opacity="0.5"/><line x1="516.13" y1="40" x2="516.13" y2="220" stroke="#30363d" opacity="0.5"/><line x1="595.48" y1="40" x2="595.48" y2="220" stroke="#30363d" opacity="0.5"/><line x1="674.84" y1="40" x2="674.84" y2="220" stroke="#30363d" opacity="0.5"/><line x1="754.19" y1="40" x2="754.19" y2="220" stroke="#30363d" opacity="0.5"/><line x1="833.55" y1="40" x2="833.55" y2="220" stroke="#30363d" opacity="0.5"/>
    <line x1="40" y1="220" x2="860" y2="220" stroke="#30363d"/>
    <line x1="40" y1="40"   x2="40"   y2="220" stroke="#30363d"/>
    <path d="M 40.00 219.82 L 53.23 211.81 L 66.45 211.81 L 79.68 211.81 L 92.90 171.85 L 106.13 171.58 L 119.35 164.38 L 132.58 118.93 L 145.81 119.11 L 159.03 111.10 L 172.26 110.56 L 185.48 110.56 L 198.71 110.56 L 211.94 95.35 L 225.16 95.35 L 238.39 95.35 L 251.61 94.63 L 264.84 94.54 L 278.06 94.45 L 291.29 94.09 L 304.52 94.09 L 317.74 94.09 L 330.97 94.09 L 344.19 94.09 L 357.42 94.09 L 370.65 94.09 L 383.87 94.09 L 397.10 94.09 L 410.32 91.84 L 423.55 83.65 L 436.77 83.65 L 450.00 83.47 L 463.23 83.65 L 476.45 91.03 L 489.68 91.03 L 502.90 91.03 L 516.13 91.03 L 529.35 91.03 L 542.58 91.03 L 555.81 91.03 L 569.03 91.03 L 582.26 91.03 L 595.48 91.03 L 608.71 91.03 L 621.94 90.94 L 635.16 91.03 L 648.39 90.94 L 661.61 90.94 L 674.84 90.94 L 688.06 90.94 L 701.29 90.94 L 714.52 90.94 L 727.74 90.94 L 740.97 90.94 L 754.19 90.94 L 767.42 90.94 L 780.65 90.94 L 793.87 90.94 L 807.10 90.94 L 820.32 90.94 L 833.55 90.94 L 846.77 90.94 L 860.00 90.94" fill="none" stroke="#3fb950" stroke-width="2"/>
    <circle cx="860.00" cy="90.94" r="3" fill="#3fb950"/>
    <text x="40.00" y="235.00" font-size="9" fill="#c9d1d9" text-anchor="middle" transform="rotate(-45 40.00 235.00)">09.08.2025</text><text x="119.35" y="235.00" font-size="9" fill="#c9d1d9" text-anchor="middle" transform="rotate(-45 119.35 235.00)">09.08.2025</text><text x="198.71" y="235.00" font-size="9" fill="#c9d1d9" text-anchor="middle" transform="rotate(-45 198.71 235.00)">13.08.2025</text><text x="278.06" y="235.00" font-size="9" fill="#c9d1d9" text-anchor="middle" transform="rotate(-45 278.06 235.00)">13.08.2025</text><text x="357.42" y="235.00" font-size="9" fill="#c9d1d9" text-anchor="middle" transform="rotate(-45 357.42 235.00)">18.08.2025</text><text x="436.77" y="235.00" font-size="9" fill="#c9d1d9" text-anchor="middle" transform="rotate(-45 436.77 235.00)">21.08.2025</text><text x="516.13" y="235.00" font-size="9" fill="#c9d1d9" text-anchor="middle" transform="rotate(-45 516.13 235.00)">22.08.2025</text><text x="595.48" y="235.00" font-size="9" fill="#c9d1d9" text-anchor="middle" transform="rotate(-45 595.48 235.00)">28.08.2025</text><text x="674.84" y="235.00" font-size="9" fill="#c9d1d9" text-anchor="middle" transform="rotate(-45 674.84 235.00)">29.08.2025</text><text x="754.19" y="235.00" font-size="9" fill="#c9d1d9" text-anchor="middle" transform="rotate(-45 754.19 235.00)">04.09.2025</text><text x="833.55" y="235.00" font-size="9" fill="#c9d1d9" text-anchor="middle" transform="rotate(-45 833.55 235.00)">10.09.2025</text>
  </g>
</svg>