<svg xmlns="http://www.w3.org/2000/svg" width="900" height="290" style="font-family: -apple-system, BlinkMacSystemFont, 'Segoe UI', Helvetica, Arial, sans-serif;">
  <rect width="100%" height="100%" fill="#0d1117"/>
  <g>
    <line x1="40" y1="220.00" x2="860" y2="220.00" stroke="#30363d"/><text x="32" y="224.00" font-size="10" fill="#c9d1d9" text-anchor="end">0</text><line x1="40" y1="175.00" x2="860" y2="175.00" stroke="#30363d"/><text x="32" y="179.00" font-size="10" fill="#c9d1d9" text-anchor="end">500</text><line x1="40" y1="130.00" x2="860" y2="130.00" stroke="#30363d"/><text x="32" y="134.00" font-size="10" fill="#c9d1d9" text-anchor="end">1k</text><line x1="40" y1="85.00" x2="860" y2="85.00" stroke="#30363d"/><text x="32" y="89.00" font-size="10" fill="#c9d1d9" text-anchor="end">1.5k</text><line x1="40" y1="40.00" x2="860" y2="40.00" stroke="#30363d"/><text x="32" y="44.00" font-size="10" fill="#c9d1d9" text-anchor="end">2k</text>
    <line x1="40.00" y1="40" x2="40.00" y2="220" stroke="#30363d" opacity="0.5"/><line x1="117.57" y1="40" x2="117.57" y2="220" stroke="#30363d" opacity="0.5"/><line x1="195.14" y1="40" x2="195.14" y2="220" stroke="#30363d" opacity="0.5"/><line x1="272.70" y1="40" x2="272.70" y2="220" stroke="#30363d" opacity="0.5"/><line x1="350.27" y1="40" x2="350.27" y2="220" stroke="#30363d" opacity="0.5"/><line x1="427.84" y1="40" x2="427.84" y2="220" stroke="#30363d" opacity="0.5"/><line x1="505.41" y1="40" x2="505.41" y2="220" stroke="#30363d" opacity="0.5"/><line x1="582.97" y1="40" x2="582.97" y2="220" stroke="#30363d" opacity="0.5"/><line x1="660.54" y1="40" x2="660.54" y2="220" stroke="#30363d" opacity="0.5"/><line x1="738.11" y1="40" x2="738.11" y2="220" stroke="#30363d" opacity="0.5"/><line x1="815.68" y1="40" x2="815.68" y2="220" stroke="#30363d" opacity="0.5"/>
    <line x1="40" y1="220" x2="860" y2="220" stroke="#30363d"/>
    <line x1="40" y1="40"   x2="40"   y2="220" stroke="#30363d"/>
    <path d="M 40.00 219.82 L 51.08 211.81 L 62.16 211.81 L 73.24 211.81 L 84.32 171.85 L 95.41 171.58 L 106.49 164.38 L 117.57 118.93 L 128.65 119.11 L 139.73 111.10 L 150.81 110.56 L 161.89 110.56 L 172.97 110.56 L 184.05 95.35 L 195.14 95.35 L 206.22 95.35 L 217.30 94.63 L 228.38 94.54 L 239.46 94.45 L 250.54 94.09 L 261.62 94.09 L 272.70 94.09 L 283.78 94.09 L 294.86 94.09 L 305.95 94.09 L 317.03 94.09 L 328.11 94.09 L 339.19 94.09 L 350.27 91.84 L 361.35 83.65 L 372.43 83.65 L 383.51 83.47 L 394.59 83.65 L 405.68 91.03 L 416.76 91.03 L 427.84 91.03 L 438.92 91.03 L 450.00 91.03 L 461.08 91.03 L 472.16 91.03 L 483.24 91.03 L 494.32 91.03 L 505.41 91.03 L 516.49 91.03 L 527.57 90.94 L 538.65 91.03 L 549.73 90.94 L 560.81 90.94 L 571.89 90.94 L 582.97 90.94 L 594.05 90.94 L 605.14 90.94 L 616.22 90.94 L 627.30 90.94 L 638.38 90.94 L 649.46 90.94 L 660.54 90.94 L 671.62 90.94 L 682.70 90.94 L 693.78 90.94 L 704.86 90.94 L 715.95 90.94 L 727.03 90.94 L 738.11 90.94 L 749.19 90.94 L 760.27 90.94 L 771.35 90.94 L 782.43 90.94 L 793.51 90.94 L 804.59 90.94 L 815.68 90.94 L 826.76 123.79 L 837.84 123.79 L 848.92 123.79 L 860.00 123.79" fill="none" stroke="#3fb950" stroke-width="2"/>
    <circle cx="860.00" cy="123.79" r="3" fill="#3fb950"/>
    <text x="40.00" y="235.00" font-size="9" fill="#c9d1d9" text-anchor="middle" transform="rotate(-45 40.00 235.00)">09.08.2025</text><text x="117.57" y="235.00" font-size="9" fill="#c9d1d9" text-anchor="middle" transform="rotate(-45 117.57 235.00)">09.08.2025</text><text x="195.14" y="235.00" font-size="9" fill="#c9d1d9" text-anchor="middle" transform="rotate(-45 195.14 235.00)">13.08.2025</text><text x="272.70" y="235.00" font-size="9" fill="#c9d1d9" text-anchor="middle" transform="rotate(-45 272.70 235.00)">15.08.2025</text><text x="350.27" y="235.00" font-size="9" fill="#c9d1d9" text-anchor="middle" transform="rotate(-45 350.27 235.00)">21.08.2025</text><text x="427.84" y="235.00" font-size="9" fill="#c9d1d9" text-anchor="middle" transform="rotate(-45 427.84 235.00)">21.08.2025</text><text x="505.41" y="235.00" font-size="9" fill="#c9d1d9" text-anchor="middle" transform="rotate(-45 505.41 235.00)">28.08.2025</text><text x="582.97" y="235.00" font-size="9" fill="#c9d1d9" text-anchor="middle" transform="rotate(-45 582.97 235.00)">30.08.2025</text><text x="660.54" y="235.00" font-size="9" fill="#c9d1d9" text-anchor="middle" transform="rotate(-45 660.54 235.00)">06.09.2025</text><text x="738.11" y="235.00" font-size="9" fill="#c9d1d9" text-anchor="middle" transform="rotate(-45 738.11 235.00)">13.09.2025</text><text x="815.68" y="235.00" font-size="9" fill="#c9d1d9" text-anchor="middle" transform="rotate(-45 815.68 235.00)">20.09.2025</text>
  </g>
</svg>