<svg xmlns="http://www.w3.org/2000/svg" width="900" height="290" style="font-family: -apple-system, BlinkMacSystemFont, 'Segoe UI', Helvetica, Arial, sans-serif;">
  <rect width="100%" height="100%" fill="#0d1117"/>
  <g>
    <line x1="40" y1="220.00" x2="860" y2="220.00" stroke="#30363d"/><text x="32" y="224.00" font-size="10" fill="#c9d1d9" text-anchor="end">0</text><line x1="40" y1="175.00" x2="860" y2="175.00" stroke="#30363d"/><text x="32" y="179.00" font-size="10" fill="#c9d1d9" text-anchor="end">500</text><line x1="40" y1="130.00" x2="860" y2="130.00" stroke="#30363d"/><text x="32" y="134.00" font-size="10" fill="#c9d1d9" text-anchor="end">1k</text><line x1="40" y1="85.00" x2="860" y2="85.00" stroke="#30363d"/><text x="32" y="89.00" font-size="10" fill="#c9d1d9" text-anchor="end">1.5k</text><line x1="40" y1="40.00" x2="860" y2="40.00" stroke="#30363d"/><text x="32" y="44.00" font-size="10" fill="#c9d1d9" text-anchor="end">2k</text>
    <line x1="40.00" y1="40" x2="40.00" y2="220" stroke="#30363d" opacity="0.5"/><line x1="120.39" y1="40" x2="120.39" y2="220" stroke="#30363d" opacity="0.5"/><line x1="200.78" y1="40" x2="200.78" y2="220" stroke="#30363d" opacity="0.5"/><line x1="281.18" y1="40" x2="281.18" y2="220" stroke="#30363d" opacity="0.5"/><line x1="361.57" y1="40" x2="361.57" y2="220" stroke="#30363d" opacity="0.5"/><line x1="441.96" y1="40" x2="441.96" y2="220" stroke="#30363d" opacity="0.5"/><line x1="522.35" y1="40" x2="522.35" y2="220" stroke="#30363d" opacity="0.5"/><line x1="602.75" y1="40" x2="602.75" y2="220" stroke="#30363d" opacity="0.5"/><line x1="683.14" y1="40" x2="683.14" y2="220" stroke="#30363d" opacity="0.5"/><line x1="763.53" y1="40" x2="763.53" y2="220" stroke="#30363d" opacity="0.5"/><line x1="843.92" y1="40" x2="843.92" y2="220" stroke="#30363d" opacity="0.5"/>
    <line x1="40" y1="220" x2="860" y2="220" stroke="#30363d"/>
    <line x1="40" y1="40"   x2="40"   y2="220" stroke="#30363d"/>
    <path d="M 40.00 219.82 L 48.04 211.81 L 56.08 211.81 L 64.12 211.81 L 72.16 171.85 L 80.20 171.58 L 88.24 164.38 L 96.27 118.93 L 104.31 119.11 L 112.35 111.10 L 120.39 110.56 L 128.43 110.56 L 136.47 110.56 L 144.51 95.35 L 152.55 95.35 L 160.59 95.35 L 168.63 94.63 L 176.67 94.54 L 184.71 94.45 L 192.75 94.09 L 200.78 94.09 L 208.82 94.09 L 216.86 94.09 L 224.90 94.09 L 232.94 94.09 L 240.98 94.09 L 249.02 94.09 L 257.06 94.09 L 265.10 91.84 L 273.14 83.65 L 281.18 83.65 L 289.22 83.47 L 297.25 83.65 L 305.29 91.03 L 313.33 91.03 L 321.37 91.03 L 329.41 91.03 L 337.45 91.03 L 345.49 91.03 L 353.53 91.03 L 361.57 91.03 L 369.61 91.03 L 377.65 91.03 L 385.69 91.03 L 393.73 90.94 L 401.76 91.03 L 409.80 90.94 L 417.84 90.94 L 425.88 90.94 L 433.92 90.94 L 441.96 90.94 L 450.00 90.94 L 458.04 90.94 L 466.08 90.94 L 474.12 90.94 L 482.16 90.94 L 490.20 90.94 L 498.24 90.94 L 506.27 90.94 L 514.31 90.94 L 522.35 90.94 L 530.39 90.94 L 538.43 90.94 L 546.47 90.94 L 554.51 90.94 L 562.55 90.94 L 570.59 90.94 L 578.63 90.94 L 586.67 90.94 L 594.71 90.94 L 602.75 90.94 L 610.78 123.79 L 618.82 123.79 L 626.86 123.79 L 634.90 123.79 L 642.94 123.79 L 650.98 123.79 L 659.02 123.79 L 667.06 123.79 L 675.10 123.79 L 683.14 123.79 L 691.18 123.79 L 699.22 123.79 L 707.25 123.79 L 715.29 123.79 L 723.33 123.79 L 731.37 123.79 L 739.41 123.79 L 747.45 123.79 L 755.49 123.79 L 763.53 123.79 L 771.57 123.79 L 779.61 123.79 L 787.65 123.79 L 795.69 123.79 L 803.73 123.79 L 811.76 123.79 L 819.80 123.79 L 827.84 123.79 L 835.88 123.79 L 843.92 123.79 L 851.96 123.79 L 860.00 123.79" fill="none" stroke="#3fb950" stroke-width="2"/>
    <circle cx="860.00" cy="123.79" r="3" fill="#3fb950"/>
    <text x="40.00" y="235.00" font-size="9" fill="#c9d1d9" text-anchor="middle" transform="rotate(-45 40.00 235.00)">09.08.2025</text><text x="120.39" y="235.00" font-size="9" fill="#c9d1d9" text-anchor="middle" transform="rotate(-45 120.39 235.00)">13.08.2025</text><text x="200.78" y="235.00" font-size="9" fill="#c9d1d9" text-anchor="middle" transform="rotate(-45 200.78 235.00)">14.08.2025</text><text x="281.18" y="235.00" font-size="9" fill="#c9d1d9" text-anchor="middle" transform="rotate(-45 281.18 235.00)">21.08.2025</text><text x="361.57" y="235.00" font-size="9" fill="#c9d1d9" text-anchor="middle" transform="rotate(-45 361.57 235.00)">26.08.2025</text><text x="441.96" y="235.00" font-size="9" fill="#c9d1d9" text-anchor="middle" transform="rotate(-45 441.96 235.00)">31.08.2025</text><text x="522.35" y="235.00" font-size="9" fill="#c9d1d9" text-anchor="middle" transform="rotate(-45 522.35 235.00)">10.09.2025</text><text x="602.75" y="235.00" font-size="9" fill="#c9d1d9" text-anchor="middle" transform="rotate(-45 602.75 235.00)">20.09.2025</text><text x="683.14" y="235.00" font-size="9" fill="#c9d1d9" text-anchor="middle" transform="rotate(-45 683.14 235.00)">28.09.2025</text><text x="763.53" y="235.00" font-size="9" fill="#c9d1d9" text-anchor="middle" transform="rotate(-45 763.53 235.00)">08.10.2025</text><text x="843.92" y="235.00" font-size="9" fill="#c9d1d9" text-anchor="middle" transform="rotate(-45 843.92 235.00)">18.10.2025</text>
  </g>
</svg>