<svg xmlns="http://www.w3.org/2000/svg" width="900" height="290" style="font-family: -apple-system, BlinkMacSystemFont, 'Segoe UI', Helvetica, Arial, sans-serif;">
  <rect width="100%" height="100%" fill="white"/>
  <g>
    <line x1="40" y1="220.00" x2="860" y2="220.00" stroke="#e5e7eb"/><text x="32" y="224.00" font-size="10" fill="#111827" text-anchor="end">0</text><line x1="40" y1="175.00" x2="860" y2="175.00" stroke="#e5e7eb"/><text x="32" y="179.00" font-size="10" fill="#111827" text-anchor="end">500</text><line x1="40" y1="130.00" x2="860" y2="130.00" stroke="#e5e7eb"/><text x="32" y="134.00" font-size="10" fill="#111827" text-anchor="end">1k</text><line x1="40" y1="85.00" x2="860" y2="85.00" stroke="#e5e7eb"/><text x="32" y="89.00" font-size="10" fill="#111827" text-anchor="end">1.5k</text><line x1="40" y1="40.00" x2="860" y2="40.00" stroke="#e5e7eb"/><text x="32" y="44.00" font-size="10" fill="#111827" text-anchor="end">2k</text>
    <line x1="40.00" y1="40" x2="40.00" y2="220" stroke="#e5e7eb" opacity="0.5"/><line x1="119.17" y1="40" x2="119.17" y2="220" stroke="#e5e7eb" opacity="0.5"/><line x1="198.34" y1="40" x2="198.34" y2="220" stroke="#e5e7eb" opacity="0.5"/><line x1="277.52" y1="40" x2="277.52" y2="220" stroke="#e5e7eb" opacity="0.5"/><line x1="356.69" y1="40" x2="356.69" y2="220" stroke="#e5e7eb" opacity="0.5"/><line x1="435.86" y1="40" x2="435.86" y2="220" stroke="#e5e7eb" opacity="0.5"/><line x1="515.03" y1="40" x2="515.03" y2="220" stroke="#e5e7eb" opacity="0.5"/><line x1="594.21" y1="40" x2="594.21" y2="220" stroke="#e5e7eb" opacity="0.5"/><line x1="673.38" y1="40" x2="673.38" y2="220" stroke="#e5e7eb" opacity="0.5"/><line x1="752.55" y1="40" x2="752.55" y2="220" stroke="#e5e7eb" opacity="0.5"/><line x1="831.72" y1="40" x2="831.72" y2="220" stroke="#e5e7eb" opacity="0.5"/>
    <line x1="40" y1="220" x2="860" y2="220" stroke="#9ca3af"/>
    <line x1="40" y1="40"   x2="40"   y2="220" stroke="#9ca3af"/>
    <path d="M 40.00 219.82 L 45.66 211.81 L 51.31 211.81 L 56.97 211.81 L 62.62 171.85 L 68.28 171.58 L 73.93 164.38 L 79.59 118.93 L 85.24 119.11 L 90.90 111.10 L 96.55 110.56 L 102.21 110.56 L 107.86 110.56 L 113.52 95.35 L 119.17 95.35 L 124.83 95.35 L 130.48 94.63 L 136.14 94.54 L 141.79 94.45 L 147.45 94.09 L 153.10 94.09 L 158.76 94.09 L 164.41 94.09 L 170.07 94.09 L 175.72 94.09 L 181.38 94.09 L 187.03 94.09 L 192.69 94.09 L 198.34 91.84 L 204.00 83.65 L 209.66 83.65 L 215.31 83.47 L 220.97 83.65 L 226.62 91.03 L 232.28 91.03 L 237.93 91.03 L 243.59 91.03 L 249.24 91.03 L 254.90 91.03 L 260.55 91.03 L 266.21 91.03 L 271.86 91.03 L 277.52 91.03 L 283.17 91.03 L 288.83 90.94 L 294.48 91.03 L 300.14 90.94 L 305.79 90.94 L 311.45 90.94 L 317.10 90.94 L 322.76 90.94 L 328.41 90.94 L 334.07 90.94 L 339.72 90.94 L 345.38 90.94 L 351.03 90.94 L 356.69 90.94 L 362.34 90.94 L 368.00 90.94 L 373.66 90.94 L 379.31 90.94 L 384.97 90.94 L 390.62 90.94 L 396.28 90.94 L 401.93 90.94 L 407.59 90.94 L 413.24 90.94 L 418.90 90.94 L 424.55 90.94 L 430.21 90.94 L 435.86 90.94 L 441.52 123.79 L 447.17 123.79 L 452.83 123.79 L 458.48 123.79 L 464.14 123.79 L 469.79 123.79 L 475.45 123.79 L 481.10 123.79 L 486.76 123.79 L 492.41 123.79 L 498.07 123.79 L 503.72 123.79 L 509.38 123.79 L 515.03 123.79 L 520.69 123.79 L 526.34 123.79 L 532.00 123.79 L 537.66 123.79 L 543.31 123.79 L 548.97 123.79 L 554.62 123.79 L 560.28 123.79 L 565.93 123.79 L 571.59 123.79 L 577.24 123.79 L 582.90 123.79 L 588.55 123.79 L 594.21 123.79 L 599.86 123.79 L 605.52 123.79 L 611.17 123.79 L 616.83 123.79 L 622.48 123.79 L 628.14 123.79 L 633.79 123.79 L 639.45 123.79 L 645.10 123.79 L 650.76 123.79 L 656.41 123.79 L 662.07 123.79 L 667.72 123.79 L 673.38 123.79 L 679.03 123.79 L 684.69 123.79 L 690.34 123.79 L 696.00 123.79 L 701.66 123.79 L 707.31 123.79 L 712.97 123.79 L 718.62 123.79 L 724.28 123.79 L 729.93 123.79 L 735.59 123.79 L 741.24 123.79 L 746.90 123.79 L 752.55 123.79 L 758.21 123.79 L 763.86 123.79 L 769.52 123.79 L 775.17 123.79 L 780.83 123.79 L 786.48 123.79 L 792.14 123.79 L 797.79 123.79 L 803.45 123.79 L 809.10 123.79 L 814.76 123.79 L 820.41 123.79 L 826.07 123.79 L 831.72 123.79 L 837.38 123.79 L 843.03 123.79 L 848.69 123.79 L 854.34 123.79 L 860.00 123.79" fill="none" stroke="#111827" stroke-width="2"/>
    <circle cx="860.00" cy="123.79" r="3" fill="#111827"/>
    <text x="40.00" y="235.00" font-size="9" fill="#111827" text-anchor="middle" transform="rotate(-45 40.00 235.00)">09.08.2025</text><text x="119.17" y="235.00" font-size="9" fill="#111827" text-anchor="middle" transform="rotate(-45 119.17 235.00)">13.08.2025</text><text x="198.34" y="235.00" font-size="9" fill="#111827" text-anchor="middle" transform="rotate(-45 198.34 235.00)">21.08.2025</text><text x="277.52" y="235.00" font-size="9" fill="#111827" text-anchor="middle" transform="rotate(-45 277.52 235.00)">28.08.2025</text><text x="356.69" y="235.00" font-size="9" fill="#111827" text-anchor="middle" transform="rotate(-45 356.69 235.00)">06.09.2025</text><text x="435.86" y="235.00" font-size="9" fill="#111827" text-anchor="middle" transform="rotate(-45 435.86 235.00)">20.09.2025</text><text x="515.03" y="235.00" font-size="9" fill="#111827" text-anchor="middle" transform="rotate(-45 515.03 235.00)">02.10.2025</text><text x="594.21" y="235.00" font-size="9" fill="#111827" text-anchor="middle" transform="rotate(-45 594.21 235.00)">16.10.2025</text><text x="673.38" y="235.00" font-size="9" fill="#111827" text-anchor="middle" transform="rotate(-45 673.38 235.00)">30.10.2025</text><text x="752.55" y="235.00" font-size="9" fill="#111827" text-anchor="middle" transform="rotate(-45 752.55 235.00)">13.11.2025</text><text x="831.72" y="235.00" font-size="9" fill="#111827" text-anchor="middle" transform="rotate(-45 831.72 235.00)">27.11.2025</text>
  </g>
</svg>