<svg xmlns="http://www.w3.org/2000/svg" width="900" height="290" style="font-family: -apple-system, BlinkMacSystemFont, 'Segoe UI', Helvetica, Arial, sans-serif;">
  <rect width="100%" height="100%" fill="#0d1117"/>
  <g>
    <line x1="40" y1="220.00" x2="860" y2="220.00" stroke="#30363d"/><text x="32" y="224.00" font-size="10" fill="#c9d1d9" text-anchor="end">0</text><line x1="40" y1="175.00" x2="860" y2="175.00" stroke="#30363d"/><text x="32" y="179.00" font-size="10" fill="#c9d1d9" text-anchor="end">500</text><line x1="40" y1="130.00" x2="860" y2="130.00" stroke="#30363d"/><text x="32" y="134.00" font-size="10" fill="#c9d1d9" text-anchor="end">1k</text><line x1="40" y1="85.00" x2="860" y2="85.00" stroke="#30363d"/><text x="32" y="89.00" font-size="10" fill="#c9d1d9" text-anchor="end">1.5k</text><line x1="40" y1="40.00" x2="860" y2="40.00" stroke="#30363d"/><text x="32" y="44.00" font-size="10" fill="#c9d1d9" text-anchor="end">2k</text>
    <line x1="40.00" y1="40" x2="40.00" y2="220" stroke="#30363d" opacity="0.5"/><line x1="110.29" y1="40" x2="110.29" y2="220" stroke="#30363d" opacity="0.5"/><line x1="180.57" y1="40" x2="180.57" y2="220" stroke="#30363d" opacity="0.5"/><line x1="250.86" y1="40" x2="250.86" y2="220" stroke="#30363d" opacity="0.5"/><line x1="321.14" y1="40" x2="321.14" y2="220" stroke="#30363d" opacity="0.5"/><line x1="391.43" y1="40" x2="391.43" y2="220" stroke="#30363d" opacity="0.5"/><line x1="461.71" y1="40" x2="461.71" y2="220" stroke="#30363d" opacity="0.5"/><line x1="532.00" y1="40" x2="532.00" y2="220" stroke="#30363d" opacity="0.5"/><line x1="602.29" y1="40" x2="602.29" y2="220" stroke="#30363d" opacity="0.5"/><line x1="672.57" y1="40" x2="672.57" y2="220" stroke="#30363d" opacity="0.5"/><line x1="742.86" y1="40" x2="742.86" y2="220" stroke="#30363d" opacity="0.5"/><line x1="813.14" y1="40" x2="813.14" y2="220" stroke="#30363d" opacity="0.5"/>
    <line x1="40" y1="220" x2="860" y2="220" stroke="#30363d"/>
    <line x1="40" y1="40"   x2="40"   y2="220" stroke="#30363d"/>
    <path d="M 40.00 219.82 L 63.43 211.81 L 86.86 211.81 L 110.29 211.81 L 133.71 171.85 L 157.14 171.58 L 180.57 164.38 L 204.00 118.93 L 227.43 119.11 L 250.86 111.10 L 274.29 110.56 L 297.71 110.56 L 321.14 110.56 L 344.57 95.35 L 368.00 95.35 L 391.43 95.35 L 414.86 94.63 L 438.29 94.54 L 461.71 94.45 L 485.14 94.09 L 508.57 94.09 L 532.00 94.09 L 555.43 94.09 L 578.86 94.09 L 602.29 94.09 L 625.71 94.09 L 649.14 94.09 L 672.57 94.09 L 696.00 91.84 L 719.43 83.65 L 742.86 83.65 L 766.29 83.47 L 789.71 83.65 L 813.14 91.03 L 836.57 91.03 L 860.00 91.03" fill="none" stroke="#3fb950" stroke-width="2"/>
    <circle cx="860.00" cy="91.03" r="3" fill="#3fb950"/>
    <text x="40.00" y="235.00" font-size="9" fill="#c9d1d9" text-anchor="middle" transform="rotate(-45 40.00 235.00)">09.08.2025</text><text x="110.29" y="235.00" font-size="9" fill="#c9d1d9" text-anchor="middle" transform="rotate(-45 110.29 235.00)">09.08.2025</text><text x="180.57" y="235.00" font-size="9" fill="#c9d1d9" text-anchor="middle" transform="rotate(-45 180.57 235.00)">09.08.2025</text><text x="250.86" y="235.00" font-size="9" fill="#c9d1d9" text-anchor="middle" transform="rotate(-45 250.86 235.00)">13.08.2025</text><text x="321.14" y="235.00" font-size="9" fill="#c9d1d9" text-anchor="middle" transform="rotate(-45 321.14 235.00)">13.08.2025</text><text x="391.43" y="235.00" font-size="9" fill="#c9d1d9" text-anchor="middle" transform="rotate(-45 391.43 235.00)">13.08.2025</text><text x="461.71" y="235.00" font-size="9" fill="#c9d1d9" text-anchor="middle" transform="rotate(-45 461.71 235.00)">13.08.2025</text><text x="532.00" y="235.00" font-size="9" fill="#c9d1d9" text-anchor="middle" transform="rotate(-45 532.00 235.00)">15.08.2025</text><text x="602.29" y="235.00" font-size="9" fill="#c9d1d9" text-anchor="middle" transform="rotate(-45 602.29 235.00)">18.08.2025</text><text x="672.57" y="235.00" font-size="9" fill="#c9d1d9" text-anchor="middle" transform="rotate(-45 672.57 235.00)">21.08.2025</text><text x="742.86" y="235.00" font-size="9" fill="#c9d1d9" text-anchor="middle" transform="rotate(-45 742.86 235.00)">21.08.2025</text><text x="813.14" y="235.00" font-size="9" fill="#c9d1d9" text-anchor="middle" transform="rotate(-45 813.14 235.00)">21.08.2025</text>
  </g>
</svg>