<svg xmlns="http://www.w3.org/2000/svg" width="900" height="290" style="font-family: -apple-system, BlinkMacSystemFont, 'Segoe UI', Helvetica, Arial, sans-serif;">
  <rect width="100%" height="100%" fill="white"/>
  <g>
    <line x1="40" y1="220.00" x2="860" y2="220.00" stroke="#e5e7eb"/><text x="32" y="224.00" font-size="10" fill="#111827" text-anchor="end">0</text><line x1="40" y1="175.00" x2="860" y2="175.00" stroke="#e5e7eb"/><text x="32" y="179.00" font-size="10" fill="#111827" text-anchor="end">500</text><line x1="40" y1="130.00" x2="860" y2="130.00" stroke="#e5e7eb"/><text x="32" y="134.00" font-size="10" fill="#111827" text-anchor="end">1k</text><line x1="40" y1="85.00" x2="860" y2="85.00" stroke="#e5e7eb"/><text x="32" y="89.00" font-size="10" fill="#111827" text-anchor="end">1.5k</text><line x1="40" y1="40.00" x2="860" y2="40.00" stroke="#e5e7eb"/><text x="32" y="44.00" font-size="10" fill="#111827" text-anchor="end">2k</text>
    <line x1="40.00" y1="40" x2="40.00" y2="220" stroke="#e5e7eb" opacity="0.5"/><line x1="116.88" y1="40" x2="116.88" y2="220" stroke="#e5e7eb" opacity="0.5"/><line x1="193.75" y1="40" x2="193.75" y2="220" stroke="#e5e7eb" opacity="0.5"/><line x1="270.62" y1="40" x2="270.62" y2="220" stroke="#e5e7eb" opacity="0.5"/><line x1="347.50" y1="40" x2="347.50" y2="220" stroke="#e5e7eb" opacity="0.5"/><line x1="424.38" y1="40" x2="424.38" y2="220" stroke="#e5e7eb" opacity="0.5"/><line x1="501.25" y1="40" x2="501.25" y2="220" stroke="#e5e7eb" opacity="0.5"/><line x1="578.12" y1="40" x2="578.12" y2="220" stroke="#e5e7eb" opacity="0.5"/><line x1="655.00" y1="40" x2="655.00" y2="220" stroke="#e5e7eb" opacity="0.5"/><line x1="731.88" y1="40" x2="731.88" y2="220" stroke="#e5e7eb" opacity="0.5"/><line x1="808.75" y1="40" x2="808.75" y2="220" stroke="#e5e7eb" opacity="0.5"/>
    <line x1="40" y1="220" x2="860" y2="220" stroke="#9ca3af"/>
    <line x1="40" y1="40"   x2="40"   y2="220" stroke="#9ca3af"/>
    <path d="M 40.00 219.82 L 46.41 211.81 L 52.81 211.81 L 59.22 211.81 L 65.62 171.85 L 72.03 171.58 L 78.44 164.38 L 84.84 118.93 L 91.25 119.11 L 97.66 111.10 L 104.06 110.56 L 110.47 110.56 L 116.88 110.56 L 123.28 95.35 L 129.69 95.35 L 136.09 95.35 L 142.50 94.63 L 148.91 94.54 L 155.31 94.45 L 161.72 94.09 L 168.12 94.09 L 174.53 94.09 L 180.94 94.09 L 187.34 94.09 L 193.75 94.09 L 200.16 94.09 L 206.56 94.09 L 212.97 94.09 L 219.38 91.84 L 225.78 83.65 L 232.19 83.65 L 238.59 83.47 L 245.00 83.65 L 251.41 91.03 L 257.81 91.03 L 264.22 91.03 L 270.62 91.03 L 277.03 91.03 L 283.44 91.03 L 289.84 91.03 L 296.25 91.03 L 302.66 91.03 L 309.06 91.03 L 315.47 91.03 L 321.88 90.94 L 328.28 91.03 L 334.69 90.94 L 341.09 90.94 L 347.50 90.94 L 353.91 90.94 L 360.31 90.94 L 366.72 90.94 L 373.12 90.94 L 379.53 90.94 L 385.94 90.94 L 392.34 90.94 L 398.75 90.94 L 405.16 90.94 L 411.56 90.94 L 417.97 90.94 L 424.38 90.94 L 430.78 90.94 L 437.19 90.94 L 443.59 90.94 L 450.00 90.94 L 456.41 90.94 L 462.81 90.94 L 469.22 90.94 L 475.62 90.94 L 482.03 90.94 L 488.44 90.94 L 494.84 123.79 L 501.25 123.79 L 507.66 123.79 L 514.06 123.79 L 520.47 123.79 L 526.88 123.79 L 533.28 123.79 L 539.69 123.79 L 546.09 123.79 L 552.50 123.79 L 558.91 123.79 L 565.31 123.79 L 571.72 123.79 L 578.12 123.79 L 584.53 123.79 L 590.94 123.79 L 597.34 123.79 L 603.75 123.79 L 610.16 123.79 L 616.56 123.79 L 622.97 123.79 L 629.38 123.79 L 635.78 123.79 L 642.19 123.79 L 648.59 123.79 L 655.00 123.79 L 661.41 123.79 L 667.81 123.79 L 674.22 123.79 L 680.62 123.79 L 687.03 123.79 L 693.44 123.79 L 699.84 123.79 L 706.25 123.79 L 712.66 123.79 L 719.06 123.79 L 725.47 123.79 L 731.88 123.79 L 738.28 123.79 L 744.69 123.79 L 751.09 123.79 L 757.50 123.79 L 763.91 123.79 L 770.31 123.79 L 776.72 123.79 L 783.12 123.79 L 789.53 123.79 L 795.94 123.79 L 802.34 123.79 L 808.75 123.79 L 815.16 123.79 L 821.56 123.79 L 827.97 123.79 L 834.38 123.79 L 840.78 123.79 L 847.19 123.79 L 853.59 123.79 L 860.00 123.79" fill="none" stroke="#111827" stroke-width="2"/>
    <circle cx="860.00" cy="123.79" r="3" fill="#111827"/>
    <text x="40.00" y="235.00" font-size="9" fill="#111827" text-anchor="middle" transform="rotate(-45 40.00 235.00)">09.08.2025</text><text x="116.88" y="235.00" font-size="9" fill="#111827" text-anchor="middle" transform="rotate(-45 116.88 235.00)">13.08.2025</text><text x="193.75" y="235.00" font-size="9" fill="#111827" text-anchor="middle" transform="rotate(-45 193.75 235.00)">18.08.2025</text><text x="270.62" y="235.00" font-size="9" fill="#111827" text-anchor="middle" transform="rotate(-45 270.62 235.00)">22.08.2025</text><text x="347.50" y="235.00" font-size="9" fill="#111827" text-anchor="middle" transform="rotate(-45 347.50 235.00)">29.08.2025</text><text x="424.38" y="235.00" font-size="9" fill="#111827" text-anchor="middle" transform="rotate(-45 424.38 235.00)">10.09.2025</text><text x="501.25" y="235.00" font-size="9" fill="#111827" text-anchor="middle" transform="rotate(-45 501.25 235.00)">21.09.2025</text><text x="578.12" y="235.00" font-size="9" fill="#111827" text-anchor="middle" transform="rotate(-45 578.12 235.00)">02.10.2025</text><text x="655.00" y="235.00" font-size="9" fill="#111827" text-anchor="middle" transform="rotate(-45 655.00 235.00)">14.10.2025</text><text x="731.88" y="235.00" font-size="9" fill="#111827" text-anchor="middle" transform="rotate(-45 731.88 235.00)">26.10.2025</text><text x="808.75" y="235.00" font-size="9" fill="#111827" text-anchor="middle" transform="rotate(-45 808.75 235.00)">07.11.2025</text>
  </g>
</svg>