<svg xmlns="http://www.w3.org/2000/svg" width="900" height="290" style="font-family: -apple-system, BlinkMacSystemFont, 'Segoe UI', Helvetica, Arial, sans-serif;">
  <rect width="100%" height="100%" fill="#0d1117"/>
  <g>
    <line x1="40" y1="220.00" x2="860" y2="220.00" stroke="#30363d"/><text x="32" y="224.00" font-size="10" fill="#c9d1d9" text-anchor="end">0</text><line x1="40" y1="175.00" x2="860" y2="175.00" stroke="#30363d"/><text x="32" y="179.00" font-size="10" fill="#c9d1d9" text-anchor="end">500</text><line x1="40" y1="130.00" x2="860" y2="130.00" stroke="#30363d"/><text x="32" y="134.00" font-size="10" fill="#c9d1d9" text-anchor="end">1k</text><line x1="40" y1="85.00" x2="860" y2="85.00" stroke="#30363d"/><text x="32" y="89.00" font-size="10" fill="#c9d1d9" text-anchor="end">1.5k</text><line x1="40" y1="40.00" x2="860" y2="40.00" stroke="#30363d"/><text x="32" y="44.00" font-size="10" fill="#c9d1d9" text-anchor="end">2k</text>
    <line x1="40.00" y1="40" x2="40.00" y2="220" stroke="#30363d" opacity="0.5"/><line x1="120.11" y1="40" x2="120.11" y2="220" stroke="#30363d" opacity="0.5"/><line x1="200.23" y1="40" x2="200.23" y2="220" stroke="#30363d" opacity="0.5"/><line x1="280.34" y1="40" x2="280.34" y2="220" stroke="#30363d" opacity="0.5"/><line x1="360.46" y1="40" x2="360.46" y2="220" stroke="#30363d" opacity="0.5"/><line x1="440.57" y1="40" x2="440.57" y2="220" stroke="#30363d" opacity="0.5"/><line x1="520.69" y1="40" x2="520.69" y2="220" stroke="#30363d" opacity="0.5"/><line x1="600.80" y1="40" x2="600.80" y2="220" stroke="#30363d" opacity="0.5"/><line x1="680.92" y1="40" x2="680.92" y2="220" stroke="#30363d" opacity="0.5"/><line x1="761.03" y1="40" x2="761.03" y2="220" stroke="#30363d" opacity="0.5"/><line x1="841.15" y1="40" x2="841.15" y2="220" stroke="#30363d" opacity="0.5"/>
    <line x1="40" y1="220" x2="860" y2="220" stroke="#30363d"/>
    <line x1="40" y1="40"   x2="40"   y2="220" stroke="#30363d"/>
    <path d="M 40.00 219.82 L 44.71 211.81 L 49.43 211.81 L 54.14 211.81 L 58.85 171.85 L 63.56 171.58 L 68.28 164.38 L 72.99 118.93 L 77.70 119.11 L 82.41 111.10 L 87.13 110.56 L 91.84 110.56 L 96.55 110.56 L 101.26 95.35 L 105.98 95.35 L 110.69 95.35 L 115.40 94.63 L 120.11 94.54 L 124.83 94.45 L 129.54 94.09 L 134.25 94.09 L 138.97 94.09 L 143.68 94.09 L 148.39 94.09 L 153.10 94.09 L 157.82 94.09 L 162.53 94.09 L 167.24 94.09 L 171.95 91.84 L 176.67 83.65 L 181.38 83.65 L 186.09 83.47 L 190.80 83.65 L 195.52 91.03 L 200.23 91.03 L 204.94 91.03 L 209.66 91.03 L 214.37 91.03 L 219.08 91.03 L 223.79 91.03 L 228.51 91.03 L 233.22 91.03 L 237.93 91.03 L 242.64 91.03 L 247.36 90.94 L 252.07 91.03 L 256.78 90.94 L 261.49 90.94 L 266.21 90.94 L 270.92 90.94 L 275.63 90.94 L 280.34 90.94 L 285.06 90.94 L 289.77 90.94 L 294.48 90.94 L 299.20 90.94 L 303.91 90.94 L 308.62 90.94 L 313.33 90.94 L 318.05 90.94 L 322.76 90.94 L 327.47 90.94 L 332.18 90.94 L 336.90 90.94 L 341.61 90.94 L 346.32 90.94 L 351.03 90.94 L 355.75 90.94 L 360.46 90.94 L 365.17 90.94 L 369.89 90.94 L 374.60 123.79 L 379.31 123.79 L 384.02 123.79 L 388.74 123.79 L 393.45 123.79 L 398.16 123.79 L 402.87 123.79 L 407.59 123.79 L 412.30 123.79 L 417.01 123.79 L 421.72 123.79 L 426.44 123.79 L 431.15 123.79 L 435.86 123.79 L 440.57 123.79 L 445.29 123.79 L 450.00 123.79 L 454.71 123.79 L 459.43 123.79 L 464.14 123.79 L 468.85 123.79 L 473.56 123.79 L 478.28 123.79 L 482.99 123.79 L 487.70 123.79 L 492.41 123.79 L 497.13 123.79 L 501.84 123.79 L 506.55 123.79 L 511.26 123.79 L 515.98 123.79 L 520.69 123.79 L 525.40 123.79 L 530.11 123.79 L 534.83 123.79 L 539.54 123.79 L 544.25 123.79 L 548.97 123.79 L 553.68 123.79 L 558.39 123.79 L 563.10 123.79 L 567.82 123.79 L 572.53 123.79 L 577.24 123.79 L 581.95 123.79 L 586.67 123.79 L 591.38 123.79 L 596.09 123.79 L 600.80 123.79 L 605.52 123.79 L 610.23 123.79 L 614.94 123.79 L 619.66 123.79 L 624.37 123.79 L 629.08 123.79 L 633.79 123.79 L 638.51 123.79 L 643.22 123.79 L 647.93 123.79 L 652.64 123.79 L 657.36 123.79 L 662.07 123.79 L 666.78 123.79 L 671.49 123.79 L 676.21 123.79 L 680.92 123.79 L 685.63 123.79 L 690.34 123.79 L 695.06 123.79 L 699.77 123.79 L 704.48 123.79 L 709.20 123.79 L 713.91 123.79 L 718.62 123.79 L 723.33 123.79 L 728.05 123.79 L 732.76 123.79 L 737.47 115.42 L 742.18 111.64 L 746.90 107.86 L 751.61 104.08 L 756.32 100.30 L 761.03 95.98 L 765.75 95.98 L 770.46 95.98 L 775.17 95.98 L 779.89 85.72 L 784.60 85.72 L 789.31 85.72 L 794.02 85.72 L 798.74 85.72 L 803.45 85.72 L 808.16 85.72 L 812.87 85.72 L 817.59 85.72 L 822.30 85.72 L 827.01 85.72 L 831.72 85.72 L 836.44 85.72 L 841.15 85.72 L 845.86 85.72 L 850.57 85.72 L 855.29 85.72 L 860.00 85.72" fill="none" stroke="#3fb950" stroke-width="2"/>
    <circle cx="860.00" cy="85.72" r="3" fill="#3fb950"/>
    <text x="40.00" y="235.00" font-size="9" fill="#c9d1d9" text-anchor="middle" transform="rotate(-45 40.00 235.00)">09.08.2025</text><text x="120.11" y="235.00" font-size="9" fill="#c9d1d9" text-anchor="middle" transform="rotate(-45 120.11 235.00)">13.08.2025</text><text x="200.23" y="235.00" font-size="9" fill="#c9d1d9" text-anchor="middle" transform="rotate(-45 200.23 235.00)">21.08.2025</text><text x="280.34" y="235.00" font-size="9" fill="#c9d1d9" text-anchor="middle" transform="rotate(-45 280.34 235.00)">01.09.2025</text><text x="360.46" y="235.00" font-size="9" fill="#c9d1d9" text-anchor="middle" transform="rotate(-45 360.46 235.00)">18.09.2025</text><text x="440.57" y="235.00" font-size="9" fill="#c9d1d9" text-anchor="middle" transform="rotate(-45 440.57 235.00)">03.10.2025</text><text x="520.69" y="235.00" font-size="9" fill="#c9d1d9" text-anchor="middle" transform="rotate(-45 520.69 235.00)">20.10.2025</text><text x="600.80" y="235.00" font-size="9" fill="#c9d1d9" text-anchor="middle" transform="rotate(-45 600.80 235.00)">06.11.2025</text><text x="680.92" y="235.00" font-size="9" fill="#c9d1d9" text-anchor="middle" transform="rotate(-45 680.92 235.00)">23.11.2025</text><text x="761.03" y="235.00" font-size="9" fill="#c9d1d9" text-anchor="middle" transform="rotate(-45 761.03 235.00)">04.12.2025</text><text x="841.15" y="235.00" font-size="9" fill="#c9d1d9" text-anchor="middle" transform="rotate(-45 841.15 235.00)">20.12.2025</text>
  </g>
</svg>