<svg xmlns="http://www.w3.org/2000/svg" width="900" height="290" style="font-family: -apple-system, BlinkMacSystemFont, 'Segoe UI', Helvetica, Arial, sans-serif;">
  <rect width="100%" height="100%" fill="#0d1117"/>
  <g>
    <line x1="40" y1="220.00" x2="860" y2="220.00" stroke="#30363d"/><text x="32" y="224.00" font-size="10" fill="#c9d1d9" text-anchor="end">0</text><line x1="40" y1="175.00" x2="860" y2="175.00" stroke="#30363d"/><text x="32" y="179.00" font-size="10" fill="#c9d1d9" text-anchor="end">500</text><line x1="40" y1="130.00" x2="860" y2="130.00" stroke="#30363d"/><text x="32" y="134.00" font-size="10" fill="#c9d1d9" text-anchor="end">1k</text><line x1="40" y1="85.00" x2="860" y2="85.00" stroke="#30363d"/><text x="32" y="89.00" font-size="10" fill="#c9d1d9" text-anchor="end">1.5k</text><line x1="40" y1="40.00" x2="860" y2="40.00" stroke="#30363d"/><text x="32" y="44.00" font-size="10" fill="#c9d1d9" text-anchor="end">2k</text>
    <line x1="40.00" y1="40" x2="40.00" y2="220" stroke="#30363d" opacity="0.5"/><line x1="118.76" y1="40" x2="118.76" y2="220" stroke="#30363d" opacity="0.5"/><line x1="197.51" y1="40" x2="197.51" y2="220" stroke="#30363d" opacity="0.5"/><line x1="276.27" y1="40" x2="276.27" y2="220" stroke="#30363d" opacity="0.5"/><line x1="355.03" y1="40" x2="355.03" y2="220" stroke="#30363d" opacity="0.5"/><line x1="433.79" y1="40" x2="433.79" y2="220" stroke="#30363d" opacity="0.5"/><line x1="512.54" y1="40" x2="512.54" y2="220" stroke="#30363d" opacity="0.5"/><line x1="591.30" y1="40" x2="591.30" y2="220" stroke="#30363d" opacity="0.5"/><line x1="670.06" y1="40" x2="670.06" y2="220" stroke="#30363d" opacity="0.5"/><line x1="748.81" y1="40" x2="748.81" y2="220" stroke="#30363d" opacity="0.5"/><line x1="827.57" y1="40" x2="827.57" y2="220" stroke="#30363d" opacity="0.5"/>
    <line x1="40" y1="220" x2="860" y2="220" stroke="#30363d"/>
    <line x1="40" y1="40"   x2="40"   y2="220" stroke="#30363d"/>
    <path d="M 40.00 219.82 L 44.63 211.81 L 49.27 211.81 L 53.90 211.81 L 58.53 171.85 L 63.16 171.58 L 67.80 164.38 L 72.43 118.93 L 77.06 119.11 L 81.69 111.10 L 86.33 110.56 L 90.96 110.56 L 95.59 110.56 L 100.23 95.35 L 104.86 95.35 L 109.49 95.35 L 114.12 94.63 L 118.76 94.54 L 123.39 94.45 L 128.02 94.09 L 132.66 94.09 L 137.29 94.09 L 141.92 94.09 L 146.55 94.09 L 151.19 94.09 L 155.82 94.09 L 160.45 94.09 L 165.08 94.09 L 169.72 91.84 L 174.35 83.65 L 178.98 83.65 L 183.62 83.47 L 188.25 83.65 L 192.88 91.03 L 197.51 91.03 L 202.15 91.03 L 206.78 91.03 L 211.41 91.03 L 216.05 91.03 L 220.68 91.03 L 225.31 91.03 L 229.94 91.03 L 234.58 91.03 L 239.21 91.03 L 243.84 90.94 L 248.47 91.03 L 253.11 90.94 L 257.74 90.94 L 262.37 90.94 L 267.01 90.94 L 271.64 90.94 L 276.27 90.94 L 280.90 90.94 L 285.54 90.94 L 290.17 90.94 L 294.80 90.94 L 299.44 90.94 L 304.07 90.94 L 308.70 90.94 L 313.33 90.94 L 317.97 90.94 L 322.60 90.94 L 327.23 90.94 L 331.86 90.94 L 336.50 90.94 L 341.13 90.94 L 345.76 90.94 L 350.40 90.94 L 355.03 90.94 L 359.66 90.94 L 364.29 90.94 L 368.93 123.79 L 373.56 123.79 L 378.19 123.79 L 382.82 123.79 L 387.46 123.79 L 392.09 123.79 L 396.72 123.79 L 401.36 123.79 L 405.99 123.79 L 410.62 123.79 L 415.25 123.79 L 419.89 123.79 L 424.52 123.79 L 429.15 123.79 L 433.79 123.79 L 438.42 123.79 L 443.05 123.79 L 447.68 123.79 L 452.32 123.79 L 456.95 123.79 L 461.58 123.79 L 466.21 123.79 L 470.85 123.79 L 475.48 123.79 L 480.11 123.79 L 484.75 123.79 L 489.38 123.79 L 494.01 123.79 L 498.64 123.79 L 503.28 123.79 L 507.91 123.79 L 512.54 123.79 L 517.18 123.79 L 521.81 123.79 L 526.44 123.79 L 531.07 123.79 L 535.71 123.79 L 540.34 123.79 L 544.97 123.79 L 549.60 123.79 L 554.24 123.79 L 558.87 123.79 L 563.50 123.79 L 568.14 123.79 L 572.77 123.79 L 577.40 123.79 L 582.03 123.79 L 586.67 123.79 L 591.30 123.79 L 595.93 123.79 L 600.56 123.79 L 605.20 123.79 L 609.83 123.79 L 614.46 123.79 L 619.10 123.79 L 623.73 123.79 L 628.36 123.79 L 632.99 123.79 L 637.63 123.79 L 642.26 123.79 L 646.89 123.79 L 651.53 123.79 L 656.16 123.79 L 660.79 123.79 L 665.42 123.79 L 670.06 123.79 L 674.69 123.79 L 679.32 123.79 L 683.95 123.79 L 688.59 123.79 L 693.22 123.79 L 697.85 123.79 L 702.49 123.79 L 707.12 123.79 L 711.75 123.79 L 716.38 123.79 L 721.02 123.79 L 725.65 115.42 L 730.28 111.64 L 734.92 107.86 L 739.55 104.08 L 744.18 100.30 L 748.81 95.98 L 753.45 95.98 L 758.08 95.98 L 762.71 95.98 L 767.34 85.72 L 771.98 85.72 L 776.61 85.72 L 781.24 85.72 L 785.88 85.72 L 790.51 85.72 L 795.14 85.72 L 799.77 85.72 L 804.41 85.72 L 809.04 85.72 L 813.67 85.72 L 818.31 85.72 L 822.94 85.72 L 827.57 85.72 L 832.20 85.72 L 836.84 85.72 L 841.47 85.72 L 846.10 85.72 L 850.73 85.72 L 855.37 85.72 L 860.00 85.72" fill="none" stroke="#3fb950" stroke-width="2"/>
    <circle cx="860.00" cy="85.72" r="3" fill="#3fb950"/>
    <text x="40.00" y="235.00" font-size="9" fill="#c9d1d9" text-anchor="middle" transform="rotate(-45 40.00 235.00)">09.08.2025</text><text x="118.76" y="235.00" font-size="9" fill="#c9d1d9" text-anchor="middle" transform="rotate(-45 118.76 235.00)">13.08.2025</text><text x="197.51" y="235.00" font-size="9" fill="#c9d1d9" text-anchor="middle" transform="rotate(-45 197.51 235.00)">21.08.2025</text><text x="276.27" y="235.00" font-size="9" fill="#c9d1d9" text-anchor="middle" transform="rotate(-45 276.27 235.00)">01.09.2025</text><text x="355.03" y="235.00" font-size="9" fill="#c9d1d9" text-anchor="middle" transform="rotate(-45 355.03 235.00)">18.09.2025</text><text x="433.79" y="235.00" font-size="9" fill="#c9d1d9" text-anchor="middle" transform="rotate(-45 433.79 235.00)">03.10.2025</text><text x="512.54" y="235.00" font-size="9" fill="#c9d1d9" text-anchor="middle" transform="rotate(-45 512.54 235.00)">20.10.2025</text><text x="591.30" y="235.00" font-size="9" fill="#c9d1d9" text-anchor="middle" transform="rotate(-45 591.30 235.00)">06.11.2025</text><text x="670.06" y="235.00" font-size="9" fill="#c9d1d9" text-anchor="middle" transform="rotate(-45 670.06 235.00)">23.11.2025</text><text x="748.81" y="235.00" font-size="9" fill="#c9d1d9" text-anchor="middle" transform="rotate(-45 748.81 235.00)">04.12.2025</text><text x="827.57" y="235.00" font-size="9" fill="#c9d1d9" text-anchor="middle" transform="rotate(-45 827.57 235.00)">20.12.2025</text>
  </g>
</svg>