<svg xmlns="http://www.w3.org/2000/svg" width="900" height="290" style="font-family: -apple-system, BlinkMacSystemFont, 'Segoe UI', Helvetica, Arial, sans-serif;">
  <rect width="100%" height="100%" fill="#0d1117"/>
  <g>
    <line x1="40" y1="220.00" x2="860" y2="220.00" stroke="#30363d"/><text x="32" y="224.00" font-size="10" fill="#c9d1d9" text-anchor="end">0</text><line x1="40" y1="175.00" x2="860" y2="175.00" stroke="#30363d"/><text x="32" y="179.00" font-size="10" fill="#c9d1d9" text-anchor="end">500</text><line x1="40" y1="130.00" x2="860" y2="130.00" stroke="#30363d"/><text x="32" y="134.00" font-size="10" fill="#c9d1d9" text-anchor="end">1k</text><line x1="40" y1="85.00" x2="860" y2="85.00" stroke="#30363d"/><text x="32" y="89.00" font-size="10" fill="#c9d1d9" text-anchor="end">1.5k</text><line x1="40" y1="40.00" x2="860" y2="40.00" stroke="#30363d"/><text x="32" y="44.00" font-size="10" fill="#c9d1d9" text-anchor="end">2k</text>
    <line x1="40.00" y1="40" x2="40.00" y2="220" stroke="#30363d" opacity="0.5"/><line x1="124.10" y1="40" x2="124.10" y2="220" stroke="#30363d" opacity="0.5"/><line x1="208.21" y1="40" x2="208.21" y2="220" stroke="#30363d" opacity="0.5"/><line x1="292.31" y1="40" x2="292.31" y2="220" stroke="#30363d" opacity="0.5"/><line x1="376.41" y1="40" x2="376.41" y2="220" stroke="#30363d" opacity="0.5"/><line x1="460.51" y1="40" x2="460.51" y2="220" stroke="#30363d" opacity="0.5"/><line x1="544.62" y1="40" x2="544.62" y2="220" stroke="#30363d" opacity="0.5"/><line x1="628.72" y1="40" x2="628.72" y2="220" stroke="#30363d" opacity="0.5"/><line x1="712.82" y1="40" x2="712.82" y2="220" stroke="#30363d" opacity="0.5"/><line x1="796.92" y1="40" x2="796.92" y2="220" stroke="#30363d" opacity="0.5"/>
    <line x1="40" y1="220" x2="860" y2="220" stroke="#30363d"/>
    <line x1="40" y1="40"   x2="40"   y2="220" stroke="#30363d"/>
    <path d="M 40.00 219.82 L 61.03 211.81 L 82.05 211.81 L 103.08 211.81 L 124.10 171.85 L 145.13 171.58 L 166.15 164.38 L 187.18 118.93 L 208.21 119.11 L 229.23 111.10 L 250.26 110.56 L 271.28 110.56 L 292.31 110.56 L 313.33 95.35 L 334.36 95.35 L 355.38 95.35 L 376.41 94.63 L 397.44 94.54 L 418.46 94.45 L 439.49 94.09 L 460.51 94.09 L 481.54 94.09 L 502.56 94.09 L 523.59 94.09 L 544.62 94.09 L 565.64 94.09 L 586.67 94.09 L 607.69 94.09 L 628.72 91.84 L 649.74 83.65 L 670.77 83.65 L 691.79 83.47 L 712.82 83.65 L 733.85 91.03 L 754.87 91.03 L 775.90 91.03 L 796.92 91.03 L 817.95 91.03 L 838.97 91.03 L 860.00 91.03" fill="none" stroke="#3fb950" stroke-width="2"/>
    <circle cx="860.00" cy="91.03" r="3" fill="#3fb950"/>
    <text x="40.00" y="235.00" font-size="9" fill="#c9d1d9" text-anchor="middle" transform="rotate(-45 40.00 235.00)">09.08.2025</text><text x="124.10" y="235.00" font-size="9" fill="#c9d1d9" text-anchor="middle" transform="rotate(-45 124.10 235.00)">09.08.2025</text><text x="208.21" y="235.00" font-size="9" fill="#c9d1d9" text-anchor="middle" transform="rotate(-45 208.21 235.00)">12.08.2025</text><text x="292.31" y="235.00" font-size="9" fill="#c9d1d9" text-anchor="middle" transform="rotate(-45 292.31 235.00)">13.08.2025</text><text x="376.41" y="235.00" font-size="9" fill="#c9d1d9" text-anchor="middle" transform="rotate(-45 376.41 235.00)">13.08.2025</text><text x="460.51" y="235.00" font-size="9" fill="#c9d1d9" text-anchor="middle" transform="rotate(-45 460.51 235.00)">14.08.2025</text><text x="544.62" y="235.00" font-size="9" fill="#c9d1d9" text-anchor="middle" transform="rotate(-45 544.62 235.00)">18.08.2025</text><text x="628.72" y="235.00" font-size="9" fill="#c9d1d9" text-anchor="middle" transform="rotate(-45 628.72 235.00)">21.08.2025</text><text x="712.82" y="235.00" font-size="9" fill="#c9d1d9" text-anchor="middle" transform="rotate(-45 712.82 235.00)">21.08.2025</text><text x="796.92" y="235.00" font-size="9" fill="#c9d1d9" text-anchor="middle" transform="rotate(-45 796.92 235.00)">22.08.2025</text>
  </g>
</svg>