<svg xmlns="http://www.w3.org/2000/svg" width="900" height="290" style="font-family: -apple-system, BlinkMacSystemFont, 'Segoe UI', Helvetica, Arial, sans-serif;">
  <rect width="100%" height="100%" fill="white"/>
  <g>
    <line x1="40" y1="220.00" x2="860" y2="220.00" stroke="#e5e7eb"/><text x="32" y="224.00" font-size="10" fill="#111827" text-anchor="end">0</text><line x1="40" y1="175.00" x2="860" y2="175.00" stroke="#e5e7eb"/><text x="32" y="179.00" font-size="10" fill="#111827" text-anchor="end">500</text><line x1="40" y1="130.00" x2="860" y2="130.00" stroke="#e5e7eb"/><text x="32" y="134.00" font-size="10" fill="#111827" text-anchor="end">1k</text><line x1="40" y1="85.00" x2="860" y2="85.00" stroke="#e5e7eb"/><text x="32" y="89.00" font-size="10" fill="#111827" text-anchor="end">1.5k</text><line x1="40" y1="40.00" x2="860" y2="40.00" stroke="#e5e7eb"/><text x="32" y="44.00" font-size="10" fill="#111827" text-anchor="end">2k</text>
    <line x1="40.00" y1="40" x2="40.00" y2="220" stroke="#e5e7eb" opacity="0.5"/><line x1="119.61" y1="40" x2="119.61" y2="220" stroke="#e5e7eb" opacity="0.5"/><line x1="199.22" y1="40" x2="199.22" y2="220" stroke="#e5e7eb" opacity="0.5"/><line x1="278.83" y1="40" x2="278.83" y2="220" stroke="#e5e7eb" opacity="0.5"/><line x1="358.45" y1="40" x2="358.45" y2="220" stroke="#e5e7eb" opacity="0.5"/><line x1="438.06" y1="40" x2="438.06" y2="220" stroke="#e5e7eb" opacity="0.5"/><line x1="517.67" y1="40" x2="517.67" y2="220" stroke="#e5e7eb" opacity="0.5"/><line x1="597.28" y1="40" x2="597.28" y2="220" stroke="#e5e7eb" opacity="0.5"/><line x1="676.89" y1="40" x2="676.89" y2="220" stroke="#e5e7eb" opacity="0.5"/><line x1="756.50" y1="40" x2="756.50" y2="220" stroke="#e5e7eb" opacity="0.5"/><line x1="836.12" y1="40" x2="836.12" y2="220" stroke="#e5e7eb" opacity="0.5"/>
    <line x1="40" y1="220" x2="860" y2="220" stroke="#9ca3af"/>
    <line x1="40" y1="40"   x2="40"   y2="220" stroke="#9ca3af"/>
    <path d="M 40.00 219.82 L 47.96 211.81 L 55.92 211.81 L 63.88 211.81 L 71.84 171.85 L 79.81 171.58 L 87.77 164.38 L 95.73 118.93 L 103.69 119.11 L 111.65 111.10 L 119.61 110.56 L 127.57 110.56 L 135.53 110.56 L 143.50 95.35 L 151.46 95.35 L 159.42 95.35 L 167.38 94.63 L 175.34 94.54 L 183.30 94.45 L 191.26 94.09 L 199.22 94.09 L 207.18 94.09 L 215.15 94.09 L 223.11 94.09 L 231.07 94.09 L 239.03 94.09 L 246.99 94.09 L 254.95 94.09 L 262.91 91.84 L 270.87 83.65 L 278.83 83.65 L 286.80 83.47 L 294.76 83.65 L 302.72 91.03 L 310.68 91.03 L 318.64 91.03 L 326.60 91.03 L 334.56 91.03 L 342.52 91.03 L 350.49 91.03 L 358.45 91.03 L 366.41 91.03 L 374.37 91.03 L 382.33 91.03 L 390.29 90.94 L 398.25 91.03 L 406.21 90.94 L 414.17 90.94 L 422.14 90.94 L 430.10 90.94 L 438.06 90.94 L 446.02 90.94 L 453.98 90.94 L 461.94 90.94 L 469.90 90.94 L 477.86 90.94 L 485.83 90.94 L 493.79 90.94 L 501.75 90.94 L 509.71 90.94 L 517.67 90.94 L 525.63 90.94 L 533.59 90.94 L 541.55 90.94 L 549.51 90.94 L 557.48 90.94 L 565.44 90.94 L 573.40 90.94 L 581.36 90.94 L 589.32 90.94 L 597.28 90.94 L 605.24 123.79 L 613.20 123.79 L 621.17 123.79 L 629.13 123.79 L 637.09 123.79 L 645.05 123.79 L 653.01 123.79 L 660.97 123.79 L 668.93 123.79 L 676.89 123.79 L 684.85 123.79 L 692.82 123.79 L 700.78 123.79 L 708.74 123.79 L 716.70 123.79 L 724.66 123.79 L 732.62 123.79 L 740.58 123.79 L 748.54 123.79 L 756.50 123.79 L 764.47 123.79 L 772.43 123.79 L 780.39 123.79 L 788.35 123.79 L 796.31 123.79 L 804.27 123.79 L 812.23 123.79 L 820.19 123.79 L 828.16 123.79 L 836.12 123.79 L 844.08 123.79 L 852.04 123.79 L 860.00 123.79" fill="none" stroke="#111827" stroke-width="2"/>
    <circle cx="860.00" cy="123.79" r="3" fill="#111827"/>
    <text x="40.00" y="235.00" font-size="9" fill="#111827" text-anchor="middle" transform="rotate(-45 40.00 235.00)">09.08.2025</text><text x="119.61" y="235.00" font-size="9" fill="#111827" text-anchor="middle" transform="rotate(-45 119.61 235.00)">13.08.2025</text><text x="199.22" y="235.00" font-size="9" fill="#111827" text-anchor="middle" transform="rotate(-45 199.22 235.00)">14.08.2025</text><text x="278.83" y="235.00" font-size="9" fill="#111827" text-anchor="middle" transform="rotate(-45 278.83 235.00)">21.08.2025</text><text x="358.45" y="235.00" font-size="9" fill="#111827" text-anchor="middle" transform="rotate(-45 358.45 235.00)">26.08.2025</text><text x="438.06" y="235.00" font-size="9" fill="#111827" text-anchor="middle" transform="rotate(-45 438.06 235.00)">31.08.2025</text><text x="517.67" y="235.00" font-size="9" fill="#111827" text-anchor="middle" transform="rotate(-45 517.67 235.00)">10.09.2025</text><text x="597.28" y="235.00" font-size="9" fill="#111827" text-anchor="middle" transform="rotate(-45 597.28 235.00)">20.09.2025</text><text x="676.89" y="235.00" font-size="9" fill="#111827" text-anchor="middle" transform="rotate(-45 676.89 235.00)">28.09.2025</text><text x="756.50" y="235.00" font-size="9" fill="#111827" text-anchor="middle" transform="rotate(-45 756.50 235.00)">08.10.2025</text><text x="836.12" y="235.00" font-size="9" fill="#111827" text-anchor="middle" transform="rotate(-45 836.12 235.00)">18.10.2025</text>
  </g>
</svg>