<svg xmlns="http://www.w3.org/2000/svg" width="900" height="290" style="font-family: -apple-system, BlinkMacSystemFont, 'Segoe UI', Helvetica, Arial, sans-serif;">
  <rect width="100%" height="100%" fill="#0d1117"/>
  <g>
    <line x1="40" y1="220.00" x2="860" y2="220.00" stroke="#30363d"/><text x="32" y="224.00" font-size="10" fill="#c9d1d9" text-anchor="end">0</text><line x1="40" y1="175.00" x2="860" y2="175.00" stroke="#30363d"/><text x="32" y="179.00" font-size="10" fill="#c9d1d9" text-anchor="end">500</text><line x1="40" y1="130.00" x2="860" y2="130.00" stroke="#30363d"/><text x="32" y="134.00" font-size="10" fill="#c9d1d9" text-anchor="end">1k</text><line x1="40" y1="85.00" x2="860" y2="85.00" stroke="#30363d"/><text x="32" y="89.00" font-size="10" fill="#c9d1d9" text-anchor="end">1.5k</text><line x1="40" y1="40.00" x2="860" y2="40.00" stroke="#30363d"/><text x="32" y="44.00" font-size="10" fill="#c9d1d9" text-anchor="end">2k</text>
    <line x1="40.00" y1="40" x2="40.00" y2="220" stroke="#30363d" opacity="0.5"/><line x1="120.85" y1="40" x2="120.85" y2="220" stroke="#30363d" opacity="0.5"/><line x1="201.69" y1="40" x2="201.69" y2="220" stroke="#30363d" opacity="0.5"/><line x1="282.54" y1="40" x2="282.54" y2="220" stroke="#30363d" opacity="0.5"/><line x1="363.38" y1="40" x2="363.38" y2="220" stroke="#30363d" opacity="0.5"/><line x1="444.23" y1="40" x2="444.23" y2="220" stroke="#30363d" opacity="0.5"/><line x1="525.07" y1="40" x2="525.07" y2="220" stroke="#30363d" opacity="0.5"/><line x1="605.92" y1="40" x2="605.92" y2="220" stroke="#30363d" opacity="0.5"/><line x1="686.76" y1="40" x2="686.76" y2="220" stroke="#30363d" opacity="0.5"/><line x1="767.61" y1="40" x2="767.61" y2="220" stroke="#30363d" opacity="0.5"/><line x1="848.45" y1="40" x2="848.45" y2="220" stroke="#30363d" opacity="0.5"/>
    <line x1="40" y1="220" x2="860" y2="220" stroke="#30363d"/>
    <line x1="40" y1="40"   x2="40"   y2="220" stroke="#30363d"/>
    <path d="M 40.00 219.82 L 45.77 211.81 L 51.55 211.81 L 57.32 211.81 L 63.10 171.85 L 68.87 171.58 L 74.65 164.38 L 80.42 118.93 L 86.20 119.11 L 91.97 111.10 L 97.75 110.56 L 103.52 110.56 L 109.30 110.56 L 115.07 95.35 L 120.85 95.35 L 126.62 95.35 L 132.39 94.63 L 138.17 94.54 L 143.94 94.45 L 149.72 94.09 L 155.49 94.09 L 161.27 94.09 L 167.04 94.09 L 172.82 94.09 L 178.59 94.09 L 184.37 94.09 L 190.14 94.09 L 195.92 94.09 L 201.69 91.84 L 207.46 83.65 L 213.24 83.65 L 219.01 83.47 L 224.79 83.65 L 230.56 91.03 L 236.34 91.03 L 242.11 91.03 L 247.89 91.03 L 253.66 91.03 L 259.44 91.03 L 265.21 91.03 L 270.99 91.03 L 276.76 91.03 L 282.54 91.03 L 288.31 91.03 L 294.08 90.94 L 299.86 91.03 L 305.63 90.94 L 311.41 90.94 L 317.18 90.94 L 322.96 90.94 L 328.73 90.94 L 334.51 90.94 L 340.28 90.94 L 346.06 90.94 L 351.83 90.94 L 357.61 90.94 L 363.38 90.94 L 369.15 90.94 L 374.93 90.94 L 380.70 90.94 L 386.48 90.94 L 392.25 90.94 L 398.03 90.94 L 403.80 90.94 L 409.58 90.94 L 415.35 90.94 L 421.13 90.94 L 426.90 90.94 L 432.68 90.94 L 438.45 90.94 L 444.23 90.94 L 450.00 123.79 L 455.77 123.79 L 461.55 123.79 L 467.32 123.79 L 473.10 123.79 L 478.87 123.79 L 484.65 123.79 L 490.42 123.79 L 496.20 123.79 L 501.97 123.79 L 507.75 123.79 L 513.52 123.79 L 519.30 123.79 L 525.07 123.79 L 530.85 123.79 L 536.62 123.79 L 542.39 123.79 L 548.17 123.79 L 553.94 123.79 L 559.72 123.79 L 565.49 123.79 L 571.27 123.79 L 577.04 123.79 L 582.82 123.79 L 588.59 123.79 L 594.37 123.79 L 600.14 123.79 L 605.92 123.79 L 611.69 123.79 L 617.46 123.79 L 623.24 123.79 L 629.01 123.79 L 634.79 123.79 L 640.56 123.79 L 646.34 123.79 L 652.11 123.79 L 657.89 123.79 L 663.66 123.79 L 669.44 123.79 L 675.21 123.79 L 680.99 123.79 L 686.76 123.79 L 692.54 123.79 L 698.31 123.79 L 704.08 123.79 L 709.86 123.79 L 715.63 123.79 L 721.41 123.79 L 727.18 123.79 L 732.96 123.79 L 738.73 123.79 L 744.51 123.79 L 750.28 123.79 L 756.06 123.79 L 761.83 123.79 L 767.61 123.79 L 773.38 123.79 L 779.15 123.79 L 784.93 123.79 L 790.70 123.79 L 796.48 123.79 L 802.25 123.79 L 808.03 123.79 L 813.80 123.79 L 819.58 123.79 L 825.35 123.79 L 831.13 123.79 L 836.90 123.79 L 842.68 123.79 L 848.45 123.79 L 854.23 123.79 L 860.00 123.79" fill="none" stroke="#3fb950" stroke-width="2"/>
    <circle cx="860.00" cy="123.79" r="3" fill="#3fb950"/>
    <text x="40.00" y="235.00" font-size="9" fill="#c9d1d9" text-anchor="middle" transform="rotate(-45 40.00 235.00)">09.08.2025</text><text x="120.85" y="235.00" font-size="9" fill="#c9d1d9" text-anchor="middle" transform="rotate(-45 120.85 235.00)">13.08.2025</text><text x="201.69" y="235.00" font-size="9" fill="#c9d1d9" text-anchor="middle" transform="rotate(-45 201.69 235.00)">21.08.2025</text><text x="282.54" y="235.00" font-size="9" fill="#c9d1d9" text-anchor="middle" transform="rotate(-45 282.54 235.00)">28.08.2025</text><text x="363.38" y="235.00" font-size="9" fill="#c9d1d9" text-anchor="middle" transform="rotate(-45 363.38 235.00)">06.09.2025</text><text x="444.23" y="235.00" font-size="9" fill="#c9d1d9" text-anchor="middle" transform="rotate(-45 444.23 235.00)">20.09.2025</text><text x="525.07" y="235.00" font-size="9" fill="#c9d1d9" text-anchor="middle" transform="rotate(-45 525.07 235.00)">02.10.2025</text><text x="605.92" y="235.00" font-size="9" fill="#c9d1d9" text-anchor="middle" transform="rotate(-45 605.92 235.00)">16.10.2025</text><text x="686.76" y="235.00" font-size="9" fill="#c9d1d9" text-anchor="middle" transform="rotate(-45 686.76 235.00)">30.10.2025</text><text x="767.61" y="235.00" font-size="9" fill="#c9d1d9" text-anchor="middle" transform="rotate(-45 767.61 235.00)">13.11.2025</text><text x="848.45" y="235.00" font-size="9" fill="#c9d1d9" text-anchor="middle" transform="rotate(-45 848.45 235.00)">27.11.2025</text>
  </g>
</svg>