<svg xmlns="http://www.w3.org/2000/svg" width="900" height="290" style="font-family: -apple-system, BlinkMacSystemFont, 'Segoe UI', Helvetica, Arial, sans-serif;">
  <rect width="100%" height="100%" fill="white"/>
  <g>
    <line x1="40" y1="220.00" x2="860" y2="220.00" stroke="#e5e7eb"/><text x="32" y="224.00" font-size="10" fill="#111827" text-anchor="end">0</text><line x1="40" y1="175.00" x2="860" y2="175.00" stroke="#e5e7eb"/><text x="32" y="179.00" font-size="10" fill="#111827" text-anchor="end">500</text><line x1="40" y1="130.00" x2="860" y2="130.00" stroke="#e5e7eb"/><text x="32" y="134.00" font-size="10" fill="#111827" text-anchor="end">1k</text><line x1="40" y1="85.00" x2="860" y2="85.00" stroke="#e5e7eb"/><text x="32" y="89.00" font-size="10" fill="#111827" text-anchor="end">1.5k</text><line x1="40" y1="40.00" x2="860" y2="40.00" stroke="#e5e7eb"/><text x="32" y="44.00" font-size="10" fill="#111827" text-anchor="end">2k</text>
    <line x1="40.00" y1="40" x2="40.00" y2="220" stroke="#e5e7eb" opacity="0.5"/><line x1="118.34" y1="40" x2="118.34" y2="220" stroke="#e5e7eb" opacity="0.5"/><line x1="196.69" y1="40" x2="196.69" y2="220" stroke="#e5e7eb" opacity="0.5"/><line x1="275.03" y1="40" x2="275.03" y2="220" stroke="#e5e7eb" opacity="0.5"/><line x1="353.38" y1="40" x2="353.38" y2="220" stroke="#e5e7eb" opacity="0.5"/><line x1="431.72" y1="40" x2="431.72" y2="220" stroke="#e5e7eb" opacity="0.5"/><line x1="510.06" y1="40" x2="510.06" y2="220" stroke="#e5e7eb" opacity="0.5"/><line x1="588.41" y1="40" x2="588.41" y2="220" stroke="#e5e7eb" opacity="0.5"/><line x1="666.75" y1="40" x2="666.75" y2="220" stroke="#e5e7eb" opacity="0.5"/><line x1="745.10" y1="40" x2="745.10" y2="220" stroke="#e5e7eb" opacity="0.5"/><line x1="823.44" y1="40" x2="823.44" y2="220" stroke="#e5e7eb" opacity="0.5"/>
    <line x1="40" y1="220" x2="860" y2="220" stroke="#9ca3af"/>
    <line x1="40" y1="40"   x2="40"   y2="220" stroke="#9ca3af"/>
    <path d="M 40.00 219.82 L 45.22 211.81 L 50.45 211.81 L 55.67 211.81 L 60.89 171.85 L 66.11 171.58 L 71.34 164.38 L 76.56 118.93 L 81.78 119.11 L 87.01 111.10 L 92.23 110.56 L 97.45 110.56 L 102.68 110.56 L 107.90 95.35 L 113.12 95.35 L 118.34 95.35 L 123.57 94.63 L 128.79 94.54 L 134.01 94.45 L 139.24 94.09 L 144.46 94.09 L 149.68 94.09 L 154.90 94.09 L 160.13 94.09 L 165.35 94.09 L 170.57 94.09 L 175.80 94.09 L 181.02 94.09 L 186.24 91.84 L 191.46 83.65 L 196.69 83.65 L 201.91 83.47 L 207.13 83.65 L 212.36 91.03 L 217.58 91.03 L 222.80 91.03 L 228.03 91.03 L 233.25 91.03 L 238.47 91.03 L 243.69 91.03 L 248.92 91.03 L 254.14 91.03 L 259.36 91.03 L 264.59 91.03 L 269.81 90.94 L 275.03 91.03 L 280.25 90.94 L 285.48 90.94 L 290.70 90.94 L 295.92 90.94 L 301.15 90.94 L 306.37 90.94 L 311.59 90.94 L 316.82 90.94 L 322.04 90.94 L 327.26 90.94 L 332.48 90.94 L 337.71 90.94 L 342.93 90.94 L 348.15 90.94 L 353.38 90.94 L 358.60 90.94 L 363.82 90.94 L 369.04 90.94 L 374.27 90.94 L 379.49 90.94 L 384.71 90.94 L 389.94 90.94 L 395.16 90.94 L 400.38 90.94 L 405.61 90.94 L 410.83 123.79 L 416.05 123.79 L 421.27 123.79 L 426.50 123.79 L 431.72 123.79 L 436.94 123.79 L 442.17 123.79 L 447.39 123.79 L 452.61 123.79 L 457.83 123.79 L 463.06 123.79 L 468.28 123.79 L 473.50 123.79 L 478.73 123.79 L 483.95 123.79 L 489.17 123.79 L 494.39 123.79 L 499.62 123.79 L 504.84 123.79 L 510.06 123.79 L 515.29 123.79 L 520.51 123.79 L 525.73 123.79 L 530.96 123.79 L 536.18 123.79 L 541.40 123.79 L 546.62 123.79 L 551.85 123.79 L 557.07 123.79 L 562.29 123.79 L 567.52 123.79 L 572.74 123.79 L 577.96 123.79 L 583.18 123.79 L 588.41 123.79 L 593.63 123.79 L 598.85 123.79 L 604.08 123.79 L 609.30 123.79 L 614.52 123.79 L 619.75 123.79 L 624.97 123.79 L 630.19 123.79 L 635.41 123.79 L 640.64 123.79 L 645.86 123.79 L 651.08 123.79 L 656.31 123.79 L 661.53 123.79 L 666.75 123.79 L 671.97 123.79 L 677.20 123.79 L 682.42 123.79 L 687.64 123.79 L 692.87 123.79 L 698.09 123.79 L 703.31 123.79 L 708.54 123.79 L 713.76 123.79 L 718.98 123.79 L 724.20 123.79 L 729.43 123.79 L 734.65 123.79 L 739.87 123.79 L 745.10 123.79 L 750.32 123.79 L 755.54 123.79 L 760.76 123.79 L 765.99 123.79 L 771.21 123.79 L 776.43 123.79 L 781.66 123.79 L 786.88 123.79 L 792.10 123.79 L 797.32 123.79 L 802.55 123.79 L 807.77 123.79 L 812.99 115.42 L 818.22 111.64 L 823.44 107.86 L 828.66 104.08 L 833.89 100.30 L 839.11 95.98 L 844.33 95.98 L 849.55 95.98 L 854.78 95.98 L 860.00 85.72" fill="none" stroke="#111827" stroke-width="2"/>
    <circle cx="860.00" cy="85.72" r="3" fill="#111827"/>
    <text x="40.00" y="235.00" font-size="9" fill="#111827" text-anchor="middle" transform="rotate(-45 40.00 235.00)">09.08.2025</text><text x="118.34" y="235.00" font-size="9" fill="#111827" text-anchor="middle" transform="rotate(-45 118.34 235.00)">13.08.2025</text><text x="196.69" y="235.00" font-size="9" fill="#111827" text-anchor="middle" transform="rotate(-45 196.69 235.00)">21.08.2025</text><text x="275.03" y="235.00" font-size="9" fill="#111827" text-anchor="middle" transform="rotate(-45 275.03 235.00)">28.08.2025</text><text x="353.38" y="235.00" font-size="9" fill="#111827" text-anchor="middle" transform="rotate(-45 353.38 235.00)">10.09.2025</text><text x="431.72" y="235.00" font-size="9" fill="#111827" text-anchor="middle" transform="rotate(-45 431.72 235.00)">23.09.2025</text><text x="510.06" y="235.00" font-size="9" fill="#111827" text-anchor="middle" transform="rotate(-45 510.06 235.00)">08.10.2025</text><text x="588.41" y="235.00" font-size="9" fill="#111827" text-anchor="middle" transform="rotate(-45 588.41 235.00)">23.10.2025</text><text x="666.75" y="235.00" font-size="9" fill="#111827" text-anchor="middle" transform="rotate(-45 666.75 235.00)">07.11.2025</text><text x="745.10" y="235.00" font-size="9" fill="#111827" text-anchor="middle" transform="rotate(-45 745.10 235.00)">22.11.2025</text><text x="823.44" y="235.00" font-size="9" fill="#111827" text-anchor="middle" transform="rotate(-45 823.44 235.00)">04.12.2025</text>
  </g>
</svg>