<svg xmlns="http://www.w3.org/2000/svg" width="900" height="290" style="font-family: -apple-system, BlinkMacSystemFont, 'Segoe UI', Helvetica, Arial, sans-serif;">
  <rect width="100%" height="100%" fill="white"/>
  <g>
    <line x1="40" y1="220.00" x2="860" y2="220.00" stroke="#e5e7eb"/><text x="32" y="224.00" font-size="10" fill="#111827" text-anchor="end">0</text><line x1="40" y1="175.00" x2="860" y2="175.00" stroke="#e5e7eb"/><text x="32" y="179.00" font-size="10" fill="#111827" text-anchor="end">500</text><line x1="40" y1="130.00" x2="860" y2="130.00" stroke="#e5e7eb"/><text x="32" y="134.00" font-size="10" fill="#111827" text-anchor="end">1k</text><line x1="40" y1="85.00" x2="860" y2="85.00" stroke="#e5e7eb"/><text x="32" y="89.00" font-size="10" fill="#111827" text-anchor="end">1.5k</text><line x1="40" y1="40.00" x2="860" y2="40.00" stroke="#e5e7eb"/><text x="32" y="44.00" font-size="10" fill="#111827" text-anchor="end">2k</text>
    <line x1="40.00" y1="40" x2="40.00" y2="220" stroke="#e5e7eb" opacity="0.5"/><line x1="122.00" y1="40" x2="122.00" y2="220" stroke="#e5e7eb" opacity="0.5"/><line x1="204.00" y1="40" x2="204.00" y2="220" stroke="#e5e7eb" opacity="0.5"/><line x1="286.00" y1="40" x2="286.00" y2="220" stroke="#e5e7eb" opacity="0.5"/><line x1="368.00" y1="40" x2="368.00" y2="220" stroke="#e5e7eb" opacity="0.5"/><line x1="450.00" y1="40" x2="450.00" y2="220" stroke="#e5e7eb" opacity="0.5"/><line x1="532.00" y1="40" x2="532.00" y2="220" stroke="#e5e7eb" opacity="0.5"/><line x1="614.00" y1="40" x2="614.00" y2="220" stroke="#e5e7eb" opacity="0.5"/><line x1="696.00" y1="40" x2="696.00" y2="220" stroke="#e5e7eb" opacity="0.5"/><line x1="778.00" y1="40" x2="778.00" y2="220" stroke="#e5e7eb" opacity="0.5"/><line x1="860.00" y1="40" x2="860.00" y2="220" stroke="#e5e7eb" opacity="0.5"/>
    <line x1="40" y1="220" x2="860" y2="220" stroke="#9ca3af"/>
    <line x1="40" y1="40"   x2="40"   y2="220" stroke="#9ca3af"/>
    <path d="M 40.00 219.82 L 46.31 211.81 L 52.62 211.81 L 58.92 211.81 L 65.23 171.85 L 71.54 171.58 L 77.85 164.38 L 84.15 118.93 L 90.46 119.11 L 96.77 111.10 L 103.08 110.56 L 109.38 110.56 L 115.69 110.56 L 122.00 95.35 L 128.31 95.35 L 134.62 95.35 L 140.92 94.63 L 147.23 94.54 L 153.54 94.45 L 159.85 94.09 L 166.15 94.09 L 172.46 94.09 L 178.77 94.09 L 185.08 94.09 L 191.38 94.09 L 197.69 94.09 L 204.00 94.09 L 210.31 94.09 L 216.62 91.84 L 222.92 83.65 L 229.23 83.65 L 235.54 83.47 L 241.85 83.65 L 248.15 91.03 L 254.46 91.03 L 260.77 91.03 L 267.08 91.03 L 273.38 91.03 L 279.69 91.03 L 286.00 91.03 L 292.31 91.03 L 298.62 91.03 L 304.92 91.03 L 311.23 91.03 L 317.54 90.94 L 323.85 91.03 L 330.15 90.94 L 336.46 90.94 L 342.77 90.94 L 349.08 90.94 L 355.38 90.94 L 361.69 90.94 L 368.00 90.94 L 374.31 90.94 L 380.62 90.94 L 386.92 90.94 L 393.23 90.94 L 399.54 90.94 L 405.85 90.94 L 412.15 90.94 L 418.46 90.94 L 424.77 90.94 L 431.08 90.94 L 437.38 90.94 L 443.69 90.94 L 450.00 90.94 L 456.31 90.94 L 462.62 90.94 L 468.92 90.94 L 475.23 90.94 L 481.54 90.94 L 487.85 123.79 L 494.15 123.79 L 500.46 123.79 L 506.77 123.79 L 513.08 123.79 L 519.38 123.79 L 525.69 123.79 L 532.00 123.79 L 538.31 123.79 L 544.62 123.79 L 550.92 123.79 L 557.23 123.79 L 563.54 123.79 L 569.85 123.79 L 576.15 123.79 L 582.46 123.79 L 588.77 123.79 L 595.08 123.79 L 601.38 123.79 L 607.69 123.79 L 614.00 123.79 L 620.31 123.79 L 626.62 123.79 L 632.92 123.79 L 639.23 123.79 L 645.54 123.79 L 651.85 123.79 L 658.15 123.79 L 664.46 123.79 L 670.77 123.79 L 677.08 123.79 L 683.38 123.79 L 689.69 123.79 L 696.00 123.79 L 702.31 123.79 L 708.62 123.79 L 714.92 123.79 L 721.23 123.79 L 727.54 123.79 L 733.85 123.79 L 740.15 123.79 L 746.46 123.79 L 752.77 123.79 L 759.08 123.79 L 765.38 123.79 L 771.69 123.79 L 778.00 123.79 L 784.31 123.79 L 790.62 123.79 L 796.92 123.79 L 803.23 123.79 L 809.54 123.79 L 815.85 123.79 L 822.15 123.79 L 828.46 123.79 L 834.77 123.79 L 841.08 123.79 L 847.38 123.79 L 853.69 123.79 L 860.00 123.79" fill="none" stroke="#111827" stroke-width="2"/>
    <circle cx="860.00" cy="123.79" r="3" fill="#111827"/>
    <text x="40.00" y="235.00" font-size="9" fill="#111827" text-anchor="middle" transform="rotate(-45 40.00 235.00)">09.08.2025</text><text x="122.00" y="235.00" font-size="9" fill="#111827" text-anchor="middle" transform="rotate(-45 122.00 235.00)">13.08.2025</text><text x="204.00" y="235.00" font-size="9" fill="#111827" text-anchor="middle" transform="rotate(-45 204.00 235.00)">20.08.2025</text><text x="286.00" y="235.00" font-size="9" fill="#111827" text-anchor="middle" transform="rotate(-45 286.00 235.00)">25.08.2025</text><text x="368.00" y="235.00" font-size="9" fill="#111827" text-anchor="middle" transform="rotate(-45 368.00 235.00)">02.09.2025</text><text x="450.00" y="235.00" font-size="9" fill="#111827" text-anchor="middle" transform="rotate(-45 450.00 235.00)">15.09.2025</text><text x="532.00" y="235.00" font-size="9" fill="#111827" text-anchor="middle" transform="rotate(-45 532.00 235.00)">26.09.2025</text><text x="614.00" y="235.00" font-size="9" fill="#111827" text-anchor="middle" transform="rotate(-45 614.00 235.00)">09.10.2025</text><text x="696.00" y="235.00" font-size="9" fill="#111827" text-anchor="middle" transform="rotate(-45 696.00 235.00)">22.10.2025</text><text x="778.00" y="235.00" font-size="9" fill="#111827" text-anchor="middle" transform="rotate(-45 778.00 235.00)">04.11.2025</text><text x="860.00" y="235.00" font-size="9" fill="#111827" text-anchor="middle" transform="rotate(-45 860.00 235.00)">17.11.2025</text>
  </g>
</svg>