<svg xmlns="http://www.w3.org/2000/svg" width="900" height="290" style="font-family: -apple-system, BlinkMacSystemFont, 'Segoe UI', Helvetica, Arial, sans-serif;">
  <rect width="100%" height="100%" fill="white"/>
  <g>
    <line x1="40" y1="220.00" x2="860" y2="220.00" stroke="#e5e7eb"/><text x="32" y="224.00" font-size="10" fill="#111827" text-anchor="end">0</text><line x1="40" y1="175.00" x2="860" y2="175.00" stroke="#e5e7eb"/><text x="32" y="179.00" font-size="10" fill="#111827" text-anchor="end">500</text><line x1="40" y1="130.00" x2="860" y2="130.00" stroke="#e5e7eb"/><text x="32" y="134.00" font-size="10" fill="#111827" text-anchor="end">1k</text><line x1="40" y1="85.00" x2="860" y2="85.00" stroke="#e5e7eb"/><text x="32" y="89.00" font-size="10" fill="#111827" text-anchor="end">1.5k</text><line x1="40" y1="40.00" x2="860" y2="40.00" stroke="#e5e7eb"/><text x="32" y="44.00" font-size="10" fill="#111827" text-anchor="end">2k</text>
    <line x1="40.00" y1="40" x2="40.00" y2="220" stroke="#e5e7eb" opacity="0.5"/><line x1="119.35" y1="40" x2="119.35" y2="220" stroke="#e5e7eb" opacity="0.5"/><line x1="198.71" y1="40" x2="198.71" y2="220" stroke="#e5e7eb" opacity="0.5"/><line x1="278.06" y1="40" x2="278.06" y2="220" stroke="#e5e7eb" opacity="0.5"/><line x1="357.42" y1="40" x2="357.42" y2="220" stroke="#e5e7eb" opacity="0.5"/><line x1="436.77" y1="40" x2="436.77" y2="220" stroke="#e5e7eb" opacity="0.5"/><line x1="516.13" y1="40" x2="516.13" y2="220" stroke="#e5e7eb" opacity="0.5"/><line x1="595.48" y1="40" x2="595.48" y2="220" stroke="#e5e7eb" opacity="0.5"/><line x1="674.84" y1="40" x2="674.84" y2="220" stroke="#e5e7eb" opacity="0.5"/><line x1="754.19" y1="40" x2="754.19" y2="220" stroke="#e5e7eb" opacity="0.5"/><line x1="833.55" y1="40" x2="833.55" y2="220" stroke="#e5e7eb" opacity="0.5"/>
    <line x1="40" y1="220" x2="860" y2="220" stroke="#9ca3af"/>
    <line x1="40" y1="40"   x2="40"   y2="220" stroke="#9ca3af"/>
    <path d="M 40.00 219.82 L 45.29 211.81 L 50.58 211.81 L 55.87 211.81 L 61.16 171.85 L 66.45 171.58 L 71.74 164.38 L 77.03 118.93 L 82.32 119.11 L 87.61 111.10 L 92.90 110.56 L 98.19 110.56 L 103.48 110.56 L 108.77 95.35 L 114.06 95.35 L 119.35 95.35 L 124.65 94.63 L 129.94 94.54 L 135.23 94.45 L 140.52 94.09 L 145.81 94.09 L 151.10 94.09 L 156.39 94.09 L 161.68 94.09 L 166.97 94.09 L 172.26 94.09 L 177.55 94.09 L 182.84 94.09 L 188.13 91.84 L 193.42 83.65 L 198.71 83.65 L 204.00 83.47 L 209.29 83.65 L 214.58 91.03 L 219.87 91.03 L 225.16 91.03 L 230.45 91.03 L 235.74 91.03 L 241.03 91.03 L 246.32 91.03 L 251.61 91.03 L 256.90 91.03 L 262.19 91.03 L 267.48 91.03 L 272.77 90.94 L 278.06 91.03 L 283.35 90.94 L 288.65 90.94 L 293.94 90.94 L 299.23 90.94 L 304.52 90.94 L 309.81 90.94 L 315.10 90.94 L 320.39 90.94 L 325.68 90.94 L 330.97 90.94 L 336.26 90.94 L 341.55 90.94 L 346.84 90.94 L 352.13 90.94 L 357.42 90.94 L 362.71 90.94 L 368.00 90.94 L 373.29 90.94 L 378.58 90.94 L 383.87 90.94 L 389.16 90.94 L 394.45 90.94 L 399.74 90.94 L 405.03 90.94 L 410.32 90.94 L 415.61 123.79 L 420.90 123.79 L 426.19 123.79 L 431.48 123.79 L 436.77 123.79 L 442.06 123.79 L 447.35 123.79 L 452.65 123.79 L 457.94 123.79 L 463.23 123.79 L 468.52 123.79 L 473.81 123.79 L 479.10 123.79 L 484.39 123.79 L 489.68 123.79 L 494.97 123.79 L 500.26 123.79 L 505.55 123.79 L 510.84 123.79 L 516.13 123.79 L 521.42 123.79 L 526.71 123.79 L 532.00 123.79 L 537.29 123.79 L 542.58 123.79 L 547.87 123.79 L 553.16 123.79 L 558.45 123.79 L 563.74 123.79 L 569.03 123.79 L 574.32 123.79 L 579.61 123.79 L 584.90 123.79 L 590.19 123.79 L 595.48 123.79 L 600.77 123.79 L 606.06 123.79 L 611.35 123.79 L 616.65 123.79 L 621.94 123.79 L 627.23 123.79 L 632.52 123.79 L 637.81 123.79 L 643.10 123.79 L 648.39 123.79 L 653.68 123.79 L 658.97 123.79 L 664.26 123.79 L 669.55 123.79 L 674.84 123.79 L 680.13 123.79 L 685.42 123.79 L 690.71 123.79 L 696.00 123.79 L 701.29 123.79 L 706.58 123.79 L 711.87 123.79 L 717.16 123.79 L 722.45 123.79 L 727.74 123.79 L 733.03 123.79 L 738.32 123.79 L 743.61 123.79 L 748.90 123.79 L 754.19 123.79 L 759.48 123.79 L 764.77 123.79 L 770.06 123.79 L 775.35 123.79 L 780.65 123.79 L 785.94 123.79 L 791.23 123.79 L 796.52 123.79 L 801.81 123.79 L 807.10 123.79 L 812.39 123.79 L 817.68 123.79 L 822.97 115.42 L 828.26 111.64 L 833.55 107.86 L 838.84 104.08 L 844.13 100.30 L 849.42 95.98 L 854.71 95.98 L 860.00 95.98" fill="none" stroke="#111827" stroke-width="2"/>
    <circle cx="860.00" cy="95.98" r="3" fill="#111827"/>
    <text x="40.00" y="235.00" font-size="9" fill="#111827" text-anchor="middle" transform="rotate(-45 40.00 235.00)">09.08.2025</text><text x="119.35" y="235.00" font-size="9" fill="#111827" text-anchor="middle" transform="rotate(-45 119.35 235.00)">13.08.2025</text><text x="198.71" y="235.00" font-size="9" fill="#111827" text-anchor="middle" transform="rotate(-45 198.71 235.00)">21.08.2025</text><text x="278.06" y="235.00" font-size="9" fill="#111827" text-anchor="middle" transform="rotate(-45 278.06 235.00)">28.08.2025</text><text x="357.42" y="235.00" font-size="9" fill="#111827" text-anchor="middle" transform="rotate(-45 357.42 235.00)">10.09.2025</text><text x="436.77" y="235.00" font-size="9" fill="#111827" text-anchor="middle" transform="rotate(-45 436.77 235.00)">23.09.2025</text><text x="516.13" y="235.00" font-size="9" fill="#111827" text-anchor="middle" transform="rotate(-45 516.13 235.00)">08.10.2025</text><text x="595.48" y="235.00" font-size="9" fill="#111827" text-anchor="middle" transform="rotate(-45 595.48 235.00)">23.10.2025</text><text x="674.84" y="235.00" font-size="9" fill="#111827" text-anchor="middle" transform="rotate(-45 674.84 235.00)">07.11.2025</text><text x="754.19" y="235.00" font-size="9" fill="#111827" text-anchor="middle" transform="rotate(-45 754.19 235.00)">22.11.2025</text><text x="833.55" y="235.00" font-size="9" fill="#111827" text-anchor="middle" transform="rotate(-45 833.55 235.00)">04.12.2025</text>
  </g>
</svg>