<svg xmlns="http://www.w3.org/2000/svg" width="900" height="290" style="font-family: -apple-system, BlinkMacSystemFont, 'Segoe UI', Helvetica, Arial, sans-serif;">
  <rect width="100%" height="100%" fill="white"/>
  <g>
    <line x1="40" y1="220.00" x2="860" y2="220.00" stroke="#e5e7eb"/><text x="32" y="224.00" font-size="10" fill="#111827" text-anchor="end">0</text><line x1="40" y1="175.00" x2="860" y2="175.00" stroke="#e5e7eb"/><text x="32" y="179.00" font-size="10" fill="#111827" text-anchor="end">500</text><line x1="40" y1="130.00" x2="860" y2="130.00" stroke="#e5e7eb"/><text x="32" y="134.00" font-size="10" fill="#111827" text-anchor="end">1k</text><line x1="40" y1="85.00" x2="860" y2="85.00" stroke="#e5e7eb"/><text x="32" y="89.00" font-size="10" fill="#111827" text-anchor="end">1.5k</text><line x1="40" y1="40.00" x2="860" y2="40.00" stroke="#e5e7eb"/><text x="32" y="44.00" font-size="10" fill="#111827" text-anchor="end">2k</text>
    <line x1="40.00" y1="40" x2="40.00" y2="220" stroke="#e5e7eb" opacity="0.5"/><line x1="117.68" y1="40" x2="117.68" y2="220" stroke="#e5e7eb" opacity="0.5"/><line x1="195.37" y1="40" x2="195.37" y2="220" stroke="#e5e7eb" opacity="0.5"/><line x1="273.05" y1="40" x2="273.05" y2="220" stroke="#e5e7eb" opacity="0.5"/><line x1="350.74" y1="40" x2="350.74" y2="220" stroke="#e5e7eb" opacity="0.5"/><line x1="428.42" y1="40" x2="428.42" y2="220" stroke="#e5e7eb" opacity="0.5"/><line x1="506.11" y1="40" x2="506.11" y2="220" stroke="#e5e7eb" opacity="0.5"/><line x1="583.79" y1="40" x2="583.79" y2="220" stroke="#e5e7eb" opacity="0.5"/><line x1="661.47" y1="40" x2="661.47" y2="220" stroke="#e5e7eb" opacity="0.5"/><line x1="739.16" y1="40" x2="739.16" y2="220" stroke="#e5e7eb" opacity="0.5"/><line x1="816.84" y1="40" x2="816.84" y2="220" stroke="#e5e7eb" opacity="0.5"/>
    <line x1="40" y1="220" x2="860" y2="220" stroke="#9ca3af"/>
    <line x1="40" y1="40"   x2="40"   y2="220" stroke="#9ca3af"/>
    <path d="M 40.00 219.82 L 48.63 211.81 L 57.26 211.81 L 65.89 211.81 L 74.53 171.85 L 83.16 171.58 L 91.79 164.38 L 100.42 118.93 L 109.05 119.11 L 117.68 111.10 L 126.32 110.56 L 134.95 110.56 L 143.58 110.56 L 152.21 95.35 L 160.84 95.35 L 169.47 95.35 L 178.11 94.63 L 186.74 94.54 L 195.37 94.45 L 204.00 94.09 L 212.63 94.09 L 221.26 94.09 L 229.89 94.09 L 238.53 94.09 L 247.16 94.09 L 255.79 94.09 L 264.42 94.09 L 273.05 94.09 L 281.68 91.84 L 290.32 83.65 L 298.95 83.65 L 307.58 83.47 L 316.21 83.65 L 324.84 91.03 L 333.47 91.03 L 342.11 91.03 L 350.74 91.03 L 359.37 91.03 L 368.00 91.03 L 376.63 91.03 L 385.26 91.03 L 393.89 91.03 L 402.53 91.03 L 411.16 91.03 L 419.79 90.94 L 428.42 91.03 L 437.05 90.94 L 445.68 90.94 L 454.32 90.94 L 462.95 90.94 L 471.58 90.94 L 480.21 90.94 L 488.84 90.94 L 497.47 90.94 L 506.11 90.94 L 514.74 90.94 L 523.37 90.94 L 532.00 90.94 L 540.63 90.94 L 549.26 90.94 L 557.89 90.94 L 566.53 90.94 L 575.16 90.94 L 583.79 90.94 L 592.42 90.94 L 601.05 90.94 L 609.68 90.94 L 618.32 90.94 L 626.95 90.94 L 635.58 90.94 L 644.21 90.94 L 652.84 123.79 L 661.47 123.79 L 670.11 123.79 L 678.74 123.79 L 687.37 123.79 L 696.00 123.79 L 704.63 123.79 L 713.26 123.79 L 721.89 123.79 L 730.53 123.79 L 739.16 123.79 L 747.79 123.79 L 756.42 123.79 L 765.05 123.79 L 773.68 123.79 L 782.32 123.79 L 790.95 123.79 L 799.58 123.79 L 808.21 123.79 L 816.84 123.79 L 825.47 123.79 L 834.11 123.79 L 842.74 123.79 L 851.37 123.79 L 860.00 123.79" fill="none" stroke="#111827" stroke-width="2"/>
    <circle cx="860.00" cy="123.79" r="3" fill="#111827"/>
    <text x="40.00" y="235.00" font-size="9" fill="#111827" text-anchor="middle" transform="rotate(-45 40.00 235.00)">09.08.2025</text><text x="117.68" y="235.00" font-size="9" fill="#111827" text-anchor="middle" transform="rotate(-45 117.68 235.00)">13.08.2025</text><text x="195.37" y="235.00" font-size="9" fill="#111827" text-anchor="middle" transform="rotate(-45 195.37 235.00)">13.08.2025</text><text x="273.05" y="235.00" font-size="9" fill="#111827" text-anchor="middle" transform="rotate(-45 273.05 235.00)">21.08.2025</text><text x="350.74" y="235.00" font-size="9" fill="#111827" text-anchor="middle" transform="rotate(-45 350.74 235.00)">22.08.2025</text><text x="428.42" y="235.00" font-size="9" fill="#111827" text-anchor="middle" transform="rotate(-45 428.42 235.00)">28.08.2025</text><text x="506.11" y="235.00" font-size="9" fill="#111827" text-anchor="middle" transform="rotate(-45 506.11 235.00)">04.09.2025</text><text x="583.79" y="235.00" font-size="9" fill="#111827" text-anchor="middle" transform="rotate(-45 583.79 235.00)">13.09.2025</text><text x="661.47" y="235.00" font-size="9" fill="#111827" text-anchor="middle" transform="rotate(-45 661.47 235.00)">21.09.2025</text><text x="739.16" y="235.00" font-size="9" fill="#111827" text-anchor="middle" transform="rotate(-45 739.16 235.00)">29.09.2025</text><text x="816.84" y="235.00" font-size="9" fill="#111827" text-anchor="middle" transform="rotate(-45 816.84 235.00)">08.10.2025</text>
  </g>
</svg>