<svg xmlns="http://www.w3.org/2000/svg" width="900" height="290" style="font-family: -apple-system, BlinkMacSystemFont, 'Segoe UI', Helvetica, Arial, sans-serif;">
  <rect width="100%" height="100%" fill="white"/>
  <g>
    <line x1="40" y1="220.00" x2="860" y2="220.00" stroke="#e5e7eb"/><text x="32" y="224.00" font-size="10" fill="#111827" text-anchor="end">0</text><line x1="40" y1="175.00" x2="860" y2="175.00" stroke="#e5e7eb"/><text x="32" y="179.00" font-size="10" fill="#111827" text-anchor="end">500</text><line x1="40" y1="130.00" x2="860" y2="130.00" stroke="#e5e7eb"/><text x="32" y="134.00" font-size="10" fill="#111827" text-anchor="end">1k</text><line x1="40" y1="85.00" x2="860" y2="85.00" stroke="#e5e7eb"/><text x="32" y="89.00" font-size="10" fill="#111827" text-anchor="end">1.5k</text><line x1="40" y1="40.00" x2="860" y2="40.00" stroke="#e5e7eb"/><text x="32" y="44.00" font-size="10" fill="#111827" text-anchor="end">2k</text>
    <line x1="40.00" y1="40" x2="40.00" y2="220" stroke="#e5e7eb" opacity="0.5"/><line x1="114.55" y1="40" x2="114.55" y2="220" stroke="#e5e7eb" opacity="0.5"/><line x1="189.09" y1="40" x2="189.09" y2="220" stroke="#e5e7eb" opacity="0.5"/><line x1="263.64" y1="40" x2="263.64" y2="220" stroke="#e5e7eb" opacity="0.5"/><line x1="338.18" y1="40" x2="338.18" y2="220" stroke="#e5e7eb" opacity="0.5"/><line x1="412.73" y1="40" x2="412.73" y2="220" stroke="#e5e7eb" opacity="0.5"/><line x1="487.27" y1="40" x2="487.27" y2="220" stroke="#e5e7eb" opacity="0.5"/><line x1="561.82" y1="40" x2="561.82" y2="220" stroke="#e5e7eb" opacity="0.5"/><line x1="636.36" y1="40" x2="636.36" y2="220" stroke="#e5e7eb" opacity="0.5"/><line x1="710.91" y1="40" x2="710.91" y2="220" stroke="#e5e7eb" opacity="0.5"/><line x1="785.45" y1="40" x2="785.45" y2="220" stroke="#e5e7eb" opacity="0.5"/><line x1="860.00" y1="40" x2="860.00" y2="220" stroke="#e5e7eb" opacity="0.5"/>
    <line x1="40" y1="220" x2="860" y2="220" stroke="#9ca3af"/>
    <line x1="40" y1="40"   x2="40"   y2="220" stroke="#9ca3af"/>
    <path d="M 40.00 219.82 L 50.65 211.81 L 61.30 211.81 L 71.95 211.81 L 82.60 171.85 L 93.25 171.58 L 103.90 164.38 L 114.55 118.93 L 125.19 119.11 L 135.84 111.10 L 146.49 110.56 L 157.14 110.56 L 167.79 110.56 L 178.44 95.35 L 189.09 95.35 L 199.74 95.35 L 210.39 94.63 L 221.04 94.54 L 231.69 94.45 L 242.34 94.09 L 252.99 94.09 L 263.64 94.09 L 274.29 94.09 L 284.94 94.09 L 295.58 94.09 L 306.23 94.09 L 316.88 94.09 L 327.53 94.09 L 338.18 91.84 L 348.83 83.65 L 359.48 83.65 L 370.13 83.47 L 380.78 83.65 L 391.43 91.03 L 402.08 91.03 L 412.73 91.03 L 423.38 91.03 L 434.03 91.03 L 444.68 91.03 L 455.32 91.03 L 465.97 91.03 L 476.62 91.03 L 487.27 91.03 L 497.92 91.03 L 508.57 90.94 L 519.22 91.03 L 529.87 90.94 L 540.52 90.94 L 551.17 90.94 L 561.82 90.94 L 572.47 90.94 L 583.12 90.94 L 593.77 90.94 L 604.42 90.94 L 615.06 90.94 L 625.71 90.94 L 636.36 90.94 L 647.01 90.94 L 657.66 90.94 L 668.31 90.94 L 678.96 90.94 L 689.61 90.94 L 700.26 90.94 L 710.91 90.94 L 721.56 90.94 L 732.21 90.94 L 742.86 90.94 L 753.51 90.94 L 764.16 90.94 L 774.81 90.94 L 785.45 90.94 L 796.10 123.79 L 806.75 123.79 L 817.40 123.79 L 828.05 123.79 L 838.70 123.79 L 849.35 123.79 L 860.00 123.79" fill="none" stroke="#111827" stroke-width="2"/>
    <circle cx="860.00" cy="123.79" r="3" fill="#111827"/>
    <text x="40.00" y="235.00" font-size="9" fill="#111827" text-anchor="middle" transform="rotate(-45 40.00 235.00)">09.08.2025</text><text x="114.55" y="235.00" font-size="9" fill="#111827" text-anchor="middle" transform="rotate(-45 114.55 235.00)">09.08.2025</text><text x="189.09" y="235.00" font-size="9" fill="#111827" text-anchor="middle" transform="rotate(-45 189.09 235.00)">13.08.2025</text><text x="263.64" y="235.00" font-size="9" fill="#111827" text-anchor="middle" transform="rotate(-45 263.64 235.00)">15.08.2025</text><text x="338.18" y="235.00" font-size="9" fill="#111827" text-anchor="middle" transform="rotate(-45 338.18 235.00)">21.08.2025</text><text x="412.73" y="235.00" font-size="9" fill="#111827" text-anchor="middle" transform="rotate(-45 412.73 235.00)">21.08.2025</text><text x="487.27" y="235.00" font-size="9" fill="#111827" text-anchor="middle" transform="rotate(-45 487.27 235.00)">28.08.2025</text><text x="561.82" y="235.00" font-size="9" fill="#111827" text-anchor="middle" transform="rotate(-45 561.82 235.00)">30.08.2025</text><text x="636.36" y="235.00" font-size="9" fill="#111827" text-anchor="middle" transform="rotate(-45 636.36 235.00)">06.09.2025</text><text x="710.91" y="235.00" font-size="9" fill="#111827" text-anchor="middle" transform="rotate(-45 710.91 235.00)">13.09.2025</text><text x="785.45" y="235.00" font-size="9" fill="#111827" text-anchor="middle" transform="rotate(-45 785.45 235.00)">20.09.2025</text><text x="860.00" y="235.00" font-size="9" fill="#111827" text-anchor="middle" transform="rotate(-45 860.00 235.00)">25.09.2025</text>
  </g>
</svg>