<svg xmlns="http://www.w3.org/2000/svg" width="900" height="290" style="font-family: -apple-system, BlinkMacSystemFont, 'Segoe UI', Helvetica, Arial, sans-serif;">
  <rect width="100%" height="100%" fill="white"/>
  <g>
    <line x1="40" y1="220.00" x2="860" y2="220.00" stroke="#e5e7eb"/><text x="32" y="224.00" font-size="10" fill="#111827" text-anchor="end">0</text><line x1="40" y1="175.00" x2="860" y2="175.00" stroke="#e5e7eb"/><text x="32" y="179.00" font-size="10" fill="#111827" text-anchor="end">500</text><line x1="40" y1="130.00" x2="860" y2="130.00" stroke="#e5e7eb"/><text x="32" y="134.00" font-size="10" fill="#111827" text-anchor="end">1k</text><line x1="40" y1="85.00" x2="860" y2="85.00" stroke="#e5e7eb"/><text x="32" y="89.00" font-size="10" fill="#111827" text-anchor="end">1.5k</text><line x1="40" y1="40.00" x2="860" y2="40.00" stroke="#e5e7eb"/><text x="32" y="44.00" font-size="10" fill="#111827" text-anchor="end">2k</text>
    <line x1="40.00" y1="40" x2="40.00" y2="220" stroke="#e5e7eb" opacity="0.5"/><line x1="119.12" y1="40" x2="119.12" y2="220" stroke="#e5e7eb" opacity="0.5"/><line x1="198.25" y1="40" x2="198.25" y2="220" stroke="#e5e7eb" opacity="0.5"/><line x1="277.37" y1="40" x2="277.37" y2="220" stroke="#e5e7eb" opacity="0.5"/><line x1="356.49" y1="40" x2="356.49" y2="220" stroke="#e5e7eb" opacity="0.5"/><line x1="435.61" y1="40" x2="435.61" y2="220" stroke="#e5e7eb" opacity="0.5"/><line x1="514.74" y1="40" x2="514.74" y2="220" stroke="#e5e7eb" opacity="0.5"/><line x1="593.86" y1="40" x2="593.86" y2="220" stroke="#e5e7eb" opacity="0.5"/><line x1="672.98" y1="40" x2="672.98" y2="220" stroke="#e5e7eb" opacity="0.5"/><line x1="752.11" y1="40" x2="752.11" y2="220" stroke="#e5e7eb" opacity="0.5"/><line x1="831.23" y1="40" x2="831.23" y2="220" stroke="#e5e7eb" opacity="0.5"/>
    <line x1="40" y1="220" x2="860" y2="220" stroke="#9ca3af"/>
    <line x1="40" y1="40"   x2="40"   y2="220" stroke="#9ca3af"/>
    <path d="M 40.00 219.82 L 47.19 211.81 L 54.39 211.81 L 61.58 211.81 L 68.77 171.85 L 75.96 171.58 L 83.16 164.38 L 90.35 118.93 L 97.54 119.11 L 104.74 111.10 L 111.93 110.56 L 119.12 110.56 L 126.32 110.56 L 133.51 95.35 L 140.70 95.35 L 147.89 95.35 L 155.09 94.63 L 162.28 94.54 L 169.47 94.45 L 176.67 94.09 L 183.86 94.09 L 191.05 94.09 L 198.25 94.09 L 205.44 94.09 L 212.63 94.09 L 219.82 94.09 L 227.02 94.09 L 234.21 94.09 L 241.40 91.84 L 248.60 83.65 L 255.79 83.65 L 262.98 83.47 L 270.18 83.65 L 277.37 91.03 L 284.56 91.03 L 291.75 91.03 L 298.95 91.03 L 306.14 91.03 L 313.33 91.03 L 320.53 91.03 L 327.72 91.03 L 334.91 91.03 L 342.11 91.03 L 349.30 91.03 L 356.49 90.94 L 363.68 91.03 L 370.88 90.94 L 378.07 90.94 L 385.26 90.94 L 392.46 90.94 L 399.65 90.94 L 406.84 90.94 L 414.04 90.94 L 421.23 90.94 L 428.42 90.94 L 435.61 90.94 L 442.81 90.94 L 450.00 90.94 L 457.19 90.94 L 464.39 90.94 L 471.58 90.94 L 478.77 90.94 L 485.96 90.94 L 493.16 90.94 L 500.35 90.94 L 507.54 90.94 L 514.74 90.94 L 521.93 90.94 L 529.12 90.94 L 536.32 90.94 L 543.51 90.94 L 550.70 123.79 L 557.89 123.79 L 565.09 123.79 L 572.28 123.79 L 579.47 123.79 L 586.67 123.79 L 593.86 123.79 L 601.05 123.79 L 608.25 123.79 L 615.44 123.79 L 622.63 123.79 L 629.82 123.79 L 637.02 123.79 L 644.21 123.79 L 651.40 123.79 L 658.60 123.79 L 665.79 123.79 L 672.98 123.79 L 680.18 123.79 L 687.37 123.79 L 694.56 123.79 L 701.75 123.79 L 708.95 123.79 L 716.14 123.79 L 723.33 123.79 L 730.53 123.79 L 737.72 123.79 L 744.91 123.79 L 752.11 123.79 L 759.30 123.79 L 766.49 123.79 L 773.68 123.79 L 780.88 123.79 L 788.07 123.79 L 795.26 123.79 L 802.46 123.79 L 809.65 123.79 L 816.84 123.79 L 824.04 123.79 L 831.23 123.79 L 838.42 123.79 L 845.61 123.79 L 852.81 123.79 L 860.00 123.79" fill="none" stroke="#111827" stroke-width="2"/>
    <circle cx="860.00" cy="123.79" r="3" fill="#111827"/>
    <text x="40.00" y="235.00" font-size="9" fill="#111827" text-anchor="middle" transform="rotate(-45 40.00 235.00)">09.08.2025</text><text x="119.12" y="235.00" font-size="9" fill="#111827" text-anchor="middle" transform="rotate(-45 119.12 235.00)">13.08.2025</text><text x="198.25" y="235.00" font-size="9" fill="#111827" text-anchor="middle" transform="rotate(-45 198.25 235.00)">16.08.2025</text><text x="277.37" y="235.00" font-size="9" fill="#111827" text-anchor="middle" transform="rotate(-45 277.37 235.00)">21.08.2025</text><text x="356.49" y="235.00" font-size="9" fill="#111827" text-anchor="middle" transform="rotate(-45 356.49 235.00)">28.08.2025</text><text x="435.61" y="235.00" font-size="9" fill="#111827" text-anchor="middle" transform="rotate(-45 435.61 235.00)">05.09.2025</text><text x="514.74" y="235.00" font-size="9" fill="#111827" text-anchor="middle" transform="rotate(-45 514.74 235.00)">16.09.2025</text><text x="593.86" y="235.00" font-size="9" fill="#111827" text-anchor="middle" transform="rotate(-45 593.86 235.00)">25.09.2025</text><text x="672.98" y="235.00" font-size="9" fill="#111827" text-anchor="middle" transform="rotate(-45 672.98 235.00)">06.10.2025</text><text x="752.11" y="235.00" font-size="9" fill="#111827" text-anchor="middle" transform="rotate(-45 752.11 235.00)">17.10.2025</text><text x="831.23" y="235.00" font-size="9" fill="#111827" text-anchor="middle" transform="rotate(-45 831.23 235.00)">28.10.2025</text>
  </g>
</svg>