<svg xmlns="http://www.w3.org/2000/svg" width="900" height="290" style="font-family: -apple-system, BlinkMacSystemFont, 'Segoe UI', Helvetica, Arial, sans-serif;">
  <rect width="100%" height="100%" fill="#0d1117"/>
  <g>
    <line x1="40" y1="220.00" x2="860" y2="220.00" stroke="#30363d"/><text x="32" y="224.00" font-size="10" fill="#c9d1d9" text-anchor="end">0</text><line x1="40" y1="175.00" x2="860" y2="175.00" stroke="#30363d"/><text x="32" y="179.00" font-size="10" fill="#c9d1d9" text-anchor="end">500</text><line x1="40" y1="130.00" x2="860" y2="130.00" stroke="#30363d"/><text x="32" y="134.00" font-size="10" fill="#c9d1d9" text-anchor="end">1k</text><line x1="40" y1="85.00" x2="860" y2="85.00" stroke="#30363d"/><text x="32" y="89.00" font-size="10" fill="#c9d1d9" text-anchor="end">1.5k</text><line x1="40" y1="40.00" x2="860" y2="40.00" stroke="#30363d"/><text x="32" y="44.00" font-size="10" fill="#c9d1d9" text-anchor="end">2k</text>
    <line x1="40.00" y1="40" x2="40.00" y2="220" stroke="#30363d" opacity="0.5"/><line x1="122.00" y1="40" x2="122.00" y2="220" stroke="#30363d" opacity="0.5"/><line x1="204.00" y1="40" x2="204.00" y2="220" stroke="#30363d" opacity="0.5"/><line x1="286.00" y1="40" x2="286.00" y2="220" stroke="#30363d" opacity="0.5"/><line x1="368.00" y1="40" x2="368.00" y2="220" stroke="#30363d" opacity="0.5"/><line x1="450.00" y1="40" x2="450.00" y2="220" stroke="#30363d" opacity="0.5"/><line x1="532.00" y1="40" x2="532.00" y2="220" stroke="#30363d" opacity="0.5"/><line x1="614.00" y1="40" x2="614.00" y2="220" stroke="#30363d" opacity="0.5"/><line x1="696.00" y1="40" x2="696.00" y2="220" stroke="#30363d" opacity="0.5"/><line x1="778.00" y1="40" x2="778.00" y2="220" stroke="#30363d" opacity="0.5"/><line x1="860.00" y1="40" x2="860.00" y2="220" stroke="#30363d" opacity="0.5"/>
    <line x1="40" y1="220" x2="860" y2="220" stroke="#30363d"/>
    <line x1="40" y1="40"   x2="40"   y2="220" stroke="#30363d"/>
    <path d="M 40.00 219.82 L 44.32 211.81 L 48.63 211.81 L 52.95 211.81 L 57.26 171.85 L 61.58 171.58 L 65.89 164.38 L 70.21 118.93 L 74.53 119.11 L 78.84 111.10 L 83.16 110.56 L 87.47 110.56 L 91.79 110.56 L 96.11 95.35 L 100.42 95.35 L 104.74 95.35 L 109.05 94.63 L 113.37 94.54 L 117.68 94.45 L 122.00 94.09 L 126.32 94.09 L 130.63 94.09 L 134.95 94.09 L 139.26 94.09 L 143.58 94.09 L 147.89 94.09 L 152.21 94.09 L 156.53 94.09 L 160.84 91.84 L 165.16 83.65 L 169.47 83.65 L 173.79 83.47 L 178.11 83.65 L 182.42 91.03 L 186.74 91.03 L 191.05 91.03 L 195.37 91.03 L 199.68 91.03 L 204.00 91.03 L 208.32 91.03 L 212.63 91.03 L 216.95 91.03 L 221.26 91.03 L 225.58 91.03 L 229.89 90.94 L 234.21 91.03 L 238.53 90.94 L 242.84 90.94 L 247.16 90.94 L 251.47 90.94 L 255.79 90.94 L 260.11 90.94 L 264.42 90.94 L 268.74 90.94 L 273.05 90.94 L 277.37 90.94 L 281.68 90.94 L 286.00 90.94 L 290.32 90.94 L 294.63 90.94 L 298.95 90.94 L 303.26 90.94 L 307.58 90.94 L 311.89 90.94 L 316.21 90.94 L 320.53 90.94 L 324.84 90.94 L 329.16 90.94 L 333.47 90.94 L 337.79 90.94 L 342.11 90.94 L 346.42 123.79 L 350.74 123.79 L 355.05 123.79 L 359.37 123.79 L 363.68 123.79 L 368.00 123.79 L 372.32 123.79 L 376.63 123.79 L 380.95 123.79 L 385.26 123.79 L 389.58 123.79 L 393.89 123.79 L 398.21 123.79 L 402.53 123.79 L 406.84 123.79 L 411.16 123.79 L 415.47 123.79 L 419.79 123.79 L 424.11 123.79 L 428.42 123.79 L 432.74 123.79 L 437.05 123.79 L 441.37 123.79 L 445.68 123.79 L 450.00 123.79 L 454.32 123.79 L 458.63 123.79 L 462.95 123.79 L 467.26 123.79 L 471.58 123.79 L 475.89 123.79 L 480.21 123.79 L 484.53 123.79 L 488.84 123.79 L 493.16 123.79 L 497.47 123.79 L 501.79 123.79 L 506.11 123.79 L 510.42 123.79 L 514.74 123.79 L 519.05 123.79 L 523.37 123.79 L 527.68 123.79 L 532.00 123.79 L 536.32 123.79 L 540.63 123.79 L 544.95 123.79 L 549.26 123.79 L 553.58 123.79 L 557.89 123.79 L 562.21 123.79 L 566.53 123.79 L 570.84 123.79 L 575.16 123.79 L 579.47 123.79 L 583.79 123.79 L 588.11 123.79 L 592.42 123.79 L 596.74 123.79 L 601.05 123.79 L 605.37 123.79 L 609.68 123.79 L 614.00 123.79 L 618.32 123.79 L 622.63 123.79 L 626.95 123.79 L 631.26 123.79 L 635.58 123.79 L 639.89 123.79 L 644.21 123.79 L 648.53 123.79 L 652.84 123.79 L 657.16 123.79 L 661.47 123.79 L 665.79 123.79 L 670.11 123.79 L 674.42 123.79 L 678.74 115.42 L 683.05 111.64 L 687.37 107.86 L 691.68 104.08 L 696.00 100.30 L 700.32 95.98 L 704.63 95.98 L 708.95 95.98 L 713.26 95.98 L 717.58 85.72 L 721.89 85.72 L 726.21 85.72 L 730.53 85.72 L 734.84 85.72 L 739.16 85.72 L 743.47 85.72 L 747.79 85.72 L 752.11 85.72 L 756.42 85.72 L 760.74 85.72 L 765.05 85.72 L 769.37 85.72 L 773.68 85.72 L 778.00 85.72 L 782.32 85.72 L 786.63 85.72 L 790.95 85.72 L 795.26 85.72 L 799.58 85.72 L 803.89 85.72 L 808.21 85.72 L 812.53 85.72 L 816.84 85.72 L 821.16 85.72 L 825.47 85.72 L 829.79 85.72 L 834.11 85.72 L 838.42 85.72 L 842.74 85.72 L 847.05 85.72 L 851.37 85.72 L 855.68 85.72 L 860.00 85.72" fill="none" stroke="#3fb950" stroke-width="2"/>
    <circle cx="860.00" cy="85.72" r="3" fill="#3fb950"/>
    <text x="40.00" y="235.00" font-size="9" fill="#c9d1d9" text-anchor="middle" transform="rotate(-45 40.00 235.00)">09.08.2025</text><text x="122.00" y="235.00" font-size="9" fill="#c9d1d9" text-anchor="middle" transform="rotate(-45 122.00 235.00)">13.08.2025</text><text x="204.00" y="235.00" font-size="9" fill="#c9d1d9" text-anchor="middle" transform="rotate(-45 204.00 235.00)">24.08.2025</text><text x="286.00" y="235.00" font-size="9" fill="#c9d1d9" text-anchor="middle" transform="rotate(-45 286.00 235.00)">07.09.2025</text><text x="368.00" y="235.00" font-size="9" fill="#c9d1d9" text-anchor="middle" transform="rotate(-45 368.00 235.00)">24.09.2025</text><text x="450.00" y="235.00" font-size="9" fill="#c9d1d9" text-anchor="middle" transform="rotate(-45 450.00 235.00)">13.10.2025</text><text x="532.00" y="235.00" font-size="9" fill="#c9d1d9" text-anchor="middle" transform="rotate(-45 532.00 235.00)">01.11.2025</text><text x="614.00" y="235.00" font-size="9" fill="#c9d1d9" text-anchor="middle" transform="rotate(-45 614.00 235.00)">20.11.2025</text><text x="696.00" y="235.00" font-size="9" fill="#c9d1d9" text-anchor="middle" transform="rotate(-45 696.00 235.00)">04.12.2025</text><text x="778.00" y="235.00" font-size="9" fill="#c9d1d9" text-anchor="middle" transform="rotate(-45 778.00 235.00)">21.12.2025</text><text x="860.00" y="235.00" font-size="9" fill="#c9d1d9" text-anchor="middle" transform="rotate(-45 860.00 235.00)">09.01.2026</text>
  </g>
</svg>