<svg xmlns="http://www.w3.org/2000/svg" width="900" height="290" style="font-family: -apple-system, BlinkMacSystemFont, 'Segoe UI', Helvetica, Arial, sans-serif;">
  <rect width="100%" height="100%" fill="#0d1117"/>
  <g>
    <line x1="40" y1="220.00" x2="860" y2="220.00" stroke="#30363d"/><text x="32" y="224.00" font-size="10" fill="#c9d1d9" text-anchor="end">0</text><line x1="40" y1="175.00" x2="860" y2="175.00" stroke="#30363d"/><text x="32" y="179.00" font-size="10" fill="#c9d1d9" text-anchor="end">500</text><line x1="40" y1="130.00" x2="860" y2="130.00" stroke="#30363d"/><text x="32" y="134.00" font-size="10" fill="#c9d1d9" text-anchor="end">1k</text><line x1="40" y1="85.00" x2="860" y2="85.00" stroke="#30363d"/><text x="32" y="89.00" font-size="10" fill="#c9d1d9" text-anchor="end">1.5k</text><line x1="40" y1="40.00" x2="860" y2="40.00" stroke="#30363d"/><text x="32" y="44.00" font-size="10" fill="#c9d1d9" text-anchor="end">2k</text>
    <line x1="40.00" y1="40" x2="40.00" y2="220" stroke="#30363d" opacity="0.5"/><line x1="123.04" y1="40" x2="123.04" y2="220" stroke="#30363d" opacity="0.5"/><line x1="206.08" y1="40" x2="206.08" y2="220" stroke="#30363d" opacity="0.5"/><line x1="289.11" y1="40" x2="289.11" y2="220" stroke="#30363d" opacity="0.5"/><line x1="372.15" y1="40" x2="372.15" y2="220" stroke="#30363d" opacity="0.5"/><line x1="455.19" y1="40" x2="455.19" y2="220" stroke="#30363d" opacity="0.5"/><line x1="538.23" y1="40" x2="538.23" y2="220" stroke="#30363d" opacity="0.5"/><line x1="621.27" y1="40" x2="621.27" y2="220" stroke="#30363d" opacity="0.5"/><line x1="704.30" y1="40" x2="704.30" y2="220" stroke="#30363d" opacity="0.5"/><line x1="787.34" y1="40" x2="787.34" y2="220" stroke="#30363d" opacity="0.5"/>
    <line x1="40" y1="220" x2="860" y2="220" stroke="#30363d"/>
    <line x1="40" y1="40"   x2="40"   y2="220" stroke="#30363d"/>
    <path d="M 40.00 219.82 L 50.38 211.81 L 60.76 211.81 L 71.14 211.81 L 81.52 171.85 L 91.90 171.58 L 102.28 164.38 L 112.66 118.93 L 123.04 119.11 L 133.42 111.10 L 143.80 110.56 L 154.18 110.56 L 164.56 110.56 L 174.94 95.35 L 185.32 95.35 L 195.70 95.35 L 206.08 94.63 L 216.46 94.54 L 226.84 94.45 L 237.22 94.09 L 247.59 94.09 L 257.97 94.09 L 268.35 94.09 L 278.73 94.09 L 289.11 94.09 L 299.49 94.09 L 309.87 94.09 L 320.25 94.09 L 330.63 91.84 L 341.01 83.65 L 351.39 83.65 L 361.77 83.47 L 372.15 83.65 L 382.53 91.03 L 392.91 91.03 L 403.29 91.03 L 413.67 91.03 L 424.05 91.03 L 434.43 91.03 L 444.81 91.03 L 455.19 91.03 L 465.57 91.03 L 475.95 91.03 L 486.33 91.03 L 496.71 90.94 L 507.09 91.03 L 517.47 90.94 L 527.85 90.94 L 538.23 90.94 L 548.61 90.94 L 558.99 90.94 L 569.37 90.94 L 579.75 90.94 L 590.13 90.94 L 600.51 90.94 L 610.89 90.94 L 621.27 90.94 L 631.65 90.94 L 642.03 90.94 L 652.41 90.94 L 662.78 90.94 L 673.16 90.94 L 683.54 90.94 L 693.92 90.94 L 704.30 90.94 L 714.68 90.94 L 725.06 90.94 L 735.44 90.94 L 745.82 90.94 L 756.20 90.94 L 766.58 90.94 L 776.96 123.79 L 787.34 123.79 L 797.72 123.79 L 808.10 123.79 L 818.48 123.79 L 828.86 123.79 L 839.24 123.79 L 849.62 123.79 L 860.00 123.79" fill="none" stroke="#3fb950" stroke-width="2"/>
    <circle cx="860.00" cy="123.79" r="3" fill="#3fb950"/>
    <text x="40.00" y="235.00" font-size="9" fill="#c9d1d9" text-anchor="middle" transform="rotate(-45 40.00 235.00)">09.08.2025</text><text x="123.04" y="235.00" font-size="9" fill="#c9d1d9" text-anchor="middle" transform="rotate(-45 123.04 235.00)">12.08.2025</text><text x="206.08" y="235.00" font-size="9" fill="#c9d1d9" text-anchor="middle" transform="rotate(-45 206.08 235.00)">13.08.2025</text><text x="289.11" y="235.00" font-size="9" fill="#c9d1d9" text-anchor="middle" transform="rotate(-45 289.11 235.00)">18.08.2025</text><text x="372.15" y="235.00" font-size="9" fill="#c9d1d9" text-anchor="middle" transform="rotate(-45 372.15 235.00)">21.08.2025</text><text x="455.19" y="235.00" font-size="9" fill="#c9d1d9" text-anchor="middle" transform="rotate(-45 455.19 235.00)">26.08.2025</text><text x="538.23" y="235.00" font-size="9" fill="#c9d1d9" text-anchor="middle" transform="rotate(-45 538.23 235.00)">29.08.2025</text><text x="621.27" y="235.00" font-size="9" fill="#c9d1d9" text-anchor="middle" transform="rotate(-45 621.27 235.00)">06.09.2025</text><text x="704.30" y="235.00" font-size="9" fill="#c9d1d9" text-anchor="middle" transform="rotate(-45 704.30 235.00)">14.09.2025</text><text x="787.34" y="235.00" font-size="9" fill="#c9d1d9" text-anchor="middle" transform="rotate(-45 787.34 235.00)">21.09.2025</text>
  </g>
</svg>