<svg xmlns="http://www.w3.org/2000/svg" width="900" height="290" style="font-family: -apple-system, BlinkMacSystemFont, 'Segoe UI', Helvetica, Arial, sans-serif;">
  <rect width="100%" height="100%" fill="white"/>
  <g>
    <line x1="40" y1="220.00" x2="860" y2="220.00" stroke="#e5e7eb"/><text x="32" y="224.00" font-size="10" fill="#111827" text-anchor="end">0</text><line x1="40" y1="175.00" x2="860" y2="175.00" stroke="#e5e7eb"/><text x="32" y="179.00" font-size="10" fill="#111827" text-anchor="end">500</text><line x1="40" y1="130.00" x2="860" y2="130.00" stroke="#e5e7eb"/><text x="32" y="134.00" font-size="10" fill="#111827" text-anchor="end">1k</text><line x1="40" y1="85.00" x2="860" y2="85.00" stroke="#e5e7eb"/><text x="32" y="89.00" font-size="10" fill="#111827" text-anchor="end">1.5k</text><line x1="40" y1="40.00" x2="860" y2="40.00" stroke="#e5e7eb"/><text x="32" y="44.00" font-size="10" fill="#111827" text-anchor="end">2k</text>
    <line x1="40.00" y1="40" x2="40.00" y2="220" stroke="#e5e7eb" opacity="0.5"/><line x1="112.35" y1="40" x2="112.35" y2="220" stroke="#e5e7eb" opacity="0.5"/><line x1="184.71" y1="40" x2="184.71" y2="220" stroke="#e5e7eb" opacity="0.5"/><line x1="257.06" y1="40" x2="257.06" y2="220" stroke="#e5e7eb" opacity="0.5"/><line x1="329.41" y1="40" x2="329.41" y2="220" stroke="#e5e7eb" opacity="0.5"/><line x1="401.76" y1="40" x2="401.76" y2="220" stroke="#e5e7eb" opacity="0.5"/><line x1="474.12" y1="40" x2="474.12" y2="220" stroke="#e5e7eb" opacity="0.5"/><line x1="546.47" y1="40" x2="546.47" y2="220" stroke="#e5e7eb" opacity="0.5"/><line x1="618.82" y1="40" x2="618.82" y2="220" stroke="#e5e7eb" opacity="0.5"/><line x1="691.18" y1="40" x2="691.18" y2="220" stroke="#e5e7eb" opacity="0.5"/><line x1="763.53" y1="40" x2="763.53" y2="220" stroke="#e5e7eb" opacity="0.5"/><line x1="835.88" y1="40" x2="835.88" y2="220" stroke="#e5e7eb" opacity="0.5"/>
    <line x1="40" y1="220" x2="860" y2="220" stroke="#9ca3af"/>
    <line x1="40" y1="40"   x2="40"   y2="220" stroke="#9ca3af"/>
    <path d="M 40.00 219.82 L 52.06 211.81 L 64.12 211.81 L 76.18 211.81 L 88.24 171.85 L 100.29 171.58 L 112.35 164.38 L 124.41 118.93 L 136.47 119.11 L 148.53 111.10 L 160.59 110.56 L 172.65 110.56 L 184.71 110.56 L 196.76 95.35 L 208.82 95.35 L 220.88 95.35 L 232.94 94.63 L 245.00 94.54 L 257.06 94.45 L 269.12 94.09 L 281.18 94.09 L 293.24 94.09 L 305.29 94.09 L 317.35 94.09 L 329.41 94.09 L 341.47 94.09 L 353.53 94.09 L 365.59 94.09 L 377.65 91.84 L 389.71 83.65 L 401.76 83.65 L 413.82 83.47 L 425.88 83.65 L 437.94 91.03 L 450.00 91.03 L 462.06 91.03 L 474.12 91.03 L 486.18 91.03 L 498.24 91.03 L 510.29 91.03 L 522.35 91.03 L 534.41 91.03 L 546.47 91.03 L 558.53 91.03 L 570.59 90.94 L 582.65 91.03 L 594.71 90.94 L 606.76 90.94 L 618.82 90.94 L 630.88 90.94 L 642.94 90.94 L 655.00 90.94 L 667.06 90.94 L 679.12 90.94 L 691.18 90.94 L 703.24 90.94 L 715.29 90.94 L 727.35 90.94 L 739.41 90.94 L 751.47 90.94 L 763.53 90.94 L 775.59 90.94 L 787.65 90.94 L 799.71 90.94 L 811.76 90.94 L 823.82 90.94 L 835.88 90.94 L 847.94 90.94 L 860.00 90.94" fill="none" stroke="#111827" stroke-width="2"/>
    <circle cx="860.00" cy="90.94" r="3" fill="#111827"/>
    <text x="40.00" y="235.00" font-size="9" fill="#111827" text-anchor="middle" transform="rotate(-45 40.00 235.00)">09.08.2025</text><text x="112.35" y="235.00" font-size="9" fill="#111827" text-anchor="middle" transform="rotate(-45 112.35 235.00)">09.08.2025</text><text x="184.71" y="235.00" font-size="9" fill="#111827" text-anchor="middle" transform="rotate(-45 184.71 235.00)">13.08.2025</text><text x="257.06" y="235.00" font-size="9" fill="#111827" text-anchor="middle" transform="rotate(-45 257.06 235.00)">13.08.2025</text><text x="329.41" y="235.00" font-size="9" fill="#111827" text-anchor="middle" transform="rotate(-45 329.41 235.00)">18.08.2025</text><text x="401.76" y="235.00" font-size="9" fill="#111827" text-anchor="middle" transform="rotate(-45 401.76 235.00)">21.08.2025</text><text x="474.12" y="235.00" font-size="9" fill="#111827" text-anchor="middle" transform="rotate(-45 474.12 235.00)">22.08.2025</text><text x="546.47" y="235.00" font-size="9" fill="#111827" text-anchor="middle" transform="rotate(-45 546.47 235.00)">28.08.2025</text><text x="618.82" y="235.00" font-size="9" fill="#111827" text-anchor="middle" transform="rotate(-45 618.82 235.00)">29.08.2025</text><text x="691.18" y="235.00" font-size="9" fill="#111827" text-anchor="middle" transform="rotate(-45 691.18 235.00)">04.09.2025</text><text x="763.53" y="235.00" font-size="9" fill="#111827" text-anchor="middle" transform="rotate(-45 763.53 235.00)">10.09.2025</text><text x="835.88" y="235.00" font-size="9" fill="#111827" text-anchor="middle" transform="rotate(-45 835.88 235.00)">16.09.2025</text>
  </g>
</svg>