<svg xmlns="http://www.w3.org/2000/svg" width="900" height="290" style="font-family: -apple-system, BlinkMacSystemFont, 'Segoe UI', Helvetica, Arial, sans-serif;">
  <rect width="100%" height="100%" fill="white"/>
  <g>
    <line x1="40" y1="220.00" x2="860" y2="220.00" stroke="#e5e7eb"/><text x="32" y="224.00" font-size="10" fill="#111827" text-anchor="end">0</text><line x1="40" y1="175.00" x2="860" y2="175.00" stroke="#e5e7eb"/><text x="32" y="179.00" font-size="10" fill="#111827" text-anchor="end">500</text><line x1="40" y1="130.00" x2="860" y2="130.00" stroke="#e5e7eb"/><text x="32" y="134.00" font-size="10" fill="#111827" text-anchor="end">1k</text><line x1="40" y1="85.00" x2="860" y2="85.00" stroke="#e5e7eb"/><text x="32" y="89.00" font-size="10" fill="#111827" text-anchor="end">1.5k</text><line x1="40" y1="40.00" x2="860" y2="40.00" stroke="#e5e7eb"/><text x="32" y="44.00" font-size="10" fill="#111827" text-anchor="end">2k</text>
    <line x1="40.00" y1="40" x2="40.00" y2="220" stroke="#e5e7eb" opacity="0.5"/><line x1="122.00" y1="40" x2="122.00" y2="220" stroke="#e5e7eb" opacity="0.5"/><line x1="204.00" y1="40" x2="204.00" y2="220" stroke="#e5e7eb" opacity="0.5"/><line x1="286.00" y1="40" x2="286.00" y2="220" stroke="#e5e7eb" opacity="0.5"/><line x1="368.00" y1="40" x2="368.00" y2="220" stroke="#e5e7eb" opacity="0.5"/><line x1="450.00" y1="40" x2="450.00" y2="220" stroke="#e5e7eb" opacity="0.5"/><line x1="532.00" y1="40" x2="532.00" y2="220" stroke="#e5e7eb" opacity="0.5"/><line x1="614.00" y1="40" x2="614.00" y2="220" stroke="#e5e7eb" opacity="0.5"/><line x1="696.00" y1="40" x2="696.00" y2="220" stroke="#e5e7eb" opacity="0.5"/><line x1="778.00" y1="40" x2="778.00" y2="220" stroke="#e5e7eb" opacity="0.5"/><line x1="860.00" y1="40" x2="860.00" y2="220" stroke="#e5e7eb" opacity="0.5"/>
    <line x1="40" y1="220" x2="860" y2="220" stroke="#9ca3af"/>
    <line x1="40" y1="40"   x2="40"   y2="220" stroke="#9ca3af"/>
    <path d="M 40.00 219.82 L 46.83 211.81 L 53.67 211.81 L 60.50 211.81 L 67.33 171.85 L 74.17 171.58 L 81.00 164.38 L 87.83 118.93 L 94.67 119.11 L 101.50 111.10 L 108.33 110.56 L 115.17 110.56 L 122.00 110.56 L 128.83 95.35 L 135.67 95.35 L 142.50 95.35 L 149.33 94.63 L 156.17 94.54 L 163.00 94.45 L 169.83 94.09 L 176.67 94.09 L 183.50 94.09 L 190.33 94.09 L 197.17 94.09 L 204.00 94.09 L 210.83 94.09 L 217.67 94.09 L 224.50 94.09 L 231.33 91.84 L 238.17 83.65 L 245.00 83.65 L 251.83 83.47 L 258.67 83.65 L 265.50 91.03 L 272.33 91.03 L 279.17 91.03 L 286.00 91.03 L 292.83 91.03 L 299.67 91.03 L 306.50 91.03 L 313.33 91.03 L 320.17 91.03 L 327.00 91.03 L 333.83 91.03 L 340.67 90.94 L 347.50 91.03 L 354.33 90.94 L 361.17 90.94 L 368.00 90.94 L 374.83 90.94 L 381.67 90.94 L 388.50 90.94 L 395.33 90.94 L 402.17 90.94 L 409.00 90.94 L 415.83 90.94 L 422.67 90.94 L 429.50 90.94 L 436.33 90.94 L 443.17 90.94 L 450.00 90.94 L 456.83 90.94 L 463.67 90.94 L 470.50 90.94 L 477.33 90.94 L 484.17 90.94 L 491.00 90.94 L 497.83 90.94 L 504.67 90.94 L 511.50 90.94 L 518.33 90.94 L 525.17 123.79 L 532.00 123.79 L 538.83 123.79 L 545.67 123.79 L 552.50 123.79 L 559.33 123.79 L 566.17 123.79 L 573.00 123.79 L 579.83 123.79 L 586.67 123.79 L 593.50 123.79 L 600.33 123.79 L 607.17 123.79 L 614.00 123.79 L 620.83 123.79 L 627.67 123.79 L 634.50 123.79 L 641.33 123.79 L 648.17 123.79 L 655.00 123.79 L 661.83 123.79 L 668.67 123.79 L 675.50 123.79 L 682.33 123.79 L 689.17 123.79 L 696.00 123.79 L 702.83 123.79 L 709.67 123.79 L 716.50 123.79 L 723.33 123.79 L 730.17 123.79 L 737.00 123.79 L 743.83 123.79 L 750.67 123.79 L 757.50 123.79 L 764.33 123.79 L 771.17 123.79 L 778.00 123.79 L 784.83 123.79 L 791.67 123.79 L 798.50 123.79 L 805.33 123.79 L 812.17 123.79 L 819.00 123.79 L 825.83 123.79 L 832.67 123.79 L 839.50 123.79 L 846.33 123.79 L 853.17 123.79 L 860.00 123.79" fill="none" stroke="#111827" stroke-width="2"/>
    <circle cx="860.00" cy="123.79" r="3" fill="#111827"/>
    <text x="40.00" y="235.00" font-size="9" fill="#111827" text-anchor="middle" transform="rotate(-45 40.00 235.00)">09.08.2025</text><text x="122.00" y="235.00" font-size="9" fill="#111827" text-anchor="middle" transform="rotate(-45 122.00 235.00)">13.08.2025</text><text x="204.00" y="235.00" font-size="9" fill="#111827" text-anchor="middle" transform="rotate(-45 204.00 235.00)">18.08.2025</text><text x="286.00" y="235.00" font-size="9" fill="#111827" text-anchor="middle" transform="rotate(-45 286.00 235.00)">22.08.2025</text><text x="368.00" y="235.00" font-size="9" fill="#111827" text-anchor="middle" transform="rotate(-45 368.00 235.00)">29.08.2025</text><text x="450.00" y="235.00" font-size="9" fill="#111827" text-anchor="middle" transform="rotate(-45 450.00 235.00)">10.09.2025</text><text x="532.00" y="235.00" font-size="9" fill="#111827" text-anchor="middle" transform="rotate(-45 532.00 235.00)">21.09.2025</text><text x="614.00" y="235.00" font-size="9" fill="#111827" text-anchor="middle" transform="rotate(-45 614.00 235.00)">02.10.2025</text><text x="696.00" y="235.00" font-size="9" fill="#111827" text-anchor="middle" transform="rotate(-45 696.00 235.00)">14.10.2025</text><text x="778.00" y="235.00" font-size="9" fill="#111827" text-anchor="middle" transform="rotate(-45 778.00 235.00)">26.10.2025</text><text x="860.00" y="235.00" font-size="9" fill="#111827" text-anchor="middle" transform="rotate(-45 860.00 235.00)">07.11.2025</text>
  </g>
</svg>