<svg xmlns="http://www.w3.org/2000/svg" width="900" height="290" style="font-family: -apple-system, BlinkMacSystemFont, 'Segoe UI', Helvetica, Arial, sans-serif;">
  <rect width="100%" height="100%" fill="#0d1117"/>
  <g>
    <line x1="40" y1="220.00" x2="860" y2="220.00" stroke="#30363d"/><text x="32" y="224.00" font-size="10" fill="#c9d1d9" text-anchor="end">0</text><line x1="40" y1="175.00" x2="860" y2="175.00" stroke="#30363d"/><text x="32" y="179.00" font-size="10" fill="#c9d1d9" text-anchor="end">500</text><line x1="40" y1="130.00" x2="860" y2="130.00" stroke="#30363d"/><text x="32" y="134.00" font-size="10" fill="#c9d1d9" text-anchor="end">1k</text><line x1="40" y1="85.00" x2="860" y2="85.00" stroke="#30363d"/><text x="32" y="89.00" font-size="10" fill="#c9d1d9" text-anchor="end">1.5k</text><line x1="40" y1="40.00" x2="860" y2="40.00" stroke="#30363d"/><text x="32" y="44.00" font-size="10" fill="#c9d1d9" text-anchor="end">2k</text>
    <line x1="40.00" y1="40" x2="40.00" y2="220" stroke="#30363d" opacity="0.5"/><line x1="119.49" y1="40" x2="119.49" y2="220" stroke="#30363d" opacity="0.5"/><line x1="198.98" y1="40" x2="198.98" y2="220" stroke="#30363d" opacity="0.5"/><line x1="278.47" y1="40" x2="278.47" y2="220" stroke="#30363d" opacity="0.5"/><line x1="357.96" y1="40" x2="357.96" y2="220" stroke="#30363d" opacity="0.5"/><line x1="437.45" y1="40" x2="437.45" y2="220" stroke="#30363d" opacity="0.5"/><line x1="516.94" y1="40" x2="516.94" y2="220" stroke="#30363d" opacity="0.5"/><line x1="596.43" y1="40" x2="596.43" y2="220" stroke="#30363d" opacity="0.5"/><line x1="675.92" y1="40" x2="675.92" y2="220" stroke="#30363d" opacity="0.5"/><line x1="755.41" y1="40" x2="755.41" y2="220" stroke="#30363d" opacity="0.5"/><line x1="834.90" y1="40" x2="834.90" y2="220" stroke="#30363d" opacity="0.5"/>
    <line x1="40" y1="220" x2="860" y2="220" stroke="#30363d"/>
    <line x1="40" y1="40"   x2="40"   y2="220" stroke="#30363d"/>
    <path d="M 40.00 219.82 L 44.18 211.81 L 48.37 211.81 L 52.55 211.81 L 56.73 171.85 L 60.92 171.58 L 65.10 164.38 L 69.29 118.93 L 73.47 119.11 L 77.65 111.10 L 81.84 110.56 L 86.02 110.56 L 90.20 110.56 L 94.39 95.35 L 98.57 95.35 L 102.76 95.35 L 106.94 94.63 L 111.12 94.54 L 115.31 94.45 L 119.49 94.09 L 123.67 94.09 L 127.86 94.09 L 132.04 94.09 L 136.22 94.09 L 140.41 94.09 L 144.59 94.09 L 148.78 94.09 L 152.96 94.09 L 157.14 91.84 L 161.33 83.65 L 165.51 83.65 L 169.69 83.47 L 173.88 83.65 L 178.06 91.03 L 182.24 91.03 L 186.43 91.03 L 190.61 91.03 L 194.80 91.03 L 198.98 91.03 L 203.16 91.03 L 207.35 91.03 L 211.53 91.03 L 215.71 91.03 L 219.90 91.03 L 224.08 90.94 L 228.27 91.03 L 232.45 90.94 L 236.63 90.94 L 240.82 90.94 L 245.00 90.94 L 249.18 90.94 L 253.37 90.94 L 257.55 90.94 L 261.73 90.94 L 265.92 90.94 L 270.10 90.94 L 274.29 90.94 L 278.47 90.94 L 282.65 90.94 L 286.84 90.94 L 291.02 90.94 L 295.20 90.94 L 299.39 90.94 L 303.57 90.94 L 307.76 90.94 L 311.94 90.94 L 316.12 90.94 L 320.31 90.94 L 324.49 90.94 L 328.67 90.94 L 332.86 90.94 L 337.04 123.79 L 341.22 123.79 L 345.41 123.79 L 349.59 123.79 L 353.78 123.79 L 357.96 123.79 L 362.14 123.79 L 366.33 123.79 L 370.51 123.79 L 374.69 123.79 L 378.88 123.79 L 383.06 123.79 L 387.24 123.79 L 391.43 123.79 L 395.61 123.79 L 399.80 123.79 L 403.98 123.79 L 408.16 123.79 L 412.35 123.79 L 416.53 123.79 L 420.71 123.79 L 424.90 123.79 L 429.08 123.79 L 433.27 123.79 L 437.45 123.79 L 441.63 123.79 L 445.82 123.79 L 450.00 123.79 L 454.18 123.79 L 458.37 123.79 L 462.55 123.79 L 466.73 123.79 L 470.92 123.79 L 475.10 123.79 L 479.29 123.79 L 483.47 123.79 L 487.65 123.79 L 491.84 123.79 L 496.02 123.79 L 500.20 123.79 L 504.39 123.79 L 508.57 123.79 L 512.76 123.79 L 516.94 123.79 L 521.12 123.79 L 525.31 123.79 L 529.49 123.79 L 533.67 123.79 L 537.86 123.79 L 542.04 123.79 L 546.22 123.79 L 550.41 123.79 L 554.59 123.79 L 558.78 123.79 L 562.96 123.79 L 567.14 123.79 L 571.33 123.79 L 575.51 123.79 L 579.69 123.79 L 583.88 123.79 L 588.06 123.79 L 592.24 123.79 L 596.43 123.79 L 600.61 123.79 L 604.80 123.79 L 608.98 123.79 L 613.16 123.79 L 617.35 123.79 L 621.53 123.79 L 625.71 123.79 L 629.90 123.79 L 634.08 123.79 L 638.27 123.79 L 642.45 123.79 L 646.63 123.79 L 650.82 123.79 L 655.00 123.79 L 659.18 115.42 L 663.37 111.64 L 667.55 107.86 L 671.73 104.08 L 675.92 100.30 L 680.10 95.98 L 684.29 95.98 L 688.47 95.98 L 692.65 95.98 L 696.84 85.72 L 701.02 85.72 L 705.20 85.72 L 709.39 85.72 L 713.57 85.72 L 717.76 85.72 L 721.94 85.72 L 726.12 85.72 L 730.31 85.72 L 734.49 85.72 L 738.67 85.72 L 742.86 85.72 L 747.04 85.72 L 751.22 85.72 L 755.41 85.72 L 759.59 85.72 L 763.78 85.72 L 767.96 85.72 L 772.14 85.72 L 776.33 85.72 L 780.51 85.72 L 784.69 85.72 L 788.88 85.72 L 793.06 85.72 L 797.24 85.72 L 801.43 85.72 L 805.61 85.72 L 809.80 85.72 L 813.98 85.72 L 818.16 85.72 L 822.35 85.72 L 826.53 85.72 L 830.71 85.72 L 834.90 85.72 L 839.08 85.72 L 843.27 85.72 L 847.45 85.72 L 851.63 85.72 L 855.82 85.72 L 860.00 85.72" fill="none" stroke="#3fb950" stroke-width="2"/>
    <circle cx="860.00" cy="85.72" r="3" fill="#3fb950"/>
    <text x="40.00" y="235.00" font-size="9" fill="#c9d1d9" text-anchor="middle" transform="rotate(-45 40.00 235.00)">09.08.2025</text><text x="119.49" y="235.00" font-size="9" fill="#c9d1d9" text-anchor="middle" transform="rotate(-45 119.49 235.00)">13.08.2025</text><text x="198.98" y="235.00" font-size="9" fill="#c9d1d9" text-anchor="middle" transform="rotate(-45 198.98 235.00)">24.08.2025</text><text x="278.47" y="235.00" font-size="9" fill="#c9d1d9" text-anchor="middle" transform="rotate(-45 278.47 235.00)">07.09.2025</text><text x="357.96" y="235.00" font-size="9" fill="#c9d1d9" text-anchor="middle" transform="rotate(-45 357.96 235.00)">24.09.2025</text><text x="437.45" y="235.00" font-size="9" fill="#c9d1d9" text-anchor="middle" transform="rotate(-45 437.45 235.00)">13.10.2025</text><text x="516.94" y="235.00" font-size="9" fill="#c9d1d9" text-anchor="middle" transform="rotate(-45 516.94 235.00)">01.11.2025</text><text x="596.43" y="235.00" font-size="9" fill="#c9d1d9" text-anchor="middle" transform="rotate(-45 596.43 235.00)">20.11.2025</text><text x="675.92" y="235.00" font-size="9" fill="#c9d1d9" text-anchor="middle" transform="rotate(-45 675.92 235.00)">04.12.2025</text><text x="755.41" y="235.00" font-size="9" fill="#c9d1d9" text-anchor="middle" transform="rotate(-45 755.41 235.00)">21.12.2025</text><text x="834.90" y="235.00" font-size="9" fill="#c9d1d9" text-anchor="middle" transform="rotate(-45 834.90 235.00)">09.01.2026</text>
  </g>
</svg>