<svg xmlns="http://www.w3.org/2000/svg" width="900" height="290" style="font-family: -apple-system, BlinkMacSystemFont, 'Segoe UI', Helvetica, Arial, sans-serif;">
  <rect width="100%" height="100%" fill="#0d1117"/>
  <g>
    <line x1="40" y1="220.00" x2="860" y2="220.00" stroke="#30363d"/><text x="32" y="224.00" font-size="10" fill="#c9d1d9" text-anchor="end">0</text><line x1="40" y1="175.00" x2="860" y2="175.00" stroke="#30363d"/><text x="32" y="179.00" font-size="10" fill="#c9d1d9" text-anchor="end">500</text><line x1="40" y1="130.00" x2="860" y2="130.00" stroke="#30363d"/><text x="32" y="134.00" font-size="10" fill="#c9d1d9" text-anchor="end">1k</text><line x1="40" y1="85.00" x2="860" y2="85.00" stroke="#30363d"/><text x="32" y="89.00" font-size="10" fill="#c9d1d9" text-anchor="end">1.5k</text><line x1="40" y1="40.00" x2="860" y2="40.00" stroke="#30363d"/><text x="32" y="44.00" font-size="10" fill="#c9d1d9" text-anchor="end">2k</text>
    <line x1="40.00" y1="40" x2="40.00" y2="220" stroke="#30363d" opacity="0.5"/><line x1="122.41" y1="40" x2="122.41" y2="220" stroke="#30363d" opacity="0.5"/><line x1="204.82" y1="40" x2="204.82" y2="220" stroke="#30363d" opacity="0.5"/><line x1="287.24" y1="40" x2="287.24" y2="220" stroke="#30363d" opacity="0.5"/><line x1="369.65" y1="40" x2="369.65" y2="220" stroke="#30363d" opacity="0.5"/><line x1="452.06" y1="40" x2="452.06" y2="220" stroke="#30363d" opacity="0.5"/><line x1="534.47" y1="40" x2="534.47" y2="220" stroke="#30363d" opacity="0.5"/><line x1="616.88" y1="40" x2="616.88" y2="220" stroke="#30363d" opacity="0.5"/><line x1="699.30" y1="40" x2="699.30" y2="220" stroke="#30363d" opacity="0.5"/><line x1="781.71" y1="40" x2="781.71" y2="220" stroke="#30363d" opacity="0.5"/>
    <line x1="40" y1="220" x2="860" y2="220" stroke="#30363d"/>
    <line x1="40" y1="40"   x2="40"   y2="220" stroke="#30363d"/>
    <path d="M 40.00 219.82 L 44.12 211.81 L 48.24 211.81 L 52.36 211.81 L 56.48 171.85 L 60.60 171.58 L 64.72 164.38 L 68.84 118.93 L 72.96 119.11 L 77.09 111.10 L 81.21 110.56 L 85.33 110.56 L 89.45 110.56 L 93.57 95.35 L 97.69 95.35 L 101.81 95.35 L 105.93 94.63 L 110.05 94.54 L 114.17 94.45 L 118.29 94.09 L 122.41 94.09 L 126.53 94.09 L 130.65 94.09 L 134.77 94.09 L 138.89 94.09 L 143.02 94.09 L 147.14 94.09 L 151.26 94.09 L 155.38 91.84 L 159.50 83.65 L 163.62 83.65 L 167.74 83.47 L 171.86 83.65 L 175.98 91.03 L 180.10 91.03 L 184.22 91.03 L 188.34 91.03 L 192.46 91.03 L 196.58 91.03 L 200.70 91.03 L 204.82 91.03 L 208.94 91.03 L 213.07 91.03 L 217.19 91.03 L 221.31 90.94 L 225.43 91.03 L 229.55 90.94 L 233.67 90.94 L 237.79 90.94 L 241.91 90.94 L 246.03 90.94 L 250.15 90.94 L 254.27 90.94 L 258.39 90.94 L 262.51 90.94 L 266.63 90.94 L 270.75 90.94 L 274.87 90.94 L 278.99 90.94 L 283.12 90.94 L 287.24 90.94 L 291.36 90.94 L 295.48 90.94 L 299.60 90.94 L 303.72 90.94 L 307.84 90.94 L 311.96 90.94 L 316.08 90.94 L 320.20 90.94 L 324.32 90.94 L 328.44 90.94 L 332.56 123.79 L 336.68 123.79 L 340.80 123.79 L 344.92 123.79 L 349.05 123.79 L 353.17 123.79 L 357.29 123.79 L 361.41 123.79 L 365.53 123.79 L 369.65 123.79 L 373.77 123.79 L 377.89 123.79 L 382.01 123.79 L 386.13 123.79 L 390.25 123.79 L 394.37 123.79 L 398.49 123.79 L 402.61 123.79 L 406.73 123.79 L 410.85 123.79 L 414.97 123.79 L 419.10 123.79 L 423.22 123.79 L 427.34 123.79 L 431.46 123.79 L 435.58 123.79 L 439.70 123.79 L 443.82 123.79 L 447.94 123.79 L 452.06 123.79 L 456.18 123.79 L 460.30 123.79 L 464.42 123.79 L 468.54 123.79 L 472.66 123.79 L 476.78 123.79 L 480.90 123.79 L 485.03 123.79 L 489.15 123.79 L 493.27 123.79 L 497.39 123.79 L 501.51 123.79 L 505.63 123.79 L 509.75 123.79 L 513.87 123.79 L 517.99 123.79 L 522.11 123.79 L 526.23 123.79 L 530.35 123.79 L 534.47 123.79 L 538.59 123.79 L 542.71 123.79 L 546.83 123.79 L 550.95 123.79 L 555.08 123.79 L 559.20 123.79 L 563.32 123.79 L 567.44 123.79 L 571.56 123.79 L 575.68 123.79 L 579.80 123.79 L 583.92 123.79 L 588.04 123.79 L 592.16 123.79 L 596.28 123.79 L 600.40 123.79 L 604.52 123.79 L 608.64 123.79 L 612.76 123.79 L 616.88 123.79 L 621.01 123.79 L 625.13 123.79 L 629.25 123.79 L 633.37 123.79 L 637.49 123.79 L 641.61 123.79 L 645.73 123.79 L 649.85 115.42 L 653.97 111.64 L 658.09 107.86 L 662.21 104.08 L 666.33 100.30 L 670.45 95.98 L 674.57 95.98 L 678.69 95.98 L 682.81 95.98 L 686.93 85.72 L 691.06 85.72 L 695.18 85.72 L 699.30 85.72 L 703.42 85.72 L 707.54 85.72 L 711.66 85.72 L 715.78 85.72 L 719.90 85.72 L 724.02 85.72 L 728.14 85.72 L 732.26 85.72 L 736.38 85.72 L 740.50 85.72 L 744.62 85.72 L 748.74 85.72 L 752.86 85.72 L 756.98 85.72 L 761.11 85.72 L 765.23 85.72 L 769.35 85.72 L 773.47 85.72 L 777.59 85.72 L 781.71 85.72 L 785.83 85.72 L 789.95 85.72 L 794.07 85.72 L 798.19 85.72 L 802.31 85.72 L 806.43 85.72 L 810.55 85.72 L 814.67 85.72 L 818.79 85.72 L 822.91 85.72 L 827.04 85.72 L 831.16 85.72 L 835.28 85.72 L 839.40 85.72 L 843.52 85.72 L 847.64 85.72 L 851.76 85.72 L 855.88 85.72 L 860.00 85.72" fill="none" stroke="#3fb950" stroke-width="2"/>
    <circle cx="860.00" cy="85.72" r="3" fill="#3fb950"/>
    <text x="40.00" y="235.00" font-size="9" fill="#c9d1d9" text-anchor="middle" transform="rotate(-45 40.00 235.00)">09.08.2025</text><text x="122.41" y="235.00" font-size="9" fill="#c9d1d9" text-anchor="middle" transform="rotate(-45 122.41 235.00)">14.08.2025</text><text x="204.82" y="235.00" font-size="9" fill="#c9d1d9" text-anchor="middle" transform="rotate(-45 204.82 235.00)">26.08.2025</text><text x="287.24" y="235.00" font-size="9" fill="#c9d1d9" text-anchor="middle" transform="rotate(-45 287.24 235.00)">10.09.2025</text><text x="369.65" y="235.00" font-size="9" fill="#c9d1d9" text-anchor="middle" transform="rotate(-45 369.65 235.00)">28.09.2025</text><text x="452.06" y="235.00" font-size="9" fill="#c9d1d9" text-anchor="middle" transform="rotate(-45 452.06 235.00)">18.10.2025</text><text x="534.47" y="235.00" font-size="9" fill="#c9d1d9" text-anchor="middle" transform="rotate(-45 534.47 235.00)">07.11.2025</text><text x="616.88" y="235.00" font-size="9" fill="#c9d1d9" text-anchor="middle" transform="rotate(-45 616.88 235.00)">27.11.2025</text><text x="699.30" y="235.00" font-size="9" fill="#c9d1d9" text-anchor="middle" transform="rotate(-45 699.30 235.00)">10.12.2025</text><text x="781.71" y="235.00" font-size="9" fill="#c9d1d9" text-anchor="middle" transform="rotate(-45 781.71 235.00)">30.12.2025</text>
  </g>
</svg>