<svg xmlns="http://www.w3.org/2000/svg" width="900" height="290" style="font-family: -apple-system, BlinkMacSystemFont, 'Segoe UI', Helvetica, Arial, sans-serif;">
  <rect width="100%" height="100%" fill="white"/>
  <g>
    <line x1="40" y1="220.00" x2="860" y2="220.00" stroke="#e5e7eb"/><text x="32" y="224.00" font-size="10" fill="#111827" text-anchor="end">0</text><line x1="40" y1="175.00" x2="860" y2="175.00" stroke="#e5e7eb"/><text x="32" y="179.00" font-size="10" fill="#111827" text-anchor="end">500</text><line x1="40" y1="130.00" x2="860" y2="130.00" stroke="#e5e7eb"/><text x="32" y="134.00" font-size="10" fill="#111827" text-anchor="end">1k</text><line x1="40" y1="85.00" x2="860" y2="85.00" stroke="#e5e7eb"/><text x="32" y="89.00" font-size="10" fill="#111827" text-anchor="end">1.5k</text><line x1="40" y1="40.00" x2="860" y2="40.00" stroke="#e5e7eb"/><text x="32" y="44.00" font-size="10" fill="#111827" text-anchor="end">2k</text>
    <line x1="40.00" y1="40" x2="40.00" y2="220" stroke="#e5e7eb" opacity="0.5"/><line x1="120.66" y1="40" x2="120.66" y2="220" stroke="#e5e7eb" opacity="0.5"/><line x1="201.31" y1="40" x2="201.31" y2="220" stroke="#e5e7eb" opacity="0.5"/><line x1="281.97" y1="40" x2="281.97" y2="220" stroke="#e5e7eb" opacity="0.5"/><line x1="362.62" y1="40" x2="362.62" y2="220" stroke="#e5e7eb" opacity="0.5"/><line x1="443.28" y1="40" x2="443.28" y2="220" stroke="#e5e7eb" opacity="0.5"/><line x1="523.93" y1="40" x2="523.93" y2="220" stroke="#e5e7eb" opacity="0.5"/><line x1="604.59" y1="40" x2="604.59" y2="220" stroke="#e5e7eb" opacity="0.5"/><line x1="685.25" y1="40" x2="685.25" y2="220" stroke="#e5e7eb" opacity="0.5"/><line x1="765.90" y1="40" x2="765.90" y2="220" stroke="#e5e7eb" opacity="0.5"/><line x1="846.56" y1="40" x2="846.56" y2="220" stroke="#e5e7eb" opacity="0.5"/>
    <line x1="40" y1="220" x2="860" y2="220" stroke="#9ca3af"/>
    <line x1="40" y1="40"   x2="40"   y2="220" stroke="#9ca3af"/>
    <path d="M 40.00 219.82 L 44.48 211.81 L 48.96 211.81 L 53.44 211.81 L 57.92 171.85 L 62.40 171.58 L 66.89 164.38 L 71.37 118.93 L 75.85 119.11 L 80.33 111.10 L 84.81 110.56 L 89.29 110.56 L 93.77 110.56 L 98.25 95.35 L 102.73 95.35 L 107.21 95.35 L 111.69 94.63 L 116.17 94.54 L 120.66 94.45 L 125.14 94.09 L 129.62 94.09 L 134.10 94.09 L 138.58 94.09 L 143.06 94.09 L 147.54 94.09 L 152.02 94.09 L 156.50 94.09 L 160.98 94.09 L 165.46 91.84 L 169.95 83.65 L 174.43 83.65 L 178.91 83.47 L 183.39 83.65 L 187.87 91.03 L 192.35 91.03 L 196.83 91.03 L 201.31 91.03 L 205.79 91.03 L 210.27 91.03 L 214.75 91.03 L 219.23 91.03 L 223.72 91.03 L 228.20 91.03 L 232.68 91.03 L 237.16 90.94 L 241.64 91.03 L 246.12 90.94 L 250.60 90.94 L 255.08 90.94 L 259.56 90.94 L 264.04 90.94 L 268.52 90.94 L 273.01 90.94 L 277.49 90.94 L 281.97 90.94 L 286.45 90.94 L 290.93 90.94 L 295.41 90.94 L 299.89 90.94 L 304.37 90.94 L 308.85 90.94 L 313.33 90.94 L 317.81 90.94 L 322.30 90.94 L 326.78 90.94 L 331.26 90.94 L 335.74 90.94 L 340.22 90.94 L 344.70 90.94 L 349.18 90.94 L 353.66 90.94 L 358.14 123.79 L 362.62 123.79 L 367.10 123.79 L 371.58 123.79 L 376.07 123.79 L 380.55 123.79 L 385.03 123.79 L 389.51 123.79 L 393.99 123.79 L 398.47 123.79 L 402.95 123.79 L 407.43 123.79 L 411.91 123.79 L 416.39 123.79 L 420.87 123.79 L 425.36 123.79 L 429.84 123.79 L 434.32 123.79 L 438.80 123.79 L 443.28 123.79 L 447.76 123.79 L 452.24 123.79 L 456.72 123.79 L 461.20 123.79 L 465.68 123.79 L 470.16 123.79 L 474.64 123.79 L 479.13 123.79 L 483.61 123.79 L 488.09 123.79 L 492.57 123.79 L 497.05 123.79 L 501.53 123.79 L 506.01 123.79 L 510.49 123.79 L 514.97 123.79 L 519.45 123.79 L 523.93 123.79 L 528.42 123.79 L 532.90 123.79 L 537.38 123.79 L 541.86 123.79 L 546.34 123.79 L 550.82 123.79 L 555.30 123.79 L 559.78 123.79 L 564.26 123.79 L 568.74 123.79 L 573.22 123.79 L 577.70 123.79 L 582.19 123.79 L 586.67 123.79 L 591.15 123.79 L 595.63 123.79 L 600.11 123.79 L 604.59 123.79 L 609.07 123.79 L 613.55 123.79 L 618.03 123.79 L 622.51 123.79 L 626.99 123.79 L 631.48 123.79 L 635.96 123.79 L 640.44 123.79 L 644.92 123.79 L 649.40 123.79 L 653.88 123.79 L 658.36 123.79 L 662.84 123.79 L 667.32 123.79 L 671.80 123.79 L 676.28 123.79 L 680.77 123.79 L 685.25 123.79 L 689.73 123.79 L 694.21 123.79 L 698.69 123.79 L 703.17 115.42 L 707.65 111.64 L 712.13 107.86 L 716.61 104.08 L 721.09 100.30 L 725.57 95.98 L 730.05 95.98 L 734.54 95.98 L 739.02 95.98 L 743.50 85.72 L 747.98 85.72 L 752.46 85.72 L 756.94 85.72 L 761.42 85.72 L 765.90 85.72 L 770.38 85.72 L 774.86 85.72 L 779.34 85.72 L 783.83 85.72 L 788.31 85.72 L 792.79 85.72 L 797.27 85.72 L 801.75 85.72 L 806.23 85.72 L 810.71 85.72 L 815.19 85.72 L 819.67 85.72 L 824.15 85.72 L 828.63 85.72 L 833.11 85.72 L 837.60 85.72 L 842.08 85.72 L 846.56 85.72 L 851.04 85.72 L 855.52 85.72 L 860.00 85.72" fill="none" stroke="#111827" stroke-width="2"/>
    <circle cx="860.00" cy="85.72" r="3" fill="#111827"/>
    <text x="40.00" y="235.00" font-size="9" fill="#111827" text-anchor="middle" transform="rotate(-45 40.00 235.00)">09.08.2025</text><text x="120.66" y="235.00" font-size="9" fill="#111827" text-anchor="middle" transform="rotate(-45 120.66 235.00)">13.08.2025</text><text x="201.31" y="235.00" font-size="9" fill="#111827" text-anchor="middle" transform="rotate(-45 201.31 235.00)">22.08.2025</text><text x="281.97" y="235.00" font-size="9" fill="#111827" text-anchor="middle" transform="rotate(-45 281.97 235.00)">04.09.2025</text><text x="362.62" y="235.00" font-size="9" fill="#111827" text-anchor="middle" transform="rotate(-45 362.62 235.00)">21.09.2025</text><text x="443.28" y="235.00" font-size="9" fill="#111827" text-anchor="middle" transform="rotate(-45 443.28 235.00)">08.10.2025</text><text x="523.93" y="235.00" font-size="9" fill="#111827" text-anchor="middle" transform="rotate(-45 523.93 235.00)">26.10.2025</text><text x="604.59" y="235.00" font-size="9" fill="#111827" text-anchor="middle" transform="rotate(-45 604.59 235.00)">13.11.2025</text><text x="685.25" y="235.00" font-size="9" fill="#111827" text-anchor="middle" transform="rotate(-45 685.25 235.00)">01.12.2025</text><text x="765.90" y="235.00" font-size="9" fill="#111827" text-anchor="middle" transform="rotate(-45 765.90 235.00)">12.12.2025</text><text x="846.56" y="235.00" font-size="9" fill="#111827" text-anchor="middle" transform="rotate(-45 846.56 235.00)">30.12.2025</text>
  </g>
</svg>