<svg xmlns="http://www.w3.org/2000/svg" width="900" height="290" style="font-family: -apple-system, BlinkMacSystemFont, 'Segoe UI', Helvetica, Arial, sans-serif;">
  <rect width="100%" height="100%" fill="white"/>
  <g>
    <line x1="40" y1="220.00" x2="860" y2="220.00" stroke="#e5e7eb"/><text x="32" y="224.00" font-size="10" fill="#111827" text-anchor="end">0</text><line x1="40" y1="175.00" x2="860" y2="175.00" stroke="#e5e7eb"/><text x="32" y="179.00" font-size="10" fill="#111827" text-anchor="end">500</text><line x1="40" y1="130.00" x2="860" y2="130.00" stroke="#e5e7eb"/><text x="32" y="134.00" font-size="10" fill="#111827" text-anchor="end">1k</text><line x1="40" y1="85.00" x2="860" y2="85.00" stroke="#e5e7eb"/><text x="32" y="89.00" font-size="10" fill="#111827" text-anchor="end">1.5k</text><line x1="40" y1="40.00" x2="860" y2="40.00" stroke="#e5e7eb"/><text x="32" y="44.00" font-size="10" fill="#111827" text-anchor="end">2k</text>
    <line x1="40.00" y1="40" x2="40.00" y2="220" stroke="#e5e7eb" opacity="0.5"/><line x1="120.90" y1="40" x2="120.90" y2="220" stroke="#e5e7eb" opacity="0.5"/><line x1="201.79" y1="40" x2="201.79" y2="220" stroke="#e5e7eb" opacity="0.5"/><line x1="282.69" y1="40" x2="282.69" y2="220" stroke="#e5e7eb" opacity="0.5"/><line x1="363.59" y1="40" x2="363.59" y2="220" stroke="#e5e7eb" opacity="0.5"/><line x1="444.48" y1="40" x2="444.48" y2="220" stroke="#e5e7eb" opacity="0.5"/><line x1="525.38" y1="40" x2="525.38" y2="220" stroke="#e5e7eb" opacity="0.5"/><line x1="606.28" y1="40" x2="606.28" y2="220" stroke="#e5e7eb" opacity="0.5"/><line x1="687.17" y1="40" x2="687.17" y2="220" stroke="#e5e7eb" opacity="0.5"/><line x1="768.07" y1="40" x2="768.07" y2="220" stroke="#e5e7eb" opacity="0.5"/><line x1="848.97" y1="40" x2="848.97" y2="220" stroke="#e5e7eb" opacity="0.5"/>
    <line x1="40" y1="220" x2="860" y2="220" stroke="#9ca3af"/>
    <line x1="40" y1="40"   x2="40"   y2="220" stroke="#9ca3af"/>
    <path d="M 40.00 219.82 L 43.68 211.81 L 47.35 211.81 L 51.03 211.81 L 54.71 171.85 L 58.39 171.58 L 62.06 164.38 L 65.74 118.93 L 69.42 119.11 L 73.09 111.10 L 76.77 110.56 L 80.45 110.56 L 84.13 110.56 L 87.80 95.35 L 91.48 95.35 L 95.16 95.35 L 98.83 94.63 L 102.51 94.54 L 106.19 94.45 L 109.87 94.09 L 113.54 94.09 L 117.22 94.09 L 120.90 94.09 L 124.57 94.09 L 128.25 94.09 L 131.93 94.09 L 135.61 94.09 L 139.28 94.09 L 142.96 91.84 L 146.64 83.65 L 150.31 83.65 L 153.99 83.47 L 157.67 83.65 L 161.35 91.03 L 165.02 91.03 L 168.70 91.03 L 172.38 91.03 L 176.05 91.03 L 179.73 91.03 L 183.41 91.03 L 187.09 91.03 L 190.76 91.03 L 194.44 91.03 L 198.12 91.03 L 201.79 90.94 L 205.47 91.03 L 209.15 90.94 L 212.83 90.94 L 216.50 90.94 L 220.18 90.94 L 223.86 90.94 L 227.53 90.94 L 231.21 90.94 L 234.89 90.94 L 238.57 90.94 L 242.24 90.94 L 245.92 90.94 L 249.60 90.94 L 253.27 90.94 L 256.95 90.94 L 260.63 90.94 L 264.30 90.94 L 267.98 90.94 L 271.66 90.94 L 275.34 90.94 L 279.01 90.94 L 282.69 90.94 L 286.37 90.94 L 290.04 90.94 L 293.72 90.94 L 297.40 90.94 L 301.08 123.79 L 304.75 123.79 L 308.43 123.79 L 312.11 123.79 L 315.78 123.79 L 319.46 123.79 L 323.14 123.79 L 326.82 123.79 L 330.49 123.79 L 334.17 123.79 L 337.85 123.79 L 341.52 123.79 L 345.20 123.79 L 348.88 123.79 L 352.56 123.79 L 356.23 123.79 L 359.91 123.79 L 363.59 123.79 L 367.26 123.79 L 370.94 123.79 L 374.62 123.79 L 378.30 123.79 L 381.97 123.79 L 385.65 123.79 L 389.33 123.79 L 393.00 123.79 L 396.68 123.79 L 400.36 123.79 L 404.04 123.79 L 407.71 123.79 L 411.39 123.79 L 415.07 123.79 L 418.74 123.79 L 422.42 123.79 L 426.10 123.79 L 429.78 123.79 L 433.45 123.79 L 437.13 123.79 L 440.81 123.79 L 444.48 123.79 L 448.16 123.79 L 451.84 123.79 L 455.52 123.79 L 459.19 123.79 L 462.87 123.79 L 466.55 123.79 L 470.22 123.79 L 473.90 123.79 L 477.58 123.79 L 481.26 123.79 L 484.93 123.79 L 488.61 123.79 L 492.29 123.79 L 495.96 123.79 L 499.64 123.79 L 503.32 123.79 L 507.00 123.79 L 510.67 123.79 L 514.35 123.79 L 518.03 123.79 L 521.70 123.79 L 525.38 123.79 L 529.06 123.79 L 532.74 123.79 L 536.41 123.79 L 540.09 123.79 L 543.77 123.79 L 547.44 123.79 L 551.12 123.79 L 554.80 123.79 L 558.48 123.79 L 562.15 123.79 L 565.83 123.79 L 569.51 123.79 L 573.18 123.79 L 576.86 123.79 L 580.54 123.79 L 584.22 115.42 L 587.89 111.64 L 591.57 107.86 L 595.25 104.08 L 598.92 100.30 L 602.60 95.98 L 606.28 95.98 L 609.96 95.98 L 613.63 95.98 L 617.31 85.72 L 620.99 85.72 L 624.66 85.72 L 628.34 85.72 L 632.02 85.72 L 635.70 85.72 L 639.37 85.72 L 643.05 85.72 L 646.73 85.72 L 650.40 85.72 L 654.08 85.72 L 657.76 85.72 L 661.43 85.72 L 665.11 85.72 L 668.79 85.72 L 672.47 85.72 L 676.14 85.72 L 679.82 85.72 L 683.50 85.72 L 687.17 85.72 L 690.85 85.72 L 694.53 85.72 L 698.21 85.72 L 701.88 85.72 L 705.56 85.72 L 709.24 85.72 L 712.91 85.72 L 716.59 85.72 L 720.27 85.72 L 723.95 85.72 L 727.62 85.72 L 731.30 85.72 L 734.98 85.72 L 738.65 85.72 L 742.33 85.72 L 746.01 85.72 L 749.69 85.72 L 753.36 85.72 L 757.04 85.72 L 760.72 85.72 L 764.39 85.72 L 768.07 85.72 L 771.75 85.72 L 775.43 85.72 L 779.10 85.72 L 782.78 85.72 L 786.46 85.72 L 790.13 85.72 L 793.81 85.72 L 797.49 85.72 L 801.17 85.72 L 804.84 85.72 L 808.52 85.72 L 812.20 85.72 L 815.87 85.72 L 819.55 85.72 L 823.23 85.72 L 826.91 85.72 L 830.58 85.72 L 834.26 85.72 L 837.94 85.72 L 841.61 85.72 L 845.29 85.72 L 848.97 85.72 L 852.65 85.72 L 856.32 85.72 L 860.00 85.72" fill="none" stroke="#111827" stroke-width="2"/>
    <circle cx="860.00" cy="85.72" r="3" fill="#111827"/>
    <text x="40.00" y="235.00" font-size="9" fill="#111827" text-anchor="middle" transform="rotate(-45 40.00 235.00)">09.08.2025</text><text x="120.90" y="235.00" font-size="9" fill="#111827" text-anchor="middle" transform="rotate(-45 120.90 235.00)">16.08.2025</text><text x="201.79" y="235.00" font-size="9" fill="#111827" text-anchor="middle" transform="rotate(-45 201.79 235.00)">28.08.2025</text><text x="282.69" y="235.00" font-size="9" fill="#111827" text-anchor="middle" transform="rotate(-45 282.69 235.00)">16.09.2025</text><text x="363.59" y="235.00" font-size="9" fill="#111827" text-anchor="middle" transform="rotate(-45 363.59 235.00)">06.10.2025</text><text x="444.48" y="235.00" font-size="9" fill="#111827" text-anchor="middle" transform="rotate(-45 444.48 235.00)">28.10.2025</text><text x="525.38" y="235.00" font-size="9" fill="#111827" text-anchor="middle" transform="rotate(-45 525.38 235.00)">19.11.2025</text><text x="606.28" y="235.00" font-size="9" fill="#111827" text-anchor="middle" transform="rotate(-45 606.28 235.00)">05.12.2025</text><text x="687.17" y="235.00" font-size="9" fill="#111827" text-anchor="middle" transform="rotate(-45 687.17 235.00)">26.12.2025</text><text x="768.07" y="235.00" font-size="9" fill="#111827" text-anchor="middle" transform="rotate(-45 768.07 235.00)">17.01.2026</text><text x="848.97" y="235.00" font-size="9" fill="#111827" text-anchor="middle" transform="rotate(-45 848.97 235.00)">08.02.2026</text>
  </g>
</svg>