<svg xmlns="http://www.w3.org/2000/svg" width="900" height="290" style="font-family: -apple-system, BlinkMacSystemFont, 'Segoe UI', Helvetica, Arial, sans-serif;">
  <rect width="100%" height="100%" fill="#0d1117"/>
  <g>
    <line x1="40" y1="220.00" x2="860" y2="220.00" stroke="#30363d"/><text x="32" y="224.00" font-size="10" fill="#c9d1d9" text-anchor="end">0</text><line x1="40" y1="175.00" x2="860" y2="175.00" stroke="#30363d"/><text x="32" y="179.00" font-size="10" fill="#c9d1d9" text-anchor="end">500</text><line x1="40" y1="130.00" x2="860" y2="130.00" stroke="#30363d"/><text x="32" y="134.00" font-size="10" fill="#c9d1d9" text-anchor="end">1k</text><line x1="40" y1="85.00" x2="860" y2="85.00" stroke="#30363d"/><text x="32" y="89.00" font-size="10" fill="#c9d1d9" text-anchor="end">1.5k</text><line x1="40" y1="40.00" x2="860" y2="40.00" stroke="#30363d"/><text x="32" y="44.00" font-size="10" fill="#c9d1d9" text-anchor="end">2k</text>
    <line x1="40.00" y1="40" x2="40.00" y2="220" stroke="#30363d" opacity="0.5"/><line x1="122.69" y1="40" x2="122.69" y2="220" stroke="#30363d" opacity="0.5"/><line x1="205.38" y1="40" x2="205.38" y2="220" stroke="#30363d" opacity="0.5"/><line x1="288.07" y1="40" x2="288.07" y2="220" stroke="#30363d" opacity="0.5"/><line x1="370.76" y1="40" x2="370.76" y2="220" stroke="#30363d" opacity="0.5"/><line x1="453.45" y1="40" x2="453.45" y2="220" stroke="#30363d" opacity="0.5"/><line x1="536.13" y1="40" x2="536.13" y2="220" stroke="#30363d" opacity="0.5"/><line x1="618.82" y1="40" x2="618.82" y2="220" stroke="#30363d" opacity="0.5"/><line x1="701.51" y1="40" x2="701.51" y2="220" stroke="#30363d" opacity="0.5"/><line x1="784.20" y1="40" x2="784.20" y2="220" stroke="#30363d" opacity="0.5"/>
    <line x1="40" y1="220" x2="860" y2="220" stroke="#30363d"/>
    <line x1="40" y1="40"   x2="40"   y2="220" stroke="#30363d"/>
    <path d="M 40.00 219.82 L 46.89 211.81 L 53.78 211.81 L 60.67 211.81 L 67.56 171.85 L 74.45 171.58 L 81.34 164.38 L 88.24 118.93 L 95.13 119.11 L 102.02 111.10 L 108.91 110.56 L 115.80 110.56 L 122.69 110.56 L 129.58 95.35 L 136.47 95.35 L 143.36 95.35 L 150.25 94.63 L 157.14 94.54 L 164.03 94.45 L 170.92 94.09 L 177.82 94.09 L 184.71 94.09 L 191.60 94.09 L 198.49 94.09 L 205.38 94.09 L 212.27 94.09 L 219.16 94.09 L 226.05 94.09 L 232.94 91.84 L 239.83 83.65 L 246.72 83.65 L 253.61 83.47 L 260.50 83.65 L 267.39 91.03 L 274.29 91.03 L 281.18 91.03 L 288.07 91.03 L 294.96 91.03 L 301.85 91.03 L 308.74 91.03 L 315.63 91.03 L 322.52 91.03 L 329.41 91.03 L 336.30 91.03 L 343.19 90.94 L 350.08 91.03 L 356.97 90.94 L 363.87 90.94 L 370.76 90.94 L 377.65 90.94 L 384.54 90.94 L 391.43 90.94 L 398.32 90.94 L 405.21 90.94 L 412.10 90.94 L 418.99 90.94 L 425.88 90.94 L 432.77 90.94 L 439.66 90.94 L 446.55 90.94 L 453.45 90.94 L 460.34 90.94 L 467.23 90.94 L 474.12 90.94 L 481.01 90.94 L 487.90 90.94 L 494.79 90.94 L 501.68 90.94 L 508.57 90.94 L 515.46 90.94 L 522.35 90.94 L 529.24 123.79 L 536.13 123.79 L 543.03 123.79 L 549.92 123.79 L 556.81 123.79 L 563.70 123.79 L 570.59 123.79 L 577.48 123.79 L 584.37 123.79 L 591.26 123.79 L 598.15 123.79 L 605.04 123.79 L 611.93 123.79 L 618.82 123.79 L 625.71 123.79 L 632.61 123.79 L 639.50 123.79 L 646.39 123.79 L 653.28 123.79 L 660.17 123.79 L 667.06 123.79 L 673.95 123.79 L 680.84 123.79 L 687.73 123.79 L 694.62 123.79 L 701.51 123.79 L 708.40 123.79 L 715.29 123.79 L 722.18 123.79 L 729.08 123.79 L 735.97 123.79 L 742.86 123.79 L 749.75 123.79 L 756.64 123.79 L 763.53 123.79 L 770.42 123.79 L 777.31 123.79 L 784.20 123.79 L 791.09 123.79 L 797.98 123.79 L 804.87 123.79 L 811.76 123.79 L 818.66 123.79 L 825.55 123.79 L 832.44 123.79 L 839.33 123.79 L 846.22 123.79 L 853.11 123.79 L 860.00 123.79" fill="none" stroke="#3fb950" stroke-width="2"/>
    <circle cx="860.00" cy="123.79" r="3" fill="#3fb950"/>
    <text x="40.00" y="235.00" font-size="9" fill="#c9d1d9" text-anchor="middle" transform="rotate(-45 40.00 235.00)">09.08.2025</text><text x="122.69" y="235.00" font-size="9" fill="#c9d1d9" text-anchor="middle" transform="rotate(-45 122.69 235.00)">13.08.2025</text><text x="205.38" y="235.00" font-size="9" fill="#c9d1d9" text-anchor="middle" transform="rotate(-45 205.38 235.00)">18.08.2025</text><text x="288.07" y="235.00" font-size="9" fill="#c9d1d9" text-anchor="middle" transform="rotate(-45 288.07 235.00)">22.08.2025</text><text x="370.76" y="235.00" font-size="9" fill="#c9d1d9" text-anchor="middle" transform="rotate(-45 370.76 235.00)">29.08.2025</text><text x="453.45" y="235.00" font-size="9" fill="#c9d1d9" text-anchor="middle" transform="rotate(-45 453.45 235.00)">10.09.2025</text><text x="536.13" y="235.00" font-size="9" fill="#c9d1d9" text-anchor="middle" transform="rotate(-45 536.13 235.00)">21.09.2025</text><text x="618.82" y="235.00" font-size="9" fill="#c9d1d9" text-anchor="middle" transform="rotate(-45 618.82 235.00)">02.10.2025</text><text x="701.51" y="235.00" font-size="9" fill="#c9d1d9" text-anchor="middle" transform="rotate(-45 701.51 235.00)">14.10.2025</text><text x="784.20" y="235.00" font-size="9" fill="#c9d1d9" text-anchor="middle" transform="rotate(-45 784.20 235.00)">26.10.2025</text>
  </g>
</svg>