<svg xmlns="http://www.w3.org/2000/svg" width="900" height="290" style="font-family: -apple-system, BlinkMacSystemFont, 'Segoe UI', Helvetica, Arial, sans-serif;">
  <rect width="100%" height="100%" fill="#0d1117"/>
  <g>
    <line x1="40" y1="220.00" x2="860" y2="220.00" stroke="#30363d"/><text x="32" y="224.00" font-size="10" fill="#c9d1d9" text-anchor="end">0</text><line x1="40" y1="175.00" x2="860" y2="175.00" stroke="#30363d"/><text x="32" y="179.00" font-size="10" fill="#c9d1d9" text-anchor="end">500</text><line x1="40" y1="130.00" x2="860" y2="130.00" stroke="#30363d"/><text x="32" y="134.00" font-size="10" fill="#c9d1d9" text-anchor="end">1k</text><line x1="40" y1="85.00" x2="860" y2="85.00" stroke="#30363d"/><text x="32" y="89.00" font-size="10" fill="#c9d1d9" text-anchor="end">1.5k</text><line x1="40" y1="40.00" x2="860" y2="40.00" stroke="#30363d"/><text x="32" y="44.00" font-size="10" fill="#c9d1d9" text-anchor="end">2k</text>
    <line x1="40.00" y1="40" x2="40.00" y2="220" stroke="#30363d" opacity="0.5"/><line x1="115.93" y1="40" x2="115.93" y2="220" stroke="#30363d" opacity="0.5"/><line x1="191.85" y1="40" x2="191.85" y2="220" stroke="#30363d" opacity="0.5"/><line x1="267.78" y1="40" x2="267.78" y2="220" stroke="#30363d" opacity="0.5"/><line x1="343.70" y1="40" x2="343.70" y2="220" stroke="#30363d" opacity="0.5"/><line x1="419.63" y1="40" x2="419.63" y2="220" stroke="#30363d" opacity="0.5"/><line x1="495.56" y1="40" x2="495.56" y2="220" stroke="#30363d" opacity="0.5"/><line x1="571.48" y1="40" x2="571.48" y2="220" stroke="#30363d" opacity="0.5"/><line x1="647.41" y1="40" x2="647.41" y2="220" stroke="#30363d" opacity="0.5"/><line x1="723.33" y1="40" x2="723.33" y2="220" stroke="#30363d" opacity="0.5"/><line x1="799.26" y1="40" x2="799.26" y2="220" stroke="#30363d" opacity="0.5"/>
    <line x1="40" y1="220" x2="860" y2="220" stroke="#30363d"/>
    <line x1="40" y1="40"   x2="40"   y2="220" stroke="#30363d"/>
    <path d="M 40.00 219.82 L 47.59 211.81 L 55.19 211.81 L 62.78 211.81 L 70.37 171.85 L 77.96 171.58 L 85.56 164.38 L 93.15 118.93 L 100.74 119.11 L 108.33 111.10 L 115.93 110.56 L 123.52 110.56 L 131.11 110.56 L 138.70 95.35 L 146.30 95.35 L 153.89 95.35 L 161.48 94.63 L 169.07 94.54 L 176.67 94.45 L 184.26 94.09 L 191.85 94.09 L 199.44 94.09 L 207.04 94.09 L 214.63 94.09 L 222.22 94.09 L 229.81 94.09 L 237.41 94.09 L 245.00 94.09 L 252.59 91.84 L 260.19 83.65 L 267.78 83.65 L 275.37 83.47 L 282.96 83.65 L 290.56 91.03 L 298.15 91.03 L 305.74 91.03 L 313.33 91.03 L 320.93 91.03 L 328.52 91.03 L 336.11 91.03 L 343.70 91.03 L 351.30 91.03 L 358.89 91.03 L 366.48 91.03 L 374.07 90.94 L 381.67 91.03 L 389.26 90.94 L 396.85 90.94 L 404.44 90.94 L 412.04 90.94 L 419.63 90.94 L 427.22 90.94 L 434.81 90.94 L 442.41 90.94 L 450.00 90.94 L 457.59 90.94 L 465.19 90.94 L 472.78 90.94 L 480.37 90.94 L 487.96 90.94 L 495.56 90.94 L 503.15 90.94 L 510.74 90.94 L 518.33 90.94 L 525.93 90.94 L 533.52 90.94 L 541.11 90.94 L 548.70 90.94 L 556.30 90.94 L 563.89 90.94 L 571.48 90.94 L 579.07 123.79 L 586.67 123.79 L 594.26 123.79 L 601.85 123.79 L 609.44 123.79 L 617.04 123.79 L 624.63 123.79 L 632.22 123.79 L 639.81 123.79 L 647.41 123.79 L 655.00 123.79 L 662.59 123.79 L 670.19 123.79 L 677.78 123.79 L 685.37 123.79 L 692.96 123.79 L 700.56 123.79 L 708.15 123.79 L 715.74 123.79 L 723.33 123.79 L 730.93 123.79 L 738.52 123.79 L 746.11 123.79 L 753.70 123.79 L 761.30 123.79 L 768.89 123.79 L 776.48 123.79 L 784.07 123.79 L 791.67 123.79 L 799.26 123.79 L 806.85 123.79 L 814.44 123.79 L 822.04 123.79 L 829.63 123.79 L 837.22 123.79 L 844.81 123.79 L 852.41 123.79 L 860.00 123.79" fill="none" stroke="#3fb950" stroke-width="2"/>
    <circle cx="860.00" cy="123.79" r="3" fill="#3fb950"/>
    <text x="40.00" y="235.00" font-size="9" fill="#c9d1d9" text-anchor="middle" transform="rotate(-45 40.00 235.00)">09.08.2025</text><text x="115.93" y="235.00" font-size="9" fill="#c9d1d9" text-anchor="middle" transform="rotate(-45 115.93 235.00)">13.08.2025</text><text x="191.85" y="235.00" font-size="9" fill="#c9d1d9" text-anchor="middle" transform="rotate(-45 191.85 235.00)">14.08.2025</text><text x="267.78" y="235.00" font-size="9" fill="#c9d1d9" text-anchor="middle" transform="rotate(-45 267.78 235.00)">21.08.2025</text><text x="343.70" y="235.00" font-size="9" fill="#c9d1d9" text-anchor="middle" transform="rotate(-45 343.70 235.00)">26.08.2025</text><text x="419.63" y="235.00" font-size="9" fill="#c9d1d9" text-anchor="middle" transform="rotate(-45 419.63 235.00)">31.08.2025</text><text x="495.56" y="235.00" font-size="9" fill="#c9d1d9" text-anchor="middle" transform="rotate(-45 495.56 235.00)">10.09.2025</text><text x="571.48" y="235.00" font-size="9" fill="#c9d1d9" text-anchor="middle" transform="rotate(-45 571.48 235.00)">20.09.2025</text><text x="647.41" y="235.00" font-size="9" fill="#c9d1d9" text-anchor="middle" transform="rotate(-45 647.41 235.00)">28.09.2025</text><text x="723.33" y="235.00" font-size="9" fill="#c9d1d9" text-anchor="middle" transform="rotate(-45 723.33 235.00)">08.10.2025</text><text x="799.26" y="235.00" font-size="9" fill="#c9d1d9" text-anchor="middle" transform="rotate(-45 799.26 235.00)">18.10.2025</text>
  </g>
</svg>