<svg xmlns="http://www.w3.org/2000/svg" width="900" height="290" style="font-family: -apple-system, BlinkMacSystemFont, 'Segoe UI', Helvetica, Arial, sans-serif;">
  <rect width="100%" height="100%" fill="#0d1117"/>
  <g>
    <line x1="40" y1="220.00" x2="860" y2="220.00" stroke="#30363d"/><text x="32" y="224.00" font-size="10" fill="#c9d1d9" text-anchor="end">0</text><line x1="40" y1="175.00" x2="860" y2="175.00" stroke="#30363d"/><text x="32" y="179.00" font-size="10" fill="#c9d1d9" text-anchor="end">500</text><line x1="40" y1="130.00" x2="860" y2="130.00" stroke="#30363d"/><text x="32" y="134.00" font-size="10" fill="#c9d1d9" text-anchor="end">1k</text><line x1="40" y1="85.00" x2="860" y2="85.00" stroke="#30363d"/><text x="32" y="89.00" font-size="10" fill="#c9d1d9" text-anchor="end">1.5k</text><line x1="40" y1="40.00" x2="860" y2="40.00" stroke="#30363d"/><text x="32" y="44.00" font-size="10" fill="#c9d1d9" text-anchor="end">2k</text>
    <line x1="40.00" y1="40" x2="40.00" y2="220" stroke="#30363d" opacity="0.5"/><line x1="122.46" y1="40" x2="122.46" y2="220" stroke="#30363d" opacity="0.5"/><line x1="204.92" y1="40" x2="204.92" y2="220" stroke="#30363d" opacity="0.5"/><line x1="287.37" y1="40" x2="287.37" y2="220" stroke="#30363d" opacity="0.5"/><line x1="369.83" y1="40" x2="369.83" y2="220" stroke="#30363d" opacity="0.5"/><line x1="452.29" y1="40" x2="452.29" y2="220" stroke="#30363d" opacity="0.5"/><line x1="534.75" y1="40" x2="534.75" y2="220" stroke="#30363d" opacity="0.5"/><line x1="617.21" y1="40" x2="617.21" y2="220" stroke="#30363d" opacity="0.5"/><line x1="699.66" y1="40" x2="699.66" y2="220" stroke="#30363d" opacity="0.5"/><line x1="782.12" y1="40" x2="782.12" y2="220" stroke="#30363d" opacity="0.5"/>
    <line x1="40" y1="220" x2="860" y2="220" stroke="#30363d"/>
    <line x1="40" y1="40"   x2="40"   y2="220" stroke="#30363d"/>
    <path d="M 40.00 219.82 L 44.58 211.81 L 49.16 211.81 L 53.74 211.81 L 58.32 171.85 L 62.91 171.58 L 67.49 164.38 L 72.07 118.93 L 76.65 119.11 L 81.23 111.10 L 85.81 110.56 L 90.39 110.56 L 94.97 110.56 L 99.55 95.35 L 104.13 95.35 L 108.72 95.35 L 113.30 94.63 L 117.88 94.54 L 122.46 94.45 L 127.04 94.09 L 131.62 94.09 L 136.20 94.09 L 140.78 94.09 L 145.36 94.09 L 149.94 94.09 L 154.53 94.09 L 159.11 94.09 L 163.69 94.09 L 168.27 91.84 L 172.85 83.65 L 177.43 83.65 L 182.01 83.47 L 186.59 83.65 L 191.17 91.03 L 195.75 91.03 L 200.34 91.03 L 204.92 91.03 L 209.50 91.03 L 214.08 91.03 L 218.66 91.03 L 223.24 91.03 L 227.82 91.03 L 232.40 91.03 L 236.98 91.03 L 241.56 90.94 L 246.15 91.03 L 250.73 90.94 L 255.31 90.94 L 259.89 90.94 L 264.47 90.94 L 269.05 90.94 L 273.63 90.94 L 278.21 90.94 L 282.79 90.94 L 287.37 90.94 L 291.96 90.94 L 296.54 90.94 L 301.12 90.94 L 305.70 90.94 L 310.28 90.94 L 314.86 90.94 L 319.44 90.94 L 324.02 90.94 L 328.60 90.94 L 333.18 90.94 L 337.77 90.94 L 342.35 90.94 L 346.93 90.94 L 351.51 90.94 L 356.09 90.94 L 360.67 90.94 L 365.25 123.79 L 369.83 123.79 L 374.41 123.79 L 378.99 123.79 L 383.58 123.79 L 388.16 123.79 L 392.74 123.79 L 397.32 123.79 L 401.90 123.79 L 406.48 123.79 L 411.06 123.79 L 415.64 123.79 L 420.22 123.79 L 424.80 123.79 L 429.39 123.79 L 433.97 123.79 L 438.55 123.79 L 443.13 123.79 L 447.71 123.79 L 452.29 123.79 L 456.87 123.79 L 461.45 123.79 L 466.03 123.79 L 470.61 123.79 L 475.20 123.79 L 479.78 123.79 L 484.36 123.79 L 488.94 123.79 L 493.52 123.79 L 498.10 123.79 L 502.68 123.79 L 507.26 123.79 L 511.84 123.79 L 516.42 123.79 L 521.01 123.79 L 525.59 123.79 L 530.17 123.79 L 534.75 123.79 L 539.33 123.79 L 543.91 123.79 L 548.49 123.79 L 553.07 123.79 L 557.65 123.79 L 562.23 123.79 L 566.82 123.79 L 571.40 123.79 L 575.98 123.79 L 580.56 123.79 L 585.14 123.79 L 589.72 123.79 L 594.30 123.79 L 598.88 123.79 L 603.46 123.79 L 608.04 123.79 L 612.63 123.79 L 617.21 123.79 L 621.79 123.79 L 626.37 123.79 L 630.95 123.79 L 635.53 123.79 L 640.11 123.79 L 644.69 123.79 L 649.27 123.79 L 653.85 123.79 L 658.44 123.79 L 663.02 123.79 L 667.60 123.79 L 672.18 123.79 L 676.76 123.79 L 681.34 123.79 L 685.92 123.79 L 690.50 123.79 L 695.08 123.79 L 699.66 123.79 L 704.25 123.79 L 708.83 123.79 L 713.41 123.79 L 717.99 115.42 L 722.57 111.64 L 727.15 107.86 L 731.73 104.08 L 736.31 100.30 L 740.89 95.98 L 745.47 95.98 L 750.06 95.98 L 754.64 95.98 L 759.22 85.72 L 763.80 85.72 L 768.38 85.72 L 772.96 85.72 L 777.54 85.72 L 782.12 85.72 L 786.70 85.72 L 791.28 85.72 L 795.87 85.72 L 800.45 85.72 L 805.03 85.72 L 809.61 85.72 L 814.19 85.72 L 818.77 85.72 L 823.35 85.72 L 827.93 85.72 L 832.51 85.72 L 837.09 85.72 L 841.68 85.72 L 846.26 85.72 L 850.84 85.72 L 855.42 85.72 L 860.00 85.72" fill="none" stroke="#3fb950" stroke-width="2"/>
    <circle cx="860.00" cy="85.72" r="3" fill="#3fb950"/>
    <text x="40.00" y="235.00" font-size="9" fill="#c9d1d9" text-anchor="middle" transform="rotate(-45 40.00 235.00)">09.08.2025</text><text x="122.46" y="235.00" font-size="9" fill="#c9d1d9" text-anchor="middle" transform="rotate(-45 122.46 235.00)">13.08.2025</text><text x="204.92" y="235.00" font-size="9" fill="#c9d1d9" text-anchor="middle" transform="rotate(-45 204.92 235.00)">22.08.2025</text><text x="287.37" y="235.00" font-size="9" fill="#c9d1d9" text-anchor="middle" transform="rotate(-45 287.37 235.00)">04.09.2025</text><text x="369.83" y="235.00" font-size="9" fill="#c9d1d9" text-anchor="middle" transform="rotate(-45 369.83 235.00)">21.09.2025</text><text x="452.29" y="235.00" font-size="9" fill="#c9d1d9" text-anchor="middle" transform="rotate(-45 452.29 235.00)">08.10.2025</text><text x="534.75" y="235.00" font-size="9" fill="#c9d1d9" text-anchor="middle" transform="rotate(-45 534.75 235.00)">26.10.2025</text><text x="617.21" y="235.00" font-size="9" fill="#c9d1d9" text-anchor="middle" transform="rotate(-45 617.21 235.00)">13.11.2025</text><text x="699.66" y="235.00" font-size="9" fill="#c9d1d9" text-anchor="middle" transform="rotate(-45 699.66 235.00)">01.12.2025</text><text x="782.12" y="235.00" font-size="9" fill="#c9d1d9" text-anchor="middle" transform="rotate(-45 782.12 235.00)">12.12.2025</text>
  </g>
</svg>