<svg xmlns="http://www.w3.org/2000/svg" width="900" height="290" style="font-family: -apple-system, BlinkMacSystemFont, 'Segoe UI', Helvetica, Arial, sans-serif;">
  <rect width="100%" height="100%" fill="white"/>
  <g>
    <line x1="40" y1="220.00" x2="860" y2="220.00" stroke="#e5e7eb"/><text x="32" y="224.00" font-size="10" fill="#111827" text-anchor="end">0</text><line x1="40" y1="175.00" x2="860" y2="175.00" stroke="#e5e7eb"/><text x="32" y="179.00" font-size="10" fill="#111827" text-anchor="end">500</text><line x1="40" y1="130.00" x2="860" y2="130.00" stroke="#e5e7eb"/><text x="32" y="134.00" font-size="10" fill="#111827" text-anchor="end">1k</text><line x1="40" y1="85.00" x2="860" y2="85.00" stroke="#e5e7eb"/><text x="32" y="89.00" font-size="10" fill="#111827" text-anchor="end">1.5k</text><line x1="40" y1="40.00" x2="860" y2="40.00" stroke="#e5e7eb"/><text x="32" y="44.00" font-size="10" fill="#111827" text-anchor="end">2k</text>
    <line x1="40.00" y1="40" x2="40.00" y2="220" stroke="#e5e7eb" opacity="0.5"/><line x1="118.85" y1="40" x2="118.85" y2="220" stroke="#e5e7eb" opacity="0.5"/><line x1="197.69" y1="40" x2="197.69" y2="220" stroke="#e5e7eb" opacity="0.5"/><line x1="276.54" y1="40" x2="276.54" y2="220" stroke="#e5e7eb" opacity="0.5"/><line x1="355.38" y1="40" x2="355.38" y2="220" stroke="#e5e7eb" opacity="0.5"/><line x1="434.23" y1="40" x2="434.23" y2="220" stroke="#e5e7eb" opacity="0.5"/><line x1="513.08" y1="40" x2="513.08" y2="220" stroke="#e5e7eb" opacity="0.5"/><line x1="591.92" y1="40" x2="591.92" y2="220" stroke="#e5e7eb" opacity="0.5"/><line x1="670.77" y1="40" x2="670.77" y2="220" stroke="#e5e7eb" opacity="0.5"/><line x1="749.62" y1="40" x2="749.62" y2="220" stroke="#e5e7eb" opacity="0.5"/><line x1="828.46" y1="40" x2="828.46" y2="220" stroke="#e5e7eb" opacity="0.5"/>
    <line x1="40" y1="220" x2="860" y2="220" stroke="#9ca3af"/>
    <line x1="40" y1="40"   x2="40"   y2="220" stroke="#9ca3af"/>
    <path d="M 40.00 219.82 L 47.88 211.81 L 55.77 211.81 L 63.65 211.81 L 71.54 171.85 L 79.42 171.58 L 87.31 164.38 L 95.19 118.93 L 103.08 119.11 L 110.96 111.10 L 118.85 110.56 L 126.73 110.56 L 134.62 110.56 L 142.50 95.35 L 150.38 95.35 L 158.27 95.35 L 166.15 94.63 L 174.04 94.54 L 181.92 94.45 L 189.81 94.09 L 197.69 94.09 L 205.58 94.09 L 213.46 94.09 L 221.35 94.09 L 229.23 94.09 L 237.12 94.09 L 245.00 94.09 L 252.88 94.09 L 260.77 91.84 L 268.65 83.65 L 276.54 83.65 L 284.42 83.47 L 292.31 83.65 L 300.19 91.03 L 308.08 91.03 L 315.96 91.03 L 323.85 91.03 L 331.73 91.03 L 339.62 91.03 L 347.50 91.03 L 355.38 91.03 L 363.27 91.03 L 371.15 91.03 L 379.04 91.03 L 386.92 90.94 L 394.81 91.03 L 402.69 90.94 L 410.58 90.94 L 418.46 90.94 L 426.35 90.94 L 434.23 90.94 L 442.12 90.94 L 450.00 90.94 L 457.88 90.94 L 465.77 90.94 L 473.65 90.94 L 481.54 90.94 L 489.42 90.94 L 497.31 90.94 L 505.19 90.94 L 513.08 90.94 L 520.96 90.94 L 528.85 90.94 L 536.73 90.94 L 544.62 90.94 L 552.50 90.94 L 560.38 90.94 L 568.27 90.94 L 576.15 90.94 L 584.04 90.94 L 591.92 90.94 L 599.81 123.79 L 607.69 123.79 L 615.58 123.79 L 623.46 123.79 L 631.35 123.79 L 639.23 123.79 L 647.12 123.79 L 655.00 123.79 L 662.88 123.79 L 670.77 123.79 L 678.65 123.79 L 686.54 123.79 L 694.42 123.79 L 702.31 123.79 L 710.19 123.79 L 718.08 123.79 L 725.96 123.79 L 733.85 123.79 L 741.73 123.79 L 749.62 123.79 L 757.50 123.79 L 765.38 123.79 L 773.27 123.79 L 781.15 123.79 L 789.04 123.79 L 796.92 123.79 L 804.81 123.79 L 812.69 123.79 L 820.58 123.79 L 828.46 123.79 L 836.35 123.79 L 844.23 123.79 L 852.12 123.79 L 860.00 123.79" fill="none" stroke="#111827" stroke-width="2"/>
    <circle cx="860.00" cy="123.79" r="3" fill="#111827"/>
    <text x="40.00" y="235.00" font-size="9" fill="#111827" text-anchor="middle" transform="rotate(-45 40.00 235.00)">09.08.2025</text><text x="118.85" y="235.00" font-size="9" fill="#111827" text-anchor="middle" transform="rotate(-45 118.85 235.00)">13.08.2025</text><text x="197.69" y="235.00" font-size="9" fill="#111827" text-anchor="middle" transform="rotate(-45 197.69 235.00)">14.08.2025</text><text x="276.54" y="235.00" font-size="9" fill="#111827" text-anchor="middle" transform="rotate(-45 276.54 235.00)">21.08.2025</text><text x="355.38" y="235.00" font-size="9" fill="#111827" text-anchor="middle" transform="rotate(-45 355.38 235.00)">26.08.2025</text><text x="434.23" y="235.00" font-size="9" fill="#111827" text-anchor="middle" transform="rotate(-45 434.23 235.00)">31.08.2025</text><text x="513.08" y="235.00" font-size="9" fill="#111827" text-anchor="middle" transform="rotate(-45 513.08 235.00)">10.09.2025</text><text x="591.92" y="235.00" font-size="9" fill="#111827" text-anchor="middle" transform="rotate(-45 591.92 235.00)">20.09.2025</text><text x="670.77" y="235.00" font-size="9" fill="#111827" text-anchor="middle" transform="rotate(-45 670.77 235.00)">28.09.2025</text><text x="749.62" y="235.00" font-size="9" fill="#111827" text-anchor="middle" transform="rotate(-45 749.62 235.00)">08.10.2025</text><text x="828.46" y="235.00" font-size="9" fill="#111827" text-anchor="middle" transform="rotate(-45 828.46 235.00)">18.10.2025</text>
  </g>
</svg>