<svg xmlns="http://www.w3.org/2000/svg" width="900" height="290" style="font-family: -apple-system, BlinkMacSystemFont, 'Segoe UI', Helvetica, Arial, sans-serif;">
  <rect width="100%" height="100%" fill="#0d1117"/>
  <g>
    <line x1="40" y1="220.00" x2="860" y2="220.00" stroke="#30363d"/><text x="32" y="224.00" font-size="10" fill="#c9d1d9" text-anchor="end">0</text><line x1="40" y1="175.00" x2="860" y2="175.00" stroke="#30363d"/><text x="32" y="179.00" font-size="10" fill="#c9d1d9" text-anchor="end">500</text><line x1="40" y1="130.00" x2="860" y2="130.00" stroke="#30363d"/><text x="32" y="134.00" font-size="10" fill="#c9d1d9" text-anchor="end">1k</text><line x1="40" y1="85.00" x2="860" y2="85.00" stroke="#30363d"/><text x="32" y="89.00" font-size="10" fill="#c9d1d9" text-anchor="end">1.5k</text><line x1="40" y1="40.00" x2="860" y2="40.00" stroke="#30363d"/><text x="32" y="44.00" font-size="10" fill="#c9d1d9" text-anchor="end">2k</text>
    <line x1="40.00" y1="40" x2="40.00" y2="220" stroke="#30363d" opacity="0.5"/><line x1="122.00" y1="40" x2="122.00" y2="220" stroke="#30363d" opacity="0.5"/><line x1="204.00" y1="40" x2="204.00" y2="220" stroke="#30363d" opacity="0.5"/><line x1="286.00" y1="40" x2="286.00" y2="220" stroke="#30363d" opacity="0.5"/><line x1="368.00" y1="40" x2="368.00" y2="220" stroke="#30363d" opacity="0.5"/><line x1="450.00" y1="40" x2="450.00" y2="220" stroke="#30363d" opacity="0.5"/><line x1="532.00" y1="40" x2="532.00" y2="220" stroke="#30363d" opacity="0.5"/><line x1="614.00" y1="40" x2="614.00" y2="220" stroke="#30363d" opacity="0.5"/><line x1="696.00" y1="40" x2="696.00" y2="220" stroke="#30363d" opacity="0.5"/><line x1="778.00" y1="40" x2="778.00" y2="220" stroke="#30363d" opacity="0.5"/><line x1="860.00" y1="40" x2="860.00" y2="220" stroke="#30363d" opacity="0.5"/>
    <line x1="40" y1="220" x2="860" y2="220" stroke="#30363d"/>
    <line x1="40" y1="40"   x2="40"   y2="220" stroke="#30363d"/>
    <path d="M 40.00 219.82 L 44.82 211.81 L 49.65 211.81 L 54.47 211.81 L 59.29 171.85 L 64.12 171.58 L 68.94 164.38 L 73.76 118.93 L 78.59 119.11 L 83.41 111.10 L 88.24 110.56 L 93.06 110.56 L 97.88 110.56 L 102.71 95.35 L 107.53 95.35 L 112.35 95.35 L 117.18 94.63 L 122.00 94.54 L 126.82 94.45 L 131.65 94.09 L 136.47 94.09 L 141.29 94.09 L 146.12 94.09 L 150.94 94.09 L 155.76 94.09 L 160.59 94.09 L 165.41 94.09 L 170.24 94.09 L 175.06 91.84 L 179.88 83.65 L 184.71 83.65 L 189.53 83.47 L 194.35 83.65 L 199.18 91.03 L 204.00 91.03 L 208.82 91.03 L 213.65 91.03 L 218.47 91.03 L 223.29 91.03 L 228.12 91.03 L 232.94 91.03 L 237.76 91.03 L 242.59 91.03 L 247.41 91.03 L 252.24 90.94 L 257.06 91.03 L 261.88 90.94 L 266.71 90.94 L 271.53 90.94 L 276.35 90.94 L 281.18 90.94 L 286.00 90.94 L 290.82 90.94 L 295.65 90.94 L 300.47 90.94 L 305.29 90.94 L 310.12 90.94 L 314.94 90.94 L 319.76 90.94 L 324.59 90.94 L 329.41 90.94 L 334.24 90.94 L 339.06 90.94 L 343.88 90.94 L 348.71 90.94 L 353.53 90.94 L 358.35 90.94 L 363.18 90.94 L 368.00 90.94 L 372.82 90.94 L 377.65 90.94 L 382.47 123.79 L 387.29 123.79 L 392.12 123.79 L 396.94 123.79 L 401.76 123.79 L 406.59 123.79 L 411.41 123.79 L 416.24 123.79 L 421.06 123.79 L 425.88 123.79 L 430.71 123.79 L 435.53 123.79 L 440.35 123.79 L 445.18 123.79 L 450.00 123.79 L 454.82 123.79 L 459.65 123.79 L 464.47 123.79 L 469.29 123.79 L 474.12 123.79 L 478.94 123.79 L 483.76 123.79 L 488.59 123.79 L 493.41 123.79 L 498.24 123.79 L 503.06 123.79 L 507.88 123.79 L 512.71 123.79 L 517.53 123.79 L 522.35 123.79 L 527.18 123.79 L 532.00 123.79 L 536.82 123.79 L 541.65 123.79 L 546.47 123.79 L 551.29 123.79 L 556.12 123.79 L 560.94 123.79 L 565.76 123.79 L 570.59 123.79 L 575.41 123.79 L 580.24 123.79 L 585.06 123.79 L 589.88 123.79 L 594.71 123.79 L 599.53 123.79 L 604.35 123.79 L 609.18 123.79 L 614.00 123.79 L 618.82 123.79 L 623.65 123.79 L 628.47 123.79 L 633.29 123.79 L 638.12 123.79 L 642.94 123.79 L 647.76 123.79 L 652.59 123.79 L 657.41 123.79 L 662.24 123.79 L 667.06 123.79 L 671.88 123.79 L 676.71 123.79 L 681.53 123.79 L 686.35 123.79 L 691.18 123.79 L 696.00 123.79 L 700.82 123.79 L 705.65 123.79 L 710.47 123.79 L 715.29 123.79 L 720.12 123.79 L 724.94 123.79 L 729.76 123.79 L 734.59 123.79 L 739.41 123.79 L 744.24 123.79 L 749.06 123.79 L 753.88 115.42 L 758.71 111.64 L 763.53 107.86 L 768.35 104.08 L 773.18 100.30 L 778.00 95.98 L 782.82 95.98 L 787.65 95.98 L 792.47 95.98 L 797.29 85.72 L 802.12 85.72 L 806.94 85.72 L 811.76 85.72 L 816.59 85.72 L 821.41 85.72 L 826.24 85.72 L 831.06 85.72 L 835.88 85.72 L 840.71 85.72 L 845.53 85.72 L 850.35 85.72 L 855.18 85.72 L 860.00 85.72" fill="none" stroke="#3fb950" stroke-width="2"/>
    <circle cx="860.00" cy="85.72" r="3" fill="#3fb950"/>
    <text x="40.00" y="235.00" font-size="9" fill="#c9d1d9" text-anchor="middle" transform="rotate(-45 40.00 235.00)">09.08.2025</text><text x="122.00" y="235.00" font-size="9" fill="#c9d1d9" text-anchor="middle" transform="rotate(-45 122.00 235.00)">13.08.2025</text><text x="204.00" y="235.00" font-size="9" fill="#c9d1d9" text-anchor="middle" transform="rotate(-45 204.00 235.00)">21.08.2025</text><text x="286.00" y="235.00" font-size="9" fill="#c9d1d9" text-anchor="middle" transform="rotate(-45 286.00 235.00)">01.09.2025</text><text x="368.00" y="235.00" font-size="9" fill="#c9d1d9" text-anchor="middle" transform="rotate(-45 368.00 235.00)">18.09.2025</text><text x="450.00" y="235.00" font-size="9" fill="#c9d1d9" text-anchor="middle" transform="rotate(-45 450.00 235.00)">03.10.2025</text><text x="532.00" y="235.00" font-size="9" fill="#c9d1d9" text-anchor="middle" transform="rotate(-45 532.00 235.00)">20.10.2025</text><text x="614.00" y="235.00" font-size="9" fill="#c9d1d9" text-anchor="middle" transform="rotate(-45 614.00 235.00)">06.11.2025</text><text x="696.00" y="235.00" font-size="9" fill="#c9d1d9" text-anchor="middle" transform="rotate(-45 696.00 235.00)">23.11.2025</text><text x="778.00" y="235.00" font-size="9" fill="#c9d1d9" text-anchor="middle" transform="rotate(-45 778.00 235.00)">04.12.2025</text><text x="860.00" y="235.00" font-size="9" fill="#c9d1d9" text-anchor="middle" transform="rotate(-45 860.00 235.00)">20.12.2025</text>
  </g>
</svg>