<svg xmlns="http://www.w3.org/2000/svg" width="900" height="290" style="font-family: -apple-system, BlinkMacSystemFont, 'Segoe UI', Helvetica, Arial, sans-serif;">
  <rect width="100%" height="100%" fill="white"/>
  <g>
    <line x1="40" y1="220.00" x2="860" y2="220.00" stroke="#e5e7eb"/><text x="32" y="224.00" font-size="10" fill="#111827" text-anchor="end">0</text><line x1="40" y1="175.00" x2="860" y2="175.00" stroke="#e5e7eb"/><text x="32" y="179.00" font-size="10" fill="#111827" text-anchor="end">500</text><line x1="40" y1="130.00" x2="860" y2="130.00" stroke="#e5e7eb"/><text x="32" y="134.00" font-size="10" fill="#111827" text-anchor="end">1k</text><line x1="40" y1="85.00" x2="860" y2="85.00" stroke="#e5e7eb"/><text x="32" y="89.00" font-size="10" fill="#111827" text-anchor="end">1.5k</text><line x1="40" y1="40.00" x2="860" y2="40.00" stroke="#e5e7eb"/><text x="32" y="44.00" font-size="10" fill="#111827" text-anchor="end">2k</text>
    <line x1="40.00" y1="40" x2="40.00" y2="220" stroke="#e5e7eb" opacity="0.5"/><line x1="120.66" y1="40" x2="120.66" y2="220" stroke="#e5e7eb" opacity="0.5"/><line x1="201.31" y1="40" x2="201.31" y2="220" stroke="#e5e7eb" opacity="0.5"/><line x1="281.97" y1="40" x2="281.97" y2="220" stroke="#e5e7eb" opacity="0.5"/><line x1="362.62" y1="40" x2="362.62" y2="220" stroke="#e5e7eb" opacity="0.5"/><line x1="443.28" y1="40" x2="443.28" y2="220" stroke="#e5e7eb" opacity="0.5"/><line x1="523.93" y1="40" x2="523.93" y2="220" stroke="#e5e7eb" opacity="0.5"/><line x1="604.59" y1="40" x2="604.59" y2="220" stroke="#e5e7eb" opacity="0.5"/><line x1="685.25" y1="40" x2="685.25" y2="220" stroke="#e5e7eb" opacity="0.5"/><line x1="765.90" y1="40" x2="765.90" y2="220" stroke="#e5e7eb" opacity="0.5"/><line x1="846.56" y1="40" x2="846.56" y2="220" stroke="#e5e7eb" opacity="0.5"/>
    <line x1="40" y1="220" x2="860" y2="220" stroke="#9ca3af"/>
    <line x1="40" y1="40"   x2="40"   y2="220" stroke="#9ca3af"/>
    <path d="M 40.00 219.82 L 46.72 211.81 L 53.44 211.81 L 60.16 211.81 L 66.89 171.85 L 73.61 171.58 L 80.33 164.38 L 87.05 118.93 L 93.77 119.11 L 100.49 111.10 L 107.21 110.56 L 113.93 110.56 L 120.66 110.56 L 127.38 95.35 L 134.10 95.35 L 140.82 95.35 L 147.54 94.63 L 154.26 94.54 L 160.98 94.45 L 167.70 94.09 L 174.43 94.09 L 181.15 94.09 L 187.87 94.09 L 194.59 94.09 L 201.31 94.09 L 208.03 94.09 L 214.75 94.09 L 221.48 94.09 L 228.20 91.84 L 234.92 83.65 L 241.64 83.65 L 248.36 83.47 L 255.08 83.65 L 261.80 91.03 L 268.52 91.03 L 275.25 91.03 L 281.97 91.03 L 288.69 91.03 L 295.41 91.03 L 302.13 91.03 L 308.85 91.03 L 315.57 91.03 L 322.30 91.03 L 329.02 91.03 L 335.74 90.94 L 342.46 91.03 L 349.18 90.94 L 355.90 90.94 L 362.62 90.94 L 369.34 90.94 L 376.07 90.94 L 382.79 90.94 L 389.51 90.94 L 396.23 90.94 L 402.95 90.94 L 409.67 90.94 L 416.39 90.94 L 423.11 90.94 L 429.84 90.94 L 436.56 90.94 L 443.28 90.94 L 450.00 90.94 L 456.72 90.94 L 463.44 90.94 L 470.16 90.94 L 476.89 90.94 L 483.61 90.94 L 490.33 90.94 L 497.05 90.94 L 503.77 90.94 L 510.49 90.94 L 517.21 123.79 L 523.93 123.79 L 530.66 123.79 L 537.38 123.79 L 544.10 123.79 L 550.82 123.79 L 557.54 123.79 L 564.26 123.79 L 570.98 123.79 L 577.70 123.79 L 584.43 123.79 L 591.15 123.79 L 597.87 123.79 L 604.59 123.79 L 611.31 123.79 L 618.03 123.79 L 624.75 123.79 L 631.48 123.79 L 638.20 123.79 L 644.92 123.79 L 651.64 123.79 L 658.36 123.79 L 665.08 123.79 L 671.80 123.79 L 678.52 123.79 L 685.25 123.79 L 691.97 123.79 L 698.69 123.79 L 705.41 123.79 L 712.13 123.79 L 718.85 123.79 L 725.57 123.79 L 732.30 123.79 L 739.02 123.79 L 745.74 123.79 L 752.46 123.79 L 759.18 123.79 L 765.90 123.79 L 772.62 123.79 L 779.34 123.79 L 786.07 123.79 L 792.79 123.79 L 799.51 123.79 L 806.23 123.79 L 812.95 123.79 L 819.67 123.79 L 826.39 123.79 L 833.11 123.79 L 839.84 123.79 L 846.56 123.79 L 853.28 123.79 L 860.00 123.79" fill="none" stroke="#111827" stroke-width="2"/>
    <circle cx="860.00" cy="123.79" r="3" fill="#111827"/>
    <text x="40.00" y="235.00" font-size="9" fill="#111827" text-anchor="middle" transform="rotate(-45 40.00 235.00)">09.08.2025</text><text x="120.66" y="235.00" font-size="9" fill="#111827" text-anchor="middle" transform="rotate(-45 120.66 235.00)">13.08.2025</text><text x="201.31" y="235.00" font-size="9" fill="#111827" text-anchor="middle" transform="rotate(-45 201.31 235.00)">18.08.2025</text><text x="281.97" y="235.00" font-size="9" fill="#111827" text-anchor="middle" transform="rotate(-45 281.97 235.00)">22.08.2025</text><text x="362.62" y="235.00" font-size="9" fill="#111827" text-anchor="middle" transform="rotate(-45 362.62 235.00)">29.08.2025</text><text x="443.28" y="235.00" font-size="9" fill="#111827" text-anchor="middle" transform="rotate(-45 443.28 235.00)">10.09.2025</text><text x="523.93" y="235.00" font-size="9" fill="#111827" text-anchor="middle" transform="rotate(-45 523.93 235.00)">21.09.2025</text><text x="604.59" y="235.00" font-size="9" fill="#111827" text-anchor="middle" transform="rotate(-45 604.59 235.00)">02.10.2025</text><text x="685.25" y="235.00" font-size="9" fill="#111827" text-anchor="middle" transform="rotate(-45 685.25 235.00)">14.10.2025</text><text x="765.90" y="235.00" font-size="9" fill="#111827" text-anchor="middle" transform="rotate(-45 765.90 235.00)">26.10.2025</text><text x="846.56" y="235.00" font-size="9" fill="#111827" text-anchor="middle" transform="rotate(-45 846.56 235.00)">07.11.2025</text>
  </g>
</svg>