<svg xmlns="http://www.w3.org/2000/svg" width="900" height="290" style="font-family: -apple-system, BlinkMacSystemFont, 'Segoe UI', Helvetica, Arial, sans-serif;">
  <rect width="100%" height="100%" fill="white"/>
  <g>
    <line x1="40" y1="220.00" x2="860" y2="220.00" stroke="#e5e7eb"/><text x="32" y="224.00" font-size="10" fill="#111827" text-anchor="end">0</text><line x1="40" y1="175.00" x2="860" y2="175.00" stroke="#e5e7eb"/><text x="32" y="179.00" font-size="10" fill="#111827" text-anchor="end">500</text><line x1="40" y1="130.00" x2="860" y2="130.00" stroke="#e5e7eb"/><text x="32" y="134.00" font-size="10" fill="#111827" text-anchor="end">1k</text><line x1="40" y1="85.00" x2="860" y2="85.00" stroke="#e5e7eb"/><text x="32" y="89.00" font-size="10" fill="#111827" text-anchor="end">1.5k</text><line x1="40" y1="40.00" x2="860" y2="40.00" stroke="#e5e7eb"/><text x="32" y="44.00" font-size="10" fill="#111827" text-anchor="end">2k</text>
    <line x1="40.00" y1="40" x2="40.00" y2="220" stroke="#e5e7eb" opacity="0.5"/><line x1="119.35" y1="40" x2="119.35" y2="220" stroke="#e5e7eb" opacity="0.5"/><line x1="198.71" y1="40" x2="198.71" y2="220" stroke="#e5e7eb" opacity="0.5"/><line x1="278.06" y1="40" x2="278.06" y2="220" stroke="#e5e7eb" opacity="0.5"/><line x1="357.42" y1="40" x2="357.42" y2="220" stroke="#e5e7eb" opacity="0.5"/><line x1="436.77" y1="40" x2="436.77" y2="220" stroke="#e5e7eb" opacity="0.5"/><line x1="516.13" y1="40" x2="516.13" y2="220" stroke="#e5e7eb" opacity="0.5"/><line x1="595.48" y1="40" x2="595.48" y2="220" stroke="#e5e7eb" opacity="0.5"/><line x1="674.84" y1="40" x2="674.84" y2="220" stroke="#e5e7eb" opacity="0.5"/><line x1="754.19" y1="40" x2="754.19" y2="220" stroke="#e5e7eb" opacity="0.5"/><line x1="833.55" y1="40" x2="833.55" y2="220" stroke="#e5e7eb" opacity="0.5"/>
    <line x1="40" y1="220" x2="860" y2="220" stroke="#9ca3af"/>
    <line x1="40" y1="40"   x2="40"   y2="220" stroke="#9ca3af"/>
    <path d="M 40.00 219.82 L 43.78 211.81 L 47.56 211.81 L 51.34 211.81 L 55.12 171.85 L 58.89 171.58 L 62.67 164.38 L 66.45 118.93 L 70.23 119.11 L 74.01 111.10 L 77.79 110.56 L 81.57 110.56 L 85.35 110.56 L 89.12 95.35 L 92.90 95.35 L 96.68 95.35 L 100.46 94.63 L 104.24 94.54 L 108.02 94.45 L 111.80 94.09 L 115.58 94.09 L 119.35 94.09 L 123.13 94.09 L 126.91 94.09 L 130.69 94.09 L 134.47 94.09 L 138.25 94.09 L 142.03 94.09 L 145.81 91.84 L 149.59 83.65 L 153.36 83.65 L 157.14 83.47 L 160.92 83.65 L 164.70 91.03 L 168.48 91.03 L 172.26 91.03 L 176.04 91.03 L 179.82 91.03 L 183.59 91.03 L 187.37 91.03 L 191.15 91.03 L 194.93 91.03 L 198.71 91.03 L 202.49 91.03 L 206.27 90.94 L 210.05 91.03 L 213.82 90.94 L 217.60 90.94 L 221.38 90.94 L 225.16 90.94 L 228.94 90.94 L 232.72 90.94 L 236.50 90.94 L 240.28 90.94 L 244.06 90.94 L 247.83 90.94 L 251.61 90.94 L 255.39 90.94 L 259.17 90.94 L 262.95 90.94 L 266.73 90.94 L 270.51 90.94 L 274.29 90.94 L 278.06 90.94 L 281.84 90.94 L 285.62 90.94 L 289.40 90.94 L 293.18 90.94 L 296.96 90.94 L 300.74 90.94 L 304.52 90.94 L 308.29 123.79 L 312.07 123.79 L 315.85 123.79 L 319.63 123.79 L 323.41 123.79 L 327.19 123.79 L 330.97 123.79 L 334.75 123.79 L 338.53 123.79 L 342.30 123.79 L 346.08 123.79 L 349.86 123.79 L 353.64 123.79 L 357.42 123.79 L 361.20 123.79 L 364.98 123.79 L 368.76 123.79 L 372.53 123.79 L 376.31 123.79 L 380.09 123.79 L 383.87 123.79 L 387.65 123.79 L 391.43 123.79 L 395.21 123.79 L 398.99 123.79 L 402.76 123.79 L 406.54 123.79 L 410.32 123.79 L 414.10 123.79 L 417.88 123.79 L 421.66 123.79 L 425.44 123.79 L 429.22 123.79 L 433.00 123.79 L 436.77 123.79 L 440.55 123.79 L 444.33 123.79 L 448.11 123.79 L 451.89 123.79 L 455.67 123.79 L 459.45 123.79 L 463.23 123.79 L 467.00 123.79 L 470.78 123.79 L 474.56 123.79 L 478.34 123.79 L 482.12 123.79 L 485.90 123.79 L 489.68 123.79 L 493.46 123.79 L 497.24 123.79 L 501.01 123.79 L 504.79 123.79 L 508.57 123.79 L 512.35 123.79 L 516.13 123.79 L 519.91 123.79 L 523.69 123.79 L 527.47 123.79 L 531.24 123.79 L 535.02 123.79 L 538.80 123.79 L 542.58 123.79 L 546.36 123.79 L 550.14 123.79 L 553.92 123.79 L 557.70 123.79 L 561.47 123.79 L 565.25 123.79 L 569.03 123.79 L 572.81 123.79 L 576.59 123.79 L 580.37 123.79 L 584.15 123.79 L 587.93 123.79 L 591.71 123.79 L 595.48 123.79 L 599.26 115.42 L 603.04 111.64 L 606.82 107.86 L 610.60 104.08 L 614.38 100.30 L 618.16 95.98 L 621.94 95.98 L 625.71 95.98 L 629.49 95.98 L 633.27 85.72 L 637.05 85.72 L 640.83 85.72 L 644.61 85.72 L 648.39 85.72 L 652.17 85.72 L 655.94 85.72 L 659.72 85.72 L 663.50 85.72 L 667.28 85.72 L 671.06 85.72 L 674.84 85.72 L 678.62 85.72 L 682.40 85.72 L 686.18 85.72 L 689.95 85.72 L 693.73 85.72 L 697.51 85.72 L 701.29 85.72 L 705.07 85.72 L 708.85 85.72 L 712.63 85.72 L 716.41 85.72 L 720.18 85.72 L 723.96 85.72 L 727.74 85.72 L 731.52 85.72 L 735.30 85.72 L 739.08 85.72 L 742.86 85.72 L 746.64 85.72 L 750.41 85.72 L 754.19 85.72 L 757.97 85.72 L 761.75 85.72 L 765.53 85.72 L 769.31 85.72 L 773.09 85.72 L 776.87 85.72 L 780.65 85.72 L 784.42 85.72 L 788.20 85.72 L 791.98 85.72 L 795.76 85.72 L 799.54 85.72 L 803.32 85.72 L 807.10 85.72 L 810.88 85.72 L 814.65 85.72 L 818.43 85.72 L 822.21 85.72 L 825.99 85.72 L 829.77 85.72 L 833.55 85.72 L 837.33 85.72 L 841.11 85.72 L 844.88 85.72 L 848.66 85.72 L 852.44 85.72 L 856.22 85.72 L 860.00 85.72" fill="none" stroke="#111827" stroke-width="2"/>
    <circle cx="860.00" cy="85.72" r="3" fill="#111827"/>
    <text x="40.00" y="235.00" font-size="9" fill="#111827" text-anchor="middle" transform="rotate(-45 40.00 235.00)">09.08.2025</text><text x="119.35" y="235.00" font-size="9" fill="#111827" text-anchor="middle" transform="rotate(-45 119.35 235.00)">15.08.2025</text><text x="198.71" y="235.00" font-size="9" fill="#111827" text-anchor="middle" transform="rotate(-45 198.71 235.00)">28.08.2025</text><text x="278.06" y="235.00" font-size="9" fill="#111827" text-anchor="middle" transform="rotate(-45 278.06 235.00)">13.09.2025</text><text x="357.42" y="235.00" font-size="9" fill="#111827" text-anchor="middle" transform="rotate(-45 357.42 235.00)">02.10.2025</text><text x="436.77" y="235.00" font-size="9" fill="#111827" text-anchor="middle" transform="rotate(-45 436.77 235.00)">23.10.2025</text><text x="516.13" y="235.00" font-size="9" fill="#111827" text-anchor="middle" transform="rotate(-45 516.13 235.00)">13.11.2025</text><text x="595.48" y="235.00" font-size="9" fill="#111827" text-anchor="middle" transform="rotate(-45 595.48 235.00)">04.12.2025</text><text x="674.84" y="235.00" font-size="9" fill="#111827" text-anchor="middle" transform="rotate(-45 674.84 235.00)">18.12.2025</text><text x="754.19" y="235.00" font-size="9" fill="#111827" text-anchor="middle" transform="rotate(-45 754.19 235.00)">08.01.2026</text><text x="833.55" y="235.00" font-size="9" fill="#111827" text-anchor="middle" transform="rotate(-45 833.55 235.00)">29.01.2026</text>
  </g>
</svg>