<svg xmlns="http://www.w3.org/2000/svg" width="900" height="290" style="font-family: -apple-system, BlinkMacSystemFont, 'Segoe UI', Helvetica, Arial, sans-serif;">
  <rect width="100%" height="100%" fill="white"/>
  <g>
    <line x1="40" y1="220.00" x2="860" y2="220.00" stroke="#e5e7eb"/><text x="32" y="224.00" font-size="10" fill="#111827" text-anchor="end">0</text><line x1="40" y1="175.00" x2="860" y2="175.00" stroke="#e5e7eb"/><text x="32" y="179.00" font-size="10" fill="#111827" text-anchor="end">500</text><line x1="40" y1="130.00" x2="860" y2="130.00" stroke="#e5e7eb"/><text x="32" y="134.00" font-size="10" fill="#111827" text-anchor="end">1k</text><line x1="40" y1="85.00" x2="860" y2="85.00" stroke="#e5e7eb"/><text x="32" y="89.00" font-size="10" fill="#111827" text-anchor="end">1.5k</text><line x1="40" y1="40.00" x2="860" y2="40.00" stroke="#e5e7eb"/><text x="32" y="44.00" font-size="10" fill="#111827" text-anchor="end">2k</text>
    <line x1="40.00" y1="40" x2="40.00" y2="220" stroke="#e5e7eb" opacity="0.5"/><line x1="122.52" y1="40" x2="122.52" y2="220" stroke="#e5e7eb" opacity="0.5"/><line x1="205.03" y1="40" x2="205.03" y2="220" stroke="#e5e7eb" opacity="0.5"/><line x1="287.55" y1="40" x2="287.55" y2="220" stroke="#e5e7eb" opacity="0.5"/><line x1="370.06" y1="40" x2="370.06" y2="220" stroke="#e5e7eb" opacity="0.5"/><line x1="452.58" y1="40" x2="452.58" y2="220" stroke="#e5e7eb" opacity="0.5"/><line x1="535.09" y1="40" x2="535.09" y2="220" stroke="#e5e7eb" opacity="0.5"/><line x1="617.61" y1="40" x2="617.61" y2="220" stroke="#e5e7eb" opacity="0.5"/><line x1="700.13" y1="40" x2="700.13" y2="220" stroke="#e5e7eb" opacity="0.5"/><line x1="782.64" y1="40" x2="782.64" y2="220" stroke="#e5e7eb" opacity="0.5"/>
    <line x1="40" y1="220" x2="860" y2="220" stroke="#9ca3af"/>
    <line x1="40" y1="40"   x2="40"   y2="220" stroke="#9ca3af"/>
    <path d="M 40.00 219.82 L 45.16 211.81 L 50.31 211.81 L 55.47 211.81 L 60.63 171.85 L 65.79 171.58 L 70.94 164.38 L 76.10 118.93 L 81.26 119.11 L 86.42 111.10 L 91.57 110.56 L 96.73 110.56 L 101.89 110.56 L 107.04 95.35 L 112.20 95.35 L 117.36 95.35 L 122.52 94.63 L 127.67 94.54 L 132.83 94.45 L 137.99 94.09 L 143.14 94.09 L 148.30 94.09 L 153.46 94.09 L 158.62 94.09 L 163.77 94.09 L 168.93 94.09 L 174.09 94.09 L 179.25 94.09 L 184.40 91.84 L 189.56 83.65 L 194.72 83.65 L 199.87 83.47 L 205.03 83.65 L 210.19 91.03 L 215.35 91.03 L 220.50 91.03 L 225.66 91.03 L 230.82 91.03 L 235.97 91.03 L 241.13 91.03 L 246.29 91.03 L 251.45 91.03 L 256.60 91.03 L 261.76 91.03 L 266.92 90.94 L 272.08 91.03 L 277.23 90.94 L 282.39 90.94 L 287.55 90.94 L 292.70 90.94 L 297.86 90.94 L 303.02 90.94 L 308.18 90.94 L 313.33 90.94 L 318.49 90.94 L 323.65 90.94 L 328.81 90.94 L 333.96 90.94 L 339.12 90.94 L 344.28 90.94 L 349.43 90.94 L 354.59 90.94 L 359.75 90.94 L 364.91 90.94 L 370.06 90.94 L 375.22 90.94 L 380.38 90.94 L 385.53 90.94 L 390.69 90.94 L 395.85 90.94 L 401.01 90.94 L 406.16 123.79 L 411.32 123.79 L 416.48 123.79 L 421.64 123.79 L 426.79 123.79 L 431.95 123.79 L 437.11 123.79 L 442.26 123.79 L 447.42 123.79 L 452.58 123.79 L 457.74 123.79 L 462.89 123.79 L 468.05 123.79 L 473.21 123.79 L 478.36 123.79 L 483.52 123.79 L 488.68 123.79 L 493.84 123.79 L 498.99 123.79 L 504.15 123.79 L 509.31 123.79 L 514.47 123.79 L 519.62 123.79 L 524.78 123.79 L 529.94 123.79 L 535.09 123.79 L 540.25 123.79 L 545.41 123.79 L 550.57 123.79 L 555.72 123.79 L 560.88 123.79 L 566.04 123.79 L 571.19 123.79 L 576.35 123.79 L 581.51 123.79 L 586.67 123.79 L 591.82 123.79 L 596.98 123.79 L 602.14 123.79 L 607.30 123.79 L 612.45 123.79 L 617.61 123.79 L 622.77 123.79 L 627.92 123.79 L 633.08 123.79 L 638.24 123.79 L 643.40 123.79 L 648.55 123.79 L 653.71 123.79 L 658.87 123.79 L 664.03 123.79 L 669.18 123.79 L 674.34 123.79 L 679.50 123.79 L 684.65 123.79 L 689.81 123.79 L 694.97 123.79 L 700.13 123.79 L 705.28 123.79 L 710.44 123.79 L 715.60 123.79 L 720.75 123.79 L 725.91 123.79 L 731.07 123.79 L 736.23 123.79 L 741.38 123.79 L 746.54 123.79 L 751.70 123.79 L 756.86 123.79 L 762.01 123.79 L 767.17 123.79 L 772.33 123.79 L 777.48 123.79 L 782.64 123.79 L 787.80 123.79 L 792.96 123.79 L 798.11 123.79 L 803.27 115.42 L 808.43 111.64 L 813.58 107.86 L 818.74 104.08 L 823.90 100.30 L 829.06 95.98 L 834.21 95.98 L 839.37 95.98 L 844.53 95.98 L 849.69 85.72 L 854.84 85.72 L 860.00 85.72" fill="none" stroke="#111827" stroke-width="2"/>
    <circle cx="860.00" cy="85.72" r="3" fill="#111827"/>
    <text x="40.00" y="235.00" font-size="9" fill="#111827" text-anchor="middle" transform="rotate(-45 40.00 235.00)">09.08.2025</text><text x="122.52" y="235.00" font-size="9" fill="#111827" text-anchor="middle" transform="rotate(-45 122.52 235.00)">13.08.2025</text><text x="205.03" y="235.00" font-size="9" fill="#111827" text-anchor="middle" transform="rotate(-45 205.03 235.00)">21.08.2025</text><text x="287.55" y="235.00" font-size="9" fill="#111827" text-anchor="middle" transform="rotate(-45 287.55 235.00)">29.08.2025</text><text x="370.06" y="235.00" font-size="9" fill="#111827" text-anchor="middle" transform="rotate(-45 370.06 235.00)">14.09.2025</text><text x="452.58" y="235.00" font-size="9" fill="#111827" text-anchor="middle" transform="rotate(-45 452.58 235.00)">28.09.2025</text><text x="535.09" y="235.00" font-size="9" fill="#111827" text-anchor="middle" transform="rotate(-45 535.09 235.00)">14.10.2025</text><text x="617.61" y="235.00" font-size="9" fill="#111827" text-anchor="middle" transform="rotate(-45 617.61 235.00)">30.10.2025</text><text x="700.13" y="235.00" font-size="9" fill="#111827" text-anchor="middle" transform="rotate(-45 700.13 235.00)">15.11.2025</text><text x="782.64" y="235.00" font-size="9" fill="#111827" text-anchor="middle" transform="rotate(-45 782.64 235.00)">01.12.2025</text>
  </g>
</svg>