<svg xmlns="http://www.w3.org/2000/svg" width="900" height="290" style="font-family: -apple-system, BlinkMacSystemFont, 'Segoe UI', Helvetica, Arial, sans-serif;">
  <rect width="100%" height="100%" fill="white"/>
  <g>
    <line x1="40" y1="220.00" x2="860" y2="220.00" stroke="#e5e7eb"/><text x="32" y="224.00" font-size="10" fill="#111827" text-anchor="end">0</text><line x1="40" y1="175.00" x2="860" y2="175.00" stroke="#e5e7eb"/><text x="32" y="179.00" font-size="10" fill="#111827" text-anchor="end">500</text><line x1="40" y1="130.00" x2="860" y2="130.00" stroke="#e5e7eb"/><text x="32" y="134.00" font-size="10" fill="#111827" text-anchor="end">1k</text><line x1="40" y1="85.00" x2="860" y2="85.00" stroke="#e5e7eb"/><text x="32" y="89.00" font-size="10" fill="#111827" text-anchor="end">1.5k</text><line x1="40" y1="40.00" x2="860" y2="40.00" stroke="#e5e7eb"/><text x="32" y="44.00" font-size="10" fill="#111827" text-anchor="end">2k</text>
    <line x1="40.00" y1="40" x2="40.00" y2="220" stroke="#e5e7eb" opacity="0.5"/><line x1="118.10" y1="40" x2="118.10" y2="220" stroke="#e5e7eb" opacity="0.5"/><line x1="196.19" y1="40" x2="196.19" y2="220" stroke="#e5e7eb" opacity="0.5"/><line x1="274.29" y1="40" x2="274.29" y2="220" stroke="#e5e7eb" opacity="0.5"/><line x1="352.38" y1="40" x2="352.38" y2="220" stroke="#e5e7eb" opacity="0.5"/><line x1="430.48" y1="40" x2="430.48" y2="220" stroke="#e5e7eb" opacity="0.5"/><line x1="508.57" y1="40" x2="508.57" y2="220" stroke="#e5e7eb" opacity="0.5"/><line x1="586.67" y1="40" x2="586.67" y2="220" stroke="#e5e7eb" opacity="0.5"/><line x1="664.76" y1="40" x2="664.76" y2="220" stroke="#e5e7eb" opacity="0.5"/><line x1="742.86" y1="40" x2="742.86" y2="220" stroke="#e5e7eb" opacity="0.5"/><line x1="820.95" y1="40" x2="820.95" y2="220" stroke="#e5e7eb" opacity="0.5"/>
    <line x1="40" y1="220" x2="860" y2="220" stroke="#9ca3af"/>
    <line x1="40" y1="40"   x2="40"   y2="220" stroke="#9ca3af"/>
    <path d="M 40.00 219.82 L 44.88 211.81 L 49.76 211.81 L 54.64 211.81 L 59.52 171.85 L 64.40 171.58 L 69.29 164.38 L 74.17 118.93 L 79.05 119.11 L 83.93 111.10 L 88.81 110.56 L 93.69 110.56 L 98.57 110.56 L 103.45 95.35 L 108.33 95.35 L 113.21 95.35 L 118.10 94.63 L 122.98 94.54 L 127.86 94.45 L 132.74 94.09 L 137.62 94.09 L 142.50 94.09 L 147.38 94.09 L 152.26 94.09 L 157.14 94.09 L 162.02 94.09 L 166.90 94.09 L 171.79 94.09 L 176.67 91.84 L 181.55 83.65 L 186.43 83.65 L 191.31 83.47 L 196.19 83.65 L 201.07 91.03 L 205.95 91.03 L 210.83 91.03 L 215.71 91.03 L 220.60 91.03 L 225.48 91.03 L 230.36 91.03 L 235.24 91.03 L 240.12 91.03 L 245.00 91.03 L 249.88 91.03 L 254.76 90.94 L 259.64 91.03 L 264.52 90.94 L 269.40 90.94 L 274.29 90.94 L 279.17 90.94 L 284.05 90.94 L 288.93 90.94 L 293.81 90.94 L 298.69 90.94 L 303.57 90.94 L 308.45 90.94 L 313.33 90.94 L 318.21 90.94 L 323.10 90.94 L 327.98 90.94 L 332.86 90.94 L 337.74 90.94 L 342.62 90.94 L 347.50 90.94 L 352.38 90.94 L 357.26 90.94 L 362.14 90.94 L 367.02 90.94 L 371.90 90.94 L 376.79 90.94 L 381.67 90.94 L 386.55 123.79 L 391.43 123.79 L 396.31 123.79 L 401.19 123.79 L 406.07 123.79 L 410.95 123.79 L 415.83 123.79 L 420.71 123.79 L 425.60 123.79 L 430.48 123.79 L 435.36 123.79 L 440.24 123.79 L 445.12 123.79 L 450.00 123.79 L 454.88 123.79 L 459.76 123.79 L 464.64 123.79 L 469.52 123.79 L 474.40 123.79 L 479.29 123.79 L 484.17 123.79 L 489.05 123.79 L 493.93 123.79 L 498.81 123.79 L 503.69 123.79 L 508.57 123.79 L 513.45 123.79 L 518.33 123.79 L 523.21 123.79 L 528.10 123.79 L 532.98 123.79 L 537.86 123.79 L 542.74 123.79 L 547.62 123.79 L 552.50 123.79 L 557.38 123.79 L 562.26 123.79 L 567.14 123.79 L 572.02 123.79 L 576.90 123.79 L 581.79 123.79 L 586.67 123.79 L 591.55 123.79 L 596.43 123.79 L 601.31 123.79 L 606.19 123.79 L 611.07 123.79 L 615.95 123.79 L 620.83 123.79 L 625.71 123.79 L 630.60 123.79 L 635.48 123.79 L 640.36 123.79 L 645.24 123.79 L 650.12 123.79 L 655.00 123.79 L 659.88 123.79 L 664.76 123.79 L 669.64 123.79 L 674.52 123.79 L 679.40 123.79 L 684.29 123.79 L 689.17 123.79 L 694.05 123.79 L 698.93 123.79 L 703.81 123.79 L 708.69 123.79 L 713.57 123.79 L 718.45 123.79 L 723.33 123.79 L 728.21 123.79 L 733.10 123.79 L 737.98 123.79 L 742.86 123.79 L 747.74 123.79 L 752.62 123.79 L 757.50 123.79 L 762.38 115.42 L 767.26 111.64 L 772.14 107.86 L 777.02 104.08 L 781.90 100.30 L 786.79 95.98 L 791.67 95.98 L 796.55 95.98 L 801.43 95.98 L 806.31 85.72 L 811.19 85.72 L 816.07 85.72 L 820.95 85.72 L 825.83 85.72 L 830.71 85.72 L 835.60 85.72 L 840.48 85.72 L 845.36 85.72 L 850.24 85.72 L 855.12 85.72 L 860.00 85.72" fill="none" stroke="#111827" stroke-width="2"/>
    <circle cx="860.00" cy="85.72" r="3" fill="#111827"/>
    <text x="40.00" y="235.00" font-size="9" fill="#111827" text-anchor="middle" transform="rotate(-45 40.00 235.00)">09.08.2025</text><text x="118.10" y="235.00" font-size="9" fill="#111827" text-anchor="middle" transform="rotate(-45 118.10 235.00)">13.08.2025</text><text x="196.19" y="235.00" font-size="9" fill="#111827" text-anchor="middle" transform="rotate(-45 196.19 235.00)">21.08.2025</text><text x="274.29" y="235.00" font-size="9" fill="#111827" text-anchor="middle" transform="rotate(-45 274.29 235.00)">29.08.2025</text><text x="352.38" y="235.00" font-size="9" fill="#111827" text-anchor="middle" transform="rotate(-45 352.38 235.00)">14.09.2025</text><text x="430.48" y="235.00" font-size="9" fill="#111827" text-anchor="middle" transform="rotate(-45 430.48 235.00)">28.09.2025</text><text x="508.57" y="235.00" font-size="9" fill="#111827" text-anchor="middle" transform="rotate(-45 508.57 235.00)">14.10.2025</text><text x="586.67" y="235.00" font-size="9" fill="#111827" text-anchor="middle" transform="rotate(-45 586.67 235.00)">30.10.2025</text><text x="664.76" y="235.00" font-size="9" fill="#111827" text-anchor="middle" transform="rotate(-45 664.76 235.00)">15.11.2025</text><text x="742.86" y="235.00" font-size="9" fill="#111827" text-anchor="middle" transform="rotate(-45 742.86 235.00)">01.12.2025</text><text x="820.95" y="235.00" font-size="9" fill="#111827" text-anchor="middle" transform="rotate(-45 820.95 235.00)">10.12.2025</text>
  </g>
</svg>