<svg xmlns="http://www.w3.org/2000/svg" width="900" height="290" style="font-family: -apple-system, BlinkMacSystemFont, 'Segoe UI', Helvetica, Arial, sans-serif;">
  <rect width="100%" height="100%" fill="white"/>
  <g>
    <line x1="40" y1="220.00" x2="860" y2="220.00" stroke="#e5e7eb"/><text x="32" y="224.00" font-size="10" fill="#111827" text-anchor="end">0</text><line x1="40" y1="175.00" x2="860" y2="175.00" stroke="#e5e7eb"/><text x="32" y="179.00" font-size="10" fill="#111827" text-anchor="end">500</text><line x1="40" y1="130.00" x2="860" y2="130.00" stroke="#e5e7eb"/><text x="32" y="134.00" font-size="10" fill="#111827" text-anchor="end">1k</text><line x1="40" y1="85.00" x2="860" y2="85.00" stroke="#e5e7eb"/><text x="32" y="89.00" font-size="10" fill="#111827" text-anchor="end">1.5k</text><line x1="40" y1="40.00" x2="860" y2="40.00" stroke="#e5e7eb"/><text x="32" y="44.00" font-size="10" fill="#111827" text-anchor="end">2k</text>
    <line x1="40.00" y1="40" x2="40.00" y2="220" stroke="#e5e7eb" opacity="0.5"/><line x1="122.59" y1="40" x2="122.59" y2="220" stroke="#e5e7eb" opacity="0.5"/><line x1="205.18" y1="40" x2="205.18" y2="220" stroke="#e5e7eb" opacity="0.5"/><line x1="287.77" y1="40" x2="287.77" y2="220" stroke="#e5e7eb" opacity="0.5"/><line x1="370.36" y1="40" x2="370.36" y2="220" stroke="#e5e7eb" opacity="0.5"/><line x1="452.95" y1="40" x2="452.95" y2="220" stroke="#e5e7eb" opacity="0.5"/><line x1="535.54" y1="40" x2="535.54" y2="220" stroke="#e5e7eb" opacity="0.5"/><line x1="618.13" y1="40" x2="618.13" y2="220" stroke="#e5e7eb" opacity="0.5"/><line x1="700.72" y1="40" x2="700.72" y2="220" stroke="#e5e7eb" opacity="0.5"/><line x1="783.31" y1="40" x2="783.31" y2="220" stroke="#e5e7eb" opacity="0.5"/>
    <line x1="40" y1="220" x2="860" y2="220" stroke="#9ca3af"/>
    <line x1="40" y1="40"   x2="40"   y2="220" stroke="#9ca3af"/>
    <path d="M 40.00 219.82 L 45.90 211.81 L 51.80 211.81 L 57.70 211.81 L 63.60 171.85 L 69.50 171.58 L 75.40 164.38 L 81.29 118.93 L 87.19 119.11 L 93.09 111.10 L 98.99 110.56 L 104.89 110.56 L 110.79 110.56 L 116.69 95.35 L 122.59 95.35 L 128.49 95.35 L 134.39 94.63 L 140.29 94.54 L 146.19 94.45 L 152.09 94.09 L 157.99 94.09 L 163.88 94.09 L 169.78 94.09 L 175.68 94.09 L 181.58 94.09 L 187.48 94.09 L 193.38 94.09 L 199.28 94.09 L 205.18 91.84 L 211.08 83.65 L 216.98 83.65 L 222.88 83.47 L 228.78 83.65 L 234.68 91.03 L 240.58 91.03 L 246.47 91.03 L 252.37 91.03 L 258.27 91.03 L 264.17 91.03 L 270.07 91.03 L 275.97 91.03 L 281.87 91.03 L 287.77 91.03 L 293.67 91.03 L 299.57 90.94 L 305.47 91.03 L 311.37 90.94 L 317.27 90.94 L 323.17 90.94 L 329.06 90.94 L 334.96 90.94 L 340.86 90.94 L 346.76 90.94 L 352.66 90.94 L 358.56 90.94 L 364.46 90.94 L 370.36 90.94 L 376.26 90.94 L 382.16 90.94 L 388.06 90.94 L 393.96 90.94 L 399.86 90.94 L 405.76 90.94 L 411.65 90.94 L 417.55 90.94 L 423.45 90.94 L 429.35 90.94 L 435.25 90.94 L 441.15 90.94 L 447.05 90.94 L 452.95 90.94 L 458.85 123.79 L 464.75 123.79 L 470.65 123.79 L 476.55 123.79 L 482.45 123.79 L 488.35 123.79 L 494.24 123.79 L 500.14 123.79 L 506.04 123.79 L 511.94 123.79 L 517.84 123.79 L 523.74 123.79 L 529.64 123.79 L 535.54 123.79 L 541.44 123.79 L 547.34 123.79 L 553.24 123.79 L 559.14 123.79 L 565.04 123.79 L 570.94 123.79 L 576.83 123.79 L 582.73 123.79 L 588.63 123.79 L 594.53 123.79 L 600.43 123.79 L 606.33 123.79 L 612.23 123.79 L 618.13 123.79 L 624.03 123.79 L 629.93 123.79 L 635.83 123.79 L 641.73 123.79 L 647.63 123.79 L 653.53 123.79 L 659.42 123.79 L 665.32 123.79 L 671.22 123.79 L 677.12 123.79 L 683.02 123.79 L 688.92 123.79 L 694.82 123.79 L 700.72 123.79 L 706.62 123.79 L 712.52 123.79 L 718.42 123.79 L 724.32 123.79 L 730.22 123.79 L 736.12 123.79 L 742.01 123.79 L 747.91 123.79 L 753.81 123.79 L 759.71 123.79 L 765.61 123.79 L 771.51 123.79 L 777.41 123.79 L 783.31 123.79 L 789.21 123.79 L 795.11 123.79 L 801.01 123.79 L 806.91 123.79 L 812.81 123.79 L 818.71 123.79 L 824.60 123.79 L 830.50 123.79 L 836.40 123.79 L 842.30 123.79 L 848.20 123.79 L 854.10 123.79 L 860.00 123.79" fill="none" stroke="#111827" stroke-width="2"/>
    <circle cx="860.00" cy="123.79" r="3" fill="#111827"/>
    <text x="40.00" y="235.00" font-size="9" fill="#111827" text-anchor="middle" transform="rotate(-45 40.00 235.00)">09.08.2025</text><text x="122.59" y="235.00" font-size="9" fill="#111827" text-anchor="middle" transform="rotate(-45 122.59 235.00)">13.08.2025</text><text x="205.18" y="235.00" font-size="9" fill="#111827" text-anchor="middle" transform="rotate(-45 205.18 235.00)">21.08.2025</text><text x="287.77" y="235.00" font-size="9" fill="#111827" text-anchor="middle" transform="rotate(-45 287.77 235.00)">28.08.2025</text><text x="370.36" y="235.00" font-size="9" fill="#111827" text-anchor="middle" transform="rotate(-45 370.36 235.00)">06.09.2025</text><text x="452.95" y="235.00" font-size="9" fill="#111827" text-anchor="middle" transform="rotate(-45 452.95 235.00)">20.09.2025</text><text x="535.54" y="235.00" font-size="9" fill="#111827" text-anchor="middle" transform="rotate(-45 535.54 235.00)">02.10.2025</text><text x="618.13" y="235.00" font-size="9" fill="#111827" text-anchor="middle" transform="rotate(-45 618.13 235.00)">16.10.2025</text><text x="700.72" y="235.00" font-size="9" fill="#111827" text-anchor="middle" transform="rotate(-45 700.72 235.00)">30.10.2025</text><text x="783.31" y="235.00" font-size="9" fill="#111827" text-anchor="middle" transform="rotate(-45 783.31 235.00)">13.11.2025</text>
  </g>
</svg>