<svg xmlns="http://www.w3.org/2000/svg" width="900" height="290" style="font-family: -apple-system, BlinkMacSystemFont, 'Segoe UI', Helvetica, Arial, sans-serif;">
  <rect width="100%" height="100%" fill="#0d1117"/>
  <g>
    <line x1="40" y1="220.00" x2="860" y2="220.00" stroke="#30363d"/><text x="32" y="224.00" font-size="10" fill="#c9d1d9" text-anchor="end">0</text><line x1="40" y1="175.00" x2="860" y2="175.00" stroke="#30363d"/><text x="32" y="179.00" font-size="10" fill="#c9d1d9" text-anchor="end">500</text><line x1="40" y1="130.00" x2="860" y2="130.00" stroke="#30363d"/><text x="32" y="134.00" font-size="10" fill="#c9d1d9" text-anchor="end">1k</text><line x1="40" y1="85.00" x2="860" y2="85.00" stroke="#30363d"/><text x="32" y="89.00" font-size="10" fill="#c9d1d9" text-anchor="end">1.5k</text><line x1="40" y1="40.00" x2="860" y2="40.00" stroke="#30363d"/><text x="32" y="44.00" font-size="10" fill="#c9d1d9" text-anchor="end">2k</text>
    <line x1="40.00" y1="40" x2="40.00" y2="220" stroke="#30363d" opacity="0.5"/><line x1="117.85" y1="40" x2="117.85" y2="220" stroke="#30363d" opacity="0.5"/><line x1="195.70" y1="40" x2="195.70" y2="220" stroke="#30363d" opacity="0.5"/><line x1="273.54" y1="40" x2="273.54" y2="220" stroke="#30363d" opacity="0.5"/><line x1="351.39" y1="40" x2="351.39" y2="220" stroke="#30363d" opacity="0.5"/><line x1="429.24" y1="40" x2="429.24" y2="220" stroke="#30363d" opacity="0.5"/><line x1="507.09" y1="40" x2="507.09" y2="220" stroke="#30363d" opacity="0.5"/><line x1="584.94" y1="40" x2="584.94" y2="220" stroke="#30363d" opacity="0.5"/><line x1="662.78" y1="40" x2="662.78" y2="220" stroke="#30363d" opacity="0.5"/><line x1="740.63" y1="40" x2="740.63" y2="220" stroke="#30363d" opacity="0.5"/><line x1="818.48" y1="40" x2="818.48" y2="220" stroke="#30363d" opacity="0.5"/>
    <line x1="40" y1="220" x2="860" y2="220" stroke="#30363d"/>
    <line x1="40" y1="40"   x2="40"   y2="220" stroke="#30363d"/>
    <path d="M 40.00 219.82 L 45.19 211.81 L 50.38 211.81 L 55.57 211.81 L 60.76 171.85 L 65.95 171.58 L 71.14 164.38 L 76.33 118.93 L 81.52 119.11 L 86.71 111.10 L 91.90 110.56 L 97.09 110.56 L 102.28 110.56 L 107.47 95.35 L 112.66 95.35 L 117.85 95.35 L 123.04 94.63 L 128.23 94.54 L 133.42 94.45 L 138.61 94.09 L 143.80 94.09 L 148.99 94.09 L 154.18 94.09 L 159.37 94.09 L 164.56 94.09 L 169.75 94.09 L 174.94 94.09 L 180.13 94.09 L 185.32 91.84 L 190.51 83.65 L 195.70 83.65 L 200.89 83.47 L 206.08 83.65 L 211.27 91.03 L 216.46 91.03 L 221.65 91.03 L 226.84 91.03 L 232.03 91.03 L 237.22 91.03 L 242.41 91.03 L 247.59 91.03 L 252.78 91.03 L 257.97 91.03 L 263.16 91.03 L 268.35 90.94 L 273.54 91.03 L 278.73 90.94 L 283.92 90.94 L 289.11 90.94 L 294.30 90.94 L 299.49 90.94 L 304.68 90.94 L 309.87 90.94 L 315.06 90.94 L 320.25 90.94 L 325.44 90.94 L 330.63 90.94 L 335.82 90.94 L 341.01 90.94 L 346.20 90.94 L 351.39 90.94 L 356.58 90.94 L 361.77 90.94 L 366.96 90.94 L 372.15 90.94 L 377.34 90.94 L 382.53 90.94 L 387.72 90.94 L 392.91 90.94 L 398.10 90.94 L 403.29 90.94 L 408.48 123.79 L 413.67 123.79 L 418.86 123.79 L 424.05 123.79 L 429.24 123.79 L 434.43 123.79 L 439.62 123.79 L 444.81 123.79 L 450.00 123.79 L 455.19 123.79 L 460.38 123.79 L 465.57 123.79 L 470.76 123.79 L 475.95 123.79 L 481.14 123.79 L 486.33 123.79 L 491.52 123.79 L 496.71 123.79 L 501.90 123.79 L 507.09 123.79 L 512.28 123.79 L 517.47 123.79 L 522.66 123.79 L 527.85 123.79 L 533.04 123.79 L 538.23 123.79 L 543.42 123.79 L 548.61 123.79 L 553.80 123.79 L 558.99 123.79 L 564.18 123.79 L 569.37 123.79 L 574.56 123.79 L 579.75 123.79 L 584.94 123.79 L 590.13 123.79 L 595.32 123.79 L 600.51 123.79 L 605.70 123.79 L 610.89 123.79 L 616.08 123.79 L 621.27 123.79 L 626.46 123.79 L 631.65 123.79 L 636.84 123.79 L 642.03 123.79 L 647.22 123.79 L 652.41 123.79 L 657.59 123.79 L 662.78 123.79 L 667.97 123.79 L 673.16 123.79 L 678.35 123.79 L 683.54 123.79 L 688.73 123.79 L 693.92 123.79 L 699.11 123.79 L 704.30 123.79 L 709.49 123.79 L 714.68 123.79 L 719.87 123.79 L 725.06 123.79 L 730.25 123.79 L 735.44 123.79 L 740.63 123.79 L 745.82 123.79 L 751.01 123.79 L 756.20 123.79 L 761.39 123.79 L 766.58 123.79 L 771.77 123.79 L 776.96 123.79 L 782.15 123.79 L 787.34 123.79 L 792.53 123.79 L 797.72 123.79 L 802.91 123.79 L 808.10 115.42 L 813.29 111.64 L 818.48 107.86 L 823.67 104.08 L 828.86 100.30 L 834.05 95.98 L 839.24 95.98 L 844.43 95.98 L 849.62 95.98 L 854.81 85.72 L 860.00 85.72" fill="none" stroke="#3fb950" stroke-width="2"/>
    <circle cx="860.00" cy="85.72" r="3" fill="#3fb950"/>
    <text x="40.00" y="235.00" font-size="9" fill="#c9d1d9" text-anchor="middle" transform="rotate(-45 40.00 235.00)">09.08.2025</text><text x="117.85" y="235.00" font-size="9" fill="#c9d1d9" text-anchor="middle" transform="rotate(-45 117.85 235.00)">13.08.2025</text><text x="195.70" y="235.00" font-size="9" fill="#c9d1d9" text-anchor="middle" transform="rotate(-45 195.70 235.00)">21.08.2025</text><text x="273.54" y="235.00" font-size="9" fill="#c9d1d9" text-anchor="middle" transform="rotate(-45 273.54 235.00)">28.08.2025</text><text x="351.39" y="235.00" font-size="9" fill="#c9d1d9" text-anchor="middle" transform="rotate(-45 351.39 235.00)">10.09.2025</text><text x="429.24" y="235.00" font-size="9" fill="#c9d1d9" text-anchor="middle" transform="rotate(-45 429.24 235.00)">23.09.2025</text><text x="507.09" y="235.00" font-size="9" fill="#c9d1d9" text-anchor="middle" transform="rotate(-45 507.09 235.00)">08.10.2025</text><text x="584.94" y="235.00" font-size="9" fill="#c9d1d9" text-anchor="middle" transform="rotate(-45 584.94 235.00)">23.10.2025</text><text x="662.78" y="235.00" font-size="9" fill="#c9d1d9" text-anchor="middle" transform="rotate(-45 662.78 235.00)">07.11.2025</text><text x="740.63" y="235.00" font-size="9" fill="#c9d1d9" text-anchor="middle" transform="rotate(-45 740.63 235.00)">22.11.2025</text><text x="818.48" y="235.00" font-size="9" fill="#c9d1d9" text-anchor="middle" transform="rotate(-45 818.48 235.00)">04.12.2025</text>
  </g>
</svg>