<svg xmlns="http://www.w3.org/2000/svg" width="900" height="290" style="font-family: -apple-system, BlinkMacSystemFont, 'Segoe UI', Helvetica, Arial, sans-serif;">
  <rect width="100%" height="100%" fill="white"/>
  <g>
    <line x1="40" y1="220.00" x2="860" y2="220.00" stroke="#e5e7eb"/><text x="32" y="224.00" font-size="10" fill="#111827" text-anchor="end">0</text><line x1="40" y1="175.00" x2="860" y2="175.00" stroke="#e5e7eb"/><text x="32" y="179.00" font-size="10" fill="#111827" text-anchor="end">500</text><line x1="40" y1="130.00" x2="860" y2="130.00" stroke="#e5e7eb"/><text x="32" y="134.00" font-size="10" fill="#111827" text-anchor="end">1k</text><line x1="40" y1="85.00" x2="860" y2="85.00" stroke="#e5e7eb"/><text x="32" y="89.00" font-size="10" fill="#111827" text-anchor="end">1.5k</text><line x1="40" y1="40.00" x2="860" y2="40.00" stroke="#e5e7eb"/><text x="32" y="44.00" font-size="10" fill="#111827" text-anchor="end">2k</text>
    <line x1="40.00" y1="40" x2="40.00" y2="220" stroke="#e5e7eb" opacity="0.5"/><line x1="122.39" y1="40" x2="122.39" y2="220" stroke="#e5e7eb" opacity="0.5"/><line x1="204.78" y1="40" x2="204.78" y2="220" stroke="#e5e7eb" opacity="0.5"/><line x1="287.18" y1="40" x2="287.18" y2="220" stroke="#e5e7eb" opacity="0.5"/><line x1="369.57" y1="40" x2="369.57" y2="220" stroke="#e5e7eb" opacity="0.5"/><line x1="451.96" y1="40" x2="451.96" y2="220" stroke="#e5e7eb" opacity="0.5"/><line x1="534.35" y1="40" x2="534.35" y2="220" stroke="#e5e7eb" opacity="0.5"/><line x1="616.75" y1="40" x2="616.75" y2="220" stroke="#e5e7eb" opacity="0.5"/><line x1="699.14" y1="40" x2="699.14" y2="220" stroke="#e5e7eb" opacity="0.5"/><line x1="781.53" y1="40" x2="781.53" y2="220" stroke="#e5e7eb" opacity="0.5"/>
    <line x1="40" y1="220" x2="860" y2="220" stroke="#9ca3af"/>
    <line x1="40" y1="40"   x2="40"   y2="220" stroke="#9ca3af"/>
    <path d="M 40.00 219.82 L 43.92 211.81 L 47.85 211.81 L 51.77 211.81 L 55.69 171.85 L 59.62 171.58 L 63.54 164.38 L 67.46 118.93 L 71.39 119.11 L 75.31 111.10 L 79.23 110.56 L 83.16 110.56 L 87.08 110.56 L 91.00 95.35 L 94.93 95.35 L 98.85 95.35 L 102.78 94.63 L 106.70 94.54 L 110.62 94.45 L 114.55 94.09 L 118.47 94.09 L 122.39 94.09 L 126.32 94.09 L 130.24 94.09 L 134.16 94.09 L 138.09 94.09 L 142.01 94.09 L 145.93 94.09 L 149.86 91.84 L 153.78 83.65 L 157.70 83.65 L 161.63 83.47 L 165.55 83.65 L 169.47 91.03 L 173.40 91.03 L 177.32 91.03 L 181.24 91.03 L 185.17 91.03 L 189.09 91.03 L 193.01 91.03 L 196.94 91.03 L 200.86 91.03 L 204.78 91.03 L 208.71 91.03 L 212.63 90.94 L 216.56 91.03 L 220.48 90.94 L 224.40 90.94 L 228.33 90.94 L 232.25 90.94 L 236.17 90.94 L 240.10 90.94 L 244.02 90.94 L 247.94 90.94 L 251.87 90.94 L 255.79 90.94 L 259.71 90.94 L 263.64 90.94 L 267.56 90.94 L 271.48 90.94 L 275.41 90.94 L 279.33 90.94 L 283.25 90.94 L 287.18 90.94 L 291.10 90.94 L 295.02 90.94 L 298.95 90.94 L 302.87 90.94 L 306.79 90.94 L 310.72 90.94 L 314.64 90.94 L 318.56 123.79 L 322.49 123.79 L 326.41 123.79 L 330.33 123.79 L 334.26 123.79 L 338.18 123.79 L 342.11 123.79 L 346.03 123.79 L 349.95 123.79 L 353.88 123.79 L 357.80 123.79 L 361.72 123.79 L 365.65 123.79 L 369.57 123.79 L 373.49 123.79 L 377.42 123.79 L 381.34 123.79 L 385.26 123.79 L 389.19 123.79 L 393.11 123.79 L 397.03 123.79 L 400.96 123.79 L 404.88 123.79 L 408.80 123.79 L 412.73 123.79 L 416.65 123.79 L 420.57 123.79 L 424.50 123.79 L 428.42 123.79 L 432.34 123.79 L 436.27 123.79 L 440.19 123.79 L 444.11 123.79 L 448.04 123.79 L 451.96 123.79 L 455.89 123.79 L 459.81 123.79 L 463.73 123.79 L 467.66 123.79 L 471.58 123.79 L 475.50 123.79 L 479.43 123.79 L 483.35 123.79 L 487.27 123.79 L 491.20 123.79 L 495.12 123.79 L 499.04 123.79 L 502.97 123.79 L 506.89 123.79 L 510.81 123.79 L 514.74 123.79 L 518.66 123.79 L 522.58 123.79 L 526.51 123.79 L 530.43 123.79 L 534.35 123.79 L 538.28 123.79 L 542.20 123.79 L 546.12 123.79 L 550.05 123.79 L 553.97 123.79 L 557.89 123.79 L 561.82 123.79 L 565.74 123.79 L 569.67 123.79 L 573.59 123.79 L 577.51 123.79 L 581.44 123.79 L 585.36 123.79 L 589.28 123.79 L 593.21 123.79 L 597.13 123.79 L 601.05 123.79 L 604.98 123.79 L 608.90 123.79 L 612.82 123.79 L 616.75 123.79 L 620.67 115.42 L 624.59 111.64 L 628.52 107.86 L 632.44 104.08 L 636.36 100.30 L 640.29 95.98 L 644.21 95.98 L 648.13 95.98 L 652.06 95.98 L 655.98 85.72 L 659.90 85.72 L 663.83 85.72 L 667.75 85.72 L 671.67 85.72 L 675.60 85.72 L 679.52 85.72 L 683.44 85.72 L 687.37 85.72 L 691.29 85.72 L 695.22 85.72 L 699.14 85.72 L 703.06 85.72 L 706.99 85.72 L 710.91 85.72 L 714.83 85.72 L 718.76 85.72 L 722.68 85.72 L 726.60 85.72 L 730.53 85.72 L 734.45 85.72 L 738.37 85.72 L 742.30 85.72 L 746.22 85.72 L 750.14 85.72 L 754.07 85.72 L 757.99 85.72 L 761.91 85.72 L 765.84 85.72 L 769.76 85.72 L 773.68 85.72 L 777.61 85.72 L 781.53 85.72 L 785.45 85.72 L 789.38 85.72 L 793.30 85.72 L 797.22 85.72 L 801.15 85.72 L 805.07 85.72 L 809.00 85.72 L 812.92 85.72 L 816.84 85.72 L 820.77 85.72 L 824.69 85.72 L 828.61 85.72 L 832.54 85.72 L 836.46 85.72 L 840.38 85.72 L 844.31 85.72 L 848.23 85.72 L 852.15 85.72 L 856.08 85.72 L 860.00 85.72" fill="none" stroke="#111827" stroke-width="2"/>
    <circle cx="860.00" cy="85.72" r="3" fill="#111827"/>
    <text x="40.00" y="235.00" font-size="9" fill="#111827" text-anchor="middle" transform="rotate(-45 40.00 235.00)">09.08.2025</text><text x="122.39" y="235.00" font-size="9" fill="#111827" text-anchor="middle" transform="rotate(-45 122.39 235.00)">15.08.2025</text><text x="204.78" y="235.00" font-size="9" fill="#111827" text-anchor="middle" transform="rotate(-45 204.78 235.00)">28.08.2025</text><text x="287.18" y="235.00" font-size="9" fill="#111827" text-anchor="middle" transform="rotate(-45 287.18 235.00)">13.09.2025</text><text x="369.57" y="235.00" font-size="9" fill="#111827" text-anchor="middle" transform="rotate(-45 369.57 235.00)">02.10.2025</text><text x="451.96" y="235.00" font-size="9" fill="#111827" text-anchor="middle" transform="rotate(-45 451.96 235.00)">23.10.2025</text><text x="534.35" y="235.00" font-size="9" fill="#111827" text-anchor="middle" transform="rotate(-45 534.35 235.00)">13.11.2025</text><text x="616.75" y="235.00" font-size="9" fill="#111827" text-anchor="middle" transform="rotate(-45 616.75 235.00)">04.12.2025</text><text x="699.14" y="235.00" font-size="9" fill="#111827" text-anchor="middle" transform="rotate(-45 699.14 235.00)">18.12.2025</text><text x="781.53" y="235.00" font-size="9" fill="#111827" text-anchor="middle" transform="rotate(-45 781.53 235.00)">08.01.2026</text>
  </g>
</svg>