<svg xmlns="http://www.w3.org/2000/svg" width="900" height="290" style="font-family: -apple-system, BlinkMacSystemFont, 'Segoe UI', Helvetica, Arial, sans-serif;">
  <rect width="100%" height="100%" fill="white"/>
  <g>
    <line x1="40" y1="220.00" x2="860" y2="220.00" stroke="#e5e7eb"/><text x="32" y="224.00" font-size="10" fill="#111827" text-anchor="end">0</text><line x1="40" y1="175.00" x2="860" y2="175.00" stroke="#e5e7eb"/><text x="32" y="179.00" font-size="10" fill="#111827" text-anchor="end">500</text><line x1="40" y1="130.00" x2="860" y2="130.00" stroke="#e5e7eb"/><text x="32" y="134.00" font-size="10" fill="#111827" text-anchor="end">1k</text><line x1="40" y1="85.00" x2="860" y2="85.00" stroke="#e5e7eb"/><text x="32" y="89.00" font-size="10" fill="#111827" text-anchor="end">1.5k</text><line x1="40" y1="40.00" x2="860" y2="40.00" stroke="#e5e7eb"/><text x="32" y="44.00" font-size="10" fill="#111827" text-anchor="end">2k</text>
    <line x1="40.00" y1="40" x2="40.00" y2="220" stroke="#e5e7eb" opacity="0.5"/><line x1="119.04" y1="40" x2="119.04" y2="220" stroke="#e5e7eb" opacity="0.5"/><line x1="198.07" y1="40" x2="198.07" y2="220" stroke="#e5e7eb" opacity="0.5"/><line x1="277.11" y1="40" x2="277.11" y2="220" stroke="#e5e7eb" opacity="0.5"/><line x1="356.14" y1="40" x2="356.14" y2="220" stroke="#e5e7eb" opacity="0.5"/><line x1="435.18" y1="40" x2="435.18" y2="220" stroke="#e5e7eb" opacity="0.5"/><line x1="514.22" y1="40" x2="514.22" y2="220" stroke="#e5e7eb" opacity="0.5"/><line x1="593.25" y1="40" x2="593.25" y2="220" stroke="#e5e7eb" opacity="0.5"/><line x1="672.29" y1="40" x2="672.29" y2="220" stroke="#e5e7eb" opacity="0.5"/><line x1="751.33" y1="40" x2="751.33" y2="220" stroke="#e5e7eb" opacity="0.5"/><line x1="830.36" y1="40" x2="830.36" y2="220" stroke="#e5e7eb" opacity="0.5"/>
    <line x1="40" y1="220" x2="860" y2="220" stroke="#9ca3af"/>
    <line x1="40" y1="40"   x2="40"   y2="220" stroke="#9ca3af"/>
    <path d="M 40.00 219.82 L 44.94 211.81 L 49.88 211.81 L 54.82 211.81 L 59.76 171.85 L 64.70 171.58 L 69.64 164.38 L 74.58 118.93 L 79.52 119.11 L 84.46 111.10 L 89.40 110.56 L 94.34 110.56 L 99.28 110.56 L 104.22 95.35 L 109.16 95.35 L 114.10 95.35 L 119.04 94.63 L 123.98 94.54 L 128.92 94.45 L 133.86 94.09 L 138.80 94.09 L 143.73 94.09 L 148.67 94.09 L 153.61 94.09 L 158.55 94.09 L 163.49 94.09 L 168.43 94.09 L 173.37 94.09 L 178.31 91.84 L 183.25 83.65 L 188.19 83.65 L 193.13 83.47 L 198.07 83.65 L 203.01 91.03 L 207.95 91.03 L 212.89 91.03 L 217.83 91.03 L 222.77 91.03 L 227.71 91.03 L 232.65 91.03 L 237.59 91.03 L 242.53 91.03 L 247.47 91.03 L 252.41 91.03 L 257.35 90.94 L 262.29 91.03 L 267.23 90.94 L 272.17 90.94 L 277.11 90.94 L 282.05 90.94 L 286.99 90.94 L 291.93 90.94 L 296.87 90.94 L 301.81 90.94 L 306.75 90.94 L 311.69 90.94 L 316.63 90.94 L 321.57 90.94 L 326.51 90.94 L 331.45 90.94 L 336.39 90.94 L 341.33 90.94 L 346.27 90.94 L 351.20 90.94 L 356.14 90.94 L 361.08 90.94 L 366.02 90.94 L 370.96 90.94 L 375.90 90.94 L 380.84 90.94 L 385.78 90.94 L 390.72 123.79 L 395.66 123.79 L 400.60 123.79 L 405.54 123.79 L 410.48 123.79 L 415.42 123.79 L 420.36 123.79 L 425.30 123.79 L 430.24 123.79 L 435.18 123.79 L 440.12 123.79 L 445.06 123.79 L 450.00 123.79 L 454.94 123.79 L 459.88 123.79 L 464.82 123.79 L 469.76 123.79 L 474.70 123.79 L 479.64 123.79 L 484.58 123.79 L 489.52 123.79 L 494.46 123.79 L 499.40 123.79 L 504.34 123.79 L 509.28 123.79 L 514.22 123.79 L 519.16 123.79 L 524.10 123.79 L 529.04 123.79 L 533.98 123.79 L 538.92 123.79 L 543.86 123.79 L 548.80 123.79 L 553.73 123.79 L 558.67 123.79 L 563.61 123.79 L 568.55 123.79 L 573.49 123.79 L 578.43 123.79 L 583.37 123.79 L 588.31 123.79 L 593.25 123.79 L 598.19 123.79 L 603.13 123.79 L 608.07 123.79 L 613.01 123.79 L 617.95 123.79 L 622.89 123.79 L 627.83 123.79 L 632.77 123.79 L 637.71 123.79 L 642.65 123.79 L 647.59 123.79 L 652.53 123.79 L 657.47 123.79 L 662.41 123.79 L 667.35 123.79 L 672.29 123.79 L 677.23 123.79 L 682.17 123.79 L 687.11 123.79 L 692.05 123.79 L 696.99 123.79 L 701.93 123.79 L 706.87 123.79 L 711.81 123.79 L 716.75 123.79 L 721.69 123.79 L 726.63 123.79 L 731.57 123.79 L 736.51 123.79 L 741.45 123.79 L 746.39 123.79 L 751.33 123.79 L 756.27 123.79 L 761.20 123.79 L 766.14 123.79 L 771.08 115.42 L 776.02 111.64 L 780.96 107.86 L 785.90 104.08 L 790.84 100.30 L 795.78 95.98 L 800.72 95.98 L 805.66 95.98 L 810.60 95.98 L 815.54 85.72 L 820.48 85.72 L 825.42 85.72 L 830.36 85.72 L 835.30 85.72 L 840.24 85.72 L 845.18 85.72 L 850.12 85.72 L 855.06 85.72 L 860.00 85.72" fill="none" stroke="#111827" stroke-width="2"/>
    <circle cx="860.00" cy="85.72" r="3" fill="#111827"/>
    <text x="40.00" y="235.00" font-size="9" fill="#111827" text-anchor="middle" transform="rotate(-45 40.00 235.00)">09.08.2025</text><text x="119.04" y="235.00" font-size="9" fill="#111827" text-anchor="middle" transform="rotate(-45 119.04 235.00)">13.08.2025</text><text x="198.07" y="235.00" font-size="9" fill="#111827" text-anchor="middle" transform="rotate(-45 198.07 235.00)">21.08.2025</text><text x="277.11" y="235.00" font-size="9" fill="#111827" text-anchor="middle" transform="rotate(-45 277.11 235.00)">29.08.2025</text><text x="356.14" y="235.00" font-size="9" fill="#111827" text-anchor="middle" transform="rotate(-45 356.14 235.00)">14.09.2025</text><text x="435.18" y="235.00" font-size="9" fill="#111827" text-anchor="middle" transform="rotate(-45 435.18 235.00)">28.09.2025</text><text x="514.22" y="235.00" font-size="9" fill="#111827" text-anchor="middle" transform="rotate(-45 514.22 235.00)">14.10.2025</text><text x="593.25" y="235.00" font-size="9" fill="#111827" text-anchor="middle" transform="rotate(-45 593.25 235.00)">30.10.2025</text><text x="672.29" y="235.00" font-size="9" fill="#111827" text-anchor="middle" transform="rotate(-45 672.29 235.00)">15.11.2025</text><text x="751.33" y="235.00" font-size="9" fill="#111827" text-anchor="middle" transform="rotate(-45 751.33 235.00)">01.12.2025</text><text x="830.36" y="235.00" font-size="9" fill="#111827" text-anchor="middle" transform="rotate(-45 830.36 235.00)">10.12.2025</text>
  </g>
</svg>