<svg xmlns="http://www.w3.org/2000/svg" width="900" height="290" style="font-family: -apple-system, BlinkMacSystemFont, 'Segoe UI', Helvetica, Arial, sans-serif;">
  <rect width="100%" height="100%" fill="white"/>
  <g>
    <line x1="40" y1="220.00" x2="860" y2="220.00" stroke="#e5e7eb"/><text x="32" y="224.00" font-size="10" fill="#111827" text-anchor="end">0</text><line x1="40" y1="175.00" x2="860" y2="175.00" stroke="#e5e7eb"/><text x="32" y="179.00" font-size="10" fill="#111827" text-anchor="end">500</text><line x1="40" y1="130.00" x2="860" y2="130.00" stroke="#e5e7eb"/><text x="32" y="134.00" font-size="10" fill="#111827" text-anchor="end">1k</text><line x1="40" y1="85.00" x2="860" y2="85.00" stroke="#e5e7eb"/><text x="32" y="89.00" font-size="10" fill="#111827" text-anchor="end">1.5k</text><line x1="40" y1="40.00" x2="860" y2="40.00" stroke="#e5e7eb"/><text x="32" y="44.00" font-size="10" fill="#111827" text-anchor="end">2k</text>
    <line x1="40.00" y1="40" x2="40.00" y2="220" stroke="#e5e7eb" opacity="0.5"/><line x1="116.28" y1="40" x2="116.28" y2="220" stroke="#e5e7eb" opacity="0.5"/><line x1="192.56" y1="40" x2="192.56" y2="220" stroke="#e5e7eb" opacity="0.5"/><line x1="268.84" y1="40" x2="268.84" y2="220" stroke="#e5e7eb" opacity="0.5"/><line x1="345.12" y1="40" x2="345.12" y2="220" stroke="#e5e7eb" opacity="0.5"/><line x1="421.40" y1="40" x2="421.40" y2="220" stroke="#e5e7eb" opacity="0.5"/><line x1="497.67" y1="40" x2="497.67" y2="220" stroke="#e5e7eb" opacity="0.5"/><line x1="573.95" y1="40" x2="573.95" y2="220" stroke="#e5e7eb" opacity="0.5"/><line x1="650.23" y1="40" x2="650.23" y2="220" stroke="#e5e7eb" opacity="0.5"/><line x1="726.51" y1="40" x2="726.51" y2="220" stroke="#e5e7eb" opacity="0.5"/><line x1="802.79" y1="40" x2="802.79" y2="220" stroke="#e5e7eb" opacity="0.5"/>
    <line x1="40" y1="220" x2="860" y2="220" stroke="#9ca3af"/>
    <line x1="40" y1="40"   x2="40"   y2="220" stroke="#9ca3af"/>
    <path d="M 40.00 219.82 L 49.53 211.81 L 59.07 211.81 L 68.60 211.81 L 78.14 171.85 L 87.67 171.58 L 97.21 164.38 L 106.74 118.93 L 116.28 119.11 L 125.81 111.10 L 135.35 110.56 L 144.88 110.56 L 154.42 110.56 L 163.95 95.35 L 173.49 95.35 L 183.02 95.35 L 192.56 94.63 L 202.09 94.54 L 211.63 94.45 L 221.16 94.09 L 230.70 94.09 L 240.23 94.09 L 249.77 94.09 L 259.30 94.09 L 268.84 94.09 L 278.37 94.09 L 287.91 94.09 L 297.44 94.09 L 306.98 91.84 L 316.51 83.65 L 326.05 83.65 L 335.58 83.47 L 345.12 83.65 L 354.65 91.03 L 364.19 91.03 L 373.72 91.03 L 383.26 91.03 L 392.79 91.03 L 402.33 91.03 L 411.86 91.03 L 421.40 91.03 L 430.93 91.03 L 440.47 91.03 L 450.00 91.03 L 459.53 90.94 L 469.07 91.03 L 478.60 90.94 L 488.14 90.94 L 497.67 90.94 L 507.21 90.94 L 516.74 90.94 L 526.28 90.94 L 535.81 90.94 L 545.35 90.94 L 554.88 90.94 L 564.42 90.94 L 573.95 90.94 L 583.49 90.94 L 593.02 90.94 L 602.56 90.94 L 612.09 90.94 L 621.63 90.94 L 631.16 90.94 L 640.70 90.94 L 650.23 90.94 L 659.77 90.94 L 669.30 90.94 L 678.84 90.94 L 688.37 90.94 L 697.91 90.94 L 707.44 90.94 L 716.98 123.79 L 726.51 123.79 L 736.05 123.79 L 745.58 123.79 L 755.12 123.79 L 764.65 123.79 L 774.19 123.79 L 783.72 123.79 L 793.26 123.79 L 802.79 123.79 L 812.33 123.79 L 821.86 123.79 L 831.40 123.79 L 840.93 123.79 L 850.47 123.79 L 860.00 123.79" fill="none" stroke="#111827" stroke-width="2"/>
    <circle cx="860.00" cy="123.79" r="3" fill="#111827"/>
    <text x="40.00" y="235.00" font-size="9" fill="#111827" text-anchor="middle" transform="rotate(-45 40.00 235.00)">09.08.2025</text><text x="116.28" y="235.00" font-size="9" fill="#111827" text-anchor="middle" transform="rotate(-45 116.28 235.00)">12.08.2025</text><text x="192.56" y="235.00" font-size="9" fill="#111827" text-anchor="middle" transform="rotate(-45 192.56 235.00)">13.08.2025</text><text x="268.84" y="235.00" font-size="9" fill="#111827" text-anchor="middle" transform="rotate(-45 268.84 235.00)">18.08.2025</text><text x="345.12" y="235.00" font-size="9" fill="#111827" text-anchor="middle" transform="rotate(-45 345.12 235.00)">21.08.2025</text><text x="421.40" y="235.00" font-size="9" fill="#111827" text-anchor="middle" transform="rotate(-45 421.40 235.00)">26.08.2025</text><text x="497.67" y="235.00" font-size="9" fill="#111827" text-anchor="middle" transform="rotate(-45 497.67 235.00)">29.08.2025</text><text x="573.95" y="235.00" font-size="9" fill="#111827" text-anchor="middle" transform="rotate(-45 573.95 235.00)">06.09.2025</text><text x="650.23" y="235.00" font-size="9" fill="#111827" text-anchor="middle" transform="rotate(-45 650.23 235.00)">14.09.2025</text><text x="726.51" y="235.00" font-size="9" fill="#111827" text-anchor="middle" transform="rotate(-45 726.51 235.00)">21.09.2025</text><text x="802.79" y="235.00" font-size="9" fill="#111827" text-anchor="middle" transform="rotate(-45 802.79 235.00)">28.09.2025</text>
  </g>
</svg>