<svg xmlns="http://www.w3.org/2000/svg" width="900" height="290" style="font-family: -apple-system, BlinkMacSystemFont, 'Segoe UI', Helvetica, Arial, sans-serif;">
  <rect width="100%" height="100%" fill="#0d1117"/>
  <g>
    <line x1="40" y1="220.00" x2="860" y2="220.00" stroke="#30363d"/><text x="32" y="224.00" font-size="10" fill="#c9d1d9" text-anchor="end">0</text><line x1="40" y1="175.00" x2="860" y2="175.00" stroke="#30363d"/><text x="32" y="179.00" font-size="10" fill="#c9d1d9" text-anchor="end">500</text><line x1="40" y1="130.00" x2="860" y2="130.00" stroke="#30363d"/><text x="32" y="134.00" font-size="10" fill="#c9d1d9" text-anchor="end">1k</text><line x1="40" y1="85.00" x2="860" y2="85.00" stroke="#30363d"/><text x="32" y="89.00" font-size="10" fill="#c9d1d9" text-anchor="end">1.5k</text><line x1="40" y1="40.00" x2="860" y2="40.00" stroke="#30363d"/><text x="32" y="44.00" font-size="10" fill="#c9d1d9" text-anchor="end">2k</text>
    <line x1="40.00" y1="40" x2="40.00" y2="220" stroke="#30363d" opacity="0.5"/><line x1="122.92" y1="40" x2="122.92" y2="220" stroke="#30363d" opacity="0.5"/><line x1="205.84" y1="40" x2="205.84" y2="220" stroke="#30363d" opacity="0.5"/><line x1="288.76" y1="40" x2="288.76" y2="220" stroke="#30363d" opacity="0.5"/><line x1="371.69" y1="40" x2="371.69" y2="220" stroke="#30363d" opacity="0.5"/><line x1="454.61" y1="40" x2="454.61" y2="220" stroke="#30363d" opacity="0.5"/><line x1="537.53" y1="40" x2="537.53" y2="220" stroke="#30363d" opacity="0.5"/><line x1="620.45" y1="40" x2="620.45" y2="220" stroke="#30363d" opacity="0.5"/><line x1="703.37" y1="40" x2="703.37" y2="220" stroke="#30363d" opacity="0.5"/><line x1="786.29" y1="40" x2="786.29" y2="220" stroke="#30363d" opacity="0.5"/>
    <line x1="40" y1="220" x2="860" y2="220" stroke="#30363d"/>
    <line x1="40" y1="40"   x2="40"   y2="220" stroke="#30363d"/>
    <path d="M 40.00 219.82 L 49.21 211.81 L 58.43 211.81 L 67.64 211.81 L 76.85 171.85 L 86.07 171.58 L 95.28 164.38 L 104.49 118.93 L 113.71 119.11 L 122.92 111.10 L 132.13 110.56 L 141.35 110.56 L 150.56 110.56 L 159.78 95.35 L 168.99 95.35 L 178.20 95.35 L 187.42 94.63 L 196.63 94.54 L 205.84 94.45 L 215.06 94.09 L 224.27 94.09 L 233.48 94.09 L 242.70 94.09 L 251.91 94.09 L 261.12 94.09 L 270.34 94.09 L 279.55 94.09 L 288.76 94.09 L 297.98 91.84 L 307.19 83.65 L 316.40 83.65 L 325.62 83.47 L 334.83 83.65 L 344.04 91.03 L 353.26 91.03 L 362.47 91.03 L 371.69 91.03 L 380.90 91.03 L 390.11 91.03 L 399.33 91.03 L 408.54 91.03 L 417.75 91.03 L 426.97 91.03 L 436.18 91.03 L 445.39 90.94 L 454.61 91.03 L 463.82 90.94 L 473.03 90.94 L 482.25 90.94 L 491.46 90.94 L 500.67 90.94 L 509.89 90.94 L 519.10 90.94 L 528.31 90.94 L 537.53 90.94 L 546.74 90.94 L 555.96 90.94 L 565.17 90.94 L 574.38 90.94 L 583.60 90.94 L 592.81 90.94 L 602.02 90.94 L 611.24 90.94 L 620.45 90.94 L 629.66 90.94 L 638.88 90.94 L 648.09 90.94 L 657.30 90.94 L 666.52 90.94 L 675.73 90.94 L 684.94 90.94 L 694.16 123.79 L 703.37 123.79 L 712.58 123.79 L 721.80 123.79 L 731.01 123.79 L 740.22 123.79 L 749.44 123.79 L 758.65 123.79 L 767.87 123.79 L 777.08 123.79 L 786.29 123.79 L 795.51 123.79 L 804.72 123.79 L 813.93 123.79 L 823.15 123.79 L 832.36 123.79 L 841.57 123.79 L 850.79 123.79 L 860.00 123.79" fill="none" stroke="#3fb950" stroke-width="2"/>
    <circle cx="860.00" cy="123.79" r="3" fill="#3fb950"/>
    <text x="40.00" y="235.00" font-size="9" fill="#c9d1d9" text-anchor="middle" transform="rotate(-45 40.00 235.00)">09.08.2025</text><text x="122.92" y="235.00" font-size="9" fill="#c9d1d9" text-anchor="middle" transform="rotate(-45 122.92 235.00)">13.08.2025</text><text x="205.84" y="235.00" font-size="9" fill="#c9d1d9" text-anchor="middle" transform="rotate(-45 205.84 235.00)">13.08.2025</text><text x="288.76" y="235.00" font-size="9" fill="#c9d1d9" text-anchor="middle" transform="rotate(-45 288.76 235.00)">21.08.2025</text><text x="371.69" y="235.00" font-size="9" fill="#c9d1d9" text-anchor="middle" transform="rotate(-45 371.69 235.00)">22.08.2025</text><text x="454.61" y="235.00" font-size="9" fill="#c9d1d9" text-anchor="middle" transform="rotate(-45 454.61 235.00)">28.08.2025</text><text x="537.53" y="235.00" font-size="9" fill="#c9d1d9" text-anchor="middle" transform="rotate(-45 537.53 235.00)">04.09.2025</text><text x="620.45" y="235.00" font-size="9" fill="#c9d1d9" text-anchor="middle" transform="rotate(-45 620.45 235.00)">13.09.2025</text><text x="703.37" y="235.00" font-size="9" fill="#c9d1d9" text-anchor="middle" transform="rotate(-45 703.37 235.00)">21.09.2025</text><text x="786.29" y="235.00" font-size="9" fill="#c9d1d9" text-anchor="middle" transform="rotate(-45 786.29 235.00)">29.09.2025</text>
  </g>
</svg>