<svg xmlns="http://www.w3.org/2000/svg" width="900" height="290" style="font-family: -apple-system, BlinkMacSystemFont, 'Segoe UI', Helvetica, Arial, sans-serif;">
  <rect width="100%" height="100%" fill="white"/>
  <g>
    <line x1="40" y1="220.00" x2="860" y2="220.00" stroke="#e5e7eb"/><text x="32" y="224.00" font-size="10" fill="#111827" text-anchor="end">0</text><line x1="40" y1="175.00" x2="860" y2="175.00" stroke="#e5e7eb"/><text x="32" y="179.00" font-size="10" fill="#111827" text-anchor="end">500</text><line x1="40" y1="130.00" x2="860" y2="130.00" stroke="#e5e7eb"/><text x="32" y="134.00" font-size="10" fill="#111827" text-anchor="end">1k</text><line x1="40" y1="85.00" x2="860" y2="85.00" stroke="#e5e7eb"/><text x="32" y="89.00" font-size="10" fill="#111827" text-anchor="end">1.5k</text><line x1="40" y1="40.00" x2="860" y2="40.00" stroke="#e5e7eb"/><text x="32" y="44.00" font-size="10" fill="#111827" text-anchor="end">2k</text>
    <line x1="40.00" y1="40" x2="40.00" y2="220" stroke="#e5e7eb" opacity="0.5"/><line x1="117.09" y1="40" x2="117.09" y2="220" stroke="#e5e7eb" opacity="0.5"/><line x1="194.19" y1="40" x2="194.19" y2="220" stroke="#e5e7eb" opacity="0.5"/><line x1="271.28" y1="40" x2="271.28" y2="220" stroke="#e5e7eb" opacity="0.5"/><line x1="348.38" y1="40" x2="348.38" y2="220" stroke="#e5e7eb" opacity="0.5"/><line x1="425.47" y1="40" x2="425.47" y2="220" stroke="#e5e7eb" opacity="0.5"/><line x1="502.56" y1="40" x2="502.56" y2="220" stroke="#e5e7eb" opacity="0.5"/><line x1="579.66" y1="40" x2="579.66" y2="220" stroke="#e5e7eb" opacity="0.5"/><line x1="656.75" y1="40" x2="656.75" y2="220" stroke="#e5e7eb" opacity="0.5"/><line x1="733.85" y1="40" x2="733.85" y2="220" stroke="#e5e7eb" opacity="0.5"/><line x1="810.94" y1="40" x2="810.94" y2="220" stroke="#e5e7eb" opacity="0.5"/>
    <line x1="40" y1="220" x2="860" y2="220" stroke="#9ca3af"/>
    <line x1="40" y1="40"   x2="40"   y2="220" stroke="#9ca3af"/>
    <path d="M 40.00 219.82 L 47.01 211.81 L 54.02 211.81 L 61.03 211.81 L 68.03 171.85 L 75.04 171.58 L 82.05 164.38 L 89.06 118.93 L 96.07 119.11 L 103.08 111.10 L 110.09 110.56 L 117.09 110.56 L 124.10 110.56 L 131.11 95.35 L 138.12 95.35 L 145.13 95.35 L 152.14 94.63 L 159.15 94.54 L 166.15 94.45 L 173.16 94.09 L 180.17 94.09 L 187.18 94.09 L 194.19 94.09 L 201.20 94.09 L 208.21 94.09 L 215.21 94.09 L 222.22 94.09 L 229.23 94.09 L 236.24 91.84 L 243.25 83.65 L 250.26 83.65 L 257.26 83.47 L 264.27 83.65 L 271.28 91.03 L 278.29 91.03 L 285.30 91.03 L 292.31 91.03 L 299.32 91.03 L 306.32 91.03 L 313.33 91.03 L 320.34 91.03 L 327.35 91.03 L 334.36 91.03 L 341.37 91.03 L 348.38 90.94 L 355.38 91.03 L 362.39 90.94 L 369.40 90.94 L 376.41 90.94 L 383.42 90.94 L 390.43 90.94 L 397.44 90.94 L 404.44 90.94 L 411.45 90.94 L 418.46 90.94 L 425.47 90.94 L 432.48 90.94 L 439.49 90.94 L 446.50 90.94 L 453.50 90.94 L 460.51 90.94 L 467.52 90.94 L 474.53 90.94 L 481.54 90.94 L 488.55 90.94 L 495.56 90.94 L 502.56 90.94 L 509.57 90.94 L 516.58 90.94 L 523.59 90.94 L 530.60 90.94 L 537.61 123.79 L 544.62 123.79 L 551.62 123.79 L 558.63 123.79 L 565.64 123.79 L 572.65 123.79 L 579.66 123.79 L 586.67 123.79 L 593.68 123.79 L 600.68 123.79 L 607.69 123.79 L 614.70 123.79 L 621.71 123.79 L 628.72 123.79 L 635.73 123.79 L 642.74 123.79 L 649.74 123.79 L 656.75 123.79 L 663.76 123.79 L 670.77 123.79 L 677.78 123.79 L 684.79 123.79 L 691.79 123.79 L 698.80 123.79 L 705.81 123.79 L 712.82 123.79 L 719.83 123.79 L 726.84 123.79 L 733.85 123.79 L 740.85 123.79 L 747.86 123.79 L 754.87 123.79 L 761.88 123.79 L 768.89 123.79 L 775.90 123.79 L 782.91 123.79 L 789.91 123.79 L 796.92 123.79 L 803.93 123.79 L 810.94 123.79 L 817.95 123.79 L 824.96 123.79 L 831.97 123.79 L 838.97 123.79 L 845.98 123.79 L 852.99 123.79 L 860.00 123.79" fill="none" stroke="#111827" stroke-width="2"/>
    <circle cx="860.00" cy="123.79" r="3" fill="#111827"/>
    <text x="40.00" y="235.00" font-size="9" fill="#111827" text-anchor="middle" transform="rotate(-45 40.00 235.00)">09.08.2025</text><text x="117.09" y="235.00" font-size="9" fill="#111827" text-anchor="middle" transform="rotate(-45 117.09 235.00)">13.08.2025</text><text x="194.19" y="235.00" font-size="9" fill="#111827" text-anchor="middle" transform="rotate(-45 194.19 235.00)">16.08.2025</text><text x="271.28" y="235.00" font-size="9" fill="#111827" text-anchor="middle" transform="rotate(-45 271.28 235.00)">21.08.2025</text><text x="348.38" y="235.00" font-size="9" fill="#111827" text-anchor="middle" transform="rotate(-45 348.38 235.00)">28.08.2025</text><text x="425.47" y="235.00" font-size="9" fill="#111827" text-anchor="middle" transform="rotate(-45 425.47 235.00)">05.09.2025</text><text x="502.56" y="235.00" font-size="9" fill="#111827" text-anchor="middle" transform="rotate(-45 502.56 235.00)">16.09.2025</text><text x="579.66" y="235.00" font-size="9" fill="#111827" text-anchor="middle" transform="rotate(-45 579.66 235.00)">25.09.2025</text><text x="656.75" y="235.00" font-size="9" fill="#111827" text-anchor="middle" transform="rotate(-45 656.75 235.00)">06.10.2025</text><text x="733.85" y="235.00" font-size="9" fill="#111827" text-anchor="middle" transform="rotate(-45 733.85 235.00)">17.10.2025</text><text x="810.94" y="235.00" font-size="9" fill="#111827" text-anchor="middle" transform="rotate(-45 810.94 235.00)">28.10.2025</text>
  </g>
</svg>