<svg xmlns="http://www.w3.org/2000/svg" width="900" height="290" style="font-family: -apple-system, BlinkMacSystemFont, 'Segoe UI', Helvetica, Arial, sans-serif;">
  <rect width="100%" height="100%" fill="white"/>
  <g>
    <line x1="40" y1="220.00" x2="860" y2="220.00" stroke="#e5e7eb"/><text x="32" y="224.00" font-size="10" fill="#111827" text-anchor="end">0</text><line x1="40" y1="175.00" x2="860" y2="175.00" stroke="#e5e7eb"/><text x="32" y="179.00" font-size="10" fill="#111827" text-anchor="end">500</text><line x1="40" y1="130.00" x2="860" y2="130.00" stroke="#e5e7eb"/><text x="32" y="134.00" font-size="10" fill="#111827" text-anchor="end">1k</text><line x1="40" y1="85.00" x2="860" y2="85.00" stroke="#e5e7eb"/><text x="32" y="89.00" font-size="10" fill="#111827" text-anchor="end">1.5k</text><line x1="40" y1="40.00" x2="860" y2="40.00" stroke="#e5e7eb"/><text x="32" y="44.00" font-size="10" fill="#111827" text-anchor="end">2k</text>
    <line x1="40.00" y1="40" x2="40.00" y2="220" stroke="#e5e7eb" opacity="0.5"/><line x1="113.59" y1="40" x2="113.59" y2="220" stroke="#e5e7eb" opacity="0.5"/><line x1="187.18" y1="40" x2="187.18" y2="220" stroke="#e5e7eb" opacity="0.5"/><line x1="260.77" y1="40" x2="260.77" y2="220" stroke="#e5e7eb" opacity="0.5"/><line x1="334.36" y1="40" x2="334.36" y2="220" stroke="#e5e7eb" opacity="0.5"/><line x1="407.95" y1="40" x2="407.95" y2="220" stroke="#e5e7eb" opacity="0.5"/><line x1="481.54" y1="40" x2="481.54" y2="220" stroke="#e5e7eb" opacity="0.5"/><line x1="555.13" y1="40" x2="555.13" y2="220" stroke="#e5e7eb" opacity="0.5"/><line x1="628.72" y1="40" x2="628.72" y2="220" stroke="#e5e7eb" opacity="0.5"/><line x1="702.31" y1="40" x2="702.31" y2="220" stroke="#e5e7eb" opacity="0.5"/><line x1="775.90" y1="40" x2="775.90" y2="220" stroke="#e5e7eb" opacity="0.5"/><line x1="849.49" y1="40" x2="849.49" y2="220" stroke="#e5e7eb" opacity="0.5"/>
    <line x1="40" y1="220" x2="860" y2="220" stroke="#9ca3af"/>
    <line x1="40" y1="40"   x2="40"   y2="220" stroke="#9ca3af"/>
    <path d="M 40.00 219.82 L 50.51 211.81 L 61.03 211.81 L 71.54 211.81 L 82.05 171.85 L 92.56 171.58 L 103.08 164.38 L 113.59 118.93 L 124.10 119.11 L 134.62 111.10 L 145.13 110.56 L 155.64 110.56 L 166.15 110.56 L 176.67 95.35 L 187.18 95.35 L 197.69 95.35 L 208.21 94.63 L 218.72 94.54 L 229.23 94.45 L 239.74 94.09 L 250.26 94.09 L 260.77 94.09 L 271.28 94.09 L 281.79 94.09 L 292.31 94.09 L 302.82 94.09 L 313.33 94.09 L 323.85 94.09 L 334.36 91.84 L 344.87 83.65 L 355.38 83.65 L 365.90 83.47 L 376.41 83.65 L 386.92 91.03 L 397.44 91.03 L 407.95 91.03 L 418.46 91.03 L 428.97 91.03 L 439.49 91.03 L 450.00 91.03 L 460.51 91.03 L 471.03 91.03 L 481.54 91.03 L 492.05 91.03 L 502.56 90.94 L 513.08 91.03 L 523.59 90.94 L 534.10 90.94 L 544.62 90.94 L 555.13 90.94 L 565.64 90.94 L 576.15 90.94 L 586.67 90.94 L 597.18 90.94 L 607.69 90.94 L 618.21 90.94 L 628.72 90.94 L 639.23 90.94 L 649.74 90.94 L 660.26 90.94 L 670.77 90.94 L 681.28 90.94 L 691.79 90.94 L 702.31 90.94 L 712.82 90.94 L 723.33 90.94 L 733.85 90.94 L 744.36 90.94 L 754.87 90.94 L 765.38 90.94 L 775.90 90.94 L 786.41 123.79 L 796.92 123.79 L 807.44 123.79 L 817.95 123.79 L 828.46 123.79 L 838.97 123.79 L 849.49 123.79 L 860.00 123.79" fill="none" stroke="#111827" stroke-width="2"/>
    <circle cx="860.00" cy="123.79" r="3" fill="#111827"/>
    <text x="40.00" y="235.00" font-size="9" fill="#111827" text-anchor="middle" transform="rotate(-45 40.00 235.00)">09.08.2025</text><text x="113.59" y="235.00" font-size="9" fill="#111827" text-anchor="middle" transform="rotate(-45 113.59 235.00)">09.08.2025</text><text x="187.18" y="235.00" font-size="9" fill="#111827" text-anchor="middle" transform="rotate(-45 187.18 235.00)">13.08.2025</text><text x="260.77" y="235.00" font-size="9" fill="#111827" text-anchor="middle" transform="rotate(-45 260.77 235.00)">15.08.2025</text><text x="334.36" y="235.00" font-size="9" fill="#111827" text-anchor="middle" transform="rotate(-45 334.36 235.00)">21.08.2025</text><text x="407.95" y="235.00" font-size="9" fill="#111827" text-anchor="middle" transform="rotate(-45 407.95 235.00)">21.08.2025</text><text x="481.54" y="235.00" font-size="9" fill="#111827" text-anchor="middle" transform="rotate(-45 481.54 235.00)">28.08.2025</text><text x="555.13" y="235.00" font-size="9" fill="#111827" text-anchor="middle" transform="rotate(-45 555.13 235.00)">30.08.2025</text><text x="628.72" y="235.00" font-size="9" fill="#111827" text-anchor="middle" transform="rotate(-45 628.72 235.00)">06.09.2025</text><text x="702.31" y="235.00" font-size="9" fill="#111827" text-anchor="middle" transform="rotate(-45 702.31 235.00)">13.09.2025</text><text x="775.90" y="235.00" font-size="9" fill="#111827" text-anchor="middle" transform="rotate(-45 775.90 235.00)">20.09.2025</text><text x="849.49" y="235.00" font-size="9" fill="#111827" text-anchor="middle" transform="rotate(-45 849.49 235.00)">25.09.2025</text>
  </g>
</svg>