<svg xmlns="http://www.w3.org/2000/svg" width="900" height="290" style="font-family: -apple-system, BlinkMacSystemFont, 'Segoe UI', Helvetica, Arial, sans-serif;">
  <rect width="100%" height="100%" fill="#0d1117"/>
  <g>
    <line x1="40" y1="220.00" x2="860" y2="220.00" stroke="#30363d"/><text x="32" y="224.00" font-size="10" fill="#c9d1d9" text-anchor="end">0</text><line x1="40" y1="175.00" x2="860" y2="175.00" stroke="#30363d"/><text x="32" y="179.00" font-size="10" fill="#c9d1d9" text-anchor="end">500</text><line x1="40" y1="130.00" x2="860" y2="130.00" stroke="#30363d"/><text x="32" y="134.00" font-size="10" fill="#c9d1d9" text-anchor="end">1k</text><line x1="40" y1="85.00" x2="860" y2="85.00" stroke="#30363d"/><text x="32" y="89.00" font-size="10" fill="#c9d1d9" text-anchor="end">1.5k</text><line x1="40" y1="40.00" x2="860" y2="40.00" stroke="#30363d"/><text x="32" y="44.00" font-size="10" fill="#c9d1d9" text-anchor="end">2k</text>
    <line x1="40.00" y1="40" x2="40.00" y2="220" stroke="#30363d" opacity="0.5"/><line x1="122.00" y1="40" x2="122.00" y2="220" stroke="#30363d" opacity="0.5"/><line x1="204.00" y1="40" x2="204.00" y2="220" stroke="#30363d" opacity="0.5"/><line x1="286.00" y1="40" x2="286.00" y2="220" stroke="#30363d" opacity="0.5"/><line x1="368.00" y1="40" x2="368.00" y2="220" stroke="#30363d" opacity="0.5"/><line x1="450.00" y1="40" x2="450.00" y2="220" stroke="#30363d" opacity="0.5"/><line x1="532.00" y1="40" x2="532.00" y2="220" stroke="#30363d" opacity="0.5"/><line x1="614.00" y1="40" x2="614.00" y2="220" stroke="#30363d" opacity="0.5"/><line x1="696.00" y1="40" x2="696.00" y2="220" stroke="#30363d" opacity="0.5"/><line x1="778.00" y1="40" x2="778.00" y2="220" stroke="#30363d" opacity="0.5"/><line x1="860.00" y1="40" x2="860.00" y2="220" stroke="#30363d" opacity="0.5"/>
    <line x1="40" y1="220" x2="860" y2="220" stroke="#30363d"/>
    <line x1="40" y1="40"   x2="40"   y2="220" stroke="#30363d"/>
    <path d="M 40.00 219.82 L 44.10 211.81 L 48.20 211.81 L 52.30 211.81 L 56.40 171.85 L 60.50 171.58 L 64.60 164.38 L 68.70 118.93 L 72.80 119.11 L 76.90 111.10 L 81.00 110.56 L 85.10 110.56 L 89.20 110.56 L 93.30 95.35 L 97.40 95.35 L 101.50 95.35 L 105.60 94.63 L 109.70 94.54 L 113.80 94.45 L 117.90 94.09 L 122.00 94.09 L 126.10 94.09 L 130.20 94.09 L 134.30 94.09 L 138.40 94.09 L 142.50 94.09 L 146.60 94.09 L 150.70 94.09 L 154.80 91.84 L 158.90 83.65 L 163.00 83.65 L 167.10 83.47 L 171.20 83.65 L 175.30 91.03 L 179.40 91.03 L 183.50 91.03 L 187.60 91.03 L 191.70 91.03 L 195.80 91.03 L 199.90 91.03 L 204.00 91.03 L 208.10 91.03 L 212.20 91.03 L 216.30 91.03 L 220.40 90.94 L 224.50 91.03 L 228.60 90.94 L 232.70 90.94 L 236.80 90.94 L 240.90 90.94 L 245.00 90.94 L 249.10 90.94 L 253.20 90.94 L 257.30 90.94 L 261.40 90.94 L 265.50 90.94 L 269.60 90.94 L 273.70 90.94 L 277.80 90.94 L 281.90 90.94 L 286.00 90.94 L 290.10 90.94 L 294.20 90.94 L 298.30 90.94 L 302.40 90.94 L 306.50 90.94 L 310.60 90.94 L 314.70 90.94 L 318.80 90.94 L 322.90 90.94 L 327.00 90.94 L 331.10 123.79 L 335.20 123.79 L 339.30 123.79 L 343.40 123.79 L 347.50 123.79 L 351.60 123.79 L 355.70 123.79 L 359.80 123.79 L 363.90 123.79 L 368.00 123.79 L 372.10 123.79 L 376.20 123.79 L 380.30 123.79 L 384.40 123.79 L 388.50 123.79 L 392.60 123.79 L 396.70 123.79 L 400.80 123.79 L 404.90 123.79 L 409.00 123.79 L 413.10 123.79 L 417.20 123.79 L 421.30 123.79 L 425.40 123.79 L 429.50 123.79 L 433.60 123.79 L 437.70 123.79 L 441.80 123.79 L 445.90 123.79 L 450.00 123.79 L 454.10 123.79 L 458.20 123.79 L 462.30 123.79 L 466.40 123.79 L 470.50 123.79 L 474.60 123.79 L 478.70 123.79 L 482.80 123.79 L 486.90 123.79 L 491.00 123.79 L 495.10 123.79 L 499.20 123.79 L 503.30 123.79 L 507.40 123.79 L 511.50 123.79 L 515.60 123.79 L 519.70 123.79 L 523.80 123.79 L 527.90 123.79 L 532.00 123.79 L 536.10 123.79 L 540.20 123.79 L 544.30 123.79 L 548.40 123.79 L 552.50 123.79 L 556.60 123.79 L 560.70 123.79 L 564.80 123.79 L 568.90 123.79 L 573.00 123.79 L 577.10 123.79 L 581.20 123.79 L 585.30 123.79 L 589.40 123.79 L 593.50 123.79 L 597.60 123.79 L 601.70 123.79 L 605.80 123.79 L 609.90 123.79 L 614.00 123.79 L 618.10 123.79 L 622.20 123.79 L 626.30 123.79 L 630.40 123.79 L 634.50 123.79 L 638.60 123.79 L 642.70 123.79 L 646.80 115.42 L 650.90 111.64 L 655.00 107.86 L 659.10 104.08 L 663.20 100.30 L 667.30 95.98 L 671.40 95.98 L 675.50 95.98 L 679.60 95.98 L 683.70 85.72 L 687.80 85.72 L 691.90 85.72 L 696.00 85.72 L 700.10 85.72 L 704.20 85.72 L 708.30 85.72 L 712.40 85.72 L 716.50 85.72 L 720.60 85.72 L 724.70 85.72 L 728.80 85.72 L 732.90 85.72 L 737.00 85.72 L 741.10 85.72 L 745.20 85.72 L 749.30 85.72 L 753.40 85.72 L 757.50 85.72 L 761.60 85.72 L 765.70 85.72 L 769.80 85.72 L 773.90 85.72 L 778.00 85.72 L 782.10 85.72 L 786.20 85.72 L 790.30 85.72 L 794.40 85.72 L 798.50 85.72 L 802.60 85.72 L 806.70 85.72 L 810.80 85.72 L 814.90 85.72 L 819.00 85.72 L 823.10 85.72 L 827.20 85.72 L 831.30 85.72 L 835.40 85.72 L 839.50 85.72 L 843.60 85.72 L 847.70 85.72 L 851.80 85.72 L 855.90 85.72 L 860.00 85.72" fill="none" stroke="#3fb950" stroke-width="2"/>
    <circle cx="860.00" cy="85.72" r="3" fill="#3fb950"/>
    <text x="40.00" y="235.00" font-size="9" fill="#c9d1d9" text-anchor="middle" transform="rotate(-45 40.00 235.00)">09.08.2025</text><text x="122.00" y="235.00" font-size="9" fill="#c9d1d9" text-anchor="middle" transform="rotate(-45 122.00 235.00)">14.08.2025</text><text x="204.00" y="235.00" font-size="9" fill="#c9d1d9" text-anchor="middle" transform="rotate(-45 204.00 235.00)">26.08.2025</text><text x="286.00" y="235.00" font-size="9" fill="#c9d1d9" text-anchor="middle" transform="rotate(-45 286.00 235.00)">10.09.2025</text><text x="368.00" y="235.00" font-size="9" fill="#c9d1d9" text-anchor="middle" transform="rotate(-45 368.00 235.00)">28.09.2025</text><text x="450.00" y="235.00" font-size="9" fill="#c9d1d9" text-anchor="middle" transform="rotate(-45 450.00 235.00)">18.10.2025</text><text x="532.00" y="235.00" font-size="9" fill="#c9d1d9" text-anchor="middle" transform="rotate(-45 532.00 235.00)">07.11.2025</text><text x="614.00" y="235.00" font-size="9" fill="#c9d1d9" text-anchor="middle" transform="rotate(-45 614.00 235.00)">27.11.2025</text><text x="696.00" y="235.00" font-size="9" fill="#c9d1d9" text-anchor="middle" transform="rotate(-45 696.00 235.00)">10.12.2025</text><text x="778.00" y="235.00" font-size="9" fill="#c9d1d9" text-anchor="middle" transform="rotate(-45 778.00 235.00)">30.12.2025</text><text x="860.00" y="235.00" font-size="9" fill="#c9d1d9" text-anchor="middle" transform="rotate(-45 860.00 235.00)">19.01.2026</text>
  </g>
</svg>