<svg xmlns="http://www.w3.org/2000/svg" width="900" height="290" style="font-family: -apple-system, BlinkMacSystemFont, 'Segoe UI', Helvetica, Arial, sans-serif;">
  <rect width="100%" height="100%" fill="#0d1117"/>
  <g>
    <line x1="40" y1="220.00" x2="860" y2="220.00" stroke="#30363d"/><text x="32" y="224.00" font-size="10" fill="#c9d1d9" text-anchor="end">0</text><line x1="40" y1="175.00" x2="860" y2="175.00" stroke="#30363d"/><text x="32" y="179.00" font-size="10" fill="#c9d1d9" text-anchor="end">500</text><line x1="40" y1="130.00" x2="860" y2="130.00" stroke="#30363d"/><text x="32" y="134.00" font-size="10" fill="#c9d1d9" text-anchor="end">1k</text><line x1="40" y1="85.00" x2="860" y2="85.00" stroke="#30363d"/><text x="32" y="89.00" font-size="10" fill="#c9d1d9" text-anchor="end">1.5k</text><line x1="40" y1="40.00" x2="860" y2="40.00" stroke="#30363d"/><text x="32" y="44.00" font-size="10" fill="#c9d1d9" text-anchor="end">2k</text>
    <line x1="40.00" y1="40" x2="40.00" y2="220" stroke="#30363d" opacity="0.5"/><line x1="116.64" y1="40" x2="116.64" y2="220" stroke="#30363d" opacity="0.5"/><line x1="193.27" y1="40" x2="193.27" y2="220" stroke="#30363d" opacity="0.5"/><line x1="269.91" y1="40" x2="269.91" y2="220" stroke="#30363d" opacity="0.5"/><line x1="346.54" y1="40" x2="346.54" y2="220" stroke="#30363d" opacity="0.5"/><line x1="423.18" y1="40" x2="423.18" y2="220" stroke="#30363d" opacity="0.5"/><line x1="499.81" y1="40" x2="499.81" y2="220" stroke="#30363d" opacity="0.5"/><line x1="576.45" y1="40" x2="576.45" y2="220" stroke="#30363d" opacity="0.5"/><line x1="653.08" y1="40" x2="653.08" y2="220" stroke="#30363d" opacity="0.5"/><line x1="729.72" y1="40" x2="729.72" y2="220" stroke="#30363d" opacity="0.5"/><line x1="806.36" y1="40" x2="806.36" y2="220" stroke="#30363d" opacity="0.5"/>
    <line x1="40" y1="220" x2="860" y2="220" stroke="#30363d"/>
    <line x1="40" y1="40"   x2="40"   y2="220" stroke="#30363d"/>
    <path d="M 40.00 219.82 L 47.66 211.81 L 55.33 211.81 L 62.99 211.81 L 70.65 171.85 L 78.32 171.58 L 85.98 164.38 L 93.64 118.93 L 101.31 119.11 L 108.97 111.10 L 116.64 110.56 L 124.30 110.56 L 131.96 110.56 L 139.63 95.35 L 147.29 95.35 L 154.95 95.35 L 162.62 94.63 L 170.28 94.54 L 177.94 94.45 L 185.61 94.09 L 193.27 94.09 L 200.93 94.09 L 208.60 94.09 L 216.26 94.09 L 223.93 94.09 L 231.59 94.09 L 239.25 94.09 L 246.92 94.09 L 254.58 91.84 L 262.24 83.65 L 269.91 83.65 L 277.57 83.47 L 285.23 83.65 L 292.90 91.03 L 300.56 91.03 L 308.22 91.03 L 315.89 91.03 L 323.55 91.03 L 331.21 91.03 L 338.88 91.03 L 346.54 91.03 L 354.21 91.03 L 361.87 91.03 L 369.53 91.03 L 377.20 90.94 L 384.86 91.03 L 392.52 90.94 L 400.19 90.94 L 407.85 90.94 L 415.51 90.94 L 423.18 90.94 L 430.84 90.94 L 438.50 90.94 L 446.17 90.94 L 453.83 90.94 L 461.50 90.94 L 469.16 90.94 L 476.82 90.94 L 484.49 90.94 L 492.15 90.94 L 499.81 90.94 L 507.48 90.94 L 515.14 90.94 L 522.80 90.94 L 530.47 90.94 L 538.13 90.94 L 545.79 90.94 L 553.46 90.94 L 561.12 90.94 L 568.79 90.94 L 576.45 90.94 L 584.11 123.79 L 591.78 123.79 L 599.44 123.79 L 607.10 123.79 L 614.77 123.79 L 622.43 123.79 L 630.09 123.79 L 637.76 123.79 L 645.42 123.79 L 653.08 123.79 L 660.75 123.79 L 668.41 123.79 L 676.07 123.79 L 683.74 123.79 L 691.40 123.79 L 699.07 123.79 L 706.73 123.79 L 714.39 123.79 L 722.06 123.79 L 729.72 123.79 L 737.38 123.79 L 745.05 123.79 L 752.71 123.79 L 760.37 123.79 L 768.04 123.79 L 775.70 123.79 L 783.36 123.79 L 791.03 123.79 L 798.69 123.79 L 806.36 123.79 L 814.02 123.79 L 821.68 123.79 L 829.35 123.79 L 837.01 123.79 L 844.67 123.79 L 852.34 123.79 L 860.00 123.79" fill="none" stroke="#3fb950" stroke-width="2"/>
    <circle cx="860.00" cy="123.79" r="3" fill="#3fb950"/>
    <text x="40.00" y="235.00" font-size="9" fill="#c9d1d9" text-anchor="middle" transform="rotate(-45 40.00 235.00)">09.08.2025</text><text x="116.64" y="235.00" font-size="9" fill="#c9d1d9" text-anchor="middle" transform="rotate(-45 116.64 235.00)">13.08.2025</text><text x="193.27" y="235.00" font-size="9" fill="#c9d1d9" text-anchor="middle" transform="rotate(-45 193.27 235.00)">14.08.2025</text><text x="269.91" y="235.00" font-size="9" fill="#c9d1d9" text-anchor="middle" transform="rotate(-45 269.91 235.00)">21.08.2025</text><text x="346.54" y="235.00" font-size="9" fill="#c9d1d9" text-anchor="middle" transform="rotate(-45 346.54 235.00)">26.08.2025</text><text x="423.18" y="235.00" font-size="9" fill="#c9d1d9" text-anchor="middle" transform="rotate(-45 423.18 235.00)">31.08.2025</text><text x="499.81" y="235.00" font-size="9" fill="#c9d1d9" text-anchor="middle" transform="rotate(-45 499.81 235.00)">10.09.2025</text><text x="576.45" y="235.00" font-size="9" fill="#c9d1d9" text-anchor="middle" transform="rotate(-45 576.45 235.00)">20.09.2025</text><text x="653.08" y="235.00" font-size="9" fill="#c9d1d9" text-anchor="middle" transform="rotate(-45 653.08 235.00)">28.09.2025</text><text x="729.72" y="235.00" font-size="9" fill="#c9d1d9" text-anchor="middle" transform="rotate(-45 729.72 235.00)">08.10.2025</text><text x="806.36" y="235.00" font-size="9" fill="#c9d1d9" text-anchor="middle" transform="rotate(-45 806.36 235.00)">18.10.2025</text>
  </g>
</svg>