<svg xmlns="http://www.w3.org/2000/svg" width="900" height="290" style="font-family: -apple-system, BlinkMacSystemFont, 'Segoe UI', Helvetica, Arial, sans-serif;">
  <rect width="100%" height="100%" fill="#0d1117"/>
  <g>
    <line x1="40" y1="220.00" x2="860" y2="220.00" stroke="#30363d"/><text x="32" y="224.00" font-size="10" fill="#c9d1d9" text-anchor="end">0</text><line x1="40" y1="175.00" x2="860" y2="175.00" stroke="#30363d"/><text x="32" y="179.00" font-size="10" fill="#c9d1d9" text-anchor="end">500</text><line x1="40" y1="130.00" x2="860" y2="130.00" stroke="#30363d"/><text x="32" y="134.00" font-size="10" fill="#c9d1d9" text-anchor="end">1k</text><line x1="40" y1="85.00" x2="860" y2="85.00" stroke="#30363d"/><text x="32" y="89.00" font-size="10" fill="#c9d1d9" text-anchor="end">1.5k</text><line x1="40" y1="40.00" x2="860" y2="40.00" stroke="#30363d"/><text x="32" y="44.00" font-size="10" fill="#c9d1d9" text-anchor="end">2k</text>
    <line x1="40.00" y1="40" x2="40.00" y2="220" stroke="#30363d" opacity="0.5"/><line x1="119.87" y1="40" x2="119.87" y2="220" stroke="#30363d" opacity="0.5"/><line x1="199.74" y1="40" x2="199.74" y2="220" stroke="#30363d" opacity="0.5"/><line x1="279.61" y1="40" x2="279.61" y2="220" stroke="#30363d" opacity="0.5"/><line x1="359.48" y1="40" x2="359.48" y2="220" stroke="#30363d" opacity="0.5"/><line x1="439.35" y1="40" x2="439.35" y2="220" stroke="#30363d" opacity="0.5"/><line x1="519.22" y1="40" x2="519.22" y2="220" stroke="#30363d" opacity="0.5"/><line x1="599.09" y1="40" x2="599.09" y2="220" stroke="#30363d" opacity="0.5"/><line x1="678.96" y1="40" x2="678.96" y2="220" stroke="#30363d" opacity="0.5"/><line x1="758.83" y1="40" x2="758.83" y2="220" stroke="#30363d" opacity="0.5"/><line x1="838.70" y1="40" x2="838.70" y2="220" stroke="#30363d" opacity="0.5"/>
    <line x1="40" y1="220" x2="860" y2="220" stroke="#30363d"/>
    <line x1="40" y1="40"   x2="40"   y2="220" stroke="#30363d"/>
    <path d="M 40.00 219.82 L 45.32 211.81 L 50.65 211.81 L 55.97 211.81 L 61.30 171.85 L 66.62 171.58 L 71.95 164.38 L 77.27 118.93 L 82.60 119.11 L 87.92 111.10 L 93.25 110.56 L 98.57 110.56 L 103.90 110.56 L 109.22 95.35 L 114.55 95.35 L 119.87 95.35 L 125.19 94.63 L 130.52 94.54 L 135.84 94.45 L 141.17 94.09 L 146.49 94.09 L 151.82 94.09 L 157.14 94.09 L 162.47 94.09 L 167.79 94.09 L 173.12 94.09 L 178.44 94.09 L 183.77 94.09 L 189.09 91.84 L 194.42 83.65 L 199.74 83.65 L 205.06 83.47 L 210.39 83.65 L 215.71 91.03 L 221.04 91.03 L 226.36 91.03 L 231.69 91.03 L 237.01 91.03 L 242.34 91.03 L 247.66 91.03 L 252.99 91.03 L 258.31 91.03 L 263.64 91.03 L 268.96 91.03 L 274.29 90.94 L 279.61 91.03 L 284.94 90.94 L 290.26 90.94 L 295.58 90.94 L 300.91 90.94 L 306.23 90.94 L 311.56 90.94 L 316.88 90.94 L 322.21 90.94 L 327.53 90.94 L 332.86 90.94 L 338.18 90.94 L 343.51 90.94 L 348.83 90.94 L 354.16 90.94 L 359.48 90.94 L 364.81 90.94 L 370.13 90.94 L 375.45 90.94 L 380.78 90.94 L 386.10 90.94 L 391.43 90.94 L 396.75 90.94 L 402.08 90.94 L 407.40 90.94 L 412.73 90.94 L 418.05 123.79 L 423.38 123.79 L 428.70 123.79 L 434.03 123.79 L 439.35 123.79 L 444.68 123.79 L 450.00 123.79 L 455.32 123.79 L 460.65 123.79 L 465.97 123.79 L 471.30 123.79 L 476.62 123.79 L 481.95 123.79 L 487.27 123.79 L 492.60 123.79 L 497.92 123.79 L 503.25 123.79 L 508.57 123.79 L 513.90 123.79 L 519.22 123.79 L 524.55 123.79 L 529.87 123.79 L 535.19 123.79 L 540.52 123.79 L 545.84 123.79 L 551.17 123.79 L 556.49 123.79 L 561.82 123.79 L 567.14 123.79 L 572.47 123.79 L 577.79 123.79 L 583.12 123.79 L 588.44 123.79 L 593.77 123.79 L 599.09 123.79 L 604.42 123.79 L 609.74 123.79 L 615.06 123.79 L 620.39 123.79 L 625.71 123.79 L 631.04 123.79 L 636.36 123.79 L 641.69 123.79 L 647.01 123.79 L 652.34 123.79 L 657.66 123.79 L 662.99 123.79 L 668.31 123.79 L 673.64 123.79 L 678.96 123.79 L 684.29 123.79 L 689.61 123.79 L 694.94 123.79 L 700.26 123.79 L 705.58 123.79 L 710.91 123.79 L 716.23 123.79 L 721.56 123.79 L 726.88 123.79 L 732.21 123.79 L 737.53 123.79 L 742.86 123.79 L 748.18 123.79 L 753.51 123.79 L 758.83 123.79 L 764.16 123.79 L 769.48 123.79 L 774.81 123.79 L 780.13 123.79 L 785.45 123.79 L 790.78 123.79 L 796.10 123.79 L 801.43 123.79 L 806.75 123.79 L 812.08 123.79 L 817.40 123.79 L 822.73 123.79 L 828.05 115.42 L 833.38 111.64 L 838.70 107.86 L 844.03 104.08 L 849.35 100.30 L 854.68 95.98 L 860.00 95.98" fill="none" stroke="#3fb950" stroke-width="2"/>
    <circle cx="860.00" cy="95.98" r="3" fill="#3fb950"/>
    <text x="40.00" y="235.00" font-size="9" fill="#c9d1d9" text-anchor="middle" transform="rotate(-45 40.00 235.00)">09.08.2025</text><text x="119.87" y="235.00" font-size="9" fill="#c9d1d9" text-anchor="middle" transform="rotate(-45 119.87 235.00)">13.08.2025</text><text x="199.74" y="235.00" font-size="9" fill="#c9d1d9" text-anchor="middle" transform="rotate(-45 199.74 235.00)">21.08.2025</text><text x="279.61" y="235.00" font-size="9" fill="#c9d1d9" text-anchor="middle" transform="rotate(-45 279.61 235.00)">28.08.2025</text><text x="359.48" y="235.00" font-size="9" fill="#c9d1d9" text-anchor="middle" transform="rotate(-45 359.48 235.00)">10.09.2025</text><text x="439.35" y="235.00" font-size="9" fill="#c9d1d9" text-anchor="middle" transform="rotate(-45 439.35 235.00)">23.09.2025</text><text x="519.22" y="235.00" font-size="9" fill="#c9d1d9" text-anchor="middle" transform="rotate(-45 519.22 235.00)">08.10.2025</text><text x="599.09" y="235.00" font-size="9" fill="#c9d1d9" text-anchor="middle" transform="rotate(-45 599.09 235.00)">23.10.2025</text><text x="678.96" y="235.00" font-size="9" fill="#c9d1d9" text-anchor="middle" transform="rotate(-45 678.96 235.00)">07.11.2025</text><text x="758.83" y="235.00" font-size="9" fill="#c9d1d9" text-anchor="middle" transform="rotate(-45 758.83 235.00)">22.11.2025</text><text x="838.70" y="235.00" font-size="9" fill="#c9d1d9" text-anchor="middle" transform="rotate(-45 838.70 235.00)">04.12.2025</text>
  </g>
</svg>