<svg xmlns="http://www.w3.org/2000/svg" width="900" height="290" style="font-family: -apple-system, BlinkMacSystemFont, 'Segoe UI', Helvetica, Arial, sans-serif;">
  <rect width="100%" height="100%" fill="#0d1117"/>
  <g>
    <line x1="40" y1="220.00" x2="860" y2="220.00" stroke="#30363d"/><text x="32" y="224.00" font-size="10" fill="#c9d1d9" text-anchor="end">0</text><line x1="40" y1="175.00" x2="860" y2="175.00" stroke="#30363d"/><text x="32" y="179.00" font-size="10" fill="#c9d1d9" text-anchor="end">500</text><line x1="40" y1="130.00" x2="860" y2="130.00" stroke="#30363d"/><text x="32" y="134.00" font-size="10" fill="#c9d1d9" text-anchor="end">1k</text><line x1="40" y1="85.00" x2="860" y2="85.00" stroke="#30363d"/><text x="32" y="89.00" font-size="10" fill="#c9d1d9" text-anchor="end">1.5k</text><line x1="40" y1="40.00" x2="860" y2="40.00" stroke="#30363d"/><text x="32" y="44.00" font-size="10" fill="#c9d1d9" text-anchor="end">2k</text>
    <line x1="40.00" y1="40" x2="40.00" y2="220" stroke="#30363d" opacity="0.5"/><line x1="120.00" y1="40" x2="120.00" y2="220" stroke="#30363d" opacity="0.5"/><line x1="200.00" y1="40" x2="200.00" y2="220" stroke="#30363d" opacity="0.5"/><line x1="280.00" y1="40" x2="280.00" y2="220" stroke="#30363d" opacity="0.5"/><line x1="360.00" y1="40" x2="360.00" y2="220" stroke="#30363d" opacity="0.5"/><line x1="440.00" y1="40" x2="440.00" y2="220" stroke="#30363d" opacity="0.5"/><line x1="520.00" y1="40" x2="520.00" y2="220" stroke="#30363d" opacity="0.5"/><line x1="600.00" y1="40" x2="600.00" y2="220" stroke="#30363d" opacity="0.5"/><line x1="680.00" y1="40" x2="680.00" y2="220" stroke="#30363d" opacity="0.5"/><line x1="760.00" y1="40" x2="760.00" y2="220" stroke="#30363d" opacity="0.5"/><line x1="840.00" y1="40" x2="840.00" y2="220" stroke="#30363d" opacity="0.5"/>
    <line x1="40" y1="220" x2="860" y2="220" stroke="#30363d"/>
    <line x1="40" y1="40"   x2="40"   y2="220" stroke="#30363d"/>
    <path d="M 40.00 219.82 L 45.00 211.81 L 50.00 211.81 L 55.00 211.81 L 60.00 171.85 L 65.00 171.58 L 70.00 164.38 L 75.00 118.93 L 80.00 119.11 L 85.00 111.10 L 90.00 110.56 L 95.00 110.56 L 100.00 110.56 L 105.00 95.35 L 110.00 95.35 L 115.00 95.35 L 120.00 94.63 L 125.00 94.54 L 130.00 94.45 L 135.00 94.09 L 140.00 94.09 L 145.00 94.09 L 150.00 94.09 L 155.00 94.09 L 160.00 94.09 L 165.00 94.09 L 170.00 94.09 L 175.00 94.09 L 180.00 91.84 L 185.00 83.65 L 190.00 83.65 L 195.00 83.47 L 200.00 83.65 L 205.00 91.03 L 210.00 91.03 L 215.00 91.03 L 220.00 91.03 L 225.00 91.03 L 230.00 91.03 L 235.00 91.03 L 240.00 91.03 L 245.00 91.03 L 250.00 91.03 L 255.00 91.03 L 260.00 90.94 L 265.00 91.03 L 270.00 90.94 L 275.00 90.94 L 280.00 90.94 L 285.00 90.94 L 290.00 90.94 L 295.00 90.94 L 300.00 90.94 L 305.00 90.94 L 310.00 90.94 L 315.00 90.94 L 320.00 90.94 L 325.00 90.94 L 330.00 90.94 L 335.00 90.94 L 340.00 90.94 L 345.00 90.94 L 350.00 90.94 L 355.00 90.94 L 360.00 90.94 L 365.00 90.94 L 370.00 90.94 L 375.00 90.94 L 380.00 90.94 L 385.00 90.94 L 390.00 90.94 L 395.00 123.79 L 400.00 123.79 L 405.00 123.79 L 410.00 123.79 L 415.00 123.79 L 420.00 123.79 L 425.00 123.79 L 430.00 123.79 L 435.00 123.79 L 440.00 123.79 L 445.00 123.79 L 450.00 123.79 L 455.00 123.79 L 460.00 123.79 L 465.00 123.79 L 470.00 123.79 L 475.00 123.79 L 480.00 123.79 L 485.00 123.79 L 490.00 123.79 L 495.00 123.79 L 500.00 123.79 L 505.00 123.79 L 510.00 123.79 L 515.00 123.79 L 520.00 123.79 L 525.00 123.79 L 530.00 123.79 L 535.00 123.79 L 540.00 123.79 L 545.00 123.79 L 550.00 123.79 L 555.00 123.79 L 560.00 123.79 L 565.00 123.79 L 570.00 123.79 L 575.00 123.79 L 580.00 123.79 L 585.00 123.79 L 590.00 123.79 L 595.00 123.79 L 600.00 123.79 L 605.00 123.79 L 610.00 123.79 L 615.00 123.79 L 620.00 123.79 L 625.00 123.79 L 630.00 123.79 L 635.00 123.79 L 640.00 123.79 L 645.00 123.79 L 650.00 123.79 L 655.00 123.79 L 660.00 123.79 L 665.00 123.79 L 670.00 123.79 L 675.00 123.79 L 680.00 123.79 L 685.00 123.79 L 690.00 123.79 L 695.00 123.79 L 700.00 123.79 L 705.00 123.79 L 710.00 123.79 L 715.00 123.79 L 720.00 123.79 L 725.00 123.79 L 730.00 123.79 L 735.00 123.79 L 740.00 123.79 L 745.00 123.79 L 750.00 123.79 L 755.00 123.79 L 760.00 123.79 L 765.00 123.79 L 770.00 123.79 L 775.00 123.79 L 780.00 115.42 L 785.00 111.64 L 790.00 107.86 L 795.00 104.08 L 800.00 100.30 L 805.00 95.98 L 810.00 95.98 L 815.00 95.98 L 820.00 95.98 L 825.00 85.72 L 830.00 85.72 L 835.00 85.72 L 840.00 85.72 L 845.00 85.72 L 850.00 85.72 L 855.00 85.72 L 860.00 85.72" fill="none" stroke="#3fb950" stroke-width="2"/>
    <circle cx="860.00" cy="85.72" r="3" fill="#3fb950"/>
    <text x="40.00" y="235.00" font-size="9" fill="#c9d1d9" text-anchor="middle" transform="rotate(-45 40.00 235.00)">09.08.2025</text><text x="120.00" y="235.00" font-size="9" fill="#c9d1d9" text-anchor="middle" transform="rotate(-45 120.00 235.00)">13.08.2025</text><text x="200.00" y="235.00" font-size="9" fill="#c9d1d9" text-anchor="middle" transform="rotate(-45 200.00 235.00)">21.08.2025</text><text x="280.00" y="235.00" font-size="9" fill="#c9d1d9" text-anchor="middle" transform="rotate(-45 280.00 235.00)">29.08.2025</text><text x="360.00" y="235.00" font-size="9" fill="#c9d1d9" text-anchor="middle" transform="rotate(-45 360.00 235.00)">14.09.2025</text><text x="440.00" y="235.00" font-size="9" fill="#c9d1d9" text-anchor="middle" transform="rotate(-45 440.00 235.00)">28.09.2025</text><text x="520.00" y="235.00" font-size="9" fill="#c9d1d9" text-anchor="middle" transform="rotate(-45 520.00 235.00)">14.10.2025</text><text x="600.00" y="235.00" font-size="9" fill="#c9d1d9" text-anchor="middle" transform="rotate(-45 600.00 235.00)">30.10.2025</text><text x="680.00" y="235.00" font-size="9" fill="#c9d1d9" text-anchor="middle" transform="rotate(-45 680.00 235.00)">15.11.2025</text><text x="760.00" y="235.00" font-size="9" fill="#c9d1d9" text-anchor="middle" transform="rotate(-45 760.00 235.00)">01.12.2025</text><text x="840.00" y="235.00" font-size="9" fill="#c9d1d9" text-anchor="middle" transform="rotate(-45 840.00 235.00)">10.12.2025</text>
  </g>
</svg>