<svg xmlns="http://www.w3.org/2000/svg" width="900" height="290" style="font-family: -apple-system, BlinkMacSystemFont, 'Segoe UI', Helvetica, Arial, sans-serif;">
  <rect width="100%" height="100%" fill="white"/>
  <g>
    <line x1="40" y1="220.00" x2="860" y2="220.00" stroke="#e5e7eb"/><text x="32" y="224.00" font-size="10" fill="#111827" text-anchor="end">0</text><line x1="40" y1="175.00" x2="860" y2="175.00" stroke="#e5e7eb"/><text x="32" y="179.00" font-size="10" fill="#111827" text-anchor="end">500</text><line x1="40" y1="130.00" x2="860" y2="130.00" stroke="#e5e7eb"/><text x="32" y="134.00" font-size="10" fill="#111827" text-anchor="end">1k</text><line x1="40" y1="85.00" x2="860" y2="85.00" stroke="#e5e7eb"/><text x="32" y="89.00" font-size="10" fill="#111827" text-anchor="end">1.5k</text><line x1="40" y1="40.00" x2="860" y2="40.00" stroke="#e5e7eb"/><text x="32" y="44.00" font-size="10" fill="#111827" text-anchor="end">2k</text>
    <line x1="40.00" y1="40" x2="40.00" y2="220" stroke="#e5e7eb" opacity="0.5"/><line x1="121.49" y1="40" x2="121.49" y2="220" stroke="#e5e7eb" opacity="0.5"/><line x1="202.98" y1="40" x2="202.98" y2="220" stroke="#e5e7eb" opacity="0.5"/><line x1="284.47" y1="40" x2="284.47" y2="220" stroke="#e5e7eb" opacity="0.5"/><line x1="365.96" y1="40" x2="365.96" y2="220" stroke="#e5e7eb" opacity="0.5"/><line x1="447.45" y1="40" x2="447.45" y2="220" stroke="#e5e7eb" opacity="0.5"/><line x1="528.94" y1="40" x2="528.94" y2="220" stroke="#e5e7eb" opacity="0.5"/><line x1="610.43" y1="40" x2="610.43" y2="220" stroke="#e5e7eb" opacity="0.5"/><line x1="691.93" y1="40" x2="691.93" y2="220" stroke="#e5e7eb" opacity="0.5"/><line x1="773.42" y1="40" x2="773.42" y2="220" stroke="#e5e7eb" opacity="0.5"/><line x1="854.91" y1="40" x2="854.91" y2="220" stroke="#e5e7eb" opacity="0.5"/>
    <line x1="40" y1="220" x2="860" y2="220" stroke="#9ca3af"/>
    <line x1="40" y1="40"   x2="40"   y2="220" stroke="#9ca3af"/>
    <path d="M 40.00 219.82 L 45.09 211.81 L 50.19 211.81 L 55.28 211.81 L 60.37 171.85 L 65.47 171.58 L 70.56 164.38 L 75.65 118.93 L 80.75 119.11 L 85.84 111.10 L 90.93 110.56 L 96.02 110.56 L 101.12 110.56 L 106.21 95.35 L 111.30 95.35 L 116.40 95.35 L 121.49 94.63 L 126.58 94.54 L 131.68 94.45 L 136.77 94.09 L 141.86 94.09 L 146.96 94.09 L 152.05 94.09 L 157.14 94.09 L 162.24 94.09 L 167.33 94.09 L 172.42 94.09 L 177.52 94.09 L 182.61 91.84 L 187.70 83.65 L 192.80 83.65 L 197.89 83.47 L 202.98 83.65 L 208.07 91.03 L 213.17 91.03 L 218.26 91.03 L 223.35 91.03 L 228.45 91.03 L 233.54 91.03 L 238.63 91.03 L 243.73 91.03 L 248.82 91.03 L 253.91 91.03 L 259.01 91.03 L 264.10 90.94 L 269.19 91.03 L 274.29 90.94 L 279.38 90.94 L 284.47 90.94 L 289.57 90.94 L 294.66 90.94 L 299.75 90.94 L 304.84 90.94 L 309.94 90.94 L 315.03 90.94 L 320.12 90.94 L 325.22 90.94 L 330.31 90.94 L 335.40 90.94 L 340.50 90.94 L 345.59 90.94 L 350.68 90.94 L 355.78 90.94 L 360.87 90.94 L 365.96 90.94 L 371.06 90.94 L 376.15 90.94 L 381.24 90.94 L 386.34 90.94 L 391.43 90.94 L 396.52 90.94 L 401.61 123.79 L 406.71 123.79 L 411.80 123.79 L 416.89 123.79 L 421.99 123.79 L 427.08 123.79 L 432.17 123.79 L 437.27 123.79 L 442.36 123.79 L 447.45 123.79 L 452.55 123.79 L 457.64 123.79 L 462.73 123.79 L 467.83 123.79 L 472.92 123.79 L 478.01 123.79 L 483.11 123.79 L 488.20 123.79 L 493.29 123.79 L 498.39 123.79 L 503.48 123.79 L 508.57 123.79 L 513.66 123.79 L 518.76 123.79 L 523.85 123.79 L 528.94 123.79 L 534.04 123.79 L 539.13 123.79 L 544.22 123.79 L 549.32 123.79 L 554.41 123.79 L 559.50 123.79 L 564.60 123.79 L 569.69 123.79 L 574.78 123.79 L 579.88 123.79 L 584.97 123.79 L 590.06 123.79 L 595.16 123.79 L 600.25 123.79 L 605.34 123.79 L 610.43 123.79 L 615.53 123.79 L 620.62 123.79 L 625.71 123.79 L 630.81 123.79 L 635.90 123.79 L 640.99 123.79 L 646.09 123.79 L 651.18 123.79 L 656.27 123.79 L 661.37 123.79 L 666.46 123.79 L 671.55 123.79 L 676.65 123.79 L 681.74 123.79 L 686.83 123.79 L 691.93 123.79 L 697.02 123.79 L 702.11 123.79 L 707.20 123.79 L 712.30 123.79 L 717.39 123.79 L 722.48 123.79 L 727.58 123.79 L 732.67 123.79 L 737.76 123.79 L 742.86 123.79 L 747.95 123.79 L 753.04 123.79 L 758.14 123.79 L 763.23 123.79 L 768.32 123.79 L 773.42 123.79 L 778.51 123.79 L 783.60 123.79 L 788.70 123.79 L 793.79 115.42 L 798.88 111.64 L 803.98 107.86 L 809.07 104.08 L 814.16 100.30 L 819.25 95.98 L 824.35 95.98 L 829.44 95.98 L 834.53 95.98 L 839.63 85.72 L 844.72 85.72 L 849.81 85.72 L 854.91 85.72 L 860.00 85.72" fill="none" stroke="#111827" stroke-width="2"/>
    <circle cx="860.00" cy="85.72" r="3" fill="#111827"/>
    <text x="40.00" y="235.00" font-size="9" fill="#111827" text-anchor="middle" transform="rotate(-45 40.00 235.00)">09.08.2025</text><text x="121.49" y="235.00" font-size="9" fill="#111827" text-anchor="middle" transform="rotate(-45 121.49 235.00)">13.08.2025</text><text x="202.98" y="235.00" font-size="9" fill="#111827" text-anchor="middle" transform="rotate(-45 202.98 235.00)">21.08.2025</text><text x="284.47" y="235.00" font-size="9" fill="#111827" text-anchor="middle" transform="rotate(-45 284.47 235.00)">29.08.2025</text><text x="365.96" y="235.00" font-size="9" fill="#111827" text-anchor="middle" transform="rotate(-45 365.96 235.00)">14.09.2025</text><text x="447.45" y="235.00" font-size="9" fill="#111827" text-anchor="middle" transform="rotate(-45 447.45 235.00)">28.09.2025</text><text x="528.94" y="235.00" font-size="9" fill="#111827" text-anchor="middle" transform="rotate(-45 528.94 235.00)">14.10.2025</text><text x="610.43" y="235.00" font-size="9" fill="#111827" text-anchor="middle" transform="rotate(-45 610.43 235.00)">30.10.2025</text><text x="691.93" y="235.00" font-size="9" fill="#111827" text-anchor="middle" transform="rotate(-45 691.93 235.00)">15.11.2025</text><text x="773.42" y="235.00" font-size="9" fill="#111827" text-anchor="middle" transform="rotate(-45 773.42 235.00)">01.12.2025</text><text x="854.91" y="235.00" font-size="9" fill="#111827" text-anchor="middle" transform="rotate(-45 854.91 235.00)">10.12.2025</text>
  </g>
</svg>