<svg xmlns="http://www.w3.org/2000/svg" width="900" height="290" style="font-family: -apple-system, BlinkMacSystemFont, 'Segoe UI', Helvetica, Arial, sans-serif;">
  <rect width="100%" height="100%" fill="white"/>
  <g>
    <line x1="40" y1="220.00" x2="860" y2="220.00" stroke="#e5e7eb"/><text x="32" y="224.00" font-size="10" fill="#111827" text-anchor="end">0</text><line x1="40" y1="175.00" x2="860" y2="175.00" stroke="#e5e7eb"/><text x="32" y="179.00" font-size="10" fill="#111827" text-anchor="end">500</text><line x1="40" y1="130.00" x2="860" y2="130.00" stroke="#e5e7eb"/><text x="32" y="134.00" font-size="10" fill="#111827" text-anchor="end">1k</text><line x1="40" y1="85.00" x2="860" y2="85.00" stroke="#e5e7eb"/><text x="32" y="89.00" font-size="10" fill="#111827" text-anchor="end">1.5k</text><line x1="40" y1="40.00" x2="860" y2="40.00" stroke="#e5e7eb"/><text x="32" y="44.00" font-size="10" fill="#111827" text-anchor="end">2k</text>
    <line x1="40.00" y1="40" x2="40.00" y2="220" stroke="#e5e7eb" opacity="0.5"/><line x1="121.37" y1="40" x2="121.37" y2="220" stroke="#e5e7eb" opacity="0.5"/><line x1="202.75" y1="40" x2="202.75" y2="220" stroke="#e5e7eb" opacity="0.5"/><line x1="284.12" y1="40" x2="284.12" y2="220" stroke="#e5e7eb" opacity="0.5"/><line x1="365.50" y1="40" x2="365.50" y2="220" stroke="#e5e7eb" opacity="0.5"/><line x1="446.87" y1="40" x2="446.87" y2="220" stroke="#e5e7eb" opacity="0.5"/><line x1="528.24" y1="40" x2="528.24" y2="220" stroke="#e5e7eb" opacity="0.5"/><line x1="609.62" y1="40" x2="609.62" y2="220" stroke="#e5e7eb" opacity="0.5"/><line x1="690.99" y1="40" x2="690.99" y2="220" stroke="#e5e7eb" opacity="0.5"/><line x1="772.37" y1="40" x2="772.37" y2="220" stroke="#e5e7eb" opacity="0.5"/><line x1="853.74" y1="40" x2="853.74" y2="220" stroke="#e5e7eb" opacity="0.5"/>
    <line x1="40" y1="220" x2="860" y2="220" stroke="#9ca3af"/>
    <line x1="40" y1="40"   x2="40"   y2="220" stroke="#9ca3af"/>
    <path d="M 40.00 219.82 L 46.26 211.81 L 52.52 211.81 L 58.78 211.81 L 65.04 171.85 L 71.30 171.58 L 77.56 164.38 L 83.82 118.93 L 90.08 119.11 L 96.34 111.10 L 102.60 110.56 L 108.85 110.56 L 115.11 110.56 L 121.37 95.35 L 127.63 95.35 L 133.89 95.35 L 140.15 94.63 L 146.41 94.54 L 152.67 94.45 L 158.93 94.09 L 165.19 94.09 L 171.45 94.09 L 177.71 94.09 L 183.97 94.09 L 190.23 94.09 L 196.49 94.09 L 202.75 94.09 L 209.01 94.09 L 215.27 91.84 L 221.53 83.65 L 227.79 83.65 L 234.05 83.47 L 240.31 83.65 L 246.56 91.03 L 252.82 91.03 L 259.08 91.03 L 265.34 91.03 L 271.60 91.03 L 277.86 91.03 L 284.12 91.03 L 290.38 91.03 L 296.64 91.03 L 302.90 91.03 L 309.16 91.03 L 315.42 90.94 L 321.68 91.03 L 327.94 90.94 L 334.20 90.94 L 340.46 90.94 L 346.72 90.94 L 352.98 90.94 L 359.24 90.94 L 365.50 90.94 L 371.76 90.94 L 378.02 90.94 L 384.27 90.94 L 390.53 90.94 L 396.79 90.94 L 403.05 90.94 L 409.31 90.94 L 415.57 90.94 L 421.83 90.94 L 428.09 90.94 L 434.35 90.94 L 440.61 90.94 L 446.87 90.94 L 453.13 90.94 L 459.39 90.94 L 465.65 90.94 L 471.91 90.94 L 478.17 90.94 L 484.43 123.79 L 490.69 123.79 L 496.95 123.79 L 503.21 123.79 L 509.47 123.79 L 515.73 123.79 L 521.98 123.79 L 528.24 123.79 L 534.50 123.79 L 540.76 123.79 L 547.02 123.79 L 553.28 123.79 L 559.54 123.79 L 565.80 123.79 L 572.06 123.79 L 578.32 123.79 L 584.58 123.79 L 590.84 123.79 L 597.10 123.79 L 603.36 123.79 L 609.62 123.79 L 615.88 123.79 L 622.14 123.79 L 628.40 123.79 L 634.66 123.79 L 640.92 123.79 L 647.18 123.79 L 653.44 123.79 L 659.69 123.79 L 665.95 123.79 L 672.21 123.79 L 678.47 123.79 L 684.73 123.79 L 690.99 123.79 L 697.25 123.79 L 703.51 123.79 L 709.77 123.79 L 716.03 123.79 L 722.29 123.79 L 728.55 123.79 L 734.81 123.79 L 741.07 123.79 L 747.33 123.79 L 753.59 123.79 L 759.85 123.79 L 766.11 123.79 L 772.37 123.79 L 778.63 123.79 L 784.89 123.79 L 791.15 123.79 L 797.40 123.79 L 803.66 123.79 L 809.92 123.79 L 816.18 123.79 L 822.44 123.79 L 828.70 123.79 L 834.96 123.79 L 841.22 123.79 L 847.48 123.79 L 853.74 123.79 L 860.00 123.79" fill="none" stroke="#111827" stroke-width="2"/>
    <circle cx="860.00" cy="123.79" r="3" fill="#111827"/>
    <text x="40.00" y="235.00" font-size="9" fill="#111827" text-anchor="middle" transform="rotate(-45 40.00 235.00)">09.08.2025</text><text x="121.37" y="235.00" font-size="9" fill="#111827" text-anchor="middle" transform="rotate(-45 121.37 235.00)">13.08.2025</text><text x="202.75" y="235.00" font-size="9" fill="#111827" text-anchor="middle" transform="rotate(-45 202.75 235.00)">20.08.2025</text><text x="284.12" y="235.00" font-size="9" fill="#111827" text-anchor="middle" transform="rotate(-45 284.12 235.00)">25.08.2025</text><text x="365.50" y="235.00" font-size="9" fill="#111827" text-anchor="middle" transform="rotate(-45 365.50 235.00)">02.09.2025</text><text x="446.87" y="235.00" font-size="9" fill="#111827" text-anchor="middle" transform="rotate(-45 446.87 235.00)">15.09.2025</text><text x="528.24" y="235.00" font-size="9" fill="#111827" text-anchor="middle" transform="rotate(-45 528.24 235.00)">26.09.2025</text><text x="609.62" y="235.00" font-size="9" fill="#111827" text-anchor="middle" transform="rotate(-45 609.62 235.00)">09.10.2025</text><text x="690.99" y="235.00" font-size="9" fill="#111827" text-anchor="middle" transform="rotate(-45 690.99 235.00)">22.10.2025</text><text x="772.37" y="235.00" font-size="9" fill="#111827" text-anchor="middle" transform="rotate(-45 772.37 235.00)">04.11.2025</text><text x="853.74" y="235.00" font-size="9" fill="#111827" text-anchor="middle" transform="rotate(-45 853.74 235.00)">17.11.2025</text>
  </g>
</svg>