<svg xmlns="http://www.w3.org/2000/svg" width="900" height="290" style="font-family: -apple-system, BlinkMacSystemFont, 'Segoe UI', Helvetica, Arial, sans-serif;">
  <rect width="100%" height="100%" fill="#0d1117"/>
  <g>
    <line x1="40" y1="220.00" x2="860" y2="220.00" stroke="#30363d"/><text x="32" y="224.00" font-size="10" fill="#c9d1d9" text-anchor="end">0</text><line x1="40" y1="175.00" x2="860" y2="175.00" stroke="#30363d"/><text x="32" y="179.00" font-size="10" fill="#c9d1d9" text-anchor="end">500</text><line x1="40" y1="130.00" x2="860" y2="130.00" stroke="#30363d"/><text x="32" y="134.00" font-size="10" fill="#c9d1d9" text-anchor="end">1k</text><line x1="40" y1="85.00" x2="860" y2="85.00" stroke="#30363d"/><text x="32" y="89.00" font-size="10" fill="#c9d1d9" text-anchor="end">1.5k</text><line x1="40" y1="40.00" x2="860" y2="40.00" stroke="#30363d"/><text x="32" y="44.00" font-size="10" fill="#c9d1d9" text-anchor="end">2k</text>
    <line x1="40.00" y1="40" x2="40.00" y2="220" stroke="#30363d" opacity="0.5"/><line x1="121.15" y1="40" x2="121.15" y2="220" stroke="#30363d" opacity="0.5"/><line x1="202.29" y1="40" x2="202.29" y2="220" stroke="#30363d" opacity="0.5"/><line x1="283.44" y1="40" x2="283.44" y2="220" stroke="#30363d" opacity="0.5"/><line x1="364.58" y1="40" x2="364.58" y2="220" stroke="#30363d" opacity="0.5"/><line x1="445.73" y1="40" x2="445.73" y2="220" stroke="#30363d" opacity="0.5"/><line x1="526.88" y1="40" x2="526.88" y2="220" stroke="#30363d" opacity="0.5"/><line x1="608.02" y1="40" x2="608.02" y2="220" stroke="#30363d" opacity="0.5"/><line x1="689.17" y1="40" x2="689.17" y2="220" stroke="#30363d" opacity="0.5"/><line x1="770.31" y1="40" x2="770.31" y2="220" stroke="#30363d" opacity="0.5"/><line x1="851.46" y1="40" x2="851.46" y2="220" stroke="#30363d" opacity="0.5"/>
    <line x1="40" y1="220" x2="860" y2="220" stroke="#30363d"/>
    <line x1="40" y1="40"   x2="40"   y2="220" stroke="#30363d"/>
    <path d="M 40.00 219.82 L 44.27 211.81 L 48.54 211.81 L 52.81 211.81 L 57.08 171.85 L 61.35 171.58 L 65.62 164.38 L 69.90 118.93 L 74.17 119.11 L 78.44 111.10 L 82.71 110.56 L 86.98 110.56 L 91.25 110.56 L 95.52 95.35 L 99.79 95.35 L 104.06 95.35 L 108.33 94.63 L 112.60 94.54 L 116.88 94.45 L 121.15 94.09 L 125.42 94.09 L 129.69 94.09 L 133.96 94.09 L 138.23 94.09 L 142.50 94.09 L 146.77 94.09 L 151.04 94.09 L 155.31 94.09 L 159.58 91.84 L 163.85 83.65 L 168.12 83.65 L 172.40 83.47 L 176.67 83.65 L 180.94 91.03 L 185.21 91.03 L 189.48 91.03 L 193.75 91.03 L 198.02 91.03 L 202.29 91.03 L 206.56 91.03 L 210.83 91.03 L 215.10 91.03 L 219.38 91.03 L 223.65 91.03 L 227.92 90.94 L 232.19 91.03 L 236.46 90.94 L 240.73 90.94 L 245.00 90.94 L 249.27 90.94 L 253.54 90.94 L 257.81 90.94 L 262.08 90.94 L 266.35 90.94 L 270.62 90.94 L 274.90 90.94 L 279.17 90.94 L 283.44 90.94 L 287.71 90.94 L 291.98 90.94 L 296.25 90.94 L 300.52 90.94 L 304.79 90.94 L 309.06 90.94 L 313.33 90.94 L 317.60 90.94 L 321.88 90.94 L 326.15 90.94 L 330.42 90.94 L 334.69 90.94 L 338.96 90.94 L 343.23 123.79 L 347.50 123.79 L 351.77 123.79 L 356.04 123.79 L 360.31 123.79 L 364.58 123.79 L 368.85 123.79 L 373.12 123.79 L 377.40 123.79 L 381.67 123.79 L 385.94 123.79 L 390.21 123.79 L 394.48 123.79 L 398.75 123.79 L 403.02 123.79 L 407.29 123.79 L 411.56 123.79 L 415.83 123.79 L 420.10 123.79 L 424.38 123.79 L 428.65 123.79 L 432.92 123.79 L 437.19 123.79 L 441.46 123.79 L 445.73 123.79 L 450.00 123.79 L 454.27 123.79 L 458.54 123.79 L 462.81 123.79 L 467.08 123.79 L 471.35 123.79 L 475.62 123.79 L 479.90 123.79 L 484.17 123.79 L 488.44 123.79 L 492.71 123.79 L 496.98 123.79 L 501.25 123.79 L 505.52 123.79 L 509.79 123.79 L 514.06 123.79 L 518.33 123.79 L 522.60 123.79 L 526.88 123.79 L 531.15 123.79 L 535.42 123.79 L 539.69 123.79 L 543.96 123.79 L 548.23 123.79 L 552.50 123.79 L 556.77 123.79 L 561.04 123.79 L 565.31 123.79 L 569.58 123.79 L 573.85 123.79 L 578.12 123.79 L 582.40 123.79 L 586.67 123.79 L 590.94 123.79 L 595.21 123.79 L 599.48 123.79 L 603.75 123.79 L 608.02 123.79 L 612.29 123.79 L 616.56 123.79 L 620.83 123.79 L 625.10 123.79 L 629.38 123.79 L 633.65 123.79 L 637.92 123.79 L 642.19 123.79 L 646.46 123.79 L 650.73 123.79 L 655.00 123.79 L 659.27 123.79 L 663.54 123.79 L 667.81 123.79 L 672.08 115.42 L 676.35 111.64 L 680.62 107.86 L 684.90 104.08 L 689.17 100.30 L 693.44 95.98 L 697.71 95.98 L 701.98 95.98 L 706.25 95.98 L 710.52 85.72 L 714.79 85.72 L 719.06 85.72 L 723.33 85.72 L 727.60 85.72 L 731.88 85.72 L 736.15 85.72 L 740.42 85.72 L 744.69 85.72 L 748.96 85.72 L 753.23 85.72 L 757.50 85.72 L 761.77 85.72 L 766.04 85.72 L 770.31 85.72 L 774.58 85.72 L 778.85 85.72 L 783.12 85.72 L 787.40 85.72 L 791.67 85.72 L 795.94 85.72 L 800.21 85.72 L 804.48 85.72 L 808.75 85.72 L 813.02 85.72 L 817.29 85.72 L 821.56 85.72 L 825.83 85.72 L 830.10 85.72 L 834.38 85.72 L 838.65 85.72 L 842.92 85.72 L 847.19 85.72 L 851.46 85.72 L 855.73 85.72 L 860.00 85.72" fill="none" stroke="#3fb950" stroke-width="2"/>
    <circle cx="860.00" cy="85.72" r="3" fill="#3fb950"/>
    <text x="40.00" y="235.00" font-size="9" fill="#c9d1d9" text-anchor="middle" transform="rotate(-45 40.00 235.00)">09.08.2025</text><text x="121.15" y="235.00" font-size="9" fill="#c9d1d9" text-anchor="middle" transform="rotate(-45 121.15 235.00)">13.08.2025</text><text x="202.29" y="235.00" font-size="9" fill="#c9d1d9" text-anchor="middle" transform="rotate(-45 202.29 235.00)">24.08.2025</text><text x="283.44" y="235.00" font-size="9" fill="#c9d1d9" text-anchor="middle" transform="rotate(-45 283.44 235.00)">07.09.2025</text><text x="364.58" y="235.00" font-size="9" fill="#c9d1d9" text-anchor="middle" transform="rotate(-45 364.58 235.00)">24.09.2025</text><text x="445.73" y="235.00" font-size="9" fill="#c9d1d9" text-anchor="middle" transform="rotate(-45 445.73 235.00)">13.10.2025</text><text x="526.88" y="235.00" font-size="9" fill="#c9d1d9" text-anchor="middle" transform="rotate(-45 526.88 235.00)">01.11.2025</text><text x="608.02" y="235.00" font-size="9" fill="#c9d1d9" text-anchor="middle" transform="rotate(-45 608.02 235.00)">20.11.2025</text><text x="689.17" y="235.00" font-size="9" fill="#c9d1d9" text-anchor="middle" transform="rotate(-45 689.17 235.00)">04.12.2025</text><text x="770.31" y="235.00" font-size="9" fill="#c9d1d9" text-anchor="middle" transform="rotate(-45 770.31 235.00)">21.12.2025</text><text x="851.46" y="235.00" font-size="9" fill="#c9d1d9" text-anchor="middle" transform="rotate(-45 851.46 235.00)">09.01.2026</text>
  </g>
</svg>