<svg xmlns="http://www.w3.org/2000/svg" width="900" height="290" style="font-family: -apple-system, BlinkMacSystemFont, 'Segoe UI', Helvetica, Arial, sans-serif;">
  <rect width="100%" height="100%" fill="#0d1117"/>
  <g>
    <line x1="40" y1="220.00" x2="860" y2="220.00" stroke="#30363d"/><text x="32" y="224.00" font-size="10" fill="#c9d1d9" text-anchor="end">0</text><line x1="40" y1="175.00" x2="860" y2="175.00" stroke="#30363d"/><text x="32" y="179.00" font-size="10" fill="#c9d1d9" text-anchor="end">500</text><line x1="40" y1="130.00" x2="860" y2="130.00" stroke="#30363d"/><text x="32" y="134.00" font-size="10" fill="#c9d1d9" text-anchor="end">1k</text><line x1="40" y1="85.00" x2="860" y2="85.00" stroke="#30363d"/><text x="32" y="89.00" font-size="10" fill="#c9d1d9" text-anchor="end">1.5k</text><line x1="40" y1="40.00" x2="860" y2="40.00" stroke="#30363d"/><text x="32" y="44.00" font-size="10" fill="#c9d1d9" text-anchor="end">2k</text>
    <line x1="40.00" y1="40" x2="40.00" y2="220" stroke="#30363d" opacity="0.5"/><line x1="118.85" y1="40" x2="118.85" y2="220" stroke="#30363d" opacity="0.5"/><line x1="197.69" y1="40" x2="197.69" y2="220" stroke="#30363d" opacity="0.5"/><line x1="276.54" y1="40" x2="276.54" y2="220" stroke="#30363d" opacity="0.5"/><line x1="355.38" y1="40" x2="355.38" y2="220" stroke="#30363d" opacity="0.5"/><line x1="434.23" y1="40" x2="434.23" y2="220" stroke="#30363d" opacity="0.5"/><line x1="513.08" y1="40" x2="513.08" y2="220" stroke="#30363d" opacity="0.5"/><line x1="591.92" y1="40" x2="591.92" y2="220" stroke="#30363d" opacity="0.5"/><line x1="670.77" y1="40" x2="670.77" y2="220" stroke="#30363d" opacity="0.5"/><line x1="749.62" y1="40" x2="749.62" y2="220" stroke="#30363d" opacity="0.5"/><line x1="828.46" y1="40" x2="828.46" y2="220" stroke="#30363d" opacity="0.5"/>
    <line x1="40" y1="220" x2="860" y2="220" stroke="#30363d"/>
    <line x1="40" y1="40"   x2="40"   y2="220" stroke="#30363d"/>
    <path d="M 40.00 219.82 L 43.94 211.81 L 47.88 211.81 L 51.83 211.81 L 55.77 171.85 L 59.71 171.58 L 63.65 164.38 L 67.60 118.93 L 71.54 119.11 L 75.48 111.10 L 79.42 110.56 L 83.37 110.56 L 87.31 110.56 L 91.25 95.35 L 95.19 95.35 L 99.13 95.35 L 103.08 94.63 L 107.02 94.54 L 110.96 94.45 L 114.90 94.09 L 118.85 94.09 L 122.79 94.09 L 126.73 94.09 L 130.67 94.09 L 134.62 94.09 L 138.56 94.09 L 142.50 94.09 L 146.44 94.09 L 150.38 91.84 L 154.33 83.65 L 158.27 83.65 L 162.21 83.47 L 166.15 83.65 L 170.10 91.03 L 174.04 91.03 L 177.98 91.03 L 181.92 91.03 L 185.87 91.03 L 189.81 91.03 L 193.75 91.03 L 197.69 91.03 L 201.63 91.03 L 205.58 91.03 L 209.52 91.03 L 213.46 90.94 L 217.40 91.03 L 221.35 90.94 L 225.29 90.94 L 229.23 90.94 L 233.17 90.94 L 237.12 90.94 L 241.06 90.94 L 245.00 90.94 L 248.94 90.94 L 252.88 90.94 L 256.83 90.94 L 260.77 90.94 L 264.71 90.94 L 268.65 90.94 L 272.60 90.94 L 276.54 90.94 L 280.48 90.94 L 284.42 90.94 L 288.37 90.94 L 292.31 90.94 L 296.25 90.94 L 300.19 90.94 L 304.13 90.94 L 308.08 90.94 L 312.02 90.94 L 315.96 90.94 L 319.90 123.79 L 323.85 123.79 L 327.79 123.79 L 331.73 123.79 L 335.67 123.79 L 339.62 123.79 L 343.56 123.79 L 347.50 123.79 L 351.44 123.79 L 355.38 123.79 L 359.33 123.79 L 363.27 123.79 L 367.21 123.79 L 371.15 123.79 L 375.10 123.79 L 379.04 123.79 L 382.98 123.79 L 386.92 123.79 L 390.87 123.79 L 394.81 123.79 L 398.75 123.79 L 402.69 123.79 L 406.63 123.79 L 410.58 123.79 L 414.52 123.79 L 418.46 123.79 L 422.40 123.79 L 426.35 123.79 L 430.29 123.79 L 434.23 123.79 L 438.17 123.79 L 442.12 123.79 L 446.06 123.79 L 450.00 123.79 L 453.94 123.79 L 457.88 123.79 L 461.83 123.79 L 465.77 123.79 L 469.71 123.79 L 473.65 123.79 L 477.60 123.79 L 481.54 123.79 L 485.48 123.79 L 489.42 123.79 L 493.37 123.79 L 497.31 123.79 L 501.25 123.79 L 505.19 123.79 L 509.13 123.79 L 513.08 123.79 L 517.02 123.79 L 520.96 123.79 L 524.90 123.79 L 528.85 123.79 L 532.79 123.79 L 536.73 123.79 L 540.67 123.79 L 544.62 123.79 L 548.56 123.79 L 552.50 123.79 L 556.44 123.79 L 560.38 123.79 L 564.33 123.79 L 568.27 123.79 L 572.21 123.79 L 576.15 123.79 L 580.10 123.79 L 584.04 123.79 L 587.98 123.79 L 591.92 123.79 L 595.87 123.79 L 599.81 123.79 L 603.75 123.79 L 607.69 123.79 L 611.63 123.79 L 615.58 123.79 L 619.52 123.79 L 623.46 115.42 L 627.40 111.64 L 631.35 107.86 L 635.29 104.08 L 639.23 100.30 L 643.17 95.98 L 647.12 95.98 L 651.06 95.98 L 655.00 95.98 L 658.94 85.72 L 662.88 85.72 L 666.83 85.72 L 670.77 85.72 L 674.71 85.72 L 678.65 85.72 L 682.60 85.72 L 686.54 85.72 L 690.48 85.72 L 694.42 85.72 L 698.37 85.72 L 702.31 85.72 L 706.25 85.72 L 710.19 85.72 L 714.13 85.72 L 718.08 85.72 L 722.02 85.72 L 725.96 85.72 L 729.90 85.72 L 733.85 85.72 L 737.79 85.72 L 741.73 85.72 L 745.67 85.72 L 749.62 85.72 L 753.56 85.72 L 757.50 85.72 L 761.44 85.72 L 765.38 85.72 L 769.33 85.72 L 773.27 85.72 L 777.21 85.72 L 781.15 85.72 L 785.10 85.72 L 789.04 85.72 L 792.98 85.72 L 796.92 85.72 L 800.87 85.72 L 804.81 85.72 L 808.75 85.72 L 812.69 85.72 L 816.63 85.72 L 820.58 85.72 L 824.52 85.72 L 828.46 85.72 L 832.40 85.72 L 836.35 85.72 L 840.29 85.72 L 844.23 85.72 L 848.17 85.72 L 852.12 85.72 L 856.06 85.72 L 860.00 85.72" fill="none" stroke="#3fb950" stroke-width="2"/>
    <circle cx="860.00" cy="85.72" r="3" fill="#3fb950"/>
    <text x="40.00" y="235.00" font-size="9" fill="#c9d1d9" text-anchor="middle" transform="rotate(-45 40.00 235.00)">09.08.2025</text><text x="118.85" y="235.00" font-size="9" fill="#c9d1d9" text-anchor="middle" transform="rotate(-45 118.85 235.00)">14.08.2025</text><text x="197.69" y="235.00" font-size="9" fill="#c9d1d9" text-anchor="middle" transform="rotate(-45 197.69 235.00)">26.08.2025</text><text x="276.54" y="235.00" font-size="9" fill="#c9d1d9" text-anchor="middle" transform="rotate(-45 276.54 235.00)">10.09.2025</text><text x="355.38" y="235.00" font-size="9" fill="#c9d1d9" text-anchor="middle" transform="rotate(-45 355.38 235.00)">28.09.2025</text><text x="434.23" y="235.00" font-size="9" fill="#c9d1d9" text-anchor="middle" transform="rotate(-45 434.23 235.00)">18.10.2025</text><text x="513.08" y="235.00" font-size="9" fill="#c9d1d9" text-anchor="middle" transform="rotate(-45 513.08 235.00)">07.11.2025</text><text x="591.92" y="235.00" font-size="9" fill="#c9d1d9" text-anchor="middle" transform="rotate(-45 591.92 235.00)">27.11.2025</text><text x="670.77" y="235.00" font-size="9" fill="#c9d1d9" text-anchor="middle" transform="rotate(-45 670.77 235.00)">10.12.2025</text><text x="749.62" y="235.00" font-size="9" fill="#c9d1d9" text-anchor="middle" transform="rotate(-45 749.62 235.00)">30.12.2025</text><text x="828.46" y="235.00" font-size="9" fill="#c9d1d9" text-anchor="middle" transform="rotate(-45 828.46 235.00)">19.01.2026</text>
  </g>
</svg>