<svg xmlns="http://www.w3.org/2000/svg" width="900" height="290" style="font-family: -apple-system, BlinkMacSystemFont, 'Segoe UI', Helvetica, Arial, sans-serif;">
  <rect width="100%" height="100%" fill="#0d1117"/>
  <g>
    <line x1="40" y1="220.00" x2="860" y2="220.00" stroke="#30363d"/><text x="32" y="224.00" font-size="10" fill="#c9d1d9" text-anchor="end">0</text><line x1="40" y1="175.00" x2="860" y2="175.00" stroke="#30363d"/><text x="32" y="179.00" font-size="10" fill="#c9d1d9" text-anchor="end">500</text><line x1="40" y1="130.00" x2="860" y2="130.00" stroke="#30363d"/><text x="32" y="134.00" font-size="10" fill="#c9d1d9" text-anchor="end">1k</text><line x1="40" y1="85.00" x2="860" y2="85.00" stroke="#30363d"/><text x="32" y="89.00" font-size="10" fill="#c9d1d9" text-anchor="end">1.5k</text><line x1="40" y1="40.00" x2="860" y2="40.00" stroke="#30363d"/><text x="32" y="44.00" font-size="10" fill="#c9d1d9" text-anchor="end">2k</text>
    <line x1="40.00" y1="40" x2="40.00" y2="220" stroke="#30363d" opacity="0.5"/><line x1="119.55" y1="40" x2="119.55" y2="220" stroke="#30363d" opacity="0.5"/><line x1="199.10" y1="40" x2="199.10" y2="220" stroke="#30363d" opacity="0.5"/><line x1="278.66" y1="40" x2="278.66" y2="220" stroke="#30363d" opacity="0.5"/><line x1="358.21" y1="40" x2="358.21" y2="220" stroke="#30363d" opacity="0.5"/><line x1="437.76" y1="40" x2="437.76" y2="220" stroke="#30363d" opacity="0.5"/><line x1="517.31" y1="40" x2="517.31" y2="220" stroke="#30363d" opacity="0.5"/><line x1="596.87" y1="40" x2="596.87" y2="220" stroke="#30363d" opacity="0.5"/><line x1="676.42" y1="40" x2="676.42" y2="220" stroke="#30363d" opacity="0.5"/><line x1="755.97" y1="40" x2="755.97" y2="220" stroke="#30363d" opacity="0.5"/><line x1="835.52" y1="40" x2="835.52" y2="220" stroke="#30363d" opacity="0.5"/>
    <line x1="40" y1="220" x2="860" y2="220" stroke="#30363d"/>
    <line x1="40" y1="40"   x2="40"   y2="220" stroke="#30363d"/>
    <path d="M 40.00 219.82 L 46.12 211.81 L 52.24 211.81 L 58.36 211.81 L 64.48 171.85 L 70.60 171.58 L 76.72 164.38 L 82.84 118.93 L 88.96 119.11 L 95.07 111.10 L 101.19 110.56 L 107.31 110.56 L 113.43 110.56 L 119.55 95.35 L 125.67 95.35 L 131.79 95.35 L 137.91 94.63 L 144.03 94.54 L 150.15 94.45 L 156.27 94.09 L 162.39 94.09 L 168.51 94.09 L 174.63 94.09 L 180.75 94.09 L 186.87 94.09 L 192.99 94.09 L 199.10 94.09 L 205.22 94.09 L 211.34 91.84 L 217.46 83.65 L 223.58 83.65 L 229.70 83.47 L 235.82 83.65 L 241.94 91.03 L 248.06 91.03 L 254.18 91.03 L 260.30 91.03 L 266.42 91.03 L 272.54 91.03 L 278.66 91.03 L 284.78 91.03 L 290.90 91.03 L 297.01 91.03 L 303.13 91.03 L 309.25 90.94 L 315.37 91.03 L 321.49 90.94 L 327.61 90.94 L 333.73 90.94 L 339.85 90.94 L 345.97 90.94 L 352.09 90.94 L 358.21 90.94 L 364.33 90.94 L 370.45 90.94 L 376.57 90.94 L 382.69 90.94 L 388.81 90.94 L 394.93 90.94 L 401.04 90.94 L 407.16 90.94 L 413.28 90.94 L 419.40 90.94 L 425.52 90.94 L 431.64 90.94 L 437.76 90.94 L 443.88 90.94 L 450.00 90.94 L 456.12 90.94 L 462.24 90.94 L 468.36 90.94 L 474.48 123.79 L 480.60 123.79 L 486.72 123.79 L 492.84 123.79 L 498.96 123.79 L 505.07 123.79 L 511.19 123.79 L 517.31 123.79 L 523.43 123.79 L 529.55 123.79 L 535.67 123.79 L 541.79 123.79 L 547.91 123.79 L 554.03 123.79 L 560.15 123.79 L 566.27 123.79 L 572.39 123.79 L 578.51 123.79 L 584.63 123.79 L 590.75 123.79 L 596.87 123.79 L 602.99 123.79 L 609.10 123.79 L 615.22 123.79 L 621.34 123.79 L 627.46 123.79 L 633.58 123.79 L 639.70 123.79 L 645.82 123.79 L 651.94 123.79 L 658.06 123.79 L 664.18 123.79 L 670.30 123.79 L 676.42 123.79 L 682.54 123.79 L 688.66 123.79 L 694.78 123.79 L 700.90 123.79 L 707.01 123.79 L 713.13 123.79 L 719.25 123.79 L 725.37 123.79 L 731.49 123.79 L 737.61 123.79 L 743.73 123.79 L 749.85 123.79 L 755.97 123.79 L 762.09 123.79 L 768.21 123.79 L 774.33 123.79 L 780.45 123.79 L 786.57 123.79 L 792.69 123.79 L 798.81 123.79 L 804.93 123.79 L 811.04 123.79 L 817.16 123.79 L 823.28 123.79 L 829.40 123.79 L 835.52 123.79 L 841.64 123.79 L 847.76 123.79 L 853.88 123.79 L 860.00 123.79" fill="none" stroke="#3fb950" stroke-width="2"/>
    <circle cx="860.00" cy="123.79" r="3" fill="#3fb950"/>
    <text x="40.00" y="235.00" font-size="9" fill="#c9d1d9" text-anchor="middle" transform="rotate(-45 40.00 235.00)">09.08.2025</text><text x="119.55" y="235.00" font-size="9" fill="#c9d1d9" text-anchor="middle" transform="rotate(-45 119.55 235.00)">13.08.2025</text><text x="199.10" y="235.00" font-size="9" fill="#c9d1d9" text-anchor="middle" transform="rotate(-45 199.10 235.00)">20.08.2025</text><text x="278.66" y="235.00" font-size="9" fill="#c9d1d9" text-anchor="middle" transform="rotate(-45 278.66 235.00)">25.08.2025</text><text x="358.21" y="235.00" font-size="9" fill="#c9d1d9" text-anchor="middle" transform="rotate(-45 358.21 235.00)">02.09.2025</text><text x="437.76" y="235.00" font-size="9" fill="#c9d1d9" text-anchor="middle" transform="rotate(-45 437.76 235.00)">15.09.2025</text><text x="517.31" y="235.00" font-size="9" fill="#c9d1d9" text-anchor="middle" transform="rotate(-45 517.31 235.00)">26.09.2025</text><text x="596.87" y="235.00" font-size="9" fill="#c9d1d9" text-anchor="middle" transform="rotate(-45 596.87 235.00)">09.10.2025</text><text x="676.42" y="235.00" font-size="9" fill="#c9d1d9" text-anchor="middle" transform="rotate(-45 676.42 235.00)">22.10.2025</text><text x="755.97" y="235.00" font-size="9" fill="#c9d1d9" text-anchor="middle" transform="rotate(-45 755.97 235.00)">04.11.2025</text><text x="835.52" y="235.00" font-size="9" fill="#c9d1d9" text-anchor="middle" transform="rotate(-45 835.52 235.00)">17.11.2025</text>
  </g>
</svg>