<svg xmlns="http://www.w3.org/2000/svg" width="900" height="290" style="font-family: -apple-system, BlinkMacSystemFont, 'Segoe UI', Helvetica, Arial, sans-serif;">
  <rect width="100%" height="100%" fill="white"/>
  <g>
    <line x1="40" y1="220.00" x2="860" y2="220.00" stroke="#e5e7eb"/><text x="32" y="224.00" font-size="10" fill="#111827" text-anchor="end">0</text><line x1="40" y1="175.00" x2="860" y2="175.00" stroke="#e5e7eb"/><text x="32" y="179.00" font-size="10" fill="#111827" text-anchor="end">500</text><line x1="40" y1="130.00" x2="860" y2="130.00" stroke="#e5e7eb"/><text x="32" y="134.00" font-size="10" fill="#111827" text-anchor="end">1k</text><line x1="40" y1="85.00" x2="860" y2="85.00" stroke="#e5e7eb"/><text x="32" y="89.00" font-size="10" fill="#111827" text-anchor="end">1.5k</text><line x1="40" y1="40.00" x2="860" y2="40.00" stroke="#e5e7eb"/><text x="32" y="44.00" font-size="10" fill="#111827" text-anchor="end">2k</text>
    <line x1="40.00" y1="40" x2="40.00" y2="220" stroke="#e5e7eb" opacity="0.5"/><line x1="118.10" y1="40" x2="118.10" y2="220" stroke="#e5e7eb" opacity="0.5"/><line x1="196.19" y1="40" x2="196.19" y2="220" stroke="#e5e7eb" opacity="0.5"/><line x1="274.29" y1="40" x2="274.29" y2="220" stroke="#e5e7eb" opacity="0.5"/><line x1="352.38" y1="40" x2="352.38" y2="220" stroke="#e5e7eb" opacity="0.5"/><line x1="430.48" y1="40" x2="430.48" y2="220" stroke="#e5e7eb" opacity="0.5"/><line x1="508.57" y1="40" x2="508.57" y2="220" stroke="#e5e7eb" opacity="0.5"/><line x1="586.67" y1="40" x2="586.67" y2="220" stroke="#e5e7eb" opacity="0.5"/><line x1="664.76" y1="40" x2="664.76" y2="220" stroke="#e5e7eb" opacity="0.5"/><line x1="742.86" y1="40" x2="742.86" y2="220" stroke="#e5e7eb" opacity="0.5"/><line x1="820.95" y1="40" x2="820.95" y2="220" stroke="#e5e7eb" opacity="0.5"/>
    <line x1="40" y1="220" x2="860" y2="220" stroke="#9ca3af"/>
    <line x1="40" y1="40"   x2="40"   y2="220" stroke="#9ca3af"/>
    <path d="M 40.00 219.82 L 47.81 211.81 L 55.62 211.81 L 63.43 211.81 L 71.24 171.85 L 79.05 171.58 L 86.86 164.38 L 94.67 118.93 L 102.48 119.11 L 110.29 111.10 L 118.10 110.56 L 125.90 110.56 L 133.71 110.56 L 141.52 95.35 L 149.33 95.35 L 157.14 95.35 L 164.95 94.63 L 172.76 94.54 L 180.57 94.45 L 188.38 94.09 L 196.19 94.09 L 204.00 94.09 L 211.81 94.09 L 219.62 94.09 L 227.43 94.09 L 235.24 94.09 L 243.05 94.09 L 250.86 94.09 L 258.67 91.84 L 266.48 83.65 L 274.29 83.65 L 282.10 83.47 L 289.90 83.65 L 297.71 91.03 L 305.52 91.03 L 313.33 91.03 L 321.14 91.03 L 328.95 91.03 L 336.76 91.03 L 344.57 91.03 L 352.38 91.03 L 360.19 91.03 L 368.00 91.03 L 375.81 91.03 L 383.62 90.94 L 391.43 91.03 L 399.24 90.94 L 407.05 90.94 L 414.86 90.94 L 422.67 90.94 L 430.48 90.94 L 438.29 90.94 L 446.10 90.94 L 453.90 90.94 L 461.71 90.94 L 469.52 90.94 L 477.33 90.94 L 485.14 90.94 L 492.95 90.94 L 500.76 90.94 L 508.57 90.94 L 516.38 90.94 L 524.19 90.94 L 532.00 90.94 L 539.81 90.94 L 547.62 90.94 L 555.43 90.94 L 563.24 90.94 L 571.05 90.94 L 578.86 90.94 L 586.67 90.94 L 594.48 123.79 L 602.29 123.79 L 610.10 123.79 L 617.90 123.79 L 625.71 123.79 L 633.52 123.79 L 641.33 123.79 L 649.14 123.79 L 656.95 123.79 L 664.76 123.79 L 672.57 123.79 L 680.38 123.79 L 688.19 123.79 L 696.00 123.79 L 703.81 123.79 L 711.62 123.79 L 719.43 123.79 L 727.24 123.79 L 735.05 123.79 L 742.86 123.79 L 750.67 123.79 L 758.48 123.79 L 766.29 123.79 L 774.10 123.79 L 781.90 123.79 L 789.71 123.79 L 797.52 123.79 L 805.33 123.79 L 813.14 123.79 L 820.95 123.79 L 828.76 123.79 L 836.57 123.79 L 844.38 123.79 L 852.19 123.79 L 860.00 123.79" fill="none" stroke="#111827" stroke-width="2"/>
    <circle cx="860.00" cy="123.79" r="3" fill="#111827"/>
    <text x="40.00" y="235.00" font-size="9" fill="#111827" text-anchor="middle" transform="rotate(-45 40.00 235.00)">09.08.2025</text><text x="118.10" y="235.00" font-size="9" fill="#111827" text-anchor="middle" transform="rotate(-45 118.10 235.00)">13.08.2025</text><text x="196.19" y="235.00" font-size="9" fill="#111827" text-anchor="middle" transform="rotate(-45 196.19 235.00)">14.08.2025</text><text x="274.29" y="235.00" font-size="9" fill="#111827" text-anchor="middle" transform="rotate(-45 274.29 235.00)">21.08.2025</text><text x="352.38" y="235.00" font-size="9" fill="#111827" text-anchor="middle" transform="rotate(-45 352.38 235.00)">26.08.2025</text><text x="430.48" y="235.00" font-size="9" fill="#111827" text-anchor="middle" transform="rotate(-45 430.48 235.00)">31.08.2025</text><text x="508.57" y="235.00" font-size="9" fill="#111827" text-anchor="middle" transform="rotate(-45 508.57 235.00)">10.09.2025</text><text x="586.67" y="235.00" font-size="9" fill="#111827" text-anchor="middle" transform="rotate(-45 586.67 235.00)">20.09.2025</text><text x="664.76" y="235.00" font-size="9" fill="#111827" text-anchor="middle" transform="rotate(-45 664.76 235.00)">28.09.2025</text><text x="742.86" y="235.00" font-size="9" fill="#111827" text-anchor="middle" transform="rotate(-45 742.86 235.00)">08.10.2025</text><text x="820.95" y="235.00" font-size="9" fill="#111827" text-anchor="middle" transform="rotate(-45 820.95 235.00)">18.10.2025</text>
  </g>
</svg>