<svg xmlns="http://www.w3.org/2000/svg" width="900" height="290" style="font-family: -apple-system, BlinkMacSystemFont, 'Segoe UI', Helvetica, Arial, sans-serif;">
  <rect width="100%" height="100%" fill="#0d1117"/>
  <g>
    <line x1="40" y1="220.00" x2="860" y2="220.00" stroke="#30363d"/><text x="32" y="224.00" font-size="10" fill="#c9d1d9" text-anchor="end">0</text><line x1="40" y1="175.00" x2="860" y2="175.00" stroke="#30363d"/><text x="32" y="179.00" font-size="10" fill="#c9d1d9" text-anchor="end">500</text><line x1="40" y1="130.00" x2="860" y2="130.00" stroke="#30363d"/><text x="32" y="134.00" font-size="10" fill="#c9d1d9" text-anchor="end">1k</text><line x1="40" y1="85.00" x2="860" y2="85.00" stroke="#30363d"/><text x="32" y="89.00" font-size="10" fill="#c9d1d9" text-anchor="end">1.5k</text><line x1="40" y1="40.00" x2="860" y2="40.00" stroke="#30363d"/><text x="32" y="44.00" font-size="10" fill="#c9d1d9" text-anchor="end">2k</text>
    <line x1="40.00" y1="40" x2="40.00" y2="220" stroke="#30363d" opacity="0.5"/><line x1="120.54" y1="40" x2="120.54" y2="220" stroke="#30363d" opacity="0.5"/><line x1="201.07" y1="40" x2="201.07" y2="220" stroke="#30363d" opacity="0.5"/><line x1="281.61" y1="40" x2="281.61" y2="220" stroke="#30363d" opacity="0.5"/><line x1="362.14" y1="40" x2="362.14" y2="220" stroke="#30363d" opacity="0.5"/><line x1="442.68" y1="40" x2="442.68" y2="220" stroke="#30363d" opacity="0.5"/><line x1="523.21" y1="40" x2="523.21" y2="220" stroke="#30363d" opacity="0.5"/><line x1="603.75" y1="40" x2="603.75" y2="220" stroke="#30363d" opacity="0.5"/><line x1="684.29" y1="40" x2="684.29" y2="220" stroke="#30363d" opacity="0.5"/><line x1="764.82" y1="40" x2="764.82" y2="220" stroke="#30363d" opacity="0.5"/><line x1="845.36" y1="40" x2="845.36" y2="220" stroke="#30363d" opacity="0.5"/>
    <line x1="40" y1="220" x2="860" y2="220" stroke="#30363d"/>
    <line x1="40" y1="40"   x2="40"   y2="220" stroke="#30363d"/>
    <path d="M 40.00 219.82 L 43.66 211.81 L 47.32 211.81 L 50.98 211.81 L 54.64 171.85 L 58.30 171.58 L 61.96 164.38 L 65.62 118.93 L 69.29 119.11 L 72.95 111.10 L 76.61 110.56 L 80.27 110.56 L 83.93 110.56 L 87.59 95.35 L 91.25 95.35 L 94.91 95.35 L 98.57 94.63 L 102.23 94.54 L 105.89 94.45 L 109.55 94.09 L 113.21 94.09 L 116.88 94.09 L 120.54 94.09 L 124.20 94.09 L 127.86 94.09 L 131.52 94.09 L 135.18 94.09 L 138.84 94.09 L 142.50 91.84 L 146.16 83.65 L 149.82 83.65 L 153.48 83.47 L 157.14 83.65 L 160.80 91.03 L 164.46 91.03 L 168.12 91.03 L 171.79 91.03 L 175.45 91.03 L 179.11 91.03 L 182.77 91.03 L 186.43 91.03 L 190.09 91.03 L 193.75 91.03 L 197.41 91.03 L 201.07 90.94 L 204.73 91.03 L 208.39 90.94 L 212.05 90.94 L 215.71 90.94 L 219.38 90.94 L 223.04 90.94 L 226.70 90.94 L 230.36 90.94 L 234.02 90.94 L 237.68 90.94 L 241.34 90.94 L 245.00 90.94 L 248.66 90.94 L 252.32 90.94 L 255.98 90.94 L 259.64 90.94 L 263.30 90.94 L 266.96 90.94 L 270.62 90.94 L 274.29 90.94 L 277.95 90.94 L 281.61 90.94 L 285.27 90.94 L 288.93 90.94 L 292.59 90.94 L 296.25 90.94 L 299.91 123.79 L 303.57 123.79 L 307.23 123.79 L 310.89 123.79 L 314.55 123.79 L 318.21 123.79 L 321.88 123.79 L 325.54 123.79 L 329.20 123.79 L 332.86 123.79 L 336.52 123.79 L 340.18 123.79 L 343.84 123.79 L 347.50 123.79 L 351.16 123.79 L 354.82 123.79 L 358.48 123.79 L 362.14 123.79 L 365.80 123.79 L 369.46 123.79 L 373.12 123.79 L 376.79 123.79 L 380.45 123.79 L 384.11 123.79 L 387.77 123.79 L 391.43 123.79 L 395.09 123.79 L 398.75 123.79 L 402.41 123.79 L 406.07 123.79 L 409.73 123.79 L 413.39 123.79 L 417.05 123.79 L 420.71 123.79 L 424.38 123.79 L 428.04 123.79 L 431.70 123.79 L 435.36 123.79 L 439.02 123.79 L 442.68 123.79 L 446.34 123.79 L 450.00 123.79 L 453.66 123.79 L 457.32 123.79 L 460.98 123.79 L 464.64 123.79 L 468.30 123.79 L 471.96 123.79 L 475.62 123.79 L 479.29 123.79 L 482.95 123.79 L 486.61 123.79 L 490.27 123.79 L 493.93 123.79 L 497.59 123.79 L 501.25 123.79 L 504.91 123.79 L 508.57 123.79 L 512.23 123.79 L 515.89 123.79 L 519.55 123.79 L 523.21 123.79 L 526.88 123.79 L 530.54 123.79 L 534.20 123.79 L 537.86 123.79 L 541.52 123.79 L 545.18 123.79 L 548.84 123.79 L 552.50 123.79 L 556.16 123.79 L 559.82 123.79 L 563.48 123.79 L 567.14 123.79 L 570.80 123.79 L 574.46 123.79 L 578.12 123.79 L 581.79 115.42 L 585.45 111.64 L 589.11 107.86 L 592.77 104.08 L 596.43 100.30 L 600.09 95.98 L 603.75 95.98 L 607.41 95.98 L 611.07 95.98 L 614.73 85.72 L 618.39 85.72 L 622.05 85.72 L 625.71 85.72 L 629.38 85.72 L 633.04 85.72 L 636.70 85.72 L 640.36 85.72 L 644.02 85.72 L 647.68 85.72 L 651.34 85.72 L 655.00 85.72 L 658.66 85.72 L 662.32 85.72 L 665.98 85.72 L 669.64 85.72 L 673.30 85.72 L 676.96 85.72 L 680.62 85.72 L 684.29 85.72 L 687.95 85.72 L 691.61 85.72 L 695.27 85.72 L 698.93 85.72 L 702.59 85.72 L 706.25 85.72 L 709.91 85.72 L 713.57 85.72 L 717.23 85.72 L 720.89 85.72 L 724.55 85.72 L 728.21 85.72 L 731.88 85.72 L 735.54 85.72 L 739.20 85.72 L 742.86 85.72 L 746.52 85.72 L 750.18 85.72 L 753.84 85.72 L 757.50 85.72 L 761.16 85.72 L 764.82 85.72 L 768.48 85.72 L 772.14 85.72 L 775.80 85.72 L 779.46 85.72 L 783.12 85.72 L 786.79 85.72 L 790.45 85.72 L 794.11 85.72 L 797.77 85.72 L 801.43 85.72 L 805.09 85.72 L 808.75 85.72 L 812.41 85.72 L 816.07 85.72 L 819.73 85.72 L 823.39 85.72 L 827.05 85.72 L 830.71 85.72 L 834.38 85.72 L 838.04 85.72 L 841.70 85.72 L 845.36 85.72 L 849.02 85.72 L 852.68 85.72 L 856.34 85.72 L 860.00 85.72" fill="none" stroke="#3fb950" stroke-width="2"/>
    <circle cx="860.00" cy="85.72" r="3" fill="#3fb950"/>
    <text x="40.00" y="235.00" font-size="9" fill="#c9d1d9" text-anchor="middle" transform="rotate(-45 40.00 235.00)">09.08.2025</text><text x="120.54" y="235.00" font-size="9" fill="#c9d1d9" text-anchor="middle" transform="rotate(-45 120.54 235.00)">16.08.2025</text><text x="201.07" y="235.00" font-size="9" fill="#c9d1d9" text-anchor="middle" transform="rotate(-45 201.07 235.00)">28.08.2025</text><text x="281.61" y="235.00" font-size="9" fill="#c9d1d9" text-anchor="middle" transform="rotate(-45 281.61 235.00)">16.09.2025</text><text x="362.14" y="235.00" font-size="9" fill="#c9d1d9" text-anchor="middle" transform="rotate(-45 362.14 235.00)">06.10.2025</text><text x="442.68" y="235.00" font-size="9" fill="#c9d1d9" text-anchor="middle" transform="rotate(-45 442.68 235.00)">28.10.2025</text><text x="523.21" y="235.00" font-size="9" fill="#c9d1d9" text-anchor="middle" transform="rotate(-45 523.21 235.00)">19.11.2025</text><text x="603.75" y="235.00" font-size="9" fill="#c9d1d9" text-anchor="middle" transform="rotate(-45 603.75 235.00)">05.12.2025</text><text x="684.29" y="235.00" font-size="9" fill="#c9d1d9" text-anchor="middle" transform="rotate(-45 684.29 235.00)">26.12.2025</text><text x="764.82" y="235.00" font-size="9" fill="#c9d1d9" text-anchor="middle" transform="rotate(-45 764.82 235.00)">17.01.2026</text><text x="845.36" y="235.00" font-size="9" fill="#c9d1d9" text-anchor="middle" transform="rotate(-45 845.36 235.00)">08.02.2026</text>
  </g>
</svg>