<svg xmlns="http://www.w3.org/2000/svg" width="900" height="290" style="font-family: -apple-system, BlinkMacSystemFont, 'Segoe UI', Helvetica, Arial, sans-serif;">
  <rect width="100%" height="100%" fill="#0d1117"/>
  <g>
    <line x1="40" y1="220.00" x2="860" y2="220.00" stroke="#30363d"/><text x="32" y="224.00" font-size="10" fill="#c9d1d9" text-anchor="end">0</text><line x1="40" y1="175.00" x2="860" y2="175.00" stroke="#30363d"/><text x="32" y="179.00" font-size="10" fill="#c9d1d9" text-anchor="end">500</text><line x1="40" y1="130.00" x2="860" y2="130.00" stroke="#30363d"/><text x="32" y="134.00" font-size="10" fill="#c9d1d9" text-anchor="end">1k</text><line x1="40" y1="85.00" x2="860" y2="85.00" stroke="#30363d"/><text x="32" y="89.00" font-size="10" fill="#c9d1d9" text-anchor="end">1.5k</text><line x1="40" y1="40.00" x2="860" y2="40.00" stroke="#30363d"/><text x="32" y="44.00" font-size="10" fill="#c9d1d9" text-anchor="end">2k</text>
    <line x1="40.00" y1="40" x2="40.00" y2="220" stroke="#30363d" opacity="0.5"/><line x1="122.43" y1="40" x2="122.43" y2="220" stroke="#30363d" opacity="0.5"/><line x1="204.87" y1="40" x2="204.87" y2="220" stroke="#30363d" opacity="0.5"/><line x1="287.30" y1="40" x2="287.30" y2="220" stroke="#30363d" opacity="0.5"/><line x1="369.74" y1="40" x2="369.74" y2="220" stroke="#30363d" opacity="0.5"/><line x1="452.17" y1="40" x2="452.17" y2="220" stroke="#30363d" opacity="0.5"/><line x1="534.60" y1="40" x2="534.60" y2="220" stroke="#30363d" opacity="0.5"/><line x1="617.04" y1="40" x2="617.04" y2="220" stroke="#30363d" opacity="0.5"/><line x1="699.47" y1="40" x2="699.47" y2="220" stroke="#30363d" opacity="0.5"/><line x1="781.90" y1="40" x2="781.90" y2="220" stroke="#30363d" opacity="0.5"/>
    <line x1="40" y1="220" x2="860" y2="220" stroke="#30363d"/>
    <line x1="40" y1="40"   x2="40"   y2="220" stroke="#30363d"/>
    <path d="M 40.00 219.82 L 44.34 211.81 L 48.68 211.81 L 53.02 211.81 L 57.35 171.85 L 61.69 171.58 L 66.03 164.38 L 70.37 118.93 L 74.71 119.11 L 79.05 111.10 L 83.39 110.56 L 87.72 110.56 L 92.06 110.56 L 96.40 95.35 L 100.74 95.35 L 105.08 95.35 L 109.42 94.63 L 113.76 94.54 L 118.10 94.45 L 122.43 94.09 L 126.77 94.09 L 131.11 94.09 L 135.45 94.09 L 139.79 94.09 L 144.13 94.09 L 148.47 94.09 L 152.80 94.09 L 157.14 94.09 L 161.48 91.84 L 165.82 83.65 L 170.16 83.65 L 174.50 83.47 L 178.84 83.65 L 183.17 91.03 L 187.51 91.03 L 191.85 91.03 L 196.19 91.03 L 200.53 91.03 L 204.87 91.03 L 209.21 91.03 L 213.54 91.03 L 217.88 91.03 L 222.22 91.03 L 226.56 91.03 L 230.90 90.94 L 235.24 91.03 L 239.58 90.94 L 243.92 90.94 L 248.25 90.94 L 252.59 90.94 L 256.93 90.94 L 261.27 90.94 L 265.61 90.94 L 269.95 90.94 L 274.29 90.94 L 278.62 90.94 L 282.96 90.94 L 287.30 90.94 L 291.64 90.94 L 295.98 90.94 L 300.32 90.94 L 304.66 90.94 L 308.99 90.94 L 313.33 90.94 L 317.67 90.94 L 322.01 90.94 L 326.35 90.94 L 330.69 90.94 L 335.03 90.94 L 339.37 90.94 L 343.70 90.94 L 348.04 123.79 L 352.38 123.79 L 356.72 123.79 L 361.06 123.79 L 365.40 123.79 L 369.74 123.79 L 374.07 123.79 L 378.41 123.79 L 382.75 123.79 L 387.09 123.79 L 391.43 123.79 L 395.77 123.79 L 400.11 123.79 L 404.44 123.79 L 408.78 123.79 L 413.12 123.79 L 417.46 123.79 L 421.80 123.79 L 426.14 123.79 L 430.48 123.79 L 434.81 123.79 L 439.15 123.79 L 443.49 123.79 L 447.83 123.79 L 452.17 123.79 L 456.51 123.79 L 460.85 123.79 L 465.19 123.79 L 469.52 123.79 L 473.86 123.79 L 478.20 123.79 L 482.54 123.79 L 486.88 123.79 L 491.22 123.79 L 495.56 123.79 L 499.89 123.79 L 504.23 123.79 L 508.57 123.79 L 512.91 123.79 L 517.25 123.79 L 521.59 123.79 L 525.93 123.79 L 530.26 123.79 L 534.60 123.79 L 538.94 123.79 L 543.28 123.79 L 547.62 123.79 L 551.96 123.79 L 556.30 123.79 L 560.63 123.79 L 564.97 123.79 L 569.31 123.79 L 573.65 123.79 L 577.99 123.79 L 582.33 123.79 L 586.67 123.79 L 591.01 123.79 L 595.34 123.79 L 599.68 123.79 L 604.02 123.79 L 608.36 123.79 L 612.70 123.79 L 617.04 123.79 L 621.38 123.79 L 625.71 123.79 L 630.05 123.79 L 634.39 123.79 L 638.73 123.79 L 643.07 123.79 L 647.41 123.79 L 651.75 123.79 L 656.08 123.79 L 660.42 123.79 L 664.76 123.79 L 669.10 123.79 L 673.44 123.79 L 677.78 123.79 L 682.12 115.42 L 686.46 111.64 L 690.79 107.86 L 695.13 104.08 L 699.47 100.30 L 703.81 95.98 L 708.15 95.98 L 712.49 95.98 L 716.83 95.98 L 721.16 85.72 L 725.50 85.72 L 729.84 85.72 L 734.18 85.72 L 738.52 85.72 L 742.86 85.72 L 747.20 85.72 L 751.53 85.72 L 755.87 85.72 L 760.21 85.72 L 764.55 85.72 L 768.89 85.72 L 773.23 85.72 L 777.57 85.72 L 781.90 85.72 L 786.24 85.72 L 790.58 85.72 L 794.92 85.72 L 799.26 85.72 L 803.60 85.72 L 807.94 85.72 L 812.28 85.72 L 816.61 85.72 L 820.95 85.72 L 825.29 85.72 L 829.63 85.72 L 833.97 85.72 L 838.31 85.72 L 842.65 85.72 L 846.98 85.72 L 851.32 85.72 L 855.66 85.72 L 860.00 85.72" fill="none" stroke="#3fb950" stroke-width="2"/>
    <circle cx="860.00" cy="85.72" r="3" fill="#3fb950"/>
    <text x="40.00" y="235.00" font-size="9" fill="#c9d1d9" text-anchor="middle" transform="rotate(-45 40.00 235.00)">09.08.2025</text><text x="122.43" y="235.00" font-size="9" fill="#c9d1d9" text-anchor="middle" transform="rotate(-45 122.43 235.00)">13.08.2025</text><text x="204.87" y="235.00" font-size="9" fill="#c9d1d9" text-anchor="middle" transform="rotate(-45 204.87 235.00)">24.08.2025</text><text x="287.30" y="235.00" font-size="9" fill="#c9d1d9" text-anchor="middle" transform="rotate(-45 287.30 235.00)">07.09.2025</text><text x="369.74" y="235.00" font-size="9" fill="#c9d1d9" text-anchor="middle" transform="rotate(-45 369.74 235.00)">24.09.2025</text><text x="452.17" y="235.00" font-size="9" fill="#c9d1d9" text-anchor="middle" transform="rotate(-45 452.17 235.00)">13.10.2025</text><text x="534.60" y="235.00" font-size="9" fill="#c9d1d9" text-anchor="middle" transform="rotate(-45 534.60 235.00)">01.11.2025</text><text x="617.04" y="235.00" font-size="9" fill="#c9d1d9" text-anchor="middle" transform="rotate(-45 617.04 235.00)">20.11.2025</text><text x="699.47" y="235.00" font-size="9" fill="#c9d1d9" text-anchor="middle" transform="rotate(-45 699.47 235.00)">04.12.2025</text><text x="781.90" y="235.00" font-size="9" fill="#c9d1d9" text-anchor="middle" transform="rotate(-45 781.90 235.00)">21.12.2025</text>
  </g>
</svg>