<svg xmlns="http://www.w3.org/2000/svg" width="900" height="290" style="font-family: -apple-system, BlinkMacSystemFont, 'Segoe UI', Helvetica, Arial, sans-serif;">
  <rect width="100%" height="100%" fill="white"/>
  <g>
    <line x1="40" y1="220.00" x2="860" y2="220.00" stroke="#e5e7eb"/><text x="32" y="224.00" font-size="10" fill="#111827" text-anchor="end">0</text><line x1="40" y1="175.00" x2="860" y2="175.00" stroke="#e5e7eb"/><text x="32" y="179.00" font-size="10" fill="#111827" text-anchor="end">500</text><line x1="40" y1="130.00" x2="860" y2="130.00" stroke="#e5e7eb"/><text x="32" y="134.00" font-size="10" fill="#111827" text-anchor="end">1k</text><line x1="40" y1="85.00" x2="860" y2="85.00" stroke="#e5e7eb"/><text x="32" y="89.00" font-size="10" fill="#111827" text-anchor="end">1.5k</text><line x1="40" y1="40.00" x2="860" y2="40.00" stroke="#e5e7eb"/><text x="32" y="44.00" font-size="10" fill="#111827" text-anchor="end">2k</text>
    <line x1="40.00" y1="40" x2="40.00" y2="220" stroke="#e5e7eb" opacity="0.5"/><line x1="119.23" y1="40" x2="119.23" y2="220" stroke="#e5e7eb" opacity="0.5"/><line x1="198.45" y1="40" x2="198.45" y2="220" stroke="#e5e7eb" opacity="0.5"/><line x1="277.68" y1="40" x2="277.68" y2="220" stroke="#e5e7eb" opacity="0.5"/><line x1="356.91" y1="40" x2="356.91" y2="220" stroke="#e5e7eb" opacity="0.5"/><line x1="436.14" y1="40" x2="436.14" y2="220" stroke="#e5e7eb" opacity="0.5"/><line x1="515.36" y1="40" x2="515.36" y2="220" stroke="#e5e7eb" opacity="0.5"/><line x1="594.59" y1="40" x2="594.59" y2="220" stroke="#e5e7eb" opacity="0.5"/><line x1="673.82" y1="40" x2="673.82" y2="220" stroke="#e5e7eb" opacity="0.5"/><line x1="753.04" y1="40" x2="753.04" y2="220" stroke="#e5e7eb" opacity="0.5"/><line x1="832.27" y1="40" x2="832.27" y2="220" stroke="#e5e7eb" opacity="0.5"/>
    <line x1="40" y1="220" x2="860" y2="220" stroke="#9ca3af"/>
    <line x1="40" y1="40"   x2="40"   y2="220" stroke="#9ca3af"/>
    <path d="M 40.00 219.82 L 43.96 211.81 L 47.92 211.81 L 51.88 211.81 L 55.85 171.85 L 59.81 171.58 L 63.77 164.38 L 67.73 118.93 L 71.69 119.11 L 75.65 111.10 L 79.61 110.56 L 83.57 110.56 L 87.54 110.56 L 91.50 95.35 L 95.46 95.35 L 99.42 95.35 L 103.38 94.63 L 107.34 94.54 L 111.30 94.45 L 115.27 94.09 L 119.23 94.09 L 123.19 94.09 L 127.15 94.09 L 131.11 94.09 L 135.07 94.09 L 139.03 94.09 L 143.00 94.09 L 146.96 94.09 L 150.92 91.84 L 154.88 83.65 L 158.84 83.65 L 162.80 83.47 L 166.76 83.65 L 170.72 91.03 L 174.69 91.03 L 178.65 91.03 L 182.61 91.03 L 186.57 91.03 L 190.53 91.03 L 194.49 91.03 L 198.45 91.03 L 202.42 91.03 L 206.38 91.03 L 210.34 91.03 L 214.30 90.94 L 218.26 91.03 L 222.22 90.94 L 226.18 90.94 L 230.14 90.94 L 234.11 90.94 L 238.07 90.94 L 242.03 90.94 L 245.99 90.94 L 249.95 90.94 L 253.91 90.94 L 257.87 90.94 L 261.84 90.94 L 265.80 90.94 L 269.76 90.94 L 273.72 90.94 L 277.68 90.94 L 281.64 90.94 L 285.60 90.94 L 289.57 90.94 L 293.53 90.94 L 297.49 90.94 L 301.45 90.94 L 305.41 90.94 L 309.37 90.94 L 313.33 90.94 L 317.29 90.94 L 321.26 123.79 L 325.22 123.79 L 329.18 123.79 L 333.14 123.79 L 337.10 123.79 L 341.06 123.79 L 345.02 123.79 L 348.99 123.79 L 352.95 123.79 L 356.91 123.79 L 360.87 123.79 L 364.83 123.79 L 368.79 123.79 L 372.75 123.79 L 376.71 123.79 L 380.68 123.79 L 384.64 123.79 L 388.60 123.79 L 392.56 123.79 L 396.52 123.79 L 400.48 123.79 L 404.44 123.79 L 408.41 123.79 L 412.37 123.79 L 416.33 123.79 L 420.29 123.79 L 424.25 123.79 L 428.21 123.79 L 432.17 123.79 L 436.14 123.79 L 440.10 123.79 L 444.06 123.79 L 448.02 123.79 L 451.98 123.79 L 455.94 123.79 L 459.90 123.79 L 463.86 123.79 L 467.83 123.79 L 471.79 123.79 L 475.75 123.79 L 479.71 123.79 L 483.67 123.79 L 487.63 123.79 L 491.59 123.79 L 495.56 123.79 L 499.52 123.79 L 503.48 123.79 L 507.44 123.79 L 511.40 123.79 L 515.36 123.79 L 519.32 123.79 L 523.29 123.79 L 527.25 123.79 L 531.21 123.79 L 535.17 123.79 L 539.13 123.79 L 543.09 123.79 L 547.05 123.79 L 551.01 123.79 L 554.98 123.79 L 558.94 123.79 L 562.90 123.79 L 566.86 123.79 L 570.82 123.79 L 574.78 123.79 L 578.74 123.79 L 582.71 123.79 L 586.67 123.79 L 590.63 123.79 L 594.59 123.79 L 598.55 123.79 L 602.51 123.79 L 606.47 123.79 L 610.43 123.79 L 614.40 123.79 L 618.36 123.79 L 622.32 123.79 L 626.28 115.42 L 630.24 111.64 L 634.20 107.86 L 638.16 104.08 L 642.13 100.30 L 646.09 95.98 L 650.05 95.98 L 654.01 95.98 L 657.97 95.98 L 661.93 85.72 L 665.89 85.72 L 669.86 85.72 L 673.82 85.72 L 677.78 85.72 L 681.74 85.72 L 685.70 85.72 L 689.66 85.72 L 693.62 85.72 L 697.58 85.72 L 701.55 85.72 L 705.51 85.72 L 709.47 85.72 L 713.43 85.72 L 717.39 85.72 L 721.35 85.72 L 725.31 85.72 L 729.28 85.72 L 733.24 85.72 L 737.20 85.72 L 741.16 85.72 L 745.12 85.72 L 749.08 85.72 L 753.04 85.72 L 757.00 85.72 L 760.97 85.72 L 764.93 85.72 L 768.89 85.72 L 772.85 85.72 L 776.81 85.72 L 780.77 85.72 L 784.73 85.72 L 788.70 85.72 L 792.66 85.72 L 796.62 85.72 L 800.58 85.72 L 804.54 85.72 L 808.50 85.72 L 812.46 85.72 L 816.43 85.72 L 820.39 85.72 L 824.35 85.72 L 828.31 85.72 L 832.27 85.72 L 836.23 85.72 L 840.19 85.72 L 844.15 85.72 L 848.12 85.72 L 852.08 85.72 L 856.04 85.72 L 860.00 85.72" fill="none" stroke="#111827" stroke-width="2"/>
    <circle cx="860.00" cy="85.72" r="3" fill="#111827"/>
    <text x="40.00" y="235.00" font-size="9" fill="#111827" text-anchor="middle" transform="rotate(-45 40.00 235.00)">09.08.2025</text><text x="119.23" y="235.00" font-size="9" fill="#111827" text-anchor="middle" transform="rotate(-45 119.23 235.00)">14.08.2025</text><text x="198.45" y="235.00" font-size="9" fill="#111827" text-anchor="middle" transform="rotate(-45 198.45 235.00)">26.08.2025</text><text x="277.68" y="235.00" font-size="9" fill="#111827" text-anchor="middle" transform="rotate(-45 277.68 235.00)">10.09.2025</text><text x="356.91" y="235.00" font-size="9" fill="#111827" text-anchor="middle" transform="rotate(-45 356.91 235.00)">28.09.2025</text><text x="436.14" y="235.00" font-size="9" fill="#111827" text-anchor="middle" transform="rotate(-45 436.14 235.00)">18.10.2025</text><text x="515.36" y="235.00" font-size="9" fill="#111827" text-anchor="middle" transform="rotate(-45 515.36 235.00)">07.11.2025</text><text x="594.59" y="235.00" font-size="9" fill="#111827" text-anchor="middle" transform="rotate(-45 594.59 235.00)">27.11.2025</text><text x="673.82" y="235.00" font-size="9" fill="#111827" text-anchor="middle" transform="rotate(-45 673.82 235.00)">10.12.2025</text><text x="753.04" y="235.00" font-size="9" fill="#111827" text-anchor="middle" transform="rotate(-45 753.04 235.00)">30.12.2025</text><text x="832.27" y="235.00" font-size="9" fill="#111827" text-anchor="middle" transform="rotate(-45 832.27 235.00)">19.01.2026</text>
  </g>
</svg>