<svg xmlns="http://www.w3.org/2000/svg" width="900" height="290" style="font-family: -apple-system, BlinkMacSystemFont, 'Segoe UI', Helvetica, Arial, sans-serif;">
  <rect width="100%" height="100%" fill="#0d1117"/>
  <g>
    <line x1="40" y1="220.00" x2="860" y2="220.00" stroke="#30363d"/><text x="32" y="224.00" font-size="10" fill="#c9d1d9" text-anchor="end">0</text><line x1="40" y1="175.00" x2="860" y2="175.00" stroke="#30363d"/><text x="32" y="179.00" font-size="10" fill="#c9d1d9" text-anchor="end">500</text><line x1="40" y1="130.00" x2="860" y2="130.00" stroke="#30363d"/><text x="32" y="134.00" font-size="10" fill="#c9d1d9" text-anchor="end">1k</text><line x1="40" y1="85.00" x2="860" y2="85.00" stroke="#30363d"/><text x="32" y="89.00" font-size="10" fill="#c9d1d9" text-anchor="end">1.5k</text><line x1="40" y1="40.00" x2="860" y2="40.00" stroke="#30363d"/><text x="32" y="44.00" font-size="10" fill="#c9d1d9" text-anchor="end">2k</text>
    <line x1="40.00" y1="40" x2="40.00" y2="220" stroke="#30363d" opacity="0.5"/><line x1="117.36" y1="40" x2="117.36" y2="220" stroke="#30363d" opacity="0.5"/><line x1="194.72" y1="40" x2="194.72" y2="220" stroke="#30363d" opacity="0.5"/><line x1="272.08" y1="40" x2="272.08" y2="220" stroke="#30363d" opacity="0.5"/><line x1="349.43" y1="40" x2="349.43" y2="220" stroke="#30363d" opacity="0.5"/><line x1="426.79" y1="40" x2="426.79" y2="220" stroke="#30363d" opacity="0.5"/><line x1="504.15" y1="40" x2="504.15" y2="220" stroke="#30363d" opacity="0.5"/><line x1="581.51" y1="40" x2="581.51" y2="220" stroke="#30363d" opacity="0.5"/><line x1="658.87" y1="40" x2="658.87" y2="220" stroke="#30363d" opacity="0.5"/><line x1="736.23" y1="40" x2="736.23" y2="220" stroke="#30363d" opacity="0.5"/><line x1="813.58" y1="40" x2="813.58" y2="220" stroke="#30363d" opacity="0.5"/>
    <line x1="40" y1="220" x2="860" y2="220" stroke="#30363d"/>
    <line x1="40" y1="40"   x2="40"   y2="220" stroke="#30363d"/>
    <path d="M 40.00 219.82 L 47.74 211.81 L 55.47 211.81 L 63.21 211.81 L 70.94 171.85 L 78.68 171.58 L 86.42 164.38 L 94.15 118.93 L 101.89 119.11 L 109.62 111.10 L 117.36 110.56 L 125.09 110.56 L 132.83 110.56 L 140.57 95.35 L 148.30 95.35 L 156.04 95.35 L 163.77 94.63 L 171.51 94.54 L 179.25 94.45 L 186.98 94.09 L 194.72 94.09 L 202.45 94.09 L 210.19 94.09 L 217.92 94.09 L 225.66 94.09 L 233.40 94.09 L 241.13 94.09 L 248.87 94.09 L 256.60 91.84 L 264.34 83.65 L 272.08 83.65 L 279.81 83.47 L 287.55 83.65 L 295.28 91.03 L 303.02 91.03 L 310.75 91.03 L 318.49 91.03 L 326.23 91.03 L 333.96 91.03 L 341.70 91.03 L 349.43 91.03 L 357.17 91.03 L 364.91 91.03 L 372.64 91.03 L 380.38 90.94 L 388.11 91.03 L 395.85 90.94 L 403.58 90.94 L 411.32 90.94 L 419.06 90.94 L 426.79 90.94 L 434.53 90.94 L 442.26 90.94 L 450.00 90.94 L 457.74 90.94 L 465.47 90.94 L 473.21 90.94 L 480.94 90.94 L 488.68 90.94 L 496.42 90.94 L 504.15 90.94 L 511.89 90.94 L 519.62 90.94 L 527.36 90.94 L 535.09 90.94 L 542.83 90.94 L 550.57 90.94 L 558.30 90.94 L 566.04 90.94 L 573.77 90.94 L 581.51 90.94 L 589.25 123.79 L 596.98 123.79 L 604.72 123.79 L 612.45 123.79 L 620.19 123.79 L 627.92 123.79 L 635.66 123.79 L 643.40 123.79 L 651.13 123.79 L 658.87 123.79 L 666.60 123.79 L 674.34 123.79 L 682.08 123.79 L 689.81 123.79 L 697.55 123.79 L 705.28 123.79 L 713.02 123.79 L 720.75 123.79 L 728.49 123.79 L 736.23 123.79 L 743.96 123.79 L 751.70 123.79 L 759.43 123.79 L 767.17 123.79 L 774.91 123.79 L 782.64 123.79 L 790.38 123.79 L 798.11 123.79 L 805.85 123.79 L 813.58 123.79 L 821.32 123.79 L 829.06 123.79 L 836.79 123.79 L 844.53 123.79 L 852.26 123.79 L 860.00 123.79" fill="none" stroke="#3fb950" stroke-width="2"/>
    <circle cx="860.00" cy="123.79" r="3" fill="#3fb950"/>
    <text x="40.00" y="235.00" font-size="9" fill="#c9d1d9" text-anchor="middle" transform="rotate(-45 40.00 235.00)">09.08.2025</text><text x="117.36" y="235.00" font-size="9" fill="#c9d1d9" text-anchor="middle" transform="rotate(-45 117.36 235.00)">13.08.2025</text><text x="194.72" y="235.00" font-size="9" fill="#c9d1d9" text-anchor="middle" transform="rotate(-45 194.72 235.00)">14.08.2025</text><text x="272.08" y="235.00" font-size="9" fill="#c9d1d9" text-anchor="middle" transform="rotate(-45 272.08 235.00)">21.08.2025</text><text x="349.43" y="235.00" font-size="9" fill="#c9d1d9" text-anchor="middle" transform="rotate(-45 349.43 235.00)">26.08.2025</text><text x="426.79" y="235.00" font-size="9" fill="#c9d1d9" text-anchor="middle" transform="rotate(-45 426.79 235.00)">31.08.2025</text><text x="504.15" y="235.00" font-size="9" fill="#c9d1d9" text-anchor="middle" transform="rotate(-45 504.15 235.00)">10.09.2025</text><text x="581.51" y="235.00" font-size="9" fill="#c9d1d9" text-anchor="middle" transform="rotate(-45 581.51 235.00)">20.09.2025</text><text x="658.87" y="235.00" font-size="9" fill="#c9d1d9" text-anchor="middle" transform="rotate(-45 658.87 235.00)">28.09.2025</text><text x="736.23" y="235.00" font-size="9" fill="#c9d1d9" text-anchor="middle" transform="rotate(-45 736.23 235.00)">08.10.2025</text><text x="813.58" y="235.00" font-size="9" fill="#c9d1d9" text-anchor="middle" transform="rotate(-45 813.58 235.00)">18.10.2025</text>
  </g>
</svg>