<svg xmlns="http://www.w3.org/2000/svg" width="900" height="290" style="font-family: -apple-system, BlinkMacSystemFont, 'Segoe UI', Helvetica, Arial, sans-serif;">
  <rect width="100%" height="100%" fill="#0d1117"/>
  <g>
    <line x1="40" y1="220.00" x2="860" y2="220.00" stroke="#30363d"/><text x="32" y="224.00" font-size="10" fill="#c9d1d9" text-anchor="end">0</text><line x1="40" y1="175.00" x2="860" y2="175.00" stroke="#30363d"/><text x="32" y="179.00" font-size="10" fill="#c9d1d9" text-anchor="end">500</text><line x1="40" y1="130.00" x2="860" y2="130.00" stroke="#30363d"/><text x="32" y="134.00" font-size="10" fill="#c9d1d9" text-anchor="end">1k</text><line x1="40" y1="85.00" x2="860" y2="85.00" stroke="#30363d"/><text x="32" y="89.00" font-size="10" fill="#c9d1d9" text-anchor="end">1.5k</text><line x1="40" y1="40.00" x2="860" y2="40.00" stroke="#30363d"/><text x="32" y="44.00" font-size="10" fill="#c9d1d9" text-anchor="end">2k</text>
    <line x1="40.00" y1="40" x2="40.00" y2="220" stroke="#30363d" opacity="0.5"/><line x1="121.32" y1="40" x2="121.32" y2="220" stroke="#30363d" opacity="0.5"/><line x1="202.64" y1="40" x2="202.64" y2="220" stroke="#30363d" opacity="0.5"/><line x1="283.97" y1="40" x2="283.97" y2="220" stroke="#30363d" opacity="0.5"/><line x1="365.29" y1="40" x2="365.29" y2="220" stroke="#30363d" opacity="0.5"/><line x1="446.61" y1="40" x2="446.61" y2="220" stroke="#30363d" opacity="0.5"/><line x1="527.93" y1="40" x2="527.93" y2="220" stroke="#30363d" opacity="0.5"/><line x1="609.26" y1="40" x2="609.26" y2="220" stroke="#30363d" opacity="0.5"/><line x1="690.58" y1="40" x2="690.58" y2="220" stroke="#30363d" opacity="0.5"/><line x1="771.90" y1="40" x2="771.90" y2="220" stroke="#30363d" opacity="0.5"/><line x1="853.22" y1="40" x2="853.22" y2="220" stroke="#30363d" opacity="0.5"/>
    <line x1="40" y1="220" x2="860" y2="220" stroke="#30363d"/>
    <line x1="40" y1="40"   x2="40"   y2="220" stroke="#30363d"/>
    <path d="M 40.00 219.82 L 46.78 211.81 L 53.55 211.81 L 60.33 211.81 L 67.11 171.85 L 73.88 171.58 L 80.66 164.38 L 87.44 118.93 L 94.21 119.11 L 100.99 111.10 L 107.77 110.56 L 114.55 110.56 L 121.32 110.56 L 128.10 95.35 L 134.88 95.35 L 141.65 95.35 L 148.43 94.63 L 155.21 94.54 L 161.98 94.45 L 168.76 94.09 L 175.54 94.09 L 182.31 94.09 L 189.09 94.09 L 195.87 94.09 L 202.64 94.09 L 209.42 94.09 L 216.20 94.09 L 222.98 94.09 L 229.75 91.84 L 236.53 83.65 L 243.31 83.65 L 250.08 83.47 L 256.86 83.65 L 263.64 91.03 L 270.41 91.03 L 277.19 91.03 L 283.97 91.03 L 290.74 91.03 L 297.52 91.03 L 304.30 91.03 L 311.07 91.03 L 317.85 91.03 L 324.63 91.03 L 331.40 91.03 L 338.18 90.94 L 344.96 91.03 L 351.74 90.94 L 358.51 90.94 L 365.29 90.94 L 372.07 90.94 L 378.84 90.94 L 385.62 90.94 L 392.40 90.94 L 399.17 90.94 L 405.95 90.94 L 412.73 90.94 L 419.50 90.94 L 426.28 90.94 L 433.06 90.94 L 439.83 90.94 L 446.61 90.94 L 453.39 90.94 L 460.17 90.94 L 466.94 90.94 L 473.72 90.94 L 480.50 90.94 L 487.27 90.94 L 494.05 90.94 L 500.83 90.94 L 507.60 90.94 L 514.38 90.94 L 521.16 123.79 L 527.93 123.79 L 534.71 123.79 L 541.49 123.79 L 548.26 123.79 L 555.04 123.79 L 561.82 123.79 L 568.60 123.79 L 575.37 123.79 L 582.15 123.79 L 588.93 123.79 L 595.70 123.79 L 602.48 123.79 L 609.26 123.79 L 616.03 123.79 L 622.81 123.79 L 629.59 123.79 L 636.36 123.79 L 643.14 123.79 L 649.92 123.79 L 656.69 123.79 L 663.47 123.79 L 670.25 123.79 L 677.02 123.79 L 683.80 123.79 L 690.58 123.79 L 697.36 123.79 L 704.13 123.79 L 710.91 123.79 L 717.69 123.79 L 724.46 123.79 L 731.24 123.79 L 738.02 123.79 L 744.79 123.79 L 751.57 123.79 L 758.35 123.79 L 765.12 123.79 L 771.90 123.79 L 778.68 123.79 L 785.45 123.79 L 792.23 123.79 L 799.01 123.79 L 805.79 123.79 L 812.56 123.79 L 819.34 123.79 L 826.12 123.79 L 832.89 123.79 L 839.67 123.79 L 846.45 123.79 L 853.22 123.79 L 860.00 123.79" fill="none" stroke="#3fb950" stroke-width="2"/>
    <circle cx="860.00" cy="123.79" r="3" fill="#3fb950"/>
    <text x="40.00" y="235.00" font-size="9" fill="#c9d1d9" text-anchor="middle" transform="rotate(-45 40.00 235.00)">09.08.2025</text><text x="121.32" y="235.00" font-size="9" fill="#c9d1d9" text-anchor="middle" transform="rotate(-45 121.32 235.00)">13.08.2025</text><text x="202.64" y="235.00" font-size="9" fill="#c9d1d9" text-anchor="middle" transform="rotate(-45 202.64 235.00)">18.08.2025</text><text x="283.97" y="235.00" font-size="9" fill="#c9d1d9" text-anchor="middle" transform="rotate(-45 283.97 235.00)">22.08.2025</text><text x="365.29" y="235.00" font-size="9" fill="#c9d1d9" text-anchor="middle" transform="rotate(-45 365.29 235.00)">29.08.2025</text><text x="446.61" y="235.00" font-size="9" fill="#c9d1d9" text-anchor="middle" transform="rotate(-45 446.61 235.00)">10.09.2025</text><text x="527.93" y="235.00" font-size="9" fill="#c9d1d9" text-anchor="middle" transform="rotate(-45 527.93 235.00)">21.09.2025</text><text x="609.26" y="235.00" font-size="9" fill="#c9d1d9" text-anchor="middle" transform="rotate(-45 609.26 235.00)">02.10.2025</text><text x="690.58" y="235.00" font-size="9" fill="#c9d1d9" text-anchor="middle" transform="rotate(-45 690.58 235.00)">14.10.2025</text><text x="771.90" y="235.00" font-size="9" fill="#c9d1d9" text-anchor="middle" transform="rotate(-45 771.90 235.00)">26.10.2025</text><text x="853.22" y="235.00" font-size="9" fill="#c9d1d9" text-anchor="middle" transform="rotate(-45 853.22 235.00)">07.11.2025</text>
  </g>
</svg>