<svg xmlns="http://www.w3.org/2000/svg" width="900" height="290" style="font-family: -apple-system, BlinkMacSystemFont, 'Segoe UI', Helvetica, Arial, sans-serif;">
  <rect width="100%" height="100%" fill="#0d1117"/>
  <g>
    <line x1="40" y1="220.00" x2="860" y2="220.00" stroke="#30363d"/><text x="32" y="224.00" font-size="10" fill="#c9d1d9" text-anchor="end">0</text><line x1="40" y1="175.00" x2="860" y2="175.00" stroke="#30363d"/><text x="32" y="179.00" font-size="10" fill="#c9d1d9" text-anchor="end">500</text><line x1="40" y1="130.00" x2="860" y2="130.00" stroke="#30363d"/><text x="32" y="134.00" font-size="10" fill="#c9d1d9" text-anchor="end">1k</text><line x1="40" y1="85.00" x2="860" y2="85.00" stroke="#30363d"/><text x="32" y="89.00" font-size="10" fill="#c9d1d9" text-anchor="end">1.5k</text><line x1="40" y1="40.00" x2="860" y2="40.00" stroke="#30363d"/><text x="32" y="44.00" font-size="10" fill="#c9d1d9" text-anchor="end">2k</text>
    <line x1="40.00" y1="40" x2="40.00" y2="220" stroke="#30363d" opacity="0.5"/><line x1="120.85" y1="40" x2="120.85" y2="220" stroke="#30363d" opacity="0.5"/><line x1="201.69" y1="40" x2="201.69" y2="220" stroke="#30363d" opacity="0.5"/><line x1="282.54" y1="40" x2="282.54" y2="220" stroke="#30363d" opacity="0.5"/><line x1="363.38" y1="40" x2="363.38" y2="220" stroke="#30363d" opacity="0.5"/><line x1="444.23" y1="40" x2="444.23" y2="220" stroke="#30363d" opacity="0.5"/><line x1="525.07" y1="40" x2="525.07" y2="220" stroke="#30363d" opacity="0.5"/><line x1="605.92" y1="40" x2="605.92" y2="220" stroke="#30363d" opacity="0.5"/><line x1="686.76" y1="40" x2="686.76" y2="220" stroke="#30363d" opacity="0.5"/><line x1="767.61" y1="40" x2="767.61" y2="220" stroke="#30363d" opacity="0.5"/><line x1="848.45" y1="40" x2="848.45" y2="220" stroke="#30363d" opacity="0.5"/>
    <line x1="40" y1="220" x2="860" y2="220" stroke="#30363d"/>
    <line x1="40" y1="40"   x2="40"   y2="220" stroke="#30363d"/>
    <path d="M 40.00 219.82 L 43.85 211.81 L 47.70 211.81 L 51.55 211.81 L 55.40 171.85 L 59.25 171.58 L 63.10 164.38 L 66.95 118.93 L 70.80 119.11 L 74.65 111.10 L 78.50 110.56 L 82.35 110.56 L 86.20 110.56 L 90.05 95.35 L 93.90 95.35 L 97.75 95.35 L 101.60 94.63 L 105.45 94.54 L 109.30 94.45 L 113.15 94.09 L 117.00 94.09 L 120.85 94.09 L 124.69 94.09 L 128.54 94.09 L 132.39 94.09 L 136.24 94.09 L 140.09 94.09 L 143.94 94.09 L 147.79 91.84 L 151.64 83.65 L 155.49 83.65 L 159.34 83.47 L 163.19 83.65 L 167.04 91.03 L 170.89 91.03 L 174.74 91.03 L 178.59 91.03 L 182.44 91.03 L 186.29 91.03 L 190.14 91.03 L 193.99 91.03 L 197.84 91.03 L 201.69 91.03 L 205.54 91.03 L 209.39 90.94 L 213.24 91.03 L 217.09 90.94 L 220.94 90.94 L 224.79 90.94 L 228.64 90.94 L 232.49 90.94 L 236.34 90.94 L 240.19 90.94 L 244.04 90.94 L 247.89 90.94 L 251.74 90.94 L 255.59 90.94 L 259.44 90.94 L 263.29 90.94 L 267.14 90.94 L 270.99 90.94 L 274.84 90.94 L 278.69 90.94 L 282.54 90.94 L 286.38 90.94 L 290.23 90.94 L 294.08 90.94 L 297.93 90.94 L 301.78 90.94 L 305.63 90.94 L 309.48 90.94 L 313.33 123.79 L 317.18 123.79 L 321.03 123.79 L 324.88 123.79 L 328.73 123.79 L 332.58 123.79 L 336.43 123.79 L 340.28 123.79 L 344.13 123.79 L 347.98 123.79 L 351.83 123.79 L 355.68 123.79 L 359.53 123.79 L 363.38 123.79 L 367.23 123.79 L 371.08 123.79 L 374.93 123.79 L 378.78 123.79 L 382.63 123.79 L 386.48 123.79 L 390.33 123.79 L 394.18 123.79 L 398.03 123.79 L 401.88 123.79 L 405.73 123.79 L 409.58 123.79 L 413.43 123.79 L 417.28 123.79 L 421.13 123.79 L 424.98 123.79 L 428.83 123.79 L 432.68 123.79 L 436.53 123.79 L 440.38 123.79 L 444.23 123.79 L 448.08 123.79 L 451.92 123.79 L 455.77 123.79 L 459.62 123.79 L 463.47 123.79 L 467.32 123.79 L 471.17 123.79 L 475.02 123.79 L 478.87 123.79 L 482.72 123.79 L 486.57 123.79 L 490.42 123.79 L 494.27 123.79 L 498.12 123.79 L 501.97 123.79 L 505.82 123.79 L 509.67 123.79 L 513.52 123.79 L 517.37 123.79 L 521.22 123.79 L 525.07 123.79 L 528.92 123.79 L 532.77 123.79 L 536.62 123.79 L 540.47 123.79 L 544.32 123.79 L 548.17 123.79 L 552.02 123.79 L 555.87 123.79 L 559.72 123.79 L 563.57 123.79 L 567.42 123.79 L 571.27 123.79 L 575.12 123.79 L 578.97 123.79 L 582.82 123.79 L 586.67 123.79 L 590.52 123.79 L 594.37 123.79 L 598.22 123.79 L 602.07 123.79 L 605.92 123.79 L 609.77 115.42 L 613.62 111.64 L 617.46 107.86 L 621.31 104.08 L 625.16 100.30 L 629.01 95.98 L 632.86 95.98 L 636.71 95.98 L 640.56 95.98 L 644.41 85.72 L 648.26 85.72 L 652.11 85.72 L 655.96 85.72 L 659.81 85.72 L 663.66 85.72 L 667.51 85.72 L 671.36 85.72 L 675.21 85.72 L 679.06 85.72 L 682.91 85.72 L 686.76 85.72 L 690.61 85.72 L 694.46 85.72 L 698.31 85.72 L 702.16 85.72 L 706.01 85.72 L 709.86 85.72 L 713.71 85.72 L 717.56 85.72 L 721.41 85.72 L 725.26 85.72 L 729.11 85.72 L 732.96 85.72 L 736.81 85.72 L 740.66 85.72 L 744.51 85.72 L 748.36 85.72 L 752.21 85.72 L 756.06 85.72 L 759.91 85.72 L 763.76 85.72 L 767.61 85.72 L 771.46 85.72 L 775.31 85.72 L 779.15 85.72 L 783.00 85.72 L 786.85 85.72 L 790.70 85.72 L 794.55 85.72 L 798.40 85.72 L 802.25 85.72 L 806.10 85.72 L 809.95 85.72 L 813.80 85.72 L 817.65 85.72 L 821.50 85.72 L 825.35 85.72 L 829.20 85.72 L 833.05 85.72 L 836.90 85.72 L 840.75 85.72 L 844.60 85.72 L 848.45 85.72 L 852.30 85.72 L 856.15 85.72 L 860.00 85.72" fill="none" stroke="#3fb950" stroke-width="2"/>
    <circle cx="860.00" cy="85.72" r="3" fill="#3fb950"/>
    <text x="40.00" y="235.00" font-size="9" fill="#c9d1d9" text-anchor="middle" transform="rotate(-45 40.00 235.00)">09.08.2025</text><text x="120.85" y="235.00" font-size="9" fill="#c9d1d9" text-anchor="middle" transform="rotate(-45 120.85 235.00)">15.08.2025</text><text x="201.69" y="235.00" font-size="9" fill="#c9d1d9" text-anchor="middle" transform="rotate(-45 201.69 235.00)">28.08.2025</text><text x="282.54" y="235.00" font-size="9" fill="#c9d1d9" text-anchor="middle" transform="rotate(-45 282.54 235.00)">13.09.2025</text><text x="363.38" y="235.00" font-size="9" fill="#c9d1d9" text-anchor="middle" transform="rotate(-45 363.38 235.00)">02.10.2025</text><text x="444.23" y="235.00" font-size="9" fill="#c9d1d9" text-anchor="middle" transform="rotate(-45 444.23 235.00)">23.10.2025</text><text x="525.07" y="235.00" font-size="9" fill="#c9d1d9" text-anchor="middle" transform="rotate(-45 525.07 235.00)">13.11.2025</text><text x="605.92" y="235.00" font-size="9" fill="#c9d1d9" text-anchor="middle" transform="rotate(-45 605.92 235.00)">04.12.2025</text><text x="686.76" y="235.00" font-size="9" fill="#c9d1d9" text-anchor="middle" transform="rotate(-45 686.76 235.00)">18.12.2025</text><text x="767.61" y="235.00" font-size="9" fill="#c9d1d9" text-anchor="middle" transform="rotate(-45 767.61 235.00)">08.01.2026</text><text x="848.45" y="235.00" font-size="9" fill="#c9d1d9" text-anchor="middle" transform="rotate(-45 848.45 235.00)">29.01.2026</text>
  </g>
</svg>