<svg xmlns="http://www.w3.org/2000/svg" width="900" height="290" style="font-family: -apple-system, BlinkMacSystemFont, 'Segoe UI', Helvetica, Arial, sans-serif;">
  <rect width="100%" height="100%" fill="white"/>
  <g>
    <line x1="40" y1="220.00" x2="860" y2="220.00" stroke="#e5e7eb"/><text x="32" y="224.00" font-size="10" fill="#111827" text-anchor="end">0</text><line x1="40" y1="175.00" x2="860" y2="175.00" stroke="#e5e7eb"/><text x="32" y="179.00" font-size="10" fill="#111827" text-anchor="end">500</text><line x1="40" y1="130.00" x2="860" y2="130.00" stroke="#e5e7eb"/><text x="32" y="134.00" font-size="10" fill="#111827" text-anchor="end">1k</text><line x1="40" y1="85.00" x2="860" y2="85.00" stroke="#e5e7eb"/><text x="32" y="89.00" font-size="10" fill="#111827" text-anchor="end">1.5k</text><line x1="40" y1="40.00" x2="860" y2="40.00" stroke="#e5e7eb"/><text x="32" y="44.00" font-size="10" fill="#111827" text-anchor="end">2k</text>
    <line x1="40.00" y1="40" x2="40.00" y2="220" stroke="#e5e7eb" opacity="0.5"/><line x1="122.00" y1="40" x2="122.00" y2="220" stroke="#e5e7eb" opacity="0.5"/><line x1="204.00" y1="40" x2="204.00" y2="220" stroke="#e5e7eb" opacity="0.5"/><line x1="286.00" y1="40" x2="286.00" y2="220" stroke="#e5e7eb" opacity="0.5"/><line x1="368.00" y1="40" x2="368.00" y2="220" stroke="#e5e7eb" opacity="0.5"/><line x1="450.00" y1="40" x2="450.00" y2="220" stroke="#e5e7eb" opacity="0.5"/><line x1="532.00" y1="40" x2="532.00" y2="220" stroke="#e5e7eb" opacity="0.5"/><line x1="614.00" y1="40" x2="614.00" y2="220" stroke="#e5e7eb" opacity="0.5"/><line x1="696.00" y1="40" x2="696.00" y2="220" stroke="#e5e7eb" opacity="0.5"/><line x1="778.00" y1="40" x2="778.00" y2="220" stroke="#e5e7eb" opacity="0.5"/><line x1="860.00" y1="40" x2="860.00" y2="220" stroke="#e5e7eb" opacity="0.5"/>
    <line x1="40" y1="220" x2="860" y2="220" stroke="#9ca3af"/>
    <line x1="40" y1="40"   x2="40"   y2="220" stroke="#9ca3af"/>
    <path d="M 40.00 219.82 L 43.90 211.81 L 47.81 211.81 L 51.71 211.81 L 55.62 171.85 L 59.52 171.58 L 63.43 164.38 L 67.33 118.93 L 71.24 119.11 L 75.14 111.10 L 79.05 110.56 L 82.95 110.56 L 86.86 110.56 L 90.76 95.35 L 94.67 95.35 L 98.57 95.35 L 102.48 94.63 L 106.38 94.54 L 110.29 94.45 L 114.19 94.09 L 118.10 94.09 L 122.00 94.09 L 125.90 94.09 L 129.81 94.09 L 133.71 94.09 L 137.62 94.09 L 141.52 94.09 L 145.43 94.09 L 149.33 91.84 L 153.24 83.65 L 157.14 83.65 L 161.05 83.47 L 164.95 83.65 L 168.86 91.03 L 172.76 91.03 L 176.67 91.03 L 180.57 91.03 L 184.48 91.03 L 188.38 91.03 L 192.29 91.03 L 196.19 91.03 L 200.10 91.03 L 204.00 91.03 L 207.90 91.03 L 211.81 90.94 L 215.71 91.03 L 219.62 90.94 L 223.52 90.94 L 227.43 90.94 L 231.33 90.94 L 235.24 90.94 L 239.14 90.94 L 243.05 90.94 L 246.95 90.94 L 250.86 90.94 L 254.76 90.94 L 258.67 90.94 L 262.57 90.94 L 266.48 90.94 L 270.38 90.94 L 274.29 90.94 L 278.19 90.94 L 282.10 90.94 L 286.00 90.94 L 289.90 90.94 L 293.81 90.94 L 297.71 90.94 L 301.62 90.94 L 305.52 90.94 L 309.43 90.94 L 313.33 90.94 L 317.24 123.79 L 321.14 123.79 L 325.05 123.79 L 328.95 123.79 L 332.86 123.79 L 336.76 123.79 L 340.67 123.79 L 344.57 123.79 L 348.48 123.79 L 352.38 123.79 L 356.29 123.79 L 360.19 123.79 L 364.10 123.79 L 368.00 123.79 L 371.90 123.79 L 375.81 123.79 L 379.71 123.79 L 383.62 123.79 L 387.52 123.79 L 391.43 123.79 L 395.33 123.79 L 399.24 123.79 L 403.14 123.79 L 407.05 123.79 L 410.95 123.79 L 414.86 123.79 L 418.76 123.79 L 422.67 123.79 L 426.57 123.79 L 430.48 123.79 L 434.38 123.79 L 438.29 123.79 L 442.19 123.79 L 446.10 123.79 L 450.00 123.79 L 453.90 123.79 L 457.81 123.79 L 461.71 123.79 L 465.62 123.79 L 469.52 123.79 L 473.43 123.79 L 477.33 123.79 L 481.24 123.79 L 485.14 123.79 L 489.05 123.79 L 492.95 123.79 L 496.86 123.79 L 500.76 123.79 L 504.67 123.79 L 508.57 123.79 L 512.48 123.79 L 516.38 123.79 L 520.29 123.79 L 524.19 123.79 L 528.10 123.79 L 532.00 123.79 L 535.90 123.79 L 539.81 123.79 L 543.71 123.79 L 547.62 123.79 L 551.52 123.79 L 555.43 123.79 L 559.33 123.79 L 563.24 123.79 L 567.14 123.79 L 571.05 123.79 L 574.95 123.79 L 578.86 123.79 L 582.76 123.79 L 586.67 123.79 L 590.57 123.79 L 594.48 123.79 L 598.38 123.79 L 602.29 123.79 L 606.19 123.79 L 610.10 123.79 L 614.00 123.79 L 617.90 115.42 L 621.81 111.64 L 625.71 107.86 L 629.62 104.08 L 633.52 100.30 L 637.43 95.98 L 641.33 95.98 L 645.24 95.98 L 649.14 95.98 L 653.05 85.72 L 656.95 85.72 L 660.86 85.72 L 664.76 85.72 L 668.67 85.72 L 672.57 85.72 L 676.48 85.72 L 680.38 85.72 L 684.29 85.72 L 688.19 85.72 L 692.10 85.72 L 696.00 85.72 L 699.90 85.72 L 703.81 85.72 L 707.71 85.72 L 711.62 85.72 L 715.52 85.72 L 719.43 85.72 L 723.33 85.72 L 727.24 85.72 L 731.14 85.72 L 735.05 85.72 L 738.95 85.72 L 742.86 85.72 L 746.76 85.72 L 750.67 85.72 L 754.57 85.72 L 758.48 85.72 L 762.38 85.72 L 766.29 85.72 L 770.19 85.72 L 774.10 85.72 L 778.00 85.72 L 781.90 85.72 L 785.81 85.72 L 789.71 85.72 L 793.62 85.72 L 797.52 85.72 L 801.43 85.72 L 805.33 85.72 L 809.24 85.72 L 813.14 85.72 L 817.05 85.72 L 820.95 85.72 L 824.86 85.72 L 828.76 85.72 L 832.67 85.72 L 836.57 85.72 L 840.48 85.72 L 844.38 85.72 L 848.29 85.72 L 852.19 85.72 L 856.10 85.72 L 860.00 85.72" fill="none" stroke="#111827" stroke-width="2"/>
    <circle cx="860.00" cy="85.72" r="3" fill="#111827"/>
    <text x="40.00" y="235.00" font-size="9" fill="#111827" text-anchor="middle" transform="rotate(-45 40.00 235.00)">09.08.2025</text><text x="122.00" y="235.00" font-size="9" fill="#111827" text-anchor="middle" transform="rotate(-45 122.00 235.00)">15.08.2025</text><text x="204.00" y="235.00" font-size="9" fill="#111827" text-anchor="middle" transform="rotate(-45 204.00 235.00)">28.08.2025</text><text x="286.00" y="235.00" font-size="9" fill="#111827" text-anchor="middle" transform="rotate(-45 286.00 235.00)">13.09.2025</text><text x="368.00" y="235.00" font-size="9" fill="#111827" text-anchor="middle" transform="rotate(-45 368.00 235.00)">02.10.2025</text><text x="450.00" y="235.00" font-size="9" fill="#111827" text-anchor="middle" transform="rotate(-45 450.00 235.00)">23.10.2025</text><text x="532.00" y="235.00" font-size="9" fill="#111827" text-anchor="middle" transform="rotate(-45 532.00 235.00)">13.11.2025</text><text x="614.00" y="235.00" font-size="9" fill="#111827" text-anchor="middle" transform="rotate(-45 614.00 235.00)">04.12.2025</text><text x="696.00" y="235.00" font-size="9" fill="#111827" text-anchor="middle" transform="rotate(-45 696.00 235.00)">18.12.2025</text><text x="778.00" y="235.00" font-size="9" fill="#111827" text-anchor="middle" transform="rotate(-45 778.00 235.00)">08.01.2026</text><text x="860.00" y="235.00" font-size="9" fill="#111827" text-anchor="middle" transform="rotate(-45 860.00 235.00)">29.01.2026</text>
  </g>
</svg>