<svg xmlns="http://www.w3.org/2000/svg" width="900" height="290" style="font-family: -apple-system, BlinkMacSystemFont, 'Segoe UI', Helvetica, Arial, sans-serif;">
  <rect width="100%" height="100%" fill="white"/>
  <g>
    <line x1="40" y1="220.00" x2="860" y2="220.00" stroke="#e5e7eb"/><text x="32" y="224.00" font-size="10" fill="#111827" text-anchor="end">0</text><line x1="40" y1="175.00" x2="860" y2="175.00" stroke="#e5e7eb"/><text x="32" y="179.00" font-size="10" fill="#111827" text-anchor="end">500</text><line x1="40" y1="130.00" x2="860" y2="130.00" stroke="#e5e7eb"/><text x="32" y="134.00" font-size="10" fill="#111827" text-anchor="end">1k</text><line x1="40" y1="85.00" x2="860" y2="85.00" stroke="#e5e7eb"/><text x="32" y="89.00" font-size="10" fill="#111827" text-anchor="end">1.5k</text><line x1="40" y1="40.00" x2="860" y2="40.00" stroke="#e5e7eb"/><text x="32" y="44.00" font-size="10" fill="#111827" text-anchor="end">2k</text>
    <line x1="40.00" y1="40" x2="40.00" y2="220" stroke="#e5e7eb" opacity="0.5"/><line x1="120.39" y1="40" x2="120.39" y2="220" stroke="#e5e7eb" opacity="0.5"/><line x1="200.78" y1="40" x2="200.78" y2="220" stroke="#e5e7eb" opacity="0.5"/><line x1="281.18" y1="40" x2="281.18" y2="220" stroke="#e5e7eb" opacity="0.5"/><line x1="361.57" y1="40" x2="361.57" y2="220" stroke="#e5e7eb" opacity="0.5"/><line x1="441.96" y1="40" x2="441.96" y2="220" stroke="#e5e7eb" opacity="0.5"/><line x1="522.35" y1="40" x2="522.35" y2="220" stroke="#e5e7eb" opacity="0.5"/><line x1="602.75" y1="40" x2="602.75" y2="220" stroke="#e5e7eb" opacity="0.5"/><line x1="683.14" y1="40" x2="683.14" y2="220" stroke="#e5e7eb" opacity="0.5"/><line x1="763.53" y1="40" x2="763.53" y2="220" stroke="#e5e7eb" opacity="0.5"/><line x1="843.92" y1="40" x2="843.92" y2="220" stroke="#e5e7eb" opacity="0.5"/>
    <line x1="40" y1="220" x2="860" y2="220" stroke="#9ca3af"/>
    <line x1="40" y1="40"   x2="40"   y2="220" stroke="#9ca3af"/>
    <path d="M 40.00 219.82 L 45.36 211.81 L 50.72 211.81 L 56.08 211.81 L 61.44 171.85 L 66.80 171.58 L 72.16 164.38 L 77.52 118.93 L 82.88 119.11 L 88.24 111.10 L 93.59 110.56 L 98.95 110.56 L 104.31 110.56 L 109.67 95.35 L 115.03 95.35 L 120.39 95.35 L 125.75 94.63 L 131.11 94.54 L 136.47 94.45 L 141.83 94.09 L 147.19 94.09 L 152.55 94.09 L 157.91 94.09 L 163.27 94.09 L 168.63 94.09 L 173.99 94.09 L 179.35 94.09 L 184.71 94.09 L 190.07 91.84 L 195.42 83.65 L 200.78 83.65 L 206.14 83.47 L 211.50 83.65 L 216.86 91.03 L 222.22 91.03 L 227.58 91.03 L 232.94 91.03 L 238.30 91.03 L 243.66 91.03 L 249.02 91.03 L 254.38 91.03 L 259.74 91.03 L 265.10 91.03 L 270.46 91.03 L 275.82 90.94 L 281.18 91.03 L 286.54 90.94 L 291.90 90.94 L 297.25 90.94 L 302.61 90.94 L 307.97 90.94 L 313.33 90.94 L 318.69 90.94 L 324.05 90.94 L 329.41 90.94 L 334.77 90.94 L 340.13 90.94 L 345.49 90.94 L 350.85 90.94 L 356.21 90.94 L 361.57 90.94 L 366.93 90.94 L 372.29 90.94 L 377.65 90.94 L 383.01 90.94 L 388.37 90.94 L 393.73 90.94 L 399.08 90.94 L 404.44 90.94 L 409.80 90.94 L 415.16 90.94 L 420.52 123.79 L 425.88 123.79 L 431.24 123.79 L 436.60 123.79 L 441.96 123.79 L 447.32 123.79 L 452.68 123.79 L 458.04 123.79 L 463.40 123.79 L 468.76 123.79 L 474.12 123.79 L 479.48 123.79 L 484.84 123.79 L 490.20 123.79 L 495.56 123.79 L 500.92 123.79 L 506.27 123.79 L 511.63 123.79 L 516.99 123.79 L 522.35 123.79 L 527.71 123.79 L 533.07 123.79 L 538.43 123.79 L 543.79 123.79 L 549.15 123.79 L 554.51 123.79 L 559.87 123.79 L 565.23 123.79 L 570.59 123.79 L 575.95 123.79 L 581.31 123.79 L 586.67 123.79 L 592.03 123.79 L 597.39 123.79 L 602.75 123.79 L 608.10 123.79 L 613.46 123.79 L 618.82 123.79 L 624.18 123.79 L 629.54 123.79 L 634.90 123.79 L 640.26 123.79 L 645.62 123.79 L 650.98 123.79 L 656.34 123.79 L 661.70 123.79 L 667.06 123.79 L 672.42 123.79 L 677.78 123.79 L 683.14 123.79 L 688.50 123.79 L 693.86 123.79 L 699.22 123.79 L 704.58 123.79 L 709.93 123.79 L 715.29 123.79 L 720.65 123.79 L 726.01 123.79 L 731.37 123.79 L 736.73 123.79 L 742.09 123.79 L 747.45 123.79 L 752.81 123.79 L 758.17 123.79 L 763.53 123.79 L 768.89 123.79 L 774.25 123.79 L 779.61 123.79 L 784.97 123.79 L 790.33 123.79 L 795.69 123.79 L 801.05 123.79 L 806.41 123.79 L 811.76 123.79 L 817.12 123.79 L 822.48 123.79 L 827.84 123.79 L 833.20 115.42 L 838.56 111.64 L 843.92 107.86 L 849.28 104.08 L 854.64 100.30 L 860.00 95.98" fill="none" stroke="#111827" stroke-width="2"/>
    <circle cx="860.00" cy="95.98" r="3" fill="#111827"/>
    <text x="40.00" y="235.00" font-size="9" fill="#111827" text-anchor="middle" transform="rotate(-45 40.00 235.00)">09.08.2025</text><text x="120.39" y="235.00" font-size="9" fill="#111827" text-anchor="middle" transform="rotate(-45 120.39 235.00)">13.08.2025</text><text x="200.78" y="235.00" font-size="9" fill="#111827" text-anchor="middle" transform="rotate(-45 200.78 235.00)">21.08.2025</text><text x="281.18" y="235.00" font-size="9" fill="#111827" text-anchor="middle" transform="rotate(-45 281.18 235.00)">28.08.2025</text><text x="361.57" y="235.00" font-size="9" fill="#111827" text-anchor="middle" transform="rotate(-45 361.57 235.00)">10.09.2025</text><text x="441.96" y="235.00" font-size="9" fill="#111827" text-anchor="middle" transform="rotate(-45 441.96 235.00)">23.09.2025</text><text x="522.35" y="235.00" font-size="9" fill="#111827" text-anchor="middle" transform="rotate(-45 522.35 235.00)">08.10.2025</text><text x="602.75" y="235.00" font-size="9" fill="#111827" text-anchor="middle" transform="rotate(-45 602.75 235.00)">23.10.2025</text><text x="683.14" y="235.00" font-size="9" fill="#111827" text-anchor="middle" transform="rotate(-45 683.14 235.00)">07.11.2025</text><text x="763.53" y="235.00" font-size="9" fill="#111827" text-anchor="middle" transform="rotate(-45 763.53 235.00)">22.11.2025</text><text x="843.92" y="235.00" font-size="9" fill="#111827" text-anchor="middle" transform="rotate(-45 843.92 235.00)">04.12.2025</text>
  </g>
</svg>