<svg xmlns="http://www.w3.org/2000/svg" width="900" height="290" style="font-family: -apple-system, BlinkMacSystemFont, 'Segoe UI', Helvetica, Arial, sans-serif;">
  <rect width="100%" height="100%" fill="#0d1117"/>
  <g>
    <line x1="40" y1="220.00" x2="860" y2="220.00" stroke="#30363d"/><text x="32" y="224.00" font-size="10" fill="#c9d1d9" text-anchor="end">0</text><line x1="40" y1="175.00" x2="860" y2="175.00" stroke="#30363d"/><text x="32" y="179.00" font-size="10" fill="#c9d1d9" text-anchor="end">500</text><line x1="40" y1="130.00" x2="860" y2="130.00" stroke="#30363d"/><text x="32" y="134.00" font-size="10" fill="#c9d1d9" text-anchor="end">1k</text><line x1="40" y1="85.00" x2="860" y2="85.00" stroke="#30363d"/><text x="32" y="89.00" font-size="10" fill="#c9d1d9" text-anchor="end">1.5k</text><line x1="40" y1="40.00" x2="860" y2="40.00" stroke="#30363d"/><text x="32" y="44.00" font-size="10" fill="#c9d1d9" text-anchor="end">2k</text>
    <line x1="40.00" y1="40" x2="40.00" y2="220" stroke="#30363d" opacity="0.5"/><line x1="122.00" y1="40" x2="122.00" y2="220" stroke="#30363d" opacity="0.5"/><line x1="204.00" y1="40" x2="204.00" y2="220" stroke="#30363d" opacity="0.5"/><line x1="286.00" y1="40" x2="286.00" y2="220" stroke="#30363d" opacity="0.5"/><line x1="368.00" y1="40" x2="368.00" y2="220" stroke="#30363d" opacity="0.5"/><line x1="450.00" y1="40" x2="450.00" y2="220" stroke="#30363d" opacity="0.5"/><line x1="532.00" y1="40" x2="532.00" y2="220" stroke="#30363d" opacity="0.5"/><line x1="614.00" y1="40" x2="614.00" y2="220" stroke="#30363d" opacity="0.5"/><line x1="696.00" y1="40" x2="696.00" y2="220" stroke="#30363d" opacity="0.5"/><line x1="778.00" y1="40" x2="778.00" y2="220" stroke="#30363d" opacity="0.5"/><line x1="860.00" y1="40" x2="860.00" y2="220" stroke="#30363d" opacity="0.5"/>
    <line x1="40" y1="220" x2="860" y2="220" stroke="#30363d"/>
    <line x1="40" y1="40"   x2="40"   y2="220" stroke="#30363d"/>
    <path d="M 40.00 219.82 L 45.12 211.81 L 50.25 211.81 L 55.38 211.81 L 60.50 171.85 L 65.62 171.58 L 70.75 164.38 L 75.88 118.93 L 81.00 119.11 L 86.12 111.10 L 91.25 110.56 L 96.38 110.56 L 101.50 110.56 L 106.62 95.35 L 111.75 95.35 L 116.88 95.35 L 122.00 94.63 L 127.12 94.54 L 132.25 94.45 L 137.38 94.09 L 142.50 94.09 L 147.62 94.09 L 152.75 94.09 L 157.88 94.09 L 163.00 94.09 L 168.12 94.09 L 173.25 94.09 L 178.38 94.09 L 183.50 91.84 L 188.62 83.65 L 193.75 83.65 L 198.88 83.47 L 204.00 83.65 L 209.12 91.03 L 214.25 91.03 L 219.38 91.03 L 224.50 91.03 L 229.62 91.03 L 234.75 91.03 L 239.88 91.03 L 245.00 91.03 L 250.12 91.03 L 255.25 91.03 L 260.38 91.03 L 265.50 90.94 L 270.62 91.03 L 275.75 90.94 L 280.88 90.94 L 286.00 90.94 L 291.12 90.94 L 296.25 90.94 L 301.38 90.94 L 306.50 90.94 L 311.62 90.94 L 316.75 90.94 L 321.88 90.94 L 327.00 90.94 L 332.12 90.94 L 337.25 90.94 L 342.38 90.94 L 347.50 90.94 L 352.62 90.94 L 357.75 90.94 L 362.88 90.94 L 368.00 90.94 L 373.12 90.94 L 378.25 90.94 L 383.38 90.94 L 388.50 90.94 L 393.62 90.94 L 398.75 90.94 L 403.88 123.79 L 409.00 123.79 L 414.12 123.79 L 419.25 123.79 L 424.38 123.79 L 429.50 123.79 L 434.62 123.79 L 439.75 123.79 L 444.88 123.79 L 450.00 123.79 L 455.12 123.79 L 460.25 123.79 L 465.38 123.79 L 470.50 123.79 L 475.62 123.79 L 480.75 123.79 L 485.88 123.79 L 491.00 123.79 L 496.12 123.79 L 501.25 123.79 L 506.38 123.79 L 511.50 123.79 L 516.62 123.79 L 521.75 123.79 L 526.88 123.79 L 532.00 123.79 L 537.12 123.79 L 542.25 123.79 L 547.38 123.79 L 552.50 123.79 L 557.62 123.79 L 562.75 123.79 L 567.88 123.79 L 573.00 123.79 L 578.12 123.79 L 583.25 123.79 L 588.38 123.79 L 593.50 123.79 L 598.62 123.79 L 603.75 123.79 L 608.88 123.79 L 614.00 123.79 L 619.12 123.79 L 624.25 123.79 L 629.38 123.79 L 634.50 123.79 L 639.62 123.79 L 644.75 123.79 L 649.88 123.79 L 655.00 123.79 L 660.12 123.79 L 665.25 123.79 L 670.38 123.79 L 675.50 123.79 L 680.62 123.79 L 685.75 123.79 L 690.88 123.79 L 696.00 123.79 L 701.12 123.79 L 706.25 123.79 L 711.38 123.79 L 716.50 123.79 L 721.62 123.79 L 726.75 123.79 L 731.88 123.79 L 737.00 123.79 L 742.12 123.79 L 747.25 123.79 L 752.38 123.79 L 757.50 123.79 L 762.62 123.79 L 767.75 123.79 L 772.88 123.79 L 778.00 123.79 L 783.12 123.79 L 788.25 123.79 L 793.38 123.79 L 798.50 115.42 L 803.62 111.64 L 808.75 107.86 L 813.88 104.08 L 819.00 100.30 L 824.12 95.98 L 829.25 95.98 L 834.38 95.98 L 839.50 95.98 L 844.62 85.72 L 849.75 85.72 L 854.88 85.72 L 860.00 85.72" fill="none" stroke="#3fb950" stroke-width="2"/>
    <circle cx="860.00" cy="85.72" r="3" fill="#3fb950"/>
    <text x="40.00" y="235.00" font-size="9" fill="#c9d1d9" text-anchor="middle" transform="rotate(-45 40.00 235.00)">09.08.2025</text><text x="122.00" y="235.00" font-size="9" fill="#c9d1d9" text-anchor="middle" transform="rotate(-45 122.00 235.00)">13.08.2025</text><text x="204.00" y="235.00" font-size="9" fill="#c9d1d9" text-anchor="middle" transform="rotate(-45 204.00 235.00)">21.08.2025</text><text x="286.00" y="235.00" font-size="9" fill="#c9d1d9" text-anchor="middle" transform="rotate(-45 286.00 235.00)">29.08.2025</text><text x="368.00" y="235.00" font-size="9" fill="#c9d1d9" text-anchor="middle" transform="rotate(-45 368.00 235.00)">14.09.2025</text><text x="450.00" y="235.00" font-size="9" fill="#c9d1d9" text-anchor="middle" transform="rotate(-45 450.00 235.00)">28.09.2025</text><text x="532.00" y="235.00" font-size="9" fill="#c9d1d9" text-anchor="middle" transform="rotate(-45 532.00 235.00)">14.10.2025</text><text x="614.00" y="235.00" font-size="9" fill="#c9d1d9" text-anchor="middle" transform="rotate(-45 614.00 235.00)">30.10.2025</text><text x="696.00" y="235.00" font-size="9" fill="#c9d1d9" text-anchor="middle" transform="rotate(-45 696.00 235.00)">15.11.2025</text><text x="778.00" y="235.00" font-size="9" fill="#c9d1d9" text-anchor="middle" transform="rotate(-45 778.00 235.00)">01.12.2025</text><text x="860.00" y="235.00" font-size="9" fill="#c9d1d9" text-anchor="middle" transform="rotate(-45 860.00 235.00)">10.12.2025</text>
  </g>
</svg>