<svg xmlns="http://www.w3.org/2000/svg" width="900" height="290" style="font-family: -apple-system, BlinkMacSystemFont, 'Segoe UI', Helvetica, Arial, sans-serif;">
  <rect width="100%" height="100%" fill="white"/>
  <g>
    <line x1="40" y1="220.00" x2="860" y2="220.00" stroke="#e5e7eb"/><text x="32" y="224.00" font-size="10" fill="#111827" text-anchor="end">0</text><line x1="40" y1="175.00" x2="860" y2="175.00" stroke="#e5e7eb"/><text x="32" y="179.00" font-size="10" fill="#111827" text-anchor="end">500</text><line x1="40" y1="130.00" x2="860" y2="130.00" stroke="#e5e7eb"/><text x="32" y="134.00" font-size="10" fill="#111827" text-anchor="end">1k</text><line x1="40" y1="85.00" x2="860" y2="85.00" stroke="#e5e7eb"/><text x="32" y="89.00" font-size="10" fill="#111827" text-anchor="end">1.5k</text><line x1="40" y1="40.00" x2="860" y2="40.00" stroke="#e5e7eb"/><text x="32" y="44.00" font-size="10" fill="#111827" text-anchor="end">2k</text>
    <line x1="40.00" y1="40" x2="40.00" y2="220" stroke="#e5e7eb" opacity="0.5"/><line x1="123.67" y1="40" x2="123.67" y2="220" stroke="#e5e7eb" opacity="0.5"/><line x1="207.35" y1="40" x2="207.35" y2="220" stroke="#e5e7eb" opacity="0.5"/><line x1="291.02" y1="40" x2="291.02" y2="220" stroke="#e5e7eb" opacity="0.5"/><line x1="374.69" y1="40" x2="374.69" y2="220" stroke="#e5e7eb" opacity="0.5"/><line x1="458.37" y1="40" x2="458.37" y2="220" stroke="#e5e7eb" opacity="0.5"/><line x1="542.04" y1="40" x2="542.04" y2="220" stroke="#e5e7eb" opacity="0.5"/><line x1="625.71" y1="40" x2="625.71" y2="220" stroke="#e5e7eb" opacity="0.5"/><line x1="709.39" y1="40" x2="709.39" y2="220" stroke="#e5e7eb" opacity="0.5"/><line x1="793.06" y1="40" x2="793.06" y2="220" stroke="#e5e7eb" opacity="0.5"/>
    <line x1="40" y1="220" x2="860" y2="220" stroke="#9ca3af"/>
    <line x1="40" y1="40"   x2="40"   y2="220" stroke="#9ca3af"/>
    <path d="M 40.00 219.82 L 56.73 211.81 L 73.47 211.81 L 90.20 211.81 L 106.94 171.85 L 123.67 171.58 L 140.41 164.38 L 157.14 118.93 L 173.88 119.11 L 190.61 111.10 L 207.35 110.56 L 224.08 110.56 L 240.82 110.56 L 257.55 95.35 L 274.29 95.35 L 291.02 95.35 L 307.76 94.63 L 324.49 94.54 L 341.22 94.45 L 357.96 94.09 L 374.69 94.09 L 391.43 94.09 L 408.16 94.09 L 424.90 94.09 L 441.63 94.09 L 458.37 94.09 L 475.10 94.09 L 491.84 94.09 L 508.57 91.84 L 525.31 83.65 L 542.04 83.65 L 558.78 83.47 L 575.51 83.65 L 592.24 91.03 L 608.98 91.03 L 625.71 91.03 L 642.45 91.03 L 659.18 91.03 L 675.92 91.03 L 692.65 91.03 L 709.39 91.03 L 726.12 91.03 L 742.86 91.03 L 759.59 91.03 L 776.33 90.94 L 793.06 91.03 L 809.80 90.94 L 826.53 90.94 L 843.27 90.94 L 860.00 90.94" fill="none" stroke="#111827" stroke-width="2"/>
    <circle cx="860.00" cy="90.94" r="3" fill="#111827"/>
    <text x="40.00" y="235.00" font-size="9" fill="#111827" text-anchor="middle" transform="rotate(-45 40.00 235.00)">09.08.2025</text><text x="123.67" y="235.00" font-size="9" fill="#111827" text-anchor="middle" transform="rotate(-45 123.67 235.00)">09.08.2025</text><text x="207.35" y="235.00" font-size="9" fill="#111827" text-anchor="middle" transform="rotate(-45 207.35 235.00)">13.08.2025</text><text x="291.02" y="235.00" font-size="9" fill="#111827" text-anchor="middle" transform="rotate(-45 291.02 235.00)">13.08.2025</text><text x="374.69" y="235.00" font-size="9" fill="#111827" text-anchor="middle" transform="rotate(-45 374.69 235.00)">14.08.2025</text><text x="458.37" y="235.00" font-size="9" fill="#111827" text-anchor="middle" transform="rotate(-45 458.37 235.00)">19.08.2025</text><text x="542.04" y="235.00" font-size="9" fill="#111827" text-anchor="middle" transform="rotate(-45 542.04 235.00)">21.08.2025</text><text x="625.71" y="235.00" font-size="9" fill="#111827" text-anchor="middle" transform="rotate(-45 625.71 235.00)">21.08.2025</text><text x="709.39" y="235.00" font-size="9" fill="#111827" text-anchor="middle" transform="rotate(-45 709.39 235.00)">26.08.2025</text><text x="793.06" y="235.00" font-size="9" fill="#111827" text-anchor="middle" transform="rotate(-45 793.06 235.00)">28.08.2025</text>
  </g>
</svg>