<svg xmlns="http://www.w3.org/2000/svg" width="900" height="290" style="font-family: -apple-system, BlinkMacSystemFont, 'Segoe UI', Helvetica, Arial, sans-serif;">
  <rect width="100%" height="100%" fill="white"/>
  <g>
    <line x1="40" y1="220.00" x2="860" y2="220.00" stroke="#e5e7eb"/><text x="32" y="224.00" font-size="10" fill="#111827" text-anchor="end">0</text><line x1="40" y1="175.00" x2="860" y2="175.00" stroke="#e5e7eb"/><text x="32" y="179.00" font-size="10" fill="#111827" text-anchor="end">500</text><line x1="40" y1="130.00" x2="860" y2="130.00" stroke="#e5e7eb"/><text x="32" y="134.00" font-size="10" fill="#111827" text-anchor="end">1k</text><line x1="40" y1="85.00" x2="860" y2="85.00" stroke="#e5e7eb"/><text x="32" y="89.00" font-size="10" fill="#111827" text-anchor="end">1.5k</text><line x1="40" y1="40.00" x2="860" y2="40.00" stroke="#e5e7eb"/><text x="32" y="44.00" font-size="10" fill="#111827" text-anchor="end">2k</text>
    <line x1="40.00" y1="40" x2="40.00" y2="220" stroke="#e5e7eb" opacity="0.5"/><line x1="116.44" y1="40" x2="116.44" y2="220" stroke="#e5e7eb" opacity="0.5"/><line x1="192.88" y1="40" x2="192.88" y2="220" stroke="#e5e7eb" opacity="0.5"/><line x1="269.32" y1="40" x2="269.32" y2="220" stroke="#e5e7eb" opacity="0.5"/><line x1="345.76" y1="40" x2="345.76" y2="220" stroke="#e5e7eb" opacity="0.5"/><line x1="422.20" y1="40" x2="422.20" y2="220" stroke="#e5e7eb" opacity="0.5"/><line x1="498.64" y1="40" x2="498.64" y2="220" stroke="#e5e7eb" opacity="0.5"/><line x1="575.08" y1="40" x2="575.08" y2="220" stroke="#e5e7eb" opacity="0.5"/><line x1="651.53" y1="40" x2="651.53" y2="220" stroke="#e5e7eb" opacity="0.5"/><line x1="727.97" y1="40" x2="727.97" y2="220" stroke="#e5e7eb" opacity="0.5"/><line x1="804.41" y1="40" x2="804.41" y2="220" stroke="#e5e7eb" opacity="0.5"/>
    <line x1="40" y1="220" x2="860" y2="220" stroke="#9ca3af"/>
    <line x1="40" y1="40"   x2="40"   y2="220" stroke="#9ca3af"/>
    <path d="M 40.00 219.82 L 46.95 211.81 L 53.90 211.81 L 60.85 211.81 L 67.80 171.85 L 74.75 171.58 L 81.69 164.38 L 88.64 118.93 L 95.59 119.11 L 102.54 111.10 L 109.49 110.56 L 116.44 110.56 L 123.39 110.56 L 130.34 95.35 L 137.29 95.35 L 144.24 95.35 L 151.19 94.63 L 158.14 94.54 L 165.08 94.45 L 172.03 94.09 L 178.98 94.09 L 185.93 94.09 L 192.88 94.09 L 199.83 94.09 L 206.78 94.09 L 213.73 94.09 L 220.68 94.09 L 227.63 94.09 L 234.58 91.84 L 241.53 83.65 L 248.47 83.65 L 255.42 83.47 L 262.37 83.65 L 269.32 91.03 L 276.27 91.03 L 283.22 91.03 L 290.17 91.03 L 297.12 91.03 L 304.07 91.03 L 311.02 91.03 L 317.97 91.03 L 324.92 91.03 L 331.86 91.03 L 338.81 91.03 L 345.76 90.94 L 352.71 91.03 L 359.66 90.94 L 366.61 90.94 L 373.56 90.94 L 380.51 90.94 L 387.46 90.94 L 394.41 90.94 L 401.36 90.94 L 408.31 90.94 L 415.25 90.94 L 422.20 90.94 L 429.15 90.94 L 436.10 90.94 L 443.05 90.94 L 450.00 90.94 L 456.95 90.94 L 463.90 90.94 L 470.85 90.94 L 477.80 90.94 L 484.75 90.94 L 491.69 90.94 L 498.64 90.94 L 505.59 90.94 L 512.54 90.94 L 519.49 90.94 L 526.44 90.94 L 533.39 123.79 L 540.34 123.79 L 547.29 123.79 L 554.24 123.79 L 561.19 123.79 L 568.14 123.79 L 575.08 123.79 L 582.03 123.79 L 588.98 123.79 L 595.93 123.79 L 602.88 123.79 L 609.83 123.79 L 616.78 123.79 L 623.73 123.79 L 630.68 123.79 L 637.63 123.79 L 644.58 123.79 L 651.53 123.79 L 658.47 123.79 L 665.42 123.79 L 672.37 123.79 L 679.32 123.79 L 686.27 123.79 L 693.22 123.79 L 700.17 123.79 L 707.12 123.79 L 714.07 123.79 L 721.02 123.79 L 727.97 123.79 L 734.92 123.79 L 741.86 123.79 L 748.81 123.79 L 755.76 123.79 L 762.71 123.79 L 769.66 123.79 L 776.61 123.79 L 783.56 123.79 L 790.51 123.79 L 797.46 123.79 L 804.41 123.79 L 811.36 123.79 L 818.31 123.79 L 825.25 123.79 L 832.20 123.79 L 839.15 123.79 L 846.10 123.79 L 853.05 123.79 L 860.00 123.79" fill="none" stroke="#111827" stroke-width="2"/>
    <circle cx="860.00" cy="123.79" r="3" fill="#111827"/>
    <text x="40.00" y="235.00" font-size="9" fill="#111827" text-anchor="middle" transform="rotate(-45 40.00 235.00)">09.08.2025</text><text x="116.44" y="235.00" font-size="9" fill="#111827" text-anchor="middle" transform="rotate(-45 116.44 235.00)">13.08.2025</text><text x="192.88" y="235.00" font-size="9" fill="#111827" text-anchor="middle" transform="rotate(-45 192.88 235.00)">16.08.2025</text><text x="269.32" y="235.00" font-size="9" fill="#111827" text-anchor="middle" transform="rotate(-45 269.32 235.00)">21.08.2025</text><text x="345.76" y="235.00" font-size="9" fill="#111827" text-anchor="middle" transform="rotate(-45 345.76 235.00)">28.08.2025</text><text x="422.20" y="235.00" font-size="9" fill="#111827" text-anchor="middle" transform="rotate(-45 422.20 235.00)">05.09.2025</text><text x="498.64" y="235.00" font-size="9" fill="#111827" text-anchor="middle" transform="rotate(-45 498.64 235.00)">16.09.2025</text><text x="575.08" y="235.00" font-size="9" fill="#111827" text-anchor="middle" transform="rotate(-45 575.08 235.00)">25.09.2025</text><text x="651.53" y="235.00" font-size="9" fill="#111827" text-anchor="middle" transform="rotate(-45 651.53 235.00)">06.10.2025</text><text x="727.97" y="235.00" font-size="9" fill="#111827" text-anchor="middle" transform="rotate(-45 727.97 235.00)">17.10.2025</text><text x="804.41" y="235.00" font-size="9" fill="#111827" text-anchor="middle" transform="rotate(-45 804.41 235.00)">28.10.2025</text>
  </g>
</svg>