<svg xmlns="http://www.w3.org/2000/svg" width="900" height="290" style="font-family: -apple-system, BlinkMacSystemFont, 'Segoe UI', Helvetica, Arial, sans-serif;">
  <rect width="100%" height="100%" fill="#0d1117"/>
  <g>
    <line x1="40" y1="220.00" x2="860" y2="220.00" stroke="#30363d"/><text x="32" y="224.00" font-size="10" fill="#c9d1d9" text-anchor="end">0</text><line x1="40" y1="175.00" x2="860" y2="175.00" stroke="#30363d"/><text x="32" y="179.00" font-size="10" fill="#c9d1d9" text-anchor="end">500</text><line x1="40" y1="130.00" x2="860" y2="130.00" stroke="#30363d"/><text x="32" y="134.00" font-size="10" fill="#c9d1d9" text-anchor="end">1k</text><line x1="40" y1="85.00" x2="860" y2="85.00" stroke="#30363d"/><text x="32" y="89.00" font-size="10" fill="#c9d1d9" text-anchor="end">1.5k</text><line x1="40" y1="40.00" x2="860" y2="40.00" stroke="#30363d"/><text x="32" y="44.00" font-size="10" fill="#c9d1d9" text-anchor="end">2k</text>
    <line x1="40.00" y1="40" x2="40.00" y2="220" stroke="#30363d" opacity="0.5"/><line x1="120.54" y1="40" x2="120.54" y2="220" stroke="#30363d" opacity="0.5"/><line x1="201.07" y1="40" x2="201.07" y2="220" stroke="#30363d" opacity="0.5"/><line x1="281.61" y1="40" x2="281.61" y2="220" stroke="#30363d" opacity="0.5"/><line x1="362.14" y1="40" x2="362.14" y2="220" stroke="#30363d" opacity="0.5"/><line x1="442.68" y1="40" x2="442.68" y2="220" stroke="#30363d" opacity="0.5"/><line x1="523.21" y1="40" x2="523.21" y2="220" stroke="#30363d" opacity="0.5"/><line x1="603.75" y1="40" x2="603.75" y2="220" stroke="#30363d" opacity="0.5"/><line x1="684.29" y1="40" x2="684.29" y2="220" stroke="#30363d" opacity="0.5"/><line x1="764.82" y1="40" x2="764.82" y2="220" stroke="#30363d" opacity="0.5"/><line x1="845.36" y1="40" x2="845.36" y2="220" stroke="#30363d" opacity="0.5"/>
    <line x1="40" y1="220" x2="860" y2="220" stroke="#30363d"/>
    <line x1="40" y1="40"   x2="40"   y2="220" stroke="#30363d"/>
    <path d="M 40.00 219.82 L 47.32 211.81 L 54.64 211.81 L 61.96 211.81 L 69.29 171.85 L 76.61 171.58 L 83.93 164.38 L 91.25 118.93 L 98.57 119.11 L 105.89 111.10 L 113.21 110.56 L 120.54 110.56 L 127.86 110.56 L 135.18 95.35 L 142.50 95.35 L 149.82 95.35 L 157.14 94.63 L 164.46 94.54 L 171.79 94.45 L 179.11 94.09 L 186.43 94.09 L 193.75 94.09 L 201.07 94.09 L 208.39 94.09 L 215.71 94.09 L 223.04 94.09 L 230.36 94.09 L 237.68 94.09 L 245.00 91.84 L 252.32 83.65 L 259.64 83.65 L 266.96 83.47 L 274.29 83.65 L 281.61 91.03 L 288.93 91.03 L 296.25 91.03 L 303.57 91.03 L 310.89 91.03 L 318.21 91.03 L 325.54 91.03 L 332.86 91.03 L 340.18 91.03 L 347.50 91.03 L 354.82 91.03 L 362.14 90.94 L 369.46 91.03 L 376.79 90.94 L 384.11 90.94 L 391.43 90.94 L 398.75 90.94 L 406.07 90.94 L 413.39 90.94 L 420.71 90.94 L 428.04 90.94 L 435.36 90.94 L 442.68 90.94 L 450.00 90.94 L 457.32 90.94 L 464.64 90.94 L 471.96 90.94 L 479.29 90.94 L 486.61 90.94 L 493.93 90.94 L 501.25 90.94 L 508.57 90.94 L 515.89 90.94 L 523.21 90.94 L 530.54 90.94 L 537.86 90.94 L 545.18 90.94 L 552.50 90.94 L 559.82 123.79 L 567.14 123.79 L 574.46 123.79 L 581.79 123.79 L 589.11 123.79 L 596.43 123.79 L 603.75 123.79 L 611.07 123.79 L 618.39 123.79 L 625.71 123.79 L 633.04 123.79 L 640.36 123.79 L 647.68 123.79 L 655.00 123.79 L 662.32 123.79 L 669.64 123.79 L 676.96 123.79 L 684.29 123.79 L 691.61 123.79 L 698.93 123.79 L 706.25 123.79 L 713.57 123.79 L 720.89 123.79 L 728.21 123.79 L 735.54 123.79 L 742.86 123.79 L 750.18 123.79 L 757.50 123.79 L 764.82 123.79 L 772.14 123.79 L 779.46 123.79 L 786.79 123.79 L 794.11 123.79 L 801.43 123.79 L 808.75 123.79 L 816.07 123.79 L 823.39 123.79 L 830.71 123.79 L 838.04 123.79 L 845.36 123.79 L 852.68 123.79 L 860.00 123.79" fill="none" stroke="#3fb950" stroke-width="2"/>
    <circle cx="860.00" cy="123.79" r="3" fill="#3fb950"/>
    <text x="40.00" y="235.00" font-size="9" fill="#c9d1d9" text-anchor="middle" transform="rotate(-45 40.00 235.00)">09.08.2025</text><text x="120.54" y="235.00" font-size="9" fill="#c9d1d9" text-anchor="middle" transform="rotate(-45 120.54 235.00)">13.08.2025</text><text x="201.07" y="235.00" font-size="9" fill="#c9d1d9" text-anchor="middle" transform="rotate(-45 201.07 235.00)">16.08.2025</text><text x="281.61" y="235.00" font-size="9" fill="#c9d1d9" text-anchor="middle" transform="rotate(-45 281.61 235.00)">21.08.2025</text><text x="362.14" y="235.00" font-size="9" fill="#c9d1d9" text-anchor="middle" transform="rotate(-45 362.14 235.00)">28.08.2025</text><text x="442.68" y="235.00" font-size="9" fill="#c9d1d9" text-anchor="middle" transform="rotate(-45 442.68 235.00)">05.09.2025</text><text x="523.21" y="235.00" font-size="9" fill="#c9d1d9" text-anchor="middle" transform="rotate(-45 523.21 235.00)">16.09.2025</text><text x="603.75" y="235.00" font-size="9" fill="#c9d1d9" text-anchor="middle" transform="rotate(-45 603.75 235.00)">25.09.2025</text><text x="684.29" y="235.00" font-size="9" fill="#c9d1d9" text-anchor="middle" transform="rotate(-45 684.29 235.00)">06.10.2025</text><text x="764.82" y="235.00" font-size="9" fill="#c9d1d9" text-anchor="middle" transform="rotate(-45 764.82 235.00)">17.10.2025</text><text x="845.36" y="235.00" font-size="9" fill="#c9d1d9" text-anchor="middle" transform="rotate(-45 845.36 235.00)">28.10.2025</text>
  </g>
</svg>