<svg xmlns="http://www.w3.org/2000/svg" width="900" height="290" style="font-family: -apple-system, BlinkMacSystemFont, 'Segoe UI', Helvetica, Arial, sans-serif;">
  <rect width="100%" height="100%" fill="#0d1117"/>
  <g>
    <line x1="40" y1="220.00" x2="860" y2="220.00" stroke="#30363d"/><text x="32" y="224.00" font-size="10" fill="#c9d1d9" text-anchor="end">0</text><line x1="40" y1="175.00" x2="860" y2="175.00" stroke="#30363d"/><text x="32" y="179.00" font-size="10" fill="#c9d1d9" text-anchor="end">500</text><line x1="40" y1="130.00" x2="860" y2="130.00" stroke="#30363d"/><text x="32" y="134.00" font-size="10" fill="#c9d1d9" text-anchor="end">1k</text><line x1="40" y1="85.00" x2="860" y2="85.00" stroke="#30363d"/><text x="32" y="89.00" font-size="10" fill="#c9d1d9" text-anchor="end">1.5k</text><line x1="40" y1="40.00" x2="860" y2="40.00" stroke="#30363d"/><text x="32" y="44.00" font-size="10" fill="#c9d1d9" text-anchor="end">2k</text>
    <line x1="40.00" y1="40" x2="40.00" y2="220" stroke="#30363d" opacity="0.5"/><line x1="118.56" y1="40" x2="118.56" y2="220" stroke="#30363d" opacity="0.5"/><line x1="197.13" y1="40" x2="197.13" y2="220" stroke="#30363d" opacity="0.5"/><line x1="275.69" y1="40" x2="275.69" y2="220" stroke="#30363d" opacity="0.5"/><line x1="354.25" y1="40" x2="354.25" y2="220" stroke="#30363d" opacity="0.5"/><line x1="432.81" y1="40" x2="432.81" y2="220" stroke="#30363d" opacity="0.5"/><line x1="511.38" y1="40" x2="511.38" y2="220" stroke="#30363d" opacity="0.5"/><line x1="589.94" y1="40" x2="589.94" y2="220" stroke="#30363d" opacity="0.5"/><line x1="668.50" y1="40" x2="668.50" y2="220" stroke="#30363d" opacity="0.5"/><line x1="747.07" y1="40" x2="747.07" y2="220" stroke="#30363d" opacity="0.5"/><line x1="825.63" y1="40" x2="825.63" y2="220" stroke="#30363d" opacity="0.5"/>
    <line x1="40" y1="220" x2="860" y2="220" stroke="#30363d"/>
    <line x1="40" y1="40"   x2="40"   y2="220" stroke="#30363d"/>
    <path d="M 40.00 219.82 L 44.91 211.81 L 49.82 211.81 L 54.73 211.81 L 59.64 171.85 L 64.55 171.58 L 69.46 164.38 L 74.37 118.93 L 79.28 119.11 L 84.19 111.10 L 89.10 110.56 L 94.01 110.56 L 98.92 110.56 L 103.83 95.35 L 108.74 95.35 L 113.65 95.35 L 118.56 94.63 L 123.47 94.54 L 128.38 94.45 L 133.29 94.09 L 138.20 94.09 L 143.11 94.09 L 148.02 94.09 L 152.93 94.09 L 157.84 94.09 L 162.75 94.09 L 167.66 94.09 L 172.57 94.09 L 177.49 91.84 L 182.40 83.65 L 187.31 83.65 L 192.22 83.47 L 197.13 83.65 L 202.04 91.03 L 206.95 91.03 L 211.86 91.03 L 216.77 91.03 L 221.68 91.03 L 226.59 91.03 L 231.50 91.03 L 236.41 91.03 L 241.32 91.03 L 246.23 91.03 L 251.14 91.03 L 256.05 90.94 L 260.96 91.03 L 265.87 90.94 L 270.78 90.94 L 275.69 90.94 L 280.60 90.94 L 285.51 90.94 L 290.42 90.94 L 295.33 90.94 L 300.24 90.94 L 305.15 90.94 L 310.06 90.94 L 314.97 90.94 L 319.88 90.94 L 324.79 90.94 L 329.70 90.94 L 334.61 90.94 L 339.52 90.94 L 344.43 90.94 L 349.34 90.94 L 354.25 90.94 L 359.16 90.94 L 364.07 90.94 L 368.98 90.94 L 373.89 90.94 L 378.80 90.94 L 383.71 90.94 L 388.62 123.79 L 393.53 123.79 L 398.44 123.79 L 403.35 123.79 L 408.26 123.79 L 413.17 123.79 L 418.08 123.79 L 422.99 123.79 L 427.90 123.79 L 432.81 123.79 L 437.72 123.79 L 442.63 123.79 L 447.54 123.79 L 452.46 123.79 L 457.37 123.79 L 462.28 123.79 L 467.19 123.79 L 472.10 123.79 L 477.01 123.79 L 481.92 123.79 L 486.83 123.79 L 491.74 123.79 L 496.65 123.79 L 501.56 123.79 L 506.47 123.79 L 511.38 123.79 L 516.29 123.79 L 521.20 123.79 L 526.11 123.79 L 531.02 123.79 L 535.93 123.79 L 540.84 123.79 L 545.75 123.79 L 550.66 123.79 L 555.57 123.79 L 560.48 123.79 L 565.39 123.79 L 570.30 123.79 L 575.21 123.79 L 580.12 123.79 L 585.03 123.79 L 589.94 123.79 L 594.85 123.79 L 599.76 123.79 L 604.67 123.79 L 609.58 123.79 L 614.49 123.79 L 619.40 123.79 L 624.31 123.79 L 629.22 123.79 L 634.13 123.79 L 639.04 123.79 L 643.95 123.79 L 648.86 123.79 L 653.77 123.79 L 658.68 123.79 L 663.59 123.79 L 668.50 123.79 L 673.41 123.79 L 678.32 123.79 L 683.23 123.79 L 688.14 123.79 L 693.05 123.79 L 697.96 123.79 L 702.87 123.79 L 707.78 123.79 L 712.69 123.79 L 717.60 123.79 L 722.51 123.79 L 727.43 123.79 L 732.34 123.79 L 737.25 123.79 L 742.16 123.79 L 747.07 123.79 L 751.98 123.79 L 756.89 123.79 L 761.80 123.79 L 766.71 115.42 L 771.62 111.64 L 776.53 107.86 L 781.44 104.08 L 786.35 100.30 L 791.26 95.98 L 796.17 95.98 L 801.08 95.98 L 805.99 95.98 L 810.90 85.72 L 815.81 85.72 L 820.72 85.72 L 825.63 85.72 L 830.54 85.72 L 835.45 85.72 L 840.36 85.72 L 845.27 85.72 L 850.18 85.72 L 855.09 85.72 L 860.00 85.72" fill="none" stroke="#3fb950" stroke-width="2"/>
    <circle cx="860.00" cy="85.72" r="3" fill="#3fb950"/>
    <text x="40.00" y="235.00" font-size="9" fill="#c9d1d9" text-anchor="middle" transform="rotate(-45 40.00 235.00)">09.08.2025</text><text x="118.56" y="235.00" font-size="9" fill="#c9d1d9" text-anchor="middle" transform="rotate(-45 118.56 235.00)">13.08.2025</text><text x="197.13" y="235.00" font-size="9" fill="#c9d1d9" text-anchor="middle" transform="rotate(-45 197.13 235.00)">21.08.2025</text><text x="275.69" y="235.00" font-size="9" fill="#c9d1d9" text-anchor="middle" transform="rotate(-45 275.69 235.00)">29.08.2025</text><text x="354.25" y="235.00" font-size="9" fill="#c9d1d9" text-anchor="middle" transform="rotate(-45 354.25 235.00)">14.09.2025</text><text x="432.81" y="235.00" font-size="9" fill="#c9d1d9" text-anchor="middle" transform="rotate(-45 432.81 235.00)">28.09.2025</text><text x="511.38" y="235.00" font-size="9" fill="#c9d1d9" text-anchor="middle" transform="rotate(-45 511.38 235.00)">14.10.2025</text><text x="589.94" y="235.00" font-size="9" fill="#c9d1d9" text-anchor="middle" transform="rotate(-45 589.94 235.00)">30.10.2025</text><text x="668.50" y="235.00" font-size="9" fill="#c9d1d9" text-anchor="middle" transform="rotate(-45 668.50 235.00)">15.11.2025</text><text x="747.07" y="235.00" font-size="9" fill="#c9d1d9" text-anchor="middle" transform="rotate(-45 747.07 235.00)">01.12.2025</text><text x="825.63" y="235.00" font-size="9" fill="#c9d1d9" text-anchor="middle" transform="rotate(-45 825.63 235.00)">10.12.2025</text>
  </g>
</svg>