<svg xmlns="http://www.w3.org/2000/svg" width="900" height="290" style="font-family: -apple-system, BlinkMacSystemFont, 'Segoe UI', Helvetica, Arial, sans-serif;">
  <rect width="100%" height="100%" fill="white"/>
  <g>
    <line x1="40" y1="220.00" x2="860" y2="220.00" stroke="#e5e7eb"/><text x="32" y="224.00" font-size="10" fill="#111827" text-anchor="end">0</text><line x1="40" y1="175.00" x2="860" y2="175.00" stroke="#e5e7eb"/><text x="32" y="179.00" font-size="10" fill="#111827" text-anchor="end">500</text><line x1="40" y1="130.00" x2="860" y2="130.00" stroke="#e5e7eb"/><text x="32" y="134.00" font-size="10" fill="#111827" text-anchor="end">1k</text><line x1="40" y1="85.00" x2="860" y2="85.00" stroke="#e5e7eb"/><text x="32" y="89.00" font-size="10" fill="#111827" text-anchor="end">1.5k</text><line x1="40" y1="40.00" x2="860" y2="40.00" stroke="#e5e7eb"/><text x="32" y="44.00" font-size="10" fill="#111827" text-anchor="end">2k</text>
    <line x1="40.00" y1="40" x2="40.00" y2="220" stroke="#e5e7eb" opacity="0.5"/><line x1="118.10" y1="40" x2="118.10" y2="220" stroke="#e5e7eb" opacity="0.5"/><line x1="196.19" y1="40" x2="196.19" y2="220" stroke="#e5e7eb" opacity="0.5"/><line x1="274.29" y1="40" x2="274.29" y2="220" stroke="#e5e7eb" opacity="0.5"/><line x1="352.38" y1="40" x2="352.38" y2="220" stroke="#e5e7eb" opacity="0.5"/><line x1="430.48" y1="40" x2="430.48" y2="220" stroke="#e5e7eb" opacity="0.5"/><line x1="508.57" y1="40" x2="508.57" y2="220" stroke="#e5e7eb" opacity="0.5"/><line x1="586.67" y1="40" x2="586.67" y2="220" stroke="#e5e7eb" opacity="0.5"/><line x1="664.76" y1="40" x2="664.76" y2="220" stroke="#e5e7eb" opacity="0.5"/><line x1="742.86" y1="40" x2="742.86" y2="220" stroke="#e5e7eb" opacity="0.5"/><line x1="820.95" y1="40" x2="820.95" y2="220" stroke="#e5e7eb" opacity="0.5"/>
    <line x1="40" y1="220" x2="860" y2="220" stroke="#9ca3af"/>
    <line x1="40" y1="40"   x2="40"   y2="220" stroke="#9ca3af"/>
    <path d="M 40.00 219.82 L 46.51 211.81 L 53.02 211.81 L 59.52 211.81 L 66.03 171.85 L 72.54 171.58 L 79.05 164.38 L 85.56 118.93 L 92.06 119.11 L 98.57 111.10 L 105.08 110.56 L 111.59 110.56 L 118.10 110.56 L 124.60 95.35 L 131.11 95.35 L 137.62 95.35 L 144.13 94.63 L 150.63 94.54 L 157.14 94.45 L 163.65 94.09 L 170.16 94.09 L 176.67 94.09 L 183.17 94.09 L 189.68 94.09 L 196.19 94.09 L 202.70 94.09 L 209.21 94.09 L 215.71 94.09 L 222.22 91.84 L 228.73 83.65 L 235.24 83.65 L 241.75 83.47 L 248.25 83.65 L 254.76 91.03 L 261.27 91.03 L 267.78 91.03 L 274.29 91.03 L 280.79 91.03 L 287.30 91.03 L 293.81 91.03 L 300.32 91.03 L 306.83 91.03 L 313.33 91.03 L 319.84 91.03 L 326.35 90.94 L 332.86 91.03 L 339.37 90.94 L 345.87 90.94 L 352.38 90.94 L 358.89 90.94 L 365.40 90.94 L 371.90 90.94 L 378.41 90.94 L 384.92 90.94 L 391.43 90.94 L 397.94 90.94 L 404.44 90.94 L 410.95 90.94 L 417.46 90.94 L 423.97 90.94 L 430.48 90.94 L 436.98 90.94 L 443.49 90.94 L 450.00 90.94 L 456.51 90.94 L 463.02 90.94 L 469.52 90.94 L 476.03 90.94 L 482.54 90.94 L 489.05 90.94 L 495.56 90.94 L 502.06 123.79 L 508.57 123.79 L 515.08 123.79 L 521.59 123.79 L 528.10 123.79 L 534.60 123.79 L 541.11 123.79 L 547.62 123.79 L 554.13 123.79 L 560.63 123.79 L 567.14 123.79 L 573.65 123.79 L 580.16 123.79 L 586.67 123.79 L 593.17 123.79 L 599.68 123.79 L 606.19 123.79 L 612.70 123.79 L 619.21 123.79 L 625.71 123.79 L 632.22 123.79 L 638.73 123.79 L 645.24 123.79 L 651.75 123.79 L 658.25 123.79 L 664.76 123.79 L 671.27 123.79 L 677.78 123.79 L 684.29 123.79 L 690.79 123.79 L 697.30 123.79 L 703.81 123.79 L 710.32 123.79 L 716.83 123.79 L 723.33 123.79 L 729.84 123.79 L 736.35 123.79 L 742.86 123.79 L 749.37 123.79 L 755.87 123.79 L 762.38 123.79 L 768.89 123.79 L 775.40 123.79 L 781.90 123.79 L 788.41 123.79 L 794.92 123.79 L 801.43 123.79 L 807.94 123.79 L 814.44 123.79 L 820.95 123.79 L 827.46 123.79 L 833.97 123.79 L 840.48 123.79 L 846.98 123.79 L 853.49 123.79 L 860.00 123.79" fill="none" stroke="#111827" stroke-width="2"/>
    <circle cx="860.00" cy="123.79" r="3" fill="#111827"/>
    <text x="40.00" y="235.00" font-size="9" fill="#111827" text-anchor="middle" transform="rotate(-45 40.00 235.00)">09.08.2025</text><text x="118.10" y="235.00" font-size="9" fill="#111827" text-anchor="middle" transform="rotate(-45 118.10 235.00)">13.08.2025</text><text x="196.19" y="235.00" font-size="9" fill="#111827" text-anchor="middle" transform="rotate(-45 196.19 235.00)">18.08.2025</text><text x="274.29" y="235.00" font-size="9" fill="#111827" text-anchor="middle" transform="rotate(-45 274.29 235.00)">22.08.2025</text><text x="352.38" y="235.00" font-size="9" fill="#111827" text-anchor="middle" transform="rotate(-45 352.38 235.00)">29.08.2025</text><text x="430.48" y="235.00" font-size="9" fill="#111827" text-anchor="middle" transform="rotate(-45 430.48 235.00)">10.09.2025</text><text x="508.57" y="235.00" font-size="9" fill="#111827" text-anchor="middle" transform="rotate(-45 508.57 235.00)">21.09.2025</text><text x="586.67" y="235.00" font-size="9" fill="#111827" text-anchor="middle" transform="rotate(-45 586.67 235.00)">02.10.2025</text><text x="664.76" y="235.00" font-size="9" fill="#111827" text-anchor="middle" transform="rotate(-45 664.76 235.00)">14.10.2025</text><text x="742.86" y="235.00" font-size="9" fill="#111827" text-anchor="middle" transform="rotate(-45 742.86 235.00)">26.10.2025</text><text x="820.95" y="235.00" font-size="9" fill="#111827" text-anchor="middle" transform="rotate(-45 820.95 235.00)">07.11.2025</text>
  </g>
</svg>