<svg xmlns="http://www.w3.org/2000/svg" width="900" height="290" style="font-family: -apple-system, BlinkMacSystemFont, 'Segoe UI', Helvetica, Arial, sans-serif;">
  <rect width="100%" height="100%" fill="white"/>
  <g>
    <line x1="40" y1="220.00" x2="860" y2="220.00" stroke="#e5e7eb"/><text x="32" y="224.00" font-size="10" fill="#111827" text-anchor="end">0</text><line x1="40" y1="175.00" x2="860" y2="175.00" stroke="#e5e7eb"/><text x="32" y="179.00" font-size="10" fill="#111827" text-anchor="end">500</text><line x1="40" y1="130.00" x2="860" y2="130.00" stroke="#e5e7eb"/><text x="32" y="134.00" font-size="10" fill="#111827" text-anchor="end">1k</text><line x1="40" y1="85.00" x2="860" y2="85.00" stroke="#e5e7eb"/><text x="32" y="89.00" font-size="10" fill="#111827" text-anchor="end">1.5k</text><line x1="40" y1="40.00" x2="860" y2="40.00" stroke="#e5e7eb"/><text x="32" y="44.00" font-size="10" fill="#111827" text-anchor="end">2k</text>
    <line x1="40.00" y1="40" x2="40.00" y2="220" stroke="#e5e7eb" opacity="0.5"/><line x1="122.00" y1="40" x2="122.00" y2="220" stroke="#e5e7eb" opacity="0.5"/><line x1="204.00" y1="40" x2="204.00" y2="220" stroke="#e5e7eb" opacity="0.5"/><line x1="286.00" y1="40" x2="286.00" y2="220" stroke="#e5e7eb" opacity="0.5"/><line x1="368.00" y1="40" x2="368.00" y2="220" stroke="#e5e7eb" opacity="0.5"/><line x1="450.00" y1="40" x2="450.00" y2="220" stroke="#e5e7eb" opacity="0.5"/><line x1="532.00" y1="40" x2="532.00" y2="220" stroke="#e5e7eb" opacity="0.5"/><line x1="614.00" y1="40" x2="614.00" y2="220" stroke="#e5e7eb" opacity="0.5"/><line x1="696.00" y1="40" x2="696.00" y2="220" stroke="#e5e7eb" opacity="0.5"/><line x1="778.00" y1="40" x2="778.00" y2="220" stroke="#e5e7eb" opacity="0.5"/><line x1="860.00" y1="40" x2="860.00" y2="220" stroke="#e5e7eb" opacity="0.5"/>
    <line x1="40" y1="220" x2="860" y2="220" stroke="#9ca3af"/>
    <line x1="40" y1="40"   x2="40"   y2="220" stroke="#9ca3af"/>
    <path d="M 40.00 219.82 L 45.86 211.81 L 51.71 211.81 L 57.57 211.81 L 63.43 171.85 L 69.29 171.58 L 75.14 164.38 L 81.00 118.93 L 86.86 119.11 L 92.71 111.10 L 98.57 110.56 L 104.43 110.56 L 110.29 110.56 L 116.14 95.35 L 122.00 95.35 L 127.86 95.35 L 133.71 94.63 L 139.57 94.54 L 145.43 94.45 L 151.29 94.09 L 157.14 94.09 L 163.00 94.09 L 168.86 94.09 L 174.71 94.09 L 180.57 94.09 L 186.43 94.09 L 192.29 94.09 L 198.14 94.09 L 204.00 91.84 L 209.86 83.65 L 215.71 83.65 L 221.57 83.47 L 227.43 83.65 L 233.29 91.03 L 239.14 91.03 L 245.00 91.03 L 250.86 91.03 L 256.71 91.03 L 262.57 91.03 L 268.43 91.03 L 274.29 91.03 L 280.14 91.03 L 286.00 91.03 L 291.86 91.03 L 297.71 90.94 L 303.57 91.03 L 309.43 90.94 L 315.29 90.94 L 321.14 90.94 L 327.00 90.94 L 332.86 90.94 L 338.71 90.94 L 344.57 90.94 L 350.43 90.94 L 356.29 90.94 L 362.14 90.94 L 368.00 90.94 L 373.86 90.94 L 379.71 90.94 L 385.57 90.94 L 391.43 90.94 L 397.29 90.94 L 403.14 90.94 L 409.00 90.94 L 414.86 90.94 L 420.71 90.94 L 426.57 90.94 L 432.43 90.94 L 438.29 90.94 L 444.14 90.94 L 450.00 90.94 L 455.86 123.79 L 461.71 123.79 L 467.57 123.79 L 473.43 123.79 L 479.29 123.79 L 485.14 123.79 L 491.00 123.79 L 496.86 123.79 L 502.71 123.79 L 508.57 123.79 L 514.43 123.79 L 520.29 123.79 L 526.14 123.79 L 532.00 123.79 L 537.86 123.79 L 543.71 123.79 L 549.57 123.79 L 555.43 123.79 L 561.29 123.79 L 567.14 123.79 L 573.00 123.79 L 578.86 123.79 L 584.71 123.79 L 590.57 123.79 L 596.43 123.79 L 602.29 123.79 L 608.14 123.79 L 614.00 123.79 L 619.86 123.79 L 625.71 123.79 L 631.57 123.79 L 637.43 123.79 L 643.29 123.79 L 649.14 123.79 L 655.00 123.79 L 660.86 123.79 L 666.71 123.79 L 672.57 123.79 L 678.43 123.79 L 684.29 123.79 L 690.14 123.79 L 696.00 123.79 L 701.86 123.79 L 707.71 123.79 L 713.57 123.79 L 719.43 123.79 L 725.29 123.79 L 731.14 123.79 L 737.00 123.79 L 742.86 123.79 L 748.71 123.79 L 754.57 123.79 L 760.43 123.79 L 766.29 123.79 L 772.14 123.79 L 778.00 123.79 L 783.86 123.79 L 789.71 123.79 L 795.57 123.79 L 801.43 123.79 L 807.29 123.79 L 813.14 123.79 L 819.00 123.79 L 824.86 123.79 L 830.71 123.79 L 836.57 123.79 L 842.43 123.79 L 848.29 123.79 L 854.14 123.79 L 860.00 123.79" fill="none" stroke="#111827" stroke-width="2"/>
    <circle cx="860.00" cy="123.79" r="3" fill="#111827"/>
    <text x="40.00" y="235.00" font-size="9" fill="#111827" text-anchor="middle" transform="rotate(-45 40.00 235.00)">09.08.2025</text><text x="122.00" y="235.00" font-size="9" fill="#111827" text-anchor="middle" transform="rotate(-45 122.00 235.00)">13.08.2025</text><text x="204.00" y="235.00" font-size="9" fill="#111827" text-anchor="middle" transform="rotate(-45 204.00 235.00)">21.08.2025</text><text x="286.00" y="235.00" font-size="9" fill="#111827" text-anchor="middle" transform="rotate(-45 286.00 235.00)">28.08.2025</text><text x="368.00" y="235.00" font-size="9" fill="#111827" text-anchor="middle" transform="rotate(-45 368.00 235.00)">06.09.2025</text><text x="450.00" y="235.00" font-size="9" fill="#111827" text-anchor="middle" transform="rotate(-45 450.00 235.00)">20.09.2025</text><text x="532.00" y="235.00" font-size="9" fill="#111827" text-anchor="middle" transform="rotate(-45 532.00 235.00)">02.10.2025</text><text x="614.00" y="235.00" font-size="9" fill="#111827" text-anchor="middle" transform="rotate(-45 614.00 235.00)">16.10.2025</text><text x="696.00" y="235.00" font-size="9" fill="#111827" text-anchor="middle" transform="rotate(-45 696.00 235.00)">30.10.2025</text><text x="778.00" y="235.00" font-size="9" fill="#111827" text-anchor="middle" transform="rotate(-45 778.00 235.00)">13.11.2025</text><text x="860.00" y="235.00" font-size="9" fill="#111827" text-anchor="middle" transform="rotate(-45 860.00 235.00)">27.11.2025</text>
  </g>
</svg>