<svg xmlns="http://www.w3.org/2000/svg" width="900" height="290" style="font-family: -apple-system, BlinkMacSystemFont, 'Segoe UI', Helvetica, Arial, sans-serif;">
  <rect width="100%" height="100%" fill="white"/>
  <g>
    <line x1="40" y1="220.00" x2="860" y2="220.00" stroke="#e5e7eb"/><text x="32" y="224.00" font-size="10" fill="#111827" text-anchor="end">0</text><line x1="40" y1="175.00" x2="860" y2="175.00" stroke="#e5e7eb"/><text x="32" y="179.00" font-size="10" fill="#111827" text-anchor="end">500</text><line x1="40" y1="130.00" x2="860" y2="130.00" stroke="#e5e7eb"/><text x="32" y="134.00" font-size="10" fill="#111827" text-anchor="end">1k</text><line x1="40" y1="85.00" x2="860" y2="85.00" stroke="#e5e7eb"/><text x="32" y="89.00" font-size="10" fill="#111827" text-anchor="end">1.5k</text><line x1="40" y1="40.00" x2="860" y2="40.00" stroke="#e5e7eb"/><text x="32" y="44.00" font-size="10" fill="#111827" text-anchor="end">2k</text>
    <line x1="40.00" y1="40" x2="40.00" y2="220" stroke="#e5e7eb" opacity="0.5"/><line x1="120.00" y1="40" x2="120.00" y2="220" stroke="#e5e7eb" opacity="0.5"/><line x1="200.00" y1="40" x2="200.00" y2="220" stroke="#e5e7eb" opacity="0.5"/><line x1="280.00" y1="40" x2="280.00" y2="220" stroke="#e5e7eb" opacity="0.5"/><line x1="360.00" y1="40" x2="360.00" y2="220" stroke="#e5e7eb" opacity="0.5"/><line x1="440.00" y1="40" x2="440.00" y2="220" stroke="#e5e7eb" opacity="0.5"/><line x1="520.00" y1="40" x2="520.00" y2="220" stroke="#e5e7eb" opacity="0.5"/><line x1="600.00" y1="40" x2="600.00" y2="220" stroke="#e5e7eb" opacity="0.5"/><line x1="680.00" y1="40" x2="680.00" y2="220" stroke="#e5e7eb" opacity="0.5"/><line x1="760.00" y1="40" x2="760.00" y2="220" stroke="#e5e7eb" opacity="0.5"/><line x1="840.00" y1="40" x2="840.00" y2="220" stroke="#e5e7eb" opacity="0.5"/>
    <line x1="40" y1="220" x2="860" y2="220" stroke="#9ca3af"/>
    <line x1="40" y1="40"   x2="40"   y2="220" stroke="#9ca3af"/>
    <path d="M 40.00 219.82 L 46.67 211.81 L 53.33 211.81 L 60.00 211.81 L 66.67 171.85 L 73.33 171.58 L 80.00 164.38 L 86.67 118.93 L 93.33 119.11 L 100.00 111.10 L 106.67 110.56 L 113.33 110.56 L 120.00 110.56 L 126.67 95.35 L 133.33 95.35 L 140.00 95.35 L 146.67 94.63 L 153.33 94.54 L 160.00 94.45 L 166.67 94.09 L 173.33 94.09 L 180.00 94.09 L 186.67 94.09 L 193.33 94.09 L 200.00 94.09 L 206.67 94.09 L 213.33 94.09 L 220.00 94.09 L 226.67 91.84 L 233.33 83.65 L 240.00 83.65 L 246.67 83.47 L 253.33 83.65 L 260.00 91.03 L 266.67 91.03 L 273.33 91.03 L 280.00 91.03 L 286.67 91.03 L 293.33 91.03 L 300.00 91.03 L 306.67 91.03 L 313.33 91.03 L 320.00 91.03 L 326.67 91.03 L 333.33 90.94 L 340.00 91.03 L 346.67 90.94 L 353.33 90.94 L 360.00 90.94 L 366.67 90.94 L 373.33 90.94 L 380.00 90.94 L 386.67 90.94 L 393.33 90.94 L 400.00 90.94 L 406.67 90.94 L 413.33 90.94 L 420.00 90.94 L 426.67 90.94 L 433.33 90.94 L 440.00 90.94 L 446.67 90.94 L 453.33 90.94 L 460.00 90.94 L 466.67 90.94 L 473.33 90.94 L 480.00 90.94 L 486.67 90.94 L 493.33 90.94 L 500.00 90.94 L 506.67 90.94 L 513.33 123.79 L 520.00 123.79 L 526.67 123.79 L 533.33 123.79 L 540.00 123.79 L 546.67 123.79 L 553.33 123.79 L 560.00 123.79 L 566.67 123.79 L 573.33 123.79 L 580.00 123.79 L 586.67 123.79 L 593.33 123.79 L 600.00 123.79 L 606.67 123.79 L 613.33 123.79 L 620.00 123.79 L 626.67 123.79 L 633.33 123.79 L 640.00 123.79 L 646.67 123.79 L 653.33 123.79 L 660.00 123.79 L 666.67 123.79 L 673.33 123.79 L 680.00 123.79 L 686.67 123.79 L 693.33 123.79 L 700.00 123.79 L 706.67 123.79 L 713.33 123.79 L 720.00 123.79 L 726.67 123.79 L 733.33 123.79 L 740.00 123.79 L 746.67 123.79 L 753.33 123.79 L 760.00 123.79 L 766.67 123.79 L 773.33 123.79 L 780.00 123.79 L 786.67 123.79 L 793.33 123.79 L 800.00 123.79 L 806.67 123.79 L 813.33 123.79 L 820.00 123.79 L 826.67 123.79 L 833.33 123.79 L 840.00 123.79 L 846.67 123.79 L 853.33 123.79 L 860.00 123.79" fill="none" stroke="#111827" stroke-width="2"/>
    <circle cx="860.00" cy="123.79" r="3" fill="#111827"/>
    <text x="40.00" y="235.00" font-size="9" fill="#111827" text-anchor="middle" transform="rotate(-45 40.00 235.00)">09.08.2025</text><text x="120.00" y="235.00" font-size="9" fill="#111827" text-anchor="middle" transform="rotate(-45 120.00 235.00)">13.08.2025</text><text x="200.00" y="235.00" font-size="9" fill="#111827" text-anchor="middle" transform="rotate(-45 200.00 235.00)">18.08.2025</text><text x="280.00" y="235.00" font-size="9" fill="#111827" text-anchor="middle" transform="rotate(-45 280.00 235.00)">22.08.2025</text><text x="360.00" y="235.00" font-size="9" fill="#111827" text-anchor="middle" transform="rotate(-45 360.00 235.00)">29.08.2025</text><text x="440.00" y="235.00" font-size="9" fill="#111827" text-anchor="middle" transform="rotate(-45 440.00 235.00)">10.09.2025</text><text x="520.00" y="235.00" font-size="9" fill="#111827" text-anchor="middle" transform="rotate(-45 520.00 235.00)">21.09.2025</text><text x="600.00" y="235.00" font-size="9" fill="#111827" text-anchor="middle" transform="rotate(-45 600.00 235.00)">02.10.2025</text><text x="680.00" y="235.00" font-size="9" fill="#111827" text-anchor="middle" transform="rotate(-45 680.00 235.00)">14.10.2025</text><text x="760.00" y="235.00" font-size="9" fill="#111827" text-anchor="middle" transform="rotate(-45 760.00 235.00)">26.10.2025</text><text x="840.00" y="235.00" font-size="9" fill="#111827" text-anchor="middle" transform="rotate(-45 840.00 235.00)">07.11.2025</text>
  </g>
</svg>