<svg xmlns="http://www.w3.org/2000/svg" width="900" height="290" style="font-family: -apple-system, BlinkMacSystemFont, 'Segoe UI', Helvetica, Arial, sans-serif;">
  <rect width="100%" height="100%" fill="white"/>
  <g>
    <line x1="40" y1="220.00" x2="860" y2="220.00" stroke="#e5e7eb"/><text x="32" y="224.00" font-size="10" fill="#111827" text-anchor="end">0</text><line x1="40" y1="175.00" x2="860" y2="175.00" stroke="#e5e7eb"/><text x="32" y="179.00" font-size="10" fill="#111827" text-anchor="end">500</text><line x1="40" y1="130.00" x2="860" y2="130.00" stroke="#e5e7eb"/><text x="32" y="134.00" font-size="10" fill="#111827" text-anchor="end">1k</text><line x1="40" y1="85.00" x2="860" y2="85.00" stroke="#e5e7eb"/><text x="32" y="89.00" font-size="10" fill="#111827" text-anchor="end">1.5k</text><line x1="40" y1="40.00" x2="860" y2="40.00" stroke="#e5e7eb"/><text x="32" y="44.00" font-size="10" fill="#111827" text-anchor="end">2k</text>
    <line x1="40.00" y1="40" x2="40.00" y2="220" stroke="#e5e7eb" opacity="0.5"/><line x1="123.39" y1="40" x2="123.39" y2="220" stroke="#e5e7eb" opacity="0.5"/><line x1="206.78" y1="40" x2="206.78" y2="220" stroke="#e5e7eb" opacity="0.5"/><line x1="290.17" y1="40" x2="290.17" y2="220" stroke="#e5e7eb" opacity="0.5"/><line x1="373.56" y1="40" x2="373.56" y2="220" stroke="#e5e7eb" opacity="0.5"/><line x1="456.95" y1="40" x2="456.95" y2="220" stroke="#e5e7eb" opacity="0.5"/><line x1="540.34" y1="40" x2="540.34" y2="220" stroke="#e5e7eb" opacity="0.5"/><line x1="623.73" y1="40" x2="623.73" y2="220" stroke="#e5e7eb" opacity="0.5"/><line x1="707.12" y1="40" x2="707.12" y2="220" stroke="#e5e7eb" opacity="0.5"/><line x1="790.51" y1="40" x2="790.51" y2="220" stroke="#e5e7eb" opacity="0.5"/>
    <line x1="40" y1="220" x2="860" y2="220" stroke="#9ca3af"/>
    <line x1="40" y1="40"   x2="40"   y2="220" stroke="#9ca3af"/>
    <path d="M 40.00 219.82 L 53.90 211.81 L 67.80 211.81 L 81.69 211.81 L 95.59 171.85 L 109.49 171.58 L 123.39 164.38 L 137.29 118.93 L 151.19 119.11 L 165.08 111.10 L 178.98 110.56 L 192.88 110.56 L 206.78 110.56 L 220.68 95.35 L 234.58 95.35 L 248.47 95.35 L 262.37 94.63 L 276.27 94.54 L 290.17 94.45 L 304.07 94.09 L 317.97 94.09 L 331.86 94.09 L 345.76 94.09 L 359.66 94.09 L 373.56 94.09 L 387.46 94.09 L 401.36 94.09 L 415.25 94.09 L 429.15 91.84 L 443.05 83.65 L 456.95 83.65 L 470.85 83.47 L 484.75 83.65 L 498.64 91.03 L 512.54 91.03 L 526.44 91.03 L 540.34 91.03 L 554.24 91.03 L 568.14 91.03 L 582.03 91.03 L 595.93 91.03 L 609.83 91.03 L 623.73 91.03 L 637.63 91.03 L 651.53 90.94 L 665.42 91.03 L 679.32 90.94 L 693.22 90.94 L 707.12 90.94 L 721.02 90.94 L 734.92 90.94 L 748.81 90.94 L 762.71 90.94 L 776.61 90.94 L 790.51 90.94 L 804.41 90.94 L 818.31 90.94 L 832.20 90.94 L 846.10 90.94 L 860.00 90.94" fill="none" stroke="#111827" stroke-width="2"/>
    <circle cx="860.00" cy="90.94" r="3" fill="#111827"/>
    <text x="40.00" y="235.00" font-size="9" fill="#111827" text-anchor="middle" transform="rotate(-45 40.00 235.00)">09.08.2025</text><text x="123.39" y="235.00" font-size="9" fill="#111827" text-anchor="middle" transform="rotate(-45 123.39 235.00)">09.08.2025</text><text x="206.78" y="235.00" font-size="9" fill="#111827" text-anchor="middle" transform="rotate(-45 206.78 235.00)">13.08.2025</text><text x="290.17" y="235.00" font-size="9" fill="#111827" text-anchor="middle" transform="rotate(-45 290.17 235.00)">13.08.2025</text><text x="373.56" y="235.00" font-size="9" fill="#111827" text-anchor="middle" transform="rotate(-45 373.56 235.00)">18.08.2025</text><text x="456.95" y="235.00" font-size="9" fill="#111827" text-anchor="middle" transform="rotate(-45 456.95 235.00)">21.08.2025</text><text x="540.34" y="235.00" font-size="9" fill="#111827" text-anchor="middle" transform="rotate(-45 540.34 235.00)">22.08.2025</text><text x="623.73" y="235.00" font-size="9" fill="#111827" text-anchor="middle" transform="rotate(-45 623.73 235.00)">28.08.2025</text><text x="707.12" y="235.00" font-size="9" fill="#111827" text-anchor="middle" transform="rotate(-45 707.12 235.00)">29.08.2025</text><text x="790.51" y="235.00" font-size="9" fill="#111827" text-anchor="middle" transform="rotate(-45 790.51 235.00)">04.09.2025</text>
  </g>
</svg>