<svg xmlns="http://www.w3.org/2000/svg" width="900" height="290" style="font-family: -apple-system, BlinkMacSystemFont, 'Segoe UI', Helvetica, Arial, sans-serif;">
  <rect width="100%" height="100%" fill="white"/>
  <g>
    <line x1="40" y1="220.00" x2="860" y2="220.00" stroke="#e5e7eb"/><text x="32" y="224.00" font-size="10" fill="#111827" text-anchor="end">0</text><line x1="40" y1="175.00" x2="860" y2="175.00" stroke="#e5e7eb"/><text x="32" y="179.00" font-size="10" fill="#111827" text-anchor="end">500</text><line x1="40" y1="130.00" x2="860" y2="130.00" stroke="#e5e7eb"/><text x="32" y="134.00" font-size="10" fill="#111827" text-anchor="end">1k</text><line x1="40" y1="85.00" x2="860" y2="85.00" stroke="#e5e7eb"/><text x="32" y="89.00" font-size="10" fill="#111827" text-anchor="end">1.5k</text><line x1="40" y1="40.00" x2="860" y2="40.00" stroke="#e5e7eb"/><text x="32" y="44.00" font-size="10" fill="#111827" text-anchor="end">2k</text>
    <line x1="40.00" y1="40" x2="40.00" y2="220" stroke="#e5e7eb" opacity="0.5"/><line x1="122.83" y1="40" x2="122.83" y2="220" stroke="#e5e7eb" opacity="0.5"/><line x1="205.66" y1="40" x2="205.66" y2="220" stroke="#e5e7eb" opacity="0.5"/><line x1="288.48" y1="40" x2="288.48" y2="220" stroke="#e5e7eb" opacity="0.5"/><line x1="371.31" y1="40" x2="371.31" y2="220" stroke="#e5e7eb" opacity="0.5"/><line x1="454.14" y1="40" x2="454.14" y2="220" stroke="#e5e7eb" opacity="0.5"/><line x1="536.97" y1="40" x2="536.97" y2="220" stroke="#e5e7eb" opacity="0.5"/><line x1="619.80" y1="40" x2="619.80" y2="220" stroke="#e5e7eb" opacity="0.5"/><line x1="702.63" y1="40" x2="702.63" y2="220" stroke="#e5e7eb" opacity="0.5"/><line x1="785.45" y1="40" x2="785.45" y2="220" stroke="#e5e7eb" opacity="0.5"/>
    <line x1="40" y1="220" x2="860" y2="220" stroke="#9ca3af"/>
    <line x1="40" y1="40"   x2="40"   y2="220" stroke="#9ca3af"/>
    <path d="M 40.00 219.82 L 48.28 211.81 L 56.57 211.81 L 64.85 211.81 L 73.13 171.85 L 81.41 171.58 L 89.70 164.38 L 97.98 118.93 L 106.26 119.11 L 114.55 111.10 L 122.83 110.56 L 131.11 110.56 L 139.39 110.56 L 147.68 95.35 L 155.96 95.35 L 164.24 95.35 L 172.53 94.63 L 180.81 94.54 L 189.09 94.45 L 197.37 94.09 L 205.66 94.09 L 213.94 94.09 L 222.22 94.09 L 230.51 94.09 L 238.79 94.09 L 247.07 94.09 L 255.35 94.09 L 263.64 94.09 L 271.92 91.84 L 280.20 83.65 L 288.48 83.65 L 296.77 83.47 L 305.05 83.65 L 313.33 91.03 L 321.62 91.03 L 329.90 91.03 L 338.18 91.03 L 346.46 91.03 L 354.75 91.03 L 363.03 91.03 L 371.31 91.03 L 379.60 91.03 L 387.88 91.03 L 396.16 91.03 L 404.44 90.94 L 412.73 91.03 L 421.01 90.94 L 429.29 90.94 L 437.58 90.94 L 445.86 90.94 L 454.14 90.94 L 462.42 90.94 L 470.71 90.94 L 478.99 90.94 L 487.27 90.94 L 495.56 90.94 L 503.84 90.94 L 512.12 90.94 L 520.40 90.94 L 528.69 90.94 L 536.97 90.94 L 545.25 90.94 L 553.54 90.94 L 561.82 90.94 L 570.10 90.94 L 578.38 90.94 L 586.67 90.94 L 594.95 90.94 L 603.23 90.94 L 611.52 90.94 L 619.80 90.94 L 628.08 123.79 L 636.36 123.79 L 644.65 123.79 L 652.93 123.79 L 661.21 123.79 L 669.49 123.79 L 677.78 123.79 L 686.06 123.79 L 694.34 123.79 L 702.63 123.79 L 710.91 123.79 L 719.19 123.79 L 727.47 123.79 L 735.76 123.79 L 744.04 123.79 L 752.32 123.79 L 760.61 123.79 L 768.89 123.79 L 777.17 123.79 L 785.45 123.79 L 793.74 123.79 L 802.02 123.79 L 810.30 123.79 L 818.59 123.79 L 826.87 123.79 L 835.15 123.79 L 843.43 123.79 L 851.72 123.79 L 860.00 123.79" fill="none" stroke="#111827" stroke-width="2"/>
    <circle cx="860.00" cy="123.79" r="3" fill="#111827"/>
    <text x="40.00" y="235.00" font-size="9" fill="#111827" text-anchor="middle" transform="rotate(-45 40.00 235.00)">09.08.2025</text><text x="122.83" y="235.00" font-size="9" fill="#111827" text-anchor="middle" transform="rotate(-45 122.83 235.00)">13.08.2025</text><text x="205.66" y="235.00" font-size="9" fill="#111827" text-anchor="middle" transform="rotate(-45 205.66 235.00)">14.08.2025</text><text x="288.48" y="235.00" font-size="9" fill="#111827" text-anchor="middle" transform="rotate(-45 288.48 235.00)">21.08.2025</text><text x="371.31" y="235.00" font-size="9" fill="#111827" text-anchor="middle" transform="rotate(-45 371.31 235.00)">26.08.2025</text><text x="454.14" y="235.00" font-size="9" fill="#111827" text-anchor="middle" transform="rotate(-45 454.14 235.00)">31.08.2025</text><text x="536.97" y="235.00" font-size="9" fill="#111827" text-anchor="middle" transform="rotate(-45 536.97 235.00)">10.09.2025</text><text x="619.80" y="235.00" font-size="9" fill="#111827" text-anchor="middle" transform="rotate(-45 619.80 235.00)">20.09.2025</text><text x="702.63" y="235.00" font-size="9" fill="#111827" text-anchor="middle" transform="rotate(-45 702.63 235.00)">28.09.2025</text><text x="785.45" y="235.00" font-size="9" fill="#111827" text-anchor="middle" transform="rotate(-45 785.45 235.00)">08.10.2025</text>
  </g>
</svg>