<svg xmlns="http://www.w3.org/2000/svg" width="900" height="290" style="font-family: -apple-system, BlinkMacSystemFont, 'Segoe UI', Helvetica, Arial, sans-serif;">
  <rect width="100%" height="100%" fill="white"/>
  <g>
    <line x1="40" y1="220.00" x2="860" y2="220.00" stroke="#e5e7eb"/><text x="32" y="224.00" font-size="10" fill="#111827" text-anchor="end">0</text><line x1="40" y1="175.00" x2="860" y2="175.00" stroke="#e5e7eb"/><text x="32" y="179.00" font-size="10" fill="#111827" text-anchor="end">500</text><line x1="40" y1="130.00" x2="860" y2="130.00" stroke="#e5e7eb"/><text x="32" y="134.00" font-size="10" fill="#111827" text-anchor="end">1k</text><line x1="40" y1="85.00" x2="860" y2="85.00" stroke="#e5e7eb"/><text x="32" y="89.00" font-size="10" fill="#111827" text-anchor="end">1.5k</text><line x1="40" y1="40.00" x2="860" y2="40.00" stroke="#e5e7eb"/><text x="32" y="44.00" font-size="10" fill="#111827" text-anchor="end">2k</text>
    <line x1="40.00" y1="40" x2="40.00" y2="220" stroke="#e5e7eb" opacity="0.5"/><line x1="108.33" y1="40" x2="108.33" y2="220" stroke="#e5e7eb" opacity="0.5"/><line x1="176.67" y1="40" x2="176.67" y2="220" stroke="#e5e7eb" opacity="0.5"/><line x1="245.00" y1="40" x2="245.00" y2="220" stroke="#e5e7eb" opacity="0.5"/><line x1="313.33" y1="40" x2="313.33" y2="220" stroke="#e5e7eb" opacity="0.5"/><line x1="381.67" y1="40" x2="381.67" y2="220" stroke="#e5e7eb" opacity="0.5"/><line x1="450.00" y1="40" x2="450.00" y2="220" stroke="#e5e7eb" opacity="0.5"/><line x1="518.33" y1="40" x2="518.33" y2="220" stroke="#e5e7eb" opacity="0.5"/><line x1="586.67" y1="40" x2="586.67" y2="220" stroke="#e5e7eb" opacity="0.5"/><line x1="655.00" y1="40" x2="655.00" y2="220" stroke="#e5e7eb" opacity="0.5"/><line x1="723.33" y1="40" x2="723.33" y2="220" stroke="#e5e7eb" opacity="0.5"/><line x1="791.67" y1="40" x2="791.67" y2="220" stroke="#e5e7eb" opacity="0.5"/><line x1="860.00" y1="40" x2="860.00" y2="220" stroke="#e5e7eb" opacity="0.5"/>
    <line x1="40" y1="220" x2="860" y2="220" stroke="#9ca3af"/>
    <line x1="40" y1="40"   x2="40"   y2="220" stroke="#9ca3af"/>
    <path d="M 40.00 219.82 L 57.08 211.81 L 74.17 211.81 L 91.25 211.81 L 108.33 171.85 L 125.42 171.58 L 142.50 164.38 L 159.58 118.93 L 176.67 119.11 L 193.75 111.10 L 210.83 110.56 L 227.92 110.56 L 245.00 110.56 L 262.08 95.35 L 279.17 95.35 L 296.25 95.35 L 313.33 94.63 L 330.42 94.54 L 347.50 94.45 L 364.58 94.09 L 381.67 94.09 L 398.75 94.09 L 415.83 94.09 L 432.92 94.09 L 450.00 94.09 L 467.08 94.09 L 484.17 94.09 L 501.25 94.09 L 518.33 91.84 L 535.42 83.65 L 552.50 83.65 L 569.58 83.47 L 586.67 83.65 L 603.75 91.03 L 620.83 91.03 L 637.92 91.03 L 655.00 91.03 L 672.08 91.03 L 689.17 91.03 L 706.25 91.03 L 723.33 91.03 L 740.42 91.03 L 757.50 91.03 L 774.58 91.03 L 791.67 90.94 L 808.75 91.03 L 825.83 90.94 L 842.92 90.94 L 860.00 90.94" fill="none" stroke="#111827" stroke-width="2"/>
    <circle cx="860.00" cy="90.94" r="3" fill="#111827"/>
    <text x="40.00" y="235.00" font-size="9" fill="#111827" text-anchor="middle" transform="rotate(-45 40.00 235.00)">09.08.2025</text><text x="108.33" y="235.00" font-size="9" fill="#111827" text-anchor="middle" transform="rotate(-45 108.33 235.00)">09.08.2025</text><text x="176.67" y="235.00" font-size="9" fill="#111827" text-anchor="middle" transform="rotate(-45 176.67 235.00)">12.08.2025</text><text x="245.00" y="235.00" font-size="9" fill="#111827" text-anchor="middle" transform="rotate(-45 245.00 235.00)">13.08.2025</text><text x="313.33" y="235.00" font-size="9" fill="#111827" text-anchor="middle" transform="rotate(-45 313.33 235.00)">13.08.2025</text><text x="381.67" y="235.00" font-size="9" fill="#111827" text-anchor="middle" transform="rotate(-45 381.67 235.00)">14.08.2025</text><text x="450.00" y="235.00" font-size="9" fill="#111827" text-anchor="middle" transform="rotate(-45 450.00 235.00)">18.08.2025</text><text x="518.33" y="235.00" font-size="9" fill="#111827" text-anchor="middle" transform="rotate(-45 518.33 235.00)">21.08.2025</text><text x="586.67" y="235.00" font-size="9" fill="#111827" text-anchor="middle" transform="rotate(-45 586.67 235.00)">21.08.2025</text><text x="655.00" y="235.00" font-size="9" fill="#111827" text-anchor="middle" transform="rotate(-45 655.00 235.00)">22.08.2025</text><text x="723.33" y="235.00" font-size="9" fill="#111827" text-anchor="middle" transform="rotate(-45 723.33 235.00)">26.08.2025</text><text x="791.67" y="235.00" font-size="9" fill="#111827" text-anchor="middle" transform="rotate(-45 791.67 235.00)">28.08.2025</text><text x="860.00" y="235.00" font-size="9" fill="#111827" text-anchor="middle" transform="rotate(-45 860.00 235.00)">29.08.2025</text>
  </g>
</svg>