<svg xmlns="http://www.w3.org/2000/svg" width="900" height="290" style="font-family: -apple-system, BlinkMacSystemFont, 'Segoe UI', Helvetica, Arial, sans-serif;">
  <rect width="100%" height="100%" fill="white"/>
  <g>
    <line x1="40" y1="220.00" x2="860" y2="220.00" stroke="#e5e7eb"/><text x="32" y="224.00" font-size="10" fill="#111827" text-anchor="end">0</text><line x1="40" y1="175.00" x2="860" y2="175.00" stroke="#e5e7eb"/><text x="32" y="179.00" font-size="10" fill="#111827" text-anchor="end">500</text><line x1="40" y1="130.00" x2="860" y2="130.00" stroke="#e5e7eb"/><text x="32" y="134.00" font-size="10" fill="#111827" text-anchor="end">1k</text><line x1="40" y1="85.00" x2="860" y2="85.00" stroke="#e5e7eb"/><text x="32" y="89.00" font-size="10" fill="#111827" text-anchor="end">1.5k</text><line x1="40" y1="40.00" x2="860" y2="40.00" stroke="#e5e7eb"/><text x="32" y="44.00" font-size="10" fill="#111827" text-anchor="end">2k</text>
    <line x1="40.00" y1="40" x2="40.00" y2="220" stroke="#e5e7eb" opacity="0.5"/><line x1="118.43" y1="40" x2="118.43" y2="220" stroke="#e5e7eb" opacity="0.5"/><line x1="196.87" y1="40" x2="196.87" y2="220" stroke="#e5e7eb" opacity="0.5"/><line x1="275.30" y1="40" x2="275.30" y2="220" stroke="#e5e7eb" opacity="0.5"/><line x1="353.74" y1="40" x2="353.74" y2="220" stroke="#e5e7eb" opacity="0.5"/><line x1="432.17" y1="40" x2="432.17" y2="220" stroke="#e5e7eb" opacity="0.5"/><line x1="510.61" y1="40" x2="510.61" y2="220" stroke="#e5e7eb" opacity="0.5"/><line x1="589.04" y1="40" x2="589.04" y2="220" stroke="#e5e7eb" opacity="0.5"/><line x1="667.48" y1="40" x2="667.48" y2="220" stroke="#e5e7eb" opacity="0.5"/><line x1="745.91" y1="40" x2="745.91" y2="220" stroke="#e5e7eb" opacity="0.5"/><line x1="824.35" y1="40" x2="824.35" y2="220" stroke="#e5e7eb" opacity="0.5"/>
    <line x1="40" y1="220" x2="860" y2="220" stroke="#9ca3af"/>
    <line x1="40" y1="40"   x2="40"   y2="220" stroke="#9ca3af"/>
    <path d="M 40.00 219.82 L 47.13 211.81 L 54.26 211.81 L 61.39 211.81 L 68.52 171.85 L 75.65 171.58 L 82.78 164.38 L 89.91 118.93 L 97.04 119.11 L 104.17 111.10 L 111.30 110.56 L 118.43 110.56 L 125.57 110.56 L 132.70 95.35 L 139.83 95.35 L 146.96 95.35 L 154.09 94.63 L 161.22 94.54 L 168.35 94.45 L 175.48 94.09 L 182.61 94.09 L 189.74 94.09 L 196.87 94.09 L 204.00 94.09 L 211.13 94.09 L 218.26 94.09 L 225.39 94.09 L 232.52 94.09 L 239.65 91.84 L 246.78 83.65 L 253.91 83.65 L 261.04 83.47 L 268.17 83.65 L 275.30 91.03 L 282.43 91.03 L 289.57 91.03 L 296.70 91.03 L 303.83 91.03 L 310.96 91.03 L 318.09 91.03 L 325.22 91.03 L 332.35 91.03 L 339.48 91.03 L 346.61 91.03 L 353.74 90.94 L 360.87 91.03 L 368.00 90.94 L 375.13 90.94 L 382.26 90.94 L 389.39 90.94 L 396.52 90.94 L 403.65 90.94 L 410.78 90.94 L 417.91 90.94 L 425.04 90.94 L 432.17 90.94 L 439.30 90.94 L 446.43 90.94 L 453.57 90.94 L 460.70 90.94 L 467.83 90.94 L 474.96 90.94 L 482.09 90.94 L 489.22 90.94 L 496.35 90.94 L 503.48 90.94 L 510.61 90.94 L 517.74 90.94 L 524.87 90.94 L 532.00 90.94 L 539.13 90.94 L 546.26 123.79 L 553.39 123.79 L 560.52 123.79 L 567.65 123.79 L 574.78 123.79 L 581.91 123.79 L 589.04 123.79 L 596.17 123.79 L 603.30 123.79 L 610.43 123.79 L 617.57 123.79 L 624.70 123.79 L 631.83 123.79 L 638.96 123.79 L 646.09 123.79 L 653.22 123.79 L 660.35 123.79 L 667.48 123.79 L 674.61 123.79 L 681.74 123.79 L 688.87 123.79 L 696.00 123.79 L 703.13 123.79 L 710.26 123.79 L 717.39 123.79 L 724.52 123.79 L 731.65 123.79 L 738.78 123.79 L 745.91 123.79 L 753.04 123.79 L 760.17 123.79 L 767.30 123.79 L 774.43 123.79 L 781.57 123.79 L 788.70 123.79 L 795.83 123.79 L 802.96 123.79 L 810.09 123.79 L 817.22 123.79 L 824.35 123.79 L 831.48 123.79 L 838.61 123.79 L 845.74 123.79 L 852.87 123.79 L 860.00 123.79" fill="none" stroke="#111827" stroke-width="2"/>
    <circle cx="860.00" cy="123.79" r="3" fill="#111827"/>
    <text x="40.00" y="235.00" font-size="9" fill="#111827" text-anchor="middle" transform="rotate(-45 40.00 235.00)">09.08.2025</text><text x="118.43" y="235.00" font-size="9" fill="#111827" text-anchor="middle" transform="rotate(-45 118.43 235.00)">13.08.2025</text><text x="196.87" y="235.00" font-size="9" fill="#111827" text-anchor="middle" transform="rotate(-45 196.87 235.00)">16.08.2025</text><text x="275.30" y="235.00" font-size="9" fill="#111827" text-anchor="middle" transform="rotate(-45 275.30 235.00)">21.08.2025</text><text x="353.74" y="235.00" font-size="9" fill="#111827" text-anchor="middle" transform="rotate(-45 353.74 235.00)">28.08.2025</text><text x="432.17" y="235.00" font-size="9" fill="#111827" text-anchor="middle" transform="rotate(-45 432.17 235.00)">05.09.2025</text><text x="510.61" y="235.00" font-size="9" fill="#111827" text-anchor="middle" transform="rotate(-45 510.61 235.00)">16.09.2025</text><text x="589.04" y="235.00" font-size="9" fill="#111827" text-anchor="middle" transform="rotate(-45 589.04 235.00)">25.09.2025</text><text x="667.48" y="235.00" font-size="9" fill="#111827" text-anchor="middle" transform="rotate(-45 667.48 235.00)">06.10.2025</text><text x="745.91" y="235.00" font-size="9" fill="#111827" text-anchor="middle" transform="rotate(-45 745.91 235.00)">17.10.2025</text><text x="824.35" y="235.00" font-size="9" fill="#111827" text-anchor="middle" transform="rotate(-45 824.35 235.00)">28.10.2025</text>
  </g>
</svg>