<svg xmlns="http://www.w3.org/2000/svg" width="900" height="290" style="font-family: -apple-system, BlinkMacSystemFont, 'Segoe UI', Helvetica, Arial, sans-serif;">
  <rect width="100%" height="100%" fill="#0d1117"/>
  <g>
    <line x1="40" y1="220.00" x2="860" y2="220.00" stroke="#30363d"/><text x="32" y="224.00" font-size="10" fill="#c9d1d9" text-anchor="end">0</text><line x1="40" y1="175.00" x2="860" y2="175.00" stroke="#30363d"/><text x="32" y="179.00" font-size="10" fill="#c9d1d9" text-anchor="end">500</text><line x1="40" y1="130.00" x2="860" y2="130.00" stroke="#30363d"/><text x="32" y="134.00" font-size="10" fill="#c9d1d9" text-anchor="end">1k</text><line x1="40" y1="85.00" x2="860" y2="85.00" stroke="#30363d"/><text x="32" y="89.00" font-size="10" fill="#c9d1d9" text-anchor="end">1.5k</text><line x1="40" y1="40.00" x2="860" y2="40.00" stroke="#30363d"/><text x="32" y="44.00" font-size="10" fill="#c9d1d9" text-anchor="end">2k</text>
    <line x1="40.00" y1="40" x2="40.00" y2="220" stroke="#30363d" opacity="0.5"/><line x1="121.26" y1="40" x2="121.26" y2="220" stroke="#30363d" opacity="0.5"/><line x1="202.52" y1="40" x2="202.52" y2="220" stroke="#30363d" opacity="0.5"/><line x1="283.78" y1="40" x2="283.78" y2="220" stroke="#30363d" opacity="0.5"/><line x1="365.05" y1="40" x2="365.05" y2="220" stroke="#30363d" opacity="0.5"/><line x1="446.31" y1="40" x2="446.31" y2="220" stroke="#30363d" opacity="0.5"/><line x1="527.57" y1="40" x2="527.57" y2="220" stroke="#30363d" opacity="0.5"/><line x1="608.83" y1="40" x2="608.83" y2="220" stroke="#30363d" opacity="0.5"/><line x1="690.09" y1="40" x2="690.09" y2="220" stroke="#30363d" opacity="0.5"/><line x1="771.35" y1="40" x2="771.35" y2="220" stroke="#30363d" opacity="0.5"/><line x1="852.61" y1="40" x2="852.61" y2="220" stroke="#30363d" opacity="0.5"/>
    <line x1="40" y1="220" x2="860" y2="220" stroke="#30363d"/>
    <line x1="40" y1="40"   x2="40"   y2="220" stroke="#30363d"/>
    <path d="M 40.00 219.82 L 47.39 211.81 L 54.77 211.81 L 62.16 211.81 L 69.55 171.85 L 76.94 171.58 L 84.32 164.38 L 91.71 118.93 L 99.10 119.11 L 106.49 111.10 L 113.87 110.56 L 121.26 110.56 L 128.65 110.56 L 136.04 95.35 L 143.42 95.35 L 150.81 95.35 L 158.20 94.63 L 165.59 94.54 L 172.97 94.45 L 180.36 94.09 L 187.75 94.09 L 195.14 94.09 L 202.52 94.09 L 209.91 94.09 L 217.30 94.09 L 224.68 94.09 L 232.07 94.09 L 239.46 94.09 L 246.85 91.84 L 254.23 83.65 L 261.62 83.65 L 269.01 83.47 L 276.40 83.65 L 283.78 91.03 L 291.17 91.03 L 298.56 91.03 L 305.95 91.03 L 313.33 91.03 L 320.72 91.03 L 328.11 91.03 L 335.50 91.03 L 342.88 91.03 L 350.27 91.03 L 357.66 91.03 L 365.05 90.94 L 372.43 91.03 L 379.82 90.94 L 387.21 90.94 L 394.59 90.94 L 401.98 90.94 L 409.37 90.94 L 416.76 90.94 L 424.14 90.94 L 431.53 90.94 L 438.92 90.94 L 446.31 90.94 L 453.69 90.94 L 461.08 90.94 L 468.47 90.94 L 475.86 90.94 L 483.24 90.94 L 490.63 90.94 L 498.02 90.94 L 505.41 90.94 L 512.79 90.94 L 520.18 90.94 L 527.57 90.94 L 534.95 90.94 L 542.34 90.94 L 549.73 90.94 L 557.12 90.94 L 564.50 123.79 L 571.89 123.79 L 579.28 123.79 L 586.67 123.79 L 594.05 123.79 L 601.44 123.79 L 608.83 123.79 L 616.22 123.79 L 623.60 123.79 L 630.99 123.79 L 638.38 123.79 L 645.77 123.79 L 653.15 123.79 L 660.54 123.79 L 667.93 123.79 L 675.32 123.79 L 682.70 123.79 L 690.09 123.79 L 697.48 123.79 L 704.86 123.79 L 712.25 123.79 L 719.64 123.79 L 727.03 123.79 L 734.41 123.79 L 741.80 123.79 L 749.19 123.79 L 756.58 123.79 L 763.96 123.79 L 771.35 123.79 L 778.74 123.79 L 786.13 123.79 L 793.51 123.79 L 800.90 123.79 L 808.29 123.79 L 815.68 123.79 L 823.06 123.79 L 830.45 123.79 L 837.84 123.79 L 845.23 123.79 L 852.61 123.79 L 860.00 123.79" fill="none" stroke="#3fb950" stroke-width="2"/>
    <circle cx="860.00" cy="123.79" r="3" fill="#3fb950"/>
    <text x="40.00" y="235.00" font-size="9" fill="#c9d1d9" text-anchor="middle" transform="rotate(-45 40.00 235.00)">09.08.2025</text><text x="121.26" y="235.00" font-size="9" fill="#c9d1d9" text-anchor="middle" transform="rotate(-45 121.26 235.00)">13.08.2025</text><text x="202.52" y="235.00" font-size="9" fill="#c9d1d9" text-anchor="middle" transform="rotate(-45 202.52 235.00)">16.08.2025</text><text x="283.78" y="235.00" font-size="9" fill="#c9d1d9" text-anchor="middle" transform="rotate(-45 283.78 235.00)">21.08.2025</text><text x="365.05" y="235.00" font-size="9" fill="#c9d1d9" text-anchor="middle" transform="rotate(-45 365.05 235.00)">28.08.2025</text><text x="446.31" y="235.00" font-size="9" fill="#c9d1d9" text-anchor="middle" transform="rotate(-45 446.31 235.00)">05.09.2025</text><text x="527.57" y="235.00" font-size="9" fill="#c9d1d9" text-anchor="middle" transform="rotate(-45 527.57 235.00)">16.09.2025</text><text x="608.83" y="235.00" font-size="9" fill="#c9d1d9" text-anchor="middle" transform="rotate(-45 608.83 235.00)">25.09.2025</text><text x="690.09" y="235.00" font-size="9" fill="#c9d1d9" text-anchor="middle" transform="rotate(-45 690.09 235.00)">06.10.2025</text><text x="771.35" y="235.00" font-size="9" fill="#c9d1d9" text-anchor="middle" transform="rotate(-45 771.35 235.00)">17.10.2025</text><text x="852.61" y="235.00" font-size="9" fill="#c9d1d9" text-anchor="middle" transform="rotate(-45 852.61 235.00)">28.10.2025</text>
  </g>
</svg>