<svg xmlns="http://www.w3.org/2000/svg" width="900" height="290" style="font-family: -apple-system, BlinkMacSystemFont, 'Segoe UI', Helvetica, Arial, sans-serif;">
  <rect width="100%" height="100%" fill="white"/>
  <g>
    <line x1="40" y1="220.00" x2="860" y2="220.00" stroke="#e5e7eb"/><text x="32" y="224.00" font-size="10" fill="#111827" text-anchor="end">0</text><line x1="40" y1="175.00" x2="860" y2="175.00" stroke="#e5e7eb"/><text x="32" y="179.00" font-size="10" fill="#111827" text-anchor="end">500</text><line x1="40" y1="130.00" x2="860" y2="130.00" stroke="#e5e7eb"/><text x="32" y="134.00" font-size="10" fill="#111827" text-anchor="end">1k</text><line x1="40" y1="85.00" x2="860" y2="85.00" stroke="#e5e7eb"/><text x="32" y="89.00" font-size="10" fill="#111827" text-anchor="end">1.5k</text><line x1="40" y1="40.00" x2="860" y2="40.00" stroke="#e5e7eb"/><text x="32" y="44.00" font-size="10" fill="#111827" text-anchor="end">2k</text>
    <line x1="40.00" y1="40" x2="40.00" y2="220" stroke="#e5e7eb" opacity="0.5"/><line x1="119.35" y1="40" x2="119.35" y2="220" stroke="#e5e7eb" opacity="0.5"/><line x1="198.71" y1="40" x2="198.71" y2="220" stroke="#e5e7eb" opacity="0.5"/><line x1="278.06" y1="40" x2="278.06" y2="220" stroke="#e5e7eb" opacity="0.5"/><line x1="357.42" y1="40" x2="357.42" y2="220" stroke="#e5e7eb" opacity="0.5"/><line x1="436.77" y1="40" x2="436.77" y2="220" stroke="#e5e7eb" opacity="0.5"/><line x1="516.13" y1="40" x2="516.13" y2="220" stroke="#e5e7eb" opacity="0.5"/><line x1="595.48" y1="40" x2="595.48" y2="220" stroke="#e5e7eb" opacity="0.5"/><line x1="674.84" y1="40" x2="674.84" y2="220" stroke="#e5e7eb" opacity="0.5"/><line x1="754.19" y1="40" x2="754.19" y2="220" stroke="#e5e7eb" opacity="0.5"/><line x1="833.55" y1="40" x2="833.55" y2="220" stroke="#e5e7eb" opacity="0.5"/>
    <line x1="40" y1="220" x2="860" y2="220" stroke="#9ca3af"/>
    <line x1="40" y1="40"   x2="40"   y2="220" stroke="#9ca3af"/>
    <path d="M 40.00 219.82 L 48.82 211.81 L 57.63 211.81 L 66.45 211.81 L 75.27 171.85 L 84.09 171.58 L 92.90 164.38 L 101.72 118.93 L 110.54 119.11 L 119.35 111.10 L 128.17 110.56 L 136.99 110.56 L 145.81 110.56 L 154.62 95.35 L 163.44 95.35 L 172.26 95.35 L 181.08 94.63 L 189.89 94.54 L 198.71 94.45 L 207.53 94.09 L 216.34 94.09 L 225.16 94.09 L 233.98 94.09 L 242.80 94.09 L 251.61 94.09 L 260.43 94.09 L 269.25 94.09 L 278.06 94.09 L 286.88 91.84 L 295.70 83.65 L 304.52 83.65 L 313.33 83.47 L 322.15 83.65 L 330.97 91.03 L 339.78 91.03 L 348.60 91.03 L 357.42 91.03 L 366.24 91.03 L 375.05 91.03 L 383.87 91.03 L 392.69 91.03 L 401.51 91.03 L 410.32 91.03 L 419.14 91.03 L 427.96 90.94 L 436.77 91.03 L 445.59 90.94 L 454.41 90.94 L 463.23 90.94 L 472.04 90.94 L 480.86 90.94 L 489.68 90.94 L 498.49 90.94 L 507.31 90.94 L 516.13 90.94 L 524.95 90.94 L 533.76 90.94 L 542.58 90.94 L 551.40 90.94 L 560.22 90.94 L 569.03 90.94 L 577.85 90.94 L 586.67 90.94 L 595.48 90.94 L 604.30 90.94 L 613.12 90.94 L 621.94 90.94 L 630.75 90.94 L 639.57 90.94 L 648.39 90.94 L 657.20 90.94 L 666.02 123.79 L 674.84 123.79 L 683.66 123.79 L 692.47 123.79 L 701.29 123.79 L 710.11 123.79 L 718.92 123.79 L 727.74 123.79 L 736.56 123.79 L 745.38 123.79 L 754.19 123.79 L 763.01 123.79 L 771.83 123.79 L 780.65 123.79 L 789.46 123.79 L 798.28 123.79 L 807.10 123.79 L 815.91 123.79 L 824.73 123.79 L 833.55 123.79 L 842.37 123.79 L 851.18 123.79 L 860.00 123.79" fill="none" stroke="#111827" stroke-width="2"/>
    <circle cx="860.00" cy="123.79" r="3" fill="#111827"/>
    <text x="40.00" y="235.00" font-size="9" fill="#111827" text-anchor="middle" transform="rotate(-45 40.00 235.00)">09.08.2025</text><text x="119.35" y="235.00" font-size="9" fill="#111827" text-anchor="middle" transform="rotate(-45 119.35 235.00)">13.08.2025</text><text x="198.71" y="235.00" font-size="9" fill="#111827" text-anchor="middle" transform="rotate(-45 198.71 235.00)">13.08.2025</text><text x="278.06" y="235.00" font-size="9" fill="#111827" text-anchor="middle" transform="rotate(-45 278.06 235.00)">21.08.2025</text><text x="357.42" y="235.00" font-size="9" fill="#111827" text-anchor="middle" transform="rotate(-45 357.42 235.00)">22.08.2025</text><text x="436.77" y="235.00" font-size="9" fill="#111827" text-anchor="middle" transform="rotate(-45 436.77 235.00)">28.08.2025</text><text x="516.13" y="235.00" font-size="9" fill="#111827" text-anchor="middle" transform="rotate(-45 516.13 235.00)">04.09.2025</text><text x="595.48" y="235.00" font-size="9" fill="#111827" text-anchor="middle" transform="rotate(-45 595.48 235.00)">13.09.2025</text><text x="674.84" y="235.00" font-size="9" fill="#111827" text-anchor="middle" transform="rotate(-45 674.84 235.00)">21.09.2025</text><text x="754.19" y="235.00" font-size="9" fill="#111827" text-anchor="middle" transform="rotate(-45 754.19 235.00)">29.09.2025</text><text x="833.55" y="235.00" font-size="9" fill="#111827" text-anchor="middle" transform="rotate(-45 833.55 235.00)">08.10.2025</text>
  </g>
</svg>