<svg xmlns="http://www.w3.org/2000/svg" width="900" height="290" style="font-family: -apple-system, BlinkMacSystemFont, 'Segoe UI', Helvetica, Arial, sans-serif;">
  <rect width="100%" height="100%" fill="white"/>
  <g>
    <line x1="40" y1="220.00" x2="860" y2="220.00" stroke="#e5e7eb"/><text x="32" y="224.00" font-size="10" fill="#111827" text-anchor="end">0</text><line x1="40" y1="175.00" x2="860" y2="175.00" stroke="#e5e7eb"/><text x="32" y="179.00" font-size="10" fill="#111827" text-anchor="end">500</text><line x1="40" y1="130.00" x2="860" y2="130.00" stroke="#e5e7eb"/><text x="32" y="134.00" font-size="10" fill="#111827" text-anchor="end">1k</text><line x1="40" y1="85.00" x2="860" y2="85.00" stroke="#e5e7eb"/><text x="32" y="89.00" font-size="10" fill="#111827" text-anchor="end">1.5k</text><line x1="40" y1="40.00" x2="860" y2="40.00" stroke="#e5e7eb"/><text x="32" y="44.00" font-size="10" fill="#111827" text-anchor="end">2k</text>
    <line x1="40.00" y1="40" x2="40.00" y2="220" stroke="#e5e7eb" opacity="0.5"/><line x1="114.55" y1="40" x2="114.55" y2="220" stroke="#e5e7eb" opacity="0.5"/><line x1="189.09" y1="40" x2="189.09" y2="220" stroke="#e5e7eb" opacity="0.5"/><line x1="263.64" y1="40" x2="263.64" y2="220" stroke="#e5e7eb" opacity="0.5"/><line x1="338.18" y1="40" x2="338.18" y2="220" stroke="#e5e7eb" opacity="0.5"/><line x1="412.73" y1="40" x2="412.73" y2="220" stroke="#e5e7eb" opacity="0.5"/><line x1="487.27" y1="40" x2="487.27" y2="220" stroke="#e5e7eb" opacity="0.5"/><line x1="561.82" y1="40" x2="561.82" y2="220" stroke="#e5e7eb" opacity="0.5"/><line x1="636.36" y1="40" x2="636.36" y2="220" stroke="#e5e7eb" opacity="0.5"/><line x1="710.91" y1="40" x2="710.91" y2="220" stroke="#e5e7eb" opacity="0.5"/><line x1="785.45" y1="40" x2="785.45" y2="220" stroke="#e5e7eb" opacity="0.5"/><line x1="860.00" y1="40" x2="860.00" y2="220" stroke="#e5e7eb" opacity="0.5"/>
    <line x1="40" y1="220" x2="860" y2="220" stroke="#9ca3af"/>
    <line x1="40" y1="40"   x2="40"   y2="220" stroke="#9ca3af"/>
    <path d="M 40.00 219.82 L 54.91 211.81 L 69.82 211.81 L 84.73 211.81 L 99.64 171.85 L 114.55 171.58 L 129.45 164.38 L 144.36 118.93 L 159.27 119.11 L 174.18 111.10 L 189.09 110.56 L 204.00 110.56 L 218.91 110.56 L 233.82 95.35 L 248.73 95.35 L 263.64 95.35 L 278.55 94.63 L 293.45 94.54 L 308.36 94.45 L 323.27 94.09 L 338.18 94.09 L 353.09 94.09 L 368.00 94.09 L 382.91 94.09 L 397.82 94.09 L 412.73 94.09 L 427.64 94.09 L 442.55 94.09 L 457.45 91.84 L 472.36 83.65 L 487.27 83.65 L 502.18 83.47 L 517.09 83.65 L 532.00 91.03 L 546.91 91.03 L 561.82 91.03 L 576.73 91.03 L 591.64 91.03 L 606.55 91.03 L 621.45 91.03 L 636.36 91.03 L 651.27 91.03 L 666.18 91.03 L 681.09 91.03 L 696.00 90.94 L 710.91 91.03 L 725.82 90.94 L 740.73 90.94 L 755.64 90.94 L 770.55 90.94 L 785.45 90.94 L 800.36 90.94 L 815.27 90.94 L 830.18 90.94 L 845.09 90.94 L 860.00 90.94" fill="none" stroke="#111827" stroke-width="2"/>
    <circle cx="860.00" cy="90.94" r="3" fill="#111827"/>
    <text x="40.00" y="235.00" font-size="9" fill="#111827" text-anchor="middle" transform="rotate(-45 40.00 235.00)">09.08.2025</text><text x="114.55" y="235.00" font-size="9" fill="#111827" text-anchor="middle" transform="rotate(-45 114.55 235.00)">09.08.2025</text><text x="189.09" y="235.00" font-size="9" fill="#111827" text-anchor="middle" transform="rotate(-45 189.09 235.00)">13.08.2025</text><text x="263.64" y="235.00" font-size="9" fill="#111827" text-anchor="middle" transform="rotate(-45 263.64 235.00)">13.08.2025</text><text x="338.18" y="235.00" font-size="9" fill="#111827" text-anchor="middle" transform="rotate(-45 338.18 235.00)">14.08.2025</text><text x="412.73" y="235.00" font-size="9" fill="#111827" text-anchor="middle" transform="rotate(-45 412.73 235.00)">19.08.2025</text><text x="487.27" y="235.00" font-size="9" fill="#111827" text-anchor="middle" transform="rotate(-45 487.27 235.00)">21.08.2025</text><text x="561.82" y="235.00" font-size="9" fill="#111827" text-anchor="middle" transform="rotate(-45 561.82 235.00)">21.08.2025</text><text x="636.36" y="235.00" font-size="9" fill="#111827" text-anchor="middle" transform="rotate(-45 636.36 235.00)">26.08.2025</text><text x="710.91" y="235.00" font-size="9" fill="#111827" text-anchor="middle" transform="rotate(-45 710.91 235.00)">28.08.2025</text><text x="785.45" y="235.00" font-size="9" fill="#111827" text-anchor="middle" transform="rotate(-45 785.45 235.00)">31.08.2025</text><text x="860.00" y="235.00" font-size="9" fill="#111827" text-anchor="middle" transform="rotate(-45 860.00 235.00)">05.09.2025</text>
  </g>
</svg>