<svg xmlns="http://www.w3.org/2000/svg" width="900" height="290" style="font-family: -apple-system, BlinkMacSystemFont, 'Segoe UI', Helvetica, Arial, sans-serif;">
  <rect width="100%" height="100%" fill="#0d1117"/>
  <g>
    <line x1="40" y1="220.00" x2="860" y2="220.00" stroke="#30363d"/><text x="32" y="224.00" font-size="10" fill="#c9d1d9" text-anchor="end">0</text><line x1="40" y1="175.00" x2="860" y2="175.00" stroke="#30363d"/><text x="32" y="179.00" font-size="10" fill="#c9d1d9" text-anchor="end">500</text><line x1="40" y1="130.00" x2="860" y2="130.00" stroke="#30363d"/><text x="32" y="134.00" font-size="10" fill="#c9d1d9" text-anchor="end">1k</text><line x1="40" y1="85.00" x2="860" y2="85.00" stroke="#30363d"/><text x="32" y="89.00" font-size="10" fill="#c9d1d9" text-anchor="end">1.5k</text><line x1="40" y1="40.00" x2="860" y2="40.00" stroke="#30363d"/><text x="32" y="44.00" font-size="10" fill="#c9d1d9" text-anchor="end">2k</text>
    <line x1="40.00" y1="40" x2="40.00" y2="220" stroke="#30363d" opacity="0.5"/><line x1="122.00" y1="40" x2="122.00" y2="220" stroke="#30363d" opacity="0.5"/><line x1="204.00" y1="40" x2="204.00" y2="220" stroke="#30363d" opacity="0.5"/><line x1="286.00" y1="40" x2="286.00" y2="220" stroke="#30363d" opacity="0.5"/><line x1="368.00" y1="40" x2="368.00" y2="220" stroke="#30363d" opacity="0.5"/><line x1="450.00" y1="40" x2="450.00" y2="220" stroke="#30363d" opacity="0.5"/><line x1="532.00" y1="40" x2="532.00" y2="220" stroke="#30363d" opacity="0.5"/><line x1="614.00" y1="40" x2="614.00" y2="220" stroke="#30363d" opacity="0.5"/><line x1="696.00" y1="40" x2="696.00" y2="220" stroke="#30363d" opacity="0.5"/><line x1="778.00" y1="40" x2="778.00" y2="220" stroke="#30363d" opacity="0.5"/><line x1="860.00" y1="40" x2="860.00" y2="220" stroke="#30363d" opacity="0.5"/>
    <line x1="40" y1="220" x2="860" y2="220" stroke="#30363d"/>
    <line x1="40" y1="40"   x2="40"   y2="220" stroke="#30363d"/>
    <path d="M 40.00 219.82 L 43.73 211.81 L 47.45 211.81 L 51.18 211.81 L 54.91 171.85 L 58.64 171.58 L 62.36 164.38 L 66.09 118.93 L 69.82 119.11 L 73.55 111.10 L 77.27 110.56 L 81.00 110.56 L 84.73 110.56 L 88.45 95.35 L 92.18 95.35 L 95.91 95.35 L 99.64 94.63 L 103.36 94.54 L 107.09 94.45 L 110.82 94.09 L 114.55 94.09 L 118.27 94.09 L 122.00 94.09 L 125.73 94.09 L 129.45 94.09 L 133.18 94.09 L 136.91 94.09 L 140.64 94.09 L 144.36 91.84 L 148.09 83.65 L 151.82 83.65 L 155.55 83.47 L 159.27 83.65 L 163.00 91.03 L 166.73 91.03 L 170.45 91.03 L 174.18 91.03 L 177.91 91.03 L 181.64 91.03 L 185.36 91.03 L 189.09 91.03 L 192.82 91.03 L 196.55 91.03 L 200.27 91.03 L 204.00 90.94 L 207.73 91.03 L 211.45 90.94 L 215.18 90.94 L 218.91 90.94 L 222.64 90.94 L 226.36 90.94 L 230.09 90.94 L 233.82 90.94 L 237.55 90.94 L 241.27 90.94 L 245.00 90.94 L 248.73 90.94 L 252.45 90.94 L 256.18 90.94 L 259.91 90.94 L 263.64 90.94 L 267.36 90.94 L 271.09 90.94 L 274.82 90.94 L 278.55 90.94 L 282.27 90.94 L 286.00 90.94 L 289.73 90.94 L 293.45 90.94 L 297.18 90.94 L 300.91 90.94 L 304.64 123.79 L 308.36 123.79 L 312.09 123.79 L 315.82 123.79 L 319.55 123.79 L 323.27 123.79 L 327.00 123.79 L 330.73 123.79 L 334.45 123.79 L 338.18 123.79 L 341.91 123.79 L 345.64 123.79 L 349.36 123.79 L 353.09 123.79 L 356.82 123.79 L 360.55 123.79 L 364.27 123.79 L 368.00 123.79 L 371.73 123.79 L 375.45 123.79 L 379.18 123.79 L 382.91 123.79 L 386.64 123.79 L 390.36 123.79 L 394.09 123.79 L 397.82 123.79 L 401.55 123.79 L 405.27 123.79 L 409.00 123.79 L 412.73 123.79 L 416.45 123.79 L 420.18 123.79 L 423.91 123.79 L 427.64 123.79 L 431.36 123.79 L 435.09 123.79 L 438.82 123.79 L 442.55 123.79 L 446.27 123.79 L 450.00 123.79 L 453.73 123.79 L 457.45 123.79 L 461.18 123.79 L 464.91 123.79 L 468.64 123.79 L 472.36 123.79 L 476.09 123.79 L 479.82 123.79 L 483.55 123.79 L 487.27 123.79 L 491.00 123.79 L 494.73 123.79 L 498.45 123.79 L 502.18 123.79 L 505.91 123.79 L 509.64 123.79 L 513.36 123.79 L 517.09 123.79 L 520.82 123.79 L 524.55 123.79 L 528.27 123.79 L 532.00 123.79 L 535.73 123.79 L 539.45 123.79 L 543.18 123.79 L 546.91 123.79 L 550.64 123.79 L 554.36 123.79 L 558.09 123.79 L 561.82 123.79 L 565.55 123.79 L 569.27 123.79 L 573.00 123.79 L 576.73 123.79 L 580.45 123.79 L 584.18 123.79 L 587.91 123.79 L 591.64 115.42 L 595.36 111.64 L 599.09 107.86 L 602.82 104.08 L 606.55 100.30 L 610.27 95.98 L 614.00 95.98 L 617.73 95.98 L 621.45 95.98 L 625.18 85.72 L 628.91 85.72 L 632.64 85.72 L 636.36 85.72 L 640.09 85.72 L 643.82 85.72 L 647.55 85.72 L 651.27 85.72 L 655.00 85.72 L 658.73 85.72 L 662.45 85.72 L 666.18 85.72 L 669.91 85.72 L 673.64 85.72 L 677.36 85.72 L 681.09 85.72 L 684.82 85.72 L 688.55 85.72 L 692.27 85.72 L 696.00 85.72 L 699.73 85.72 L 703.45 85.72 L 707.18 85.72 L 710.91 85.72 L 714.64 85.72 L 718.36 85.72 L 722.09 85.72 L 725.82 85.72 L 729.55 85.72 L 733.27 85.72 L 737.00 85.72 L 740.73 85.72 L 744.45 85.72 L 748.18 85.72 L 751.91 85.72 L 755.64 85.72 L 759.36 85.72 L 763.09 85.72 L 766.82 85.72 L 770.55 85.72 L 774.27 85.72 L 778.00 85.72 L 781.73 85.72 L 785.45 85.72 L 789.18 85.72 L 792.91 85.72 L 796.64 85.72 L 800.36 85.72 L 804.09 85.72 L 807.82 85.72 L 811.55 85.72 L 815.27 85.72 L 819.00 85.72 L 822.73 85.72 L 826.45 85.72 L 830.18 85.72 L 833.91 85.72 L 837.64 85.72 L 841.36 85.72 L 845.09 85.72 L 848.82 85.72 L 852.55 85.72 L 856.27 85.72 L 860.00 85.72" fill="none" stroke="#3fb950" stroke-width="2"/>
    <circle cx="860.00" cy="85.72" r="3" fill="#3fb950"/>
    <text x="40.00" y="235.00" font-size="9" fill="#c9d1d9" text-anchor="middle" transform="rotate(-45 40.00 235.00)">09.08.2025</text><text x="122.00" y="235.00" font-size="9" fill="#c9d1d9" text-anchor="middle" transform="rotate(-45 122.00 235.00)">16.08.2025</text><text x="204.00" y="235.00" font-size="9" fill="#c9d1d9" text-anchor="middle" transform="rotate(-45 204.00 235.00)">28.08.2025</text><text x="286.00" y="235.00" font-size="9" fill="#c9d1d9" text-anchor="middle" transform="rotate(-45 286.00 235.00)">16.09.2025</text><text x="368.00" y="235.00" font-size="9" fill="#c9d1d9" text-anchor="middle" transform="rotate(-45 368.00 235.00)">06.10.2025</text><text x="450.00" y="235.00" font-size="9" fill="#c9d1d9" text-anchor="middle" transform="rotate(-45 450.00 235.00)">28.10.2025</text><text x="532.00" y="235.00" font-size="9" fill="#c9d1d9" text-anchor="middle" transform="rotate(-45 532.00 235.00)">19.11.2025</text><text x="614.00" y="235.00" font-size="9" fill="#c9d1d9" text-anchor="middle" transform="rotate(-45 614.00 235.00)">05.12.2025</text><text x="696.00" y="235.00" font-size="9" fill="#c9d1d9" text-anchor="middle" transform="rotate(-45 696.00 235.00)">26.12.2025</text><text x="778.00" y="235.00" font-size="9" fill="#c9d1d9" text-anchor="middle" transform="rotate(-45 778.00 235.00)">17.01.2026</text><text x="860.00" y="235.00" font-size="9" fill="#c9d1d9" text-anchor="middle" transform="rotate(-45 860.00 235.00)">08.02.2026</text>
  </g>
</svg>