<svg xmlns="http://www.w3.org/2000/svg" width="900" height="290" style="font-family: -apple-system, BlinkMacSystemFont, 'Segoe UI', Helvetica, Arial, sans-serif;">
  <rect width="100%" height="100%" fill="white"/>
  <g>
    <line x1="40" y1="220.00" x2="860" y2="220.00" stroke="#e5e7eb"/><text x="32" y="224.00" font-size="10" fill="#111827" text-anchor="end">0</text><line x1="40" y1="175.00" x2="860" y2="175.00" stroke="#e5e7eb"/><text x="32" y="179.00" font-size="10" fill="#111827" text-anchor="end">500</text><line x1="40" y1="130.00" x2="860" y2="130.00" stroke="#e5e7eb"/><text x="32" y="134.00" font-size="10" fill="#111827" text-anchor="end">1k</text><line x1="40" y1="85.00" x2="860" y2="85.00" stroke="#e5e7eb"/><text x="32" y="89.00" font-size="10" fill="#111827" text-anchor="end">1.5k</text><line x1="40" y1="40.00" x2="860" y2="40.00" stroke="#e5e7eb"/><text x="32" y="44.00" font-size="10" fill="#111827" text-anchor="end">2k</text>
    <line x1="40.00" y1="40" x2="40.00" y2="220" stroke="#e5e7eb" opacity="0.5"/><line x1="120.28" y1="40" x2="120.28" y2="220" stroke="#e5e7eb" opacity="0.5"/><line x1="200.56" y1="40" x2="200.56" y2="220" stroke="#e5e7eb" opacity="0.5"/><line x1="280.84" y1="40" x2="280.84" y2="220" stroke="#e5e7eb" opacity="0.5"/><line x1="361.12" y1="40" x2="361.12" y2="220" stroke="#e5e7eb" opacity="0.5"/><line x1="441.40" y1="40" x2="441.40" y2="220" stroke="#e5e7eb" opacity="0.5"/><line x1="521.68" y1="40" x2="521.68" y2="220" stroke="#e5e7eb" opacity="0.5"/><line x1="601.96" y1="40" x2="601.96" y2="220" stroke="#e5e7eb" opacity="0.5"/><line x1="682.24" y1="40" x2="682.24" y2="220" stroke="#e5e7eb" opacity="0.5"/><line x1="762.52" y1="40" x2="762.52" y2="220" stroke="#e5e7eb" opacity="0.5"/><line x1="842.80" y1="40" x2="842.80" y2="220" stroke="#e5e7eb" opacity="0.5"/>
    <line x1="40" y1="220" x2="860" y2="220" stroke="#9ca3af"/>
    <line x1="40" y1="40"   x2="40"   y2="220" stroke="#9ca3af"/>
    <path d="M 40.00 219.82 L 45.73 211.81 L 51.47 211.81 L 57.20 211.81 L 62.94 171.85 L 68.67 171.58 L 74.41 164.38 L 80.14 118.93 L 85.87 119.11 L 91.61 111.10 L 97.34 110.56 L 103.08 110.56 L 108.81 110.56 L 114.55 95.35 L 120.28 95.35 L 126.01 95.35 L 131.75 94.63 L 137.48 94.54 L 143.22 94.45 L 148.95 94.09 L 154.69 94.09 L 160.42 94.09 L 166.15 94.09 L 171.89 94.09 L 177.62 94.09 L 183.36 94.09 L 189.09 94.09 L 194.83 94.09 L 200.56 91.84 L 206.29 83.65 L 212.03 83.65 L 217.76 83.47 L 223.50 83.65 L 229.23 91.03 L 234.97 91.03 L 240.70 91.03 L 246.43 91.03 L 252.17 91.03 L 257.90 91.03 L 263.64 91.03 L 269.37 91.03 L 275.10 91.03 L 280.84 91.03 L 286.57 91.03 L 292.31 90.94 L 298.04 91.03 L 303.78 90.94 L 309.51 90.94 L 315.24 90.94 L 320.98 90.94 L 326.71 90.94 L 332.45 90.94 L 338.18 90.94 L 343.92 90.94 L 349.65 90.94 L 355.38 90.94 L 361.12 90.94 L 366.85 90.94 L 372.59 90.94 L 378.32 90.94 L 384.06 90.94 L 389.79 90.94 L 395.52 90.94 L 401.26 90.94 L 406.99 90.94 L 412.73 90.94 L 418.46 90.94 L 424.20 90.94 L 429.93 90.94 L 435.66 90.94 L 441.40 90.94 L 447.13 123.79 L 452.87 123.79 L 458.60 123.79 L 464.34 123.79 L 470.07 123.79 L 475.80 123.79 L 481.54 123.79 L 487.27 123.79 L 493.01 123.79 L 498.74 123.79 L 504.48 123.79 L 510.21 123.79 L 515.94 123.79 L 521.68 123.79 L 527.41 123.79 L 533.15 123.79 L 538.88 123.79 L 544.62 123.79 L 550.35 123.79 L 556.08 123.79 L 561.82 123.79 L 567.55 123.79 L 573.29 123.79 L 579.02 123.79 L 584.76 123.79 L 590.49 123.79 L 596.22 123.79 L 601.96 123.79 L 607.69 123.79 L 613.43 123.79 L 619.16 123.79 L 624.90 123.79 L 630.63 123.79 L 636.36 123.79 L 642.10 123.79 L 647.83 123.79 L 653.57 123.79 L 659.30 123.79 L 665.03 123.79 L 670.77 123.79 L 676.50 123.79 L 682.24 123.79 L 687.97 123.79 L 693.71 123.79 L 699.44 123.79 L 705.17 123.79 L 710.91 123.79 L 716.64 123.79 L 722.38 123.79 L 728.11 123.79 L 733.85 123.79 L 739.58 123.79 L 745.31 123.79 L 751.05 123.79 L 756.78 123.79 L 762.52 123.79 L 768.25 123.79 L 773.99 123.79 L 779.72 123.79 L 785.45 123.79 L 791.19 123.79 L 796.92 123.79 L 802.66 123.79 L 808.39 123.79 L 814.13 123.79 L 819.86 123.79 L 825.59 123.79 L 831.33 123.79 L 837.06 123.79 L 842.80 123.79 L 848.53 123.79 L 854.27 123.79 L 860.00 123.79" fill="none" stroke="#111827" stroke-width="2"/>
    <circle cx="860.00" cy="123.79" r="3" fill="#111827"/>
    <text x="40.00" y="235.00" font-size="9" fill="#111827" text-anchor="middle" transform="rotate(-45 40.00 235.00)">09.08.2025</text><text x="120.28" y="235.00" font-size="9" fill="#111827" text-anchor="middle" transform="rotate(-45 120.28 235.00)">13.08.2025</text><text x="200.56" y="235.00" font-size="9" fill="#111827" text-anchor="middle" transform="rotate(-45 200.56 235.00)">21.08.2025</text><text x="280.84" y="235.00" font-size="9" fill="#111827" text-anchor="middle" transform="rotate(-45 280.84 235.00)">28.08.2025</text><text x="361.12" y="235.00" font-size="9" fill="#111827" text-anchor="middle" transform="rotate(-45 361.12 235.00)">06.09.2025</text><text x="441.40" y="235.00" font-size="9" fill="#111827" text-anchor="middle" transform="rotate(-45 441.40 235.00)">20.09.2025</text><text x="521.68" y="235.00" font-size="9" fill="#111827" text-anchor="middle" transform="rotate(-45 521.68 235.00)">02.10.2025</text><text x="601.96" y="235.00" font-size="9" fill="#111827" text-anchor="middle" transform="rotate(-45 601.96 235.00)">16.10.2025</text><text x="682.24" y="235.00" font-size="9" fill="#111827" text-anchor="middle" transform="rotate(-45 682.24 235.00)">30.10.2025</text><text x="762.52" y="235.00" font-size="9" fill="#111827" text-anchor="middle" transform="rotate(-45 762.52 235.00)">13.11.2025</text><text x="842.80" y="235.00" font-size="9" fill="#111827" text-anchor="middle" transform="rotate(-45 842.80 235.00)">27.11.2025</text>
  </g>
</svg>