<svg xmlns="http://www.w3.org/2000/svg" width="900" height="290" style="font-family: -apple-system, BlinkMacSystemFont, 'Segoe UI', Helvetica, Arial, sans-serif;">
  <rect width="100%" height="100%" fill="white"/>
  <g>
    <line x1="40" y1="220.00" x2="860" y2="220.00" stroke="#e5e7eb"/><text x="32" y="224.00" font-size="10" fill="#111827" text-anchor="end">0</text><line x1="40" y1="175.00" x2="860" y2="175.00" stroke="#e5e7eb"/><text x="32" y="179.00" font-size="10" fill="#111827" text-anchor="end">500</text><line x1="40" y1="130.00" x2="860" y2="130.00" stroke="#e5e7eb"/><text x="32" y="134.00" font-size="10" fill="#111827" text-anchor="end">1k</text><line x1="40" y1="85.00" x2="860" y2="85.00" stroke="#e5e7eb"/><text x="32" y="89.00" font-size="10" fill="#111827" text-anchor="end">1.5k</text><line x1="40" y1="40.00" x2="860" y2="40.00" stroke="#e5e7eb"/><text x="32" y="44.00" font-size="10" fill="#111827" text-anchor="end">2k</text>
    <line x1="40.00" y1="40" x2="40.00" y2="220" stroke="#e5e7eb" opacity="0.5"/><line x1="120.76" y1="40" x2="120.76" y2="220" stroke="#e5e7eb" opacity="0.5"/><line x1="201.52" y1="40" x2="201.52" y2="220" stroke="#e5e7eb" opacity="0.5"/><line x1="282.27" y1="40" x2="282.27" y2="220" stroke="#e5e7eb" opacity="0.5"/><line x1="363.03" y1="40" x2="363.03" y2="220" stroke="#e5e7eb" opacity="0.5"/><line x1="443.79" y1="40" x2="443.79" y2="220" stroke="#e5e7eb" opacity="0.5"/><line x1="524.55" y1="40" x2="524.55" y2="220" stroke="#e5e7eb" opacity="0.5"/><line x1="605.30" y1="40" x2="605.30" y2="220" stroke="#e5e7eb" opacity="0.5"/><line x1="686.06" y1="40" x2="686.06" y2="220" stroke="#e5e7eb" opacity="0.5"/><line x1="766.82" y1="40" x2="766.82" y2="220" stroke="#e5e7eb" opacity="0.5"/><line x1="847.58" y1="40" x2="847.58" y2="220" stroke="#e5e7eb" opacity="0.5"/>
    <line x1="40" y1="220" x2="860" y2="220" stroke="#9ca3af"/>
    <line x1="40" y1="40"   x2="40"   y2="220" stroke="#9ca3af"/>
    <path d="M 40.00 219.82 L 46.21 211.81 L 52.42 211.81 L 58.64 211.81 L 64.85 171.85 L 71.06 171.58 L 77.27 164.38 L 83.48 118.93 L 89.70 119.11 L 95.91 111.10 L 102.12 110.56 L 108.33 110.56 L 114.55 110.56 L 120.76 95.35 L 126.97 95.35 L 133.18 95.35 L 139.39 94.63 L 145.61 94.54 L 151.82 94.45 L 158.03 94.09 L 164.24 94.09 L 170.45 94.09 L 176.67 94.09 L 182.88 94.09 L 189.09 94.09 L 195.30 94.09 L 201.52 94.09 L 207.73 94.09 L 213.94 91.84 L 220.15 83.65 L 226.36 83.65 L 232.58 83.47 L 238.79 83.65 L 245.00 91.03 L 251.21 91.03 L 257.42 91.03 L 263.64 91.03 L 269.85 91.03 L 276.06 91.03 L 282.27 91.03 L 288.48 91.03 L 294.70 91.03 L 300.91 91.03 L 307.12 91.03 L 313.33 90.94 L 319.55 91.03 L 325.76 90.94 L 331.97 90.94 L 338.18 90.94 L 344.39 90.94 L 350.61 90.94 L 356.82 90.94 L 363.03 90.94 L 369.24 90.94 L 375.45 90.94 L 381.67 90.94 L 387.88 90.94 L 394.09 90.94 L 400.30 90.94 L 406.52 90.94 L 412.73 90.94 L 418.94 90.94 L 425.15 90.94 L 431.36 90.94 L 437.58 90.94 L 443.79 90.94 L 450.00 90.94 L 456.21 90.94 L 462.42 90.94 L 468.64 90.94 L 474.85 90.94 L 481.06 123.79 L 487.27 123.79 L 493.48 123.79 L 499.70 123.79 L 505.91 123.79 L 512.12 123.79 L 518.33 123.79 L 524.55 123.79 L 530.76 123.79 L 536.97 123.79 L 543.18 123.79 L 549.39 123.79 L 555.61 123.79 L 561.82 123.79 L 568.03 123.79 L 574.24 123.79 L 580.45 123.79 L 586.67 123.79 L 592.88 123.79 L 599.09 123.79 L 605.30 123.79 L 611.52 123.79 L 617.73 123.79 L 623.94 123.79 L 630.15 123.79 L 636.36 123.79 L 642.58 123.79 L 648.79 123.79 L 655.00 123.79 L 661.21 123.79 L 667.42 123.79 L 673.64 123.79 L 679.85 123.79 L 686.06 123.79 L 692.27 123.79 L 698.48 123.79 L 704.70 123.79 L 710.91 123.79 L 717.12 123.79 L 723.33 123.79 L 729.55 123.79 L 735.76 123.79 L 741.97 123.79 L 748.18 123.79 L 754.39 123.79 L 760.61 123.79 L 766.82 123.79 L 773.03 123.79 L 779.24 123.79 L 785.45 123.79 L 791.67 123.79 L 797.88 123.79 L 804.09 123.79 L 810.30 123.79 L 816.52 123.79 L 822.73 123.79 L 828.94 123.79 L 835.15 123.79 L 841.36 123.79 L 847.58 123.79 L 853.79 123.79 L 860.00 123.79" fill="none" stroke="#111827" stroke-width="2"/>
    <circle cx="860.00" cy="123.79" r="3" fill="#111827"/>
    <text x="40.00" y="235.00" font-size="9" fill="#111827" text-anchor="middle" transform="rotate(-45 40.00 235.00)">09.08.2025</text><text x="120.76" y="235.00" font-size="9" fill="#111827" text-anchor="middle" transform="rotate(-45 120.76 235.00)">13.08.2025</text><text x="201.52" y="235.00" font-size="9" fill="#111827" text-anchor="middle" transform="rotate(-45 201.52 235.00)">20.08.2025</text><text x="282.27" y="235.00" font-size="9" fill="#111827" text-anchor="middle" transform="rotate(-45 282.27 235.00)">25.08.2025</text><text x="363.03" y="235.00" font-size="9" fill="#111827" text-anchor="middle" transform="rotate(-45 363.03 235.00)">02.09.2025</text><text x="443.79" y="235.00" font-size="9" fill="#111827" text-anchor="middle" transform="rotate(-45 443.79 235.00)">15.09.2025</text><text x="524.55" y="235.00" font-size="9" fill="#111827" text-anchor="middle" transform="rotate(-45 524.55 235.00)">26.09.2025</text><text x="605.30" y="235.00" font-size="9" fill="#111827" text-anchor="middle" transform="rotate(-45 605.30 235.00)">09.10.2025</text><text x="686.06" y="235.00" font-size="9" fill="#111827" text-anchor="middle" transform="rotate(-45 686.06 235.00)">22.10.2025</text><text x="766.82" y="235.00" font-size="9" fill="#111827" text-anchor="middle" transform="rotate(-45 766.82 235.00)">04.11.2025</text><text x="847.58" y="235.00" font-size="9" fill="#111827" text-anchor="middle" transform="rotate(-45 847.58 235.00)">17.11.2025</text>
  </g>
</svg>