<svg xmlns="http://www.w3.org/2000/svg" width="900" height="290" style="font-family: -apple-system, BlinkMacSystemFont, 'Segoe UI', Helvetica, Arial, sans-serif;">
  <rect width="100%" height="100%" fill="white"/>
  <g>
    <line x1="40" y1="220.00" x2="860" y2="220.00" stroke="#e5e7eb"/><text x="32" y="224.00" font-size="10" fill="#111827" text-anchor="end">0</text><line x1="40" y1="175.00" x2="860" y2="175.00" stroke="#e5e7eb"/><text x="32" y="179.00" font-size="10" fill="#111827" text-anchor="end">500</text><line x1="40" y1="130.00" x2="860" y2="130.00" stroke="#e5e7eb"/><text x="32" y="134.00" font-size="10" fill="#111827" text-anchor="end">1k</text><line x1="40" y1="85.00" x2="860" y2="85.00" stroke="#e5e7eb"/><text x="32" y="89.00" font-size="10" fill="#111827" text-anchor="end">1.5k</text><line x1="40" y1="40.00" x2="860" y2="40.00" stroke="#e5e7eb"/><text x="32" y="44.00" font-size="10" fill="#111827" text-anchor="end">2k</text>
    <line x1="40.00" y1="40" x2="40.00" y2="220" stroke="#e5e7eb" opacity="0.5"/><line x1="119.72" y1="40" x2="119.72" y2="220" stroke="#e5e7eb" opacity="0.5"/><line x1="199.44" y1="40" x2="199.44" y2="220" stroke="#e5e7eb" opacity="0.5"/><line x1="279.17" y1="40" x2="279.17" y2="220" stroke="#e5e7eb" opacity="0.5"/><line x1="358.89" y1="40" x2="358.89" y2="220" stroke="#e5e7eb" opacity="0.5"/><line x1="438.61" y1="40" x2="438.61" y2="220" stroke="#e5e7eb" opacity="0.5"/><line x1="518.33" y1="40" x2="518.33" y2="220" stroke="#e5e7eb" opacity="0.5"/><line x1="598.06" y1="40" x2="598.06" y2="220" stroke="#e5e7eb" opacity="0.5"/><line x1="677.78" y1="40" x2="677.78" y2="220" stroke="#e5e7eb" opacity="0.5"/><line x1="757.50" y1="40" x2="757.50" y2="220" stroke="#e5e7eb" opacity="0.5"/><line x1="837.22" y1="40" x2="837.22" y2="220" stroke="#e5e7eb" opacity="0.5"/>
    <line x1="40" y1="220" x2="860" y2="220" stroke="#9ca3af"/>
    <line x1="40" y1="40"   x2="40"   y2="220" stroke="#9ca3af"/>
    <path d="M 40.00 219.82 L 51.39 211.81 L 62.78 211.81 L 74.17 211.81 L 85.56 171.85 L 96.94 171.58 L 108.33 164.38 L 119.72 118.93 L 131.11 119.11 L 142.50 111.10 L 153.89 110.56 L 165.28 110.56 L 176.67 110.56 L 188.06 95.35 L 199.44 95.35 L 210.83 95.35 L 222.22 94.63 L 233.61 94.54 L 245.00 94.45 L 256.39 94.09 L 267.78 94.09 L 279.17 94.09 L 290.56 94.09 L 301.94 94.09 L 313.33 94.09 L 324.72 94.09 L 336.11 94.09 L 347.50 94.09 L 358.89 91.84 L 370.28 83.65 L 381.67 83.65 L 393.06 83.47 L 404.44 83.65 L 415.83 91.03 L 427.22 91.03 L 438.61 91.03 L 450.00 91.03 L 461.39 91.03 L 472.78 91.03 L 484.17 91.03 L 495.56 91.03 L 506.94 91.03 L 518.33 91.03 L 529.72 91.03 L 541.11 90.94 L 552.50 91.03 L 563.89 90.94 L 575.28 90.94 L 586.67 90.94 L 598.06 90.94 L 609.44 90.94 L 620.83 90.94 L 632.22 90.94 L 643.61 90.94 L 655.00 90.94 L 666.39 90.94 L 677.78 90.94 L 689.17 90.94 L 700.56 90.94 L 711.94 90.94 L 723.33 90.94 L 734.72 90.94 L 746.11 90.94 L 757.50 90.94 L 768.89 90.94 L 780.28 90.94 L 791.67 90.94 L 803.06 90.94 L 814.44 90.94 L 825.83 90.94 L 837.22 90.94 L 848.61 123.79 L 860.00 123.79" fill="none" stroke="#111827" stroke-width="2"/>
    <circle cx="860.00" cy="123.79" r="3" fill="#111827"/>
    <text x="40.00" y="235.00" font-size="9" fill="#111827" text-anchor="middle" transform="rotate(-45 40.00 235.00)">09.08.2025</text><text x="119.72" y="235.00" font-size="9" fill="#111827" text-anchor="middle" transform="rotate(-45 119.72 235.00)">09.08.2025</text><text x="199.44" y="235.00" font-size="9" fill="#111827" text-anchor="middle" transform="rotate(-45 199.44 235.00)">13.08.2025</text><text x="279.17" y="235.00" font-size="9" fill="#111827" text-anchor="middle" transform="rotate(-45 279.17 235.00)">15.08.2025</text><text x="358.89" y="235.00" font-size="9" fill="#111827" text-anchor="middle" transform="rotate(-45 358.89 235.00)">21.08.2025</text><text x="438.61" y="235.00" font-size="9" fill="#111827" text-anchor="middle" transform="rotate(-45 438.61 235.00)">21.08.2025</text><text x="518.33" y="235.00" font-size="9" fill="#111827" text-anchor="middle" transform="rotate(-45 518.33 235.00)">28.08.2025</text><text x="598.06" y="235.00" font-size="9" fill="#111827" text-anchor="middle" transform="rotate(-45 598.06 235.00)">30.08.2025</text><text x="677.78" y="235.00" font-size="9" fill="#111827" text-anchor="middle" transform="rotate(-45 677.78 235.00)">06.09.2025</text><text x="757.50" y="235.00" font-size="9" fill="#111827" text-anchor="middle" transform="rotate(-45 757.50 235.00)">13.09.2025</text><text x="837.22" y="235.00" font-size="9" fill="#111827" text-anchor="middle" transform="rotate(-45 837.22 235.00)">20.09.2025</text>
  </g>
</svg>