<svg xmlns="http://www.w3.org/2000/svg" width="900" height="290" style="font-family: -apple-system, BlinkMacSystemFont, 'Segoe UI', Helvetica, Arial, sans-serif;">
  <rect width="100%" height="100%" fill="white"/>
  <g>
    <line x1="40" y1="220.00" x2="860" y2="220.00" stroke="#e5e7eb"/><text x="32" y="224.00" font-size="10" fill="#111827" text-anchor="end">0</text><line x1="40" y1="175.00" x2="860" y2="175.00" stroke="#e5e7eb"/><text x="32" y="179.00" font-size="10" fill="#111827" text-anchor="end">500</text><line x1="40" y1="130.00" x2="860" y2="130.00" stroke="#e5e7eb"/><text x="32" y="134.00" font-size="10" fill="#111827" text-anchor="end">1k</text><line x1="40" y1="85.00" x2="860" y2="85.00" stroke="#e5e7eb"/><text x="32" y="89.00" font-size="10" fill="#111827" text-anchor="end">1.5k</text><line x1="40" y1="40.00" x2="860" y2="40.00" stroke="#e5e7eb"/><text x="32" y="44.00" font-size="10" fill="#111827" text-anchor="end">2k</text>
    <line x1="40.00" y1="40" x2="40.00" y2="220" stroke="#e5e7eb" opacity="0.5"/><line x1="121.05" y1="40" x2="121.05" y2="220" stroke="#e5e7eb" opacity="0.5"/><line x1="202.09" y1="40" x2="202.09" y2="220" stroke="#e5e7eb" opacity="0.5"/><line x1="283.14" y1="40" x2="283.14" y2="220" stroke="#e5e7eb" opacity="0.5"/><line x1="364.19" y1="40" x2="364.19" y2="220" stroke="#e5e7eb" opacity="0.5"/><line x1="445.23" y1="40" x2="445.23" y2="220" stroke="#e5e7eb" opacity="0.5"/><line x1="526.28" y1="40" x2="526.28" y2="220" stroke="#e5e7eb" opacity="0.5"/><line x1="607.33" y1="40" x2="607.33" y2="220" stroke="#e5e7eb" opacity="0.5"/><line x1="688.37" y1="40" x2="688.37" y2="220" stroke="#e5e7eb" opacity="0.5"/><line x1="769.42" y1="40" x2="769.42" y2="220" stroke="#e5e7eb" opacity="0.5"/><line x1="850.47" y1="40" x2="850.47" y2="220" stroke="#e5e7eb" opacity="0.5"/>
    <line x1="40" y1="220" x2="860" y2="220" stroke="#9ca3af"/>
    <line x1="40" y1="40"   x2="40"   y2="220" stroke="#9ca3af"/>
    <path d="M 40.00 219.82 L 44.77 211.81 L 49.53 211.81 L 54.30 211.81 L 59.07 171.85 L 63.84 171.58 L 68.60 164.38 L 73.37 118.93 L 78.14 119.11 L 82.91 111.10 L 87.67 110.56 L 92.44 110.56 L 97.21 110.56 L 101.98 95.35 L 106.74 95.35 L 111.51 95.35 L 116.28 94.63 L 121.05 94.54 L 125.81 94.45 L 130.58 94.09 L 135.35 94.09 L 140.12 94.09 L 144.88 94.09 L 149.65 94.09 L 154.42 94.09 L 159.19 94.09 L 163.95 94.09 L 168.72 94.09 L 173.49 91.84 L 178.26 83.65 L 183.02 83.65 L 187.79 83.47 L 192.56 83.65 L 197.33 91.03 L 202.09 91.03 L 206.86 91.03 L 211.63 91.03 L 216.40 91.03 L 221.16 91.03 L 225.93 91.03 L 230.70 91.03 L 235.47 91.03 L 240.23 91.03 L 245.00 91.03 L 249.77 90.94 L 254.53 91.03 L 259.30 90.94 L 264.07 90.94 L 268.84 90.94 L 273.60 90.94 L 278.37 90.94 L 283.14 90.94 L 287.91 90.94 L 292.67 90.94 L 297.44 90.94 L 302.21 90.94 L 306.98 90.94 L 311.74 90.94 L 316.51 90.94 L 321.28 90.94 L 326.05 90.94 L 330.81 90.94 L 335.58 90.94 L 340.35 90.94 L 345.12 90.94 L 349.88 90.94 L 354.65 90.94 L 359.42 90.94 L 364.19 90.94 L 368.95 90.94 L 373.72 90.94 L 378.49 123.79 L 383.26 123.79 L 388.02 123.79 L 392.79 123.79 L 397.56 123.79 L 402.33 123.79 L 407.09 123.79 L 411.86 123.79 L 416.63 123.79 L 421.40 123.79 L 426.16 123.79 L 430.93 123.79 L 435.70 123.79 L 440.47 123.79 L 445.23 123.79 L 450.00 123.79 L 454.77 123.79 L 459.53 123.79 L 464.30 123.79 L 469.07 123.79 L 473.84 123.79 L 478.60 123.79 L 483.37 123.79 L 488.14 123.79 L 492.91 123.79 L 497.67 123.79 L 502.44 123.79 L 507.21 123.79 L 511.98 123.79 L 516.74 123.79 L 521.51 123.79 L 526.28 123.79 L 531.05 123.79 L 535.81 123.79 L 540.58 123.79 L 545.35 123.79 L 550.12 123.79 L 554.88 123.79 L 559.65 123.79 L 564.42 123.79 L 569.19 123.79 L 573.95 123.79 L 578.72 123.79 L 583.49 123.79 L 588.26 123.79 L 593.02 123.79 L 597.79 123.79 L 602.56 123.79 L 607.33 123.79 L 612.09 123.79 L 616.86 123.79 L 621.63 123.79 L 626.40 123.79 L 631.16 123.79 L 635.93 123.79 L 640.70 123.79 L 645.47 123.79 L 650.23 123.79 L 655.00 123.79 L 659.77 123.79 L 664.53 123.79 L 669.30 123.79 L 674.07 123.79 L 678.84 123.79 L 683.60 123.79 L 688.37 123.79 L 693.14 123.79 L 697.91 123.79 L 702.67 123.79 L 707.44 123.79 L 712.21 123.79 L 716.98 123.79 L 721.74 123.79 L 726.51 123.79 L 731.28 123.79 L 736.05 123.79 L 740.81 123.79 L 745.58 115.42 L 750.35 111.64 L 755.12 107.86 L 759.88 104.08 L 764.65 100.30 L 769.42 95.98 L 774.19 95.98 L 778.95 95.98 L 783.72 95.98 L 788.49 85.72 L 793.26 85.72 L 798.02 85.72 L 802.79 85.72 L 807.56 85.72 L 812.33 85.72 L 817.09 85.72 L 821.86 85.72 L 826.63 85.72 L 831.40 85.72 L 836.16 85.72 L 840.93 85.72 L 845.70 85.72 L 850.47 85.72 L 855.23 85.72 L 860.00 85.72" fill="none" stroke="#111827" stroke-width="2"/>
    <circle cx="860.00" cy="85.72" r="3" fill="#111827"/>
    <text x="40.00" y="235.00" font-size="9" fill="#111827" text-anchor="middle" transform="rotate(-45 40.00 235.00)">09.08.2025</text><text x="121.05" y="235.00" font-size="9" fill="#111827" text-anchor="middle" transform="rotate(-45 121.05 235.00)">13.08.2025</text><text x="202.09" y="235.00" font-size="9" fill="#111827" text-anchor="middle" transform="rotate(-45 202.09 235.00)">21.08.2025</text><text x="283.14" y="235.00" font-size="9" fill="#111827" text-anchor="middle" transform="rotate(-45 283.14 235.00)">01.09.2025</text><text x="364.19" y="235.00" font-size="9" fill="#111827" text-anchor="middle" transform="rotate(-45 364.19 235.00)">18.09.2025</text><text x="445.23" y="235.00" font-size="9" fill="#111827" text-anchor="middle" transform="rotate(-45 445.23 235.00)">03.10.2025</text><text x="526.28" y="235.00" font-size="9" fill="#111827" text-anchor="middle" transform="rotate(-45 526.28 235.00)">20.10.2025</text><text x="607.33" y="235.00" font-size="9" fill="#111827" text-anchor="middle" transform="rotate(-45 607.33 235.00)">06.11.2025</text><text x="688.37" y="235.00" font-size="9" fill="#111827" text-anchor="middle" transform="rotate(-45 688.37 235.00)">23.11.2025</text><text x="769.42" y="235.00" font-size="9" fill="#111827" text-anchor="middle" transform="rotate(-45 769.42 235.00)">04.12.2025</text><text x="850.47" y="235.00" font-size="9" fill="#111827" text-anchor="middle" transform="rotate(-45 850.47 235.00)">20.12.2025</text>
  </g>
</svg>