<svg xmlns="http://www.w3.org/2000/svg" width="900" height="290" style="font-family: -apple-system, BlinkMacSystemFont, 'Segoe UI', Helvetica, Arial, sans-serif;">
  <rect width="100%" height="100%" fill="white"/>
  <g>
    <line x1="40" y1="220.00" x2="860" y2="220.00" stroke="#e5e7eb"/><text x="32" y="224.00" font-size="10" fill="#111827" text-anchor="end">0</text><line x1="40" y1="175.00" x2="860" y2="175.00" stroke="#e5e7eb"/><text x="32" y="179.00" font-size="10" fill="#111827" text-anchor="end">500</text><line x1="40" y1="130.00" x2="860" y2="130.00" stroke="#e5e7eb"/><text x="32" y="134.00" font-size="10" fill="#111827" text-anchor="end">1k</text><line x1="40" y1="85.00" x2="860" y2="85.00" stroke="#e5e7eb"/><text x="32" y="89.00" font-size="10" fill="#111827" text-anchor="end">1.5k</text><line x1="40" y1="40.00" x2="860" y2="40.00" stroke="#e5e7eb"/><text x="32" y="44.00" font-size="10" fill="#111827" text-anchor="end">2k</text>
    <line x1="40.00" y1="40" x2="40.00" y2="220" stroke="#e5e7eb" opacity="0.5"/><line x1="117.36" y1="40" x2="117.36" y2="220" stroke="#e5e7eb" opacity="0.5"/><line x1="194.72" y1="40" x2="194.72" y2="220" stroke="#e5e7eb" opacity="0.5"/><line x1="272.08" y1="40" x2="272.08" y2="220" stroke="#e5e7eb" opacity="0.5"/><line x1="349.43" y1="40" x2="349.43" y2="220" stroke="#e5e7eb" opacity="0.5"/><line x1="426.79" y1="40" x2="426.79" y2="220" stroke="#e5e7eb" opacity="0.5"/><line x1="504.15" y1="40" x2="504.15" y2="220" stroke="#e5e7eb" opacity="0.5"/><line x1="581.51" y1="40" x2="581.51" y2="220" stroke="#e5e7eb" opacity="0.5"/><line x1="658.87" y1="40" x2="658.87" y2="220" stroke="#e5e7eb" opacity="0.5"/><line x1="736.23" y1="40" x2="736.23" y2="220" stroke="#e5e7eb" opacity="0.5"/><line x1="813.58" y1="40" x2="813.58" y2="220" stroke="#e5e7eb" opacity="0.5"/>
    <line x1="40" y1="220" x2="860" y2="220" stroke="#9ca3af"/>
    <line x1="40" y1="40"   x2="40"   y2="220" stroke="#9ca3af"/>
    <path d="M 40.00 219.82 L 55.47 211.81 L 70.94 211.81 L 86.42 211.81 L 101.89 171.85 L 117.36 171.58 L 132.83 164.38 L 148.30 118.93 L 163.77 119.11 L 179.25 111.10 L 194.72 110.56 L 210.19 110.56 L 225.66 110.56 L 241.13 95.35 L 256.60 95.35 L 272.08 95.35 L 287.55 94.63 L 303.02 94.54 L 318.49 94.45 L 333.96 94.09 L 349.43 94.09 L 364.91 94.09 L 380.38 94.09 L 395.85 94.09 L 411.32 94.09 L 426.79 94.09 L 442.26 94.09 L 457.74 94.09 L 473.21 91.84 L 488.68 83.65 L 504.15 83.65 L 519.62 83.47 L 535.09 83.65 L 550.57 91.03 L 566.04 91.03 L 581.51 91.03 L 596.98 91.03 L 612.45 91.03 L 627.92 91.03 L 643.40 91.03 L 658.87 91.03 L 674.34 91.03 L 689.81 91.03 L 705.28 91.03 L 720.75 90.94 L 736.23 91.03 L 751.70 90.94 L 767.17 90.94 L 782.64 90.94 L 798.11 90.94 L 813.58 90.94 L 829.06 90.94 L 844.53 90.94 L 860.00 90.94" fill="none" stroke="#111827" stroke-width="2"/>
    <circle cx="860.00" cy="90.94" r="3" fill="#111827"/>
    <text x="40.00" y="235.00" font-size="9" fill="#111827" text-anchor="middle" transform="rotate(-45 40.00 235.00)">09.08.2025</text><text x="117.36" y="235.00" font-size="9" fill="#111827" text-anchor="middle" transform="rotate(-45 117.36 235.00)">09.08.2025</text><text x="194.72" y="235.00" font-size="9" fill="#111827" text-anchor="middle" transform="rotate(-45 194.72 235.00)">13.08.2025</text><text x="272.08" y="235.00" font-size="9" fill="#111827" text-anchor="middle" transform="rotate(-45 272.08 235.00)">13.08.2025</text><text x="349.43" y="235.00" font-size="9" fill="#111827" text-anchor="middle" transform="rotate(-45 349.43 235.00)">14.08.2025</text><text x="426.79" y="235.00" font-size="9" fill="#111827" text-anchor="middle" transform="rotate(-45 426.79 235.00)">19.08.2025</text><text x="504.15" y="235.00" font-size="9" fill="#111827" text-anchor="middle" transform="rotate(-45 504.15 235.00)">21.08.2025</text><text x="581.51" y="235.00" font-size="9" fill="#111827" text-anchor="middle" transform="rotate(-45 581.51 235.00)">21.08.2025</text><text x="658.87" y="235.00" font-size="9" fill="#111827" text-anchor="middle" transform="rotate(-45 658.87 235.00)">26.08.2025</text><text x="736.23" y="235.00" font-size="9" fill="#111827" text-anchor="middle" transform="rotate(-45 736.23 235.00)">28.08.2025</text><text x="813.58" y="235.00" font-size="9" fill="#111827" text-anchor="middle" transform="rotate(-45 813.58 235.00)">31.08.2025</text>
  </g>
</svg>