<svg xmlns="http://www.w3.org/2000/svg" width="900" height="290" style="font-family: -apple-system, BlinkMacSystemFont, 'Segoe UI', Helvetica, Arial, sans-serif;">
  <rect width="100%" height="100%" fill="#0d1117"/>
  <g>
    <line x1="40" y1="220.00" x2="860" y2="220.00" stroke="#30363d"/><text x="32" y="224.00" font-size="10" fill="#c9d1d9" text-anchor="end">0</text><line x1="40" y1="175.00" x2="860" y2="175.00" stroke="#30363d"/><text x="32" y="179.00" font-size="10" fill="#c9d1d9" text-anchor="end">500</text><line x1="40" y1="130.00" x2="860" y2="130.00" stroke="#30363d"/><text x="32" y="134.00" font-size="10" fill="#c9d1d9" text-anchor="end">1k</text><line x1="40" y1="85.00" x2="860" y2="85.00" stroke="#30363d"/><text x="32" y="89.00" font-size="10" fill="#c9d1d9" text-anchor="end">1.5k</text><line x1="40" y1="40.00" x2="860" y2="40.00" stroke="#30363d"/><text x="32" y="44.00" font-size="10" fill="#c9d1d9" text-anchor="end">2k</text>
    <line x1="40.00" y1="40" x2="40.00" y2="220" stroke="#30363d" opacity="0.5"/><line x1="121.19" y1="40" x2="121.19" y2="220" stroke="#30363d" opacity="0.5"/><line x1="202.38" y1="40" x2="202.38" y2="220" stroke="#30363d" opacity="0.5"/><line x1="283.56" y1="40" x2="283.56" y2="220" stroke="#30363d" opacity="0.5"/><line x1="364.75" y1="40" x2="364.75" y2="220" stroke="#30363d" opacity="0.5"/><line x1="445.94" y1="40" x2="445.94" y2="220" stroke="#30363d" opacity="0.5"/><line x1="527.13" y1="40" x2="527.13" y2="220" stroke="#30363d" opacity="0.5"/><line x1="608.32" y1="40" x2="608.32" y2="220" stroke="#30363d" opacity="0.5"/><line x1="689.50" y1="40" x2="689.50" y2="220" stroke="#30363d" opacity="0.5"/><line x1="770.69" y1="40" x2="770.69" y2="220" stroke="#30363d" opacity="0.5"/><line x1="851.88" y1="40" x2="851.88" y2="220" stroke="#30363d" opacity="0.5"/>
    <line x1="40" y1="220" x2="860" y2="220" stroke="#30363d"/>
    <line x1="40" y1="40"   x2="40"   y2="220" stroke="#30363d"/>
    <path d="M 40.00 219.82 L 48.12 211.81 L 56.24 211.81 L 64.36 211.81 L 72.48 171.85 L 80.59 171.58 L 88.71 164.38 L 96.83 118.93 L 104.95 119.11 L 113.07 111.10 L 121.19 110.56 L 129.31 110.56 L 137.43 110.56 L 145.54 95.35 L 153.66 95.35 L 161.78 95.35 L 169.90 94.63 L 178.02 94.54 L 186.14 94.45 L 194.26 94.09 L 202.38 94.09 L 210.50 94.09 L 218.61 94.09 L 226.73 94.09 L 234.85 94.09 L 242.97 94.09 L 251.09 94.09 L 259.21 94.09 L 267.33 91.84 L 275.45 83.65 L 283.56 83.65 L 291.68 83.47 L 299.80 83.65 L 307.92 91.03 L 316.04 91.03 L 324.16 91.03 L 332.28 91.03 L 340.40 91.03 L 348.51 91.03 L 356.63 91.03 L 364.75 91.03 L 372.87 91.03 L 380.99 91.03 L 389.11 91.03 L 397.23 90.94 L 405.35 91.03 L 413.47 90.94 L 421.58 90.94 L 429.70 90.94 L 437.82 90.94 L 445.94 90.94 L 454.06 90.94 L 462.18 90.94 L 470.30 90.94 L 478.42 90.94 L 486.53 90.94 L 494.65 90.94 L 502.77 90.94 L 510.89 90.94 L 519.01 90.94 L 527.13 90.94 L 535.25 90.94 L 543.37 90.94 L 551.49 90.94 L 559.60 90.94 L 567.72 90.94 L 575.84 90.94 L 583.96 90.94 L 592.08 90.94 L 600.20 90.94 L 608.32 90.94 L 616.44 123.79 L 624.55 123.79 L 632.67 123.79 L 640.79 123.79 L 648.91 123.79 L 657.03 123.79 L 665.15 123.79 L 673.27 123.79 L 681.39 123.79 L 689.50 123.79 L 697.62 123.79 L 705.74 123.79 L 713.86 123.79 L 721.98 123.79 L 730.10 123.79 L 738.22 123.79 L 746.34 123.79 L 754.46 123.79 L 762.57 123.79 L 770.69 123.79 L 778.81 123.79 L 786.93 123.79 L 795.05 123.79 L 803.17 123.79 L 811.29 123.79 L 819.41 123.79 L 827.52 123.79 L 835.64 123.79 L 843.76 123.79 L 851.88 123.79 L 860.00 123.79" fill="none" stroke="#3fb950" stroke-width="2"/>
    <circle cx="860.00" cy="123.79" r="3" fill="#3fb950"/>
    <text x="40.00" y="235.00" font-size="9" fill="#c9d1d9" text-anchor="middle" transform="rotate(-45 40.00 235.00)">09.08.2025</text><text x="121.19" y="235.00" font-size="9" fill="#c9d1d9" text-anchor="middle" transform="rotate(-45 121.19 235.00)">13.08.2025</text><text x="202.38" y="235.00" font-size="9" fill="#c9d1d9" text-anchor="middle" transform="rotate(-45 202.38 235.00)">14.08.2025</text><text x="283.56" y="235.00" font-size="9" fill="#c9d1d9" text-anchor="middle" transform="rotate(-45 283.56 235.00)">21.08.2025</text><text x="364.75" y="235.00" font-size="9" fill="#c9d1d9" text-anchor="middle" transform="rotate(-45 364.75 235.00)">26.08.2025</text><text x="445.94" y="235.00" font-size="9" fill="#c9d1d9" text-anchor="middle" transform="rotate(-45 445.94 235.00)">31.08.2025</text><text x="527.13" y="235.00" font-size="9" fill="#c9d1d9" text-anchor="middle" transform="rotate(-45 527.13 235.00)">10.09.2025</text><text x="608.32" y="235.00" font-size="9" fill="#c9d1d9" text-anchor="middle" transform="rotate(-45 608.32 235.00)">20.09.2025</text><text x="689.50" y="235.00" font-size="9" fill="#c9d1d9" text-anchor="middle" transform="rotate(-45 689.50 235.00)">28.09.2025</text><text x="770.69" y="235.00" font-size="9" fill="#c9d1d9" text-anchor="middle" transform="rotate(-45 770.69 235.00)">08.10.2025</text><text x="851.88" y="235.00" font-size="9" fill="#c9d1d9" text-anchor="middle" transform="rotate(-45 851.88 235.00)">18.10.2025</text>
  </g>
</svg>