<svg xmlns="http://www.w3.org/2000/svg" width="900" height="290" style="font-family: -apple-system, BlinkMacSystemFont, 'Segoe UI', Helvetica, Arial, sans-serif;">
  <rect width="100%" height="100%" fill="white"/>
  <g>
    <line x1="40" y1="220.00" x2="860" y2="220.00" stroke="#e5e7eb"/><text x="32" y="224.00" font-size="10" fill="#111827" text-anchor="end">0</text><line x1="40" y1="175.00" x2="860" y2="175.00" stroke="#e5e7eb"/><text x="32" y="179.00" font-size="10" fill="#111827" text-anchor="end">500</text><line x1="40" y1="130.00" x2="860" y2="130.00" stroke="#e5e7eb"/><text x="32" y="134.00" font-size="10" fill="#111827" text-anchor="end">1k</text><line x1="40" y1="85.00" x2="860" y2="85.00" stroke="#e5e7eb"/><text x="32" y="89.00" font-size="10" fill="#111827" text-anchor="end">1.5k</text><line x1="40" y1="40.00" x2="860" y2="40.00" stroke="#e5e7eb"/><text x="32" y="44.00" font-size="10" fill="#111827" text-anchor="end">2k</text>
    <line x1="40.00" y1="40" x2="40.00" y2="220" stroke="#e5e7eb" opacity="0.5"/><line x1="118.10" y1="40" x2="118.10" y2="220" stroke="#e5e7eb" opacity="0.5"/><line x1="196.19" y1="40" x2="196.19" y2="220" stroke="#e5e7eb" opacity="0.5"/><line x1="274.29" y1="40" x2="274.29" y2="220" stroke="#e5e7eb" opacity="0.5"/><line x1="352.38" y1="40" x2="352.38" y2="220" stroke="#e5e7eb" opacity="0.5"/><line x1="430.48" y1="40" x2="430.48" y2="220" stroke="#e5e7eb" opacity="0.5"/><line x1="508.57" y1="40" x2="508.57" y2="220" stroke="#e5e7eb" opacity="0.5"/><line x1="586.67" y1="40" x2="586.67" y2="220" stroke="#e5e7eb" opacity="0.5"/><line x1="664.76" y1="40" x2="664.76" y2="220" stroke="#e5e7eb" opacity="0.5"/><line x1="742.86" y1="40" x2="742.86" y2="220" stroke="#e5e7eb" opacity="0.5"/><line x1="820.95" y1="40" x2="820.95" y2="220" stroke="#e5e7eb" opacity="0.5"/>
    <line x1="40" y1="220" x2="860" y2="220" stroke="#9ca3af"/>
    <line x1="40" y1="40"   x2="40"   y2="220" stroke="#9ca3af"/>
    <path d="M 40.00 219.82 L 49.76 211.81 L 59.52 211.81 L 69.29 211.81 L 79.05 171.85 L 88.81 171.58 L 98.57 164.38 L 108.33 118.93 L 118.10 119.11 L 127.86 111.10 L 137.62 110.56 L 147.38 110.56 L 157.14 110.56 L 166.90 95.35 L 176.67 95.35 L 186.43 95.35 L 196.19 94.63 L 205.95 94.54 L 215.71 94.45 L 225.48 94.09 L 235.24 94.09 L 245.00 94.09 L 254.76 94.09 L 264.52 94.09 L 274.29 94.09 L 284.05 94.09 L 293.81 94.09 L 303.57 94.09 L 313.33 91.84 L 323.10 83.65 L 332.86 83.65 L 342.62 83.47 L 352.38 83.65 L 362.14 91.03 L 371.90 91.03 L 381.67 91.03 L 391.43 91.03 L 401.19 91.03 L 410.95 91.03 L 420.71 91.03 L 430.48 91.03 L 440.24 91.03 L 450.00 91.03 L 459.76 91.03 L 469.52 90.94 L 479.29 91.03 L 489.05 90.94 L 498.81 90.94 L 508.57 90.94 L 518.33 90.94 L 528.10 90.94 L 537.86 90.94 L 547.62 90.94 L 557.38 90.94 L 567.14 90.94 L 576.90 90.94 L 586.67 90.94 L 596.43 90.94 L 606.19 90.94 L 615.95 90.94 L 625.71 90.94 L 635.48 90.94 L 645.24 90.94 L 655.00 90.94 L 664.76 90.94 L 674.52 90.94 L 684.29 90.94 L 694.05 90.94 L 703.81 90.94 L 713.57 90.94 L 723.33 90.94 L 733.10 123.79 L 742.86 123.79 L 752.62 123.79 L 762.38 123.79 L 772.14 123.79 L 781.90 123.79 L 791.67 123.79 L 801.43 123.79 L 811.19 123.79 L 820.95 123.79 L 830.71 123.79 L 840.48 123.79 L 850.24 123.79 L 860.00 123.79" fill="none" stroke="#111827" stroke-width="2"/>
    <circle cx="860.00" cy="123.79" r="3" fill="#111827"/>
    <text x="40.00" y="235.00" font-size="9" fill="#111827" text-anchor="middle" transform="rotate(-45 40.00 235.00)">09.08.2025</text><text x="118.10" y="235.00" font-size="9" fill="#111827" text-anchor="middle" transform="rotate(-45 118.10 235.00)">12.08.2025</text><text x="196.19" y="235.00" font-size="9" fill="#111827" text-anchor="middle" transform="rotate(-45 196.19 235.00)">13.08.2025</text><text x="274.29" y="235.00" font-size="9" fill="#111827" text-anchor="middle" transform="rotate(-45 274.29 235.00)">18.08.2025</text><text x="352.38" y="235.00" font-size="9" fill="#111827" text-anchor="middle" transform="rotate(-45 352.38 235.00)">21.08.2025</text><text x="430.48" y="235.00" font-size="9" fill="#111827" text-anchor="middle" transform="rotate(-45 430.48 235.00)">26.08.2025</text><text x="508.57" y="235.00" font-size="9" fill="#111827" text-anchor="middle" transform="rotate(-45 508.57 235.00)">29.08.2025</text><text x="586.67" y="235.00" font-size="9" fill="#111827" text-anchor="middle" transform="rotate(-45 586.67 235.00)">06.09.2025</text><text x="664.76" y="235.00" font-size="9" fill="#111827" text-anchor="middle" transform="rotate(-45 664.76 235.00)">14.09.2025</text><text x="742.86" y="235.00" font-size="9" fill="#111827" text-anchor="middle" transform="rotate(-45 742.86 235.00)">21.09.2025</text><text x="820.95" y="235.00" font-size="9" fill="#111827" text-anchor="middle" transform="rotate(-45 820.95 235.00)">28.09.2025</text>
  </g>
</svg>