<svg xmlns="http://www.w3.org/2000/svg" width="900" height="290" style="font-family: -apple-system, BlinkMacSystemFont, 'Segoe UI', Helvetica, Arial, sans-serif;">
  <rect width="100%" height="100%" fill="#0d1117"/>
  <g>
    <line x1="40" y1="220.00" x2="860" y2="220.00" stroke="#30363d"/><text x="32" y="224.00" font-size="10" fill="#c9d1d9" text-anchor="end">0</text><line x1="40" y1="175.00" x2="860" y2="175.00" stroke="#30363d"/><text x="32" y="179.00" font-size="10" fill="#c9d1d9" text-anchor="end">500</text><line x1="40" y1="130.00" x2="860" y2="130.00" stroke="#30363d"/><text x="32" y="134.00" font-size="10" fill="#c9d1d9" text-anchor="end">1k</text><line x1="40" y1="85.00" x2="860" y2="85.00" stroke="#30363d"/><text x="32" y="89.00" font-size="10" fill="#c9d1d9" text-anchor="end">1.5k</text><line x1="40" y1="40.00" x2="860" y2="40.00" stroke="#30363d"/><text x="32" y="44.00" font-size="10" fill="#c9d1d9" text-anchor="end">2k</text>
    <line x1="40.00" y1="40" x2="40.00" y2="220" stroke="#30363d" opacity="0.5"/><line x1="118.51" y1="40" x2="118.51" y2="220" stroke="#30363d" opacity="0.5"/><line x1="197.02" y1="40" x2="197.02" y2="220" stroke="#30363d" opacity="0.5"/><line x1="275.53" y1="40" x2="275.53" y2="220" stroke="#30363d" opacity="0.5"/><line x1="354.04" y1="40" x2="354.04" y2="220" stroke="#30363d" opacity="0.5"/><line x1="432.55" y1="40" x2="432.55" y2="220" stroke="#30363d" opacity="0.5"/><line x1="511.06" y1="40" x2="511.06" y2="220" stroke="#30363d" opacity="0.5"/><line x1="589.57" y1="40" x2="589.57" y2="220" stroke="#30363d" opacity="0.5"/><line x1="668.09" y1="40" x2="668.09" y2="220" stroke="#30363d" opacity="0.5"/><line x1="746.60" y1="40" x2="746.60" y2="220" stroke="#30363d" opacity="0.5"/><line x1="825.11" y1="40" x2="825.11" y2="220" stroke="#30363d" opacity="0.5"/>
    <line x1="40" y1="220" x2="860" y2="220" stroke="#30363d"/>
    <line x1="40" y1="40"   x2="40"   y2="220" stroke="#30363d"/>
    <path d="M 40.00 219.82 L 48.72 211.81 L 57.45 211.81 L 66.17 211.81 L 74.89 171.85 L 83.62 171.58 L 92.34 164.38 L 101.06 118.93 L 109.79 119.11 L 118.51 111.10 L 127.23 110.56 L 135.96 110.56 L 144.68 110.56 L 153.40 95.35 L 162.13 95.35 L 170.85 95.35 L 179.57 94.63 L 188.30 94.54 L 197.02 94.45 L 205.74 94.09 L 214.47 94.09 L 223.19 94.09 L 231.91 94.09 L 240.64 94.09 L 249.36 94.09 L 258.09 94.09 L 266.81 94.09 L 275.53 94.09 L 284.26 91.84 L 292.98 83.65 L 301.70 83.65 L 310.43 83.47 L 319.15 83.65 L 327.87 91.03 L 336.60 91.03 L 345.32 91.03 L 354.04 91.03 L 362.77 91.03 L 371.49 91.03 L 380.21 91.03 L 388.94 91.03 L 397.66 91.03 L 406.38 91.03 L 415.11 91.03 L 423.83 90.94 L 432.55 91.03 L 441.28 90.94 L 450.00 90.94 L 458.72 90.94 L 467.45 90.94 L 476.17 90.94 L 484.89 90.94 L 493.62 90.94 L 502.34 90.94 L 511.06 90.94 L 519.79 90.94 L 528.51 90.94 L 537.23 90.94 L 545.96 90.94 L 554.68 90.94 L 563.40 90.94 L 572.13 90.94 L 580.85 90.94 L 589.57 90.94 L 598.30 90.94 L 607.02 90.94 L 615.74 90.94 L 624.47 90.94 L 633.19 90.94 L 641.91 90.94 L 650.64 90.94 L 659.36 123.79 L 668.09 123.79 L 676.81 123.79 L 685.53 123.79 L 694.26 123.79 L 702.98 123.79 L 711.70 123.79 L 720.43 123.79 L 729.15 123.79 L 737.87 123.79 L 746.60 123.79 L 755.32 123.79 L 764.04 123.79 L 772.77 123.79 L 781.49 123.79 L 790.21 123.79 L 798.94 123.79 L 807.66 123.79 L 816.38 123.79 L 825.11 123.79 L 833.83 123.79 L 842.55 123.79 L 851.28 123.79 L 860.00 123.79" fill="none" stroke="#3fb950" stroke-width="2"/>
    <circle cx="860.00" cy="123.79" r="3" fill="#3fb950"/>
    <text x="40.00" y="235.00" font-size="9" fill="#c9d1d9" text-anchor="middle" transform="rotate(-45 40.00 235.00)">09.08.2025</text><text x="118.51" y="235.00" font-size="9" fill="#c9d1d9" text-anchor="middle" transform="rotate(-45 118.51 235.00)">13.08.2025</text><text x="197.02" y="235.00" font-size="9" fill="#c9d1d9" text-anchor="middle" transform="rotate(-45 197.02 235.00)">13.08.2025</text><text x="275.53" y="235.00" font-size="9" fill="#c9d1d9" text-anchor="middle" transform="rotate(-45 275.53 235.00)">21.08.2025</text><text x="354.04" y="235.00" font-size="9" fill="#c9d1d9" text-anchor="middle" transform="rotate(-45 354.04 235.00)">22.08.2025</text><text x="432.55" y="235.00" font-size="9" fill="#c9d1d9" text-anchor="middle" transform="rotate(-45 432.55 235.00)">28.08.2025</text><text x="511.06" y="235.00" font-size="9" fill="#c9d1d9" text-anchor="middle" transform="rotate(-45 511.06 235.00)">04.09.2025</text><text x="589.57" y="235.00" font-size="9" fill="#c9d1d9" text-anchor="middle" transform="rotate(-45 589.57 235.00)">13.09.2025</text><text x="668.09" y="235.00" font-size="9" fill="#c9d1d9" text-anchor="middle" transform="rotate(-45 668.09 235.00)">21.09.2025</text><text x="746.60" y="235.00" font-size="9" fill="#c9d1d9" text-anchor="middle" transform="rotate(-45 746.60 235.00)">29.09.2025</text><text x="825.11" y="235.00" font-size="9" fill="#c9d1d9" text-anchor="middle" transform="rotate(-45 825.11 235.00)">08.10.2025</text>
  </g>
</svg>