<svg xmlns="http://www.w3.org/2000/svg" width="900" height="290" style="font-family: -apple-system, BlinkMacSystemFont, 'Segoe UI', Helvetica, Arial, sans-serif;">
  <rect width="100%" height="100%" fill="white"/>
  <g>
    <line x1="40" y1="220.00" x2="860" y2="220.00" stroke="#e5e7eb"/><text x="32" y="224.00" font-size="10" fill="#111827" text-anchor="end">0</text><line x1="40" y1="175.00" x2="860" y2="175.00" stroke="#e5e7eb"/><text x="32" y="179.00" font-size="10" fill="#111827" text-anchor="end">500</text><line x1="40" y1="130.00" x2="860" y2="130.00" stroke="#e5e7eb"/><text x="32" y="134.00" font-size="10" fill="#111827" text-anchor="end">1k</text><line x1="40" y1="85.00" x2="860" y2="85.00" stroke="#e5e7eb"/><text x="32" y="89.00" font-size="10" fill="#111827" text-anchor="end">1.5k</text><line x1="40" y1="40.00" x2="860" y2="40.00" stroke="#e5e7eb"/><text x="32" y="44.00" font-size="10" fill="#111827" text-anchor="end">2k</text>
    <line x1="40.00" y1="40" x2="40.00" y2="220" stroke="#e5e7eb" opacity="0.5"/><line x1="120.15" y1="40" x2="120.15" y2="220" stroke="#e5e7eb" opacity="0.5"/><line x1="200.30" y1="40" x2="200.30" y2="220" stroke="#e5e7eb" opacity="0.5"/><line x1="280.45" y1="40" x2="280.45" y2="220" stroke="#e5e7eb" opacity="0.5"/><line x1="360.60" y1="40" x2="360.60" y2="220" stroke="#e5e7eb" opacity="0.5"/><line x1="440.75" y1="40" x2="440.75" y2="220" stroke="#e5e7eb" opacity="0.5"/><line x1="520.90" y1="40" x2="520.90" y2="220" stroke="#e5e7eb" opacity="0.5"/><line x1="601.05" y1="40" x2="601.05" y2="220" stroke="#e5e7eb" opacity="0.5"/><line x1="681.20" y1="40" x2="681.20" y2="220" stroke="#e5e7eb" opacity="0.5"/><line x1="761.35" y1="40" x2="761.35" y2="220" stroke="#e5e7eb" opacity="0.5"/><line x1="841.50" y1="40" x2="841.50" y2="220" stroke="#e5e7eb" opacity="0.5"/>
    <line x1="40" y1="220" x2="860" y2="220" stroke="#9ca3af"/>
    <line x1="40" y1="40"   x2="40"   y2="220" stroke="#9ca3af"/>
    <path d="M 40.00 219.82 L 46.17 211.81 L 52.33 211.81 L 58.50 211.81 L 64.66 171.85 L 70.83 171.58 L 76.99 164.38 L 83.16 118.93 L 89.32 119.11 L 95.49 111.10 L 101.65 110.56 L 107.82 110.56 L 113.98 110.56 L 120.15 95.35 L 126.32 95.35 L 132.48 95.35 L 138.65 94.63 L 144.81 94.54 L 150.98 94.45 L 157.14 94.09 L 163.31 94.09 L 169.47 94.09 L 175.64 94.09 L 181.80 94.09 L 187.97 94.09 L 194.14 94.09 L 200.30 94.09 L 206.47 94.09 L 212.63 91.84 L 218.80 83.65 L 224.96 83.65 L 231.13 83.47 L 237.29 83.65 L 243.46 91.03 L 249.62 91.03 L 255.79 91.03 L 261.95 91.03 L 268.12 91.03 L 274.29 91.03 L 280.45 91.03 L 286.62 91.03 L 292.78 91.03 L 298.95 91.03 L 305.11 91.03 L 311.28 90.94 L 317.44 91.03 L 323.61 90.94 L 329.77 90.94 L 335.94 90.94 L 342.11 90.94 L 348.27 90.94 L 354.44 90.94 L 360.60 90.94 L 366.77 90.94 L 372.93 90.94 L 379.10 90.94 L 385.26 90.94 L 391.43 90.94 L 397.59 90.94 L 403.76 90.94 L 409.92 90.94 L 416.09 90.94 L 422.26 90.94 L 428.42 90.94 L 434.59 90.94 L 440.75 90.94 L 446.92 90.94 L 453.08 90.94 L 459.25 90.94 L 465.41 90.94 L 471.58 90.94 L 477.74 123.79 L 483.91 123.79 L 490.08 123.79 L 496.24 123.79 L 502.41 123.79 L 508.57 123.79 L 514.74 123.79 L 520.90 123.79 L 527.07 123.79 L 533.23 123.79 L 539.40 123.79 L 545.56 123.79 L 551.73 123.79 L 557.89 123.79 L 564.06 123.79 L 570.23 123.79 L 576.39 123.79 L 582.56 123.79 L 588.72 123.79 L 594.89 123.79 L 601.05 123.79 L 607.22 123.79 L 613.38 123.79 L 619.55 123.79 L 625.71 123.79 L 631.88 123.79 L 638.05 123.79 L 644.21 123.79 L 650.38 123.79 L 656.54 123.79 L 662.71 123.79 L 668.87 123.79 L 675.04 123.79 L 681.20 123.79 L 687.37 123.79 L 693.53 123.79 L 699.70 123.79 L 705.86 123.79 L 712.03 123.79 L 718.20 123.79 L 724.36 123.79 L 730.53 123.79 L 736.69 123.79 L 742.86 123.79 L 749.02 123.79 L 755.19 123.79 L 761.35 123.79 L 767.52 123.79 L 773.68 123.79 L 779.85 123.79 L 786.02 123.79 L 792.18 123.79 L 798.35 123.79 L 804.51 123.79 L 810.68 123.79 L 816.84 123.79 L 823.01 123.79 L 829.17 123.79 L 835.34 123.79 L 841.50 123.79 L 847.67 123.79 L 853.83 123.79 L 860.00 123.79" fill="none" stroke="#111827" stroke-width="2"/>
    <circle cx="860.00" cy="123.79" r="3" fill="#111827"/>
    <text x="40.00" y="235.00" font-size="9" fill="#111827" text-anchor="middle" transform="rotate(-45 40.00 235.00)">09.08.2025</text><text x="120.15" y="235.00" font-size="9" fill="#111827" text-anchor="middle" transform="rotate(-45 120.15 235.00)">13.08.2025</text><text x="200.30" y="235.00" font-size="9" fill="#111827" text-anchor="middle" transform="rotate(-45 200.30 235.00)">20.08.2025</text><text x="280.45" y="235.00" font-size="9" fill="#111827" text-anchor="middle" transform="rotate(-45 280.45 235.00)">25.08.2025</text><text x="360.60" y="235.00" font-size="9" fill="#111827" text-anchor="middle" transform="rotate(-45 360.60 235.00)">02.09.2025</text><text x="440.75" y="235.00" font-size="9" fill="#111827" text-anchor="middle" transform="rotate(-45 440.75 235.00)">15.09.2025</text><text x="520.90" y="235.00" font-size="9" fill="#111827" text-anchor="middle" transform="rotate(-45 520.90 235.00)">26.09.2025</text><text x="601.05" y="235.00" font-size="9" fill="#111827" text-anchor="middle" transform="rotate(-45 601.05 235.00)">09.10.2025</text><text x="681.20" y="235.00" font-size="9" fill="#111827" text-anchor="middle" transform="rotate(-45 681.20 235.00)">22.10.2025</text><text x="761.35" y="235.00" font-size="9" fill="#111827" text-anchor="middle" transform="rotate(-45 761.35 235.00)">04.11.2025</text><text x="841.50" y="235.00" font-size="9" fill="#111827" text-anchor="middle" transform="rotate(-45 841.50 235.00)">17.11.2025</text>
  </g>
</svg>