<svg xmlns="http://www.w3.org/2000/svg" width="900" height="290" style="font-family: -apple-system, BlinkMacSystemFont, 'Segoe UI', Helvetica, Arial, sans-serif;">
  <rect width="100%" height="100%" fill="white"/>
  <g>
    <line x1="40" y1="220.00" x2="860" y2="220.00" stroke="#e5e7eb"/><text x="32" y="224.00" font-size="10" fill="#111827" text-anchor="end">0</text><line x1="40" y1="175.00" x2="860" y2="175.00" stroke="#e5e7eb"/><text x="32" y="179.00" font-size="10" fill="#111827" text-anchor="end">500</text><line x1="40" y1="130.00" x2="860" y2="130.00" stroke="#e5e7eb"/><text x="32" y="134.00" font-size="10" fill="#111827" text-anchor="end">1k</text><line x1="40" y1="85.00" x2="860" y2="85.00" stroke="#e5e7eb"/><text x="32" y="89.00" font-size="10" fill="#111827" text-anchor="end">1.5k</text><line x1="40" y1="40.00" x2="860" y2="40.00" stroke="#e5e7eb"/><text x="32" y="44.00" font-size="10" fill="#111827" text-anchor="end">2k</text>
    <line x1="40.00" y1="40" x2="40.00" y2="220" stroke="#e5e7eb" opacity="0.5"/><line x1="120.58" y1="40" x2="120.58" y2="220" stroke="#e5e7eb" opacity="0.5"/><line x1="201.16" y1="40" x2="201.16" y2="220" stroke="#e5e7eb" opacity="0.5"/><line x1="281.73" y1="40" x2="281.73" y2="220" stroke="#e5e7eb" opacity="0.5"/><line x1="362.31" y1="40" x2="362.31" y2="220" stroke="#e5e7eb" opacity="0.5"/><line x1="442.89" y1="40" x2="442.89" y2="220" stroke="#e5e7eb" opacity="0.5"/><line x1="523.47" y1="40" x2="523.47" y2="220" stroke="#e5e7eb" opacity="0.5"/><line x1="604.05" y1="40" x2="604.05" y2="220" stroke="#e5e7eb" opacity="0.5"/><line x1="684.62" y1="40" x2="684.62" y2="220" stroke="#e5e7eb" opacity="0.5"/><line x1="765.20" y1="40" x2="765.20" y2="220" stroke="#e5e7eb" opacity="0.5"/><line x1="845.78" y1="40" x2="845.78" y2="220" stroke="#e5e7eb" opacity="0.5"/>
    <line x1="40" y1="220" x2="860" y2="220" stroke="#9ca3af"/>
    <line x1="40" y1="40"   x2="40"   y2="220" stroke="#9ca3af"/>
    <path d="M 40.00 219.82 L 44.74 211.81 L 49.48 211.81 L 54.22 211.81 L 58.96 171.85 L 63.70 171.58 L 68.44 164.38 L 73.18 118.93 L 77.92 119.11 L 82.66 111.10 L 87.40 110.56 L 92.14 110.56 L 96.88 110.56 L 101.62 95.35 L 106.36 95.35 L 111.10 95.35 L 115.84 94.63 L 120.58 94.54 L 125.32 94.45 L 130.06 94.09 L 134.80 94.09 L 139.54 94.09 L 144.28 94.09 L 149.02 94.09 L 153.76 94.09 L 158.50 94.09 L 163.24 94.09 L 167.98 94.09 L 172.72 91.84 L 177.46 83.65 L 182.20 83.65 L 186.94 83.47 L 191.68 83.65 L 196.42 91.03 L 201.16 91.03 L 205.90 91.03 L 210.64 91.03 L 215.38 91.03 L 220.12 91.03 L 224.86 91.03 L 229.60 91.03 L 234.34 91.03 L 239.08 91.03 L 243.82 91.03 L 248.55 90.94 L 253.29 91.03 L 258.03 90.94 L 262.77 90.94 L 267.51 90.94 L 272.25 90.94 L 276.99 90.94 L 281.73 90.94 L 286.47 90.94 L 291.21 90.94 L 295.95 90.94 L 300.69 90.94 L 305.43 90.94 L 310.17 90.94 L 314.91 90.94 L 319.65 90.94 L 324.39 90.94 L 329.13 90.94 L 333.87 90.94 L 338.61 90.94 L 343.35 90.94 L 348.09 90.94 L 352.83 90.94 L 357.57 90.94 L 362.31 90.94 L 367.05 90.94 L 371.79 90.94 L 376.53 123.79 L 381.27 123.79 L 386.01 123.79 L 390.75 123.79 L 395.49 123.79 L 400.23 123.79 L 404.97 123.79 L 409.71 123.79 L 414.45 123.79 L 419.19 123.79 L 423.93 123.79 L 428.67 123.79 L 433.41 123.79 L 438.15 123.79 L 442.89 123.79 L 447.63 123.79 L 452.37 123.79 L 457.11 123.79 L 461.85 123.79 L 466.59 123.79 L 471.33 123.79 L 476.07 123.79 L 480.81 123.79 L 485.55 123.79 L 490.29 123.79 L 495.03 123.79 L 499.77 123.79 L 504.51 123.79 L 509.25 123.79 L 513.99 123.79 L 518.73 123.79 L 523.47 123.79 L 528.21 123.79 L 532.95 123.79 L 537.69 123.79 L 542.43 123.79 L 547.17 123.79 L 551.91 123.79 L 556.65 123.79 L 561.39 123.79 L 566.13 123.79 L 570.87 123.79 L 575.61 123.79 L 580.35 123.79 L 585.09 123.79 L 589.83 123.79 L 594.57 123.79 L 599.31 123.79 L 604.05 123.79 L 608.79 123.79 L 613.53 123.79 L 618.27 123.79 L 623.01 123.79 L 627.75 123.79 L 632.49 123.79 L 637.23 123.79 L 641.97 123.79 L 646.71 123.79 L 651.45 123.79 L 656.18 123.79 L 660.92 123.79 L 665.66 123.79 L 670.40 123.79 L 675.14 123.79 L 679.88 123.79 L 684.62 123.79 L 689.36 123.79 L 694.10 123.79 L 698.84 123.79 L 703.58 123.79 L 708.32 123.79 L 713.06 123.79 L 717.80 123.79 L 722.54 123.79 L 727.28 123.79 L 732.02 123.79 L 736.76 123.79 L 741.50 115.42 L 746.24 111.64 L 750.98 107.86 L 755.72 104.08 L 760.46 100.30 L 765.20 95.98 L 769.94 95.98 L 774.68 95.98 L 779.42 95.98 L 784.16 85.72 L 788.90 85.72 L 793.64 85.72 L 798.38 85.72 L 803.12 85.72 L 807.86 85.72 L 812.60 85.72 L 817.34 85.72 L 822.08 85.72 L 826.82 85.72 L 831.56 85.72 L 836.30 85.72 L 841.04 85.72 L 845.78 85.72 L 850.52 85.72 L 855.26 85.72 L 860.00 85.72" fill="none" stroke="#111827" stroke-width="2"/>
    <circle cx="860.00" cy="85.72" r="3" fill="#111827"/>
    <text x="40.00" y="235.00" font-size="9" fill="#111827" text-anchor="middle" transform="rotate(-45 40.00 235.00)">09.08.2025</text><text x="120.58" y="235.00" font-size="9" fill="#111827" text-anchor="middle" transform="rotate(-45 120.58 235.00)">13.08.2025</text><text x="201.16" y="235.00" font-size="9" fill="#111827" text-anchor="middle" transform="rotate(-45 201.16 235.00)">21.08.2025</text><text x="281.73" y="235.00" font-size="9" fill="#111827" text-anchor="middle" transform="rotate(-45 281.73 235.00)">01.09.2025</text><text x="362.31" y="235.00" font-size="9" fill="#111827" text-anchor="middle" transform="rotate(-45 362.31 235.00)">18.09.2025</text><text x="442.89" y="235.00" font-size="9" fill="#111827" text-anchor="middle" transform="rotate(-45 442.89 235.00)">03.10.2025</text><text x="523.47" y="235.00" font-size="9" fill="#111827" text-anchor="middle" transform="rotate(-45 523.47 235.00)">20.10.2025</text><text x="604.05" y="235.00" font-size="9" fill="#111827" text-anchor="middle" transform="rotate(-45 604.05 235.00)">06.11.2025</text><text x="684.62" y="235.00" font-size="9" fill="#111827" text-anchor="middle" transform="rotate(-45 684.62 235.00)">23.11.2025</text><text x="765.20" y="235.00" font-size="9" fill="#111827" text-anchor="middle" transform="rotate(-45 765.20 235.00)">04.12.2025</text><text x="845.78" y="235.00" font-size="9" fill="#111827" text-anchor="middle" transform="rotate(-45 845.78 235.00)">20.12.2025</text>
  </g>
</svg>