<svg xmlns="http://www.w3.org/2000/svg" width="900" height="290" style="font-family: -apple-system, BlinkMacSystemFont, 'Segoe UI', Helvetica, Arial, sans-serif;">
  <rect width="100%" height="100%" fill="white"/>
  <g>
    <line x1="40" y1="220.00" x2="860" y2="220.00" stroke="#e5e7eb"/><text x="32" y="224.00" font-size="10" fill="#111827" text-anchor="end">0</text><line x1="40" y1="175.00" x2="860" y2="175.00" stroke="#e5e7eb"/><text x="32" y="179.00" font-size="10" fill="#111827" text-anchor="end">500</text><line x1="40" y1="130.00" x2="860" y2="130.00" stroke="#e5e7eb"/><text x="32" y="134.00" font-size="10" fill="#111827" text-anchor="end">1k</text><line x1="40" y1="85.00" x2="860" y2="85.00" stroke="#e5e7eb"/><text x="32" y="89.00" font-size="10" fill="#111827" text-anchor="end">1.5k</text><line x1="40" y1="40.00" x2="860" y2="40.00" stroke="#e5e7eb"/><text x="32" y="44.00" font-size="10" fill="#111827" text-anchor="end">2k</text>
    <line x1="40.00" y1="40" x2="40.00" y2="220" stroke="#e5e7eb" opacity="0.5"/><line x1="104.74" y1="40" x2="104.74" y2="220" stroke="#e5e7eb" opacity="0.5"/><line x1="169.47" y1="40" x2="169.47" y2="220" stroke="#e5e7eb" opacity="0.5"/><line x1="234.21" y1="40" x2="234.21" y2="220" stroke="#e5e7eb" opacity="0.5"/><line x1="298.95" y1="40" x2="298.95" y2="220" stroke="#e5e7eb" opacity="0.5"/><line x1="363.68" y1="40" x2="363.68" y2="220" stroke="#e5e7eb" opacity="0.5"/><line x1="428.42" y1="40" x2="428.42" y2="220" stroke="#e5e7eb" opacity="0.5"/><line x1="493.16" y1="40" x2="493.16" y2="220" stroke="#e5e7eb" opacity="0.5"/><line x1="557.89" y1="40" x2="557.89" y2="220" stroke="#e5e7eb" opacity="0.5"/><line x1="622.63" y1="40" x2="622.63" y2="220" stroke="#e5e7eb" opacity="0.5"/><line x1="687.37" y1="40" x2="687.37" y2="220" stroke="#e5e7eb" opacity="0.5"/><line x1="752.11" y1="40" x2="752.11" y2="220" stroke="#e5e7eb" opacity="0.5"/><line x1="816.84" y1="40" x2="816.84" y2="220" stroke="#e5e7eb" opacity="0.5"/>
    <line x1="40" y1="220" x2="860" y2="220" stroke="#9ca3af"/>
    <line x1="40" y1="40"   x2="40"   y2="220" stroke="#9ca3af"/>
    <path d="M 40.00 219.82 L 61.58 211.81 L 83.16 211.81 L 104.74 211.81 L 126.32 171.85 L 147.89 171.58 L 169.47 164.38 L 191.05 118.93 L 212.63 119.11 L 234.21 111.10 L 255.79 110.56 L 277.37 110.56 L 298.95 110.56 L 320.53 95.35 L 342.11 95.35 L 363.68 95.35 L 385.26 94.63 L 406.84 94.54 L 428.42 94.45 L 450.00 94.09 L 471.58 94.09 L 493.16 94.09 L 514.74 94.09 L 536.32 94.09 L 557.89 94.09 L 579.47 94.09 L 601.05 94.09 L 622.63 94.09 L 644.21 91.84 L 665.79 83.65 L 687.37 83.65 L 708.95 83.47 L 730.53 83.65 L 752.11 91.03 L 773.68 91.03 L 795.26 91.03 L 816.84 91.03 L 838.42 91.03 L 860.00 91.03" fill="none" stroke="#111827" stroke-width="2"/>
    <circle cx="860.00" cy="91.03" r="3" fill="#111827"/>
    <text x="40.00" y="235.00" font-size="9" fill="#111827" text-anchor="middle" transform="rotate(-45 40.00 235.00)">09.08.2025</text><text x="104.74" y="235.00" font-size="9" fill="#111827" text-anchor="middle" transform="rotate(-45 104.74 235.00)">09.08.2025</text><text x="169.47" y="235.00" font-size="9" fill="#111827" text-anchor="middle" transform="rotate(-45 169.47 235.00)">09.08.2025</text><text x="234.21" y="235.00" font-size="9" fill="#111827" text-anchor="middle" transform="rotate(-45 234.21 235.00)">13.08.2025</text><text x="298.95" y="235.00" font-size="9" fill="#111827" text-anchor="middle" transform="rotate(-45 298.95 235.00)">13.08.2025</text><text x="363.68" y="235.00" font-size="9" fill="#111827" text-anchor="middle" transform="rotate(-45 363.68 235.00)">13.08.2025</text><text x="428.42" y="235.00" font-size="9" fill="#111827" text-anchor="middle" transform="rotate(-45 428.42 235.00)">13.08.2025</text><text x="493.16" y="235.00" font-size="9" fill="#111827" text-anchor="middle" transform="rotate(-45 493.16 235.00)">15.08.2025</text><text x="557.89" y="235.00" font-size="9" fill="#111827" text-anchor="middle" transform="rotate(-45 557.89 235.00)">18.08.2025</text><text x="622.63" y="235.00" font-size="9" fill="#111827" text-anchor="middle" transform="rotate(-45 622.63 235.00)">21.08.2025</text><text x="687.37" y="235.00" font-size="9" fill="#111827" text-anchor="middle" transform="rotate(-45 687.37 235.00)">21.08.2025</text><text x="752.11" y="235.00" font-size="9" fill="#111827" text-anchor="middle" transform="rotate(-45 752.11 235.00)">21.08.2025</text><text x="816.84" y="235.00" font-size="9" fill="#111827" text-anchor="middle" transform="rotate(-45 816.84 235.00)">22.08.2025</text>
  </g>
</svg>