<svg xmlns="http://www.w3.org/2000/svg" width="900" height="290" style="font-family: -apple-system, BlinkMacSystemFont, 'Segoe UI', Helvetica, Arial, sans-serif;">
  <rect width="100%" height="100%" fill="white"/>
  <g>
    <line x1="40" y1="220.00" x2="860" y2="220.00" stroke="#e5e7eb"/><text x="32" y="224.00" font-size="10" fill="#111827" text-anchor="end">0</text><line x1="40" y1="175.00" x2="860" y2="175.00" stroke="#e5e7eb"/><text x="32" y="179.00" font-size="10" fill="#111827" text-anchor="end">500</text><line x1="40" y1="130.00" x2="860" y2="130.00" stroke="#e5e7eb"/><text x="32" y="134.00" font-size="10" fill="#111827" text-anchor="end">1k</text><line x1="40" y1="85.00" x2="860" y2="85.00" stroke="#e5e7eb"/><text x="32" y="89.00" font-size="10" fill="#111827" text-anchor="end">1.5k</text><line x1="40" y1="40.00" x2="860" y2="40.00" stroke="#e5e7eb"/><text x="32" y="44.00" font-size="10" fill="#111827" text-anchor="end">2k</text>
    <line x1="40.00" y1="40" x2="40.00" y2="220" stroke="#e5e7eb" opacity="0.5"/><line x1="113.43" y1="40" x2="113.43" y2="220" stroke="#e5e7eb" opacity="0.5"/><line x1="186.87" y1="40" x2="186.87" y2="220" stroke="#e5e7eb" opacity="0.5"/><line x1="260.30" y1="40" x2="260.30" y2="220" stroke="#e5e7eb" opacity="0.5"/><line x1="333.73" y1="40" x2="333.73" y2="220" stroke="#e5e7eb" opacity="0.5"/><line x1="407.16" y1="40" x2="407.16" y2="220" stroke="#e5e7eb" opacity="0.5"/><line x1="480.60" y1="40" x2="480.60" y2="220" stroke="#e5e7eb" opacity="0.5"/><line x1="554.03" y1="40" x2="554.03" y2="220" stroke="#e5e7eb" opacity="0.5"/><line x1="627.46" y1="40" x2="627.46" y2="220" stroke="#e5e7eb" opacity="0.5"/><line x1="700.90" y1="40" x2="700.90" y2="220" stroke="#e5e7eb" opacity="0.5"/><line x1="774.33" y1="40" x2="774.33" y2="220" stroke="#e5e7eb" opacity="0.5"/><line x1="847.76" y1="40" x2="847.76" y2="220" stroke="#e5e7eb" opacity="0.5"/>
    <line x1="40" y1="220" x2="860" y2="220" stroke="#9ca3af"/>
    <line x1="40" y1="40"   x2="40"   y2="220" stroke="#9ca3af"/>
    <path d="M 40.00 219.82 L 52.24 211.81 L 64.48 211.81 L 76.72 211.81 L 88.96 171.85 L 101.19 171.58 L 113.43 164.38 L 125.67 118.93 L 137.91 119.11 L 150.15 111.10 L 162.39 110.56 L 174.63 110.56 L 186.87 110.56 L 199.10 95.35 L 211.34 95.35 L 223.58 95.35 L 235.82 94.63 L 248.06 94.54 L 260.30 94.45 L 272.54 94.09 L 284.78 94.09 L 297.01 94.09 L 309.25 94.09 L 321.49 94.09 L 333.73 94.09 L 345.97 94.09 L 358.21 94.09 L 370.45 94.09 L 382.69 91.84 L 394.93 83.65 L 407.16 83.65 L 419.40 83.47 L 431.64 83.65 L 443.88 91.03 L 456.12 91.03 L 468.36 91.03 L 480.60 91.03 L 492.84 91.03 L 505.07 91.03 L 517.31 91.03 L 529.55 91.03 L 541.79 91.03 L 554.03 91.03 L 566.27 91.03 L 578.51 90.94 L 590.75 91.03 L 602.99 90.94 L 615.22 90.94 L 627.46 90.94 L 639.70 90.94 L 651.94 90.94 L 664.18 90.94 L 676.42 90.94 L 688.66 90.94 L 700.90 90.94 L 713.13 90.94 L 725.37 90.94 L 737.61 90.94 L 749.85 90.94 L 762.09 90.94 L 774.33 90.94 L 786.57 90.94 L 798.81 90.94 L 811.04 90.94 L 823.28 90.94 L 835.52 90.94 L 847.76 90.94 L 860.00 90.94" fill="none" stroke="#111827" stroke-width="2"/>
    <circle cx="860.00" cy="90.94" r="3" fill="#111827"/>
    <text x="40.00" y="235.00" font-size="9" fill="#111827" text-anchor="middle" transform="rotate(-45 40.00 235.00)">09.08.2025</text><text x="113.43" y="235.00" font-size="9" fill="#111827" text-anchor="middle" transform="rotate(-45 113.43 235.00)">09.08.2025</text><text x="186.87" y="235.00" font-size="9" fill="#111827" text-anchor="middle" transform="rotate(-45 186.87 235.00)">13.08.2025</text><text x="260.30" y="235.00" font-size="9" fill="#111827" text-anchor="middle" transform="rotate(-45 260.30 235.00)">13.08.2025</text><text x="333.73" y="235.00" font-size="9" fill="#111827" text-anchor="middle" transform="rotate(-45 333.73 235.00)">18.08.2025</text><text x="407.16" y="235.00" font-size="9" fill="#111827" text-anchor="middle" transform="rotate(-45 407.16 235.00)">21.08.2025</text><text x="480.60" y="235.00" font-size="9" fill="#111827" text-anchor="middle" transform="rotate(-45 480.60 235.00)">22.08.2025</text><text x="554.03" y="235.00" font-size="9" fill="#111827" text-anchor="middle" transform="rotate(-45 554.03 235.00)">28.08.2025</text><text x="627.46" y="235.00" font-size="9" fill="#111827" text-anchor="middle" transform="rotate(-45 627.46 235.00)">29.08.2025</text><text x="700.90" y="235.00" font-size="9" fill="#111827" text-anchor="middle" transform="rotate(-45 700.90 235.00)">04.09.2025</text><text x="774.33" y="235.00" font-size="9" fill="#111827" text-anchor="middle" transform="rotate(-45 774.33 235.00)">10.09.2025</text><text x="847.76" y="235.00" font-size="9" fill="#111827" text-anchor="middle" transform="rotate(-45 847.76 235.00)">16.09.2025</text>
  </g>
</svg>