<svg xmlns="http://www.w3.org/2000/svg" width="900" height="290" style="font-family: -apple-system, BlinkMacSystemFont, 'Segoe UI', Helvetica, Arial, sans-serif;">
  <rect width="100%" height="100%" fill="#0d1117"/>
  <g>
    <line x1="40" y1="220.00" x2="860" y2="220.00" stroke="#30363d"/><text x="32" y="224.00" font-size="10" fill="#c9d1d9" text-anchor="end">0</text><line x1="40" y1="175.00" x2="860" y2="175.00" stroke="#30363d"/><text x="32" y="179.00" font-size="10" fill="#c9d1d9" text-anchor="end">500</text><line x1="40" y1="130.00" x2="860" y2="130.00" stroke="#30363d"/><text x="32" y="134.00" font-size="10" fill="#c9d1d9" text-anchor="end">1k</text><line x1="40" y1="85.00" x2="860" y2="85.00" stroke="#30363d"/><text x="32" y="89.00" font-size="10" fill="#c9d1d9" text-anchor="end">1.5k</text><line x1="40" y1="40.00" x2="860" y2="40.00" stroke="#30363d"/><text x="32" y="44.00" font-size="10" fill="#c9d1d9" text-anchor="end">2k</text>
    <line x1="40.00" y1="40" x2="40.00" y2="220" stroke="#30363d" opacity="0.5"/><line x1="119.35" y1="40" x2="119.35" y2="220" stroke="#30363d" opacity="0.5"/><line x1="198.71" y1="40" x2="198.71" y2="220" stroke="#30363d" opacity="0.5"/><line x1="278.06" y1="40" x2="278.06" y2="220" stroke="#30363d" opacity="0.5"/><line x1="357.42" y1="40" x2="357.42" y2="220" stroke="#30363d" opacity="0.5"/><line x1="436.77" y1="40" x2="436.77" y2="220" stroke="#30363d" opacity="0.5"/><line x1="516.13" y1="40" x2="516.13" y2="220" stroke="#30363d" opacity="0.5"/><line x1="595.48" y1="40" x2="595.48" y2="220" stroke="#30363d" opacity="0.5"/><line x1="674.84" y1="40" x2="674.84" y2="220" stroke="#30363d" opacity="0.5"/><line x1="754.19" y1="40" x2="754.19" y2="220" stroke="#30363d" opacity="0.5"/><line x1="833.55" y1="40" x2="833.55" y2="220" stroke="#30363d" opacity="0.5"/>
    <line x1="40" y1="220" x2="860" y2="220" stroke="#30363d"/>
    <line x1="40" y1="40"   x2="40"   y2="220" stroke="#30363d"/>
    <path d="M 40.00 219.82 L 46.61 211.81 L 53.23 211.81 L 59.84 211.81 L 66.45 171.85 L 73.06 171.58 L 79.68 164.38 L 86.29 118.93 L 92.90 119.11 L 99.52 111.10 L 106.13 110.56 L 112.74 110.56 L 119.35 110.56 L 125.97 95.35 L 132.58 95.35 L 139.19 95.35 L 145.81 94.63 L 152.42 94.54 L 159.03 94.45 L 165.65 94.09 L 172.26 94.09 L 178.87 94.09 L 185.48 94.09 L 192.10 94.09 L 198.71 94.09 L 205.32 94.09 L 211.94 94.09 L 218.55 94.09 L 225.16 91.84 L 231.77 83.65 L 238.39 83.65 L 245.00 83.47 L 251.61 83.65 L 258.23 91.03 L 264.84 91.03 L 271.45 91.03 L 278.06 91.03 L 284.68 91.03 L 291.29 91.03 L 297.90 91.03 L 304.52 91.03 L 311.13 91.03 L 317.74 91.03 L 324.35 91.03 L 330.97 90.94 L 337.58 91.03 L 344.19 90.94 L 350.81 90.94 L 357.42 90.94 L 364.03 90.94 L 370.65 90.94 L 377.26 90.94 L 383.87 90.94 L 390.48 90.94 L 397.10 90.94 L 403.71 90.94 L 410.32 90.94 L 416.94 90.94 L 423.55 90.94 L 430.16 90.94 L 436.77 90.94 L 443.39 90.94 L 450.00 90.94 L 456.61 90.94 L 463.23 90.94 L 469.84 90.94 L 476.45 90.94 L 483.06 90.94 L 489.68 90.94 L 496.29 90.94 L 502.90 90.94 L 509.52 123.79 L 516.13 123.79 L 522.74 123.79 L 529.35 123.79 L 535.97 123.79 L 542.58 123.79 L 549.19 123.79 L 555.81 123.79 L 562.42 123.79 L 569.03 123.79 L 575.65 123.79 L 582.26 123.79 L 588.87 123.79 L 595.48 123.79 L 602.10 123.79 L 608.71 123.79 L 615.32 123.79 L 621.94 123.79 L 628.55 123.79 L 635.16 123.79 L 641.77 123.79 L 648.39 123.79 L 655.00 123.79 L 661.61 123.79 L 668.23 123.79 L 674.84 123.79 L 681.45 123.79 L 688.06 123.79 L 694.68 123.79 L 701.29 123.79 L 707.90 123.79 L 714.52 123.79 L 721.13 123.79 L 727.74 123.79 L 734.35 123.79 L 740.97 123.79 L 747.58 123.79 L 754.19 123.79 L 760.81 123.79 L 767.42 123.79 L 774.03 123.79 L 780.65 123.79 L 787.26 123.79 L 793.87 123.79 L 800.48 123.79 L 807.10 123.79 L 813.71 123.79 L 820.32 123.79 L 826.94 123.79 L 833.55 123.79 L 840.16 123.79 L 846.77 123.79 L 853.39 123.79 L 860.00 123.79" fill="none" stroke="#3fb950" stroke-width="2"/>
    <circle cx="860.00" cy="123.79" r="3" fill="#3fb950"/>
    <text x="40.00" y="235.00" font-size="9" fill="#c9d1d9" text-anchor="middle" transform="rotate(-45 40.00 235.00)">09.08.2025</text><text x="119.35" y="235.00" font-size="9" fill="#c9d1d9" text-anchor="middle" transform="rotate(-45 119.35 235.00)">13.08.2025</text><text x="198.71" y="235.00" font-size="9" fill="#c9d1d9" text-anchor="middle" transform="rotate(-45 198.71 235.00)">18.08.2025</text><text x="278.06" y="235.00" font-size="9" fill="#c9d1d9" text-anchor="middle" transform="rotate(-45 278.06 235.00)">22.08.2025</text><text x="357.42" y="235.00" font-size="9" fill="#c9d1d9" text-anchor="middle" transform="rotate(-45 357.42 235.00)">29.08.2025</text><text x="436.77" y="235.00" font-size="9" fill="#c9d1d9" text-anchor="middle" transform="rotate(-45 436.77 235.00)">10.09.2025</text><text x="516.13" y="235.00" font-size="9" fill="#c9d1d9" text-anchor="middle" transform="rotate(-45 516.13 235.00)">21.09.2025</text><text x="595.48" y="235.00" font-size="9" fill="#c9d1d9" text-anchor="middle" transform="rotate(-45 595.48 235.00)">02.10.2025</text><text x="674.84" y="235.00" font-size="9" fill="#c9d1d9" text-anchor="middle" transform="rotate(-45 674.84 235.00)">14.10.2025</text><text x="754.19" y="235.00" font-size="9" fill="#c9d1d9" text-anchor="middle" transform="rotate(-45 754.19 235.00)">26.10.2025</text><text x="833.55" y="235.00" font-size="9" fill="#c9d1d9" text-anchor="middle" transform="rotate(-45 833.55 235.00)">07.11.2025</text>
  </g>
</svg>