<svg xmlns="http://www.w3.org/2000/svg" width="900" height="290" style="font-family: -apple-system, BlinkMacSystemFont, 'Segoe UI', Helvetica, Arial, sans-serif;">
  <rect width="100%" height="100%" fill="#0d1117"/>
  <g>
    <line x1="40" y1="220.00" x2="860" y2="220.00" stroke="#30363d"/><text x="32" y="224.00" font-size="10" fill="#c9d1d9" text-anchor="end">0</text><line x1="40" y1="175.00" x2="860" y2="175.00" stroke="#30363d"/><text x="32" y="179.00" font-size="10" fill="#c9d1d9" text-anchor="end">500</text><line x1="40" y1="130.00" x2="860" y2="130.00" stroke="#30363d"/><text x="32" y="134.00" font-size="10" fill="#c9d1d9" text-anchor="end">1k</text><line x1="40" y1="85.00" x2="860" y2="85.00" stroke="#30363d"/><text x="32" y="89.00" font-size="10" fill="#c9d1d9" text-anchor="end">1.5k</text><line x1="40" y1="40.00" x2="860" y2="40.00" stroke="#30363d"/><text x="32" y="44.00" font-size="10" fill="#c9d1d9" text-anchor="end">2k</text>
    <line x1="40.00" y1="40" x2="40.00" y2="220" stroke="#30363d" opacity="0.5"/><line x1="120.18" y1="40" x2="120.18" y2="220" stroke="#30363d" opacity="0.5"/><line x1="200.36" y1="40" x2="200.36" y2="220" stroke="#30363d" opacity="0.5"/><line x1="280.53" y1="40" x2="280.53" y2="220" stroke="#30363d" opacity="0.5"/><line x1="360.71" y1="40" x2="360.71" y2="220" stroke="#30363d" opacity="0.5"/><line x1="440.89" y1="40" x2="440.89" y2="220" stroke="#30363d" opacity="0.5"/><line x1="521.07" y1="40" x2="521.07" y2="220" stroke="#30363d" opacity="0.5"/><line x1="601.24" y1="40" x2="601.24" y2="220" stroke="#30363d" opacity="0.5"/><line x1="681.42" y1="40" x2="681.42" y2="220" stroke="#30363d" opacity="0.5"/><line x1="761.60" y1="40" x2="761.60" y2="220" stroke="#30363d" opacity="0.5"/><line x1="841.78" y1="40" x2="841.78" y2="220" stroke="#30363d" opacity="0.5"/>
    <line x1="40" y1="220" x2="860" y2="220" stroke="#30363d"/>
    <line x1="40" y1="40"   x2="40"   y2="220" stroke="#30363d"/>
    <path d="M 40.00 219.82 L 43.64 211.81 L 47.29 211.81 L 50.93 211.81 L 54.58 171.85 L 58.22 171.58 L 61.87 164.38 L 65.51 118.93 L 69.16 119.11 L 72.80 111.10 L 76.44 110.56 L 80.09 110.56 L 83.73 110.56 L 87.38 95.35 L 91.02 95.35 L 94.67 95.35 L 98.31 94.63 L 101.96 94.54 L 105.60 94.45 L 109.24 94.09 L 112.89 94.09 L 116.53 94.09 L 120.18 94.09 L 123.82 94.09 L 127.47 94.09 L 131.11 94.09 L 134.76 94.09 L 138.40 94.09 L 142.04 91.84 L 145.69 83.65 L 149.33 83.65 L 152.98 83.47 L 156.62 83.65 L 160.27 91.03 L 163.91 91.03 L 167.56 91.03 L 171.20 91.03 L 174.84 91.03 L 178.49 91.03 L 182.13 91.03 L 185.78 91.03 L 189.42 91.03 L 193.07 91.03 L 196.71 91.03 L 200.36 90.94 L 204.00 91.03 L 207.64 90.94 L 211.29 90.94 L 214.93 90.94 L 218.58 90.94 L 222.22 90.94 L 225.87 90.94 L 229.51 90.94 L 233.16 90.94 L 236.80 90.94 L 240.44 90.94 L 244.09 90.94 L 247.73 90.94 L 251.38 90.94 L 255.02 90.94 L 258.67 90.94 L 262.31 90.94 L 265.96 90.94 L 269.60 90.94 L 273.24 90.94 L 276.89 90.94 L 280.53 90.94 L 284.18 90.94 L 287.82 90.94 L 291.47 90.94 L 295.11 90.94 L 298.76 123.79 L 302.40 123.79 L 306.04 123.79 L 309.69 123.79 L 313.33 123.79 L 316.98 123.79 L 320.62 123.79 L 324.27 123.79 L 327.91 123.79 L 331.56 123.79 L 335.20 123.79 L 338.84 123.79 L 342.49 123.79 L 346.13 123.79 L 349.78 123.79 L 353.42 123.79 L 357.07 123.79 L 360.71 123.79 L 364.36 123.79 L 368.00 123.79 L 371.64 123.79 L 375.29 123.79 L 378.93 123.79 L 382.58 123.79 L 386.22 123.79 L 389.87 123.79 L 393.51 123.79 L 397.16 123.79 L 400.80 123.79 L 404.44 123.79 L 408.09 123.79 L 411.73 123.79 L 415.38 123.79 L 419.02 123.79 L 422.67 123.79 L 426.31 123.79 L 429.96 123.79 L 433.60 123.79 L 437.24 123.79 L 440.89 123.79 L 444.53 123.79 L 448.18 123.79 L 451.82 123.79 L 455.47 123.79 L 459.11 123.79 L 462.76 123.79 L 466.40 123.79 L 470.04 123.79 L 473.69 123.79 L 477.33 123.79 L 480.98 123.79 L 484.62 123.79 L 488.27 123.79 L 491.91 123.79 L 495.56 123.79 L 499.20 123.79 L 502.84 123.79 L 506.49 123.79 L 510.13 123.79 L 513.78 123.79 L 517.42 123.79 L 521.07 123.79 L 524.71 123.79 L 528.36 123.79 L 532.00 123.79 L 535.64 123.79 L 539.29 123.79 L 542.93 123.79 L 546.58 123.79 L 550.22 123.79 L 553.87 123.79 L 557.51 123.79 L 561.16 123.79 L 564.80 123.79 L 568.44 123.79 L 572.09 123.79 L 575.73 123.79 L 579.38 115.42 L 583.02 111.64 L 586.67 107.86 L 590.31 104.08 L 593.96 100.30 L 597.60 95.98 L 601.24 95.98 L 604.89 95.98 L 608.53 95.98 L 612.18 85.72 L 615.82 85.72 L 619.47 85.72 L 623.11 85.72 L 626.76 85.72 L 630.40 85.72 L 634.04 85.72 L 637.69 85.72 L 641.33 85.72 L 644.98 85.72 L 648.62 85.72 L 652.27 85.72 L 655.91 85.72 L 659.56 85.72 L 663.20 85.72 L 666.84 85.72 L 670.49 85.72 L 674.13 85.72 L 677.78 85.72 L 681.42 85.72 L 685.07 85.72 L 688.71 85.72 L 692.36 85.72 L 696.00 85.72 L 699.64 85.72 L 703.29 85.72 L 706.93 85.72 L 710.58 85.72 L 714.22 85.72 L 717.87 85.72 L 721.51 85.72 L 725.16 85.72 L 728.80 85.72 L 732.44 85.72 L 736.09 85.72 L 739.73 85.72 L 743.38 85.72 L 747.02 85.72 L 750.67 85.72 L 754.31 85.72 L 757.96 85.72 L 761.60 85.72 L 765.24 85.72 L 768.89 85.72 L 772.53 85.72 L 776.18 85.72 L 779.82 85.72 L 783.47 85.72 L 787.11 85.72 L 790.76 85.72 L 794.40 85.72 L 798.04 85.72 L 801.69 85.72 L 805.33 85.72 L 808.98 85.72 L 812.62 85.72 L 816.27 85.72 L 819.91 85.72 L 823.56 85.72 L 827.20 85.72 L 830.84 85.72 L 834.49 85.72 L 838.13 85.72 L 841.78 85.72 L 845.42 85.72 L 849.07 85.72 L 852.71 85.72 L 856.36 85.72 L 860.00 85.72" fill="none" stroke="#3fb950" stroke-width="2"/>
    <circle cx="860.00" cy="85.72" r="3" fill="#3fb950"/>
    <text x="40.00" y="235.00" font-size="9" fill="#c9d1d9" text-anchor="middle" transform="rotate(-45 40.00 235.00)">09.08.2025</text><text x="120.18" y="235.00" font-size="9" fill="#c9d1d9" text-anchor="middle" transform="rotate(-45 120.18 235.00)">16.08.2025</text><text x="200.36" y="235.00" font-size="9" fill="#c9d1d9" text-anchor="middle" transform="rotate(-45 200.36 235.00)">28.08.2025</text><text x="280.53" y="235.00" font-size="9" fill="#c9d1d9" text-anchor="middle" transform="rotate(-45 280.53 235.00)">16.09.2025</text><text x="360.71" y="235.00" font-size="9" fill="#c9d1d9" text-anchor="middle" transform="rotate(-45 360.71 235.00)">06.10.2025</text><text x="440.89" y="235.00" font-size="9" fill="#c9d1d9" text-anchor="middle" transform="rotate(-45 440.89 235.00)">28.10.2025</text><text x="521.07" y="235.00" font-size="9" fill="#c9d1d9" text-anchor="middle" transform="rotate(-45 521.07 235.00)">19.11.2025</text><text x="601.24" y="235.00" font-size="9" fill="#c9d1d9" text-anchor="middle" transform="rotate(-45 601.24 235.00)">05.12.2025</text><text x="681.42" y="235.00" font-size="9" fill="#c9d1d9" text-anchor="middle" transform="rotate(-45 681.42 235.00)">26.12.2025</text><text x="761.60" y="235.00" font-size="9" fill="#c9d1d9" text-anchor="middle" transform="rotate(-45 761.60 235.00)">17.01.2026</text><text x="841.78" y="235.00" font-size="9" fill="#c9d1d9" text-anchor="middle" transform="rotate(-45 841.78 235.00)">08.02.2026</text>
  </g>
</svg>