<svg xmlns="http://www.w3.org/2000/svg" width="900" height="290" style="font-family: -apple-system, BlinkMacSystemFont, 'Segoe UI', Helvetica, Arial, sans-serif;">
  <rect width="100%" height="100%" fill="white"/>
  <g>
    <line x1="40" y1="220.00" x2="860" y2="220.00" stroke="#e5e7eb"/><text x="32" y="224.00" font-size="10" fill="#111827" text-anchor="end">0</text><line x1="40" y1="175.00" x2="860" y2="175.00" stroke="#e5e7eb"/><text x="32" y="179.00" font-size="10" fill="#111827" text-anchor="end">500</text><line x1="40" y1="130.00" x2="860" y2="130.00" stroke="#e5e7eb"/><text x="32" y="134.00" font-size="10" fill="#111827" text-anchor="end">1k</text><line x1="40" y1="85.00" x2="860" y2="85.00" stroke="#e5e7eb"/><text x="32" y="89.00" font-size="10" fill="#111827" text-anchor="end">1.5k</text><line x1="40" y1="40.00" x2="860" y2="40.00" stroke="#e5e7eb"/><text x="32" y="44.00" font-size="10" fill="#111827" text-anchor="end">2k</text>
    <line x1="40.00" y1="40" x2="40.00" y2="220" stroke="#e5e7eb" opacity="0.5"/><line x1="120.22" y1="40" x2="120.22" y2="220" stroke="#e5e7eb" opacity="0.5"/><line x1="200.43" y1="40" x2="200.43" y2="220" stroke="#e5e7eb" opacity="0.5"/><line x1="280.65" y1="40" x2="280.65" y2="220" stroke="#e5e7eb" opacity="0.5"/><line x1="360.87" y1="40" x2="360.87" y2="220" stroke="#e5e7eb" opacity="0.5"/><line x1="441.09" y1="40" x2="441.09" y2="220" stroke="#e5e7eb" opacity="0.5"/><line x1="521.30" y1="40" x2="521.30" y2="220" stroke="#e5e7eb" opacity="0.5"/><line x1="601.52" y1="40" x2="601.52" y2="220" stroke="#e5e7eb" opacity="0.5"/><line x1="681.74" y1="40" x2="681.74" y2="220" stroke="#e5e7eb" opacity="0.5"/><line x1="761.96" y1="40" x2="761.96" y2="220" stroke="#e5e7eb" opacity="0.5"/><line x1="842.17" y1="40" x2="842.17" y2="220" stroke="#e5e7eb" opacity="0.5"/>
    <line x1="40" y1="220" x2="860" y2="220" stroke="#9ca3af"/>
    <line x1="40" y1="40"   x2="40"   y2="220" stroke="#9ca3af"/>
    <path d="M 40.00 219.82 L 48.91 211.81 L 57.83 211.81 L 66.74 211.81 L 75.65 171.85 L 84.57 171.58 L 93.48 164.38 L 102.39 118.93 L 111.30 119.11 L 120.22 111.10 L 129.13 110.56 L 138.04 110.56 L 146.96 110.56 L 155.87 95.35 L 164.78 95.35 L 173.70 95.35 L 182.61 94.63 L 191.52 94.54 L 200.43 94.45 L 209.35 94.09 L 218.26 94.09 L 227.17 94.09 L 236.09 94.09 L 245.00 94.09 L 253.91 94.09 L 262.83 94.09 L 271.74 94.09 L 280.65 94.09 L 289.57 91.84 L 298.48 83.65 L 307.39 83.65 L 316.30 83.47 L 325.22 83.65 L 334.13 91.03 L 343.04 91.03 L 351.96 91.03 L 360.87 91.03 L 369.78 91.03 L 378.70 91.03 L 387.61 91.03 L 396.52 91.03 L 405.43 91.03 L 414.35 91.03 L 423.26 91.03 L 432.17 90.94 L 441.09 91.03 L 450.00 90.94 L 458.91 90.94 L 467.83 90.94 L 476.74 90.94 L 485.65 90.94 L 494.57 90.94 L 503.48 90.94 L 512.39 90.94 L 521.30 90.94 L 530.22 90.94 L 539.13 90.94 L 548.04 90.94 L 556.96 90.94 L 565.87 90.94 L 574.78 90.94 L 583.70 90.94 L 592.61 90.94 L 601.52 90.94 L 610.43 90.94 L 619.35 90.94 L 628.26 90.94 L 637.17 90.94 L 646.09 90.94 L 655.00 90.94 L 663.91 90.94 L 672.83 123.79 L 681.74 123.79 L 690.65 123.79 L 699.57 123.79 L 708.48 123.79 L 717.39 123.79 L 726.30 123.79 L 735.22 123.79 L 744.13 123.79 L 753.04 123.79 L 761.96 123.79 L 770.87 123.79 L 779.78 123.79 L 788.70 123.79 L 797.61 123.79 L 806.52 123.79 L 815.43 123.79 L 824.35 123.79 L 833.26 123.79 L 842.17 123.79 L 851.09 123.79 L 860.00 123.79" fill="none" stroke="#111827" stroke-width="2"/>
    <circle cx="860.00" cy="123.79" r="3" fill="#111827"/>
    <text x="40.00" y="235.00" font-size="9" fill="#111827" text-anchor="middle" transform="rotate(-45 40.00 235.00)">09.08.2025</text><text x="120.22" y="235.00" font-size="9" fill="#111827" text-anchor="middle" transform="rotate(-45 120.22 235.00)">13.08.2025</text><text x="200.43" y="235.00" font-size="9" fill="#111827" text-anchor="middle" transform="rotate(-45 200.43 235.00)">13.08.2025</text><text x="280.65" y="235.00" font-size="9" fill="#111827" text-anchor="middle" transform="rotate(-45 280.65 235.00)">21.08.2025</text><text x="360.87" y="235.00" font-size="9" fill="#111827" text-anchor="middle" transform="rotate(-45 360.87 235.00)">22.08.2025</text><text x="441.09" y="235.00" font-size="9" fill="#111827" text-anchor="middle" transform="rotate(-45 441.09 235.00)">28.08.2025</text><text x="521.30" y="235.00" font-size="9" fill="#111827" text-anchor="middle" transform="rotate(-45 521.30 235.00)">04.09.2025</text><text x="601.52" y="235.00" font-size="9" fill="#111827" text-anchor="middle" transform="rotate(-45 601.52 235.00)">13.09.2025</text><text x="681.74" y="235.00" font-size="9" fill="#111827" text-anchor="middle" transform="rotate(-45 681.74 235.00)">21.09.2025</text><text x="761.96" y="235.00" font-size="9" fill="#111827" text-anchor="middle" transform="rotate(-45 761.96 235.00)">29.09.2025</text><text x="842.17" y="235.00" font-size="9" fill="#111827" text-anchor="middle" transform="rotate(-45 842.17 235.00)">08.10.2025</text>
  </g>
</svg>