<svg xmlns="http://www.w3.org/2000/svg" width="900" height="290" style="font-family: -apple-system, BlinkMacSystemFont, 'Segoe UI', Helvetica, Arial, sans-serif;">
  <rect width="100%" height="100%" fill="white"/>
  <g>
    <line x1="40" y1="220.00" x2="860" y2="220.00" stroke="#e5e7eb"/><text x="32" y="224.00" font-size="10" fill="#111827" text-anchor="end">0</text><line x1="40" y1="175.00" x2="860" y2="175.00" stroke="#e5e7eb"/><text x="32" y="179.00" font-size="10" fill="#111827" text-anchor="end">500</text><line x1="40" y1="130.00" x2="860" y2="130.00" stroke="#e5e7eb"/><text x="32" y="134.00" font-size="10" fill="#111827" text-anchor="end">1k</text><line x1="40" y1="85.00" x2="860" y2="85.00" stroke="#e5e7eb"/><text x="32" y="89.00" font-size="10" fill="#111827" text-anchor="end">1.5k</text><line x1="40" y1="40.00" x2="860" y2="40.00" stroke="#e5e7eb"/><text x="32" y="44.00" font-size="10" fill="#111827" text-anchor="end">2k</text>
    <line x1="40.00" y1="40" x2="40.00" y2="220" stroke="#e5e7eb" opacity="0.5"/><line x1="120.99" y1="40" x2="120.99" y2="220" stroke="#e5e7eb" opacity="0.5"/><line x1="201.98" y1="40" x2="201.98" y2="220" stroke="#e5e7eb" opacity="0.5"/><line x1="282.96" y1="40" x2="282.96" y2="220" stroke="#e5e7eb" opacity="0.5"/><line x1="363.95" y1="40" x2="363.95" y2="220" stroke="#e5e7eb" opacity="0.5"/><line x1="444.94" y1="40" x2="444.94" y2="220" stroke="#e5e7eb" opacity="0.5"/><line x1="525.93" y1="40" x2="525.93" y2="220" stroke="#e5e7eb" opacity="0.5"/><line x1="606.91" y1="40" x2="606.91" y2="220" stroke="#e5e7eb" opacity="0.5"/><line x1="687.90" y1="40" x2="687.90" y2="220" stroke="#e5e7eb" opacity="0.5"/><line x1="768.89" y1="40" x2="768.89" y2="220" stroke="#e5e7eb" opacity="0.5"/><line x1="849.88" y1="40" x2="849.88" y2="220" stroke="#e5e7eb" opacity="0.5"/>
    <line x1="40" y1="220" x2="860" y2="220" stroke="#9ca3af"/>
    <line x1="40" y1="40"   x2="40"   y2="220" stroke="#9ca3af"/>
    <path d="M 40.00 219.82 L 50.12 211.81 L 60.25 211.81 L 70.37 211.81 L 80.49 171.85 L 90.62 171.58 L 100.74 164.38 L 110.86 118.93 L 120.99 119.11 L 131.11 111.10 L 141.23 110.56 L 151.36 110.56 L 161.48 110.56 L 171.60 95.35 L 181.73 95.35 L 191.85 95.35 L 201.98 94.63 L 212.10 94.54 L 222.22 94.45 L 232.35 94.09 L 242.47 94.09 L 252.59 94.09 L 262.72 94.09 L 272.84 94.09 L 282.96 94.09 L 293.09 94.09 L 303.21 94.09 L 313.33 94.09 L 323.46 91.84 L 333.58 83.65 L 343.70 83.65 L 353.83 83.47 L 363.95 83.65 L 374.07 91.03 L 384.20 91.03 L 394.32 91.03 L 404.44 91.03 L 414.57 91.03 L 424.69 91.03 L 434.81 91.03 L 444.94 91.03 L 455.06 91.03 L 465.19 91.03 L 475.31 91.03 L 485.43 90.94 L 495.56 91.03 L 505.68 90.94 L 515.80 90.94 L 525.93 90.94 L 536.05 90.94 L 546.17 90.94 L 556.30 90.94 L 566.42 90.94 L 576.54 90.94 L 586.67 90.94 L 596.79 90.94 L 606.91 90.94 L 617.04 90.94 L 627.16 90.94 L 637.28 90.94 L 647.41 90.94 L 657.53 90.94 L 667.65 90.94 L 677.78 90.94 L 687.90 90.94 L 698.02 90.94 L 708.15 90.94 L 718.27 90.94 L 728.40 90.94 L 738.52 90.94 L 748.64 90.94 L 758.77 123.79 L 768.89 123.79 L 779.01 123.79 L 789.14 123.79 L 799.26 123.79 L 809.38 123.79 L 819.51 123.79 L 829.63 123.79 L 839.75 123.79 L 849.88 123.79 L 860.00 123.79" fill="none" stroke="#111827" stroke-width="2"/>
    <circle cx="860.00" cy="123.79" r="3" fill="#111827"/>
    <text x="40.00" y="235.00" font-size="9" fill="#111827" text-anchor="middle" transform="rotate(-45 40.00 235.00)">09.08.2025</text><text x="120.99" y="235.00" font-size="9" fill="#111827" text-anchor="middle" transform="rotate(-45 120.99 235.00)">12.08.2025</text><text x="201.98" y="235.00" font-size="9" fill="#111827" text-anchor="middle" transform="rotate(-45 201.98 235.00)">13.08.2025</text><text x="282.96" y="235.00" font-size="9" fill="#111827" text-anchor="middle" transform="rotate(-45 282.96 235.00)">18.08.2025</text><text x="363.95" y="235.00" font-size="9" fill="#111827" text-anchor="middle" transform="rotate(-45 363.95 235.00)">21.08.2025</text><text x="444.94" y="235.00" font-size="9" fill="#111827" text-anchor="middle" transform="rotate(-45 444.94 235.00)">26.08.2025</text><text x="525.93" y="235.00" font-size="9" fill="#111827" text-anchor="middle" transform="rotate(-45 525.93 235.00)">29.08.2025</text><text x="606.91" y="235.00" font-size="9" fill="#111827" text-anchor="middle" transform="rotate(-45 606.91 235.00)">06.09.2025</text><text x="687.90" y="235.00" font-size="9" fill="#111827" text-anchor="middle" transform="rotate(-45 687.90 235.00)">14.09.2025</text><text x="768.89" y="235.00" font-size="9" fill="#111827" text-anchor="middle" transform="rotate(-45 768.89 235.00)">21.09.2025</text><text x="849.88" y="235.00" font-size="9" fill="#111827" text-anchor="middle" transform="rotate(-45 849.88 235.00)">28.09.2025</text>
  </g>
</svg>