<svg xmlns="http://www.w3.org/2000/svg" width="900" height="290" style="font-family: -apple-system, BlinkMacSystemFont, 'Segoe UI', Helvetica, Arial, sans-serif;">
  <rect width="100%" height="100%" fill="white"/>
  <g>
    <line x1="40" y1="220.00" x2="860" y2="220.00" stroke="#e5e7eb"/><text x="32" y="224.00" font-size="10" fill="#111827" text-anchor="end">0</text><line x1="40" y1="175.00" x2="860" y2="175.00" stroke="#e5e7eb"/><text x="32" y="179.00" font-size="10" fill="#111827" text-anchor="end">500</text><line x1="40" y1="130.00" x2="860" y2="130.00" stroke="#e5e7eb"/><text x="32" y="134.00" font-size="10" fill="#111827" text-anchor="end">1k</text><line x1="40" y1="85.00" x2="860" y2="85.00" stroke="#e5e7eb"/><text x="32" y="89.00" font-size="10" fill="#111827" text-anchor="end">1.5k</text><line x1="40" y1="40.00" x2="860" y2="40.00" stroke="#e5e7eb"/><text x="32" y="44.00" font-size="10" fill="#111827" text-anchor="end">2k</text>
    <line x1="40.00" y1="40" x2="40.00" y2="220" stroke="#e5e7eb" opacity="0.5"/><line x1="119.72" y1="40" x2="119.72" y2="220" stroke="#e5e7eb" opacity="0.5"/><line x1="199.44" y1="40" x2="199.44" y2="220" stroke="#e5e7eb" opacity="0.5"/><line x1="279.17" y1="40" x2="279.17" y2="220" stroke="#e5e7eb" opacity="0.5"/><line x1="358.89" y1="40" x2="358.89" y2="220" stroke="#e5e7eb" opacity="0.5"/><line x1="438.61" y1="40" x2="438.61" y2="220" stroke="#e5e7eb" opacity="0.5"/><line x1="518.33" y1="40" x2="518.33" y2="220" stroke="#e5e7eb" opacity="0.5"/><line x1="598.06" y1="40" x2="598.06" y2="220" stroke="#e5e7eb" opacity="0.5"/><line x1="677.78" y1="40" x2="677.78" y2="220" stroke="#e5e7eb" opacity="0.5"/><line x1="757.50" y1="40" x2="757.50" y2="220" stroke="#e5e7eb" opacity="0.5"/><line x1="837.22" y1="40" x2="837.22" y2="220" stroke="#e5e7eb" opacity="0.5"/>
    <line x1="40" y1="220" x2="860" y2="220" stroke="#9ca3af"/>
    <line x1="40" y1="40"   x2="40"   y2="220" stroke="#9ca3af"/>
    <path d="M 40.00 219.82 L 43.80 211.81 L 47.59 211.81 L 51.39 211.81 L 55.19 171.85 L 58.98 171.58 L 62.78 164.38 L 66.57 118.93 L 70.37 119.11 L 74.17 111.10 L 77.96 110.56 L 81.76 110.56 L 85.56 110.56 L 89.35 95.35 L 93.15 95.35 L 96.94 95.35 L 100.74 94.63 L 104.54 94.54 L 108.33 94.45 L 112.13 94.09 L 115.93 94.09 L 119.72 94.09 L 123.52 94.09 L 127.31 94.09 L 131.11 94.09 L 134.91 94.09 L 138.70 94.09 L 142.50 94.09 L 146.30 91.84 L 150.09 83.65 L 153.89 83.65 L 157.69 83.47 L 161.48 83.65 L 165.28 91.03 L 169.07 91.03 L 172.87 91.03 L 176.67 91.03 L 180.46 91.03 L 184.26 91.03 L 188.06 91.03 L 191.85 91.03 L 195.65 91.03 L 199.44 91.03 L 203.24 91.03 L 207.04 90.94 L 210.83 91.03 L 214.63 90.94 L 218.43 90.94 L 222.22 90.94 L 226.02 90.94 L 229.81 90.94 L 233.61 90.94 L 237.41 90.94 L 241.20 90.94 L 245.00 90.94 L 248.80 90.94 L 252.59 90.94 L 256.39 90.94 L 260.19 90.94 L 263.98 90.94 L 267.78 90.94 L 271.57 90.94 L 275.37 90.94 L 279.17 90.94 L 282.96 90.94 L 286.76 90.94 L 290.56 90.94 L 294.35 90.94 L 298.15 90.94 L 301.94 90.94 L 305.74 90.94 L 309.54 123.79 L 313.33 123.79 L 317.13 123.79 L 320.93 123.79 L 324.72 123.79 L 328.52 123.79 L 332.31 123.79 L 336.11 123.79 L 339.91 123.79 L 343.70 123.79 L 347.50 123.79 L 351.30 123.79 L 355.09 123.79 L 358.89 123.79 L 362.69 123.79 L 366.48 123.79 L 370.28 123.79 L 374.07 123.79 L 377.87 123.79 L 381.67 123.79 L 385.46 123.79 L 389.26 123.79 L 393.06 123.79 L 396.85 123.79 L 400.65 123.79 L 404.44 123.79 L 408.24 123.79 L 412.04 123.79 L 415.83 123.79 L 419.63 123.79 L 423.43 123.79 L 427.22 123.79 L 431.02 123.79 L 434.81 123.79 L 438.61 123.79 L 442.41 123.79 L 446.20 123.79 L 450.00 123.79 L 453.80 123.79 L 457.59 123.79 L 461.39 123.79 L 465.19 123.79 L 468.98 123.79 L 472.78 123.79 L 476.57 123.79 L 480.37 123.79 L 484.17 123.79 L 487.96 123.79 L 491.76 123.79 L 495.56 123.79 L 499.35 123.79 L 503.15 123.79 L 506.94 123.79 L 510.74 123.79 L 514.54 123.79 L 518.33 123.79 L 522.13 123.79 L 525.93 123.79 L 529.72 123.79 L 533.52 123.79 L 537.31 123.79 L 541.11 123.79 L 544.91 123.79 L 548.70 123.79 L 552.50 123.79 L 556.30 123.79 L 560.09 123.79 L 563.89 123.79 L 567.69 123.79 L 571.48 123.79 L 575.28 123.79 L 579.07 123.79 L 582.87 123.79 L 586.67 123.79 L 590.46 123.79 L 594.26 123.79 L 598.06 123.79 L 601.85 115.42 L 605.65 111.64 L 609.44 107.86 L 613.24 104.08 L 617.04 100.30 L 620.83 95.98 L 624.63 95.98 L 628.43 95.98 L 632.22 95.98 L 636.02 85.72 L 639.81 85.72 L 643.61 85.72 L 647.41 85.72 L 651.20 85.72 L 655.00 85.72 L 658.80 85.72 L 662.59 85.72 L 666.39 85.72 L 670.19 85.72 L 673.98 85.72 L 677.78 85.72 L 681.57 85.72 L 685.37 85.72 L 689.17 85.72 L 692.96 85.72 L 696.76 85.72 L 700.56 85.72 L 704.35 85.72 L 708.15 85.72 L 711.94 85.72 L 715.74 85.72 L 719.54 85.72 L 723.33 85.72 L 727.13 85.72 L 730.93 85.72 L 734.72 85.72 L 738.52 85.72 L 742.31 85.72 L 746.11 85.72 L 749.91 85.72 L 753.70 85.72 L 757.50 85.72 L 761.30 85.72 L 765.09 85.72 L 768.89 85.72 L 772.69 85.72 L 776.48 85.72 L 780.28 85.72 L 784.07 85.72 L 787.87 85.72 L 791.67 85.72 L 795.46 85.72 L 799.26 85.72 L 803.06 85.72 L 806.85 85.72 L 810.65 85.72 L 814.44 85.72 L 818.24 85.72 L 822.04 85.72 L 825.83 85.72 L 829.63 85.72 L 833.43 85.72 L 837.22 85.72 L 841.02 85.72 L 844.81 85.72 L 848.61 85.72 L 852.41 85.72 L 856.20 85.72 L 860.00 85.72" fill="none" stroke="#111827" stroke-width="2"/>
    <circle cx="860.00" cy="85.72" r="3" fill="#111827"/>
    <text x="40.00" y="235.00" font-size="9" fill="#111827" text-anchor="middle" transform="rotate(-45 40.00 235.00)">09.08.2025</text><text x="119.72" y="235.00" font-size="9" fill="#111827" text-anchor="middle" transform="rotate(-45 119.72 235.00)">15.08.2025</text><text x="199.44" y="235.00" font-size="9" fill="#111827" text-anchor="middle" transform="rotate(-45 199.44 235.00)">28.08.2025</text><text x="279.17" y="235.00" font-size="9" fill="#111827" text-anchor="middle" transform="rotate(-45 279.17 235.00)">13.09.2025</text><text x="358.89" y="235.00" font-size="9" fill="#111827" text-anchor="middle" transform="rotate(-45 358.89 235.00)">02.10.2025</text><text x="438.61" y="235.00" font-size="9" fill="#111827" text-anchor="middle" transform="rotate(-45 438.61 235.00)">23.10.2025</text><text x="518.33" y="235.00" font-size="9" fill="#111827" text-anchor="middle" transform="rotate(-45 518.33 235.00)">13.11.2025</text><text x="598.06" y="235.00" font-size="9" fill="#111827" text-anchor="middle" transform="rotate(-45 598.06 235.00)">04.12.2025</text><text x="677.78" y="235.00" font-size="9" fill="#111827" text-anchor="middle" transform="rotate(-45 677.78 235.00)">18.12.2025</text><text x="757.50" y="235.00" font-size="9" fill="#111827" text-anchor="middle" transform="rotate(-45 757.50 235.00)">08.01.2026</text><text x="837.22" y="235.00" font-size="9" fill="#111827" text-anchor="middle" transform="rotate(-45 837.22 235.00)">29.01.2026</text>
  </g>
</svg>