<svg xmlns="http://www.w3.org/2000/svg" width="900" height="290" style="font-family: -apple-system, BlinkMacSystemFont, 'Segoe UI', Helvetica, Arial, sans-serif;">
  <rect width="100%" height="100%" fill="#0d1117"/>
  <g>
    <line x1="40" y1="220.00" x2="860" y2="220.00" stroke="#30363d"/><text x="32" y="224.00" font-size="10" fill="#c9d1d9" text-anchor="end">0</text><line x1="40" y1="175.00" x2="860" y2="175.00" stroke="#30363d"/><text x="32" y="179.00" font-size="10" fill="#c9d1d9" text-anchor="end">500</text><line x1="40" y1="130.00" x2="860" y2="130.00" stroke="#30363d"/><text x="32" y="134.00" font-size="10" fill="#c9d1d9" text-anchor="end">1k</text><line x1="40" y1="85.00" x2="860" y2="85.00" stroke="#30363d"/><text x="32" y="89.00" font-size="10" fill="#c9d1d9" text-anchor="end">1.5k</text><line x1="40" y1="40.00" x2="860" y2="40.00" stroke="#30363d"/><text x="32" y="44.00" font-size="10" fill="#c9d1d9" text-anchor="end">2k</text>
    <line x1="40.00" y1="40" x2="40.00" y2="220" stroke="#30363d" opacity="0.5"/><line x1="119.20" y1="40" x2="119.20" y2="220" stroke="#30363d" opacity="0.5"/><line x1="198.41" y1="40" x2="198.41" y2="220" stroke="#30363d" opacity="0.5"/><line x1="277.61" y1="40" x2="277.61" y2="220" stroke="#30363d" opacity="0.5"/><line x1="356.82" y1="40" x2="356.82" y2="220" stroke="#30363d" opacity="0.5"/><line x1="436.02" y1="40" x2="436.02" y2="220" stroke="#30363d" opacity="0.5"/><line x1="515.23" y1="40" x2="515.23" y2="220" stroke="#30363d" opacity="0.5"/><line x1="594.43" y1="40" x2="594.43" y2="220" stroke="#30363d" opacity="0.5"/><line x1="673.64" y1="40" x2="673.64" y2="220" stroke="#30363d" opacity="0.5"/><line x1="752.84" y1="40" x2="752.84" y2="220" stroke="#30363d" opacity="0.5"/><line x1="832.05" y1="40" x2="832.05" y2="220" stroke="#30363d" opacity="0.5"/>
    <line x1="40" y1="220" x2="860" y2="220" stroke="#30363d"/>
    <line x1="40" y1="40"   x2="40"   y2="220" stroke="#30363d"/>
    <path d="M 40.00 219.82 L 44.66 211.81 L 49.32 211.81 L 53.98 211.81 L 58.64 171.85 L 63.30 171.58 L 67.95 164.38 L 72.61 118.93 L 77.27 119.11 L 81.93 111.10 L 86.59 110.56 L 91.25 110.56 L 95.91 110.56 L 100.57 95.35 L 105.23 95.35 L 109.89 95.35 L 114.55 94.63 L 119.20 94.54 L 123.86 94.45 L 128.52 94.09 L 133.18 94.09 L 137.84 94.09 L 142.50 94.09 L 147.16 94.09 L 151.82 94.09 L 156.48 94.09 L 161.14 94.09 L 165.80 94.09 L 170.45 91.84 L 175.11 83.65 L 179.77 83.65 L 184.43 83.47 L 189.09 83.65 L 193.75 91.03 L 198.41 91.03 L 203.07 91.03 L 207.73 91.03 L 212.39 91.03 L 217.05 91.03 L 221.70 91.03 L 226.36 91.03 L 231.02 91.03 L 235.68 91.03 L 240.34 91.03 L 245.00 90.94 L 249.66 91.03 L 254.32 90.94 L 258.98 90.94 L 263.64 90.94 L 268.30 90.94 L 272.95 90.94 L 277.61 90.94 L 282.27 90.94 L 286.93 90.94 L 291.59 90.94 L 296.25 90.94 L 300.91 90.94 L 305.57 90.94 L 310.23 90.94 L 314.89 90.94 L 319.55 90.94 L 324.20 90.94 L 328.86 90.94 L 333.52 90.94 L 338.18 90.94 L 342.84 90.94 L 347.50 90.94 L 352.16 90.94 L 356.82 90.94 L 361.48 90.94 L 366.14 90.94 L 370.80 123.79 L 375.45 123.79 L 380.11 123.79 L 384.77 123.79 L 389.43 123.79 L 394.09 123.79 L 398.75 123.79 L 403.41 123.79 L 408.07 123.79 L 412.73 123.79 L 417.39 123.79 L 422.05 123.79 L 426.70 123.79 L 431.36 123.79 L 436.02 123.79 L 440.68 123.79 L 445.34 123.79 L 450.00 123.79 L 454.66 123.79 L 459.32 123.79 L 463.98 123.79 L 468.64 123.79 L 473.30 123.79 L 477.95 123.79 L 482.61 123.79 L 487.27 123.79 L 491.93 123.79 L 496.59 123.79 L 501.25 123.79 L 505.91 123.79 L 510.57 123.79 L 515.23 123.79 L 519.89 123.79 L 524.55 123.79 L 529.20 123.79 L 533.86 123.79 L 538.52 123.79 L 543.18 123.79 L 547.84 123.79 L 552.50 123.79 L 557.16 123.79 L 561.82 123.79 L 566.48 123.79 L 571.14 123.79 L 575.80 123.79 L 580.45 123.79 L 585.11 123.79 L 589.77 123.79 L 594.43 123.79 L 599.09 123.79 L 603.75 123.79 L 608.41 123.79 L 613.07 123.79 L 617.73 123.79 L 622.39 123.79 L 627.05 123.79 L 631.70 123.79 L 636.36 123.79 L 641.02 123.79 L 645.68 123.79 L 650.34 123.79 L 655.00 123.79 L 659.66 123.79 L 664.32 123.79 L 668.98 123.79 L 673.64 123.79 L 678.30 123.79 L 682.95 123.79 L 687.61 123.79 L 692.27 123.79 L 696.93 123.79 L 701.59 123.79 L 706.25 123.79 L 710.91 123.79 L 715.57 123.79 L 720.23 123.79 L 724.89 123.79 L 729.55 115.42 L 734.20 111.64 L 738.86 107.86 L 743.52 104.08 L 748.18 100.30 L 752.84 95.98 L 757.50 95.98 L 762.16 95.98 L 766.82 95.98 L 771.48 85.72 L 776.14 85.72 L 780.80 85.72 L 785.45 85.72 L 790.11 85.72 L 794.77 85.72 L 799.43 85.72 L 804.09 85.72 L 808.75 85.72 L 813.41 85.72 L 818.07 85.72 L 822.73 85.72 L 827.39 85.72 L 832.05 85.72 L 836.70 85.72 L 841.36 85.72 L 846.02 85.72 L 850.68 85.72 L 855.34 85.72 L 860.00 85.72" fill="none" stroke="#3fb950" stroke-width="2"/>
    <circle cx="860.00" cy="85.72" r="3" fill="#3fb950"/>
    <text x="40.00" y="235.00" font-size="9" fill="#c9d1d9" text-anchor="middle" transform="rotate(-45 40.00 235.00)">09.08.2025</text><text x="119.20" y="235.00" font-size="9" fill="#c9d1d9" text-anchor="middle" transform="rotate(-45 119.20 235.00)">13.08.2025</text><text x="198.41" y="235.00" font-size="9" fill="#c9d1d9" text-anchor="middle" transform="rotate(-45 198.41 235.00)">21.08.2025</text><text x="277.61" y="235.00" font-size="9" fill="#c9d1d9" text-anchor="middle" transform="rotate(-45 277.61 235.00)">01.09.2025</text><text x="356.82" y="235.00" font-size="9" fill="#c9d1d9" text-anchor="middle" transform="rotate(-45 356.82 235.00)">18.09.2025</text><text x="436.02" y="235.00" font-size="9" fill="#c9d1d9" text-anchor="middle" transform="rotate(-45 436.02 235.00)">03.10.2025</text><text x="515.23" y="235.00" font-size="9" fill="#c9d1d9" text-anchor="middle" transform="rotate(-45 515.23 235.00)">20.10.2025</text><text x="594.43" y="235.00" font-size="9" fill="#c9d1d9" text-anchor="middle" transform="rotate(-45 594.43 235.00)">06.11.2025</text><text x="673.64" y="235.00" font-size="9" fill="#c9d1d9" text-anchor="middle" transform="rotate(-45 673.64 235.00)">23.11.2025</text><text x="752.84" y="235.00" font-size="9" fill="#c9d1d9" text-anchor="middle" transform="rotate(-45 752.84 235.00)">04.12.2025</text><text x="832.05" y="235.00" font-size="9" fill="#c9d1d9" text-anchor="middle" transform="rotate(-45 832.05 235.00)">20.12.2025</text>
  </g>
</svg>