<svg xmlns="http://www.w3.org/2000/svg" width="900" height="290" style="font-family: -apple-system, BlinkMacSystemFont, 'Segoe UI', Helvetica, Arial, sans-serif;">
  <rect width="100%" height="100%" fill="#0d1117"/>
  <g>
    <line x1="40" y1="220.00" x2="860" y2="220.00" stroke="#30363d"/><text x="32" y="224.00" font-size="10" fill="#c9d1d9" text-anchor="end">0</text><line x1="40" y1="175.00" x2="860" y2="175.00" stroke="#30363d"/><text x="32" y="179.00" font-size="10" fill="#c9d1d9" text-anchor="end">500</text><line x1="40" y1="130.00" x2="860" y2="130.00" stroke="#30363d"/><text x="32" y="134.00" font-size="10" fill="#c9d1d9" text-anchor="end">1k</text><line x1="40" y1="85.00" x2="860" y2="85.00" stroke="#30363d"/><text x="32" y="89.00" font-size="10" fill="#c9d1d9" text-anchor="end">1.5k</text><line x1="40" y1="40.00" x2="860" y2="40.00" stroke="#30363d"/><text x="32" y="44.00" font-size="10" fill="#c9d1d9" text-anchor="end">2k</text>
    <line x1="40.00" y1="40" x2="40.00" y2="220" stroke="#30363d" opacity="0.5"/><line x1="111.30" y1="40" x2="111.30" y2="220" stroke="#30363d" opacity="0.5"/><line x1="182.61" y1="40" x2="182.61" y2="220" stroke="#30363d" opacity="0.5"/><line x1="253.91" y1="40" x2="253.91" y2="220" stroke="#30363d" opacity="0.5"/><line x1="325.22" y1="40" x2="325.22" y2="220" stroke="#30363d" opacity="0.5"/><line x1="396.52" y1="40" x2="396.52" y2="220" stroke="#30363d" opacity="0.5"/><line x1="467.83" y1="40" x2="467.83" y2="220" stroke="#30363d" opacity="0.5"/><line x1="539.13" y1="40" x2="539.13" y2="220" stroke="#30363d" opacity="0.5"/><line x1="610.43" y1="40" x2="610.43" y2="220" stroke="#30363d" opacity="0.5"/><line x1="681.74" y1="40" x2="681.74" y2="220" stroke="#30363d" opacity="0.5"/><line x1="753.04" y1="40" x2="753.04" y2="220" stroke="#30363d" opacity="0.5"/><line x1="824.35" y1="40" x2="824.35" y2="220" stroke="#30363d" opacity="0.5"/>
    <line x1="40" y1="220" x2="860" y2="220" stroke="#30363d"/>
    <line x1="40" y1="40"   x2="40"   y2="220" stroke="#30363d"/>
    <path d="M 40.00 219.82 L 75.65 211.81 L 111.30 211.81 L 146.96 211.81 L 182.61 171.85 L 218.26 171.58 L 253.91 164.38 L 289.57 118.93 L 325.22 119.11 L 360.87 111.10 L 396.52 110.56 L 432.17 110.56 L 467.83 110.56 L 503.48 95.35 L 539.13 95.35 L 574.78 95.35 L 610.43 94.63 L 646.09 94.54 L 681.74 94.45 L 717.39 94.09 L 753.04 94.09 L 788.70 94.09 L 824.35 94.09 L 860.00 94.09" fill="none" stroke="#3fb950" stroke-width="2"/>
    <circle cx="860.00" cy="94.09" r="3" fill="#3fb950"/>
    <text x="40.00" y="235.00" font-size="9" fill="#c9d1d9" text-anchor="middle" transform="rotate(-45 40.00 235.00)">09.08.2025</text><text x="111.30" y="235.00" font-size="9" fill="#c9d1d9" text-anchor="middle" transform="rotate(-45 111.30 235.00)">09.08.2025</text><text x="182.61" y="235.00" font-size="9" fill="#c9d1d9" text-anchor="middle" transform="rotate(-45 182.61 235.00)">09.08.2025</text><text x="253.91" y="235.00" font-size="9" fill="#c9d1d9" text-anchor="middle" transform="rotate(-45 253.91 235.00)">09.08.2025</text><text x="325.22" y="235.00" font-size="9" fill="#c9d1d9" text-anchor="middle" transform="rotate(-45 325.22 235.00)">12.08.2025</text><text x="396.52" y="235.00" font-size="9" fill="#c9d1d9" text-anchor="middle" transform="rotate(-45 396.52 235.00)">13.08.2025</text><text x="467.83" y="235.00" font-size="9" fill="#c9d1d9" text-anchor="middle" transform="rotate(-45 467.83 235.00)">13.08.2025</text><text x="539.13" y="235.00" font-size="9" fill="#c9d1d9" text-anchor="middle" transform="rotate(-45 539.13 235.00)">13.08.2025</text><text x="610.43" y="235.00" font-size="9" fill="#c9d1d9" text-anchor="middle" transform="rotate(-45 610.43 235.00)">13.08.2025</text><text x="681.74" y="235.00" font-size="9" fill="#c9d1d9" text-anchor="middle" transform="rotate(-45 681.74 235.00)">13.08.2025</text><text x="753.04" y="235.00" font-size="9" fill="#c9d1d9" text-anchor="middle" transform="rotate(-45 753.04 235.00)">14.08.2025</text><text x="824.35" y="235.00" font-size="9" fill="#c9d1d9" text-anchor="middle" transform="rotate(-45 824.35 235.00)">16.08.2025</text>
  </g>
</svg>