<svg xmlns="http://www.w3.org/2000/svg" width="900" height="290" style="font-family: -apple-system, BlinkMacSystemFont, 'Segoe UI', Helvetica, Arial, sans-serif;">
  <rect width="100%" height="100%" fill="#0d1117"/>
  <g>
    <line x1="40" y1="220.00" x2="860" y2="220.00" stroke="#30363d"/><text x="32" y="224.00" font-size="10" fill="#c9d1d9" text-anchor="end">0</text><line x1="40" y1="175.00" x2="860" y2="175.00" stroke="#30363d"/><text x="32" y="179.00" font-size="10" fill="#c9d1d9" text-anchor="end">500</text><line x1="40" y1="130.00" x2="860" y2="130.00" stroke="#30363d"/><text x="32" y="134.00" font-size="10" fill="#c9d1d9" text-anchor="end">1k</text><line x1="40" y1="85.00" x2="860" y2="85.00" stroke="#30363d"/><text x="32" y="89.00" font-size="10" fill="#c9d1d9" text-anchor="end">1.5k</text><line x1="40" y1="40.00" x2="860" y2="40.00" stroke="#30363d"/><text x="32" y="44.00" font-size="10" fill="#c9d1d9" text-anchor="end">2k</text>
    <line x1="40.00" y1="40" x2="40.00" y2="220" stroke="#30363d" opacity="0.5"/><line x1="116.88" y1="40" x2="116.88" y2="220" stroke="#30363d" opacity="0.5"/><line x1="193.75" y1="40" x2="193.75" y2="220" stroke="#30363d" opacity="0.5"/><line x1="270.62" y1="40" x2="270.62" y2="220" stroke="#30363d" opacity="0.5"/><line x1="347.50" y1="40" x2="347.50" y2="220" stroke="#30363d" opacity="0.5"/><line x1="424.38" y1="40" x2="424.38" y2="220" stroke="#30363d" opacity="0.5"/><line x1="501.25" y1="40" x2="501.25" y2="220" stroke="#30363d" opacity="0.5"/><line x1="578.12" y1="40" x2="578.12" y2="220" stroke="#30363d" opacity="0.5"/><line x1="655.00" y1="40" x2="655.00" y2="220" stroke="#30363d" opacity="0.5"/><line x1="731.88" y1="40" x2="731.88" y2="220" stroke="#30363d" opacity="0.5"/><line x1="808.75" y1="40" x2="808.75" y2="220" stroke="#30363d" opacity="0.5"/>
    <line x1="40" y1="220" x2="860" y2="220" stroke="#30363d"/>
    <line x1="40" y1="40"   x2="40"   y2="220" stroke="#30363d"/>
    <path d="M 40.00 219.82 L 48.54 211.81 L 57.08 211.81 L 65.62 211.81 L 74.17 171.85 L 82.71 171.58 L 91.25 164.38 L 99.79 118.93 L 108.33 119.11 L 116.88 111.10 L 125.42 110.56 L 133.96 110.56 L 142.50 110.56 L 151.04 95.35 L 159.58 95.35 L 168.12 95.35 L 176.67 94.63 L 185.21 94.54 L 193.75 94.45 L 202.29 94.09 L 210.83 94.09 L 219.38 94.09 L 227.92 94.09 L 236.46 94.09 L 245.00 94.09 L 253.54 94.09 L 262.08 94.09 L 270.62 94.09 L 279.17 91.84 L 287.71 83.65 L 296.25 83.65 L 304.79 83.47 L 313.33 83.65 L 321.88 91.03 L 330.42 91.03 L 338.96 91.03 L 347.50 91.03 L 356.04 91.03 L 364.58 91.03 L 373.12 91.03 L 381.67 91.03 L 390.21 91.03 L 398.75 91.03 L 407.29 91.03 L 415.83 90.94 L 424.38 91.03 L 432.92 90.94 L 441.46 90.94 L 450.00 90.94 L 458.54 90.94 L 467.08 90.94 L 475.62 90.94 L 484.17 90.94 L 492.71 90.94 L 501.25 90.94 L 509.79 90.94 L 518.33 90.94 L 526.88 90.94 L 535.42 90.94 L 543.96 90.94 L 552.50 90.94 L 561.04 90.94 L 569.58 90.94 L 578.12 90.94 L 586.67 90.94 L 595.21 90.94 L 603.75 90.94 L 612.29 90.94 L 620.83 90.94 L 629.38 90.94 L 637.92 90.94 L 646.46 123.79 L 655.00 123.79 L 663.54 123.79 L 672.08 123.79 L 680.62 123.79 L 689.17 123.79 L 697.71 123.79 L 706.25 123.79 L 714.79 123.79 L 723.33 123.79 L 731.88 123.79 L 740.42 123.79 L 748.96 123.79 L 757.50 123.79 L 766.04 123.79 L 774.58 123.79 L 783.12 123.79 L 791.67 123.79 L 800.21 123.79 L 808.75 123.79 L 817.29 123.79 L 825.83 123.79 L 834.38 123.79 L 842.92 123.79 L 851.46 123.79 L 860.00 123.79" fill="none" stroke="#3fb950" stroke-width="2"/>
    <circle cx="860.00" cy="123.79" r="3" fill="#3fb950"/>
    <text x="40.00" y="235.00" font-size="9" fill="#c9d1d9" text-anchor="middle" transform="rotate(-45 40.00 235.00)">09.08.2025</text><text x="116.88" y="235.00" font-size="9" fill="#c9d1d9" text-anchor="middle" transform="rotate(-45 116.88 235.00)">13.08.2025</text><text x="193.75" y="235.00" font-size="9" fill="#c9d1d9" text-anchor="middle" transform="rotate(-45 193.75 235.00)">13.08.2025</text><text x="270.62" y="235.00" font-size="9" fill="#c9d1d9" text-anchor="middle" transform="rotate(-45 270.62 235.00)">21.08.2025</text><text x="347.50" y="235.00" font-size="9" fill="#c9d1d9" text-anchor="middle" transform="rotate(-45 347.50 235.00)">22.08.2025</text><text x="424.38" y="235.00" font-size="9" fill="#c9d1d9" text-anchor="middle" transform="rotate(-45 424.38 235.00)">28.08.2025</text><text x="501.25" y="235.00" font-size="9" fill="#c9d1d9" text-anchor="middle" transform="rotate(-45 501.25 235.00)">04.09.2025</text><text x="578.12" y="235.00" font-size="9" fill="#c9d1d9" text-anchor="middle" transform="rotate(-45 578.12 235.00)">13.09.2025</text><text x="655.00" y="235.00" font-size="9" fill="#c9d1d9" text-anchor="middle" transform="rotate(-45 655.00 235.00)">21.09.2025</text><text x="731.88" y="235.00" font-size="9" fill="#c9d1d9" text-anchor="middle" transform="rotate(-45 731.88 235.00)">29.09.2025</text><text x="808.75" y="235.00" font-size="9" fill="#c9d1d9" text-anchor="middle" transform="rotate(-45 808.75 235.00)">08.10.2025</text>
  </g>
</svg>