<svg xmlns="http://www.w3.org/2000/svg" width="900" height="290" style="font-family: -apple-system, BlinkMacSystemFont, 'Segoe UI', Helvetica, Arial, sans-serif;">
  <rect width="100%" height="100%" fill="white"/>
  <g>
    <line x1="40" y1="220.00" x2="860" y2="220.00" stroke="#e5e7eb"/><text x="32" y="224.00" font-size="10" fill="#111827" text-anchor="end">0</text><line x1="40" y1="175.00" x2="860" y2="175.00" stroke="#e5e7eb"/><text x="32" y="179.00" font-size="10" fill="#111827" text-anchor="end">500</text><line x1="40" y1="130.00" x2="860" y2="130.00" stroke="#e5e7eb"/><text x="32" y="134.00" font-size="10" fill="#111827" text-anchor="end">1k</text><line x1="40" y1="85.00" x2="860" y2="85.00" stroke="#e5e7eb"/><text x="32" y="89.00" font-size="10" fill="#111827" text-anchor="end">1.5k</text><line x1="40" y1="40.00" x2="860" y2="40.00" stroke="#e5e7eb"/><text x="32" y="44.00" font-size="10" fill="#111827" text-anchor="end">2k</text>
    <line x1="40.00" y1="40" x2="40.00" y2="220" stroke="#e5e7eb" opacity="0.5"/><line x1="121.57" y1="40" x2="121.57" y2="220" stroke="#e5e7eb" opacity="0.5"/><line x1="203.14" y1="40" x2="203.14" y2="220" stroke="#e5e7eb" opacity="0.5"/><line x1="284.71" y1="40" x2="284.71" y2="220" stroke="#e5e7eb" opacity="0.5"/><line x1="366.28" y1="40" x2="366.28" y2="220" stroke="#e5e7eb" opacity="0.5"/><line x1="447.85" y1="40" x2="447.85" y2="220" stroke="#e5e7eb" opacity="0.5"/><line x1="529.42" y1="40" x2="529.42" y2="220" stroke="#e5e7eb" opacity="0.5"/><line x1="610.99" y1="40" x2="610.99" y2="220" stroke="#e5e7eb" opacity="0.5"/><line x1="692.57" y1="40" x2="692.57" y2="220" stroke="#e5e7eb" opacity="0.5"/><line x1="774.14" y1="40" x2="774.14" y2="220" stroke="#e5e7eb" opacity="0.5"/><line x1="855.71" y1="40" x2="855.71" y2="220" stroke="#e5e7eb" opacity="0.5"/>
    <line x1="40" y1="220" x2="860" y2="220" stroke="#9ca3af"/>
    <line x1="40" y1="40"   x2="40"   y2="220" stroke="#9ca3af"/>
    <path d="M 40.00 219.82 L 44.29 211.81 L 48.59 211.81 L 52.88 211.81 L 57.17 171.85 L 61.47 171.58 L 65.76 164.38 L 70.05 118.93 L 74.35 119.11 L 78.64 111.10 L 82.93 110.56 L 87.23 110.56 L 91.52 110.56 L 95.81 95.35 L 100.10 95.35 L 104.40 95.35 L 108.69 94.63 L 112.98 94.54 L 117.28 94.45 L 121.57 94.09 L 125.86 94.09 L 130.16 94.09 L 134.45 94.09 L 138.74 94.09 L 143.04 94.09 L 147.33 94.09 L 151.62 94.09 L 155.92 94.09 L 160.21 91.84 L 164.50 83.65 L 168.80 83.65 L 173.09 83.47 L 177.38 83.65 L 181.68 91.03 L 185.97 91.03 L 190.26 91.03 L 194.55 91.03 L 198.85 91.03 L 203.14 91.03 L 207.43 91.03 L 211.73 91.03 L 216.02 91.03 L 220.31 91.03 L 224.61 91.03 L 228.90 90.94 L 233.19 91.03 L 237.49 90.94 L 241.78 90.94 L 246.07 90.94 L 250.37 90.94 L 254.66 90.94 L 258.95 90.94 L 263.25 90.94 L 267.54 90.94 L 271.83 90.94 L 276.13 90.94 L 280.42 90.94 L 284.71 90.94 L 289.01 90.94 L 293.30 90.94 L 297.59 90.94 L 301.88 90.94 L 306.18 90.94 L 310.47 90.94 L 314.76 90.94 L 319.06 90.94 L 323.35 90.94 L 327.64 90.94 L 331.94 90.94 L 336.23 90.94 L 340.52 90.94 L 344.82 123.79 L 349.11 123.79 L 353.40 123.79 L 357.70 123.79 L 361.99 123.79 L 366.28 123.79 L 370.58 123.79 L 374.87 123.79 L 379.16 123.79 L 383.46 123.79 L 387.75 123.79 L 392.04 123.79 L 396.34 123.79 L 400.63 123.79 L 404.92 123.79 L 409.21 123.79 L 413.51 123.79 L 417.80 123.79 L 422.09 123.79 L 426.39 123.79 L 430.68 123.79 L 434.97 123.79 L 439.27 123.79 L 443.56 123.79 L 447.85 123.79 L 452.15 123.79 L 456.44 123.79 L 460.73 123.79 L 465.03 123.79 L 469.32 123.79 L 473.61 123.79 L 477.91 123.79 L 482.20 123.79 L 486.49 123.79 L 490.79 123.79 L 495.08 123.79 L 499.37 123.79 L 503.66 123.79 L 507.96 123.79 L 512.25 123.79 L 516.54 123.79 L 520.84 123.79 L 525.13 123.79 L 529.42 123.79 L 533.72 123.79 L 538.01 123.79 L 542.30 123.79 L 546.60 123.79 L 550.89 123.79 L 555.18 123.79 L 559.48 123.79 L 563.77 123.79 L 568.06 123.79 L 572.36 123.79 L 576.65 123.79 L 580.94 123.79 L 585.24 123.79 L 589.53 123.79 L 593.82 123.79 L 598.12 123.79 L 602.41 123.79 L 606.70 123.79 L 610.99 123.79 L 615.29 123.79 L 619.58 123.79 L 623.87 123.79 L 628.17 123.79 L 632.46 123.79 L 636.75 123.79 L 641.05 123.79 L 645.34 123.79 L 649.63 123.79 L 653.93 123.79 L 658.22 123.79 L 662.51 123.79 L 666.81 123.79 L 671.10 123.79 L 675.39 115.42 L 679.69 111.64 L 683.98 107.86 L 688.27 104.08 L 692.57 100.30 L 696.86 95.98 L 701.15 95.98 L 705.45 95.98 L 709.74 95.98 L 714.03 85.72 L 718.32 85.72 L 722.62 85.72 L 726.91 85.72 L 731.20 85.72 L 735.50 85.72 L 739.79 85.72 L 744.08 85.72 L 748.38 85.72 L 752.67 85.72 L 756.96 85.72 L 761.26 85.72 L 765.55 85.72 L 769.84 85.72 L 774.14 85.72 L 778.43 85.72 L 782.72 85.72 L 787.02 85.72 L 791.31 85.72 L 795.60 85.72 L 799.90 85.72 L 804.19 85.72 L 808.48 85.72 L 812.77 85.72 L 817.07 85.72 L 821.36 85.72 L 825.65 85.72 L 829.95 85.72 L 834.24 85.72 L 838.53 85.72 L 842.83 85.72 L 847.12 85.72 L 851.41 85.72 L 855.71 85.72 L 860.00 85.72" fill="none" stroke="#111827" stroke-width="2"/>
    <circle cx="860.00" cy="85.72" r="3" fill="#111827"/>
    <text x="40.00" y="235.00" font-size="9" fill="#111827" text-anchor="middle" transform="rotate(-45 40.00 235.00)">09.08.2025</text><text x="121.57" y="235.00" font-size="9" fill="#111827" text-anchor="middle" transform="rotate(-45 121.57 235.00)">13.08.2025</text><text x="203.14" y="235.00" font-size="9" fill="#111827" text-anchor="middle" transform="rotate(-45 203.14 235.00)">24.08.2025</text><text x="284.71" y="235.00" font-size="9" fill="#111827" text-anchor="middle" transform="rotate(-45 284.71 235.00)">07.09.2025</text><text x="366.28" y="235.00" font-size="9" fill="#111827" text-anchor="middle" transform="rotate(-45 366.28 235.00)">24.09.2025</text><text x="447.85" y="235.00" font-size="9" fill="#111827" text-anchor="middle" transform="rotate(-45 447.85 235.00)">13.10.2025</text><text x="529.42" y="235.00" font-size="9" fill="#111827" text-anchor="middle" transform="rotate(-45 529.42 235.00)">01.11.2025</text><text x="610.99" y="235.00" font-size="9" fill="#111827" text-anchor="middle" transform="rotate(-45 610.99 235.00)">20.11.2025</text><text x="692.57" y="235.00" font-size="9" fill="#111827" text-anchor="middle" transform="rotate(-45 692.57 235.00)">04.12.2025</text><text x="774.14" y="235.00" font-size="9" fill="#111827" text-anchor="middle" transform="rotate(-45 774.14 235.00)">21.12.2025</text><text x="855.71" y="235.00" font-size="9" fill="#111827" text-anchor="middle" transform="rotate(-45 855.71 235.00)">09.01.2026</text>
  </g>
</svg>