<svg xmlns="http://www.w3.org/2000/svg" width="900" height="290" style="font-family: -apple-system, BlinkMacSystemFont, 'Segoe UI', Helvetica, Arial, sans-serif;">
  <rect width="100%" height="100%" fill="white"/>
  <g>
    <line x1="40" y1="220.00" x2="860" y2="220.00" stroke="#e5e7eb"/><text x="32" y="224.00" font-size="10" fill="#111827" text-anchor="end">0</text><line x1="40" y1="175.00" x2="860" y2="175.00" stroke="#e5e7eb"/><text x="32" y="179.00" font-size="10" fill="#111827" text-anchor="end">500</text><line x1="40" y1="130.00" x2="860" y2="130.00" stroke="#e5e7eb"/><text x="32" y="134.00" font-size="10" fill="#111827" text-anchor="end">1k</text><line x1="40" y1="85.00" x2="860" y2="85.00" stroke="#e5e7eb"/><text x="32" y="89.00" font-size="10" fill="#111827" text-anchor="end">1.5k</text><line x1="40" y1="40.00" x2="860" y2="40.00" stroke="#e5e7eb"/><text x="32" y="44.00" font-size="10" fill="#111827" text-anchor="end">2k</text>
    <line x1="40.00" y1="40" x2="40.00" y2="220" stroke="#e5e7eb" opacity="0.5"/><line x1="115.40" y1="40" x2="115.40" y2="220" stroke="#e5e7eb" opacity="0.5"/><line x1="190.80" y1="40" x2="190.80" y2="220" stroke="#e5e7eb" opacity="0.5"/><line x1="266.21" y1="40" x2="266.21" y2="220" stroke="#e5e7eb" opacity="0.5"/><line x1="341.61" y1="40" x2="341.61" y2="220" stroke="#e5e7eb" opacity="0.5"/><line x1="417.01" y1="40" x2="417.01" y2="220" stroke="#e5e7eb" opacity="0.5"/><line x1="492.41" y1="40" x2="492.41" y2="220" stroke="#e5e7eb" opacity="0.5"/><line x1="567.82" y1="40" x2="567.82" y2="220" stroke="#e5e7eb" opacity="0.5"/><line x1="643.22" y1="40" x2="643.22" y2="220" stroke="#e5e7eb" opacity="0.5"/><line x1="718.62" y1="40" x2="718.62" y2="220" stroke="#e5e7eb" opacity="0.5"/><line x1="794.02" y1="40" x2="794.02" y2="220" stroke="#e5e7eb" opacity="0.5"/>
    <line x1="40" y1="220" x2="860" y2="220" stroke="#9ca3af"/>
    <line x1="40" y1="40"   x2="40"   y2="220" stroke="#9ca3af"/>
    <path d="M 40.00 219.82 L 49.43 211.81 L 58.85 211.81 L 68.28 211.81 L 77.70 171.85 L 87.13 171.58 L 96.55 164.38 L 105.98 118.93 L 115.40 119.11 L 124.83 111.10 L 134.25 110.56 L 143.68 110.56 L 153.10 110.56 L 162.53 95.35 L 171.95 95.35 L 181.38 95.35 L 190.80 94.63 L 200.23 94.54 L 209.66 94.45 L 219.08 94.09 L 228.51 94.09 L 237.93 94.09 L 247.36 94.09 L 256.78 94.09 L 266.21 94.09 L 275.63 94.09 L 285.06 94.09 L 294.48 94.09 L 303.91 91.84 L 313.33 83.65 L 322.76 83.65 L 332.18 83.47 L 341.61 83.65 L 351.03 91.03 L 360.46 91.03 L 369.89 91.03 L 379.31 91.03 L 388.74 91.03 L 398.16 91.03 L 407.59 91.03 L 417.01 91.03 L 426.44 91.03 L 435.86 91.03 L 445.29 91.03 L 454.71 90.94 L 464.14 91.03 L 473.56 90.94 L 482.99 90.94 L 492.41 90.94 L 501.84 90.94 L 511.26 90.94 L 520.69 90.94 L 530.11 90.94 L 539.54 90.94 L 548.97 90.94 L 558.39 90.94 L 567.82 90.94 L 577.24 90.94 L 586.67 90.94 L 596.09 90.94 L 605.52 90.94 L 614.94 90.94 L 624.37 90.94 L 633.79 90.94 L 643.22 90.94 L 652.64 90.94 L 662.07 90.94 L 671.49 90.94 L 680.92 90.94 L 690.34 90.94 L 699.77 90.94 L 709.20 123.79 L 718.62 123.79 L 728.05 123.79 L 737.47 123.79 L 746.90 123.79 L 756.32 123.79 L 765.75 123.79 L 775.17 123.79 L 784.60 123.79 L 794.02 123.79 L 803.45 123.79 L 812.87 123.79 L 822.30 123.79 L 831.72 123.79 L 841.15 123.79 L 850.57 123.79 L 860.00 123.79" fill="none" stroke="#111827" stroke-width="2"/>
    <circle cx="860.00" cy="123.79" r="3" fill="#111827"/>
    <text x="40.00" y="235.00" font-size="9" fill="#111827" text-anchor="middle" transform="rotate(-45 40.00 235.00)">09.08.2025</text><text x="115.40" y="235.00" font-size="9" fill="#111827" text-anchor="middle" transform="rotate(-45 115.40 235.00)">12.08.2025</text><text x="190.80" y="235.00" font-size="9" fill="#111827" text-anchor="middle" transform="rotate(-45 190.80 235.00)">13.08.2025</text><text x="266.21" y="235.00" font-size="9" fill="#111827" text-anchor="middle" transform="rotate(-45 266.21 235.00)">18.08.2025</text><text x="341.61" y="235.00" font-size="9" fill="#111827" text-anchor="middle" transform="rotate(-45 341.61 235.00)">21.08.2025</text><text x="417.01" y="235.00" font-size="9" fill="#111827" text-anchor="middle" transform="rotate(-45 417.01 235.00)">26.08.2025</text><text x="492.41" y="235.00" font-size="9" fill="#111827" text-anchor="middle" transform="rotate(-45 492.41 235.00)">29.08.2025</text><text x="567.82" y="235.00" font-size="9" fill="#111827" text-anchor="middle" transform="rotate(-45 567.82 235.00)">06.09.2025</text><text x="643.22" y="235.00" font-size="9" fill="#111827" text-anchor="middle" transform="rotate(-45 643.22 235.00)">14.09.2025</text><text x="718.62" y="235.00" font-size="9" fill="#111827" text-anchor="middle" transform="rotate(-45 718.62 235.00)">21.09.2025</text><text x="794.02" y="235.00" font-size="9" fill="#111827" text-anchor="middle" transform="rotate(-45 794.02 235.00)">28.09.2025</text>
  </g>
</svg>