<svg xmlns="http://www.w3.org/2000/svg" width="900" height="290" style="font-family: -apple-system, BlinkMacSystemFont, 'Segoe UI', Helvetica, Arial, sans-serif;">
  <rect width="100%" height="100%" fill="white"/>
  <g>
    <line x1="40" y1="220.00" x2="860" y2="220.00" stroke="#e5e7eb"/><text x="32" y="224.00" font-size="10" fill="#111827" text-anchor="end">0</text><line x1="40" y1="175.00" x2="860" y2="175.00" stroke="#e5e7eb"/><text x="32" y="179.00" font-size="10" fill="#111827" text-anchor="end">500</text><line x1="40" y1="130.00" x2="860" y2="130.00" stroke="#e5e7eb"/><text x="32" y="134.00" font-size="10" fill="#111827" text-anchor="end">1k</text><line x1="40" y1="85.00" x2="860" y2="85.00" stroke="#e5e7eb"/><text x="32" y="89.00" font-size="10" fill="#111827" text-anchor="end">1.5k</text><line x1="40" y1="40.00" x2="860" y2="40.00" stroke="#e5e7eb"/><text x="32" y="44.00" font-size="10" fill="#111827" text-anchor="end">2k</text>
    <line x1="40.00" y1="40" x2="40.00" y2="220" stroke="#e5e7eb" opacity="0.5"/><line x1="120.73" y1="40" x2="120.73" y2="220" stroke="#e5e7eb" opacity="0.5"/><line x1="201.45" y1="40" x2="201.45" y2="220" stroke="#e5e7eb" opacity="0.5"/><line x1="282.18" y1="40" x2="282.18" y2="220" stroke="#e5e7eb" opacity="0.5"/><line x1="362.90" y1="40" x2="362.90" y2="220" stroke="#e5e7eb" opacity="0.5"/><line x1="443.63" y1="40" x2="443.63" y2="220" stroke="#e5e7eb" opacity="0.5"/><line x1="524.35" y1="40" x2="524.35" y2="220" stroke="#e5e7eb" opacity="0.5"/><line x1="605.08" y1="40" x2="605.08" y2="220" stroke="#e5e7eb" opacity="0.5"/><line x1="685.80" y1="40" x2="685.80" y2="220" stroke="#e5e7eb" opacity="0.5"/><line x1="766.53" y1="40" x2="766.53" y2="220" stroke="#e5e7eb" opacity="0.5"/><line x1="847.25" y1="40" x2="847.25" y2="220" stroke="#e5e7eb" opacity="0.5"/>
    <line x1="40" y1="220" x2="860" y2="220" stroke="#9ca3af"/>
    <line x1="40" y1="40"   x2="40"   y2="220" stroke="#9ca3af"/>
    <path d="M 40.00 219.82 L 44.25 211.81 L 48.50 211.81 L 52.75 211.81 L 56.99 171.85 L 61.24 171.58 L 65.49 164.38 L 69.74 118.93 L 73.99 119.11 L 78.24 111.10 L 82.49 110.56 L 86.74 110.56 L 90.98 110.56 L 95.23 95.35 L 99.48 95.35 L 103.73 95.35 L 107.98 94.63 L 112.23 94.54 L 116.48 94.45 L 120.73 94.09 L 124.97 94.09 L 129.22 94.09 L 133.47 94.09 L 137.72 94.09 L 141.97 94.09 L 146.22 94.09 L 150.47 94.09 L 154.72 94.09 L 158.96 91.84 L 163.21 83.65 L 167.46 83.65 L 171.71 83.47 L 175.96 83.65 L 180.21 91.03 L 184.46 91.03 L 188.70 91.03 L 192.95 91.03 L 197.20 91.03 L 201.45 91.03 L 205.70 91.03 L 209.95 91.03 L 214.20 91.03 L 218.45 91.03 L 222.69 91.03 L 226.94 90.94 L 231.19 91.03 L 235.44 90.94 L 239.69 90.94 L 243.94 90.94 L 248.19 90.94 L 252.44 90.94 L 256.68 90.94 L 260.93 90.94 L 265.18 90.94 L 269.43 90.94 L 273.68 90.94 L 277.93 90.94 L 282.18 90.94 L 286.42 90.94 L 290.67 90.94 L 294.92 90.94 L 299.17 90.94 L 303.42 90.94 L 307.67 90.94 L 311.92 90.94 L 316.17 90.94 L 320.41 90.94 L 324.66 90.94 L 328.91 90.94 L 333.16 90.94 L 337.41 90.94 L 341.66 123.79 L 345.91 123.79 L 350.16 123.79 L 354.40 123.79 L 358.65 123.79 L 362.90 123.79 L 367.15 123.79 L 371.40 123.79 L 375.65 123.79 L 379.90 123.79 L 384.15 123.79 L 388.39 123.79 L 392.64 123.79 L 396.89 123.79 L 401.14 123.79 L 405.39 123.79 L 409.64 123.79 L 413.89 123.79 L 418.13 123.79 L 422.38 123.79 L 426.63 123.79 L 430.88 123.79 L 435.13 123.79 L 439.38 123.79 L 443.63 123.79 L 447.88 123.79 L 452.12 123.79 L 456.37 123.79 L 460.62 123.79 L 464.87 123.79 L 469.12 123.79 L 473.37 123.79 L 477.62 123.79 L 481.87 123.79 L 486.11 123.79 L 490.36 123.79 L 494.61 123.79 L 498.86 123.79 L 503.11 123.79 L 507.36 123.79 L 511.61 123.79 L 515.85 123.79 L 520.10 123.79 L 524.35 123.79 L 528.60 123.79 L 532.85 123.79 L 537.10 123.79 L 541.35 123.79 L 545.60 123.79 L 549.84 123.79 L 554.09 123.79 L 558.34 123.79 L 562.59 123.79 L 566.84 123.79 L 571.09 123.79 L 575.34 123.79 L 579.59 123.79 L 583.83 123.79 L 588.08 123.79 L 592.33 123.79 L 596.58 123.79 L 600.83 123.79 L 605.08 123.79 L 609.33 123.79 L 613.58 123.79 L 617.82 123.79 L 622.07 123.79 L 626.32 123.79 L 630.57 123.79 L 634.82 123.79 L 639.07 123.79 L 643.32 123.79 L 647.56 123.79 L 651.81 123.79 L 656.06 123.79 L 660.31 123.79 L 664.56 123.79 L 668.81 115.42 L 673.06 111.64 L 677.31 107.86 L 681.55 104.08 L 685.80 100.30 L 690.05 95.98 L 694.30 95.98 L 698.55 95.98 L 702.80 95.98 L 707.05 85.72 L 711.30 85.72 L 715.54 85.72 L 719.79 85.72 L 724.04 85.72 L 728.29 85.72 L 732.54 85.72 L 736.79 85.72 L 741.04 85.72 L 745.28 85.72 L 749.53 85.72 L 753.78 85.72 L 758.03 85.72 L 762.28 85.72 L 766.53 85.72 L 770.78 85.72 L 775.03 85.72 L 779.27 85.72 L 783.52 85.72 L 787.77 85.72 L 792.02 85.72 L 796.27 85.72 L 800.52 85.72 L 804.77 85.72 L 809.02 85.72 L 813.26 85.72 L 817.51 85.72 L 821.76 85.72 L 826.01 85.72 L 830.26 85.72 L 834.51 85.72 L 838.76 85.72 L 843.01 85.72 L 847.25 85.72 L 851.50 85.72 L 855.75 85.72 L 860.00 85.72" fill="none" stroke="#111827" stroke-width="2"/>
    <circle cx="860.00" cy="85.72" r="3" fill="#111827"/>
    <text x="40.00" y="235.00" font-size="9" fill="#111827" text-anchor="middle" transform="rotate(-45 40.00 235.00)">09.08.2025</text><text x="120.73" y="235.00" font-size="9" fill="#111827" text-anchor="middle" transform="rotate(-45 120.73 235.00)">13.08.2025</text><text x="201.45" y="235.00" font-size="9" fill="#111827" text-anchor="middle" transform="rotate(-45 201.45 235.00)">24.08.2025</text><text x="282.18" y="235.00" font-size="9" fill="#111827" text-anchor="middle" transform="rotate(-45 282.18 235.00)">07.09.2025</text><text x="362.90" y="235.00" font-size="9" fill="#111827" text-anchor="middle" transform="rotate(-45 362.90 235.00)">24.09.2025</text><text x="443.63" y="235.00" font-size="9" fill="#111827" text-anchor="middle" transform="rotate(-45 443.63 235.00)">13.10.2025</text><text x="524.35" y="235.00" font-size="9" fill="#111827" text-anchor="middle" transform="rotate(-45 524.35 235.00)">01.11.2025</text><text x="605.08" y="235.00" font-size="9" fill="#111827" text-anchor="middle" transform="rotate(-45 605.08 235.00)">20.11.2025</text><text x="685.80" y="235.00" font-size="9" fill="#111827" text-anchor="middle" transform="rotate(-45 685.80 235.00)">04.12.2025</text><text x="766.53" y="235.00" font-size="9" fill="#111827" text-anchor="middle" transform="rotate(-45 766.53 235.00)">21.12.2025</text><text x="847.25" y="235.00" font-size="9" fill="#111827" text-anchor="middle" transform="rotate(-45 847.25 235.00)">09.01.2026</text>
  </g>
</svg>