<svg xmlns="http://www.w3.org/2000/svg" width="900" height="290" style="font-family: -apple-system, BlinkMacSystemFont, 'Segoe UI', Helvetica, Arial, sans-serif;">
  <rect width="100%" height="100%" fill="#0d1117"/>
  <g>
    <line x1="40" y1="220.00" x2="860" y2="220.00" stroke="#30363d"/><text x="32" y="224.00" font-size="10" fill="#c9d1d9" text-anchor="end">0</text><line x1="40" y1="175.00" x2="860" y2="175.00" stroke="#30363d"/><text x="32" y="179.00" font-size="10" fill="#c9d1d9" text-anchor="end">500</text><line x1="40" y1="130.00" x2="860" y2="130.00" stroke="#30363d"/><text x="32" y="134.00" font-size="10" fill="#c9d1d9" text-anchor="end">1k</text><line x1="40" y1="85.00" x2="860" y2="85.00" stroke="#30363d"/><text x="32" y="89.00" font-size="10" fill="#c9d1d9" text-anchor="end">1.5k</text><line x1="40" y1="40.00" x2="860" y2="40.00" stroke="#30363d"/><text x="32" y="44.00" font-size="10" fill="#c9d1d9" text-anchor="end">2k</text>
    <line x1="40.00" y1="40" x2="40.00" y2="220" stroke="#30363d" opacity="0.5"/><line x1="119.66" y1="40" x2="119.66" y2="220" stroke="#30363d" opacity="0.5"/><line x1="199.31" y1="40" x2="199.31" y2="220" stroke="#30363d" opacity="0.5"/><line x1="278.97" y1="40" x2="278.97" y2="220" stroke="#30363d" opacity="0.5"/><line x1="358.63" y1="40" x2="358.63" y2="220" stroke="#30363d" opacity="0.5"/><line x1="438.29" y1="40" x2="438.29" y2="220" stroke="#30363d" opacity="0.5"/><line x1="517.94" y1="40" x2="517.94" y2="220" stroke="#30363d" opacity="0.5"/><line x1="597.60" y1="40" x2="597.60" y2="220" stroke="#30363d" opacity="0.5"/><line x1="677.26" y1="40" x2="677.26" y2="220" stroke="#30363d" opacity="0.5"/><line x1="756.91" y1="40" x2="756.91" y2="220" stroke="#30363d" opacity="0.5"/><line x1="836.57" y1="40" x2="836.57" y2="220" stroke="#30363d" opacity="0.5"/>
    <line x1="40" y1="220" x2="860" y2="220" stroke="#30363d"/>
    <line x1="40" y1="40"   x2="40"   y2="220" stroke="#30363d"/>
    <path d="M 40.00 219.82 L 44.69 211.81 L 49.37 211.81 L 54.06 211.81 L 58.74 171.85 L 63.43 171.58 L 68.11 164.38 L 72.80 118.93 L 77.49 119.11 L 82.17 111.10 L 86.86 110.56 L 91.54 110.56 L 96.23 110.56 L 100.91 95.35 L 105.60 95.35 L 110.29 95.35 L 114.97 94.63 L 119.66 94.54 L 124.34 94.45 L 129.03 94.09 L 133.71 94.09 L 138.40 94.09 L 143.09 94.09 L 147.77 94.09 L 152.46 94.09 L 157.14 94.09 L 161.83 94.09 L 166.51 94.09 L 171.20 91.84 L 175.89 83.65 L 180.57 83.65 L 185.26 83.47 L 189.94 83.65 L 194.63 91.03 L 199.31 91.03 L 204.00 91.03 L 208.69 91.03 L 213.37 91.03 L 218.06 91.03 L 222.74 91.03 L 227.43 91.03 L 232.11 91.03 L 236.80 91.03 L 241.49 91.03 L 246.17 90.94 L 250.86 91.03 L 255.54 90.94 L 260.23 90.94 L 264.91 90.94 L 269.60 90.94 L 274.29 90.94 L 278.97 90.94 L 283.66 90.94 L 288.34 90.94 L 293.03 90.94 L 297.71 90.94 L 302.40 90.94 L 307.09 90.94 L 311.77 90.94 L 316.46 90.94 L 321.14 90.94 L 325.83 90.94 L 330.51 90.94 L 335.20 90.94 L 339.89 90.94 L 344.57 90.94 L 349.26 90.94 L 353.94 90.94 L 358.63 90.94 L 363.31 90.94 L 368.00 90.94 L 372.69 123.79 L 377.37 123.79 L 382.06 123.79 L 386.74 123.79 L 391.43 123.79 L 396.11 123.79 L 400.80 123.79 L 405.49 123.79 L 410.17 123.79 L 414.86 123.79 L 419.54 123.79 L 424.23 123.79 L 428.91 123.79 L 433.60 123.79 L 438.29 123.79 L 442.97 123.79 L 447.66 123.79 L 452.34 123.79 L 457.03 123.79 L 461.71 123.79 L 466.40 123.79 L 471.09 123.79 L 475.77 123.79 L 480.46 123.79 L 485.14 123.79 L 489.83 123.79 L 494.51 123.79 L 499.20 123.79 L 503.89 123.79 L 508.57 123.79 L 513.26 123.79 L 517.94 123.79 L 522.63 123.79 L 527.31 123.79 L 532.00 123.79 L 536.69 123.79 L 541.37 123.79 L 546.06 123.79 L 550.74 123.79 L 555.43 123.79 L 560.11 123.79 L 564.80 123.79 L 569.49 123.79 L 574.17 123.79 L 578.86 123.79 L 583.54 123.79 L 588.23 123.79 L 592.91 123.79 L 597.60 123.79 L 602.29 123.79 L 606.97 123.79 L 611.66 123.79 L 616.34 123.79 L 621.03 123.79 L 625.71 123.79 L 630.40 123.79 L 635.09 123.79 L 639.77 123.79 L 644.46 123.79 L 649.14 123.79 L 653.83 123.79 L 658.51 123.79 L 663.20 123.79 L 667.89 123.79 L 672.57 123.79 L 677.26 123.79 L 681.94 123.79 L 686.63 123.79 L 691.31 123.79 L 696.00 123.79 L 700.69 123.79 L 705.37 123.79 L 710.06 123.79 L 714.74 123.79 L 719.43 123.79 L 724.11 123.79 L 728.80 123.79 L 733.49 115.42 L 738.17 111.64 L 742.86 107.86 L 747.54 104.08 L 752.23 100.30 L 756.91 95.98 L 761.60 95.98 L 766.29 95.98 L 770.97 95.98 L 775.66 85.72 L 780.34 85.72 L 785.03 85.72 L 789.71 85.72 L 794.40 85.72 L 799.09 85.72 L 803.77 85.72 L 808.46 85.72 L 813.14 85.72 L 817.83 85.72 L 822.51 85.72 L 827.20 85.72 L 831.89 85.72 L 836.57 85.72 L 841.26 85.72 L 845.94 85.72 L 850.63 85.72 L 855.31 85.72 L 860.00 85.72" fill="none" stroke="#3fb950" stroke-width="2"/>
    <circle cx="860.00" cy="85.72" r="3" fill="#3fb950"/>
    <text x="40.00" y="235.00" font-size="9" fill="#c9d1d9" text-anchor="middle" transform="rotate(-45 40.00 235.00)">09.08.2025</text><text x="119.66" y="235.00" font-size="9" fill="#c9d1d9" text-anchor="middle" transform="rotate(-45 119.66 235.00)">13.08.2025</text><text x="199.31" y="235.00" font-size="9" fill="#c9d1d9" text-anchor="middle" transform="rotate(-45 199.31 235.00)">21.08.2025</text><text x="278.97" y="235.00" font-size="9" fill="#c9d1d9" text-anchor="middle" transform="rotate(-45 278.97 235.00)">01.09.2025</text><text x="358.63" y="235.00" font-size="9" fill="#c9d1d9" text-anchor="middle" transform="rotate(-45 358.63 235.00)">18.09.2025</text><text x="438.29" y="235.00" font-size="9" fill="#c9d1d9" text-anchor="middle" transform="rotate(-45 438.29 235.00)">03.10.2025</text><text x="517.94" y="235.00" font-size="9" fill="#c9d1d9" text-anchor="middle" transform="rotate(-45 517.94 235.00)">20.10.2025</text><text x="597.60" y="235.00" font-size="9" fill="#c9d1d9" text-anchor="middle" transform="rotate(-45 597.60 235.00)">06.11.2025</text><text x="677.26" y="235.00" font-size="9" fill="#c9d1d9" text-anchor="middle" transform="rotate(-45 677.26 235.00)">23.11.2025</text><text x="756.91" y="235.00" font-size="9" fill="#c9d1d9" text-anchor="middle" transform="rotate(-45 756.91 235.00)">04.12.2025</text><text x="836.57" y="235.00" font-size="9" fill="#c9d1d9" text-anchor="middle" transform="rotate(-45 836.57 235.00)">20.12.2025</text>
  </g>
</svg>