<svg xmlns="http://www.w3.org/2000/svg" width="900" height="290" style="font-family: -apple-system, BlinkMacSystemFont, 'Segoe UI', Helvetica, Arial, sans-serif;">
  <rect width="100%" height="100%" fill="#0d1117"/>
  <g>
    <line x1="40" y1="220.00" x2="860" y2="220.00" stroke="#30363d"/><text x="32" y="224.00" font-size="10" fill="#c9d1d9" text-anchor="end">0</text><line x1="40" y1="175.00" x2="860" y2="175.00" stroke="#30363d"/><text x="32" y="179.00" font-size="10" fill="#c9d1d9" text-anchor="end">500</text><line x1="40" y1="130.00" x2="860" y2="130.00" stroke="#30363d"/><text x="32" y="134.00" font-size="10" fill="#c9d1d9" text-anchor="end">1k</text><line x1="40" y1="85.00" x2="860" y2="85.00" stroke="#30363d"/><text x="32" y="89.00" font-size="10" fill="#c9d1d9" text-anchor="end">1.5k</text><line x1="40" y1="40.00" x2="860" y2="40.00" stroke="#30363d"/><text x="32" y="44.00" font-size="10" fill="#c9d1d9" text-anchor="end">2k</text>
    <line x1="40.00" y1="40" x2="40.00" y2="220" stroke="#30363d" opacity="0.5"/><line x1="116.53" y1="40" x2="116.53" y2="220" stroke="#30363d" opacity="0.5"/><line x1="193.07" y1="40" x2="193.07" y2="220" stroke="#30363d" opacity="0.5"/><line x1="269.60" y1="40" x2="269.60" y2="220" stroke="#30363d" opacity="0.5"/><line x1="346.13" y1="40" x2="346.13" y2="220" stroke="#30363d" opacity="0.5"/><line x1="422.67" y1="40" x2="422.67" y2="220" stroke="#30363d" opacity="0.5"/><line x1="499.20" y1="40" x2="499.20" y2="220" stroke="#30363d" opacity="0.5"/><line x1="575.73" y1="40" x2="575.73" y2="220" stroke="#30363d" opacity="0.5"/><line x1="652.27" y1="40" x2="652.27" y2="220" stroke="#30363d" opacity="0.5"/><line x1="728.80" y1="40" x2="728.80" y2="220" stroke="#30363d" opacity="0.5"/><line x1="805.33" y1="40" x2="805.33" y2="220" stroke="#30363d" opacity="0.5"/>
    <line x1="40" y1="220" x2="860" y2="220" stroke="#30363d"/>
    <line x1="40" y1="40"   x2="40"   y2="220" stroke="#30363d"/>
    <path d="M 40.00 219.82 L 50.93 211.81 L 61.87 211.81 L 72.80 211.81 L 83.73 171.85 L 94.67 171.58 L 105.60 164.38 L 116.53 118.93 L 127.47 119.11 L 138.40 111.10 L 149.33 110.56 L 160.27 110.56 L 171.20 110.56 L 182.13 95.35 L 193.07 95.35 L 204.00 95.35 L 214.93 94.63 L 225.87 94.54 L 236.80 94.45 L 247.73 94.09 L 258.67 94.09 L 269.60 94.09 L 280.53 94.09 L 291.47 94.09 L 302.40 94.09 L 313.33 94.09 L 324.27 94.09 L 335.20 94.09 L 346.13 91.84 L 357.07 83.65 L 368.00 83.65 L 378.93 83.47 L 389.87 83.65 L 400.80 91.03 L 411.73 91.03 L 422.67 91.03 L 433.60 91.03 L 444.53 91.03 L 455.47 91.03 L 466.40 91.03 L 477.33 91.03 L 488.27 91.03 L 499.20 91.03 L 510.13 91.03 L 521.07 90.94 L 532.00 91.03 L 542.93 90.94 L 553.87 90.94 L 564.80 90.94 L 575.73 90.94 L 586.67 90.94 L 597.60 90.94 L 608.53 90.94 L 619.47 90.94 L 630.40 90.94 L 641.33 90.94 L 652.27 90.94 L 663.20 90.94 L 674.13 90.94 L 685.07 90.94 L 696.00 90.94 L 706.93 90.94 L 717.87 90.94 L 728.80 90.94 L 739.73 90.94 L 750.67 90.94 L 761.60 90.94 L 772.53 90.94 L 783.47 90.94 L 794.40 90.94 L 805.33 90.94 L 816.27 123.79 L 827.20 123.79 L 838.13 123.79 L 849.07 123.79 L 860.00 123.79" fill="none" stroke="#3fb950" stroke-width="2"/>
    <circle cx="860.00" cy="123.79" r="3" fill="#3fb950"/>
    <text x="40.00" y="235.00" font-size="9" fill="#c9d1d9" text-anchor="middle" transform="rotate(-45 40.00 235.00)">09.08.2025</text><text x="116.53" y="235.00" font-size="9" fill="#c9d1d9" text-anchor="middle" transform="rotate(-45 116.53 235.00)">09.08.2025</text><text x="193.07" y="235.00" font-size="9" fill="#c9d1d9" text-anchor="middle" transform="rotate(-45 193.07 235.00)">13.08.2025</text><text x="269.60" y="235.00" font-size="9" fill="#c9d1d9" text-anchor="middle" transform="rotate(-45 269.60 235.00)">15.08.2025</text><text x="346.13" y="235.00" font-size="9" fill="#c9d1d9" text-anchor="middle" transform="rotate(-45 346.13 235.00)">21.08.2025</text><text x="422.67" y="235.00" font-size="9" fill="#c9d1d9" text-anchor="middle" transform="rotate(-45 422.67 235.00)">21.08.2025</text><text x="499.20" y="235.00" font-size="9" fill="#c9d1d9" text-anchor="middle" transform="rotate(-45 499.20 235.00)">28.08.2025</text><text x="575.73" y="235.00" font-size="9" fill="#c9d1d9" text-anchor="middle" transform="rotate(-45 575.73 235.00)">30.08.2025</text><text x="652.27" y="235.00" font-size="9" fill="#c9d1d9" text-anchor="middle" transform="rotate(-45 652.27 235.00)">06.09.2025</text><text x="728.80" y="235.00" font-size="9" fill="#c9d1d9" text-anchor="middle" transform="rotate(-45 728.80 235.00)">13.09.2025</text><text x="805.33" y="235.00" font-size="9" fill="#c9d1d9" text-anchor="middle" transform="rotate(-45 805.33 235.00)">20.09.2025</text>
  </g>
</svg>