<svg xmlns="http://www.w3.org/2000/svg" width="900" height="290" style="font-family: -apple-system, BlinkMacSystemFont, 'Segoe UI', Helvetica, Arial, sans-serif;">
  <rect width="100%" height="100%" fill="white"/>
  <g>
    <line x1="40" y1="220.00" x2="860" y2="220.00" stroke="#e5e7eb"/><text x="32" y="224.00" font-size="10" fill="#111827" text-anchor="end">0</text><line x1="40" y1="175.00" x2="860" y2="175.00" stroke="#e5e7eb"/><text x="32" y="179.00" font-size="10" fill="#111827" text-anchor="end">500</text><line x1="40" y1="130.00" x2="860" y2="130.00" stroke="#e5e7eb"/><text x="32" y="134.00" font-size="10" fill="#111827" text-anchor="end">1k</text><line x1="40" y1="85.00" x2="860" y2="85.00" stroke="#e5e7eb"/><text x="32" y="89.00" font-size="10" fill="#111827" text-anchor="end">1.5k</text><line x1="40" y1="40.00" x2="860" y2="40.00" stroke="#e5e7eb"/><text x="32" y="44.00" font-size="10" fill="#111827" text-anchor="end">2k</text>
    <line x1="40.00" y1="40" x2="40.00" y2="220" stroke="#e5e7eb" opacity="0.5"/><line x1="122.00" y1="40" x2="122.00" y2="220" stroke="#e5e7eb" opacity="0.5"/><line x1="204.00" y1="40" x2="204.00" y2="220" stroke="#e5e7eb" opacity="0.5"/><line x1="286.00" y1="40" x2="286.00" y2="220" stroke="#e5e7eb" opacity="0.5"/><line x1="368.00" y1="40" x2="368.00" y2="220" stroke="#e5e7eb" opacity="0.5"/><line x1="450.00" y1="40" x2="450.00" y2="220" stroke="#e5e7eb" opacity="0.5"/><line x1="532.00" y1="40" x2="532.00" y2="220" stroke="#e5e7eb" opacity="0.5"/><line x1="614.00" y1="40" x2="614.00" y2="220" stroke="#e5e7eb" opacity="0.5"/><line x1="696.00" y1="40" x2="696.00" y2="220" stroke="#e5e7eb" opacity="0.5"/><line x1="778.00" y1="40" x2="778.00" y2="220" stroke="#e5e7eb" opacity="0.5"/><line x1="860.00" y1="40" x2="860.00" y2="220" stroke="#e5e7eb" opacity="0.5"/>
    <line x1="40" y1="220" x2="860" y2="220" stroke="#9ca3af"/>
    <line x1="40" y1="40"   x2="40"   y2="220" stroke="#9ca3af"/>
    <path d="M 40.00 219.82 L 44.56 211.81 L 49.11 211.81 L 53.67 211.81 L 58.22 171.85 L 62.78 171.58 L 67.33 164.38 L 71.89 118.93 L 76.44 119.11 L 81.00 111.10 L 85.56 110.56 L 90.11 110.56 L 94.67 110.56 L 99.22 95.35 L 103.78 95.35 L 108.33 95.35 L 112.89 94.63 L 117.44 94.54 L 122.00 94.45 L 126.56 94.09 L 131.11 94.09 L 135.67 94.09 L 140.22 94.09 L 144.78 94.09 L 149.33 94.09 L 153.89 94.09 L 158.44 94.09 L 163.00 94.09 L 167.56 91.84 L 172.11 83.65 L 176.67 83.65 L 181.22 83.47 L 185.78 83.65 L 190.33 91.03 L 194.89 91.03 L 199.44 91.03 L 204.00 91.03 L 208.56 91.03 L 213.11 91.03 L 217.67 91.03 L 222.22 91.03 L 226.78 91.03 L 231.33 91.03 L 235.89 91.03 L 240.44 90.94 L 245.00 91.03 L 249.56 90.94 L 254.11 90.94 L 258.67 90.94 L 263.22 90.94 L 267.78 90.94 L 272.33 90.94 L 276.89 90.94 L 281.44 90.94 L 286.00 90.94 L 290.56 90.94 L 295.11 90.94 L 299.67 90.94 L 304.22 90.94 L 308.78 90.94 L 313.33 90.94 L 317.89 90.94 L 322.44 90.94 L 327.00 90.94 L 331.56 90.94 L 336.11 90.94 L 340.67 90.94 L 345.22 90.94 L 349.78 90.94 L 354.33 90.94 L 358.89 90.94 L 363.44 123.79 L 368.00 123.79 L 372.56 123.79 L 377.11 123.79 L 381.67 123.79 L 386.22 123.79 L 390.78 123.79 L 395.33 123.79 L 399.89 123.79 L 404.44 123.79 L 409.00 123.79 L 413.56 123.79 L 418.11 123.79 L 422.67 123.79 L 427.22 123.79 L 431.78 123.79 L 436.33 123.79 L 440.89 123.79 L 445.44 123.79 L 450.00 123.79 L 454.56 123.79 L 459.11 123.79 L 463.67 123.79 L 468.22 123.79 L 472.78 123.79 L 477.33 123.79 L 481.89 123.79 L 486.44 123.79 L 491.00 123.79 L 495.56 123.79 L 500.11 123.79 L 504.67 123.79 L 509.22 123.79 L 513.78 123.79 L 518.33 123.79 L 522.89 123.79 L 527.44 123.79 L 532.00 123.79 L 536.56 123.79 L 541.11 123.79 L 545.67 123.79 L 550.22 123.79 L 554.78 123.79 L 559.33 123.79 L 563.89 123.79 L 568.44 123.79 L 573.00 123.79 L 577.56 123.79 L 582.11 123.79 L 586.67 123.79 L 591.22 123.79 L 595.78 123.79 L 600.33 123.79 L 604.89 123.79 L 609.44 123.79 L 614.00 123.79 L 618.56 123.79 L 623.11 123.79 L 627.67 123.79 L 632.22 123.79 L 636.78 123.79 L 641.33 123.79 L 645.89 123.79 L 650.44 123.79 L 655.00 123.79 L 659.56 123.79 L 664.11 123.79 L 668.67 123.79 L 673.22 123.79 L 677.78 123.79 L 682.33 123.79 L 686.89 123.79 L 691.44 123.79 L 696.00 123.79 L 700.56 123.79 L 705.11 123.79 L 709.67 123.79 L 714.22 115.42 L 718.78 111.64 L 723.33 107.86 L 727.89 104.08 L 732.44 100.30 L 737.00 95.98 L 741.56 95.98 L 746.11 95.98 L 750.67 95.98 L 755.22 85.72 L 759.78 85.72 L 764.33 85.72 L 768.89 85.72 L 773.44 85.72 L 778.00 85.72 L 782.56 85.72 L 787.11 85.72 L 791.67 85.72 L 796.22 85.72 L 800.78 85.72 L 805.33 85.72 L 809.89 85.72 L 814.44 85.72 L 819.00 85.72 L 823.56 85.72 L 828.11 85.72 L 832.67 85.72 L 837.22 85.72 L 841.78 85.72 L 846.33 85.72 L 850.89 85.72 L 855.44 85.72 L 860.00 85.72" fill="none" stroke="#111827" stroke-width="2"/>
    <circle cx="860.00" cy="85.72" r="3" fill="#111827"/>
    <text x="40.00" y="235.00" font-size="9" fill="#111827" text-anchor="middle" transform="rotate(-45 40.00 235.00)">09.08.2025</text><text x="122.00" y="235.00" font-size="9" fill="#111827" text-anchor="middle" transform="rotate(-45 122.00 235.00)">13.08.2025</text><text x="204.00" y="235.00" font-size="9" fill="#111827" text-anchor="middle" transform="rotate(-45 204.00 235.00)">22.08.2025</text><text x="286.00" y="235.00" font-size="9" fill="#111827" text-anchor="middle" transform="rotate(-45 286.00 235.00)">04.09.2025</text><text x="368.00" y="235.00" font-size="9" fill="#111827" text-anchor="middle" transform="rotate(-45 368.00 235.00)">21.09.2025</text><text x="450.00" y="235.00" font-size="9" fill="#111827" text-anchor="middle" transform="rotate(-45 450.00 235.00)">08.10.2025</text><text x="532.00" y="235.00" font-size="9" fill="#111827" text-anchor="middle" transform="rotate(-45 532.00 235.00)">26.10.2025</text><text x="614.00" y="235.00" font-size="9" fill="#111827" text-anchor="middle" transform="rotate(-45 614.00 235.00)">13.11.2025</text><text x="696.00" y="235.00" font-size="9" fill="#111827" text-anchor="middle" transform="rotate(-45 696.00 235.00)">01.12.2025</text><text x="778.00" y="235.00" font-size="9" fill="#111827" text-anchor="middle" transform="rotate(-45 778.00 235.00)">12.12.2025</text><text x="860.00" y="235.00" font-size="9" fill="#111827" text-anchor="middle" transform="rotate(-45 860.00 235.00)">30.12.2025</text>
  </g>
</svg>