<svg xmlns="http://www.w3.org/2000/svg" width="900" height="290" style="font-family: -apple-system, BlinkMacSystemFont, 'Segoe UI', Helvetica, Arial, sans-serif;">
  <rect width="100%" height="100%" fill="#0d1117"/>
  <g>
    <line x1="40" y1="220.00" x2="860" y2="220.00" stroke="#30363d"/><text x="32" y="224.00" font-size="10" fill="#c9d1d9" text-anchor="end">0</text><line x1="40" y1="175.00" x2="860" y2="175.00" stroke="#30363d"/><text x="32" y="179.00" font-size="10" fill="#c9d1d9" text-anchor="end">500</text><line x1="40" y1="130.00" x2="860" y2="130.00" stroke="#30363d"/><text x="32" y="134.00" font-size="10" fill="#c9d1d9" text-anchor="end">1k</text><line x1="40" y1="85.00" x2="860" y2="85.00" stroke="#30363d"/><text x="32" y="89.00" font-size="10" fill="#c9d1d9" text-anchor="end">1.5k</text><line x1="40" y1="40.00" x2="860" y2="40.00" stroke="#30363d"/><text x="32" y="44.00" font-size="10" fill="#c9d1d9" text-anchor="end">2k</text>
    <line x1="40.00" y1="40" x2="40.00" y2="220" stroke="#30363d" opacity="0.5"/><line x1="122.00" y1="40" x2="122.00" y2="220" stroke="#30363d" opacity="0.5"/><line x1="204.00" y1="40" x2="204.00" y2="220" stroke="#30363d" opacity="0.5"/><line x1="286.00" y1="40" x2="286.00" y2="220" stroke="#30363d" opacity="0.5"/><line x1="368.00" y1="40" x2="368.00" y2="220" stroke="#30363d" opacity="0.5"/><line x1="450.00" y1="40" x2="450.00" y2="220" stroke="#30363d" opacity="0.5"/><line x1="532.00" y1="40" x2="532.00" y2="220" stroke="#30363d" opacity="0.5"/><line x1="614.00" y1="40" x2="614.00" y2="220" stroke="#30363d" opacity="0.5"/><line x1="696.00" y1="40" x2="696.00" y2="220" stroke="#30363d" opacity="0.5"/><line x1="778.00" y1="40" x2="778.00" y2="220" stroke="#30363d" opacity="0.5"/><line x1="860.00" y1="40" x2="860.00" y2="220" stroke="#30363d" opacity="0.5"/>
    <line x1="40" y1="220" x2="860" y2="220" stroke="#30363d"/>
    <line x1="40" y1="40"   x2="40"   y2="220" stroke="#30363d"/>
    <path d="M 40.00 219.82 L 50.25 211.81 L 60.50 211.81 L 70.75 211.81 L 81.00 171.85 L 91.25 171.58 L 101.50 164.38 L 111.75 118.93 L 122.00 119.11 L 132.25 111.10 L 142.50 110.56 L 152.75 110.56 L 163.00 110.56 L 173.25 95.35 L 183.50 95.35 L 193.75 95.35 L 204.00 94.63 L 214.25 94.54 L 224.50 94.45 L 234.75 94.09 L 245.00 94.09 L 255.25 94.09 L 265.50 94.09 L 275.75 94.09 L 286.00 94.09 L 296.25 94.09 L 306.50 94.09 L 316.75 94.09 L 327.00 91.84 L 337.25 83.65 L 347.50 83.65 L 357.75 83.47 L 368.00 83.65 L 378.25 91.03 L 388.50 91.03 L 398.75 91.03 L 409.00 91.03 L 419.25 91.03 L 429.50 91.03 L 439.75 91.03 L 450.00 91.03 L 460.25 91.03 L 470.50 91.03 L 480.75 91.03 L 491.00 90.94 L 501.25 91.03 L 511.50 90.94 L 521.75 90.94 L 532.00 90.94 L 542.25 90.94 L 552.50 90.94 L 562.75 90.94 L 573.00 90.94 L 583.25 90.94 L 593.50 90.94 L 603.75 90.94 L 614.00 90.94 L 624.25 90.94 L 634.50 90.94 L 644.75 90.94 L 655.00 90.94 L 665.25 90.94 L 675.50 90.94 L 685.75 90.94 L 696.00 90.94 L 706.25 90.94 L 716.50 90.94 L 726.75 90.94 L 737.00 90.94 L 747.25 90.94 L 757.50 90.94 L 767.75 123.79 L 778.00 123.79 L 788.25 123.79 L 798.50 123.79 L 808.75 123.79 L 819.00 123.79 L 829.25 123.79 L 839.50 123.79 L 849.75 123.79 L 860.00 123.79" fill="none" stroke="#3fb950" stroke-width="2"/>
    <circle cx="860.00" cy="123.79" r="3" fill="#3fb950"/>
    <text x="40.00" y="235.00" font-size="9" fill="#c9d1d9" text-anchor="middle" transform="rotate(-45 40.00 235.00)">09.08.2025</text><text x="122.00" y="235.00" font-size="9" fill="#c9d1d9" text-anchor="middle" transform="rotate(-45 122.00 235.00)">12.08.2025</text><text x="204.00" y="235.00" font-size="9" fill="#c9d1d9" text-anchor="middle" transform="rotate(-45 204.00 235.00)">13.08.2025</text><text x="286.00" y="235.00" font-size="9" fill="#c9d1d9" text-anchor="middle" transform="rotate(-45 286.00 235.00)">18.08.2025</text><text x="368.00" y="235.00" font-size="9" fill="#c9d1d9" text-anchor="middle" transform="rotate(-45 368.00 235.00)">21.08.2025</text><text x="450.00" y="235.00" font-size="9" fill="#c9d1d9" text-anchor="middle" transform="rotate(-45 450.00 235.00)">26.08.2025</text><text x="532.00" y="235.00" font-size="9" fill="#c9d1d9" text-anchor="middle" transform="rotate(-45 532.00 235.00)">29.08.2025</text><text x="614.00" y="235.00" font-size="9" fill="#c9d1d9" text-anchor="middle" transform="rotate(-45 614.00 235.00)">06.09.2025</text><text x="696.00" y="235.00" font-size="9" fill="#c9d1d9" text-anchor="middle" transform="rotate(-45 696.00 235.00)">14.09.2025</text><text x="778.00" y="235.00" font-size="9" fill="#c9d1d9" text-anchor="middle" transform="rotate(-45 778.00 235.00)">21.09.2025</text><text x="860.00" y="235.00" font-size="9" fill="#c9d1d9" text-anchor="middle" transform="rotate(-45 860.00 235.00)">28.09.2025</text>
  </g>
</svg>