<svg xmlns="http://www.w3.org/2000/svg" width="900" height="290" style="font-family: -apple-system, BlinkMacSystemFont, 'Segoe UI', Helvetica, Arial, sans-serif;">
  <rect width="100%" height="100%" fill="#0d1117"/>
  <g>
    <line x1="40" y1="220.00" x2="860" y2="220.00" stroke="#30363d"/><text x="32" y="224.00" font-size="10" fill="#c9d1d9" text-anchor="end">0</text><line x1="40" y1="175.00" x2="860" y2="175.00" stroke="#30363d"/><text x="32" y="179.00" font-size="10" fill="#c9d1d9" text-anchor="end">500</text><line x1="40" y1="130.00" x2="860" y2="130.00" stroke="#30363d"/><text x="32" y="134.00" font-size="10" fill="#c9d1d9" text-anchor="end">1k</text><line x1="40" y1="85.00" x2="860" y2="85.00" stroke="#30363d"/><text x="32" y="89.00" font-size="10" fill="#c9d1d9" text-anchor="end">1.5k</text><line x1="40" y1="40.00" x2="860" y2="40.00" stroke="#30363d"/><text x="32" y="44.00" font-size="10" fill="#c9d1d9" text-anchor="end">2k</text>
    <line x1="40.00" y1="40" x2="40.00" y2="220" stroke="#30363d" opacity="0.5"/><line x1="122.75" y1="40" x2="122.75" y2="220" stroke="#30363d" opacity="0.5"/><line x1="205.50" y1="40" x2="205.50" y2="220" stroke="#30363d" opacity="0.5"/><line x1="288.26" y1="40" x2="288.26" y2="220" stroke="#30363d" opacity="0.5"/><line x1="371.01" y1="40" x2="371.01" y2="220" stroke="#30363d" opacity="0.5"/><line x1="453.76" y1="40" x2="453.76" y2="220" stroke="#30363d" opacity="0.5"/><line x1="536.51" y1="40" x2="536.51" y2="220" stroke="#30363d" opacity="0.5"/><line x1="619.27" y1="40" x2="619.27" y2="220" stroke="#30363d" opacity="0.5"/><line x1="702.02" y1="40" x2="702.02" y2="220" stroke="#30363d" opacity="0.5"/><line x1="784.77" y1="40" x2="784.77" y2="220" stroke="#30363d" opacity="0.5"/>
    <line x1="40" y1="220" x2="860" y2="220" stroke="#30363d"/>
    <line x1="40" y1="40"   x2="40"   y2="220" stroke="#30363d"/>
    <path d="M 40.00 219.82 L 47.52 211.81 L 55.05 211.81 L 62.57 211.81 L 70.09 171.85 L 77.61 171.58 L 85.14 164.38 L 92.66 118.93 L 100.18 119.11 L 107.71 111.10 L 115.23 110.56 L 122.75 110.56 L 130.28 110.56 L 137.80 95.35 L 145.32 95.35 L 152.84 95.35 L 160.37 94.63 L 167.89 94.54 L 175.41 94.45 L 182.94 94.09 L 190.46 94.09 L 197.98 94.09 L 205.50 94.09 L 213.03 94.09 L 220.55 94.09 L 228.07 94.09 L 235.60 94.09 L 243.12 94.09 L 250.64 91.84 L 258.17 83.65 L 265.69 83.65 L 273.21 83.47 L 280.73 83.65 L 288.26 91.03 L 295.78 91.03 L 303.30 91.03 L 310.83 91.03 L 318.35 91.03 L 325.87 91.03 L 333.39 91.03 L 340.92 91.03 L 348.44 91.03 L 355.96 91.03 L 363.49 91.03 L 371.01 90.94 L 378.53 91.03 L 386.06 90.94 L 393.58 90.94 L 401.10 90.94 L 408.62 90.94 L 416.15 90.94 L 423.67 90.94 L 431.19 90.94 L 438.72 90.94 L 446.24 90.94 L 453.76 90.94 L 461.28 90.94 L 468.81 90.94 L 476.33 90.94 L 483.85 90.94 L 491.38 90.94 L 498.90 90.94 L 506.42 90.94 L 513.94 90.94 L 521.47 90.94 L 528.99 90.94 L 536.51 90.94 L 544.04 90.94 L 551.56 90.94 L 559.08 90.94 L 566.61 90.94 L 574.13 123.79 L 581.65 123.79 L 589.17 123.79 L 596.70 123.79 L 604.22 123.79 L 611.74 123.79 L 619.27 123.79 L 626.79 123.79 L 634.31 123.79 L 641.83 123.79 L 649.36 123.79 L 656.88 123.79 L 664.40 123.79 L 671.93 123.79 L 679.45 123.79 L 686.97 123.79 L 694.50 123.79 L 702.02 123.79 L 709.54 123.79 L 717.06 123.79 L 724.59 123.79 L 732.11 123.79 L 739.63 123.79 L 747.16 123.79 L 754.68 123.79 L 762.20 123.79 L 769.72 123.79 L 777.25 123.79 L 784.77 123.79 L 792.29 123.79 L 799.82 123.79 L 807.34 123.79 L 814.86 123.79 L 822.39 123.79 L 829.91 123.79 L 837.43 123.79 L 844.95 123.79 L 852.48 123.79 L 860.00 123.79" fill="none" stroke="#3fb950" stroke-width="2"/>
    <circle cx="860.00" cy="123.79" r="3" fill="#3fb950"/>
    <text x="40.00" y="235.00" font-size="9" fill="#c9d1d9" text-anchor="middle" transform="rotate(-45 40.00 235.00)">09.08.2025</text><text x="122.75" y="235.00" font-size="9" fill="#c9d1d9" text-anchor="middle" transform="rotate(-45 122.75 235.00)">13.08.2025</text><text x="205.50" y="235.00" font-size="9" fill="#c9d1d9" text-anchor="middle" transform="rotate(-45 205.50 235.00)">16.08.2025</text><text x="288.26" y="235.00" font-size="9" fill="#c9d1d9" text-anchor="middle" transform="rotate(-45 288.26 235.00)">21.08.2025</text><text x="371.01" y="235.00" font-size="9" fill="#c9d1d9" text-anchor="middle" transform="rotate(-45 371.01 235.00)">28.08.2025</text><text x="453.76" y="235.00" font-size="9" fill="#c9d1d9" text-anchor="middle" transform="rotate(-45 453.76 235.00)">05.09.2025</text><text x="536.51" y="235.00" font-size="9" fill="#c9d1d9" text-anchor="middle" transform="rotate(-45 536.51 235.00)">16.09.2025</text><text x="619.27" y="235.00" font-size="9" fill="#c9d1d9" text-anchor="middle" transform="rotate(-45 619.27 235.00)">25.09.2025</text><text x="702.02" y="235.00" font-size="9" fill="#c9d1d9" text-anchor="middle" transform="rotate(-45 702.02 235.00)">06.10.2025</text><text x="784.77" y="235.00" font-size="9" fill="#c9d1d9" text-anchor="middle" transform="rotate(-45 784.77 235.00)">17.10.2025</text>
  </g>
</svg>