<svg xmlns="http://www.w3.org/2000/svg" width="900" height="290" style="font-family: -apple-system, BlinkMacSystemFont, 'Segoe UI', Helvetica, Arial, sans-serif;">
  <rect width="100%" height="100%" fill="#0d1117"/>
  <g>
    <line x1="40" y1="220.00" x2="860" y2="220.00" stroke="#30363d"/><text x="32" y="224.00" font-size="10" fill="#c9d1d9" text-anchor="end">0</text><line x1="40" y1="175.00" x2="860" y2="175.00" stroke="#30363d"/><text x="32" y="179.00" font-size="10" fill="#c9d1d9" text-anchor="end">500</text><line x1="40" y1="130.00" x2="860" y2="130.00" stroke="#30363d"/><text x="32" y="134.00" font-size="10" fill="#c9d1d9" text-anchor="end">1k</text><line x1="40" y1="85.00" x2="860" y2="85.00" stroke="#30363d"/><text x="32" y="89.00" font-size="10" fill="#c9d1d9" text-anchor="end">1.5k</text><line x1="40" y1="40.00" x2="860" y2="40.00" stroke="#30363d"/><text x="32" y="44.00" font-size="10" fill="#c9d1d9" text-anchor="end">2k</text>
    <line x1="40.00" y1="40" x2="40.00" y2="220" stroke="#30363d" opacity="0.5"/><line x1="119.82" y1="40" x2="119.82" y2="220" stroke="#30363d" opacity="0.5"/><line x1="199.65" y1="40" x2="199.65" y2="220" stroke="#30363d" opacity="0.5"/><line x1="279.47" y1="40" x2="279.47" y2="220" stroke="#30363d" opacity="0.5"/><line x1="359.29" y1="40" x2="359.29" y2="220" stroke="#30363d" opacity="0.5"/><line x1="439.12" y1="40" x2="439.12" y2="220" stroke="#30363d" opacity="0.5"/><line x1="518.94" y1="40" x2="518.94" y2="220" stroke="#30363d" opacity="0.5"/><line x1="598.76" y1="40" x2="598.76" y2="220" stroke="#30363d" opacity="0.5"/><line x1="678.58" y1="40" x2="678.58" y2="220" stroke="#30363d" opacity="0.5"/><line x1="758.41" y1="40" x2="758.41" y2="220" stroke="#30363d" opacity="0.5"/><line x1="838.23" y1="40" x2="838.23" y2="220" stroke="#30363d" opacity="0.5"/>
    <line x1="40" y1="220" x2="860" y2="220" stroke="#30363d"/>
    <line x1="40" y1="40"   x2="40"   y2="220" stroke="#30363d"/>
    <path d="M 40.00 219.82 L 47.26 211.81 L 54.51 211.81 L 61.77 211.81 L 69.03 171.85 L 76.28 171.58 L 83.54 164.38 L 90.80 118.93 L 98.05 119.11 L 105.31 111.10 L 112.57 110.56 L 119.82 110.56 L 127.08 110.56 L 134.34 95.35 L 141.59 95.35 L 148.85 95.35 L 156.11 94.63 L 163.36 94.54 L 170.62 94.45 L 177.88 94.09 L 185.13 94.09 L 192.39 94.09 L 199.65 94.09 L 206.90 94.09 L 214.16 94.09 L 221.42 94.09 L 228.67 94.09 L 235.93 94.09 L 243.19 91.84 L 250.44 83.65 L 257.70 83.65 L 264.96 83.47 L 272.21 83.65 L 279.47 91.03 L 286.73 91.03 L 293.98 91.03 L 301.24 91.03 L 308.50 91.03 L 315.75 91.03 L 323.01 91.03 L 330.27 91.03 L 337.52 91.03 L 344.78 91.03 L 352.04 91.03 L 359.29 90.94 L 366.55 91.03 L 373.81 90.94 L 381.06 90.94 L 388.32 90.94 L 395.58 90.94 L 402.83 90.94 L 410.09 90.94 L 417.35 90.94 L 424.60 90.94 L 431.86 90.94 L 439.12 90.94 L 446.37 90.94 L 453.63 90.94 L 460.88 90.94 L 468.14 90.94 L 475.40 90.94 L 482.65 90.94 L 489.91 90.94 L 497.17 90.94 L 504.42 90.94 L 511.68 90.94 L 518.94 90.94 L 526.19 90.94 L 533.45 90.94 L 540.71 90.94 L 547.96 90.94 L 555.22 123.79 L 562.48 123.79 L 569.73 123.79 L 576.99 123.79 L 584.25 123.79 L 591.50 123.79 L 598.76 123.79 L 606.02 123.79 L 613.27 123.79 L 620.53 123.79 L 627.79 123.79 L 635.04 123.79 L 642.30 123.79 L 649.56 123.79 L 656.81 123.79 L 664.07 123.79 L 671.33 123.79 L 678.58 123.79 L 685.84 123.79 L 693.10 123.79 L 700.35 123.79 L 707.61 123.79 L 714.87 123.79 L 722.12 123.79 L 729.38 123.79 L 736.64 123.79 L 743.89 123.79 L 751.15 123.79 L 758.41 123.79 L 765.66 123.79 L 772.92 123.79 L 780.18 123.79 L 787.43 123.79 L 794.69 123.79 L 801.95 123.79 L 809.20 123.79 L 816.46 123.79 L 823.72 123.79 L 830.97 123.79 L 838.23 123.79 L 845.49 123.79 L 852.74 123.79 L 860.00 123.79" fill="none" stroke="#3fb950" stroke-width="2"/>
    <circle cx="860.00" cy="123.79" r="3" fill="#3fb950"/>
    <text x="40.00" y="235.00" font-size="9" fill="#c9d1d9" text-anchor="middle" transform="rotate(-45 40.00 235.00)">09.08.2025</text><text x="119.82" y="235.00" font-size="9" fill="#c9d1d9" text-anchor="middle" transform="rotate(-45 119.82 235.00)">13.08.2025</text><text x="199.65" y="235.00" font-size="9" fill="#c9d1d9" text-anchor="middle" transform="rotate(-45 199.65 235.00)">16.08.2025</text><text x="279.47" y="235.00" font-size="9" fill="#c9d1d9" text-anchor="middle" transform="rotate(-45 279.47 235.00)">21.08.2025</text><text x="359.29" y="235.00" font-size="9" fill="#c9d1d9" text-anchor="middle" transform="rotate(-45 359.29 235.00)">28.08.2025</text><text x="439.12" y="235.00" font-size="9" fill="#c9d1d9" text-anchor="middle" transform="rotate(-45 439.12 235.00)">05.09.2025</text><text x="518.94" y="235.00" font-size="9" fill="#c9d1d9" text-anchor="middle" transform="rotate(-45 518.94 235.00)">16.09.2025</text><text x="598.76" y="235.00" font-size="9" fill="#c9d1d9" text-anchor="middle" transform="rotate(-45 598.76 235.00)">25.09.2025</text><text x="678.58" y="235.00" font-size="9" fill="#c9d1d9" text-anchor="middle" transform="rotate(-45 678.58 235.00)">06.10.2025</text><text x="758.41" y="235.00" font-size="9" fill="#c9d1d9" text-anchor="middle" transform="rotate(-45 758.41 235.00)">17.10.2025</text><text x="838.23" y="235.00" font-size="9" fill="#c9d1d9" text-anchor="middle" transform="rotate(-45 838.23 235.00)">28.10.2025</text>
  </g>
</svg>