<svg xmlns="http://www.w3.org/2000/svg" width="900" height="290" style="font-family: -apple-system, BlinkMacSystemFont, 'Segoe UI', Helvetica, Arial, sans-serif;">
  <rect width="100%" height="100%" fill="#0d1117"/>
  <g>
    <line x1="40" y1="220.00" x2="860" y2="220.00" stroke="#30363d"/><text x="32" y="224.00" font-size="10" fill="#c9d1d9" text-anchor="end">0</text><line x1="40" y1="175.00" x2="860" y2="175.00" stroke="#30363d"/><text x="32" y="179.00" font-size="10" fill="#c9d1d9" text-anchor="end">500</text><line x1="40" y1="130.00" x2="860" y2="130.00" stroke="#30363d"/><text x="32" y="134.00" font-size="10" fill="#c9d1d9" text-anchor="end">1k</text><line x1="40" y1="85.00" x2="860" y2="85.00" stroke="#30363d"/><text x="32" y="89.00" font-size="10" fill="#c9d1d9" text-anchor="end">1.5k</text><line x1="40" y1="40.00" x2="860" y2="40.00" stroke="#30363d"/><text x="32" y="44.00" font-size="10" fill="#c9d1d9" text-anchor="end">2k</text>
    <line x1="40.00" y1="40" x2="40.00" y2="220" stroke="#30363d" opacity="0.5"/><line x1="117.25" y1="40" x2="117.25" y2="220" stroke="#30363d" opacity="0.5"/><line x1="194.49" y1="40" x2="194.49" y2="220" stroke="#30363d" opacity="0.5"/><line x1="271.74" y1="40" x2="271.74" y2="220" stroke="#30363d" opacity="0.5"/><line x1="348.99" y1="40" x2="348.99" y2="220" stroke="#30363d" opacity="0.5"/><line x1="426.23" y1="40" x2="426.23" y2="220" stroke="#30363d" opacity="0.5"/><line x1="503.48" y1="40" x2="503.48" y2="220" stroke="#30363d" opacity="0.5"/><line x1="580.72" y1="40" x2="580.72" y2="220" stroke="#30363d" opacity="0.5"/><line x1="657.97" y1="40" x2="657.97" y2="220" stroke="#30363d" opacity="0.5"/><line x1="735.22" y1="40" x2="735.22" y2="220" stroke="#30363d" opacity="0.5"/><line x1="812.46" y1="40" x2="812.46" y2="220" stroke="#30363d" opacity="0.5"/>
    <line x1="40" y1="220" x2="860" y2="220" stroke="#30363d"/>
    <line x1="40" y1="40"   x2="40"   y2="220" stroke="#30363d"/>
    <path d="M 40.00 219.82 L 45.94 211.81 L 51.88 211.81 L 57.83 211.81 L 63.77 171.85 L 69.71 171.58 L 75.65 164.38 L 81.59 118.93 L 87.54 119.11 L 93.48 111.10 L 99.42 110.56 L 105.36 110.56 L 111.30 110.56 L 117.25 95.35 L 123.19 95.35 L 129.13 95.35 L 135.07 94.63 L 141.01 94.54 L 146.96 94.45 L 152.90 94.09 L 158.84 94.09 L 164.78 94.09 L 170.72 94.09 L 176.67 94.09 L 182.61 94.09 L 188.55 94.09 L 194.49 94.09 L 200.43 94.09 L 206.38 91.84 L 212.32 83.65 L 218.26 83.65 L 224.20 83.47 L 230.14 83.65 L 236.09 91.03 L 242.03 91.03 L 247.97 91.03 L 253.91 91.03 L 259.86 91.03 L 265.80 91.03 L 271.74 91.03 L 277.68 91.03 L 283.62 91.03 L 289.57 91.03 L 295.51 91.03 L 301.45 90.94 L 307.39 91.03 L 313.33 90.94 L 319.28 90.94 L 325.22 90.94 L 331.16 90.94 L 337.10 90.94 L 343.04 90.94 L 348.99 90.94 L 354.93 90.94 L 360.87 90.94 L 366.81 90.94 L 372.75 90.94 L 378.70 90.94 L 384.64 90.94 L 390.58 90.94 L 396.52 90.94 L 402.46 90.94 L 408.41 90.94 L 414.35 90.94 L 420.29 90.94 L 426.23 90.94 L 432.17 90.94 L 438.12 90.94 L 444.06 90.94 L 450.00 90.94 L 455.94 90.94 L 461.88 123.79 L 467.83 123.79 L 473.77 123.79 L 479.71 123.79 L 485.65 123.79 L 491.59 123.79 L 497.54 123.79 L 503.48 123.79 L 509.42 123.79 L 515.36 123.79 L 521.30 123.79 L 527.25 123.79 L 533.19 123.79 L 539.13 123.79 L 545.07 123.79 L 551.01 123.79 L 556.96 123.79 L 562.90 123.79 L 568.84 123.79 L 574.78 123.79 L 580.72 123.79 L 586.67 123.79 L 592.61 123.79 L 598.55 123.79 L 604.49 123.79 L 610.43 123.79 L 616.38 123.79 L 622.32 123.79 L 628.26 123.79 L 634.20 123.79 L 640.14 123.79 L 646.09 123.79 L 652.03 123.79 L 657.97 123.79 L 663.91 123.79 L 669.86 123.79 L 675.80 123.79 L 681.74 123.79 L 687.68 123.79 L 693.62 123.79 L 699.57 123.79 L 705.51 123.79 L 711.45 123.79 L 717.39 123.79 L 723.33 123.79 L 729.28 123.79 L 735.22 123.79 L 741.16 123.79 L 747.10 123.79 L 753.04 123.79 L 758.99 123.79 L 764.93 123.79 L 770.87 123.79 L 776.81 123.79 L 782.75 123.79 L 788.70 123.79 L 794.64 123.79 L 800.58 123.79 L 806.52 123.79 L 812.46 123.79 L 818.41 123.79 L 824.35 123.79 L 830.29 123.79 L 836.23 123.79 L 842.17 123.79 L 848.12 123.79 L 854.06 123.79 L 860.00 123.79" fill="none" stroke="#3fb950" stroke-width="2"/>
    <circle cx="860.00" cy="123.79" r="3" fill="#3fb950"/>
    <text x="40.00" y="235.00" font-size="9" fill="#c9d1d9" text-anchor="middle" transform="rotate(-45 40.00 235.00)">09.08.2025</text><text x="117.25" y="235.00" font-size="9" fill="#c9d1d9" text-anchor="middle" transform="rotate(-45 117.25 235.00)">13.08.2025</text><text x="194.49" y="235.00" font-size="9" fill="#c9d1d9" text-anchor="middle" transform="rotate(-45 194.49 235.00)">20.08.2025</text><text x="271.74" y="235.00" font-size="9" fill="#c9d1d9" text-anchor="middle" transform="rotate(-45 271.74 235.00)">25.08.2025</text><text x="348.99" y="235.00" font-size="9" fill="#c9d1d9" text-anchor="middle" transform="rotate(-45 348.99 235.00)">02.09.2025</text><text x="426.23" y="235.00" font-size="9" fill="#c9d1d9" text-anchor="middle" transform="rotate(-45 426.23 235.00)">15.09.2025</text><text x="503.48" y="235.00" font-size="9" fill="#c9d1d9" text-anchor="middle" transform="rotate(-45 503.48 235.00)">26.09.2025</text><text x="580.72" y="235.00" font-size="9" fill="#c9d1d9" text-anchor="middle" transform="rotate(-45 580.72 235.00)">09.10.2025</text><text x="657.97" y="235.00" font-size="9" fill="#c9d1d9" text-anchor="middle" transform="rotate(-45 657.97 235.00)">22.10.2025</text><text x="735.22" y="235.00" font-size="9" fill="#c9d1d9" text-anchor="middle" transform="rotate(-45 735.22 235.00)">04.11.2025</text><text x="812.46" y="235.00" font-size="9" fill="#c9d1d9" text-anchor="middle" transform="rotate(-45 812.46 235.00)">17.11.2025</text>
  </g>
</svg>