<svg xmlns="http://www.w3.org/2000/svg" width="900" height="290" style="font-family: -apple-system, BlinkMacSystemFont, 'Segoe UI', Helvetica, Arial, sans-serif;">
  <rect width="100%" height="100%" fill="white"/>
  <g>
    <line x1="40" y1="220.00" x2="860" y2="220.00" stroke="#e5e7eb"/><text x="32" y="224.00" font-size="10" fill="#111827" text-anchor="end">0</text><line x1="40" y1="175.00" x2="860" y2="175.00" stroke="#e5e7eb"/><text x="32" y="179.00" font-size="10" fill="#111827" text-anchor="end">500</text><line x1="40" y1="130.00" x2="860" y2="130.00" stroke="#e5e7eb"/><text x="32" y="134.00" font-size="10" fill="#111827" text-anchor="end">1k</text><line x1="40" y1="85.00" x2="860" y2="85.00" stroke="#e5e7eb"/><text x="32" y="89.00" font-size="10" fill="#111827" text-anchor="end">1.5k</text><line x1="40" y1="40.00" x2="860" y2="40.00" stroke="#e5e7eb"/><text x="32" y="44.00" font-size="10" fill="#111827" text-anchor="end">2k</text>
    <line x1="40.00" y1="40" x2="40.00" y2="220" stroke="#e5e7eb" opacity="0.5"/><line x1="121.26" y1="40" x2="121.26" y2="220" stroke="#e5e7eb" opacity="0.5"/><line x1="202.52" y1="40" x2="202.52" y2="220" stroke="#e5e7eb" opacity="0.5"/><line x1="283.78" y1="40" x2="283.78" y2="220" stroke="#e5e7eb" opacity="0.5"/><line x1="365.05" y1="40" x2="365.05" y2="220" stroke="#e5e7eb" opacity="0.5"/><line x1="446.31" y1="40" x2="446.31" y2="220" stroke="#e5e7eb" opacity="0.5"/><line x1="527.57" y1="40" x2="527.57" y2="220" stroke="#e5e7eb" opacity="0.5"/><line x1="608.83" y1="40" x2="608.83" y2="220" stroke="#e5e7eb" opacity="0.5"/><line x1="690.09" y1="40" x2="690.09" y2="220" stroke="#e5e7eb" opacity="0.5"/><line x1="771.35" y1="40" x2="771.35" y2="220" stroke="#e5e7eb" opacity="0.5"/><line x1="852.61" y1="40" x2="852.61" y2="220" stroke="#e5e7eb" opacity="0.5"/>
    <line x1="40" y1="220" x2="860" y2="220" stroke="#9ca3af"/>
    <line x1="40" y1="40"   x2="40"   y2="220" stroke="#9ca3af"/>
    <path d="M 40.00 219.82 L 43.69 211.81 L 47.39 211.81 L 51.08 211.81 L 54.77 171.85 L 58.47 171.58 L 62.16 164.38 L 65.86 118.93 L 69.55 119.11 L 73.24 111.10 L 76.94 110.56 L 80.63 110.56 L 84.32 110.56 L 88.02 95.35 L 91.71 95.35 L 95.41 95.35 L 99.10 94.63 L 102.79 94.54 L 106.49 94.45 L 110.18 94.09 L 113.87 94.09 L 117.57 94.09 L 121.26 94.09 L 124.95 94.09 L 128.65 94.09 L 132.34 94.09 L 136.04 94.09 L 139.73 94.09 L 143.42 91.84 L 147.12 83.65 L 150.81 83.65 L 154.50 83.47 L 158.20 83.65 L 161.89 91.03 L 165.59 91.03 L 169.28 91.03 L 172.97 91.03 L 176.67 91.03 L 180.36 91.03 L 184.05 91.03 L 187.75 91.03 L 191.44 91.03 L 195.14 91.03 L 198.83 91.03 L 202.52 90.94 L 206.22 91.03 L 209.91 90.94 L 213.60 90.94 L 217.30 90.94 L 220.99 90.94 L 224.68 90.94 L 228.38 90.94 L 232.07 90.94 L 235.77 90.94 L 239.46 90.94 L 243.15 90.94 L 246.85 90.94 L 250.54 90.94 L 254.23 90.94 L 257.93 90.94 L 261.62 90.94 L 265.32 90.94 L 269.01 90.94 L 272.70 90.94 L 276.40 90.94 L 280.09 90.94 L 283.78 90.94 L 287.48 90.94 L 291.17 90.94 L 294.86 90.94 L 298.56 90.94 L 302.25 123.79 L 305.95 123.79 L 309.64 123.79 L 313.33 123.79 L 317.03 123.79 L 320.72 123.79 L 324.41 123.79 L 328.11 123.79 L 331.80 123.79 L 335.50 123.79 L 339.19 123.79 L 342.88 123.79 L 346.58 123.79 L 350.27 123.79 L 353.96 123.79 L 357.66 123.79 L 361.35 123.79 L 365.05 123.79 L 368.74 123.79 L 372.43 123.79 L 376.13 123.79 L 379.82 123.79 L 383.51 123.79 L 387.21 123.79 L 390.90 123.79 L 394.59 123.79 L 398.29 123.79 L 401.98 123.79 L 405.68 123.79 L 409.37 123.79 L 413.06 123.79 L 416.76 123.79 L 420.45 123.79 L 424.14 123.79 L 427.84 123.79 L 431.53 123.79 L 435.23 123.79 L 438.92 123.79 L 442.61 123.79 L 446.31 123.79 L 450.00 123.79 L 453.69 123.79 L 457.39 123.79 L 461.08 123.79 L 464.77 123.79 L 468.47 123.79 L 472.16 123.79 L 475.86 123.79 L 479.55 123.79 L 483.24 123.79 L 486.94 123.79 L 490.63 123.79 L 494.32 123.79 L 498.02 123.79 L 501.71 123.79 L 505.41 123.79 L 509.10 123.79 L 512.79 123.79 L 516.49 123.79 L 520.18 123.79 L 523.87 123.79 L 527.57 123.79 L 531.26 123.79 L 534.95 123.79 L 538.65 123.79 L 542.34 123.79 L 546.04 123.79 L 549.73 123.79 L 553.42 123.79 L 557.12 123.79 L 560.81 123.79 L 564.50 123.79 L 568.20 123.79 L 571.89 123.79 L 575.59 123.79 L 579.28 123.79 L 582.97 123.79 L 586.67 115.42 L 590.36 111.64 L 594.05 107.86 L 597.75 104.08 L 601.44 100.30 L 605.14 95.98 L 608.83 95.98 L 612.52 95.98 L 616.22 95.98 L 619.91 85.72 L 623.60 85.72 L 627.30 85.72 L 630.99 85.72 L 634.68 85.72 L 638.38 85.72 L 642.07 85.72 L 645.77 85.72 L 649.46 85.72 L 653.15 85.72 L 656.85 85.72 L 660.54 85.72 L 664.23 85.72 L 667.93 85.72 L 671.62 85.72 L 675.32 85.72 L 679.01 85.72 L 682.70 85.72 L 686.40 85.72 L 690.09 85.72 L 693.78 85.72 L 697.48 85.72 L 701.17 85.72 L 704.86 85.72 L 708.56 85.72 L 712.25 85.72 L 715.95 85.72 L 719.64 85.72 L 723.33 85.72 L 727.03 85.72 L 730.72 85.72 L 734.41 85.72 L 738.11 85.72 L 741.80 85.72 L 745.50 85.72 L 749.19 85.72 L 752.88 85.72 L 756.58 85.72 L 760.27 85.72 L 763.96 85.72 L 767.66 85.72 L 771.35 85.72 L 775.05 85.72 L 778.74 85.72 L 782.43 85.72 L 786.13 85.72 L 789.82 85.72 L 793.51 85.72 L 797.21 85.72 L 800.90 85.72 L 804.59 85.72 L 808.29 85.72 L 811.98 85.72 L 815.68 85.72 L 819.37 85.72 L 823.06 85.72 L 826.76 85.72 L 830.45 85.72 L 834.14 85.72 L 837.84 85.72 L 841.53 85.72 L 845.23 85.72 L 848.92 85.72 L 852.61 85.72 L 856.31 85.72 L 860.00 85.72" fill="none" stroke="#111827" stroke-width="2"/>
    <circle cx="860.00" cy="85.72" r="3" fill="#111827"/>
    <text x="40.00" y="235.00" font-size="9" fill="#111827" text-anchor="middle" transform="rotate(-45 40.00 235.00)">09.08.2025</text><text x="121.26" y="235.00" font-size="9" fill="#111827" text-anchor="middle" transform="rotate(-45 121.26 235.00)">16.08.2025</text><text x="202.52" y="235.00" font-size="9" fill="#111827" text-anchor="middle" transform="rotate(-45 202.52 235.00)">28.08.2025</text><text x="283.78" y="235.00" font-size="9" fill="#111827" text-anchor="middle" transform="rotate(-45 283.78 235.00)">16.09.2025</text><text x="365.05" y="235.00" font-size="9" fill="#111827" text-anchor="middle" transform="rotate(-45 365.05 235.00)">06.10.2025</text><text x="446.31" y="235.00" font-size="9" fill="#111827" text-anchor="middle" transform="rotate(-45 446.31 235.00)">28.10.2025</text><text x="527.57" y="235.00" font-size="9" fill="#111827" text-anchor="middle" transform="rotate(-45 527.57 235.00)">19.11.2025</text><text x="608.83" y="235.00" font-size="9" fill="#111827" text-anchor="middle" transform="rotate(-45 608.83 235.00)">05.12.2025</text><text x="690.09" y="235.00" font-size="9" fill="#111827" text-anchor="middle" transform="rotate(-45 690.09 235.00)">26.12.2025</text><text x="771.35" y="235.00" font-size="9" fill="#111827" text-anchor="middle" transform="rotate(-45 771.35 235.00)">17.01.2026</text><text x="852.61" y="235.00" font-size="9" fill="#111827" text-anchor="middle" transform="rotate(-45 852.61 235.00)">08.02.2026</text>
  </g>
</svg>