<svg xmlns="http://www.w3.org/2000/svg" width="900" height="290" style="font-family: -apple-system, BlinkMacSystemFont, 'Segoe UI', Helvetica, Arial, sans-serif;">
  <rect width="100%" height="100%" fill="#0d1117"/>
  <g>
    <line x1="40" y1="220.00" x2="860" y2="220.00" stroke="#30363d"/><text x="32" y="224.00" font-size="10" fill="#c9d1d9" text-anchor="end">0</text><line x1="40" y1="175.00" x2="860" y2="175.00" stroke="#30363d"/><text x="32" y="179.00" font-size="10" fill="#c9d1d9" text-anchor="end">500</text><line x1="40" y1="130.00" x2="860" y2="130.00" stroke="#30363d"/><text x="32" y="134.00" font-size="10" fill="#c9d1d9" text-anchor="end">1k</text><line x1="40" y1="85.00" x2="860" y2="85.00" stroke="#30363d"/><text x="32" y="89.00" font-size="10" fill="#c9d1d9" text-anchor="end">1.5k</text><line x1="40" y1="40.00" x2="860" y2="40.00" stroke="#30363d"/><text x="32" y="44.00" font-size="10" fill="#c9d1d9" text-anchor="end">2k</text>
    <line x1="40.00" y1="40" x2="40.00" y2="220" stroke="#30363d" opacity="0.5"/><line x1="111.93" y1="40" x2="111.93" y2="220" stroke="#30363d" opacity="0.5"/><line x1="183.86" y1="40" x2="183.86" y2="220" stroke="#30363d" opacity="0.5"/><line x1="255.79" y1="40" x2="255.79" y2="220" stroke="#30363d" opacity="0.5"/><line x1="327.72" y1="40" x2="327.72" y2="220" stroke="#30363d" opacity="0.5"/><line x1="399.65" y1="40" x2="399.65" y2="220" stroke="#30363d" opacity="0.5"/><line x1="471.58" y1="40" x2="471.58" y2="220" stroke="#30363d" opacity="0.5"/><line x1="543.51" y1="40" x2="543.51" y2="220" stroke="#30363d" opacity="0.5"/><line x1="615.44" y1="40" x2="615.44" y2="220" stroke="#30363d" opacity="0.5"/><line x1="687.37" y1="40" x2="687.37" y2="220" stroke="#30363d" opacity="0.5"/><line x1="759.30" y1="40" x2="759.30" y2="220" stroke="#30363d" opacity="0.5"/><line x1="831.23" y1="40" x2="831.23" y2="220" stroke="#30363d" opacity="0.5"/>
    <line x1="40" y1="220" x2="860" y2="220" stroke="#30363d"/>
    <line x1="40" y1="40"   x2="40"   y2="220" stroke="#30363d"/>
    <path d="M 40.00 219.82 L 54.39 211.81 L 68.77 211.81 L 83.16 211.81 L 97.54 171.85 L 111.93 171.58 L 126.32 164.38 L 140.70 118.93 L 155.09 119.11 L 169.47 111.10 L 183.86 110.56 L 198.25 110.56 L 212.63 110.56 L 227.02 95.35 L 241.40 95.35 L 255.79 95.35 L 270.18 94.63 L 284.56 94.54 L 298.95 94.45 L 313.33 94.09 L 327.72 94.09 L 342.11 94.09 L 356.49 94.09 L 370.88 94.09 L 385.26 94.09 L 399.65 94.09 L 414.04 94.09 L 428.42 94.09 L 442.81 91.84 L 457.19 83.65 L 471.58 83.65 L 485.96 83.47 L 500.35 83.65 L 514.74 91.03 L 529.12 91.03 L 543.51 91.03 L 557.89 91.03 L 572.28 91.03 L 586.67 91.03 L 601.05 91.03 L 615.44 91.03 L 629.82 91.03 L 644.21 91.03 L 658.60 91.03 L 672.98 90.94 L 687.37 91.03 L 701.75 90.94 L 716.14 90.94 L 730.53 90.94 L 744.91 90.94 L 759.30 90.94 L 773.68 90.94 L 788.07 90.94 L 802.46 90.94 L 816.84 90.94 L 831.23 90.94 L 845.61 90.94 L 860.00 90.94" fill="none" stroke="#3fb950" stroke-width="2"/>
    <circle cx="860.00" cy="90.94" r="3" fill="#3fb950"/>
    <text x="40.00" y="235.00" font-size="9" fill="#c9d1d9" text-anchor="middle" transform="rotate(-45 40.00 235.00)">09.08.2025</text><text x="111.93" y="235.00" font-size="9" fill="#c9d1d9" text-anchor="middle" transform="rotate(-45 111.93 235.00)">09.08.2025</text><text x="183.86" y="235.00" font-size="9" fill="#c9d1d9" text-anchor="middle" transform="rotate(-45 183.86 235.00)">13.08.2025</text><text x="255.79" y="235.00" font-size="9" fill="#c9d1d9" text-anchor="middle" transform="rotate(-45 255.79 235.00)">13.08.2025</text><text x="327.72" y="235.00" font-size="9" fill="#c9d1d9" text-anchor="middle" transform="rotate(-45 327.72 235.00)">14.08.2025</text><text x="399.65" y="235.00" font-size="9" fill="#c9d1d9" text-anchor="middle" transform="rotate(-45 399.65 235.00)">19.08.2025</text><text x="471.58" y="235.00" font-size="9" fill="#c9d1d9" text-anchor="middle" transform="rotate(-45 471.58 235.00)">21.08.2025</text><text x="543.51" y="235.00" font-size="9" fill="#c9d1d9" text-anchor="middle" transform="rotate(-45 543.51 235.00)">21.08.2025</text><text x="615.44" y="235.00" font-size="9" fill="#c9d1d9" text-anchor="middle" transform="rotate(-45 615.44 235.00)">26.08.2025</text><text x="687.37" y="235.00" font-size="9" fill="#c9d1d9" text-anchor="middle" transform="rotate(-45 687.37 235.00)">28.08.2025</text><text x="759.30" y="235.00" font-size="9" fill="#c9d1d9" text-anchor="middle" transform="rotate(-45 759.30 235.00)">31.08.2025</text><text x="831.23" y="235.00" font-size="9" fill="#c9d1d9" text-anchor="middle" transform="rotate(-45 831.23 235.00)">05.09.2025</text>
  </g>
</svg>