<svg xmlns="http://www.w3.org/2000/svg" width="900" height="290" style="font-family: -apple-system, BlinkMacSystemFont, 'Segoe UI', Helvetica, Arial, sans-serif;">
  <rect width="100%" height="100%" fill="white"/>
  <g>
    <line x1="40" y1="220.00" x2="860" y2="220.00" stroke="#e5e7eb"/><text x="32" y="224.00" font-size="10" fill="#111827" text-anchor="end">0</text><line x1="40" y1="175.00" x2="860" y2="175.00" stroke="#e5e7eb"/><text x="32" y="179.00" font-size="10" fill="#111827" text-anchor="end">500</text><line x1="40" y1="130.00" x2="860" y2="130.00" stroke="#e5e7eb"/><text x="32" y="134.00" font-size="10" fill="#111827" text-anchor="end">1k</text><line x1="40" y1="85.00" x2="860" y2="85.00" stroke="#e5e7eb"/><text x="32" y="89.00" font-size="10" fill="#111827" text-anchor="end">1.5k</text><line x1="40" y1="40.00" x2="860" y2="40.00" stroke="#e5e7eb"/><text x="32" y="44.00" font-size="10" fill="#111827" text-anchor="end">2k</text>
    <line x1="40.00" y1="40" x2="40.00" y2="220" stroke="#e5e7eb" opacity="0.5"/><line x1="120.47" y1="40" x2="120.47" y2="220" stroke="#e5e7eb" opacity="0.5"/><line x1="200.93" y1="40" x2="200.93" y2="220" stroke="#e5e7eb" opacity="0.5"/><line x1="281.40" y1="40" x2="281.40" y2="220" stroke="#e5e7eb" opacity="0.5"/><line x1="361.87" y1="40" x2="361.87" y2="220" stroke="#e5e7eb" opacity="0.5"/><line x1="442.34" y1="40" x2="442.34" y2="220" stroke="#e5e7eb" opacity="0.5"/><line x1="522.80" y1="40" x2="522.80" y2="220" stroke="#e5e7eb" opacity="0.5"/><line x1="603.27" y1="40" x2="603.27" y2="220" stroke="#e5e7eb" opacity="0.5"/><line x1="683.74" y1="40" x2="683.74" y2="220" stroke="#e5e7eb" opacity="0.5"/><line x1="764.21" y1="40" x2="764.21" y2="220" stroke="#e5e7eb" opacity="0.5"/><line x1="844.67" y1="40" x2="844.67" y2="220" stroke="#e5e7eb" opacity="0.5"/>
    <line x1="40" y1="220" x2="860" y2="220" stroke="#9ca3af"/>
    <line x1="40" y1="40"   x2="40"   y2="220" stroke="#9ca3af"/>
    <path d="M 40.00 219.82 L 43.83 211.81 L 47.66 211.81 L 51.50 211.81 L 55.33 171.85 L 59.16 171.58 L 62.99 164.38 L 66.82 118.93 L 70.65 119.11 L 74.49 111.10 L 78.32 110.56 L 82.15 110.56 L 85.98 110.56 L 89.81 95.35 L 93.64 95.35 L 97.48 95.35 L 101.31 94.63 L 105.14 94.54 L 108.97 94.45 L 112.80 94.09 L 116.64 94.09 L 120.47 94.09 L 124.30 94.09 L 128.13 94.09 L 131.96 94.09 L 135.79 94.09 L 139.63 94.09 L 143.46 94.09 L 147.29 91.84 L 151.12 83.65 L 154.95 83.65 L 158.79 83.47 L 162.62 83.65 L 166.45 91.03 L 170.28 91.03 L 174.11 91.03 L 177.94 91.03 L 181.78 91.03 L 185.61 91.03 L 189.44 91.03 L 193.27 91.03 L 197.10 91.03 L 200.93 91.03 L 204.77 91.03 L 208.60 90.94 L 212.43 91.03 L 216.26 90.94 L 220.09 90.94 L 223.93 90.94 L 227.76 90.94 L 231.59 90.94 L 235.42 90.94 L 239.25 90.94 L 243.08 90.94 L 246.92 90.94 L 250.75 90.94 L 254.58 90.94 L 258.41 90.94 L 262.24 90.94 L 266.07 90.94 L 269.91 90.94 L 273.74 90.94 L 277.57 90.94 L 281.40 90.94 L 285.23 90.94 L 289.07 90.94 L 292.90 90.94 L 296.73 90.94 L 300.56 90.94 L 304.39 90.94 L 308.22 90.94 L 312.06 123.79 L 315.89 123.79 L 319.72 123.79 L 323.55 123.79 L 327.38 123.79 L 331.21 123.79 L 335.05 123.79 L 338.88 123.79 L 342.71 123.79 L 346.54 123.79 L 350.37 123.79 L 354.21 123.79 L 358.04 123.79 L 361.87 123.79 L 365.70 123.79 L 369.53 123.79 L 373.36 123.79 L 377.20 123.79 L 381.03 123.79 L 384.86 123.79 L 388.69 123.79 L 392.52 123.79 L 396.36 123.79 L 400.19 123.79 L 404.02 123.79 L 407.85 123.79 L 411.68 123.79 L 415.51 123.79 L 419.35 123.79 L 423.18 123.79 L 427.01 123.79 L 430.84 123.79 L 434.67 123.79 L 438.50 123.79 L 442.34 123.79 L 446.17 123.79 L 450.00 123.79 L 453.83 123.79 L 457.66 123.79 L 461.50 123.79 L 465.33 123.79 L 469.16 123.79 L 472.99 123.79 L 476.82 123.79 L 480.65 123.79 L 484.49 123.79 L 488.32 123.79 L 492.15 123.79 L 495.98 123.79 L 499.81 123.79 L 503.64 123.79 L 507.48 123.79 L 511.31 123.79 L 515.14 123.79 L 518.97 123.79 L 522.80 123.79 L 526.64 123.79 L 530.47 123.79 L 534.30 123.79 L 538.13 123.79 L 541.96 123.79 L 545.79 123.79 L 549.63 123.79 L 553.46 123.79 L 557.29 123.79 L 561.12 123.79 L 564.95 123.79 L 568.79 123.79 L 572.62 123.79 L 576.45 123.79 L 580.28 123.79 L 584.11 123.79 L 587.94 123.79 L 591.78 123.79 L 595.61 123.79 L 599.44 123.79 L 603.27 123.79 L 607.10 115.42 L 610.93 111.64 L 614.77 107.86 L 618.60 104.08 L 622.43 100.30 L 626.26 95.98 L 630.09 95.98 L 633.93 95.98 L 637.76 95.98 L 641.59 85.72 L 645.42 85.72 L 649.25 85.72 L 653.08 85.72 L 656.92 85.72 L 660.75 85.72 L 664.58 85.72 L 668.41 85.72 L 672.24 85.72 L 676.07 85.72 L 679.91 85.72 L 683.74 85.72 L 687.57 85.72 L 691.40 85.72 L 695.23 85.72 L 699.07 85.72 L 702.90 85.72 L 706.73 85.72 L 710.56 85.72 L 714.39 85.72 L 718.22 85.72 L 722.06 85.72 L 725.89 85.72 L 729.72 85.72 L 733.55 85.72 L 737.38 85.72 L 741.21 85.72 L 745.05 85.72 L 748.88 85.72 L 752.71 85.72 L 756.54 85.72 L 760.37 85.72 L 764.21 85.72 L 768.04 85.72 L 771.87 85.72 L 775.70 85.72 L 779.53 85.72 L 783.36 85.72 L 787.20 85.72 L 791.03 85.72 L 794.86 85.72 L 798.69 85.72 L 802.52 85.72 L 806.36 85.72 L 810.19 85.72 L 814.02 85.72 L 817.85 85.72 L 821.68 85.72 L 825.51 85.72 L 829.35 85.72 L 833.18 85.72 L 837.01 85.72 L 840.84 85.72 L 844.67 85.72 L 848.50 85.72 L 852.34 85.72 L 856.17 85.72 L 860.00 85.72" fill="none" stroke="#111827" stroke-width="2"/>
    <circle cx="860.00" cy="85.72" r="3" fill="#111827"/>
    <text x="40.00" y="235.00" font-size="9" fill="#111827" text-anchor="middle" transform="rotate(-45 40.00 235.00)">09.08.2025</text><text x="120.47" y="235.00" font-size="9" fill="#111827" text-anchor="middle" transform="rotate(-45 120.47 235.00)">15.08.2025</text><text x="200.93" y="235.00" font-size="9" fill="#111827" text-anchor="middle" transform="rotate(-45 200.93 235.00)">28.08.2025</text><text x="281.40" y="235.00" font-size="9" fill="#111827" text-anchor="middle" transform="rotate(-45 281.40 235.00)">13.09.2025</text><text x="361.87" y="235.00" font-size="9" fill="#111827" text-anchor="middle" transform="rotate(-45 361.87 235.00)">02.10.2025</text><text x="442.34" y="235.00" font-size="9" fill="#111827" text-anchor="middle" transform="rotate(-45 442.34 235.00)">23.10.2025</text><text x="522.80" y="235.00" font-size="9" fill="#111827" text-anchor="middle" transform="rotate(-45 522.80 235.00)">13.11.2025</text><text x="603.27" y="235.00" font-size="9" fill="#111827" text-anchor="middle" transform="rotate(-45 603.27 235.00)">04.12.2025</text><text x="683.74" y="235.00" font-size="9" fill="#111827" text-anchor="middle" transform="rotate(-45 683.74 235.00)">18.12.2025</text><text x="764.21" y="235.00" font-size="9" fill="#111827" text-anchor="middle" transform="rotate(-45 764.21 235.00)">08.01.2026</text><text x="844.67" y="235.00" font-size="9" fill="#111827" text-anchor="middle" transform="rotate(-45 844.67 235.00)">29.01.2026</text>
  </g>
</svg>