<svg xmlns="http://www.w3.org/2000/svg" width="900" height="290" style="font-family: -apple-system, BlinkMacSystemFont, 'Segoe UI', Helvetica, Arial, sans-serif;">
  <rect width="100%" height="100%" fill="#0d1117"/>
  <g>
    <line x1="40" y1="220.00" x2="860" y2="220.00" stroke="#30363d"/><text x="32" y="224.00" font-size="10" fill="#c9d1d9" text-anchor="end">0</text><line x1="40" y1="175.00" x2="860" y2="175.00" stroke="#30363d"/><text x="32" y="179.00" font-size="10" fill="#c9d1d9" text-anchor="end">500</text><line x1="40" y1="130.00" x2="860" y2="130.00" stroke="#30363d"/><text x="32" y="134.00" font-size="10" fill="#c9d1d9" text-anchor="end">1k</text><line x1="40" y1="85.00" x2="860" y2="85.00" stroke="#30363d"/><text x="32" y="89.00" font-size="10" fill="#c9d1d9" text-anchor="end">1.5k</text><line x1="40" y1="40.00" x2="860" y2="40.00" stroke="#30363d"/><text x="32" y="44.00" font-size="10" fill="#c9d1d9" text-anchor="end">2k</text>
    <line x1="40.00" y1="40" x2="40.00" y2="220" stroke="#30363d" opacity="0.5"/><line x1="116.88" y1="40" x2="116.88" y2="220" stroke="#30363d" opacity="0.5"/><line x1="193.75" y1="40" x2="193.75" y2="220" stroke="#30363d" opacity="0.5"/><line x1="270.62" y1="40" x2="270.62" y2="220" stroke="#30363d" opacity="0.5"/><line x1="347.50" y1="40" x2="347.50" y2="220" stroke="#30363d" opacity="0.5"/><line x1="424.38" y1="40" x2="424.38" y2="220" stroke="#30363d" opacity="0.5"/><line x1="501.25" y1="40" x2="501.25" y2="220" stroke="#30363d" opacity="0.5"/><line x1="578.12" y1="40" x2="578.12" y2="220" stroke="#30363d" opacity="0.5"/><line x1="655.00" y1="40" x2="655.00" y2="220" stroke="#30363d" opacity="0.5"/><line x1="731.88" y1="40" x2="731.88" y2="220" stroke="#30363d" opacity="0.5"/><line x1="808.75" y1="40" x2="808.75" y2="220" stroke="#30363d" opacity="0.5"/>
    <line x1="40" y1="220" x2="860" y2="220" stroke="#30363d"/>
    <line x1="40" y1="40"   x2="40"   y2="220" stroke="#30363d"/>
    <path d="M 40.00 219.82 L 52.81 211.81 L 65.62 211.81 L 78.44 211.81 L 91.25 171.85 L 104.06 171.58 L 116.88 164.38 L 129.69 118.93 L 142.50 119.11 L 155.31 111.10 L 168.12 110.56 L 180.94 110.56 L 193.75 110.56 L 206.56 95.35 L 219.38 95.35 L 232.19 95.35 L 245.00 94.63 L 257.81 94.54 L 270.62 94.45 L 283.44 94.09 L 296.25 94.09 L 309.06 94.09 L 321.88 94.09 L 334.69 94.09 L 347.50 94.09 L 360.31 94.09 L 373.12 94.09 L 385.94 94.09 L 398.75 91.84 L 411.56 83.65 L 424.38 83.65 L 437.19 83.47 L 450.00 83.65 L 462.81 91.03 L 475.62 91.03 L 488.44 91.03 L 501.25 91.03 L 514.06 91.03 L 526.88 91.03 L 539.69 91.03 L 552.50 91.03 L 565.31 91.03 L 578.12 91.03 L 590.94 91.03 L 603.75 90.94 L 616.56 91.03 L 629.38 90.94 L 642.19 90.94 L 655.00 90.94 L 667.81 90.94 L 680.62 90.94 L 693.44 90.94 L 706.25 90.94 L 719.06 90.94 L 731.88 90.94 L 744.69 90.94 L 757.50 90.94 L 770.31 90.94 L 783.12 90.94 L 795.94 90.94 L 808.75 90.94 L 821.56 90.94 L 834.38 90.94 L 847.19 90.94 L 860.00 90.94" fill="none" stroke="#3fb950" stroke-width="2"/>
    <circle cx="860.00" cy="90.94" r="3" fill="#3fb950"/>
    <text x="40.00" y="235.00" font-size="9" fill="#c9d1d9" text-anchor="middle" transform="rotate(-45 40.00 235.00)">09.08.2025</text><text x="116.88" y="235.00" font-size="9" fill="#c9d1d9" text-anchor="middle" transform="rotate(-45 116.88 235.00)">09.08.2025</text><text x="193.75" y="235.00" font-size="9" fill="#c9d1d9" text-anchor="middle" transform="rotate(-45 193.75 235.00)">13.08.2025</text><text x="270.62" y="235.00" font-size="9" fill="#c9d1d9" text-anchor="middle" transform="rotate(-45 270.62 235.00)">13.08.2025</text><text x="347.50" y="235.00" font-size="9" fill="#c9d1d9" text-anchor="middle" transform="rotate(-45 347.50 235.00)">18.08.2025</text><text x="424.38" y="235.00" font-size="9" fill="#c9d1d9" text-anchor="middle" transform="rotate(-45 424.38 235.00)">21.08.2025</text><text x="501.25" y="235.00" font-size="9" fill="#c9d1d9" text-anchor="middle" transform="rotate(-45 501.25 235.00)">22.08.2025</text><text x="578.12" y="235.00" font-size="9" fill="#c9d1d9" text-anchor="middle" transform="rotate(-45 578.12 235.00)">28.08.2025</text><text x="655.00" y="235.00" font-size="9" fill="#c9d1d9" text-anchor="middle" transform="rotate(-45 655.00 235.00)">29.08.2025</text><text x="731.88" y="235.00" font-size="9" fill="#c9d1d9" text-anchor="middle" transform="rotate(-45 731.88 235.00)">04.09.2025</text><text x="808.75" y="235.00" font-size="9" fill="#c9d1d9" text-anchor="middle" transform="rotate(-45 808.75 235.00)">10.09.2025</text>
  </g>
</svg>