<svg xmlns="http://www.w3.org/2000/svg" width="900" height="290" style="font-family: -apple-system, BlinkMacSystemFont, 'Segoe UI', Helvetica, Arial, sans-serif;">
  <rect width="100%" height="100%" fill="white"/>
  <g>
    <line x1="40" y1="220.00" x2="860" y2="220.00" stroke="#e5e7eb"/><text x="32" y="224.00" font-size="10" fill="#111827" text-anchor="end">0</text><line x1="40" y1="175.00" x2="860" y2="175.00" stroke="#e5e7eb"/><text x="32" y="179.00" font-size="10" fill="#111827" text-anchor="end">500</text><line x1="40" y1="130.00" x2="860" y2="130.00" stroke="#e5e7eb"/><text x="32" y="134.00" font-size="10" fill="#111827" text-anchor="end">1k</text><line x1="40" y1="85.00" x2="860" y2="85.00" stroke="#e5e7eb"/><text x="32" y="89.00" font-size="10" fill="#111827" text-anchor="end">1.5k</text><line x1="40" y1="40.00" x2="860" y2="40.00" stroke="#e5e7eb"/><text x="32" y="44.00" font-size="10" fill="#111827" text-anchor="end">2k</text>
    <line x1="40.00" y1="40" x2="40.00" y2="220" stroke="#e5e7eb" opacity="0.5"/><line x1="122.00" y1="40" x2="122.00" y2="220" stroke="#e5e7eb" opacity="0.5"/><line x1="204.00" y1="40" x2="204.00" y2="220" stroke="#e5e7eb" opacity="0.5"/><line x1="286.00" y1="40" x2="286.00" y2="220" stroke="#e5e7eb" opacity="0.5"/><line x1="368.00" y1="40" x2="368.00" y2="220" stroke="#e5e7eb" opacity="0.5"/><line x1="450.00" y1="40" x2="450.00" y2="220" stroke="#e5e7eb" opacity="0.5"/><line x1="532.00" y1="40" x2="532.00" y2="220" stroke="#e5e7eb" opacity="0.5"/><line x1="614.00" y1="40" x2="614.00" y2="220" stroke="#e5e7eb" opacity="0.5"/><line x1="696.00" y1="40" x2="696.00" y2="220" stroke="#e5e7eb" opacity="0.5"/><line x1="778.00" y1="40" x2="778.00" y2="220" stroke="#e5e7eb" opacity="0.5"/><line x1="860.00" y1="40" x2="860.00" y2="220" stroke="#e5e7eb" opacity="0.5"/>
    <line x1="40" y1="220" x2="860" y2="220" stroke="#9ca3af"/>
    <line x1="40" y1="40"   x2="40"   y2="220" stroke="#9ca3af"/>
    <path d="M 40.00 219.82 L 48.20 211.81 L 56.40 211.81 L 64.60 211.81 L 72.80 171.85 L 81.00 171.58 L 89.20 164.38 L 97.40 118.93 L 105.60 119.11 L 113.80 111.10 L 122.00 110.56 L 130.20 110.56 L 138.40 110.56 L 146.60 95.35 L 154.80 95.35 L 163.00 95.35 L 171.20 94.63 L 179.40 94.54 L 187.60 94.45 L 195.80 94.09 L 204.00 94.09 L 212.20 94.09 L 220.40 94.09 L 228.60 94.09 L 236.80 94.09 L 245.00 94.09 L 253.20 94.09 L 261.40 94.09 L 269.60 91.84 L 277.80 83.65 L 286.00 83.65 L 294.20 83.47 L 302.40 83.65 L 310.60 91.03 L 318.80 91.03 L 327.00 91.03 L 335.20 91.03 L 343.40 91.03 L 351.60 91.03 L 359.80 91.03 L 368.00 91.03 L 376.20 91.03 L 384.40 91.03 L 392.60 91.03 L 400.80 90.94 L 409.00 91.03 L 417.20 90.94 L 425.40 90.94 L 433.60 90.94 L 441.80 90.94 L 450.00 90.94 L 458.20 90.94 L 466.40 90.94 L 474.60 90.94 L 482.80 90.94 L 491.00 90.94 L 499.20 90.94 L 507.40 90.94 L 515.60 90.94 L 523.80 90.94 L 532.00 90.94 L 540.20 90.94 L 548.40 90.94 L 556.60 90.94 L 564.80 90.94 L 573.00 90.94 L 581.20 90.94 L 589.40 90.94 L 597.60 90.94 L 605.80 90.94 L 614.00 90.94 L 622.20 123.79 L 630.40 123.79 L 638.60 123.79 L 646.80 123.79 L 655.00 123.79 L 663.20 123.79 L 671.40 123.79 L 679.60 123.79 L 687.80 123.79 L 696.00 123.79 L 704.20 123.79 L 712.40 123.79 L 720.60 123.79 L 728.80 123.79 L 737.00 123.79 L 745.20 123.79 L 753.40 123.79 L 761.60 123.79 L 769.80 123.79 L 778.00 123.79 L 786.20 123.79 L 794.40 123.79 L 802.60 123.79 L 810.80 123.79 L 819.00 123.79 L 827.20 123.79 L 835.40 123.79 L 843.60 123.79 L 851.80 123.79 L 860.00 123.79" fill="none" stroke="#111827" stroke-width="2"/>
    <circle cx="860.00" cy="123.79" r="3" fill="#111827"/>
    <text x="40.00" y="235.00" font-size="9" fill="#111827" text-anchor="middle" transform="rotate(-45 40.00 235.00)">09.08.2025</text><text x="122.00" y="235.00" font-size="9" fill="#111827" text-anchor="middle" transform="rotate(-45 122.00 235.00)">13.08.2025</text><text x="204.00" y="235.00" font-size="9" fill="#111827" text-anchor="middle" transform="rotate(-45 204.00 235.00)">14.08.2025</text><text x="286.00" y="235.00" font-size="9" fill="#111827" text-anchor="middle" transform="rotate(-45 286.00 235.00)">21.08.2025</text><text x="368.00" y="235.00" font-size="9" fill="#111827" text-anchor="middle" transform="rotate(-45 368.00 235.00)">26.08.2025</text><text x="450.00" y="235.00" font-size="9" fill="#111827" text-anchor="middle" transform="rotate(-45 450.00 235.00)">31.08.2025</text><text x="532.00" y="235.00" font-size="9" fill="#111827" text-anchor="middle" transform="rotate(-45 532.00 235.00)">10.09.2025</text><text x="614.00" y="235.00" font-size="9" fill="#111827" text-anchor="middle" transform="rotate(-45 614.00 235.00)">20.09.2025</text><text x="696.00" y="235.00" font-size="9" fill="#111827" text-anchor="middle" transform="rotate(-45 696.00 235.00)">28.09.2025</text><text x="778.00" y="235.00" font-size="9" fill="#111827" text-anchor="middle" transform="rotate(-45 778.00 235.00)">08.10.2025</text><text x="860.00" y="235.00" font-size="9" fill="#111827" text-anchor="middle" transform="rotate(-45 860.00 235.00)">18.10.2025</text>
  </g>
</svg>