<svg xmlns="http://www.w3.org/2000/svg" width="900" height="290" style="font-family: -apple-system, BlinkMacSystemFont, 'Segoe UI', Helvetica, Arial, sans-serif;">
  <rect width="100%" height="100%" fill="#0d1117"/>
  <g>
    <line x1="40" y1="220.00" x2="860" y2="220.00" stroke="#30363d"/><text x="32" y="224.00" font-size="10" fill="#c9d1d9" text-anchor="end">0</text><line x1="40" y1="175.00" x2="860" y2="175.00" stroke="#30363d"/><text x="32" y="179.00" font-size="10" fill="#c9d1d9" text-anchor="end">500</text><line x1="40" y1="130.00" x2="860" y2="130.00" stroke="#30363d"/><text x="32" y="134.00" font-size="10" fill="#c9d1d9" text-anchor="end">1k</text><line x1="40" y1="85.00" x2="860" y2="85.00" stroke="#30363d"/><text x="32" y="89.00" font-size="10" fill="#c9d1d9" text-anchor="end">1.5k</text><line x1="40" y1="40.00" x2="860" y2="40.00" stroke="#30363d"/><text x="32" y="44.00" font-size="10" fill="#c9d1d9" text-anchor="end">2k</text>
    <line x1="40.00" y1="40" x2="40.00" y2="220" stroke="#30363d" opacity="0.5"/><line x1="118.63" y1="40" x2="118.63" y2="220" stroke="#30363d" opacity="0.5"/><line x1="197.26" y1="40" x2="197.26" y2="220" stroke="#30363d" opacity="0.5"/><line x1="275.89" y1="40" x2="275.89" y2="220" stroke="#30363d" opacity="0.5"/><line x1="354.52" y1="40" x2="354.52" y2="220" stroke="#30363d" opacity="0.5"/><line x1="433.15" y1="40" x2="433.15" y2="220" stroke="#30363d" opacity="0.5"/><line x1="511.78" y1="40" x2="511.78" y2="220" stroke="#30363d" opacity="0.5"/><line x1="590.41" y1="40" x2="590.41" y2="220" stroke="#30363d" opacity="0.5"/><line x1="669.04" y1="40" x2="669.04" y2="220" stroke="#30363d" opacity="0.5"/><line x1="747.67" y1="40" x2="747.67" y2="220" stroke="#30363d" opacity="0.5"/><line x1="826.30" y1="40" x2="826.30" y2="220" stroke="#30363d" opacity="0.5"/>
    <line x1="40" y1="220" x2="860" y2="220" stroke="#30363d"/>
    <line x1="40" y1="40"   x2="40"   y2="220" stroke="#30363d"/>
    <path d="M 40.00 219.82 L 51.23 211.81 L 62.47 211.81 L 73.70 211.81 L 84.93 171.85 L 96.16 171.58 L 107.40 164.38 L 118.63 118.93 L 129.86 119.11 L 141.10 111.10 L 152.33 110.56 L 163.56 110.56 L 174.79 110.56 L 186.03 95.35 L 197.26 95.35 L 208.49 95.35 L 219.73 94.63 L 230.96 94.54 L 242.19 94.45 L 253.42 94.09 L 264.66 94.09 L 275.89 94.09 L 287.12 94.09 L 298.36 94.09 L 309.59 94.09 L 320.82 94.09 L 332.05 94.09 L 343.29 94.09 L 354.52 91.84 L 365.75 83.65 L 376.99 83.65 L 388.22 83.47 L 399.45 83.65 L 410.68 91.03 L 421.92 91.03 L 433.15 91.03 L 444.38 91.03 L 455.62 91.03 L 466.85 91.03 L 478.08 91.03 L 489.32 91.03 L 500.55 91.03 L 511.78 91.03 L 523.01 91.03 L 534.25 90.94 L 545.48 91.03 L 556.71 90.94 L 567.95 90.94 L 579.18 90.94 L 590.41 90.94 L 601.64 90.94 L 612.88 90.94 L 624.11 90.94 L 635.34 90.94 L 646.58 90.94 L 657.81 90.94 L 669.04 90.94 L 680.27 90.94 L 691.51 90.94 L 702.74 90.94 L 713.97 90.94 L 725.21 90.94 L 736.44 90.94 L 747.67 90.94 L 758.90 90.94 L 770.14 90.94 L 781.37 90.94 L 792.60 90.94 L 803.84 90.94 L 815.07 90.94 L 826.30 90.94 L 837.53 123.79 L 848.77 123.79 L 860.00 123.79" fill="none" stroke="#3fb950" stroke-width="2"/>
    <circle cx="860.00" cy="123.79" r="3" fill="#3fb950"/>
    <text x="40.00" y="235.00" font-size="9" fill="#c9d1d9" text-anchor="middle" transform="rotate(-45 40.00 235.00)">09.08.2025</text><text x="118.63" y="235.00" font-size="9" fill="#c9d1d9" text-anchor="middle" transform="rotate(-45 118.63 235.00)">09.08.2025</text><text x="197.26" y="235.00" font-size="9" fill="#c9d1d9" text-anchor="middle" transform="rotate(-45 197.26 235.00)">13.08.2025</text><text x="275.89" y="235.00" font-size="9" fill="#c9d1d9" text-anchor="middle" transform="rotate(-45 275.89 235.00)">15.08.2025</text><text x="354.52" y="235.00" font-size="9" fill="#c9d1d9" text-anchor="middle" transform="rotate(-45 354.52 235.00)">21.08.2025</text><text x="433.15" y="235.00" font-size="9" fill="#c9d1d9" text-anchor="middle" transform="rotate(-45 433.15 235.00)">21.08.2025</text><text x="511.78" y="235.00" font-size="9" fill="#c9d1d9" text-anchor="middle" transform="rotate(-45 511.78 235.00)">28.08.2025</text><text x="590.41" y="235.00" font-size="9" fill="#c9d1d9" text-anchor="middle" transform="rotate(-45 590.41 235.00)">30.08.2025</text><text x="669.04" y="235.00" font-size="9" fill="#c9d1d9" text-anchor="middle" transform="rotate(-45 669.04 235.00)">06.09.2025</text><text x="747.67" y="235.00" font-size="9" fill="#c9d1d9" text-anchor="middle" transform="rotate(-45 747.67 235.00)">13.09.2025</text><text x="826.30" y="235.00" font-size="9" fill="#c9d1d9" text-anchor="middle" transform="rotate(-45 826.30 235.00)">20.09.2025</text>
  </g>
</svg>