<svg xmlns="http://www.w3.org/2000/svg" width="900" height="290" style="font-family: -apple-system, BlinkMacSystemFont, 'Segoe UI', Helvetica, Arial, sans-serif;">
  <rect width="100%" height="100%" fill="white"/>
  <g>
    <line x1="40" y1="220.00" x2="860" y2="220.00" stroke="#e5e7eb"/><text x="32" y="224.00" font-size="10" fill="#111827" text-anchor="end">0</text><line x1="40" y1="175.00" x2="860" y2="175.00" stroke="#e5e7eb"/><text x="32" y="179.00" font-size="10" fill="#111827" text-anchor="end">500</text><line x1="40" y1="130.00" x2="860" y2="130.00" stroke="#e5e7eb"/><text x="32" y="134.00" font-size="10" fill="#111827" text-anchor="end">1k</text><line x1="40" y1="85.00" x2="860" y2="85.00" stroke="#e5e7eb"/><text x="32" y="89.00" font-size="10" fill="#111827" text-anchor="end">1.5k</text><line x1="40" y1="40.00" x2="860" y2="40.00" stroke="#e5e7eb"/><text x="32" y="44.00" font-size="10" fill="#111827" text-anchor="end">2k</text>
    <line x1="40.00" y1="40" x2="40.00" y2="220" stroke="#e5e7eb" opacity="0.5"/><line x1="121.55" y1="40" x2="121.55" y2="220" stroke="#e5e7eb" opacity="0.5"/><line x1="203.09" y1="40" x2="203.09" y2="220" stroke="#e5e7eb" opacity="0.5"/><line x1="284.64" y1="40" x2="284.64" y2="220" stroke="#e5e7eb" opacity="0.5"/><line x1="366.19" y1="40" x2="366.19" y2="220" stroke="#e5e7eb" opacity="0.5"/><line x1="447.73" y1="40" x2="447.73" y2="220" stroke="#e5e7eb" opacity="0.5"/><line x1="529.28" y1="40" x2="529.28" y2="220" stroke="#e5e7eb" opacity="0.5"/><line x1="610.83" y1="40" x2="610.83" y2="220" stroke="#e5e7eb" opacity="0.5"/><line x1="692.38" y1="40" x2="692.38" y2="220" stroke="#e5e7eb" opacity="0.5"/><line x1="773.92" y1="40" x2="773.92" y2="220" stroke="#e5e7eb" opacity="0.5"/><line x1="855.47" y1="40" x2="855.47" y2="220" stroke="#e5e7eb" opacity="0.5"/>
    <line x1="40" y1="220" x2="860" y2="220" stroke="#9ca3af"/>
    <line x1="40" y1="40"   x2="40"   y2="220" stroke="#9ca3af"/>
    <path d="M 40.00 219.82 L 44.53 211.81 L 49.06 211.81 L 53.59 211.81 L 58.12 171.85 L 62.65 171.58 L 67.18 164.38 L 71.71 118.93 L 76.24 119.11 L 80.77 111.10 L 85.30 110.56 L 89.83 110.56 L 94.36 110.56 L 98.90 95.35 L 103.43 95.35 L 107.96 95.35 L 112.49 94.63 L 117.02 94.54 L 121.55 94.45 L 126.08 94.09 L 130.61 94.09 L 135.14 94.09 L 139.67 94.09 L 144.20 94.09 L 148.73 94.09 L 153.26 94.09 L 157.79 94.09 L 162.32 94.09 L 166.85 91.84 L 171.38 83.65 L 175.91 83.65 L 180.44 83.47 L 184.97 83.65 L 189.50 91.03 L 194.03 91.03 L 198.56 91.03 L 203.09 91.03 L 207.62 91.03 L 212.15 91.03 L 216.69 91.03 L 221.22 91.03 L 225.75 91.03 L 230.28 91.03 L 234.81 91.03 L 239.34 90.94 L 243.87 91.03 L 248.40 90.94 L 252.93 90.94 L 257.46 90.94 L 261.99 90.94 L 266.52 90.94 L 271.05 90.94 L 275.58 90.94 L 280.11 90.94 L 284.64 90.94 L 289.17 90.94 L 293.70 90.94 L 298.23 90.94 L 302.76 90.94 L 307.29 90.94 L 311.82 90.94 L 316.35 90.94 L 320.88 90.94 L 325.41 90.94 L 329.94 90.94 L 334.48 90.94 L 339.01 90.94 L 343.54 90.94 L 348.07 90.94 L 352.60 90.94 L 357.13 90.94 L 361.66 123.79 L 366.19 123.79 L 370.72 123.79 L 375.25 123.79 L 379.78 123.79 L 384.31 123.79 L 388.84 123.79 L 393.37 123.79 L 397.90 123.79 L 402.43 123.79 L 406.96 123.79 L 411.49 123.79 L 416.02 123.79 L 420.55 123.79 L 425.08 123.79 L 429.61 123.79 L 434.14 123.79 L 438.67 123.79 L 443.20 123.79 L 447.73 123.79 L 452.27 123.79 L 456.80 123.79 L 461.33 123.79 L 465.86 123.79 L 470.39 123.79 L 474.92 123.79 L 479.45 123.79 L 483.98 123.79 L 488.51 123.79 L 493.04 123.79 L 497.57 123.79 L 502.10 123.79 L 506.63 123.79 L 511.16 123.79 L 515.69 123.79 L 520.22 123.79 L 524.75 123.79 L 529.28 123.79 L 533.81 123.79 L 538.34 123.79 L 542.87 123.79 L 547.40 123.79 L 551.93 123.79 L 556.46 123.79 L 560.99 123.79 L 565.52 123.79 L 570.06 123.79 L 574.59 123.79 L 579.12 123.79 L 583.65 123.79 L 588.18 123.79 L 592.71 123.79 L 597.24 123.79 L 601.77 123.79 L 606.30 123.79 L 610.83 123.79 L 615.36 123.79 L 619.89 123.79 L 624.42 123.79 L 628.95 123.79 L 633.48 123.79 L 638.01 123.79 L 642.54 123.79 L 647.07 123.79 L 651.60 123.79 L 656.13 123.79 L 660.66 123.79 L 665.19 123.79 L 669.72 123.79 L 674.25 123.79 L 678.78 123.79 L 683.31 123.79 L 687.85 123.79 L 692.38 123.79 L 696.91 123.79 L 701.44 123.79 L 705.97 123.79 L 710.50 115.42 L 715.03 111.64 L 719.56 107.86 L 724.09 104.08 L 728.62 100.30 L 733.15 95.98 L 737.68 95.98 L 742.21 95.98 L 746.74 95.98 L 751.27 85.72 L 755.80 85.72 L 760.33 85.72 L 764.86 85.72 L 769.39 85.72 L 773.92 85.72 L 778.45 85.72 L 782.98 85.72 L 787.51 85.72 L 792.04 85.72 L 796.57 85.72 L 801.10 85.72 L 805.64 85.72 L 810.17 85.72 L 814.70 85.72 L 819.23 85.72 L 823.76 85.72 L 828.29 85.72 L 832.82 85.72 L 837.35 85.72 L 841.88 85.72 L 846.41 85.72 L 850.94 85.72 L 855.47 85.72 L 860.00 85.72" fill="none" stroke="#111827" stroke-width="2"/>
    <circle cx="860.00" cy="85.72" r="3" fill="#111827"/>
    <text x="40.00" y="235.00" font-size="9" fill="#111827" text-anchor="middle" transform="rotate(-45 40.00 235.00)">09.08.2025</text><text x="121.55" y="235.00" font-size="9" fill="#111827" text-anchor="middle" transform="rotate(-45 121.55 235.00)">13.08.2025</text><text x="203.09" y="235.00" font-size="9" fill="#111827" text-anchor="middle" transform="rotate(-45 203.09 235.00)">22.08.2025</text><text x="284.64" y="235.00" font-size="9" fill="#111827" text-anchor="middle" transform="rotate(-45 284.64 235.00)">04.09.2025</text><text x="366.19" y="235.00" font-size="9" fill="#111827" text-anchor="middle" transform="rotate(-45 366.19 235.00)">21.09.2025</text><text x="447.73" y="235.00" font-size="9" fill="#111827" text-anchor="middle" transform="rotate(-45 447.73 235.00)">08.10.2025</text><text x="529.28" y="235.00" font-size="9" fill="#111827" text-anchor="middle" transform="rotate(-45 529.28 235.00)">26.10.2025</text><text x="610.83" y="235.00" font-size="9" fill="#111827" text-anchor="middle" transform="rotate(-45 610.83 235.00)">13.11.2025</text><text x="692.38" y="235.00" font-size="9" fill="#111827" text-anchor="middle" transform="rotate(-45 692.38 235.00)">01.12.2025</text><text x="773.92" y="235.00" font-size="9" fill="#111827" text-anchor="middle" transform="rotate(-45 773.92 235.00)">12.12.2025</text><text x="855.47" y="235.00" font-size="9" fill="#111827" text-anchor="middle" transform="rotate(-45 855.47 235.00)">30.12.2025</text>
  </g>
</svg>