<svg xmlns="http://www.w3.org/2000/svg" width="900" height="290" style="font-family: -apple-system, BlinkMacSystemFont, 'Segoe UI', Helvetica, Arial, sans-serif;">
  <rect width="100%" height="100%" fill="white"/>
  <g>
    <line x1="40" y1="220.00" x2="860" y2="220.00" stroke="#e5e7eb"/><text x="32" y="224.00" font-size="10" fill="#111827" text-anchor="end">0</text><line x1="40" y1="175.00" x2="860" y2="175.00" stroke="#e5e7eb"/><text x="32" y="179.00" font-size="10" fill="#111827" text-anchor="end">500</text><line x1="40" y1="130.00" x2="860" y2="130.00" stroke="#e5e7eb"/><text x="32" y="134.00" font-size="10" fill="#111827" text-anchor="end">1k</text><line x1="40" y1="85.00" x2="860" y2="85.00" stroke="#e5e7eb"/><text x="32" y="89.00" font-size="10" fill="#111827" text-anchor="end">1.5k</text><line x1="40" y1="40.00" x2="860" y2="40.00" stroke="#e5e7eb"/><text x="32" y="44.00" font-size="10" fill="#111827" text-anchor="end">2k</text>
    <line x1="40.00" y1="40" x2="40.00" y2="220" stroke="#e5e7eb" opacity="0.5"/><line x1="122.37" y1="40" x2="122.37" y2="220" stroke="#e5e7eb" opacity="0.5"/><line x1="204.75" y1="40" x2="204.75" y2="220" stroke="#e5e7eb" opacity="0.5"/><line x1="287.12" y1="40" x2="287.12" y2="220" stroke="#e5e7eb" opacity="0.5"/><line x1="369.50" y1="40" x2="369.50" y2="220" stroke="#e5e7eb" opacity="0.5"/><line x1="451.87" y1="40" x2="451.87" y2="220" stroke="#e5e7eb" opacity="0.5"/><line x1="534.25" y1="40" x2="534.25" y2="220" stroke="#e5e7eb" opacity="0.5"/><line x1="616.62" y1="40" x2="616.62" y2="220" stroke="#e5e7eb" opacity="0.5"/><line x1="699.00" y1="40" x2="699.00" y2="220" stroke="#e5e7eb" opacity="0.5"/><line x1="781.37" y1="40" x2="781.37" y2="220" stroke="#e5e7eb" opacity="0.5"/>
    <line x1="40" y1="220" x2="860" y2="220" stroke="#9ca3af"/>
    <line x1="40" y1="40"   x2="40"   y2="220" stroke="#9ca3af"/>
    <path d="M 40.00 219.82 L 43.74 211.81 L 47.49 211.81 L 51.23 211.81 L 54.98 171.85 L 58.72 171.58 L 62.47 164.38 L 66.21 118.93 L 69.95 119.11 L 73.70 111.10 L 77.44 110.56 L 81.19 110.56 L 84.93 110.56 L 88.68 95.35 L 92.42 95.35 L 96.16 95.35 L 99.91 94.63 L 103.65 94.54 L 107.40 94.45 L 111.14 94.09 L 114.89 94.09 L 118.63 94.09 L 122.37 94.09 L 126.12 94.09 L 129.86 94.09 L 133.61 94.09 L 137.35 94.09 L 141.10 94.09 L 144.84 91.84 L 148.58 83.65 L 152.33 83.65 L 156.07 83.47 L 159.82 83.65 L 163.56 91.03 L 167.31 91.03 L 171.05 91.03 L 174.79 91.03 L 178.54 91.03 L 182.28 91.03 L 186.03 91.03 L 189.77 91.03 L 193.52 91.03 L 197.26 91.03 L 201.00 91.03 L 204.75 90.94 L 208.49 91.03 L 212.24 90.94 L 215.98 90.94 L 219.73 90.94 L 223.47 90.94 L 227.21 90.94 L 230.96 90.94 L 234.70 90.94 L 238.45 90.94 L 242.19 90.94 L 245.94 90.94 L 249.68 90.94 L 253.42 90.94 L 257.17 90.94 L 260.91 90.94 L 264.66 90.94 L 268.40 90.94 L 272.15 90.94 L 275.89 90.94 L 279.63 90.94 L 283.38 90.94 L 287.12 90.94 L 290.87 90.94 L 294.61 90.94 L 298.36 90.94 L 302.10 90.94 L 305.84 123.79 L 309.59 123.79 L 313.33 123.79 L 317.08 123.79 L 320.82 123.79 L 324.57 123.79 L 328.31 123.79 L 332.05 123.79 L 335.80 123.79 L 339.54 123.79 L 343.29 123.79 L 347.03 123.79 L 350.78 123.79 L 354.52 123.79 L 358.26 123.79 L 362.01 123.79 L 365.75 123.79 L 369.50 123.79 L 373.24 123.79 L 376.99 123.79 L 380.73 123.79 L 384.47 123.79 L 388.22 123.79 L 391.96 123.79 L 395.71 123.79 L 399.45 123.79 L 403.20 123.79 L 406.94 123.79 L 410.68 123.79 L 414.43 123.79 L 418.17 123.79 L 421.92 123.79 L 425.66 123.79 L 429.41 123.79 L 433.15 123.79 L 436.89 123.79 L 440.64 123.79 L 444.38 123.79 L 448.13 123.79 L 451.87 123.79 L 455.62 123.79 L 459.36 123.79 L 463.11 123.79 L 466.85 123.79 L 470.59 123.79 L 474.34 123.79 L 478.08 123.79 L 481.83 123.79 L 485.57 123.79 L 489.32 123.79 L 493.06 123.79 L 496.80 123.79 L 500.55 123.79 L 504.29 123.79 L 508.04 123.79 L 511.78 123.79 L 515.53 123.79 L 519.27 123.79 L 523.01 123.79 L 526.76 123.79 L 530.50 123.79 L 534.25 123.79 L 537.99 123.79 L 541.74 123.79 L 545.48 123.79 L 549.22 123.79 L 552.97 123.79 L 556.71 123.79 L 560.46 123.79 L 564.20 123.79 L 567.95 123.79 L 571.69 123.79 L 575.43 123.79 L 579.18 123.79 L 582.92 123.79 L 586.67 123.79 L 590.41 123.79 L 594.16 115.42 L 597.90 111.64 L 601.64 107.86 L 605.39 104.08 L 609.13 100.30 L 612.88 95.98 L 616.62 95.98 L 620.37 95.98 L 624.11 95.98 L 627.85 85.72 L 631.60 85.72 L 635.34 85.72 L 639.09 85.72 L 642.83 85.72 L 646.58 85.72 L 650.32 85.72 L 654.06 85.72 L 657.81 85.72 L 661.55 85.72 L 665.30 85.72 L 669.04 85.72 L 672.79 85.72 L 676.53 85.72 L 680.27 85.72 L 684.02 85.72 L 687.76 85.72 L 691.51 85.72 L 695.25 85.72 L 699.00 85.72 L 702.74 85.72 L 706.48 85.72 L 710.23 85.72 L 713.97 85.72 L 717.72 85.72 L 721.46 85.72 L 725.21 85.72 L 728.95 85.72 L 732.69 85.72 L 736.44 85.72 L 740.18 85.72 L 743.93 85.72 L 747.67 85.72 L 751.42 85.72 L 755.16 85.72 L 758.90 85.72 L 762.65 85.72 L 766.39 85.72 L 770.14 85.72 L 773.88 85.72 L 777.63 85.72 L 781.37 85.72 L 785.11 85.72 L 788.86 85.72 L 792.60 85.72 L 796.35 85.72 L 800.09 85.72 L 803.84 85.72 L 807.58 85.72 L 811.32 85.72 L 815.07 85.72 L 818.81 85.72 L 822.56 85.72 L 826.30 85.72 L 830.05 85.72 L 833.79 85.72 L 837.53 85.72 L 841.28 85.72 L 845.02 85.72 L 848.77 85.72 L 852.51 85.72 L 856.26 85.72 L 860.00 85.72" fill="none" stroke="#111827" stroke-width="2"/>
    <circle cx="860.00" cy="85.72" r="3" fill="#111827"/>
    <text x="40.00" y="235.00" font-size="9" fill="#111827" text-anchor="middle" transform="rotate(-45 40.00 235.00)">09.08.2025</text><text x="122.37" y="235.00" font-size="9" fill="#111827" text-anchor="middle" transform="rotate(-45 122.37 235.00)">16.08.2025</text><text x="204.75" y="235.00" font-size="9" fill="#111827" text-anchor="middle" transform="rotate(-45 204.75 235.00)">28.08.2025</text><text x="287.12" y="235.00" font-size="9" fill="#111827" text-anchor="middle" transform="rotate(-45 287.12 235.00)">16.09.2025</text><text x="369.50" y="235.00" font-size="9" fill="#111827" text-anchor="middle" transform="rotate(-45 369.50 235.00)">06.10.2025</text><text x="451.87" y="235.00" font-size="9" fill="#111827" text-anchor="middle" transform="rotate(-45 451.87 235.00)">28.10.2025</text><text x="534.25" y="235.00" font-size="9" fill="#111827" text-anchor="middle" transform="rotate(-45 534.25 235.00)">19.11.2025</text><text x="616.62" y="235.00" font-size="9" fill="#111827" text-anchor="middle" transform="rotate(-45 616.62 235.00)">05.12.2025</text><text x="699.00" y="235.00" font-size="9" fill="#111827" text-anchor="middle" transform="rotate(-45 699.00 235.00)">26.12.2025</text><text x="781.37" y="235.00" font-size="9" fill="#111827" text-anchor="middle" transform="rotate(-45 781.37 235.00)">17.01.2026</text>
  </g>
</svg>