<svg xmlns="http://www.w3.org/2000/svg" width="900" height="290" style="font-family: -apple-system, BlinkMacSystemFont, 'Segoe UI', Helvetica, Arial, sans-serif;">
  <rect width="100%" height="100%" fill="#0d1117"/>
  <g>
    <line x1="40" y1="220.00" x2="860" y2="220.00" stroke="#30363d"/><text x="32" y="224.00" font-size="10" fill="#c9d1d9" text-anchor="end">0</text><line x1="40" y1="175.00" x2="860" y2="175.00" stroke="#30363d"/><text x="32" y="179.00" font-size="10" fill="#c9d1d9" text-anchor="end">500</text><line x1="40" y1="130.00" x2="860" y2="130.00" stroke="#30363d"/><text x="32" y="134.00" font-size="10" fill="#c9d1d9" text-anchor="end">1k</text><line x1="40" y1="85.00" x2="860" y2="85.00" stroke="#30363d"/><text x="32" y="89.00" font-size="10" fill="#c9d1d9" text-anchor="end">1.5k</text><line x1="40" y1="40.00" x2="860" y2="40.00" stroke="#30363d"/><text x="32" y="44.00" font-size="10" fill="#c9d1d9" text-anchor="end">2k</text>
    <line x1="40.00" y1="40" x2="40.00" y2="220" stroke="#30363d" opacity="0.5"/><line x1="118.72" y1="40" x2="118.72" y2="220" stroke="#30363d" opacity="0.5"/><line x1="197.44" y1="40" x2="197.44" y2="220" stroke="#30363d" opacity="0.5"/><line x1="276.16" y1="40" x2="276.16" y2="220" stroke="#30363d" opacity="0.5"/><line x1="354.88" y1="40" x2="354.88" y2="220" stroke="#30363d" opacity="0.5"/><line x1="433.60" y1="40" x2="433.60" y2="220" stroke="#30363d" opacity="0.5"/><line x1="512.32" y1="40" x2="512.32" y2="220" stroke="#30363d" opacity="0.5"/><line x1="591.04" y1="40" x2="591.04" y2="220" stroke="#30363d" opacity="0.5"/><line x1="669.76" y1="40" x2="669.76" y2="220" stroke="#30363d" opacity="0.5"/><line x1="748.48" y1="40" x2="748.48" y2="220" stroke="#30363d" opacity="0.5"/><line x1="827.20" y1="40" x2="827.20" y2="220" stroke="#30363d" opacity="0.5"/>
    <line x1="40" y1="220" x2="860" y2="220" stroke="#30363d"/>
    <line x1="40" y1="40"   x2="40"   y2="220" stroke="#30363d"/>
    <path d="M 40.00 219.82 L 46.56 211.81 L 53.12 211.81 L 59.68 211.81 L 66.24 171.85 L 72.80 171.58 L 79.36 164.38 L 85.92 118.93 L 92.48 119.11 L 99.04 111.10 L 105.60 110.56 L 112.16 110.56 L 118.72 110.56 L 125.28 95.35 L 131.84 95.35 L 138.40 95.35 L 144.96 94.63 L 151.52 94.54 L 158.08 94.45 L 164.64 94.09 L 171.20 94.09 L 177.76 94.09 L 184.32 94.09 L 190.88 94.09 L 197.44 94.09 L 204.00 94.09 L 210.56 94.09 L 217.12 94.09 L 223.68 91.84 L 230.24 83.65 L 236.80 83.65 L 243.36 83.47 L 249.92 83.65 L 256.48 91.03 L 263.04 91.03 L 269.60 91.03 L 276.16 91.03 L 282.72 91.03 L 289.28 91.03 L 295.84 91.03 L 302.40 91.03 L 308.96 91.03 L 315.52 91.03 L 322.08 91.03 L 328.64 90.94 L 335.20 91.03 L 341.76 90.94 L 348.32 90.94 L 354.88 90.94 L 361.44 90.94 L 368.00 90.94 L 374.56 90.94 L 381.12 90.94 L 387.68 90.94 L 394.24 90.94 L 400.80 90.94 L 407.36 90.94 L 413.92 90.94 L 420.48 90.94 L 427.04 90.94 L 433.60 90.94 L 440.16 90.94 L 446.72 90.94 L 453.28 90.94 L 459.84 90.94 L 466.40 90.94 L 472.96 90.94 L 479.52 90.94 L 486.08 90.94 L 492.64 90.94 L 499.20 90.94 L 505.76 123.79 L 512.32 123.79 L 518.88 123.79 L 525.44 123.79 L 532.00 123.79 L 538.56 123.79 L 545.12 123.79 L 551.68 123.79 L 558.24 123.79 L 564.80 123.79 L 571.36 123.79 L 577.92 123.79 L 584.48 123.79 L 591.04 123.79 L 597.60 123.79 L 604.16 123.79 L 610.72 123.79 L 617.28 123.79 L 623.84 123.79 L 630.40 123.79 L 636.96 123.79 L 643.52 123.79 L 650.08 123.79 L 656.64 123.79 L 663.20 123.79 L 669.76 123.79 L 676.32 123.79 L 682.88 123.79 L 689.44 123.79 L 696.00 123.79 L 702.56 123.79 L 709.12 123.79 L 715.68 123.79 L 722.24 123.79 L 728.80 123.79 L 735.36 123.79 L 741.92 123.79 L 748.48 123.79 L 755.04 123.79 L 761.60 123.79 L 768.16 123.79 L 774.72 123.79 L 781.28 123.79 L 787.84 123.79 L 794.40 123.79 L 800.96 123.79 L 807.52 123.79 L 814.08 123.79 L 820.64 123.79 L 827.20 123.79 L 833.76 123.79 L 840.32 123.79 L 846.88 123.79 L 853.44 123.79 L 860.00 123.79" fill="none" stroke="#3fb950" stroke-width="2"/>
    <circle cx="860.00" cy="123.79" r="3" fill="#3fb950"/>
    <text x="40.00" y="235.00" font-size="9" fill="#c9d1d9" text-anchor="middle" transform="rotate(-45 40.00 235.00)">09.08.2025</text><text x="118.72" y="235.00" font-size="9" fill="#c9d1d9" text-anchor="middle" transform="rotate(-45 118.72 235.00)">13.08.2025</text><text x="197.44" y="235.00" font-size="9" fill="#c9d1d9" text-anchor="middle" transform="rotate(-45 197.44 235.00)">18.08.2025</text><text x="276.16" y="235.00" font-size="9" fill="#c9d1d9" text-anchor="middle" transform="rotate(-45 276.16 235.00)">22.08.2025</text><text x="354.88" y="235.00" font-size="9" fill="#c9d1d9" text-anchor="middle" transform="rotate(-45 354.88 235.00)">29.08.2025</text><text x="433.60" y="235.00" font-size="9" fill="#c9d1d9" text-anchor="middle" transform="rotate(-45 433.60 235.00)">10.09.2025</text><text x="512.32" y="235.00" font-size="9" fill="#c9d1d9" text-anchor="middle" transform="rotate(-45 512.32 235.00)">21.09.2025</text><text x="591.04" y="235.00" font-size="9" fill="#c9d1d9" text-anchor="middle" transform="rotate(-45 591.04 235.00)">02.10.2025</text><text x="669.76" y="235.00" font-size="9" fill="#c9d1d9" text-anchor="middle" transform="rotate(-45 669.76 235.00)">14.10.2025</text><text x="748.48" y="235.00" font-size="9" fill="#c9d1d9" text-anchor="middle" transform="rotate(-45 748.48 235.00)">26.10.2025</text><text x="827.20" y="235.00" font-size="9" fill="#c9d1d9" text-anchor="middle" transform="rotate(-45 827.20 235.00)">07.11.2025</text>
  </g>
</svg>