<svg xmlns="http://www.w3.org/2000/svg" width="900" height="290" style="font-family: -apple-system, BlinkMacSystemFont, 'Segoe UI', Helvetica, Arial, sans-serif;">
  <rect width="100%" height="100%" fill="#0d1117"/>
  <g>
    <line x1="40" y1="220.00" x2="860" y2="220.00" stroke="#30363d"/><text x="32" y="224.00" font-size="10" fill="#c9d1d9" text-anchor="end">0</text><line x1="40" y1="175.00" x2="860" y2="175.00" stroke="#30363d"/><text x="32" y="179.00" font-size="10" fill="#c9d1d9" text-anchor="end">500</text><line x1="40" y1="130.00" x2="860" y2="130.00" stroke="#30363d"/><text x="32" y="134.00" font-size="10" fill="#c9d1d9" text-anchor="end">1k</text><line x1="40" y1="85.00" x2="860" y2="85.00" stroke="#30363d"/><text x="32" y="89.00" font-size="10" fill="#c9d1d9" text-anchor="end">1.5k</text><line x1="40" y1="40.00" x2="860" y2="40.00" stroke="#30363d"/><text x="32" y="44.00" font-size="10" fill="#c9d1d9" text-anchor="end">2k</text>
    <line x1="40.00" y1="40" x2="40.00" y2="220" stroke="#30363d" opacity="0.5"/><line x1="118.31" y1="40" x2="118.31" y2="220" stroke="#30363d" opacity="0.5"/><line x1="196.63" y1="40" x2="196.63" y2="220" stroke="#30363d" opacity="0.5"/><line x1="274.94" y1="40" x2="274.94" y2="220" stroke="#30363d" opacity="0.5"/><line x1="353.26" y1="40" x2="353.26" y2="220" stroke="#30363d" opacity="0.5"/><line x1="431.57" y1="40" x2="431.57" y2="220" stroke="#30363d" opacity="0.5"/><line x1="509.89" y1="40" x2="509.89" y2="220" stroke="#30363d" opacity="0.5"/><line x1="588.20" y1="40" x2="588.20" y2="220" stroke="#30363d" opacity="0.5"/><line x1="666.52" y1="40" x2="666.52" y2="220" stroke="#30363d" opacity="0.5"/><line x1="744.83" y1="40" x2="744.83" y2="220" stroke="#30363d" opacity="0.5"/><line x1="823.15" y1="40" x2="823.15" y2="220" stroke="#30363d" opacity="0.5"/>
    <line x1="40" y1="220" x2="860" y2="220" stroke="#30363d"/>
    <line x1="40" y1="40"   x2="40"   y2="220" stroke="#30363d"/>
    <path d="M 40.00 219.82 L 44.61 211.81 L 49.21 211.81 L 53.82 211.81 L 58.43 171.85 L 63.03 171.58 L 67.64 164.38 L 72.25 118.93 L 76.85 119.11 L 81.46 111.10 L 86.07 110.56 L 90.67 110.56 L 95.28 110.56 L 99.89 95.35 L 104.49 95.35 L 109.10 95.35 L 113.71 94.63 L 118.31 94.54 L 122.92 94.45 L 127.53 94.09 L 132.13 94.09 L 136.74 94.09 L 141.35 94.09 L 145.96 94.09 L 150.56 94.09 L 155.17 94.09 L 159.78 94.09 L 164.38 94.09 L 168.99 91.84 L 173.60 83.65 L 178.20 83.65 L 182.81 83.47 L 187.42 83.65 L 192.02 91.03 L 196.63 91.03 L 201.24 91.03 L 205.84 91.03 L 210.45 91.03 L 215.06 91.03 L 219.66 91.03 L 224.27 91.03 L 228.88 91.03 L 233.48 91.03 L 238.09 91.03 L 242.70 90.94 L 247.30 91.03 L 251.91 90.94 L 256.52 90.94 L 261.12 90.94 L 265.73 90.94 L 270.34 90.94 L 274.94 90.94 L 279.55 90.94 L 284.16 90.94 L 288.76 90.94 L 293.37 90.94 L 297.98 90.94 L 302.58 90.94 L 307.19 90.94 L 311.80 90.94 L 316.40 90.94 L 321.01 90.94 L 325.62 90.94 L 330.22 90.94 L 334.83 90.94 L 339.44 90.94 L 344.04 90.94 L 348.65 90.94 L 353.26 90.94 L 357.87 90.94 L 362.47 90.94 L 367.08 123.79 L 371.69 123.79 L 376.29 123.79 L 380.90 123.79 L 385.51 123.79 L 390.11 123.79 L 394.72 123.79 L 399.33 123.79 L 403.93 123.79 L 408.54 123.79 L 413.15 123.79 L 417.75 123.79 L 422.36 123.79 L 426.97 123.79 L 431.57 123.79 L 436.18 123.79 L 440.79 123.79 L 445.39 123.79 L 450.00 123.79 L 454.61 123.79 L 459.21 123.79 L 463.82 123.79 L 468.43 123.79 L 473.03 123.79 L 477.64 123.79 L 482.25 123.79 L 486.85 123.79 L 491.46 123.79 L 496.07 123.79 L 500.67 123.79 L 505.28 123.79 L 509.89 123.79 L 514.49 123.79 L 519.10 123.79 L 523.71 123.79 L 528.31 123.79 L 532.92 123.79 L 537.53 123.79 L 542.13 123.79 L 546.74 123.79 L 551.35 123.79 L 555.96 123.79 L 560.56 123.79 L 565.17 123.79 L 569.78 123.79 L 574.38 123.79 L 578.99 123.79 L 583.60 123.79 L 588.20 123.79 L 592.81 123.79 L 597.42 123.79 L 602.02 123.79 L 606.63 123.79 L 611.24 123.79 L 615.84 123.79 L 620.45 123.79 L 625.06 123.79 L 629.66 123.79 L 634.27 123.79 L 638.88 123.79 L 643.48 123.79 L 648.09 123.79 L 652.70 123.79 L 657.30 123.79 L 661.91 123.79 L 666.52 123.79 L 671.12 123.79 L 675.73 123.79 L 680.34 123.79 L 684.94 123.79 L 689.55 123.79 L 694.16 123.79 L 698.76 123.79 L 703.37 123.79 L 707.98 123.79 L 712.58 123.79 L 717.19 123.79 L 721.80 115.42 L 726.40 111.64 L 731.01 107.86 L 735.62 104.08 L 740.22 100.30 L 744.83 95.98 L 749.44 95.98 L 754.04 95.98 L 758.65 95.98 L 763.26 85.72 L 767.87 85.72 L 772.47 85.72 L 777.08 85.72 L 781.69 85.72 L 786.29 85.72 L 790.90 85.72 L 795.51 85.72 L 800.11 85.72 L 804.72 85.72 L 809.33 85.72 L 813.93 85.72 L 818.54 85.72 L 823.15 85.72 L 827.75 85.72 L 832.36 85.72 L 836.97 85.72 L 841.57 85.72 L 846.18 85.72 L 850.79 85.72 L 855.39 85.72 L 860.00 85.72" fill="none" stroke="#3fb950" stroke-width="2"/>
    <circle cx="860.00" cy="85.72" r="3" fill="#3fb950"/>
    <text x="40.00" y="235.00" font-size="9" fill="#c9d1d9" text-anchor="middle" transform="rotate(-45 40.00 235.00)">09.08.2025</text><text x="118.31" y="235.00" font-size="9" fill="#c9d1d9" text-anchor="middle" transform="rotate(-45 118.31 235.00)">13.08.2025</text><text x="196.63" y="235.00" font-size="9" fill="#c9d1d9" text-anchor="middle" transform="rotate(-45 196.63 235.00)">21.08.2025</text><text x="274.94" y="235.00" font-size="9" fill="#c9d1d9" text-anchor="middle" transform="rotate(-45 274.94 235.00)">01.09.2025</text><text x="353.26" y="235.00" font-size="9" fill="#c9d1d9" text-anchor="middle" transform="rotate(-45 353.26 235.00)">18.09.2025</text><text x="431.57" y="235.00" font-size="9" fill="#c9d1d9" text-anchor="middle" transform="rotate(-45 431.57 235.00)">03.10.2025</text><text x="509.89" y="235.00" font-size="9" fill="#c9d1d9" text-anchor="middle" transform="rotate(-45 509.89 235.00)">20.10.2025</text><text x="588.20" y="235.00" font-size="9" fill="#c9d1d9" text-anchor="middle" transform="rotate(-45 588.20 235.00)">06.11.2025</text><text x="666.52" y="235.00" font-size="9" fill="#c9d1d9" text-anchor="middle" transform="rotate(-45 666.52 235.00)">23.11.2025</text><text x="744.83" y="235.00" font-size="9" fill="#c9d1d9" text-anchor="middle" transform="rotate(-45 744.83 235.00)">04.12.2025</text><text x="823.15" y="235.00" font-size="9" fill="#c9d1d9" text-anchor="middle" transform="rotate(-45 823.15 235.00)">20.12.2025</text>
  </g>
</svg>