<svg xmlns="http://www.w3.org/2000/svg" width="900" height="290" style="font-family: -apple-system, BlinkMacSystemFont, 'Segoe UI', Helvetica, Arial, sans-serif;">
  <rect width="100%" height="100%" fill="white"/>
  <g>
    <line x1="40" y1="220.00" x2="860" y2="220.00" stroke="#e5e7eb"/><text x="32" y="224.00" font-size="10" fill="#111827" text-anchor="end">0</text><line x1="40" y1="175.00" x2="860" y2="175.00" stroke="#e5e7eb"/><text x="32" y="179.00" font-size="10" fill="#111827" text-anchor="end">500</text><line x1="40" y1="130.00" x2="860" y2="130.00" stroke="#e5e7eb"/><text x="32" y="134.00" font-size="10" fill="#111827" text-anchor="end">1k</text><line x1="40" y1="85.00" x2="860" y2="85.00" stroke="#e5e7eb"/><text x="32" y="89.00" font-size="10" fill="#111827" text-anchor="end">1.5k</text><line x1="40" y1="40.00" x2="860" y2="40.00" stroke="#e5e7eb"/><text x="32" y="44.00" font-size="10" fill="#111827" text-anchor="end">2k</text>
    <line x1="40.00" y1="40" x2="40.00" y2="220" stroke="#e5e7eb" opacity="0.5"/><line x1="109.79" y1="40" x2="109.79" y2="220" stroke="#e5e7eb" opacity="0.5"/><line x1="179.57" y1="40" x2="179.57" y2="220" stroke="#e5e7eb" opacity="0.5"/><line x1="249.36" y1="40" x2="249.36" y2="220" stroke="#e5e7eb" opacity="0.5"/><line x1="319.15" y1="40" x2="319.15" y2="220" stroke="#e5e7eb" opacity="0.5"/><line x1="388.94" y1="40" x2="388.94" y2="220" stroke="#e5e7eb" opacity="0.5"/><line x1="458.72" y1="40" x2="458.72" y2="220" stroke="#e5e7eb" opacity="0.5"/><line x1="528.51" y1="40" x2="528.51" y2="220" stroke="#e5e7eb" opacity="0.5"/><line x1="598.30" y1="40" x2="598.30" y2="220" stroke="#e5e7eb" opacity="0.5"/><line x1="668.09" y1="40" x2="668.09" y2="220" stroke="#e5e7eb" opacity="0.5"/><line x1="737.87" y1="40" x2="737.87" y2="220" stroke="#e5e7eb" opacity="0.5"/><line x1="807.66" y1="40" x2="807.66" y2="220" stroke="#e5e7eb" opacity="0.5"/>
    <line x1="40" y1="220" x2="860" y2="220" stroke="#9ca3af"/>
    <line x1="40" y1="40"   x2="40"   y2="220" stroke="#9ca3af"/>
    <path d="M 40.00 219.82 L 57.45 211.81 L 74.89 211.81 L 92.34 211.81 L 109.79 171.85 L 127.23 171.58 L 144.68 164.38 L 162.13 118.93 L 179.57 119.11 L 197.02 111.10 L 214.47 110.56 L 231.91 110.56 L 249.36 110.56 L 266.81 95.35 L 284.26 95.35 L 301.70 95.35 L 319.15 94.63 L 336.60 94.54 L 354.04 94.45 L 371.49 94.09 L 388.94 94.09 L 406.38 94.09 L 423.83 94.09 L 441.28 94.09 L 458.72 94.09 L 476.17 94.09 L 493.62 94.09 L 511.06 94.09 L 528.51 91.84 L 545.96 83.65 L 563.40 83.65 L 580.85 83.47 L 598.30 83.65 L 615.74 91.03 L 633.19 91.03 L 650.64 91.03 L 668.09 91.03 L 685.53 91.03 L 702.98 91.03 L 720.43 91.03 L 737.87 91.03 L 755.32 91.03 L 772.77 91.03 L 790.21 91.03 L 807.66 90.94 L 825.11 91.03 L 842.55 90.94 L 860.00 90.94" fill="none" stroke="#111827" stroke-width="2"/>
    <circle cx="860.00" cy="90.94" r="3" fill="#111827"/>
    <text x="40.00" y="235.00" font-size="9" fill="#111827" text-anchor="middle" transform="rotate(-45 40.00 235.00)">09.08.2025</text><text x="109.79" y="235.00" font-size="9" fill="#111827" text-anchor="middle" transform="rotate(-45 109.79 235.00)">09.08.2025</text><text x="179.57" y="235.00" font-size="9" fill="#111827" text-anchor="middle" transform="rotate(-45 179.57 235.00)">12.08.2025</text><text x="249.36" y="235.00" font-size="9" fill="#111827" text-anchor="middle" transform="rotate(-45 249.36 235.00)">13.08.2025</text><text x="319.15" y="235.00" font-size="9" fill="#111827" text-anchor="middle" transform="rotate(-45 319.15 235.00)">13.08.2025</text><text x="388.94" y="235.00" font-size="9" fill="#111827" text-anchor="middle" transform="rotate(-45 388.94 235.00)">14.08.2025</text><text x="458.72" y="235.00" font-size="9" fill="#111827" text-anchor="middle" transform="rotate(-45 458.72 235.00)">18.08.2025</text><text x="528.51" y="235.00" font-size="9" fill="#111827" text-anchor="middle" transform="rotate(-45 528.51 235.00)">21.08.2025</text><text x="598.30" y="235.00" font-size="9" fill="#111827" text-anchor="middle" transform="rotate(-45 598.30 235.00)">21.08.2025</text><text x="668.09" y="235.00" font-size="9" fill="#111827" text-anchor="middle" transform="rotate(-45 668.09 235.00)">22.08.2025</text><text x="737.87" y="235.00" font-size="9" fill="#111827" text-anchor="middle" transform="rotate(-45 737.87 235.00)">26.08.2025</text><text x="807.66" y="235.00" font-size="9" fill="#111827" text-anchor="middle" transform="rotate(-45 807.66 235.00)">28.08.2025</text>
  </g>
</svg>