<svg xmlns="http://www.w3.org/2000/svg" width="900" height="290" style="font-family: -apple-system, BlinkMacSystemFont, 'Segoe UI', Helvetica, Arial, sans-serif;">
  <rect width="100%" height="100%" fill="white"/>
  <g>
    <line x1="40" y1="220.00" x2="860" y2="220.00" stroke="#e5e7eb"/><text x="32" y="224.00" font-size="10" fill="#111827" text-anchor="end">0</text><line x1="40" y1="175.00" x2="860" y2="175.00" stroke="#e5e7eb"/><text x="32" y="179.00" font-size="10" fill="#111827" text-anchor="end">500</text><line x1="40" y1="130.00" x2="860" y2="130.00" stroke="#e5e7eb"/><text x="32" y="134.00" font-size="10" fill="#111827" text-anchor="end">1k</text><line x1="40" y1="85.00" x2="860" y2="85.00" stroke="#e5e7eb"/><text x="32" y="89.00" font-size="10" fill="#111827" text-anchor="end">1.5k</text><line x1="40" y1="40.00" x2="860" y2="40.00" stroke="#e5e7eb"/><text x="32" y="44.00" font-size="10" fill="#111827" text-anchor="end">2k</text>
    <line x1="40.00" y1="40" x2="40.00" y2="220" stroke="#e5e7eb" opacity="0.5"/><line x1="120.99" y1="40" x2="120.99" y2="220" stroke="#e5e7eb" opacity="0.5"/><line x1="201.98" y1="40" x2="201.98" y2="220" stroke="#e5e7eb" opacity="0.5"/><line x1="282.96" y1="40" x2="282.96" y2="220" stroke="#e5e7eb" opacity="0.5"/><line x1="363.95" y1="40" x2="363.95" y2="220" stroke="#e5e7eb" opacity="0.5"/><line x1="444.94" y1="40" x2="444.94" y2="220" stroke="#e5e7eb" opacity="0.5"/><line x1="525.93" y1="40" x2="525.93" y2="220" stroke="#e5e7eb" opacity="0.5"/><line x1="606.91" y1="40" x2="606.91" y2="220" stroke="#e5e7eb" opacity="0.5"/><line x1="687.90" y1="40" x2="687.90" y2="220" stroke="#e5e7eb" opacity="0.5"/><line x1="768.89" y1="40" x2="768.89" y2="220" stroke="#e5e7eb" opacity="0.5"/><line x1="849.88" y1="40" x2="849.88" y2="220" stroke="#e5e7eb" opacity="0.5"/>
    <line x1="40" y1="220" x2="860" y2="220" stroke="#9ca3af"/>
    <line x1="40" y1="40"   x2="40"   y2="220" stroke="#9ca3af"/>
    <path d="M 40.00 219.82 L 45.06 211.81 L 50.12 211.81 L 55.19 211.81 L 60.25 171.85 L 65.31 171.58 L 70.37 164.38 L 75.43 118.93 L 80.49 119.11 L 85.56 111.10 L 90.62 110.56 L 95.68 110.56 L 100.74 110.56 L 105.80 95.35 L 110.86 95.35 L 115.93 95.35 L 120.99 94.63 L 126.05 94.54 L 131.11 94.45 L 136.17 94.09 L 141.23 94.09 L 146.30 94.09 L 151.36 94.09 L 156.42 94.09 L 161.48 94.09 L 166.54 94.09 L 171.60 94.09 L 176.67 94.09 L 181.73 91.84 L 186.79 83.65 L 191.85 83.65 L 196.91 83.47 L 201.98 83.65 L 207.04 91.03 L 212.10 91.03 L 217.16 91.03 L 222.22 91.03 L 227.28 91.03 L 232.35 91.03 L 237.41 91.03 L 242.47 91.03 L 247.53 91.03 L 252.59 91.03 L 257.65 91.03 L 262.72 90.94 L 267.78 91.03 L 272.84 90.94 L 277.90 90.94 L 282.96 90.94 L 288.02 90.94 L 293.09 90.94 L 298.15 90.94 L 303.21 90.94 L 308.27 90.94 L 313.33 90.94 L 318.40 90.94 L 323.46 90.94 L 328.52 90.94 L 333.58 90.94 L 338.64 90.94 L 343.70 90.94 L 348.77 90.94 L 353.83 90.94 L 358.89 90.94 L 363.95 90.94 L 369.01 90.94 L 374.07 90.94 L 379.14 90.94 L 384.20 90.94 L 389.26 90.94 L 394.32 90.94 L 399.38 123.79 L 404.44 123.79 L 409.51 123.79 L 414.57 123.79 L 419.63 123.79 L 424.69 123.79 L 429.75 123.79 L 434.81 123.79 L 439.88 123.79 L 444.94 123.79 L 450.00 123.79 L 455.06 123.79 L 460.12 123.79 L 465.19 123.79 L 470.25 123.79 L 475.31 123.79 L 480.37 123.79 L 485.43 123.79 L 490.49 123.79 L 495.56 123.79 L 500.62 123.79 L 505.68 123.79 L 510.74 123.79 L 515.80 123.79 L 520.86 123.79 L 525.93 123.79 L 530.99 123.79 L 536.05 123.79 L 541.11 123.79 L 546.17 123.79 L 551.23 123.79 L 556.30 123.79 L 561.36 123.79 L 566.42 123.79 L 571.48 123.79 L 576.54 123.79 L 581.60 123.79 L 586.67 123.79 L 591.73 123.79 L 596.79 123.79 L 601.85 123.79 L 606.91 123.79 L 611.98 123.79 L 617.04 123.79 L 622.10 123.79 L 627.16 123.79 L 632.22 123.79 L 637.28 123.79 L 642.35 123.79 L 647.41 123.79 L 652.47 123.79 L 657.53 123.79 L 662.59 123.79 L 667.65 123.79 L 672.72 123.79 L 677.78 123.79 L 682.84 123.79 L 687.90 123.79 L 692.96 123.79 L 698.02 123.79 L 703.09 123.79 L 708.15 123.79 L 713.21 123.79 L 718.27 123.79 L 723.33 123.79 L 728.40 123.79 L 733.46 123.79 L 738.52 123.79 L 743.58 123.79 L 748.64 123.79 L 753.70 123.79 L 758.77 123.79 L 763.83 123.79 L 768.89 123.79 L 773.95 123.79 L 779.01 123.79 L 784.07 123.79 L 789.14 115.42 L 794.20 111.64 L 799.26 107.86 L 804.32 104.08 L 809.38 100.30 L 814.44 95.98 L 819.51 95.98 L 824.57 95.98 L 829.63 95.98 L 834.69 85.72 L 839.75 85.72 L 844.81 85.72 L 849.88 85.72 L 854.94 85.72 L 860.00 85.72" fill="none" stroke="#111827" stroke-width="2"/>
    <circle cx="860.00" cy="85.72" r="3" fill="#111827"/>
    <text x="40.00" y="235.00" font-size="9" fill="#111827" text-anchor="middle" transform="rotate(-45 40.00 235.00)">09.08.2025</text><text x="120.99" y="235.00" font-size="9" fill="#111827" text-anchor="middle" transform="rotate(-45 120.99 235.00)">13.08.2025</text><text x="201.98" y="235.00" font-size="9" fill="#111827" text-anchor="middle" transform="rotate(-45 201.98 235.00)">21.08.2025</text><text x="282.96" y="235.00" font-size="9" fill="#111827" text-anchor="middle" transform="rotate(-45 282.96 235.00)">29.08.2025</text><text x="363.95" y="235.00" font-size="9" fill="#111827" text-anchor="middle" transform="rotate(-45 363.95 235.00)">14.09.2025</text><text x="444.94" y="235.00" font-size="9" fill="#111827" text-anchor="middle" transform="rotate(-45 444.94 235.00)">28.09.2025</text><text x="525.93" y="235.00" font-size="9" fill="#111827" text-anchor="middle" transform="rotate(-45 525.93 235.00)">14.10.2025</text><text x="606.91" y="235.00" font-size="9" fill="#111827" text-anchor="middle" transform="rotate(-45 606.91 235.00)">30.10.2025</text><text x="687.90" y="235.00" font-size="9" fill="#111827" text-anchor="middle" transform="rotate(-45 687.90 235.00)">15.11.2025</text><text x="768.89" y="235.00" font-size="9" fill="#111827" text-anchor="middle" transform="rotate(-45 768.89 235.00)">01.12.2025</text><text x="849.88" y="235.00" font-size="9" fill="#111827" text-anchor="middle" transform="rotate(-45 849.88 235.00)">10.12.2025</text>
  </g>
</svg>