<svg xmlns="http://www.w3.org/2000/svg" width="900" height="290" style="font-family: -apple-system, BlinkMacSystemFont, 'Segoe UI', Helvetica, Arial, sans-serif;">
  <rect width="100%" height="100%" fill="white"/>
  <g>
    <line x1="40" y1="220.00" x2="860" y2="220.00" stroke="#e5e7eb"/><text x="32" y="224.00" font-size="10" fill="#111827" text-anchor="end">0</text><line x1="40" y1="175.00" x2="860" y2="175.00" stroke="#e5e7eb"/><text x="32" y="179.00" font-size="10" fill="#111827" text-anchor="end">500</text><line x1="40" y1="130.00" x2="860" y2="130.00" stroke="#e5e7eb"/><text x="32" y="134.00" font-size="10" fill="#111827" text-anchor="end">1k</text><line x1="40" y1="85.00" x2="860" y2="85.00" stroke="#e5e7eb"/><text x="32" y="89.00" font-size="10" fill="#111827" text-anchor="end">1.5k</text><line x1="40" y1="40.00" x2="860" y2="40.00" stroke="#e5e7eb"/><text x="32" y="44.00" font-size="10" fill="#111827" text-anchor="end">2k</text>
    <line x1="40.00" y1="40" x2="40.00" y2="220" stroke="#e5e7eb" opacity="0.5"/><line x1="121.52" y1="40" x2="121.52" y2="220" stroke="#e5e7eb" opacity="0.5"/><line x1="203.04" y1="40" x2="203.04" y2="220" stroke="#e5e7eb" opacity="0.5"/><line x1="284.56" y1="40" x2="284.56" y2="220" stroke="#e5e7eb" opacity="0.5"/><line x1="366.08" y1="40" x2="366.08" y2="220" stroke="#e5e7eb" opacity="0.5"/><line x1="447.60" y1="40" x2="447.60" y2="220" stroke="#e5e7eb" opacity="0.5"/><line x1="529.12" y1="40" x2="529.12" y2="220" stroke="#e5e7eb" opacity="0.5"/><line x1="610.64" y1="40" x2="610.64" y2="220" stroke="#e5e7eb" opacity="0.5"/><line x1="692.16" y1="40" x2="692.16" y2="220" stroke="#e5e7eb" opacity="0.5"/><line x1="773.68" y1="40" x2="773.68" y2="220" stroke="#e5e7eb" opacity="0.5"/><line x1="855.20" y1="40" x2="855.20" y2="220" stroke="#e5e7eb" opacity="0.5"/>
    <line x1="40" y1="220" x2="860" y2="220" stroke="#9ca3af"/>
    <line x1="40" y1="40"   x2="40"   y2="220" stroke="#9ca3af"/>
    <path d="M 40.00 219.82 L 44.80 211.81 L 49.59 211.81 L 54.39 211.81 L 59.18 171.85 L 63.98 171.58 L 68.77 164.38 L 73.57 118.93 L 78.36 119.11 L 83.16 111.10 L 87.95 110.56 L 92.75 110.56 L 97.54 110.56 L 102.34 95.35 L 107.13 95.35 L 111.93 95.35 L 116.73 94.63 L 121.52 94.54 L 126.32 94.45 L 131.11 94.09 L 135.91 94.09 L 140.70 94.09 L 145.50 94.09 L 150.29 94.09 L 155.09 94.09 L 159.88 94.09 L 164.68 94.09 L 169.47 94.09 L 174.27 91.84 L 179.06 83.65 L 183.86 83.65 L 188.65 83.47 L 193.45 83.65 L 198.25 91.03 L 203.04 91.03 L 207.84 91.03 L 212.63 91.03 L 217.43 91.03 L 222.22 91.03 L 227.02 91.03 L 231.81 91.03 L 236.61 91.03 L 241.40 91.03 L 246.20 91.03 L 250.99 90.94 L 255.79 91.03 L 260.58 90.94 L 265.38 90.94 L 270.18 90.94 L 274.97 90.94 L 279.77 90.94 L 284.56 90.94 L 289.36 90.94 L 294.15 90.94 L 298.95 90.94 L 303.74 90.94 L 308.54 90.94 L 313.33 90.94 L 318.13 90.94 L 322.92 90.94 L 327.72 90.94 L 332.51 90.94 L 337.31 90.94 L 342.11 90.94 L 346.90 90.94 L 351.70 90.94 L 356.49 90.94 L 361.29 90.94 L 366.08 90.94 L 370.88 90.94 L 375.67 90.94 L 380.47 123.79 L 385.26 123.79 L 390.06 123.79 L 394.85 123.79 L 399.65 123.79 L 404.44 123.79 L 409.24 123.79 L 414.04 123.79 L 418.83 123.79 L 423.63 123.79 L 428.42 123.79 L 433.22 123.79 L 438.01 123.79 L 442.81 123.79 L 447.60 123.79 L 452.40 123.79 L 457.19 123.79 L 461.99 123.79 L 466.78 123.79 L 471.58 123.79 L 476.37 123.79 L 481.17 123.79 L 485.96 123.79 L 490.76 123.79 L 495.56 123.79 L 500.35 123.79 L 505.15 123.79 L 509.94 123.79 L 514.74 123.79 L 519.53 123.79 L 524.33 123.79 L 529.12 123.79 L 533.92 123.79 L 538.71 123.79 L 543.51 123.79 L 548.30 123.79 L 553.10 123.79 L 557.89 123.79 L 562.69 123.79 L 567.49 123.79 L 572.28 123.79 L 577.08 123.79 L 581.87 123.79 L 586.67 123.79 L 591.46 123.79 L 596.26 123.79 L 601.05 123.79 L 605.85 123.79 L 610.64 123.79 L 615.44 123.79 L 620.23 123.79 L 625.03 123.79 L 629.82 123.79 L 634.62 123.79 L 639.42 123.79 L 644.21 123.79 L 649.01 123.79 L 653.80 123.79 L 658.60 123.79 L 663.39 123.79 L 668.19 123.79 L 672.98 123.79 L 677.78 123.79 L 682.57 123.79 L 687.37 123.79 L 692.16 123.79 L 696.96 123.79 L 701.75 123.79 L 706.55 123.79 L 711.35 123.79 L 716.14 123.79 L 720.94 123.79 L 725.73 123.79 L 730.53 123.79 L 735.32 123.79 L 740.12 123.79 L 744.91 123.79 L 749.71 115.42 L 754.50 111.64 L 759.30 107.86 L 764.09 104.08 L 768.89 100.30 L 773.68 95.98 L 778.48 95.98 L 783.27 95.98 L 788.07 95.98 L 792.87 85.72 L 797.66 85.72 L 802.46 85.72 L 807.25 85.72 L 812.05 85.72 L 816.84 85.72 L 821.64 85.72 L 826.43 85.72 L 831.23 85.72 L 836.02 85.72 L 840.82 85.72 L 845.61 85.72 L 850.41 85.72 L 855.20 85.72 L 860.00 85.72" fill="none" stroke="#111827" stroke-width="2"/>
    <circle cx="860.00" cy="85.72" r="3" fill="#111827"/>
    <text x="40.00" y="235.00" font-size="9" fill="#111827" text-anchor="middle" transform="rotate(-45 40.00 235.00)">09.08.2025</text><text x="121.52" y="235.00" font-size="9" fill="#111827" text-anchor="middle" transform="rotate(-45 121.52 235.00)">13.08.2025</text><text x="203.04" y="235.00" font-size="9" fill="#111827" text-anchor="middle" transform="rotate(-45 203.04 235.00)">21.08.2025</text><text x="284.56" y="235.00" font-size="9" fill="#111827" text-anchor="middle" transform="rotate(-45 284.56 235.00)">01.09.2025</text><text x="366.08" y="235.00" font-size="9" fill="#111827" text-anchor="middle" transform="rotate(-45 366.08 235.00)">18.09.2025</text><text x="447.60" y="235.00" font-size="9" fill="#111827" text-anchor="middle" transform="rotate(-45 447.60 235.00)">03.10.2025</text><text x="529.12" y="235.00" font-size="9" fill="#111827" text-anchor="middle" transform="rotate(-45 529.12 235.00)">20.10.2025</text><text x="610.64" y="235.00" font-size="9" fill="#111827" text-anchor="middle" transform="rotate(-45 610.64 235.00)">06.11.2025</text><text x="692.16" y="235.00" font-size="9" fill="#111827" text-anchor="middle" transform="rotate(-45 692.16 235.00)">23.11.2025</text><text x="773.68" y="235.00" font-size="9" fill="#111827" text-anchor="middle" transform="rotate(-45 773.68 235.00)">04.12.2025</text><text x="855.20" y="235.00" font-size="9" fill="#111827" text-anchor="middle" transform="rotate(-45 855.20 235.00)">20.12.2025</text>
  </g>
</svg>