<svg xmlns="http://www.w3.org/2000/svg" width="900" height="290" style="font-family: -apple-system, BlinkMacSystemFont, 'Segoe UI', Helvetica, Arial, sans-serif;">
  <rect width="100%" height="100%" fill="white"/>
  <g>
    <line x1="40" y1="220.00" x2="860" y2="220.00" stroke="#e5e7eb"/><text x="32" y="224.00" font-size="10" fill="#111827" text-anchor="end">0</text><line x1="40" y1="175.00" x2="860" y2="175.00" stroke="#e5e7eb"/><text x="32" y="179.00" font-size="10" fill="#111827" text-anchor="end">500</text><line x1="40" y1="130.00" x2="860" y2="130.00" stroke="#e5e7eb"/><text x="32" y="134.00" font-size="10" fill="#111827" text-anchor="end">1k</text><line x1="40" y1="85.00" x2="860" y2="85.00" stroke="#e5e7eb"/><text x="32" y="89.00" font-size="10" fill="#111827" text-anchor="end">1.5k</text><line x1="40" y1="40.00" x2="860" y2="40.00" stroke="#e5e7eb"/><text x="32" y="44.00" font-size="10" fill="#111827" text-anchor="end">2k</text>
    <line x1="40.00" y1="40" x2="40.00" y2="220" stroke="#e5e7eb" opacity="0.5"/><line x1="118.69" y1="40" x2="118.69" y2="220" stroke="#e5e7eb" opacity="0.5"/><line x1="197.37" y1="40" x2="197.37" y2="220" stroke="#e5e7eb" opacity="0.5"/><line x1="276.06" y1="40" x2="276.06" y2="220" stroke="#e5e7eb" opacity="0.5"/><line x1="354.75" y1="40" x2="354.75" y2="220" stroke="#e5e7eb" opacity="0.5"/><line x1="433.43" y1="40" x2="433.43" y2="220" stroke="#e5e7eb" opacity="0.5"/><line x1="512.12" y1="40" x2="512.12" y2="220" stroke="#e5e7eb" opacity="0.5"/><line x1="590.81" y1="40" x2="590.81" y2="220" stroke="#e5e7eb" opacity="0.5"/><line x1="669.49" y1="40" x2="669.49" y2="220" stroke="#e5e7eb" opacity="0.5"/><line x1="748.18" y1="40" x2="748.18" y2="220" stroke="#e5e7eb" opacity="0.5"/><line x1="826.87" y1="40" x2="826.87" y2="220" stroke="#e5e7eb" opacity="0.5"/>
    <line x1="40" y1="220" x2="860" y2="220" stroke="#9ca3af"/>
    <line x1="40" y1="40"   x2="40"   y2="220" stroke="#9ca3af"/>
    <path d="M 40.00 219.82 L 44.14 211.81 L 48.28 211.81 L 52.42 211.81 L 56.57 171.85 L 60.71 171.58 L 64.85 164.38 L 68.99 118.93 L 73.13 119.11 L 77.27 111.10 L 81.41 110.56 L 85.56 110.56 L 89.70 110.56 L 93.84 95.35 L 97.98 95.35 L 102.12 95.35 L 106.26 94.63 L 110.40 94.54 L 114.55 94.45 L 118.69 94.09 L 122.83 94.09 L 126.97 94.09 L 131.11 94.09 L 135.25 94.09 L 139.39 94.09 L 143.54 94.09 L 147.68 94.09 L 151.82 94.09 L 155.96 91.84 L 160.10 83.65 L 164.24 83.65 L 168.38 83.47 L 172.53 83.65 L 176.67 91.03 L 180.81 91.03 L 184.95 91.03 L 189.09 91.03 L 193.23 91.03 L 197.37 91.03 L 201.52 91.03 L 205.66 91.03 L 209.80 91.03 L 213.94 91.03 L 218.08 91.03 L 222.22 90.94 L 226.36 91.03 L 230.51 90.94 L 234.65 90.94 L 238.79 90.94 L 242.93 90.94 L 247.07 90.94 L 251.21 90.94 L 255.35 90.94 L 259.49 90.94 L 263.64 90.94 L 267.78 90.94 L 271.92 90.94 L 276.06 90.94 L 280.20 90.94 L 284.34 90.94 L 288.48 90.94 L 292.63 90.94 L 296.77 90.94 L 300.91 90.94 L 305.05 90.94 L 309.19 90.94 L 313.33 90.94 L 317.47 90.94 L 321.62 90.94 L 325.76 90.94 L 329.90 90.94 L 334.04 123.79 L 338.18 123.79 L 342.32 123.79 L 346.46 123.79 L 350.61 123.79 L 354.75 123.79 L 358.89 123.79 L 363.03 123.79 L 367.17 123.79 L 371.31 123.79 L 375.45 123.79 L 379.60 123.79 L 383.74 123.79 L 387.88 123.79 L 392.02 123.79 L 396.16 123.79 L 400.30 123.79 L 404.44 123.79 L 408.59 123.79 L 412.73 123.79 L 416.87 123.79 L 421.01 123.79 L 425.15 123.79 L 429.29 123.79 L 433.43 123.79 L 437.58 123.79 L 441.72 123.79 L 445.86 123.79 L 450.00 123.79 L 454.14 123.79 L 458.28 123.79 L 462.42 123.79 L 466.57 123.79 L 470.71 123.79 L 474.85 123.79 L 478.99 123.79 L 483.13 123.79 L 487.27 123.79 L 491.41 123.79 L 495.56 123.79 L 499.70 123.79 L 503.84 123.79 L 507.98 123.79 L 512.12 123.79 L 516.26 123.79 L 520.40 123.79 L 524.55 123.79 L 528.69 123.79 L 532.83 123.79 L 536.97 123.79 L 541.11 123.79 L 545.25 123.79 L 549.39 123.79 L 553.54 123.79 L 557.68 123.79 L 561.82 123.79 L 565.96 123.79 L 570.10 123.79 L 574.24 123.79 L 578.38 123.79 L 582.53 123.79 L 586.67 123.79 L 590.81 123.79 L 594.95 123.79 L 599.09 123.79 L 603.23 123.79 L 607.37 123.79 L 611.52 123.79 L 615.66 123.79 L 619.80 123.79 L 623.94 123.79 L 628.08 123.79 L 632.22 123.79 L 636.36 123.79 L 640.51 123.79 L 644.65 123.79 L 648.79 123.79 L 652.93 115.42 L 657.07 111.64 L 661.21 107.86 L 665.35 104.08 L 669.49 100.30 L 673.64 95.98 L 677.78 95.98 L 681.92 95.98 L 686.06 95.98 L 690.20 85.72 L 694.34 85.72 L 698.48 85.72 L 702.63 85.72 L 706.77 85.72 L 710.91 85.72 L 715.05 85.72 L 719.19 85.72 L 723.33 85.72 L 727.47 85.72 L 731.62 85.72 L 735.76 85.72 L 739.90 85.72 L 744.04 85.72 L 748.18 85.72 L 752.32 85.72 L 756.46 85.72 L 760.61 85.72 L 764.75 85.72 L 768.89 85.72 L 773.03 85.72 L 777.17 85.72 L 781.31 85.72 L 785.45 85.72 L 789.60 85.72 L 793.74 85.72 L 797.88 85.72 L 802.02 85.72 L 806.16 85.72 L 810.30 85.72 L 814.44 85.72 L 818.59 85.72 L 822.73 85.72 L 826.87 85.72 L 831.01 85.72 L 835.15 85.72 L 839.29 85.72 L 843.43 85.72 L 847.58 85.72 L 851.72 85.72 L 855.86 85.72 L 860.00 85.72" fill="none" stroke="#111827" stroke-width="2"/>
    <circle cx="860.00" cy="85.72" r="3" fill="#111827"/>
    <text x="40.00" y="235.00" font-size="9" fill="#111827" text-anchor="middle" transform="rotate(-45 40.00 235.00)">09.08.2025</text><text x="118.69" y="235.00" font-size="9" fill="#111827" text-anchor="middle" transform="rotate(-45 118.69 235.00)">13.08.2025</text><text x="197.37" y="235.00" font-size="9" fill="#111827" text-anchor="middle" transform="rotate(-45 197.37 235.00)">24.08.2025</text><text x="276.06" y="235.00" font-size="9" fill="#111827" text-anchor="middle" transform="rotate(-45 276.06 235.00)">07.09.2025</text><text x="354.75" y="235.00" font-size="9" fill="#111827" text-anchor="middle" transform="rotate(-45 354.75 235.00)">24.09.2025</text><text x="433.43" y="235.00" font-size="9" fill="#111827" text-anchor="middle" transform="rotate(-45 433.43 235.00)">13.10.2025</text><text x="512.12" y="235.00" font-size="9" fill="#111827" text-anchor="middle" transform="rotate(-45 512.12 235.00)">01.11.2025</text><text x="590.81" y="235.00" font-size="9" fill="#111827" text-anchor="middle" transform="rotate(-45 590.81 235.00)">20.11.2025</text><text x="669.49" y="235.00" font-size="9" fill="#111827" text-anchor="middle" transform="rotate(-45 669.49 235.00)">04.12.2025</text><text x="748.18" y="235.00" font-size="9" fill="#111827" text-anchor="middle" transform="rotate(-45 748.18 235.00)">21.12.2025</text><text x="826.87" y="235.00" font-size="9" fill="#111827" text-anchor="middle" transform="rotate(-45 826.87 235.00)">09.01.2026</text>
  </g>
</svg>