<svg xmlns="http://www.w3.org/2000/svg" width="900" height="290" style="font-family: -apple-system, BlinkMacSystemFont, 'Segoe UI', Helvetica, Arial, sans-serif;">
  <rect width="100%" height="100%" fill="white"/>
  <g>
    <line x1="40" y1="220.00" x2="860" y2="220.00" stroke="#e5e7eb"/><text x="32" y="224.00" font-size="10" fill="#111827" text-anchor="end">0</text><line x1="40" y1="175.00" x2="860" y2="175.00" stroke="#e5e7eb"/><text x="32" y="179.00" font-size="10" fill="#111827" text-anchor="end">500</text><line x1="40" y1="130.00" x2="860" y2="130.00" stroke="#e5e7eb"/><text x="32" y="134.00" font-size="10" fill="#111827" text-anchor="end">1k</text><line x1="40" y1="85.00" x2="860" y2="85.00" stroke="#e5e7eb"/><text x="32" y="89.00" font-size="10" fill="#111827" text-anchor="end">1.5k</text><line x1="40" y1="40.00" x2="860" y2="40.00" stroke="#e5e7eb"/><text x="32" y="44.00" font-size="10" fill="#111827" text-anchor="end">2k</text>
    <line x1="40.00" y1="40" x2="40.00" y2="220" stroke="#e5e7eb" opacity="0.5"/><line x1="119.82" y1="40" x2="119.82" y2="220" stroke="#e5e7eb" opacity="0.5"/><line x1="199.65" y1="40" x2="199.65" y2="220" stroke="#e5e7eb" opacity="0.5"/><line x1="279.47" y1="40" x2="279.47" y2="220" stroke="#e5e7eb" opacity="0.5"/><line x1="359.29" y1="40" x2="359.29" y2="220" stroke="#e5e7eb" opacity="0.5"/><line x1="439.12" y1="40" x2="439.12" y2="220" stroke="#e5e7eb" opacity="0.5"/><line x1="518.94" y1="40" x2="518.94" y2="220" stroke="#e5e7eb" opacity="0.5"/><line x1="598.76" y1="40" x2="598.76" y2="220" stroke="#e5e7eb" opacity="0.5"/><line x1="678.58" y1="40" x2="678.58" y2="220" stroke="#e5e7eb" opacity="0.5"/><line x1="758.41" y1="40" x2="758.41" y2="220" stroke="#e5e7eb" opacity="0.5"/><line x1="838.23" y1="40" x2="838.23" y2="220" stroke="#e5e7eb" opacity="0.5"/>
    <line x1="40" y1="220" x2="860" y2="220" stroke="#9ca3af"/>
    <line x1="40" y1="40"   x2="40"   y2="220" stroke="#9ca3af"/>
    <path d="M 40.00 219.82 L 43.63 211.81 L 47.26 211.81 L 50.88 211.81 L 54.51 171.85 L 58.14 171.58 L 61.77 164.38 L 65.40 118.93 L 69.03 119.11 L 72.65 111.10 L 76.28 110.56 L 79.91 110.56 L 83.54 110.56 L 87.17 95.35 L 90.80 95.35 L 94.42 95.35 L 98.05 94.63 L 101.68 94.54 L 105.31 94.45 L 108.94 94.09 L 112.57 94.09 L 116.19 94.09 L 119.82 94.09 L 123.45 94.09 L 127.08 94.09 L 130.71 94.09 L 134.34 94.09 L 137.96 94.09 L 141.59 91.84 L 145.22 83.65 L 148.85 83.65 L 152.48 83.47 L 156.11 83.65 L 159.73 91.03 L 163.36 91.03 L 166.99 91.03 L 170.62 91.03 L 174.25 91.03 L 177.88 91.03 L 181.50 91.03 L 185.13 91.03 L 188.76 91.03 L 192.39 91.03 L 196.02 91.03 L 199.65 90.94 L 203.27 91.03 L 206.90 90.94 L 210.53 90.94 L 214.16 90.94 L 217.79 90.94 L 221.42 90.94 L 225.04 90.94 L 228.67 90.94 L 232.30 90.94 L 235.93 90.94 L 239.56 90.94 L 243.19 90.94 L 246.81 90.94 L 250.44 90.94 L 254.07 90.94 L 257.70 90.94 L 261.33 90.94 L 264.96 90.94 L 268.58 90.94 L 272.21 90.94 L 275.84 90.94 L 279.47 90.94 L 283.10 90.94 L 286.73 90.94 L 290.35 90.94 L 293.98 90.94 L 297.61 123.79 L 301.24 123.79 L 304.87 123.79 L 308.50 123.79 L 312.12 123.79 L 315.75 123.79 L 319.38 123.79 L 323.01 123.79 L 326.64 123.79 L 330.27 123.79 L 333.89 123.79 L 337.52 123.79 L 341.15 123.79 L 344.78 123.79 L 348.41 123.79 L 352.04 123.79 L 355.66 123.79 L 359.29 123.79 L 362.92 123.79 L 366.55 123.79 L 370.18 123.79 L 373.81 123.79 L 377.43 123.79 L 381.06 123.79 L 384.69 123.79 L 388.32 123.79 L 391.95 123.79 L 395.58 123.79 L 399.20 123.79 L 402.83 123.79 L 406.46 123.79 L 410.09 123.79 L 413.72 123.79 L 417.35 123.79 L 420.97 123.79 L 424.60 123.79 L 428.23 123.79 L 431.86 123.79 L 435.49 123.79 L 439.12 123.79 L 442.74 123.79 L 446.37 123.79 L 450.00 123.79 L 453.63 123.79 L 457.26 123.79 L 460.88 123.79 L 464.51 123.79 L 468.14 123.79 L 471.77 123.79 L 475.40 123.79 L 479.03 123.79 L 482.65 123.79 L 486.28 123.79 L 489.91 123.79 L 493.54 123.79 L 497.17 123.79 L 500.80 123.79 L 504.42 123.79 L 508.05 123.79 L 511.68 123.79 L 515.31 123.79 L 518.94 123.79 L 522.57 123.79 L 526.19 123.79 L 529.82 123.79 L 533.45 123.79 L 537.08 123.79 L 540.71 123.79 L 544.34 123.79 L 547.96 123.79 L 551.59 123.79 L 555.22 123.79 L 558.85 123.79 L 562.48 123.79 L 566.11 123.79 L 569.73 123.79 L 573.36 123.79 L 576.99 115.42 L 580.62 111.64 L 584.25 107.86 L 587.88 104.08 L 591.50 100.30 L 595.13 95.98 L 598.76 95.98 L 602.39 95.98 L 606.02 95.98 L 609.65 85.72 L 613.27 85.72 L 616.90 85.72 L 620.53 85.72 L 624.16 85.72 L 627.79 85.72 L 631.42 85.72 L 635.04 85.72 L 638.67 85.72 L 642.30 85.72 L 645.93 85.72 L 649.56 85.72 L 653.19 85.72 L 656.81 85.72 L 660.44 85.72 L 664.07 85.72 L 667.70 85.72 L 671.33 85.72 L 674.96 85.72 L 678.58 85.72 L 682.21 85.72 L 685.84 85.72 L 689.47 85.72 L 693.10 85.72 L 696.73 85.72 L 700.35 85.72 L 703.98 85.72 L 707.61 85.72 L 711.24 85.72 L 714.87 85.72 L 718.50 85.72 L 722.12 85.72 L 725.75 85.72 L 729.38 85.72 L 733.01 85.72 L 736.64 85.72 L 740.27 85.72 L 743.89 85.72 L 747.52 85.72 L 751.15 85.72 L 754.78 85.72 L 758.41 85.72 L 762.04 85.72 L 765.66 85.72 L 769.29 85.72 L 772.92 85.72 L 776.55 85.72 L 780.18 85.72 L 783.81 85.72 L 787.43 85.72 L 791.06 85.72 L 794.69 85.72 L 798.32 85.72 L 801.95 85.72 L 805.58 85.72 L 809.20 85.72 L 812.83 85.72 L 816.46 85.72 L 820.09 85.72 L 823.72 85.72 L 827.35 85.72 L 830.97 85.72 L 834.60 85.72 L 838.23 85.72 L 841.86 85.72 L 845.49 85.72 L 849.12 85.72 L 852.74 85.72 L 856.37 85.72 L 860.00 85.72" fill="none" stroke="#111827" stroke-width="2"/>
    <circle cx="860.00" cy="85.72" r="3" fill="#111827"/>
    <text x="40.00" y="235.00" font-size="9" fill="#111827" text-anchor="middle" transform="rotate(-45 40.00 235.00)">09.08.2025</text><text x="119.82" y="235.00" font-size="9" fill="#111827" text-anchor="middle" transform="rotate(-45 119.82 235.00)">16.08.2025</text><text x="199.65" y="235.00" font-size="9" fill="#111827" text-anchor="middle" transform="rotate(-45 199.65 235.00)">28.08.2025</text><text x="279.47" y="235.00" font-size="9" fill="#111827" text-anchor="middle" transform="rotate(-45 279.47 235.00)">16.09.2025</text><text x="359.29" y="235.00" font-size="9" fill="#111827" text-anchor="middle" transform="rotate(-45 359.29 235.00)">06.10.2025</text><text x="439.12" y="235.00" font-size="9" fill="#111827" text-anchor="middle" transform="rotate(-45 439.12 235.00)">28.10.2025</text><text x="518.94" y="235.00" font-size="9" fill="#111827" text-anchor="middle" transform="rotate(-45 518.94 235.00)">19.11.2025</text><text x="598.76" y="235.00" font-size="9" fill="#111827" text-anchor="middle" transform="rotate(-45 598.76 235.00)">05.12.2025</text><text x="678.58" y="235.00" font-size="9" fill="#111827" text-anchor="middle" transform="rotate(-45 678.58 235.00)">26.12.2025</text><text x="758.41" y="235.00" font-size="9" fill="#111827" text-anchor="middle" transform="rotate(-45 758.41 235.00)">17.01.2026</text><text x="838.23" y="235.00" font-size="9" fill="#111827" text-anchor="middle" transform="rotate(-45 838.23 235.00)">08.02.2026</text>
  </g>
</svg>