<svg xmlns="http://www.w3.org/2000/svg" width="900" height="290" style="font-family: -apple-system, BlinkMacSystemFont, 'Segoe UI', Helvetica, Arial, sans-serif;">
  <rect width="100%" height="100%" fill="white"/>
  <g>
    <line x1="40" y1="220.00" x2="860" y2="220.00" stroke="#e5e7eb"/><text x="32" y="224.00" font-size="10" fill="#111827" text-anchor="end">0</text><line x1="40" y1="175.00" x2="860" y2="175.00" stroke="#e5e7eb"/><text x="32" y="179.00" font-size="10" fill="#111827" text-anchor="end">500</text><line x1="40" y1="130.00" x2="860" y2="130.00" stroke="#e5e7eb"/><text x="32" y="134.00" font-size="10" fill="#111827" text-anchor="end">1k</text><line x1="40" y1="85.00" x2="860" y2="85.00" stroke="#e5e7eb"/><text x="32" y="89.00" font-size="10" fill="#111827" text-anchor="end">1.5k</text><line x1="40" y1="40.00" x2="860" y2="40.00" stroke="#e5e7eb"/><text x="32" y="44.00" font-size="10" fill="#111827" text-anchor="end">2k</text>
    <line x1="40.00" y1="40" x2="40.00" y2="220" stroke="#e5e7eb" opacity="0.5"/><line x1="117.48" y1="40" x2="117.48" y2="220" stroke="#e5e7eb" opacity="0.5"/><line x1="194.96" y1="40" x2="194.96" y2="220" stroke="#e5e7eb" opacity="0.5"/><line x1="272.44" y1="40" x2="272.44" y2="220" stroke="#e5e7eb" opacity="0.5"/><line x1="349.92" y1="40" x2="349.92" y2="220" stroke="#e5e7eb" opacity="0.5"/><line x1="427.40" y1="40" x2="427.40" y2="220" stroke="#e5e7eb" opacity="0.5"/><line x1="504.88" y1="40" x2="504.88" y2="220" stroke="#e5e7eb" opacity="0.5"/><line x1="582.36" y1="40" x2="582.36" y2="220" stroke="#e5e7eb" opacity="0.5"/><line x1="659.84" y1="40" x2="659.84" y2="220" stroke="#e5e7eb" opacity="0.5"/><line x1="737.32" y1="40" x2="737.32" y2="220" stroke="#e5e7eb" opacity="0.5"/><line x1="814.80" y1="40" x2="814.80" y2="220" stroke="#e5e7eb" opacity="0.5"/>
    <line x1="40" y1="220" x2="860" y2="220" stroke="#9ca3af"/>
    <line x1="40" y1="40"   x2="40"   y2="220" stroke="#9ca3af"/>
    <path d="M 40.00 219.82 L 46.46 211.81 L 52.91 211.81 L 59.37 211.81 L 65.83 171.85 L 72.28 171.58 L 78.74 164.38 L 85.20 118.93 L 91.65 119.11 L 98.11 111.10 L 104.57 110.56 L 111.02 110.56 L 117.48 110.56 L 123.94 95.35 L 130.39 95.35 L 136.85 95.35 L 143.31 94.63 L 149.76 94.54 L 156.22 94.45 L 162.68 94.09 L 169.13 94.09 L 175.59 94.09 L 182.05 94.09 L 188.50 94.09 L 194.96 94.09 L 201.42 94.09 L 207.87 94.09 L 214.33 94.09 L 220.79 91.84 L 227.24 83.65 L 233.70 83.65 L 240.16 83.47 L 246.61 83.65 L 253.07 91.03 L 259.53 91.03 L 265.98 91.03 L 272.44 91.03 L 278.90 91.03 L 285.35 91.03 L 291.81 91.03 L 298.27 91.03 L 304.72 91.03 L 311.18 91.03 L 317.64 91.03 L 324.09 90.94 L 330.55 91.03 L 337.01 90.94 L 343.46 90.94 L 349.92 90.94 L 356.38 90.94 L 362.83 90.94 L 369.29 90.94 L 375.75 90.94 L 382.20 90.94 L 388.66 90.94 L 395.12 90.94 L 401.57 90.94 L 408.03 90.94 L 414.49 90.94 L 420.94 90.94 L 427.40 90.94 L 433.86 90.94 L 440.31 90.94 L 446.77 90.94 L 453.23 90.94 L 459.69 90.94 L 466.14 90.94 L 472.60 90.94 L 479.06 90.94 L 485.51 90.94 L 491.97 90.94 L 498.43 123.79 L 504.88 123.79 L 511.34 123.79 L 517.80 123.79 L 524.25 123.79 L 530.71 123.79 L 537.17 123.79 L 543.62 123.79 L 550.08 123.79 L 556.54 123.79 L 562.99 123.79 L 569.45 123.79 L 575.91 123.79 L 582.36 123.79 L 588.82 123.79 L 595.28 123.79 L 601.73 123.79 L 608.19 123.79 L 614.65 123.79 L 621.10 123.79 L 627.56 123.79 L 634.02 123.79 L 640.47 123.79 L 646.93 123.79 L 653.39 123.79 L 659.84 123.79 L 666.30 123.79 L 672.76 123.79 L 679.21 123.79 L 685.67 123.79 L 692.13 123.79 L 698.58 123.79 L 705.04 123.79 L 711.50 123.79 L 717.95 123.79 L 724.41 123.79 L 730.87 123.79 L 737.32 123.79 L 743.78 123.79 L 750.24 123.79 L 756.69 123.79 L 763.15 123.79 L 769.61 123.79 L 776.06 123.79 L 782.52 123.79 L 788.98 123.79 L 795.43 123.79 L 801.89 123.79 L 808.35 123.79 L 814.80 123.79 L 821.26 123.79 L 827.72 123.79 L 834.17 123.79 L 840.63 123.79 L 847.09 123.79 L 853.54 123.79 L 860.00 123.79" fill="none" stroke="#111827" stroke-width="2"/>
    <circle cx="860.00" cy="123.79" r="3" fill="#111827"/>
    <text x="40.00" y="235.00" font-size="9" fill="#111827" text-anchor="middle" transform="rotate(-45 40.00 235.00)">09.08.2025</text><text x="117.48" y="235.00" font-size="9" fill="#111827" text-anchor="middle" transform="rotate(-45 117.48 235.00)">13.08.2025</text><text x="194.96" y="235.00" font-size="9" fill="#111827" text-anchor="middle" transform="rotate(-45 194.96 235.00)">18.08.2025</text><text x="272.44" y="235.00" font-size="9" fill="#111827" text-anchor="middle" transform="rotate(-45 272.44 235.00)">22.08.2025</text><text x="349.92" y="235.00" font-size="9" fill="#111827" text-anchor="middle" transform="rotate(-45 349.92 235.00)">29.08.2025</text><text x="427.40" y="235.00" font-size="9" fill="#111827" text-anchor="middle" transform="rotate(-45 427.40 235.00)">10.09.2025</text><text x="504.88" y="235.00" font-size="9" fill="#111827" text-anchor="middle" transform="rotate(-45 504.88 235.00)">21.09.2025</text><text x="582.36" y="235.00" font-size="9" fill="#111827" text-anchor="middle" transform="rotate(-45 582.36 235.00)">02.10.2025</text><text x="659.84" y="235.00" font-size="9" fill="#111827" text-anchor="middle" transform="rotate(-45 659.84 235.00)">14.10.2025</text><text x="737.32" y="235.00" font-size="9" fill="#111827" text-anchor="middle" transform="rotate(-45 737.32 235.00)">26.10.2025</text><text x="814.80" y="235.00" font-size="9" fill="#111827" text-anchor="middle" transform="rotate(-45 814.80 235.00)">07.11.2025</text>
  </g>
</svg>