<svg xmlns="http://www.w3.org/2000/svg" width="900" height="290" style="font-family: -apple-system, BlinkMacSystemFont, 'Segoe UI', Helvetica, Arial, sans-serif;">
  <rect width="100%" height="100%" fill="#0d1117"/>
  <g>
    <line x1="40" y1="220.00" x2="860" y2="220.00" stroke="#30363d"/><text x="32" y="224.00" font-size="10" fill="#c9d1d9" text-anchor="end">0</text><line x1="40" y1="175.00" x2="860" y2="175.00" stroke="#30363d"/><text x="32" y="179.00" font-size="10" fill="#c9d1d9" text-anchor="end">500</text><line x1="40" y1="130.00" x2="860" y2="130.00" stroke="#30363d"/><text x="32" y="134.00" font-size="10" fill="#c9d1d9" text-anchor="end">1k</text><line x1="40" y1="85.00" x2="860" y2="85.00" stroke="#30363d"/><text x="32" y="89.00" font-size="10" fill="#c9d1d9" text-anchor="end">1.5k</text><line x1="40" y1="40.00" x2="860" y2="40.00" stroke="#30363d"/><text x="32" y="44.00" font-size="10" fill="#c9d1d9" text-anchor="end">2k</text>
    <line x1="40.00" y1="40" x2="40.00" y2="220" stroke="#30363d" opacity="0.5"/><line x1="122.64" y1="40" x2="122.64" y2="220" stroke="#30363d" opacity="0.5"/><line x1="205.27" y1="40" x2="205.27" y2="220" stroke="#30363d" opacity="0.5"/><line x1="287.91" y1="40" x2="287.91" y2="220" stroke="#30363d" opacity="0.5"/><line x1="370.54" y1="40" x2="370.54" y2="220" stroke="#30363d" opacity="0.5"/><line x1="453.18" y1="40" x2="453.18" y2="220" stroke="#30363d" opacity="0.5"/><line x1="535.81" y1="40" x2="535.81" y2="220" stroke="#30363d" opacity="0.5"/><line x1="618.45" y1="40" x2="618.45" y2="220" stroke="#30363d" opacity="0.5"/><line x1="701.09" y1="40" x2="701.09" y2="220" stroke="#30363d" opacity="0.5"/><line x1="783.72" y1="40" x2="783.72" y2="220" stroke="#30363d" opacity="0.5"/>
    <line x1="40" y1="220" x2="860" y2="220" stroke="#30363d"/>
    <line x1="40" y1="40"   x2="40"   y2="220" stroke="#30363d"/>
    <path d="M 40.00 219.82 L 46.36 211.81 L 52.71 211.81 L 59.07 211.81 L 65.43 171.85 L 71.78 171.58 L 78.14 164.38 L 84.50 118.93 L 90.85 119.11 L 97.21 111.10 L 103.57 110.56 L 109.92 110.56 L 116.28 110.56 L 122.64 95.35 L 128.99 95.35 L 135.35 95.35 L 141.71 94.63 L 148.06 94.54 L 154.42 94.45 L 160.78 94.09 L 167.13 94.09 L 173.49 94.09 L 179.84 94.09 L 186.20 94.09 L 192.56 94.09 L 198.91 94.09 L 205.27 94.09 L 211.63 94.09 L 217.98 91.84 L 224.34 83.65 L 230.70 83.65 L 237.05 83.47 L 243.41 83.65 L 249.77 91.03 L 256.12 91.03 L 262.48 91.03 L 268.84 91.03 L 275.19 91.03 L 281.55 91.03 L 287.91 91.03 L 294.26 91.03 L 300.62 91.03 L 306.98 91.03 L 313.33 91.03 L 319.69 90.94 L 326.05 91.03 L 332.40 90.94 L 338.76 90.94 L 345.12 90.94 L 351.47 90.94 L 357.83 90.94 L 364.19 90.94 L 370.54 90.94 L 376.90 90.94 L 383.26 90.94 L 389.61 90.94 L 395.97 90.94 L 402.33 90.94 L 408.68 90.94 L 415.04 90.94 L 421.40 90.94 L 427.75 90.94 L 434.11 90.94 L 440.47 90.94 L 446.82 90.94 L 453.18 90.94 L 459.53 90.94 L 465.89 90.94 L 472.25 90.94 L 478.60 90.94 L 484.96 90.94 L 491.32 123.79 L 497.67 123.79 L 504.03 123.79 L 510.39 123.79 L 516.74 123.79 L 523.10 123.79 L 529.46 123.79 L 535.81 123.79 L 542.17 123.79 L 548.53 123.79 L 554.88 123.79 L 561.24 123.79 L 567.60 123.79 L 573.95 123.79 L 580.31 123.79 L 586.67 123.79 L 593.02 123.79 L 599.38 123.79 L 605.74 123.79 L 612.09 123.79 L 618.45 123.79 L 624.81 123.79 L 631.16 123.79 L 637.52 123.79 L 643.88 123.79 L 650.23 123.79 L 656.59 123.79 L 662.95 123.79 L 669.30 123.79 L 675.66 123.79 L 682.02 123.79 L 688.37 123.79 L 694.73 123.79 L 701.09 123.79 L 707.44 123.79 L 713.80 123.79 L 720.16 123.79 L 726.51 123.79 L 732.87 123.79 L 739.22 123.79 L 745.58 123.79 L 751.94 123.79 L 758.29 123.79 L 764.65 123.79 L 771.01 123.79 L 777.36 123.79 L 783.72 123.79 L 790.08 123.79 L 796.43 123.79 L 802.79 123.79 L 809.15 123.79 L 815.50 123.79 L 821.86 123.79 L 828.22 123.79 L 834.57 123.79 L 840.93 123.79 L 847.29 123.79 L 853.64 123.79 L 860.00 123.79" fill="none" stroke="#3fb950" stroke-width="2"/>
    <circle cx="860.00" cy="123.79" r="3" fill="#3fb950"/>
    <text x="40.00" y="235.00" font-size="9" fill="#c9d1d9" text-anchor="middle" transform="rotate(-45 40.00 235.00)">09.08.2025</text><text x="122.64" y="235.00" font-size="9" fill="#c9d1d9" text-anchor="middle" transform="rotate(-45 122.64 235.00)">13.08.2025</text><text x="205.27" y="235.00" font-size="9" fill="#c9d1d9" text-anchor="middle" transform="rotate(-45 205.27 235.00)">20.08.2025</text><text x="287.91" y="235.00" font-size="9" fill="#c9d1d9" text-anchor="middle" transform="rotate(-45 287.91 235.00)">25.08.2025</text><text x="370.54" y="235.00" font-size="9" fill="#c9d1d9" text-anchor="middle" transform="rotate(-45 370.54 235.00)">02.09.2025</text><text x="453.18" y="235.00" font-size="9" fill="#c9d1d9" text-anchor="middle" transform="rotate(-45 453.18 235.00)">15.09.2025</text><text x="535.81" y="235.00" font-size="9" fill="#c9d1d9" text-anchor="middle" transform="rotate(-45 535.81 235.00)">26.09.2025</text><text x="618.45" y="235.00" font-size="9" fill="#c9d1d9" text-anchor="middle" transform="rotate(-45 618.45 235.00)">09.10.2025</text><text x="701.09" y="235.00" font-size="9" fill="#c9d1d9" text-anchor="middle" transform="rotate(-45 701.09 235.00)">22.10.2025</text><text x="783.72" y="235.00" font-size="9" fill="#c9d1d9" text-anchor="middle" transform="rotate(-45 783.72 235.00)">04.11.2025</text>
  </g>
</svg>