<svg xmlns="http://www.w3.org/2000/svg" width="900" height="290" style="font-family: -apple-system, BlinkMacSystemFont, 'Segoe UI', Helvetica, Arial, sans-serif;">
  <rect width="100%" height="100%" fill="white"/>
  <g>
    <line x1="40" y1="220.00" x2="860" y2="220.00" stroke="#e5e7eb"/><text x="32" y="224.00" font-size="10" fill="#111827" text-anchor="end">0</text><line x1="40" y1="175.00" x2="860" y2="175.00" stroke="#e5e7eb"/><text x="32" y="179.00" font-size="10" fill="#111827" text-anchor="end">500</text><line x1="40" y1="130.00" x2="860" y2="130.00" stroke="#e5e7eb"/><text x="32" y="134.00" font-size="10" fill="#111827" text-anchor="end">1k</text><line x1="40" y1="85.00" x2="860" y2="85.00" stroke="#e5e7eb"/><text x="32" y="89.00" font-size="10" fill="#111827" text-anchor="end">1.5k</text><line x1="40" y1="40.00" x2="860" y2="40.00" stroke="#e5e7eb"/><text x="32" y="44.00" font-size="10" fill="#111827" text-anchor="end">2k</text>
    <line x1="40.00" y1="40" x2="40.00" y2="220" stroke="#e5e7eb" opacity="0.5"/><line x1="122.00" y1="40" x2="122.00" y2="220" stroke="#e5e7eb" opacity="0.5"/><line x1="204.00" y1="40" x2="204.00" y2="220" stroke="#e5e7eb" opacity="0.5"/><line x1="286.00" y1="40" x2="286.00" y2="220" stroke="#e5e7eb" opacity="0.5"/><line x1="368.00" y1="40" x2="368.00" y2="220" stroke="#e5e7eb" opacity="0.5"/><line x1="450.00" y1="40" x2="450.00" y2="220" stroke="#e5e7eb" opacity="0.5"/><line x1="532.00" y1="40" x2="532.00" y2="220" stroke="#e5e7eb" opacity="0.5"/><line x1="614.00" y1="40" x2="614.00" y2="220" stroke="#e5e7eb" opacity="0.5"/><line x1="696.00" y1="40" x2="696.00" y2="220" stroke="#e5e7eb" opacity="0.5"/><line x1="778.00" y1="40" x2="778.00" y2="220" stroke="#e5e7eb" opacity="0.5"/><line x1="860.00" y1="40" x2="860.00" y2="220" stroke="#e5e7eb" opacity="0.5"/>
    <line x1="40" y1="220" x2="860" y2="220" stroke="#9ca3af"/>
    <line x1="40" y1="40"   x2="40"   y2="220" stroke="#9ca3af"/>
    <path d="M 40.00 219.82 L 47.45 211.81 L 54.91 211.81 L 62.36 211.81 L 69.82 171.85 L 77.27 171.58 L 84.73 164.38 L 92.18 118.93 L 99.64 119.11 L 107.09 111.10 L 114.55 110.56 L 122.00 110.56 L 129.45 110.56 L 136.91 95.35 L 144.36 95.35 L 151.82 95.35 L 159.27 94.63 L 166.73 94.54 L 174.18 94.45 L 181.64 94.09 L 189.09 94.09 L 196.55 94.09 L 204.00 94.09 L 211.45 94.09 L 218.91 94.09 L 226.36 94.09 L 233.82 94.09 L 241.27 94.09 L 248.73 91.84 L 256.18 83.65 L 263.64 83.65 L 271.09 83.47 L 278.55 83.65 L 286.00 91.03 L 293.45 91.03 L 300.91 91.03 L 308.36 91.03 L 315.82 91.03 L 323.27 91.03 L 330.73 91.03 L 338.18 91.03 L 345.64 91.03 L 353.09 91.03 L 360.55 91.03 L 368.00 90.94 L 375.45 91.03 L 382.91 90.94 L 390.36 90.94 L 397.82 90.94 L 405.27 90.94 L 412.73 90.94 L 420.18 90.94 L 427.64 90.94 L 435.09 90.94 L 442.55 90.94 L 450.00 90.94 L 457.45 90.94 L 464.91 90.94 L 472.36 90.94 L 479.82 90.94 L 487.27 90.94 L 494.73 90.94 L 502.18 90.94 L 509.64 90.94 L 517.09 90.94 L 524.55 90.94 L 532.00 90.94 L 539.45 90.94 L 546.91 90.94 L 554.36 90.94 L 561.82 90.94 L 569.27 123.79 L 576.73 123.79 L 584.18 123.79 L 591.64 123.79 L 599.09 123.79 L 606.55 123.79 L 614.00 123.79 L 621.45 123.79 L 628.91 123.79 L 636.36 123.79 L 643.82 123.79 L 651.27 123.79 L 658.73 123.79 L 666.18 123.79 L 673.64 123.79 L 681.09 123.79 L 688.55 123.79 L 696.00 123.79 L 703.45 123.79 L 710.91 123.79 L 718.36 123.79 L 725.82 123.79 L 733.27 123.79 L 740.73 123.79 L 748.18 123.79 L 755.64 123.79 L 763.09 123.79 L 770.55 123.79 L 778.00 123.79 L 785.45 123.79 L 792.91 123.79 L 800.36 123.79 L 807.82 123.79 L 815.27 123.79 L 822.73 123.79 L 830.18 123.79 L 837.64 123.79 L 845.09 123.79 L 852.55 123.79 L 860.00 123.79" fill="none" stroke="#111827" stroke-width="2"/>
    <circle cx="860.00" cy="123.79" r="3" fill="#111827"/>
    <text x="40.00" y="235.00" font-size="9" fill="#111827" text-anchor="middle" transform="rotate(-45 40.00 235.00)">09.08.2025</text><text x="122.00" y="235.00" font-size="9" fill="#111827" text-anchor="middle" transform="rotate(-45 122.00 235.00)">13.08.2025</text><text x="204.00" y="235.00" font-size="9" fill="#111827" text-anchor="middle" transform="rotate(-45 204.00 235.00)">16.08.2025</text><text x="286.00" y="235.00" font-size="9" fill="#111827" text-anchor="middle" transform="rotate(-45 286.00 235.00)">21.08.2025</text><text x="368.00" y="235.00" font-size="9" fill="#111827" text-anchor="middle" transform="rotate(-45 368.00 235.00)">28.08.2025</text><text x="450.00" y="235.00" font-size="9" fill="#111827" text-anchor="middle" transform="rotate(-45 450.00 235.00)">05.09.2025</text><text x="532.00" y="235.00" font-size="9" fill="#111827" text-anchor="middle" transform="rotate(-45 532.00 235.00)">16.09.2025</text><text x="614.00" y="235.00" font-size="9" fill="#111827" text-anchor="middle" transform="rotate(-45 614.00 235.00)">25.09.2025</text><text x="696.00" y="235.00" font-size="9" fill="#111827" text-anchor="middle" transform="rotate(-45 696.00 235.00)">06.10.2025</text><text x="778.00" y="235.00" font-size="9" fill="#111827" text-anchor="middle" transform="rotate(-45 778.00 235.00)">17.10.2025</text><text x="860.00" y="235.00" font-size="9" fill="#111827" text-anchor="middle" transform="rotate(-45 860.00 235.00)">28.10.2025</text>
  </g>
</svg>