<svg xmlns="http://www.w3.org/2000/svg" width="900" height="290" style="font-family: -apple-system, BlinkMacSystemFont, 'Segoe UI', Helvetica, Arial, sans-serif;">
  <rect width="100%" height="100%" fill="#0d1117"/>
  <g>
    <line x1="40" y1="220.00" x2="860" y2="220.00" stroke="#30363d"/><text x="32" y="224.00" font-size="10" fill="#c9d1d9" text-anchor="end">0</text><line x1="40" y1="175.00" x2="860" y2="175.00" stroke="#30363d"/><text x="32" y="179.00" font-size="10" fill="#c9d1d9" text-anchor="end">500</text><line x1="40" y1="130.00" x2="860" y2="130.00" stroke="#30363d"/><text x="32" y="134.00" font-size="10" fill="#c9d1d9" text-anchor="end">1k</text><line x1="40" y1="85.00" x2="860" y2="85.00" stroke="#30363d"/><text x="32" y="89.00" font-size="10" fill="#c9d1d9" text-anchor="end">1.5k</text><line x1="40" y1="40.00" x2="860" y2="40.00" stroke="#30363d"/><text x="32" y="44.00" font-size="10" fill="#c9d1d9" text-anchor="end">2k</text>
    <line x1="40.00" y1="40" x2="40.00" y2="220" stroke="#30363d" opacity="0.5"/><line x1="118.63" y1="40" x2="118.63" y2="220" stroke="#30363d" opacity="0.5"/><line x1="197.26" y1="40" x2="197.26" y2="220" stroke="#30363d" opacity="0.5"/><line x1="275.89" y1="40" x2="275.89" y2="220" stroke="#30363d" opacity="0.5"/><line x1="354.52" y1="40" x2="354.52" y2="220" stroke="#30363d" opacity="0.5"/><line x1="433.15" y1="40" x2="433.15" y2="220" stroke="#30363d" opacity="0.5"/><line x1="511.78" y1="40" x2="511.78" y2="220" stroke="#30363d" opacity="0.5"/><line x1="590.41" y1="40" x2="590.41" y2="220" stroke="#30363d" opacity="0.5"/><line x1="669.04" y1="40" x2="669.04" y2="220" stroke="#30363d" opacity="0.5"/><line x1="747.67" y1="40" x2="747.67" y2="220" stroke="#30363d" opacity="0.5"/><line x1="826.30" y1="40" x2="826.30" y2="220" stroke="#30363d" opacity="0.5"/>
    <line x1="40" y1="220" x2="860" y2="220" stroke="#30363d"/>
    <line x1="40" y1="40"   x2="40"   y2="220" stroke="#30363d"/>
    <path d="M 40.00 219.82 L 45.62 211.81 L 51.23 211.81 L 56.85 211.81 L 62.47 171.85 L 68.08 171.58 L 73.70 164.38 L 79.32 118.93 L 84.93 119.11 L 90.55 111.10 L 96.16 110.56 L 101.78 110.56 L 107.40 110.56 L 113.01 95.35 L 118.63 95.35 L 124.25 95.35 L 129.86 94.63 L 135.48 94.54 L 141.10 94.45 L 146.71 94.09 L 152.33 94.09 L 157.95 94.09 L 163.56 94.09 L 169.18 94.09 L 174.79 94.09 L 180.41 94.09 L 186.03 94.09 L 191.64 94.09 L 197.26 91.84 L 202.88 83.65 L 208.49 83.65 L 214.11 83.47 L 219.73 83.65 L 225.34 91.03 L 230.96 91.03 L 236.58 91.03 L 242.19 91.03 L 247.81 91.03 L 253.42 91.03 L 259.04 91.03 L 264.66 91.03 L 270.27 91.03 L 275.89 91.03 L 281.51 91.03 L 287.12 90.94 L 292.74 91.03 L 298.36 90.94 L 303.97 90.94 L 309.59 90.94 L 315.21 90.94 L 320.82 90.94 L 326.44 90.94 L 332.05 90.94 L 337.67 90.94 L 343.29 90.94 L 348.90 90.94 L 354.52 90.94 L 360.14 90.94 L 365.75 90.94 L 371.37 90.94 L 376.99 90.94 L 382.60 90.94 L 388.22 90.94 L 393.84 90.94 L 399.45 90.94 L 405.07 90.94 L 410.68 90.94 L 416.30 90.94 L 421.92 90.94 L 427.53 90.94 L 433.15 90.94 L 438.77 123.79 L 444.38 123.79 L 450.00 123.79 L 455.62 123.79 L 461.23 123.79 L 466.85 123.79 L 472.47 123.79 L 478.08 123.79 L 483.70 123.79 L 489.32 123.79 L 494.93 123.79 L 500.55 123.79 L 506.16 123.79 L 511.78 123.79 L 517.40 123.79 L 523.01 123.79 L 528.63 123.79 L 534.25 123.79 L 539.86 123.79 L 545.48 123.79 L 551.10 123.79 L 556.71 123.79 L 562.33 123.79 L 567.95 123.79 L 573.56 123.79 L 579.18 123.79 L 584.79 123.79 L 590.41 123.79 L 596.03 123.79 L 601.64 123.79 L 607.26 123.79 L 612.88 123.79 L 618.49 123.79 L 624.11 123.79 L 629.73 123.79 L 635.34 123.79 L 640.96 123.79 L 646.58 123.79 L 652.19 123.79 L 657.81 123.79 L 663.42 123.79 L 669.04 123.79 L 674.66 123.79 L 680.27 123.79 L 685.89 123.79 L 691.51 123.79 L 697.12 123.79 L 702.74 123.79 L 708.36 123.79 L 713.97 123.79 L 719.59 123.79 L 725.21 123.79 L 730.82 123.79 L 736.44 123.79 L 742.05 123.79 L 747.67 123.79 L 753.29 123.79 L 758.90 123.79 L 764.52 123.79 L 770.14 123.79 L 775.75 123.79 L 781.37 123.79 L 786.99 123.79 L 792.60 123.79 L 798.22 123.79 L 803.84 123.79 L 809.45 123.79 L 815.07 123.79 L 820.68 123.79 L 826.30 123.79 L 831.92 123.79 L 837.53 123.79 L 843.15 123.79 L 848.77 123.79 L 854.38 123.79 L 860.00 123.79" fill="none" stroke="#3fb950" stroke-width="2"/>
    <circle cx="860.00" cy="123.79" r="3" fill="#3fb950"/>
    <text x="40.00" y="235.00" font-size="9" fill="#c9d1d9" text-anchor="middle" transform="rotate(-45 40.00 235.00)">09.08.2025</text><text x="118.63" y="235.00" font-size="9" fill="#c9d1d9" text-anchor="middle" transform="rotate(-45 118.63 235.00)">13.08.2025</text><text x="197.26" y="235.00" font-size="9" fill="#c9d1d9" text-anchor="middle" transform="rotate(-45 197.26 235.00)">21.08.2025</text><text x="275.89" y="235.00" font-size="9" fill="#c9d1d9" text-anchor="middle" transform="rotate(-45 275.89 235.00)">28.08.2025</text><text x="354.52" y="235.00" font-size="9" fill="#c9d1d9" text-anchor="middle" transform="rotate(-45 354.52 235.00)">06.09.2025</text><text x="433.15" y="235.00" font-size="9" fill="#c9d1d9" text-anchor="middle" transform="rotate(-45 433.15 235.00)">20.09.2025</text><text x="511.78" y="235.00" font-size="9" fill="#c9d1d9" text-anchor="middle" transform="rotate(-45 511.78 235.00)">02.10.2025</text><text x="590.41" y="235.00" font-size="9" fill="#c9d1d9" text-anchor="middle" transform="rotate(-45 590.41 235.00)">16.10.2025</text><text x="669.04" y="235.00" font-size="9" fill="#c9d1d9" text-anchor="middle" transform="rotate(-45 669.04 235.00)">30.10.2025</text><text x="747.67" y="235.00" font-size="9" fill="#c9d1d9" text-anchor="middle" transform="rotate(-45 747.67 235.00)">13.11.2025</text><text x="826.30" y="235.00" font-size="9" fill="#c9d1d9" text-anchor="middle" transform="rotate(-45 826.30 235.00)">27.11.2025</text>
  </g>
</svg>