<svg xmlns="http://www.w3.org/2000/svg" width="900" height="290" style="font-family: -apple-system, BlinkMacSystemFont, 'Segoe UI', Helvetica, Arial, sans-serif;">
  <rect width="100%" height="100%" fill="white"/>
  <g>
    <line x1="40" y1="220.00" x2="860" y2="220.00" stroke="#e5e7eb"/><text x="32" y="224.00" font-size="10" fill="#111827" text-anchor="end">0</text><line x1="40" y1="175.00" x2="860" y2="175.00" stroke="#e5e7eb"/><text x="32" y="179.00" font-size="10" fill="#111827" text-anchor="end">500</text><line x1="40" y1="130.00" x2="860" y2="130.00" stroke="#e5e7eb"/><text x="32" y="134.00" font-size="10" fill="#111827" text-anchor="end">1k</text><line x1="40" y1="85.00" x2="860" y2="85.00" stroke="#e5e7eb"/><text x="32" y="89.00" font-size="10" fill="#111827" text-anchor="end">1.5k</text><line x1="40" y1="40.00" x2="860" y2="40.00" stroke="#e5e7eb"/><text x="32" y="44.00" font-size="10" fill="#111827" text-anchor="end">2k</text>
    <line x1="40.00" y1="40" x2="40.00" y2="220" stroke="#e5e7eb" opacity="0.5"/><line x1="122.00" y1="40" x2="122.00" y2="220" stroke="#e5e7eb" opacity="0.5"/><line x1="204.00" y1="40" x2="204.00" y2="220" stroke="#e5e7eb" opacity="0.5"/><line x1="286.00" y1="40" x2="286.00" y2="220" stroke="#e5e7eb" opacity="0.5"/><line x1="368.00" y1="40" x2="368.00" y2="220" stroke="#e5e7eb" opacity="0.5"/><line x1="450.00" y1="40" x2="450.00" y2="220" stroke="#e5e7eb" opacity="0.5"/><line x1="532.00" y1="40" x2="532.00" y2="220" stroke="#e5e7eb" opacity="0.5"/><line x1="614.00" y1="40" x2="614.00" y2="220" stroke="#e5e7eb" opacity="0.5"/><line x1="696.00" y1="40" x2="696.00" y2="220" stroke="#e5e7eb" opacity="0.5"/><line x1="778.00" y1="40" x2="778.00" y2="220" stroke="#e5e7eb" opacity="0.5"/><line x1="860.00" y1="40" x2="860.00" y2="220" stroke="#e5e7eb" opacity="0.5"/>
    <line x1="40" y1="220" x2="860" y2="220" stroke="#9ca3af"/>
    <line x1="40" y1="40"   x2="40"   y2="220" stroke="#9ca3af"/>
    <path d="M 40.00 219.82 L 49.11 211.81 L 58.22 211.81 L 67.33 211.81 L 76.44 171.85 L 85.56 171.58 L 94.67 164.38 L 103.78 118.93 L 112.89 119.11 L 122.00 111.10 L 131.11 110.56 L 140.22 110.56 L 149.33 110.56 L 158.44 95.35 L 167.56 95.35 L 176.67 95.35 L 185.78 94.63 L 194.89 94.54 L 204.00 94.45 L 213.11 94.09 L 222.22 94.09 L 231.33 94.09 L 240.44 94.09 L 249.56 94.09 L 258.67 94.09 L 267.78 94.09 L 276.89 94.09 L 286.00 94.09 L 295.11 91.84 L 304.22 83.65 L 313.33 83.65 L 322.44 83.47 L 331.56 83.65 L 340.67 91.03 L 349.78 91.03 L 358.89 91.03 L 368.00 91.03 L 377.11 91.03 L 386.22 91.03 L 395.33 91.03 L 404.44 91.03 L 413.56 91.03 L 422.67 91.03 L 431.78 91.03 L 440.89 90.94 L 450.00 91.03 L 459.11 90.94 L 468.22 90.94 L 477.33 90.94 L 486.44 90.94 L 495.56 90.94 L 504.67 90.94 L 513.78 90.94 L 522.89 90.94 L 532.00 90.94 L 541.11 90.94 L 550.22 90.94 L 559.33 90.94 L 568.44 90.94 L 577.56 90.94 L 586.67 90.94 L 595.78 90.94 L 604.89 90.94 L 614.00 90.94 L 623.11 90.94 L 632.22 90.94 L 641.33 90.94 L 650.44 90.94 L 659.56 90.94 L 668.67 90.94 L 677.78 90.94 L 686.89 123.79 L 696.00 123.79 L 705.11 123.79 L 714.22 123.79 L 723.33 123.79 L 732.44 123.79 L 741.56 123.79 L 750.67 123.79 L 759.78 123.79 L 768.89 123.79 L 778.00 123.79 L 787.11 123.79 L 796.22 123.79 L 805.33 123.79 L 814.44 123.79 L 823.56 123.79 L 832.67 123.79 L 841.78 123.79 L 850.89 123.79 L 860.00 123.79" fill="none" stroke="#111827" stroke-width="2"/>
    <circle cx="860.00" cy="123.79" r="3" fill="#111827"/>
    <text x="40.00" y="235.00" font-size="9" fill="#111827" text-anchor="middle" transform="rotate(-45 40.00 235.00)">09.08.2025</text><text x="122.00" y="235.00" font-size="9" fill="#111827" text-anchor="middle" transform="rotate(-45 122.00 235.00)">13.08.2025</text><text x="204.00" y="235.00" font-size="9" fill="#111827" text-anchor="middle" transform="rotate(-45 204.00 235.00)">13.08.2025</text><text x="286.00" y="235.00" font-size="9" fill="#111827" text-anchor="middle" transform="rotate(-45 286.00 235.00)">21.08.2025</text><text x="368.00" y="235.00" font-size="9" fill="#111827" text-anchor="middle" transform="rotate(-45 368.00 235.00)">22.08.2025</text><text x="450.00" y="235.00" font-size="9" fill="#111827" text-anchor="middle" transform="rotate(-45 450.00 235.00)">28.08.2025</text><text x="532.00" y="235.00" font-size="9" fill="#111827" text-anchor="middle" transform="rotate(-45 532.00 235.00)">04.09.2025</text><text x="614.00" y="235.00" font-size="9" fill="#111827" text-anchor="middle" transform="rotate(-45 614.00 235.00)">13.09.2025</text><text x="696.00" y="235.00" font-size="9" fill="#111827" text-anchor="middle" transform="rotate(-45 696.00 235.00)">21.09.2025</text><text x="778.00" y="235.00" font-size="9" fill="#111827" text-anchor="middle" transform="rotate(-45 778.00 235.00)">29.09.2025</text><text x="860.00" y="235.00" font-size="9" fill="#111827" text-anchor="middle" transform="rotate(-45 860.00 235.00)">08.10.2025</text>
  </g>
</svg>