<svg xmlns="http://www.w3.org/2000/svg" width="900" height="290" style="font-family: -apple-system, BlinkMacSystemFont, 'Segoe UI', Helvetica, Arial, sans-serif;">
  <rect width="100%" height="100%" fill="#0d1117"/>
  <g>
    <line x1="40" y1="220.00" x2="860" y2="220.00" stroke="#30363d"/><text x="32" y="224.00" font-size="10" fill="#c9d1d9" text-anchor="end">0</text><line x1="40" y1="175.00" x2="860" y2="175.00" stroke="#30363d"/><text x="32" y="179.00" font-size="10" fill="#c9d1d9" text-anchor="end">500</text><line x1="40" y1="130.00" x2="860" y2="130.00" stroke="#30363d"/><text x="32" y="134.00" font-size="10" fill="#c9d1d9" text-anchor="end">1k</text><line x1="40" y1="85.00" x2="860" y2="85.00" stroke="#30363d"/><text x="32" y="89.00" font-size="10" fill="#c9d1d9" text-anchor="end">1.5k</text><line x1="40" y1="40.00" x2="860" y2="40.00" stroke="#30363d"/><text x="32" y="44.00" font-size="10" fill="#c9d1d9" text-anchor="end">2k</text>
    <line x1="40.00" y1="40" x2="40.00" y2="220" stroke="#30363d" opacity="0.5"/><line x1="110.69" y1="40" x2="110.69" y2="220" stroke="#30363d" opacity="0.5"/><line x1="181.38" y1="40" x2="181.38" y2="220" stroke="#30363d" opacity="0.5"/><line x1="252.07" y1="40" x2="252.07" y2="220" stroke="#30363d" opacity="0.5"/><line x1="322.76" y1="40" x2="322.76" y2="220" stroke="#30363d" opacity="0.5"/><line x1="393.45" y1="40" x2="393.45" y2="220" stroke="#30363d" opacity="0.5"/><line x1="464.14" y1="40" x2="464.14" y2="220" stroke="#30363d" opacity="0.5"/><line x1="534.83" y1="40" x2="534.83" y2="220" stroke="#30363d" opacity="0.5"/><line x1="605.52" y1="40" x2="605.52" y2="220" stroke="#30363d" opacity="0.5"/><line x1="676.21" y1="40" x2="676.21" y2="220" stroke="#30363d" opacity="0.5"/><line x1="746.90" y1="40" x2="746.90" y2="220" stroke="#30363d" opacity="0.5"/><line x1="817.59" y1="40" x2="817.59" y2="220" stroke="#30363d" opacity="0.5"/>
    <line x1="40" y1="220" x2="860" y2="220" stroke="#30363d"/>
    <line x1="40" y1="40"   x2="40"   y2="220" stroke="#30363d"/>
    <path d="M 40.00 219.82 L 54.14 211.81 L 68.28 211.81 L 82.41 211.81 L 96.55 171.85 L 110.69 171.58 L 124.83 164.38 L 138.97 118.93 L 153.10 119.11 L 167.24 111.10 L 181.38 110.56 L 195.52 110.56 L 209.66 110.56 L 223.79 95.35 L 237.93 95.35 L 252.07 95.35 L 266.21 94.63 L 280.34 94.54 L 294.48 94.45 L 308.62 94.09 L 322.76 94.09 L 336.90 94.09 L 351.03 94.09 L 365.17 94.09 L 379.31 94.09 L 393.45 94.09 L 407.59 94.09 L 421.72 94.09 L 435.86 91.84 L 450.00 83.65 L 464.14 83.65 L 478.28 83.47 L 492.41 83.65 L 506.55 91.03 L 520.69 91.03 L 534.83 91.03 L 548.97 91.03 L 563.10 91.03 L 577.24 91.03 L 591.38 91.03 L 605.52 91.03 L 619.66 91.03 L 633.79 91.03 L 647.93 91.03 L 662.07 90.94 L 676.21 91.03 L 690.34 90.94 L 704.48 90.94 L 718.62 90.94 L 732.76 90.94 L 746.90 90.94 L 761.03 90.94 L 775.17 90.94 L 789.31 90.94 L 803.45 90.94 L 817.59 90.94 L 831.72 90.94 L 845.86 90.94 L 860.00 90.94" fill="none" stroke="#3fb950" stroke-width="2"/>
    <circle cx="860.00" cy="90.94" r="3" fill="#3fb950"/>
    <text x="40.00" y="235.00" font-size="9" fill="#c9d1d9" text-anchor="middle" transform="rotate(-45 40.00 235.00)">09.08.2025</text><text x="110.69" y="235.00" font-size="9" fill="#c9d1d9" text-anchor="middle" transform="rotate(-45 110.69 235.00)">09.08.2025</text><text x="181.38" y="235.00" font-size="9" fill="#c9d1d9" text-anchor="middle" transform="rotate(-45 181.38 235.00)">13.08.2025</text><text x="252.07" y="235.00" font-size="9" fill="#c9d1d9" text-anchor="middle" transform="rotate(-45 252.07 235.00)">13.08.2025</text><text x="322.76" y="235.00" font-size="9" fill="#c9d1d9" text-anchor="middle" transform="rotate(-45 322.76 235.00)">14.08.2025</text><text x="393.45" y="235.00" font-size="9" fill="#c9d1d9" text-anchor="middle" transform="rotate(-45 393.45 235.00)">19.08.2025</text><text x="464.14" y="235.00" font-size="9" fill="#c9d1d9" text-anchor="middle" transform="rotate(-45 464.14 235.00)">21.08.2025</text><text x="534.83" y="235.00" font-size="9" fill="#c9d1d9" text-anchor="middle" transform="rotate(-45 534.83 235.00)">21.08.2025</text><text x="605.52" y="235.00" font-size="9" fill="#c9d1d9" text-anchor="middle" transform="rotate(-45 605.52 235.00)">26.08.2025</text><text x="676.21" y="235.00" font-size="9" fill="#c9d1d9" text-anchor="middle" transform="rotate(-45 676.21 235.00)">28.08.2025</text><text x="746.90" y="235.00" font-size="9" fill="#c9d1d9" text-anchor="middle" transform="rotate(-45 746.90 235.00)">31.08.2025</text><text x="817.59" y="235.00" font-size="9" fill="#c9d1d9" text-anchor="middle" transform="rotate(-45 817.59 235.00)">05.09.2025</text>
  </g>
</svg>