<svg xmlns="http://www.w3.org/2000/svg" width="900" height="290" style="font-family: -apple-system, BlinkMacSystemFont, 'Segoe UI', Helvetica, Arial, sans-serif;">
  <rect width="100%" height="100%" fill="#0d1117"/>
  <g>
    <line x1="40" y1="220.00" x2="860" y2="220.00" stroke="#30363d"/><text x="32" y="224.00" font-size="10" fill="#c9d1d9" text-anchor="end">0</text><line x1="40" y1="175.00" x2="860" y2="175.00" stroke="#30363d"/><text x="32" y="179.00" font-size="10" fill="#c9d1d9" text-anchor="end">500</text><line x1="40" y1="130.00" x2="860" y2="130.00" stroke="#30363d"/><text x="32" y="134.00" font-size="10" fill="#c9d1d9" text-anchor="end">1k</text><line x1="40" y1="85.00" x2="860" y2="85.00" stroke="#30363d"/><text x="32" y="89.00" font-size="10" fill="#c9d1d9" text-anchor="end">1.5k</text><line x1="40" y1="40.00" x2="860" y2="40.00" stroke="#30363d"/><text x="32" y="44.00" font-size="10" fill="#c9d1d9" text-anchor="end">2k</text>
    <line x1="40.00" y1="40" x2="40.00" y2="220" stroke="#30363d" opacity="0.5"/><line x1="119.52" y1="40" x2="119.52" y2="220" stroke="#30363d" opacity="0.5"/><line x1="199.03" y1="40" x2="199.03" y2="220" stroke="#30363d" opacity="0.5"/><line x1="278.55" y1="40" x2="278.55" y2="220" stroke="#30363d" opacity="0.5"/><line x1="358.06" y1="40" x2="358.06" y2="220" stroke="#30363d" opacity="0.5"/><line x1="437.58" y1="40" x2="437.58" y2="220" stroke="#30363d" opacity="0.5"/><line x1="517.09" y1="40" x2="517.09" y2="220" stroke="#30363d" opacity="0.5"/><line x1="596.61" y1="40" x2="596.61" y2="220" stroke="#30363d" opacity="0.5"/><line x1="676.12" y1="40" x2="676.12" y2="220" stroke="#30363d" opacity="0.5"/><line x1="755.64" y1="40" x2="755.64" y2="220" stroke="#30363d" opacity="0.5"/><line x1="835.15" y1="40" x2="835.15" y2="220" stroke="#30363d" opacity="0.5"/>
    <line x1="40" y1="220" x2="860" y2="220" stroke="#30363d"/>
    <line x1="40" y1="40"   x2="40"   y2="220" stroke="#30363d"/>
    <path d="M 40.00 219.82 L 44.97 211.81 L 49.94 211.81 L 54.91 211.81 L 59.88 171.85 L 64.85 171.58 L 69.82 164.38 L 74.79 118.93 L 79.76 119.11 L 84.73 111.10 L 89.70 110.56 L 94.67 110.56 L 99.64 110.56 L 104.61 95.35 L 109.58 95.35 L 114.55 95.35 L 119.52 94.63 L 124.48 94.54 L 129.45 94.45 L 134.42 94.09 L 139.39 94.09 L 144.36 94.09 L 149.33 94.09 L 154.30 94.09 L 159.27 94.09 L 164.24 94.09 L 169.21 94.09 L 174.18 94.09 L 179.15 91.84 L 184.12 83.65 L 189.09 83.65 L 194.06 83.47 L 199.03 83.65 L 204.00 91.03 L 208.97 91.03 L 213.94 91.03 L 218.91 91.03 L 223.88 91.03 L 228.85 91.03 L 233.82 91.03 L 238.79 91.03 L 243.76 91.03 L 248.73 91.03 L 253.70 91.03 L 258.67 90.94 L 263.64 91.03 L 268.61 90.94 L 273.58 90.94 L 278.55 90.94 L 283.52 90.94 L 288.48 90.94 L 293.45 90.94 L 298.42 90.94 L 303.39 90.94 L 308.36 90.94 L 313.33 90.94 L 318.30 90.94 L 323.27 90.94 L 328.24 90.94 L 333.21 90.94 L 338.18 90.94 L 343.15 90.94 L 348.12 90.94 L 353.09 90.94 L 358.06 90.94 L 363.03 90.94 L 368.00 90.94 L 372.97 90.94 L 377.94 90.94 L 382.91 90.94 L 387.88 90.94 L 392.85 123.79 L 397.82 123.79 L 402.79 123.79 L 407.76 123.79 L 412.73 123.79 L 417.70 123.79 L 422.67 123.79 L 427.64 123.79 L 432.61 123.79 L 437.58 123.79 L 442.55 123.79 L 447.52 123.79 L 452.48 123.79 L 457.45 123.79 L 462.42 123.79 L 467.39 123.79 L 472.36 123.79 L 477.33 123.79 L 482.30 123.79 L 487.27 123.79 L 492.24 123.79 L 497.21 123.79 L 502.18 123.79 L 507.15 123.79 L 512.12 123.79 L 517.09 123.79 L 522.06 123.79 L 527.03 123.79 L 532.00 123.79 L 536.97 123.79 L 541.94 123.79 L 546.91 123.79 L 551.88 123.79 L 556.85 123.79 L 561.82 123.79 L 566.79 123.79 L 571.76 123.79 L 576.73 123.79 L 581.70 123.79 L 586.67 123.79 L 591.64 123.79 L 596.61 123.79 L 601.58 123.79 L 606.55 123.79 L 611.52 123.79 L 616.48 123.79 L 621.45 123.79 L 626.42 123.79 L 631.39 123.79 L 636.36 123.79 L 641.33 123.79 L 646.30 123.79 L 651.27 123.79 L 656.24 123.79 L 661.21 123.79 L 666.18 123.79 L 671.15 123.79 L 676.12 123.79 L 681.09 123.79 L 686.06 123.79 L 691.03 123.79 L 696.00 123.79 L 700.97 123.79 L 705.94 123.79 L 710.91 123.79 L 715.88 123.79 L 720.85 123.79 L 725.82 123.79 L 730.79 123.79 L 735.76 123.79 L 740.73 123.79 L 745.70 123.79 L 750.67 123.79 L 755.64 123.79 L 760.61 123.79 L 765.58 123.79 L 770.55 123.79 L 775.52 115.42 L 780.48 111.64 L 785.45 107.86 L 790.42 104.08 L 795.39 100.30 L 800.36 95.98 L 805.33 95.98 L 810.30 95.98 L 815.27 95.98 L 820.24 85.72 L 825.21 85.72 L 830.18 85.72 L 835.15 85.72 L 840.12 85.72 L 845.09 85.72 L 850.06 85.72 L 855.03 85.72 L 860.00 85.72" fill="none" stroke="#3fb950" stroke-width="2"/>
    <circle cx="860.00" cy="85.72" r="3" fill="#3fb950"/>
    <text x="40.00" y="235.00" font-size="9" fill="#c9d1d9" text-anchor="middle" transform="rotate(-45 40.00 235.00)">09.08.2025</text><text x="119.52" y="235.00" font-size="9" fill="#c9d1d9" text-anchor="middle" transform="rotate(-45 119.52 235.00)">13.08.2025</text><text x="199.03" y="235.00" font-size="9" fill="#c9d1d9" text-anchor="middle" transform="rotate(-45 199.03 235.00)">21.08.2025</text><text x="278.55" y="235.00" font-size="9" fill="#c9d1d9" text-anchor="middle" transform="rotate(-45 278.55 235.00)">29.08.2025</text><text x="358.06" y="235.00" font-size="9" fill="#c9d1d9" text-anchor="middle" transform="rotate(-45 358.06 235.00)">14.09.2025</text><text x="437.58" y="235.00" font-size="9" fill="#c9d1d9" text-anchor="middle" transform="rotate(-45 437.58 235.00)">28.09.2025</text><text x="517.09" y="235.00" font-size="9" fill="#c9d1d9" text-anchor="middle" transform="rotate(-45 517.09 235.00)">14.10.2025</text><text x="596.61" y="235.00" font-size="9" fill="#c9d1d9" text-anchor="middle" transform="rotate(-45 596.61 235.00)">30.10.2025</text><text x="676.12" y="235.00" font-size="9" fill="#c9d1d9" text-anchor="middle" transform="rotate(-45 676.12 235.00)">15.11.2025</text><text x="755.64" y="235.00" font-size="9" fill="#c9d1d9" text-anchor="middle" transform="rotate(-45 755.64 235.00)">01.12.2025</text><text x="835.15" y="235.00" font-size="9" fill="#c9d1d9" text-anchor="middle" transform="rotate(-45 835.15 235.00)">10.12.2025</text>
  </g>
</svg>