<svg xmlns="http://www.w3.org/2000/svg" width="900" height="290" style="font-family: -apple-system, BlinkMacSystemFont, 'Segoe UI', Helvetica, Arial, sans-serif;">
  <rect width="100%" height="100%" fill="white"/>
  <g>
    <line x1="40" y1="220.00" x2="860" y2="220.00" stroke="#e5e7eb"/><text x="32" y="224.00" font-size="10" fill="#111827" text-anchor="end">0</text><line x1="40" y1="175.00" x2="860" y2="175.00" stroke="#e5e7eb"/><text x="32" y="179.00" font-size="10" fill="#111827" text-anchor="end">500</text><line x1="40" y1="130.00" x2="860" y2="130.00" stroke="#e5e7eb"/><text x="32" y="134.00" font-size="10" fill="#111827" text-anchor="end">1k</text><line x1="40" y1="85.00" x2="860" y2="85.00" stroke="#e5e7eb"/><text x="32" y="89.00" font-size="10" fill="#111827" text-anchor="end">1.5k</text><line x1="40" y1="40.00" x2="860" y2="40.00" stroke="#e5e7eb"/><text x="32" y="44.00" font-size="10" fill="#111827" text-anchor="end">2k</text>
    <line x1="40.00" y1="40" x2="40.00" y2="220" stroke="#e5e7eb" opacity="0.5"/><line x1="121.19" y1="40" x2="121.19" y2="220" stroke="#e5e7eb" opacity="0.5"/><line x1="202.38" y1="40" x2="202.38" y2="220" stroke="#e5e7eb" opacity="0.5"/><line x1="283.56" y1="40" x2="283.56" y2="220" stroke="#e5e7eb" opacity="0.5"/><line x1="364.75" y1="40" x2="364.75" y2="220" stroke="#e5e7eb" opacity="0.5"/><line x1="445.94" y1="40" x2="445.94" y2="220" stroke="#e5e7eb" opacity="0.5"/><line x1="527.13" y1="40" x2="527.13" y2="220" stroke="#e5e7eb" opacity="0.5"/><line x1="608.32" y1="40" x2="608.32" y2="220" stroke="#e5e7eb" opacity="0.5"/><line x1="689.50" y1="40" x2="689.50" y2="220" stroke="#e5e7eb" opacity="0.5"/><line x1="770.69" y1="40" x2="770.69" y2="220" stroke="#e5e7eb" opacity="0.5"/><line x1="851.88" y1="40" x2="851.88" y2="220" stroke="#e5e7eb" opacity="0.5"/>
    <line x1="40" y1="220" x2="860" y2="220" stroke="#9ca3af"/>
    <line x1="40" y1="40"   x2="40"   y2="220" stroke="#9ca3af"/>
    <path d="M 40.00 219.82 L 44.06 211.81 L 48.12 211.81 L 52.18 211.81 L 56.24 171.85 L 60.30 171.58 L 64.36 164.38 L 68.42 118.93 L 72.48 119.11 L 76.53 111.10 L 80.59 110.56 L 84.65 110.56 L 88.71 110.56 L 92.77 95.35 L 96.83 95.35 L 100.89 95.35 L 104.95 94.63 L 109.01 94.54 L 113.07 94.45 L 117.13 94.09 L 121.19 94.09 L 125.25 94.09 L 129.31 94.09 L 133.37 94.09 L 137.43 94.09 L 141.49 94.09 L 145.54 94.09 L 149.60 94.09 L 153.66 91.84 L 157.72 83.65 L 161.78 83.65 L 165.84 83.47 L 169.90 83.65 L 173.96 91.03 L 178.02 91.03 L 182.08 91.03 L 186.14 91.03 L 190.20 91.03 L 194.26 91.03 L 198.32 91.03 L 202.38 91.03 L 206.44 91.03 L 210.50 91.03 L 214.55 91.03 L 218.61 90.94 L 222.67 91.03 L 226.73 90.94 L 230.79 90.94 L 234.85 90.94 L 238.91 90.94 L 242.97 90.94 L 247.03 90.94 L 251.09 90.94 L 255.15 90.94 L 259.21 90.94 L 263.27 90.94 L 267.33 90.94 L 271.39 90.94 L 275.45 90.94 L 279.50 90.94 L 283.56 90.94 L 287.62 90.94 L 291.68 90.94 L 295.74 90.94 L 299.80 90.94 L 303.86 90.94 L 307.92 90.94 L 311.98 90.94 L 316.04 90.94 L 320.10 90.94 L 324.16 90.94 L 328.22 123.79 L 332.28 123.79 L 336.34 123.79 L 340.40 123.79 L 344.46 123.79 L 348.51 123.79 L 352.57 123.79 L 356.63 123.79 L 360.69 123.79 L 364.75 123.79 L 368.81 123.79 L 372.87 123.79 L 376.93 123.79 L 380.99 123.79 L 385.05 123.79 L 389.11 123.79 L 393.17 123.79 L 397.23 123.79 L 401.29 123.79 L 405.35 123.79 L 409.41 123.79 L 413.47 123.79 L 417.52 123.79 L 421.58 123.79 L 425.64 123.79 L 429.70 123.79 L 433.76 123.79 L 437.82 123.79 L 441.88 123.79 L 445.94 123.79 L 450.00 123.79 L 454.06 123.79 L 458.12 123.79 L 462.18 123.79 L 466.24 123.79 L 470.30 123.79 L 474.36 123.79 L 478.42 123.79 L 482.48 123.79 L 486.53 123.79 L 490.59 123.79 L 494.65 123.79 L 498.71 123.79 L 502.77 123.79 L 506.83 123.79 L 510.89 123.79 L 514.95 123.79 L 519.01 123.79 L 523.07 123.79 L 527.13 123.79 L 531.19 123.79 L 535.25 123.79 L 539.31 123.79 L 543.37 123.79 L 547.43 123.79 L 551.49 123.79 L 555.54 123.79 L 559.60 123.79 L 563.66 123.79 L 567.72 123.79 L 571.78 123.79 L 575.84 123.79 L 579.90 123.79 L 583.96 123.79 L 588.02 123.79 L 592.08 123.79 L 596.14 123.79 L 600.20 123.79 L 604.26 123.79 L 608.32 123.79 L 612.38 123.79 L 616.44 123.79 L 620.50 123.79 L 624.55 123.79 L 628.61 123.79 L 632.67 123.79 L 636.73 123.79 L 640.79 115.42 L 644.85 111.64 L 648.91 107.86 L 652.97 104.08 L 657.03 100.30 L 661.09 95.98 L 665.15 95.98 L 669.21 95.98 L 673.27 95.98 L 677.33 85.72 L 681.39 85.72 L 685.45 85.72 L 689.50 85.72 L 693.56 85.72 L 697.62 85.72 L 701.68 85.72 L 705.74 85.72 L 709.80 85.72 L 713.86 85.72 L 717.92 85.72 L 721.98 85.72 L 726.04 85.72 L 730.10 85.72 L 734.16 85.72 L 738.22 85.72 L 742.28 85.72 L 746.34 85.72 L 750.40 85.72 L 754.46 85.72 L 758.51 85.72 L 762.57 85.72 L 766.63 85.72 L 770.69 85.72 L 774.75 85.72 L 778.81 85.72 L 782.87 85.72 L 786.93 85.72 L 790.99 85.72 L 795.05 85.72 L 799.11 85.72 L 803.17 85.72 L 807.23 85.72 L 811.29 85.72 L 815.35 85.72 L 819.41 85.72 L 823.47 85.72 L 827.52 85.72 L 831.58 85.72 L 835.64 85.72 L 839.70 85.72 L 843.76 85.72 L 847.82 85.72 L 851.88 85.72 L 855.94 85.72 L 860.00 85.72" fill="none" stroke="#111827" stroke-width="2"/>
    <circle cx="860.00" cy="85.72" r="3" fill="#111827"/>
    <text x="40.00" y="235.00" font-size="9" fill="#111827" text-anchor="middle" transform="rotate(-45 40.00 235.00)">09.08.2025</text><text x="121.19" y="235.00" font-size="9" fill="#111827" text-anchor="middle" transform="rotate(-45 121.19 235.00)">14.08.2025</text><text x="202.38" y="235.00" font-size="9" fill="#111827" text-anchor="middle" transform="rotate(-45 202.38 235.00)">26.08.2025</text><text x="283.56" y="235.00" font-size="9" fill="#111827" text-anchor="middle" transform="rotate(-45 283.56 235.00)">10.09.2025</text><text x="364.75" y="235.00" font-size="9" fill="#111827" text-anchor="middle" transform="rotate(-45 364.75 235.00)">28.09.2025</text><text x="445.94" y="235.00" font-size="9" fill="#111827" text-anchor="middle" transform="rotate(-45 445.94 235.00)">18.10.2025</text><text x="527.13" y="235.00" font-size="9" fill="#111827" text-anchor="middle" transform="rotate(-45 527.13 235.00)">07.11.2025</text><text x="608.32" y="235.00" font-size="9" fill="#111827" text-anchor="middle" transform="rotate(-45 608.32 235.00)">27.11.2025</text><text x="689.50" y="235.00" font-size="9" fill="#111827" text-anchor="middle" transform="rotate(-45 689.50 235.00)">10.12.2025</text><text x="770.69" y="235.00" font-size="9" fill="#111827" text-anchor="middle" transform="rotate(-45 770.69 235.00)">30.12.2025</text><text x="851.88" y="235.00" font-size="9" fill="#111827" text-anchor="middle" transform="rotate(-45 851.88 235.00)">19.01.2026</text>
  </g>
</svg>