<svg xmlns="http://www.w3.org/2000/svg" width="900" height="290" style="font-family: -apple-system, BlinkMacSystemFont, 'Segoe UI', Helvetica, Arial, sans-serif;">
  <rect width="100%" height="100%" fill="white"/>
  <g>
    <line x1="40" y1="220.00" x2="860" y2="220.00" stroke="#e5e7eb"/><text x="32" y="224.00" font-size="10" fill="#111827" text-anchor="end">0</text><line x1="40" y1="175.00" x2="860" y2="175.00" stroke="#e5e7eb"/><text x="32" y="179.00" font-size="10" fill="#111827" text-anchor="end">500</text><line x1="40" y1="130.00" x2="860" y2="130.00" stroke="#e5e7eb"/><text x="32" y="134.00" font-size="10" fill="#111827" text-anchor="end">1k</text><line x1="40" y1="85.00" x2="860" y2="85.00" stroke="#e5e7eb"/><text x="32" y="89.00" font-size="10" fill="#111827" text-anchor="end">1.5k</text><line x1="40" y1="40.00" x2="860" y2="40.00" stroke="#e5e7eb"/><text x="32" y="44.00" font-size="10" fill="#111827" text-anchor="end">2k</text>
    <line x1="40.00" y1="40" x2="40.00" y2="220" stroke="#e5e7eb" opacity="0.5"/><line x1="121.59" y1="40" x2="121.59" y2="220" stroke="#e5e7eb" opacity="0.5"/><line x1="203.18" y1="40" x2="203.18" y2="220" stroke="#e5e7eb" opacity="0.5"/><line x1="284.78" y1="40" x2="284.78" y2="220" stroke="#e5e7eb" opacity="0.5"/><line x1="366.37" y1="40" x2="366.37" y2="220" stroke="#e5e7eb" opacity="0.5"/><line x1="447.96" y1="40" x2="447.96" y2="220" stroke="#e5e7eb" opacity="0.5"/><line x1="529.55" y1="40" x2="529.55" y2="220" stroke="#e5e7eb" opacity="0.5"/><line x1="611.14" y1="40" x2="611.14" y2="220" stroke="#e5e7eb" opacity="0.5"/><line x1="692.74" y1="40" x2="692.74" y2="220" stroke="#e5e7eb" opacity="0.5"/><line x1="774.33" y1="40" x2="774.33" y2="220" stroke="#e5e7eb" opacity="0.5"/><line x1="855.92" y1="40" x2="855.92" y2="220" stroke="#e5e7eb" opacity="0.5"/>
    <line x1="40" y1="220" x2="860" y2="220" stroke="#9ca3af"/>
    <line x1="40" y1="40"   x2="40"   y2="220" stroke="#9ca3af"/>
    <path d="M 40.00 219.82 L 44.08 211.81 L 48.16 211.81 L 52.24 211.81 L 56.32 171.85 L 60.40 171.58 L 64.48 164.38 L 68.56 118.93 L 72.64 119.11 L 76.72 111.10 L 80.80 110.56 L 84.88 110.56 L 88.96 110.56 L 93.03 95.35 L 97.11 95.35 L 101.19 95.35 L 105.27 94.63 L 109.35 94.54 L 113.43 94.45 L 117.51 94.09 L 121.59 94.09 L 125.67 94.09 L 129.75 94.09 L 133.83 94.09 L 137.91 94.09 L 141.99 94.09 L 146.07 94.09 L 150.15 94.09 L 154.23 91.84 L 158.31 83.65 L 162.39 83.65 L 166.47 83.47 L 170.55 83.65 L 174.63 91.03 L 178.71 91.03 L 182.79 91.03 L 186.87 91.03 L 190.95 91.03 L 195.02 91.03 L 199.10 91.03 L 203.18 91.03 L 207.26 91.03 L 211.34 91.03 L 215.42 91.03 L 219.50 90.94 L 223.58 91.03 L 227.66 90.94 L 231.74 90.94 L 235.82 90.94 L 239.90 90.94 L 243.98 90.94 L 248.06 90.94 L 252.14 90.94 L 256.22 90.94 L 260.30 90.94 L 264.38 90.94 L 268.46 90.94 L 272.54 90.94 L 276.62 90.94 L 280.70 90.94 L 284.78 90.94 L 288.86 90.94 L 292.94 90.94 L 297.01 90.94 L 301.09 90.94 L 305.17 90.94 L 309.25 90.94 L 313.33 90.94 L 317.41 90.94 L 321.49 90.94 L 325.57 90.94 L 329.65 123.79 L 333.73 123.79 L 337.81 123.79 L 341.89 123.79 L 345.97 123.79 L 350.05 123.79 L 354.13 123.79 L 358.21 123.79 L 362.29 123.79 L 366.37 123.79 L 370.45 123.79 L 374.53 123.79 L 378.61 123.79 L 382.69 123.79 L 386.77 123.79 L 390.85 123.79 L 394.93 123.79 L 399.00 123.79 L 403.08 123.79 L 407.16 123.79 L 411.24 123.79 L 415.32 123.79 L 419.40 123.79 L 423.48 123.79 L 427.56 123.79 L 431.64 123.79 L 435.72 123.79 L 439.80 123.79 L 443.88 123.79 L 447.96 123.79 L 452.04 123.79 L 456.12 123.79 L 460.20 123.79 L 464.28 123.79 L 468.36 123.79 L 472.44 123.79 L 476.52 123.79 L 480.60 123.79 L 484.68 123.79 L 488.76 123.79 L 492.84 123.79 L 496.92 123.79 L 501.00 123.79 L 505.07 123.79 L 509.15 123.79 L 513.23 123.79 L 517.31 123.79 L 521.39 123.79 L 525.47 123.79 L 529.55 123.79 L 533.63 123.79 L 537.71 123.79 L 541.79 123.79 L 545.87 123.79 L 549.95 123.79 L 554.03 123.79 L 558.11 123.79 L 562.19 123.79 L 566.27 123.79 L 570.35 123.79 L 574.43 123.79 L 578.51 123.79 L 582.59 123.79 L 586.67 123.79 L 590.75 123.79 L 594.83 123.79 L 598.91 123.79 L 602.99 123.79 L 607.06 123.79 L 611.14 123.79 L 615.22 123.79 L 619.30 123.79 L 623.38 123.79 L 627.46 123.79 L 631.54 123.79 L 635.62 123.79 L 639.70 123.79 L 643.78 115.42 L 647.86 111.64 L 651.94 107.86 L 656.02 104.08 L 660.10 100.30 L 664.18 95.98 L 668.26 95.98 L 672.34 95.98 L 676.42 95.98 L 680.50 85.72 L 684.58 85.72 L 688.66 85.72 L 692.74 85.72 L 696.82 85.72 L 700.90 85.72 L 704.98 85.72 L 709.05 85.72 L 713.13 85.72 L 717.21 85.72 L 721.29 85.72 L 725.37 85.72 L 729.45 85.72 L 733.53 85.72 L 737.61 85.72 L 741.69 85.72 L 745.77 85.72 L 749.85 85.72 L 753.93 85.72 L 758.01 85.72 L 762.09 85.72 L 766.17 85.72 L 770.25 85.72 L 774.33 85.72 L 778.41 85.72 L 782.49 85.72 L 786.57 85.72 L 790.65 85.72 L 794.73 85.72 L 798.81 85.72 L 802.89 85.72 L 806.97 85.72 L 811.04 85.72 L 815.12 85.72 L 819.20 85.72 L 823.28 85.72 L 827.36 85.72 L 831.44 85.72 L 835.52 85.72 L 839.60 85.72 L 843.68 85.72 L 847.76 85.72 L 851.84 85.72 L 855.92 85.72 L 860.00 85.72" fill="none" stroke="#111827" stroke-width="2"/>
    <circle cx="860.00" cy="85.72" r="3" fill="#111827"/>
    <text x="40.00" y="235.00" font-size="9" fill="#111827" text-anchor="middle" transform="rotate(-45 40.00 235.00)">09.08.2025</text><text x="121.59" y="235.00" font-size="9" fill="#111827" text-anchor="middle" transform="rotate(-45 121.59 235.00)">14.08.2025</text><text x="203.18" y="235.00" font-size="9" fill="#111827" text-anchor="middle" transform="rotate(-45 203.18 235.00)">26.08.2025</text><text x="284.78" y="235.00" font-size="9" fill="#111827" text-anchor="middle" transform="rotate(-45 284.78 235.00)">10.09.2025</text><text x="366.37" y="235.00" font-size="9" fill="#111827" text-anchor="middle" transform="rotate(-45 366.37 235.00)">28.09.2025</text><text x="447.96" y="235.00" font-size="9" fill="#111827" text-anchor="middle" transform="rotate(-45 447.96 235.00)">18.10.2025</text><text x="529.55" y="235.00" font-size="9" fill="#111827" text-anchor="middle" transform="rotate(-45 529.55 235.00)">07.11.2025</text><text x="611.14" y="235.00" font-size="9" fill="#111827" text-anchor="middle" transform="rotate(-45 611.14 235.00)">27.11.2025</text><text x="692.74" y="235.00" font-size="9" fill="#111827" text-anchor="middle" transform="rotate(-45 692.74 235.00)">10.12.2025</text><text x="774.33" y="235.00" font-size="9" fill="#111827" text-anchor="middle" transform="rotate(-45 774.33 235.00)">30.12.2025</text><text x="855.92" y="235.00" font-size="9" fill="#111827" text-anchor="middle" transform="rotate(-45 855.92 235.00)">19.01.2026</text>
  </g>
</svg>