<svg xmlns="http://www.w3.org/2000/svg" width="900" height="290" style="font-family: -apple-system, BlinkMacSystemFont, 'Segoe UI', Helvetica, Arial, sans-serif;">
  <rect width="100%" height="100%" fill="white"/>
  <g>
    <line x1="40" y1="220.00" x2="860" y2="220.00" stroke="#e5e7eb"/><text x="32" y="224.00" font-size="10" fill="#111827" text-anchor="end">0</text><line x1="40" y1="175.00" x2="860" y2="175.00" stroke="#e5e7eb"/><text x="32" y="179.00" font-size="10" fill="#111827" text-anchor="end">500</text><line x1="40" y1="130.00" x2="860" y2="130.00" stroke="#e5e7eb"/><text x="32" y="134.00" font-size="10" fill="#111827" text-anchor="end">1k</text><line x1="40" y1="85.00" x2="860" y2="85.00" stroke="#e5e7eb"/><text x="32" y="89.00" font-size="10" fill="#111827" text-anchor="end">1.5k</text><line x1="40" y1="40.00" x2="860" y2="40.00" stroke="#e5e7eb"/><text x="32" y="44.00" font-size="10" fill="#111827" text-anchor="end">2k</text>
    <line x1="40.00" y1="40" x2="40.00" y2="220" stroke="#e5e7eb" opacity="0.5"/><line x1="115.31" y1="40" x2="115.31" y2="220" stroke="#e5e7eb" opacity="0.5"/><line x1="190.61" y1="40" x2="190.61" y2="220" stroke="#e5e7eb" opacity="0.5"/><line x1="265.92" y1="40" x2="265.92" y2="220" stroke="#e5e7eb" opacity="0.5"/><line x1="341.22" y1="40" x2="341.22" y2="220" stroke="#e5e7eb" opacity="0.5"/><line x1="416.53" y1="40" x2="416.53" y2="220" stroke="#e5e7eb" opacity="0.5"/><line x1="491.84" y1="40" x2="491.84" y2="220" stroke="#e5e7eb" opacity="0.5"/><line x1="567.14" y1="40" x2="567.14" y2="220" stroke="#e5e7eb" opacity="0.5"/><line x1="642.45" y1="40" x2="642.45" y2="220" stroke="#e5e7eb" opacity="0.5"/><line x1="717.76" y1="40" x2="717.76" y2="220" stroke="#e5e7eb" opacity="0.5"/><line x1="793.06" y1="40" x2="793.06" y2="220" stroke="#e5e7eb" opacity="0.5"/>
    <line x1="40" y1="220" x2="860" y2="220" stroke="#9ca3af"/>
    <line x1="40" y1="40"   x2="40"   y2="220" stroke="#9ca3af"/>
    <path d="M 40.00 219.82 L 48.37 211.81 L 56.73 211.81 L 65.10 211.81 L 73.47 171.85 L 81.84 171.58 L 90.20 164.38 L 98.57 118.93 L 106.94 119.11 L 115.31 111.10 L 123.67 110.56 L 132.04 110.56 L 140.41 110.56 L 148.78 95.35 L 157.14 95.35 L 165.51 95.35 L 173.88 94.63 L 182.24 94.54 L 190.61 94.45 L 198.98 94.09 L 207.35 94.09 L 215.71 94.09 L 224.08 94.09 L 232.45 94.09 L 240.82 94.09 L 249.18 94.09 L 257.55 94.09 L 265.92 94.09 L 274.29 91.84 L 282.65 83.65 L 291.02 83.65 L 299.39 83.47 L 307.76 83.65 L 316.12 91.03 L 324.49 91.03 L 332.86 91.03 L 341.22 91.03 L 349.59 91.03 L 357.96 91.03 L 366.33 91.03 L 374.69 91.03 L 383.06 91.03 L 391.43 91.03 L 399.80 91.03 L 408.16 90.94 L 416.53 91.03 L 424.90 90.94 L 433.27 90.94 L 441.63 90.94 L 450.00 90.94 L 458.37 90.94 L 466.73 90.94 L 475.10 90.94 L 483.47 90.94 L 491.84 90.94 L 500.20 90.94 L 508.57 90.94 L 516.94 90.94 L 525.31 90.94 L 533.67 90.94 L 542.04 90.94 L 550.41 90.94 L 558.78 90.94 L 567.14 90.94 L 575.51 90.94 L 583.88 90.94 L 592.24 90.94 L 600.61 90.94 L 608.98 90.94 L 617.35 90.94 L 625.71 90.94 L 634.08 123.79 L 642.45 123.79 L 650.82 123.79 L 659.18 123.79 L 667.55 123.79 L 675.92 123.79 L 684.29 123.79 L 692.65 123.79 L 701.02 123.79 L 709.39 123.79 L 717.76 123.79 L 726.12 123.79 L 734.49 123.79 L 742.86 123.79 L 751.22 123.79 L 759.59 123.79 L 767.96 123.79 L 776.33 123.79 L 784.69 123.79 L 793.06 123.79 L 801.43 123.79 L 809.80 123.79 L 818.16 123.79 L 826.53 123.79 L 834.90 123.79 L 843.27 123.79 L 851.63 123.79 L 860.00 123.79" fill="none" stroke="#111827" stroke-width="2"/>
    <circle cx="860.00" cy="123.79" r="3" fill="#111827"/>
    <text x="40.00" y="235.00" font-size="9" fill="#111827" text-anchor="middle" transform="rotate(-45 40.00 235.00)">09.08.2025</text><text x="115.31" y="235.00" font-size="9" fill="#111827" text-anchor="middle" transform="rotate(-45 115.31 235.00)">13.08.2025</text><text x="190.61" y="235.00" font-size="9" fill="#111827" text-anchor="middle" transform="rotate(-45 190.61 235.00)">13.08.2025</text><text x="265.92" y="235.00" font-size="9" fill="#111827" text-anchor="middle" transform="rotate(-45 265.92 235.00)">21.08.2025</text><text x="341.22" y="235.00" font-size="9" fill="#111827" text-anchor="middle" transform="rotate(-45 341.22 235.00)">22.08.2025</text><text x="416.53" y="235.00" font-size="9" fill="#111827" text-anchor="middle" transform="rotate(-45 416.53 235.00)">28.08.2025</text><text x="491.84" y="235.00" font-size="9" fill="#111827" text-anchor="middle" transform="rotate(-45 491.84 235.00)">04.09.2025</text><text x="567.14" y="235.00" font-size="9" fill="#111827" text-anchor="middle" transform="rotate(-45 567.14 235.00)">13.09.2025</text><text x="642.45" y="235.00" font-size="9" fill="#111827" text-anchor="middle" transform="rotate(-45 642.45 235.00)">21.09.2025</text><text x="717.76" y="235.00" font-size="9" fill="#111827" text-anchor="middle" transform="rotate(-45 717.76 235.00)">29.09.2025</text><text x="793.06" y="235.00" font-size="9" fill="#111827" text-anchor="middle" transform="rotate(-45 793.06 235.00)">08.10.2025</text>
  </g>
</svg>