<svg xmlns="http://www.w3.org/2000/svg" width="900" height="290" style="font-family: -apple-system, BlinkMacSystemFont, 'Segoe UI', Helvetica, Arial, sans-serif;">
  <rect width="100%" height="100%" fill="#0d1117"/>
  <g>
    <line x1="40" y1="220.00" x2="860" y2="220.00" stroke="#30363d"/><text x="32" y="224.00" font-size="10" fill="#c9d1d9" text-anchor="end">0</text><line x1="40" y1="175.00" x2="860" y2="175.00" stroke="#30363d"/><text x="32" y="179.00" font-size="10" fill="#c9d1d9" text-anchor="end">500</text><line x1="40" y1="130.00" x2="860" y2="130.00" stroke="#30363d"/><text x="32" y="134.00" font-size="10" fill="#c9d1d9" text-anchor="end">1k</text><line x1="40" y1="85.00" x2="860" y2="85.00" stroke="#30363d"/><text x="32" y="89.00" font-size="10" fill="#c9d1d9" text-anchor="end">1.5k</text><line x1="40" y1="40.00" x2="860" y2="40.00" stroke="#30363d"/><text x="32" y="44.00" font-size="10" fill="#c9d1d9" text-anchor="end">2k</text>
    <line x1="40.00" y1="40" x2="40.00" y2="220" stroke="#30363d" opacity="0.5"/><line x1="120.39" y1="40" x2="120.39" y2="220" stroke="#30363d" opacity="0.5"/><line x1="200.78" y1="40" x2="200.78" y2="220" stroke="#30363d" opacity="0.5"/><line x1="281.18" y1="40" x2="281.18" y2="220" stroke="#30363d" opacity="0.5"/><line x1="361.57" y1="40" x2="361.57" y2="220" stroke="#30363d" opacity="0.5"/><line x1="441.96" y1="40" x2="441.96" y2="220" stroke="#30363d" opacity="0.5"/><line x1="522.35" y1="40" x2="522.35" y2="220" stroke="#30363d" opacity="0.5"/><line x1="602.75" y1="40" x2="602.75" y2="220" stroke="#30363d" opacity="0.5"/><line x1="683.14" y1="40" x2="683.14" y2="220" stroke="#30363d" opacity="0.5"/><line x1="763.53" y1="40" x2="763.53" y2="220" stroke="#30363d" opacity="0.5"/><line x1="843.92" y1="40" x2="843.92" y2="220" stroke="#30363d" opacity="0.5"/>
    <line x1="40" y1="220" x2="860" y2="220" stroke="#30363d"/>
    <line x1="40" y1="40"   x2="40"   y2="220" stroke="#30363d"/>
    <path d="M 40.00 219.82 L 44.02 211.81 L 48.04 211.81 L 52.06 211.81 L 56.08 171.85 L 60.10 171.58 L 64.12 164.38 L 68.14 118.93 L 72.16 119.11 L 76.18 111.10 L 80.20 110.56 L 84.22 110.56 L 88.24 110.56 L 92.25 95.35 L 96.27 95.35 L 100.29 95.35 L 104.31 94.63 L 108.33 94.54 L 112.35 94.45 L 116.37 94.09 L 120.39 94.09 L 124.41 94.09 L 128.43 94.09 L 132.45 94.09 L 136.47 94.09 L 140.49 94.09 L 144.51 94.09 L 148.53 94.09 L 152.55 91.84 L 156.57 83.65 L 160.59 83.65 L 164.61 83.47 L 168.63 83.65 L 172.65 91.03 L 176.67 91.03 L 180.69 91.03 L 184.71 91.03 L 188.73 91.03 L 192.75 91.03 L 196.76 91.03 L 200.78 91.03 L 204.80 91.03 L 208.82 91.03 L 212.84 91.03 L 216.86 90.94 L 220.88 91.03 L 224.90 90.94 L 228.92 90.94 L 232.94 90.94 L 236.96 90.94 L 240.98 90.94 L 245.00 90.94 L 249.02 90.94 L 253.04 90.94 L 257.06 90.94 L 261.08 90.94 L 265.10 90.94 L 269.12 90.94 L 273.14 90.94 L 277.16 90.94 L 281.18 90.94 L 285.20 90.94 L 289.22 90.94 L 293.24 90.94 L 297.25 90.94 L 301.27 90.94 L 305.29 90.94 L 309.31 90.94 L 313.33 90.94 L 317.35 90.94 L 321.37 90.94 L 325.39 123.79 L 329.41 123.79 L 333.43 123.79 L 337.45 123.79 L 341.47 123.79 L 345.49 123.79 L 349.51 123.79 L 353.53 123.79 L 357.55 123.79 L 361.57 123.79 L 365.59 123.79 L 369.61 123.79 L 373.63 123.79 L 377.65 123.79 L 381.67 123.79 L 385.69 123.79 L 389.71 123.79 L 393.73 123.79 L 397.75 123.79 L 401.76 123.79 L 405.78 123.79 L 409.80 123.79 L 413.82 123.79 L 417.84 123.79 L 421.86 123.79 L 425.88 123.79 L 429.90 123.79 L 433.92 123.79 L 437.94 123.79 L 441.96 123.79 L 445.98 123.79 L 450.00 123.79 L 454.02 123.79 L 458.04 123.79 L 462.06 123.79 L 466.08 123.79 L 470.10 123.79 L 474.12 123.79 L 478.14 123.79 L 482.16 123.79 L 486.18 123.79 L 490.20 123.79 L 494.22 123.79 L 498.24 123.79 L 502.25 123.79 L 506.27 123.79 L 510.29 123.79 L 514.31 123.79 L 518.33 123.79 L 522.35 123.79 L 526.37 123.79 L 530.39 123.79 L 534.41 123.79 L 538.43 123.79 L 542.45 123.79 L 546.47 123.79 L 550.49 123.79 L 554.51 123.79 L 558.53 123.79 L 562.55 123.79 L 566.57 123.79 L 570.59 123.79 L 574.61 123.79 L 578.63 123.79 L 582.65 123.79 L 586.67 123.79 L 590.69 123.79 L 594.71 123.79 L 598.73 123.79 L 602.75 123.79 L 606.76 123.79 L 610.78 123.79 L 614.80 123.79 L 618.82 123.79 L 622.84 123.79 L 626.86 123.79 L 630.88 123.79 L 634.90 115.42 L 638.92 111.64 L 642.94 107.86 L 646.96 104.08 L 650.98 100.30 L 655.00 95.98 L 659.02 95.98 L 663.04 95.98 L 667.06 95.98 L 671.08 85.72 L 675.10 85.72 L 679.12 85.72 L 683.14 85.72 L 687.16 85.72 L 691.18 85.72 L 695.20 85.72 L 699.22 85.72 L 703.24 85.72 L 707.25 85.72 L 711.27 85.72 L 715.29 85.72 L 719.31 85.72 L 723.33 85.72 L 727.35 85.72 L 731.37 85.72 L 735.39 85.72 L 739.41 85.72 L 743.43 85.72 L 747.45 85.72 L 751.47 85.72 L 755.49 85.72 L 759.51 85.72 L 763.53 85.72 L 767.55 85.72 L 771.57 85.72 L 775.59 85.72 L 779.61 85.72 L 783.63 85.72 L 787.65 85.72 L 791.67 85.72 L 795.69 85.72 L 799.71 85.72 L 803.73 85.72 L 807.75 85.72 L 811.76 85.72 L 815.78 85.72 L 819.80 85.72 L 823.82 85.72 L 827.84 85.72 L 831.86 85.72 L 835.88 85.72 L 839.90 85.72 L 843.92 85.72 L 847.94 85.72 L 851.96 85.72 L 855.98 85.72 L 860.00 85.72" fill="none" stroke="#3fb950" stroke-width="2"/>
    <circle cx="860.00" cy="85.72" r="3" fill="#3fb950"/>
    <text x="40.00" y="235.00" font-size="9" fill="#c9d1d9" text-anchor="middle" transform="rotate(-45 40.00 235.00)">09.08.2025</text><text x="120.39" y="235.00" font-size="9" fill="#c9d1d9" text-anchor="middle" transform="rotate(-45 120.39 235.00)">14.08.2025</text><text x="200.78" y="235.00" font-size="9" fill="#c9d1d9" text-anchor="middle" transform="rotate(-45 200.78 235.00)">26.08.2025</text><text x="281.18" y="235.00" font-size="9" fill="#c9d1d9" text-anchor="middle" transform="rotate(-45 281.18 235.00)">10.09.2025</text><text x="361.57" y="235.00" font-size="9" fill="#c9d1d9" text-anchor="middle" transform="rotate(-45 361.57 235.00)">28.09.2025</text><text x="441.96" y="235.00" font-size="9" fill="#c9d1d9" text-anchor="middle" transform="rotate(-45 441.96 235.00)">18.10.2025</text><text x="522.35" y="235.00" font-size="9" fill="#c9d1d9" text-anchor="middle" transform="rotate(-45 522.35 235.00)">07.11.2025</text><text x="602.75" y="235.00" font-size="9" fill="#c9d1d9" text-anchor="middle" transform="rotate(-45 602.75 235.00)">27.11.2025</text><text x="683.14" y="235.00" font-size="9" fill="#c9d1d9" text-anchor="middle" transform="rotate(-45 683.14 235.00)">10.12.2025</text><text x="763.53" y="235.00" font-size="9" fill="#c9d1d9" text-anchor="middle" transform="rotate(-45 763.53 235.00)">30.12.2025</text><text x="843.92" y="235.00" font-size="9" fill="#c9d1d9" text-anchor="middle" transform="rotate(-45 843.92 235.00)">19.01.2026</text>
  </g>
</svg>