<svg xmlns="http://www.w3.org/2000/svg" width="900" height="290" style="font-family: -apple-system, BlinkMacSystemFont, 'Segoe UI', Helvetica, Arial, sans-serif;">
  <rect width="100%" height="100%" fill="#0d1117"/>
  <g>
    <line x1="40" y1="220.00" x2="860" y2="220.00" stroke="#30363d"/><text x="32" y="224.00" font-size="10" fill="#c9d1d9" text-anchor="end">0</text><line x1="40" y1="175.00" x2="860" y2="175.00" stroke="#30363d"/><text x="32" y="179.00" font-size="10" fill="#c9d1d9" text-anchor="end">500</text><line x1="40" y1="130.00" x2="860" y2="130.00" stroke="#30363d"/><text x="32" y="134.00" font-size="10" fill="#c9d1d9" text-anchor="end">1k</text><line x1="40" y1="85.00" x2="860" y2="85.00" stroke="#30363d"/><text x="32" y="89.00" font-size="10" fill="#c9d1d9" text-anchor="end">1.5k</text><line x1="40" y1="40.00" x2="860" y2="40.00" stroke="#30363d"/><text x="32" y="44.00" font-size="10" fill="#c9d1d9" text-anchor="end">2k</text>
    <line x1="40.00" y1="40" x2="40.00" y2="220" stroke="#30363d" opacity="0.5"/><line x1="118.99" y1="40" x2="118.99" y2="220" stroke="#30363d" opacity="0.5"/><line x1="197.98" y1="40" x2="197.98" y2="220" stroke="#30363d" opacity="0.5"/><line x1="276.97" y1="40" x2="276.97" y2="220" stroke="#30363d" opacity="0.5"/><line x1="355.96" y1="40" x2="355.96" y2="220" stroke="#30363d" opacity="0.5"/><line x1="434.95" y1="40" x2="434.95" y2="220" stroke="#30363d" opacity="0.5"/><line x1="513.94" y1="40" x2="513.94" y2="220" stroke="#30363d" opacity="0.5"/><line x1="592.94" y1="40" x2="592.94" y2="220" stroke="#30363d" opacity="0.5"/><line x1="671.93" y1="40" x2="671.93" y2="220" stroke="#30363d" opacity="0.5"/><line x1="750.92" y1="40" x2="750.92" y2="220" stroke="#30363d" opacity="0.5"/><line x1="829.91" y1="40" x2="829.91" y2="220" stroke="#30363d" opacity="0.5"/>
    <line x1="40" y1="220" x2="860" y2="220" stroke="#30363d"/>
    <line x1="40" y1="40"   x2="40"   y2="220" stroke="#30363d"/>
    <path d="M 40.00 219.82 L 43.76 211.81 L 47.52 211.81 L 51.28 211.81 L 55.05 171.85 L 58.81 171.58 L 62.57 164.38 L 66.33 118.93 L 70.09 119.11 L 73.85 111.10 L 77.61 110.56 L 81.38 110.56 L 85.14 110.56 L 88.90 95.35 L 92.66 95.35 L 96.42 95.35 L 100.18 94.63 L 103.94 94.54 L 107.71 94.45 L 111.47 94.09 L 115.23 94.09 L 118.99 94.09 L 122.75 94.09 L 126.51 94.09 L 130.28 94.09 L 134.04 94.09 L 137.80 94.09 L 141.56 94.09 L 145.32 91.84 L 149.08 83.65 L 152.84 83.65 L 156.61 83.47 L 160.37 83.65 L 164.13 91.03 L 167.89 91.03 L 171.65 91.03 L 175.41 91.03 L 179.17 91.03 L 182.94 91.03 L 186.70 91.03 L 190.46 91.03 L 194.22 91.03 L 197.98 91.03 L 201.74 91.03 L 205.50 90.94 L 209.27 91.03 L 213.03 90.94 L 216.79 90.94 L 220.55 90.94 L 224.31 90.94 L 228.07 90.94 L 231.83 90.94 L 235.60 90.94 L 239.36 90.94 L 243.12 90.94 L 246.88 90.94 L 250.64 90.94 L 254.40 90.94 L 258.17 90.94 L 261.93 90.94 L 265.69 90.94 L 269.45 90.94 L 273.21 90.94 L 276.97 90.94 L 280.73 90.94 L 284.50 90.94 L 288.26 90.94 L 292.02 90.94 L 295.78 90.94 L 299.54 90.94 L 303.30 90.94 L 307.06 123.79 L 310.83 123.79 L 314.59 123.79 L 318.35 123.79 L 322.11 123.79 L 325.87 123.79 L 329.63 123.79 L 333.39 123.79 L 337.16 123.79 L 340.92 123.79 L 344.68 123.79 L 348.44 123.79 L 352.20 123.79 L 355.96 123.79 L 359.72 123.79 L 363.49 123.79 L 367.25 123.79 L 371.01 123.79 L 374.77 123.79 L 378.53 123.79 L 382.29 123.79 L 386.06 123.79 L 389.82 123.79 L 393.58 123.79 L 397.34 123.79 L 401.10 123.79 L 404.86 123.79 L 408.62 123.79 L 412.39 123.79 L 416.15 123.79 L 419.91 123.79 L 423.67 123.79 L 427.43 123.79 L 431.19 123.79 L 434.95 123.79 L 438.72 123.79 L 442.48 123.79 L 446.24 123.79 L 450.00 123.79 L 453.76 123.79 L 457.52 123.79 L 461.28 123.79 L 465.05 123.79 L 468.81 123.79 L 472.57 123.79 L 476.33 123.79 L 480.09 123.79 L 483.85 123.79 L 487.61 123.79 L 491.38 123.79 L 495.14 123.79 L 498.90 123.79 L 502.66 123.79 L 506.42 123.79 L 510.18 123.79 L 513.94 123.79 L 517.71 123.79 L 521.47 123.79 L 525.23 123.79 L 528.99 123.79 L 532.75 123.79 L 536.51 123.79 L 540.28 123.79 L 544.04 123.79 L 547.80 123.79 L 551.56 123.79 L 555.32 123.79 L 559.08 123.79 L 562.84 123.79 L 566.61 123.79 L 570.37 123.79 L 574.13 123.79 L 577.89 123.79 L 581.65 123.79 L 585.41 123.79 L 589.17 123.79 L 592.94 123.79 L 596.70 115.42 L 600.46 111.64 L 604.22 107.86 L 607.98 104.08 L 611.74 100.30 L 615.50 95.98 L 619.27 95.98 L 623.03 95.98 L 626.79 95.98 L 630.55 85.72 L 634.31 85.72 L 638.07 85.72 L 641.83 85.72 L 645.60 85.72 L 649.36 85.72 L 653.12 85.72 L 656.88 85.72 L 660.64 85.72 L 664.40 85.72 L 668.17 85.72 L 671.93 85.72 L 675.69 85.72 L 679.45 85.72 L 683.21 85.72 L 686.97 85.72 L 690.73 85.72 L 694.50 85.72 L 698.26 85.72 L 702.02 85.72 L 705.78 85.72 L 709.54 85.72 L 713.30 85.72 L 717.06 85.72 L 720.83 85.72 L 724.59 85.72 L 728.35 85.72 L 732.11 85.72 L 735.87 85.72 L 739.63 85.72 L 743.39 85.72 L 747.16 85.72 L 750.92 85.72 L 754.68 85.72 L 758.44 85.72 L 762.20 85.72 L 765.96 85.72 L 769.72 85.72 L 773.49 85.72 L 777.25 85.72 L 781.01 85.72 L 784.77 85.72 L 788.53 85.72 L 792.29 85.72 L 796.06 85.72 L 799.82 85.72 L 803.58 85.72 L 807.34 85.72 L 811.10 85.72 L 814.86 85.72 L 818.62 85.72 L 822.39 85.72 L 826.15 85.72 L 829.91 85.72 L 833.67 85.72 L 837.43 85.72 L 841.19 85.72 L 844.95 85.72 L 848.72 85.72 L 852.48 85.72 L 856.24 85.72 L 860.00 85.72" fill="none" stroke="#3fb950" stroke-width="2"/>
    <circle cx="860.00" cy="85.72" r="3" fill="#3fb950"/>
    <text x="40.00" y="235.00" font-size="9" fill="#c9d1d9" text-anchor="middle" transform="rotate(-45 40.00 235.00)">09.08.2025</text><text x="118.99" y="235.00" font-size="9" fill="#c9d1d9" text-anchor="middle" transform="rotate(-45 118.99 235.00)">15.08.2025</text><text x="197.98" y="235.00" font-size="9" fill="#c9d1d9" text-anchor="middle" transform="rotate(-45 197.98 235.00)">28.08.2025</text><text x="276.97" y="235.00" font-size="9" fill="#c9d1d9" text-anchor="middle" transform="rotate(-45 276.97 235.00)">13.09.2025</text><text x="355.96" y="235.00" font-size="9" fill="#c9d1d9" text-anchor="middle" transform="rotate(-45 355.96 235.00)">02.10.2025</text><text x="434.95" y="235.00" font-size="9" fill="#c9d1d9" text-anchor="middle" transform="rotate(-45 434.95 235.00)">23.10.2025</text><text x="513.94" y="235.00" font-size="9" fill="#c9d1d9" text-anchor="middle" transform="rotate(-45 513.94 235.00)">13.11.2025</text><text x="592.94" y="235.00" font-size="9" fill="#c9d1d9" text-anchor="middle" transform="rotate(-45 592.94 235.00)">04.12.2025</text><text x="671.93" y="235.00" font-size="9" fill="#c9d1d9" text-anchor="middle" transform="rotate(-45 671.93 235.00)">18.12.2025</text><text x="750.92" y="235.00" font-size="9" fill="#c9d1d9" text-anchor="middle" transform="rotate(-45 750.92 235.00)">08.01.2026</text><text x="829.91" y="235.00" font-size="9" fill="#c9d1d9" text-anchor="middle" transform="rotate(-45 829.91 235.00)">29.01.2026</text>
  </g>
</svg>