<svg xmlns="http://www.w3.org/2000/svg" width="900" height="290" style="font-family: -apple-system, BlinkMacSystemFont, 'Segoe UI', Helvetica, Arial, sans-serif;">
  <rect width="100%" height="100%" fill="#0d1117"/>
  <g>
    <line x1="40" y1="220.00" x2="860" y2="220.00" stroke="#30363d"/><text x="32" y="224.00" font-size="10" fill="#c9d1d9" text-anchor="end">0</text><line x1="40" y1="175.00" x2="860" y2="175.00" stroke="#30363d"/><text x="32" y="179.00" font-size="10" fill="#c9d1d9" text-anchor="end">500</text><line x1="40" y1="130.00" x2="860" y2="130.00" stroke="#30363d"/><text x="32" y="134.00" font-size="10" fill="#c9d1d9" text-anchor="end">1k</text><line x1="40" y1="85.00" x2="860" y2="85.00" stroke="#30363d"/><text x="32" y="89.00" font-size="10" fill="#c9d1d9" text-anchor="end">1.5k</text><line x1="40" y1="40.00" x2="860" y2="40.00" stroke="#30363d"/><text x="32" y="44.00" font-size="10" fill="#c9d1d9" text-anchor="end">2k</text>
    <line x1="40.00" y1="40" x2="40.00" y2="220" stroke="#30363d" opacity="0.5"/><line x1="118.38" y1="40" x2="118.38" y2="220" stroke="#30363d" opacity="0.5"/><line x1="196.76" y1="40" x2="196.76" y2="220" stroke="#30363d" opacity="0.5"/><line x1="275.15" y1="40" x2="275.15" y2="220" stroke="#30363d" opacity="0.5"/><line x1="353.53" y1="40" x2="353.53" y2="220" stroke="#30363d" opacity="0.5"/><line x1="431.91" y1="40" x2="431.91" y2="220" stroke="#30363d" opacity="0.5"/><line x1="510.29" y1="40" x2="510.29" y2="220" stroke="#30363d" opacity="0.5"/><line x1="588.68" y1="40" x2="588.68" y2="220" stroke="#30363d" opacity="0.5"/><line x1="667.06" y1="40" x2="667.06" y2="220" stroke="#30363d" opacity="0.5"/><line x1="745.44" y1="40" x2="745.44" y2="220" stroke="#30363d" opacity="0.5"/><line x1="823.82" y1="40" x2="823.82" y2="220" stroke="#30363d" opacity="0.5"/>
    <line x1="40" y1="220" x2="860" y2="220" stroke="#30363d"/>
    <line x1="40" y1="40"   x2="40"   y2="220" stroke="#30363d"/>
    <path d="M 40.00 219.82 L 46.03 211.81 L 52.06 211.81 L 58.09 211.81 L 64.12 171.85 L 70.15 171.58 L 76.18 164.38 L 82.21 118.93 L 88.24 119.11 L 94.26 111.10 L 100.29 110.56 L 106.32 110.56 L 112.35 110.56 L 118.38 95.35 L 124.41 95.35 L 130.44 95.35 L 136.47 94.63 L 142.50 94.54 L 148.53 94.45 L 154.56 94.09 L 160.59 94.09 L 166.62 94.09 L 172.65 94.09 L 178.68 94.09 L 184.71 94.09 L 190.74 94.09 L 196.76 94.09 L 202.79 94.09 L 208.82 91.84 L 214.85 83.65 L 220.88 83.65 L 226.91 83.47 L 232.94 83.65 L 238.97 91.03 L 245.00 91.03 L 251.03 91.03 L 257.06 91.03 L 263.09 91.03 L 269.12 91.03 L 275.15 91.03 L 281.18 91.03 L 287.21 91.03 L 293.24 91.03 L 299.26 91.03 L 305.29 90.94 L 311.32 91.03 L 317.35 90.94 L 323.38 90.94 L 329.41 90.94 L 335.44 90.94 L 341.47 90.94 L 347.50 90.94 L 353.53 90.94 L 359.56 90.94 L 365.59 90.94 L 371.62 90.94 L 377.65 90.94 L 383.68 90.94 L 389.71 90.94 L 395.74 90.94 L 401.76 90.94 L 407.79 90.94 L 413.82 90.94 L 419.85 90.94 L 425.88 90.94 L 431.91 90.94 L 437.94 90.94 L 443.97 90.94 L 450.00 90.94 L 456.03 90.94 L 462.06 90.94 L 468.09 123.79 L 474.12 123.79 L 480.15 123.79 L 486.18 123.79 L 492.21 123.79 L 498.24 123.79 L 504.26 123.79 L 510.29 123.79 L 516.32 123.79 L 522.35 123.79 L 528.38 123.79 L 534.41 123.79 L 540.44 123.79 L 546.47 123.79 L 552.50 123.79 L 558.53 123.79 L 564.56 123.79 L 570.59 123.79 L 576.62 123.79 L 582.65 123.79 L 588.68 123.79 L 594.71 123.79 L 600.74 123.79 L 606.76 123.79 L 612.79 123.79 L 618.82 123.79 L 624.85 123.79 L 630.88 123.79 L 636.91 123.79 L 642.94 123.79 L 648.97 123.79 L 655.00 123.79 L 661.03 123.79 L 667.06 123.79 L 673.09 123.79 L 679.12 123.79 L 685.15 123.79 L 691.18 123.79 L 697.21 123.79 L 703.24 123.79 L 709.26 123.79 L 715.29 123.79 L 721.32 123.79 L 727.35 123.79 L 733.38 123.79 L 739.41 123.79 L 745.44 123.79 L 751.47 123.79 L 757.50 123.79 L 763.53 123.79 L 769.56 123.79 L 775.59 123.79 L 781.62 123.79 L 787.65 123.79 L 793.68 123.79 L 799.71 123.79 L 805.74 123.79 L 811.76 123.79 L 817.79 123.79 L 823.82 123.79 L 829.85 123.79 L 835.88 123.79 L 841.91 123.79 L 847.94 123.79 L 853.97 123.79 L 860.00 123.79" fill="none" stroke="#3fb950" stroke-width="2"/>
    <circle cx="860.00" cy="123.79" r="3" fill="#3fb950"/>
    <text x="40.00" y="235.00" font-size="9" fill="#c9d1d9" text-anchor="middle" transform="rotate(-45 40.00 235.00)">09.08.2025</text><text x="118.38" y="235.00" font-size="9" fill="#c9d1d9" text-anchor="middle" transform="rotate(-45 118.38 235.00)">13.08.2025</text><text x="196.76" y="235.00" font-size="9" fill="#c9d1d9" text-anchor="middle" transform="rotate(-45 196.76 235.00)">20.08.2025</text><text x="275.15" y="235.00" font-size="9" fill="#c9d1d9" text-anchor="middle" transform="rotate(-45 275.15 235.00)">25.08.2025</text><text x="353.53" y="235.00" font-size="9" fill="#c9d1d9" text-anchor="middle" transform="rotate(-45 353.53 235.00)">02.09.2025</text><text x="431.91" y="235.00" font-size="9" fill="#c9d1d9" text-anchor="middle" transform="rotate(-45 431.91 235.00)">15.09.2025</text><text x="510.29" y="235.00" font-size="9" fill="#c9d1d9" text-anchor="middle" transform="rotate(-45 510.29 235.00)">26.09.2025</text><text x="588.68" y="235.00" font-size="9" fill="#c9d1d9" text-anchor="middle" transform="rotate(-45 588.68 235.00)">09.10.2025</text><text x="667.06" y="235.00" font-size="9" fill="#c9d1d9" text-anchor="middle" transform="rotate(-45 667.06 235.00)">22.10.2025</text><text x="745.44" y="235.00" font-size="9" fill="#c9d1d9" text-anchor="middle" transform="rotate(-45 745.44 235.00)">04.11.2025</text><text x="823.82" y="235.00" font-size="9" fill="#c9d1d9" text-anchor="middle" transform="rotate(-45 823.82 235.00)">17.11.2025</text>
  </g>
</svg>