<svg xmlns="http://www.w3.org/2000/svg" width="900" height="290" style="font-family: -apple-system, BlinkMacSystemFont, 'Segoe UI', Helvetica, Arial, sans-serif;">
  <rect width="100%" height="100%" fill="#0d1117"/>
  <g>
    <line x1="40" y1="220.00" x2="860" y2="220.00" stroke="#30363d"/><text x="32" y="224.00" font-size="10" fill="#c9d1d9" text-anchor="end">0</text><line x1="40" y1="175.00" x2="860" y2="175.00" stroke="#30363d"/><text x="32" y="179.00" font-size="10" fill="#c9d1d9" text-anchor="end">500</text><line x1="40" y1="130.00" x2="860" y2="130.00" stroke="#30363d"/><text x="32" y="134.00" font-size="10" fill="#c9d1d9" text-anchor="end">1k</text><line x1="40" y1="85.00" x2="860" y2="85.00" stroke="#30363d"/><text x="32" y="89.00" font-size="10" fill="#c9d1d9" text-anchor="end">1.5k</text><line x1="40" y1="40.00" x2="860" y2="40.00" stroke="#30363d"/><text x="32" y="44.00" font-size="10" fill="#c9d1d9" text-anchor="end">2k</text>
    <line x1="40.00" y1="40" x2="40.00" y2="220" stroke="#30363d" opacity="0.5"/><line x1="121.42" y1="40" x2="121.42" y2="220" stroke="#30363d" opacity="0.5"/><line x1="202.84" y1="40" x2="202.84" y2="220" stroke="#30363d" opacity="0.5"/><line x1="284.26" y1="40" x2="284.26" y2="220" stroke="#30363d" opacity="0.5"/><line x1="365.67" y1="40" x2="365.67" y2="220" stroke="#30363d" opacity="0.5"/><line x1="447.09" y1="40" x2="447.09" y2="220" stroke="#30363d" opacity="0.5"/><line x1="528.51" y1="40" x2="528.51" y2="220" stroke="#30363d" opacity="0.5"/><line x1="609.93" y1="40" x2="609.93" y2="220" stroke="#30363d" opacity="0.5"/><line x1="691.35" y1="40" x2="691.35" y2="220" stroke="#30363d" opacity="0.5"/><line x1="772.77" y1="40" x2="772.77" y2="220" stroke="#30363d" opacity="0.5"/><line x1="854.18" y1="40" x2="854.18" y2="220" stroke="#30363d" opacity="0.5"/>
    <line x1="40" y1="220" x2="860" y2="220" stroke="#30363d"/>
    <line x1="40" y1="40"   x2="40"   y2="220" stroke="#30363d"/>
    <path d="M 40.00 219.82 L 45.82 211.81 L 51.63 211.81 L 57.45 211.81 L 63.26 171.85 L 69.08 171.58 L 74.89 164.38 L 80.71 118.93 L 86.52 119.11 L 92.34 111.10 L 98.16 110.56 L 103.97 110.56 L 109.79 110.56 L 115.60 95.35 L 121.42 95.35 L 127.23 95.35 L 133.05 94.63 L 138.87 94.54 L 144.68 94.45 L 150.50 94.09 L 156.31 94.09 L 162.13 94.09 L 167.94 94.09 L 173.76 94.09 L 179.57 94.09 L 185.39 94.09 L 191.21 94.09 L 197.02 94.09 L 202.84 91.84 L 208.65 83.65 L 214.47 83.65 L 220.28 83.47 L 226.10 83.65 L 231.91 91.03 L 237.73 91.03 L 243.55 91.03 L 249.36 91.03 L 255.18 91.03 L 260.99 91.03 L 266.81 91.03 L 272.62 91.03 L 278.44 91.03 L 284.26 91.03 L 290.07 91.03 L 295.89 90.94 L 301.70 91.03 L 307.52 90.94 L 313.33 90.94 L 319.15 90.94 L 324.96 90.94 L 330.78 90.94 L 336.60 90.94 L 342.41 90.94 L 348.23 90.94 L 354.04 90.94 L 359.86 90.94 L 365.67 90.94 L 371.49 90.94 L 377.30 90.94 L 383.12 90.94 L 388.94 90.94 L 394.75 90.94 L 400.57 90.94 L 406.38 90.94 L 412.20 90.94 L 418.01 90.94 L 423.83 90.94 L 429.65 90.94 L 435.46 90.94 L 441.28 90.94 L 447.09 90.94 L 452.91 123.79 L 458.72 123.79 L 464.54 123.79 L 470.35 123.79 L 476.17 123.79 L 481.99 123.79 L 487.80 123.79 L 493.62 123.79 L 499.43 123.79 L 505.25 123.79 L 511.06 123.79 L 516.88 123.79 L 522.70 123.79 L 528.51 123.79 L 534.33 123.79 L 540.14 123.79 L 545.96 123.79 L 551.77 123.79 L 557.59 123.79 L 563.40 123.79 L 569.22 123.79 L 575.04 123.79 L 580.85 123.79 L 586.67 123.79 L 592.48 123.79 L 598.30 123.79 L 604.11 123.79 L 609.93 123.79 L 615.74 123.79 L 621.56 123.79 L 627.38 123.79 L 633.19 123.79 L 639.01 123.79 L 644.82 123.79 L 650.64 123.79 L 656.45 123.79 L 662.27 123.79 L 668.09 123.79 L 673.90 123.79 L 679.72 123.79 L 685.53 123.79 L 691.35 123.79 L 697.16 123.79 L 702.98 123.79 L 708.79 123.79 L 714.61 123.79 L 720.43 123.79 L 726.24 123.79 L 732.06 123.79 L 737.87 123.79 L 743.69 123.79 L 749.50 123.79 L 755.32 123.79 L 761.13 123.79 L 766.95 123.79 L 772.77 123.79 L 778.58 123.79 L 784.40 123.79 L 790.21 123.79 L 796.03 123.79 L 801.84 123.79 L 807.66 123.79 L 813.48 123.79 L 819.29 123.79 L 825.11 123.79 L 830.92 123.79 L 836.74 123.79 L 842.55 123.79 L 848.37 123.79 L 854.18 123.79 L 860.00 123.79" fill="none" stroke="#3fb950" stroke-width="2"/>
    <circle cx="860.00" cy="123.79" r="3" fill="#3fb950"/>
    <text x="40.00" y="235.00" font-size="9" fill="#c9d1d9" text-anchor="middle" transform="rotate(-45 40.00 235.00)">09.08.2025</text><text x="121.42" y="235.00" font-size="9" fill="#c9d1d9" text-anchor="middle" transform="rotate(-45 121.42 235.00)">13.08.2025</text><text x="202.84" y="235.00" font-size="9" fill="#c9d1d9" text-anchor="middle" transform="rotate(-45 202.84 235.00)">21.08.2025</text><text x="284.26" y="235.00" font-size="9" fill="#c9d1d9" text-anchor="middle" transform="rotate(-45 284.26 235.00)">28.08.2025</text><text x="365.67" y="235.00" font-size="9" fill="#c9d1d9" text-anchor="middle" transform="rotate(-45 365.67 235.00)">06.09.2025</text><text x="447.09" y="235.00" font-size="9" fill="#c9d1d9" text-anchor="middle" transform="rotate(-45 447.09 235.00)">20.09.2025</text><text x="528.51" y="235.00" font-size="9" fill="#c9d1d9" text-anchor="middle" transform="rotate(-45 528.51 235.00)">02.10.2025</text><text x="609.93" y="235.00" font-size="9" fill="#c9d1d9" text-anchor="middle" transform="rotate(-45 609.93 235.00)">16.10.2025</text><text x="691.35" y="235.00" font-size="9" fill="#c9d1d9" text-anchor="middle" transform="rotate(-45 691.35 235.00)">30.10.2025</text><text x="772.77" y="235.00" font-size="9" fill="#c9d1d9" text-anchor="middle" transform="rotate(-45 772.77 235.00)">13.11.2025</text><text x="854.18" y="235.00" font-size="9" fill="#c9d1d9" text-anchor="middle" transform="rotate(-45 854.18 235.00)">27.11.2025</text>
  </g>
</svg>