<svg xmlns="http://www.w3.org/2000/svg" width="900" height="290" style="font-family: -apple-system, BlinkMacSystemFont, 'Segoe UI', Helvetica, Arial, sans-serif;">
  <rect width="100%" height="100%" fill="#0d1117"/>
  <g>
    <line x1="40" y1="220.00" x2="860" y2="220.00" stroke="#30363d"/><text x="32" y="224.00" font-size="10" fill="#c9d1d9" text-anchor="end">0</text><line x1="40" y1="175.00" x2="860" y2="175.00" stroke="#30363d"/><text x="32" y="179.00" font-size="10" fill="#c9d1d9" text-anchor="end">500</text><line x1="40" y1="130.00" x2="860" y2="130.00" stroke="#30363d"/><text x="32" y="134.00" font-size="10" fill="#c9d1d9" text-anchor="end">1k</text><line x1="40" y1="85.00" x2="860" y2="85.00" stroke="#30363d"/><text x="32" y="89.00" font-size="10" fill="#c9d1d9" text-anchor="end">1.5k</text><line x1="40" y1="40.00" x2="860" y2="40.00" stroke="#30363d"/><text x="32" y="44.00" font-size="10" fill="#c9d1d9" text-anchor="end">2k</text>
    <line x1="40.00" y1="40" x2="40.00" y2="220" stroke="#30363d" opacity="0.5"/><line x1="108.33" y1="40" x2="108.33" y2="220" stroke="#30363d" opacity="0.5"/><line x1="176.67" y1="40" x2="176.67" y2="220" stroke="#30363d" opacity="0.5"/><line x1="245.00" y1="40" x2="245.00" y2="220" stroke="#30363d" opacity="0.5"/><line x1="313.33" y1="40" x2="313.33" y2="220" stroke="#30363d" opacity="0.5"/><line x1="381.67" y1="40" x2="381.67" y2="220" stroke="#30363d" opacity="0.5"/><line x1="450.00" y1="40" x2="450.00" y2="220" stroke="#30363d" opacity="0.5"/><line x1="518.33" y1="40" x2="518.33" y2="220" stroke="#30363d" opacity="0.5"/><line x1="586.67" y1="40" x2="586.67" y2="220" stroke="#30363d" opacity="0.5"/><line x1="655.00" y1="40" x2="655.00" y2="220" stroke="#30363d" opacity="0.5"/><line x1="723.33" y1="40" x2="723.33" y2="220" stroke="#30363d" opacity="0.5"/><line x1="791.67" y1="40" x2="791.67" y2="220" stroke="#30363d" opacity="0.5"/><line x1="860.00" y1="40" x2="860.00" y2="220" stroke="#30363d" opacity="0.5"/>
    <line x1="40" y1="220" x2="860" y2="220" stroke="#30363d"/>
    <line x1="40" y1="40"   x2="40"   y2="220" stroke="#30363d"/>
    <path d="M 40.00 219.82 L 74.17 211.81 L 108.33 211.81 L 142.50 211.81 L 176.67 171.85 L 210.83 171.58 L 245.00 164.38 L 279.17 118.93 L 313.33 119.11 L 347.50 111.10 L 381.67 110.56 L 415.83 110.56 L 450.00 110.56 L 484.17 95.35 L 518.33 95.35 L 552.50 95.35 L 586.67 94.63 L 620.83 94.54 L 655.00 94.45 L 689.17 94.09 L 723.33 94.09 L 757.50 94.09 L 791.67 94.09 L 825.83 94.09 L 860.00 94.09" fill="none" stroke="#3fb950" stroke-width="2"/>
    <circle cx="860.00" cy="94.09" r="3" fill="#3fb950"/>
    <text x="40.00" y="235.00" font-size="9" fill="#c9d1d9" text-anchor="middle" transform="rotate(-45 40.00 235.00)">09.08.2025</text><text x="108.33" y="235.00" font-size="9" fill="#c9d1d9" text-anchor="middle" transform="rotate(-45 108.33 235.00)">09.08.2025</text><text x="176.67" y="235.00" font-size="9" fill="#c9d1d9" text-anchor="middle" transform="rotate(-45 176.67 235.00)">09.08.2025</text><text x="245.00" y="235.00" font-size="9" fill="#c9d1d9" text-anchor="middle" transform="rotate(-45 245.00 235.00)">09.08.2025</text><text x="313.33" y="235.00" font-size="9" fill="#c9d1d9" text-anchor="middle" transform="rotate(-45 313.33 235.00)">12.08.2025</text><text x="381.67" y="235.00" font-size="9" fill="#c9d1d9" text-anchor="middle" transform="rotate(-45 381.67 235.00)">13.08.2025</text><text x="450.00" y="235.00" font-size="9" fill="#c9d1d9" text-anchor="middle" transform="rotate(-45 450.00 235.00)">13.08.2025</text><text x="518.33" y="235.00" font-size="9" fill="#c9d1d9" text-anchor="middle" transform="rotate(-45 518.33 235.00)">13.08.2025</text><text x="586.67" y="235.00" font-size="9" fill="#c9d1d9" text-anchor="middle" transform="rotate(-45 586.67 235.00)">13.08.2025</text><text x="655.00" y="235.00" font-size="9" fill="#c9d1d9" text-anchor="middle" transform="rotate(-45 655.00 235.00)">13.08.2025</text><text x="723.33" y="235.00" font-size="9" fill="#c9d1d9" text-anchor="middle" transform="rotate(-45 723.33 235.00)">14.08.2025</text><text x="791.67" y="235.00" font-size="9" fill="#c9d1d9" text-anchor="middle" transform="rotate(-45 791.67 235.00)">16.08.2025</text><text x="860.00" y="235.00" font-size="9" fill="#c9d1d9" text-anchor="middle" transform="rotate(-45 860.00 235.00)">18.08.2025</text>
  </g>
</svg>