<svg xmlns="http://www.w3.org/2000/svg" width="900" height="290" style="font-family: -apple-system, BlinkMacSystemFont, 'Segoe UI', Helvetica, Arial, sans-serif;">
  <rect width="100%" height="100%" fill="white"/>
  <g>
    <line x1="40" y1="220.00" x2="860" y2="220.00" stroke="#e5e7eb"/><text x="32" y="224.00" font-size="10" fill="#111827" text-anchor="end">0</text><line x1="40" y1="175.00" x2="860" y2="175.00" stroke="#e5e7eb"/><text x="32" y="179.00" font-size="10" fill="#111827" text-anchor="end">500</text><line x1="40" y1="130.00" x2="860" y2="130.00" stroke="#e5e7eb"/><text x="32" y="134.00" font-size="10" fill="#111827" text-anchor="end">1k</text><line x1="40" y1="85.00" x2="860" y2="85.00" stroke="#e5e7eb"/><text x="32" y="89.00" font-size="10" fill="#111827" text-anchor="end">1.5k</text><line x1="40" y1="40.00" x2="860" y2="40.00" stroke="#e5e7eb"/><text x="32" y="44.00" font-size="10" fill="#111827" text-anchor="end">2k</text>
    <line x1="40.00" y1="40" x2="40.00" y2="220" stroke="#e5e7eb" opacity="0.5"/><line x1="121.63" y1="40" x2="121.63" y2="220" stroke="#e5e7eb" opacity="0.5"/><line x1="203.26" y1="40" x2="203.26" y2="220" stroke="#e5e7eb" opacity="0.5"/><line x1="284.89" y1="40" x2="284.89" y2="220" stroke="#e5e7eb" opacity="0.5"/><line x1="366.52" y1="40" x2="366.52" y2="220" stroke="#e5e7eb" opacity="0.5"/><line x1="448.14" y1="40" x2="448.14" y2="220" stroke="#e5e7eb" opacity="0.5"/><line x1="529.77" y1="40" x2="529.77" y2="220" stroke="#e5e7eb" opacity="0.5"/><line x1="611.40" y1="40" x2="611.40" y2="220" stroke="#e5e7eb" opacity="0.5"/><line x1="693.03" y1="40" x2="693.03" y2="220" stroke="#e5e7eb" opacity="0.5"/><line x1="774.66" y1="40" x2="774.66" y2="220" stroke="#e5e7eb" opacity="0.5"/><line x1="856.29" y1="40" x2="856.29" y2="220" stroke="#e5e7eb" opacity="0.5"/>
    <line x1="40" y1="220" x2="860" y2="220" stroke="#9ca3af"/>
    <line x1="40" y1="40"   x2="40"   y2="220" stroke="#9ca3af"/>
    <path d="M 40.00 219.82 L 43.71 211.81 L 47.42 211.81 L 51.13 211.81 L 54.84 171.85 L 58.55 171.58 L 62.26 164.38 L 65.97 118.93 L 69.68 119.11 L 73.39 111.10 L 77.10 110.56 L 80.81 110.56 L 84.52 110.56 L 88.24 95.35 L 91.95 95.35 L 95.66 95.35 L 99.37 94.63 L 103.08 94.54 L 106.79 94.45 L 110.50 94.09 L 114.21 94.09 L 117.92 94.09 L 121.63 94.09 L 125.34 94.09 L 129.05 94.09 L 132.76 94.09 L 136.47 94.09 L 140.18 94.09 L 143.89 91.84 L 147.60 83.65 L 151.31 83.65 L 155.02 83.47 L 158.73 83.65 L 162.44 91.03 L 166.15 91.03 L 169.86 91.03 L 173.57 91.03 L 177.29 91.03 L 181.00 91.03 L 184.71 91.03 L 188.42 91.03 L 192.13 91.03 L 195.84 91.03 L 199.55 91.03 L 203.26 90.94 L 206.97 91.03 L 210.68 90.94 L 214.39 90.94 L 218.10 90.94 L 221.81 90.94 L 225.52 90.94 L 229.23 90.94 L 232.94 90.94 L 236.65 90.94 L 240.36 90.94 L 244.07 90.94 L 247.78 90.94 L 251.49 90.94 L 255.20 90.94 L 258.91 90.94 L 262.62 90.94 L 266.33 90.94 L 270.05 90.94 L 273.76 90.94 L 277.47 90.94 L 281.18 90.94 L 284.89 90.94 L 288.60 90.94 L 292.31 90.94 L 296.02 90.94 L 299.73 90.94 L 303.44 123.79 L 307.15 123.79 L 310.86 123.79 L 314.57 123.79 L 318.28 123.79 L 321.99 123.79 L 325.70 123.79 L 329.41 123.79 L 333.12 123.79 L 336.83 123.79 L 340.54 123.79 L 344.25 123.79 L 347.96 123.79 L 351.67 123.79 L 355.38 123.79 L 359.10 123.79 L 362.81 123.79 L 366.52 123.79 L 370.23 123.79 L 373.94 123.79 L 377.65 123.79 L 381.36 123.79 L 385.07 123.79 L 388.78 123.79 L 392.49 123.79 L 396.20 123.79 L 399.91 123.79 L 403.62 123.79 L 407.33 123.79 L 411.04 123.79 L 414.75 123.79 L 418.46 123.79 L 422.17 123.79 L 425.88 123.79 L 429.59 123.79 L 433.30 123.79 L 437.01 123.79 L 440.72 123.79 L 444.43 123.79 L 448.14 123.79 L 451.86 123.79 L 455.57 123.79 L 459.28 123.79 L 462.99 123.79 L 466.70 123.79 L 470.41 123.79 L 474.12 123.79 L 477.83 123.79 L 481.54 123.79 L 485.25 123.79 L 488.96 123.79 L 492.67 123.79 L 496.38 123.79 L 500.09 123.79 L 503.80 123.79 L 507.51 123.79 L 511.22 123.79 L 514.93 123.79 L 518.64 123.79 L 522.35 123.79 L 526.06 123.79 L 529.77 123.79 L 533.48 123.79 L 537.19 123.79 L 540.90 123.79 L 544.62 123.79 L 548.33 123.79 L 552.04 123.79 L 555.75 123.79 L 559.46 123.79 L 563.17 123.79 L 566.88 123.79 L 570.59 123.79 L 574.30 123.79 L 578.01 123.79 L 581.72 123.79 L 585.43 123.79 L 589.14 115.42 L 592.85 111.64 L 596.56 107.86 L 600.27 104.08 L 603.98 100.30 L 607.69 95.98 L 611.40 95.98 L 615.11 95.98 L 618.82 95.98 L 622.53 85.72 L 626.24 85.72 L 629.95 85.72 L 633.67 85.72 L 637.38 85.72 L 641.09 85.72 L 644.80 85.72 L 648.51 85.72 L 652.22 85.72 L 655.93 85.72 L 659.64 85.72 L 663.35 85.72 L 667.06 85.72 L 670.77 85.72 L 674.48 85.72 L 678.19 85.72 L 681.90 85.72 L 685.61 85.72 L 689.32 85.72 L 693.03 85.72 L 696.74 85.72 L 700.45 85.72 L 704.16 85.72 L 707.87 85.72 L 711.58 85.72 L 715.29 85.72 L 719.00 85.72 L 722.71 85.72 L 726.43 85.72 L 730.14 85.72 L 733.85 85.72 L 737.56 85.72 L 741.27 85.72 L 744.98 85.72 L 748.69 85.72 L 752.40 85.72 L 756.11 85.72 L 759.82 85.72 L 763.53 85.72 L 767.24 85.72 L 770.95 85.72 L 774.66 85.72 L 778.37 85.72 L 782.08 85.72 L 785.79 85.72 L 789.50 85.72 L 793.21 85.72 L 796.92 85.72 L 800.63 85.72 L 804.34 85.72 L 808.05 85.72 L 811.76 85.72 L 815.48 85.72 L 819.19 85.72 L 822.90 85.72 L 826.61 85.72 L 830.32 85.72 L 834.03 85.72 L 837.74 85.72 L 841.45 85.72 L 845.16 85.72 L 848.87 85.72 L 852.58 85.72 L 856.29 85.72 L 860.00 85.72" fill="none" stroke="#111827" stroke-width="2"/>
    <circle cx="860.00" cy="85.72" r="3" fill="#111827"/>
    <text x="40.00" y="235.00" font-size="9" fill="#111827" text-anchor="middle" transform="rotate(-45 40.00 235.00)">09.08.2025</text><text x="121.63" y="235.00" font-size="9" fill="#111827" text-anchor="middle" transform="rotate(-45 121.63 235.00)">16.08.2025</text><text x="203.26" y="235.00" font-size="9" fill="#111827" text-anchor="middle" transform="rotate(-45 203.26 235.00)">28.08.2025</text><text x="284.89" y="235.00" font-size="9" fill="#111827" text-anchor="middle" transform="rotate(-45 284.89 235.00)">16.09.2025</text><text x="366.52" y="235.00" font-size="9" fill="#111827" text-anchor="middle" transform="rotate(-45 366.52 235.00)">06.10.2025</text><text x="448.14" y="235.00" font-size="9" fill="#111827" text-anchor="middle" transform="rotate(-45 448.14 235.00)">28.10.2025</text><text x="529.77" y="235.00" font-size="9" fill="#111827" text-anchor="middle" transform="rotate(-45 529.77 235.00)">19.11.2025</text><text x="611.40" y="235.00" font-size="9" fill="#111827" text-anchor="middle" transform="rotate(-45 611.40 235.00)">05.12.2025</text><text x="693.03" y="235.00" font-size="9" fill="#111827" text-anchor="middle" transform="rotate(-45 693.03 235.00)">26.12.2025</text><text x="774.66" y="235.00" font-size="9" fill="#111827" text-anchor="middle" transform="rotate(-45 774.66 235.00)">17.01.2026</text><text x="856.29" y="235.00" font-size="9" fill="#111827" text-anchor="middle" transform="rotate(-45 856.29 235.00)">08.02.2026</text>
  </g>
</svg>