<svg xmlns="http://www.w3.org/2000/svg" width="900" height="290" style="font-family: -apple-system, BlinkMacSystemFont, 'Segoe UI', Helvetica, Arial, sans-serif;">
  <rect width="100%" height="100%" fill="#0d1117"/>
  <g>
    <line x1="40" y1="220.00" x2="860" y2="220.00" stroke="#30363d"/><text x="32" y="224.00" font-size="10" fill="#c9d1d9" text-anchor="end">0</text><line x1="40" y1="175.00" x2="860" y2="175.00" stroke="#30363d"/><text x="32" y="179.00" font-size="10" fill="#c9d1d9" text-anchor="end">500</text><line x1="40" y1="130.00" x2="860" y2="130.00" stroke="#30363d"/><text x="32" y="134.00" font-size="10" fill="#c9d1d9" text-anchor="end">1k</text><line x1="40" y1="85.00" x2="860" y2="85.00" stroke="#30363d"/><text x="32" y="89.00" font-size="10" fill="#c9d1d9" text-anchor="end">1.5k</text><line x1="40" y1="40.00" x2="860" y2="40.00" stroke="#30363d"/><text x="32" y="44.00" font-size="10" fill="#c9d1d9" text-anchor="end">2k</text>
    <line x1="40.00" y1="40" x2="40.00" y2="220" stroke="#30363d" opacity="0.5"/><line x1="121.23" y1="40" x2="121.23" y2="220" stroke="#30363d" opacity="0.5"/><line x1="202.45" y1="40" x2="202.45" y2="220" stroke="#30363d" opacity="0.5"/><line x1="283.68" y1="40" x2="283.68" y2="220" stroke="#30363d" opacity="0.5"/><line x1="364.91" y1="40" x2="364.91" y2="220" stroke="#30363d" opacity="0.5"/><line x1="446.13" y1="40" x2="446.13" y2="220" stroke="#30363d" opacity="0.5"/><line x1="527.36" y1="40" x2="527.36" y2="220" stroke="#30363d" opacity="0.5"/><line x1="608.58" y1="40" x2="608.58" y2="220" stroke="#30363d" opacity="0.5"/><line x1="689.81" y1="40" x2="689.81" y2="220" stroke="#30363d" opacity="0.5"/><line x1="771.04" y1="40" x2="771.04" y2="220" stroke="#30363d" opacity="0.5"/><line x1="852.26" y1="40" x2="852.26" y2="220" stroke="#30363d" opacity="0.5"/>
    <line x1="40" y1="220" x2="860" y2="220" stroke="#30363d"/>
    <line x1="40" y1="40"   x2="40"   y2="220" stroke="#30363d"/>
    <path d="M 40.00 219.82 L 43.87 211.81 L 47.74 211.81 L 51.60 211.81 L 55.47 171.85 L 59.34 171.58 L 63.21 164.38 L 67.08 118.93 L 70.94 119.11 L 74.81 111.10 L 78.68 110.56 L 82.55 110.56 L 86.42 110.56 L 90.28 95.35 L 94.15 95.35 L 98.02 95.35 L 101.89 94.63 L 105.75 94.54 L 109.62 94.45 L 113.49 94.09 L 117.36 94.09 L 121.23 94.09 L 125.09 94.09 L 128.96 94.09 L 132.83 94.09 L 136.70 94.09 L 140.57 94.09 L 144.43 94.09 L 148.30 91.84 L 152.17 83.65 L 156.04 83.65 L 159.91 83.47 L 163.77 83.65 L 167.64 91.03 L 171.51 91.03 L 175.38 91.03 L 179.25 91.03 L 183.11 91.03 L 186.98 91.03 L 190.85 91.03 L 194.72 91.03 L 198.58 91.03 L 202.45 91.03 L 206.32 91.03 L 210.19 90.94 L 214.06 91.03 L 217.92 90.94 L 221.79 90.94 L 225.66 90.94 L 229.53 90.94 L 233.40 90.94 L 237.26 90.94 L 241.13 90.94 L 245.00 90.94 L 248.87 90.94 L 252.74 90.94 L 256.60 90.94 L 260.47 90.94 L 264.34 90.94 L 268.21 90.94 L 272.08 90.94 L 275.94 90.94 L 279.81 90.94 L 283.68 90.94 L 287.55 90.94 L 291.42 90.94 L 295.28 90.94 L 299.15 90.94 L 303.02 90.94 L 306.89 90.94 L 310.75 90.94 L 314.62 123.79 L 318.49 123.79 L 322.36 123.79 L 326.23 123.79 L 330.09 123.79 L 333.96 123.79 L 337.83 123.79 L 341.70 123.79 L 345.57 123.79 L 349.43 123.79 L 353.30 123.79 L 357.17 123.79 L 361.04 123.79 L 364.91 123.79 L 368.77 123.79 L 372.64 123.79 L 376.51 123.79 L 380.38 123.79 L 384.25 123.79 L 388.11 123.79 L 391.98 123.79 L 395.85 123.79 L 399.72 123.79 L 403.58 123.79 L 407.45 123.79 L 411.32 123.79 L 415.19 123.79 L 419.06 123.79 L 422.92 123.79 L 426.79 123.79 L 430.66 123.79 L 434.53 123.79 L 438.40 123.79 L 442.26 123.79 L 446.13 123.79 L 450.00 123.79 L 453.87 123.79 L 457.74 123.79 L 461.60 123.79 L 465.47 123.79 L 469.34 123.79 L 473.21 123.79 L 477.08 123.79 L 480.94 123.79 L 484.81 123.79 L 488.68 123.79 L 492.55 123.79 L 496.42 123.79 L 500.28 123.79 L 504.15 123.79 L 508.02 123.79 L 511.89 123.79 L 515.75 123.79 L 519.62 123.79 L 523.49 123.79 L 527.36 123.79 L 531.23 123.79 L 535.09 123.79 L 538.96 123.79 L 542.83 123.79 L 546.70 123.79 L 550.57 123.79 L 554.43 123.79 L 558.30 123.79 L 562.17 123.79 L 566.04 123.79 L 569.91 123.79 L 573.77 123.79 L 577.64 123.79 L 581.51 123.79 L 585.38 123.79 L 589.25 123.79 L 593.11 123.79 L 596.98 123.79 L 600.85 123.79 L 604.72 123.79 L 608.58 123.79 L 612.45 115.42 L 616.32 111.64 L 620.19 107.86 L 624.06 104.08 L 627.92 100.30 L 631.79 95.98 L 635.66 95.98 L 639.53 95.98 L 643.40 95.98 L 647.26 85.72 L 651.13 85.72 L 655.00 85.72 L 658.87 85.72 L 662.74 85.72 L 666.60 85.72 L 670.47 85.72 L 674.34 85.72 L 678.21 85.72 L 682.08 85.72 L 685.94 85.72 L 689.81 85.72 L 693.68 85.72 L 697.55 85.72 L 701.42 85.72 L 705.28 85.72 L 709.15 85.72 L 713.02 85.72 L 716.89 85.72 L 720.75 85.72 L 724.62 85.72 L 728.49 85.72 L 732.36 85.72 L 736.23 85.72 L 740.09 85.72 L 743.96 85.72 L 747.83 85.72 L 751.70 85.72 L 755.57 85.72 L 759.43 85.72 L 763.30 85.72 L 767.17 85.72 L 771.04 85.72 L 774.91 85.72 L 778.77 85.72 L 782.64 85.72 L 786.51 85.72 L 790.38 85.72 L 794.25 85.72 L 798.11 85.72 L 801.98 85.72 L 805.85 85.72 L 809.72 85.72 L 813.58 85.72 L 817.45 85.72 L 821.32 85.72 L 825.19 85.72 L 829.06 85.72 L 832.92 85.72 L 836.79 85.72 L 840.66 85.72 L 844.53 85.72 L 848.40 85.72 L 852.26 85.72 L 856.13 85.72 L 860.00 85.72" fill="none" stroke="#3fb950" stroke-width="2"/>
    <circle cx="860.00" cy="85.72" r="3" fill="#3fb950"/>
    <text x="40.00" y="235.00" font-size="9" fill="#c9d1d9" text-anchor="middle" transform="rotate(-45 40.00 235.00)">09.08.2025</text><text x="121.23" y="235.00" font-size="9" fill="#c9d1d9" text-anchor="middle" transform="rotate(-45 121.23 235.00)">15.08.2025</text><text x="202.45" y="235.00" font-size="9" fill="#c9d1d9" text-anchor="middle" transform="rotate(-45 202.45 235.00)">28.08.2025</text><text x="283.68" y="235.00" font-size="9" fill="#c9d1d9" text-anchor="middle" transform="rotate(-45 283.68 235.00)">13.09.2025</text><text x="364.91" y="235.00" font-size="9" fill="#c9d1d9" text-anchor="middle" transform="rotate(-45 364.91 235.00)">02.10.2025</text><text x="446.13" y="235.00" font-size="9" fill="#c9d1d9" text-anchor="middle" transform="rotate(-45 446.13 235.00)">23.10.2025</text><text x="527.36" y="235.00" font-size="9" fill="#c9d1d9" text-anchor="middle" transform="rotate(-45 527.36 235.00)">13.11.2025</text><text x="608.58" y="235.00" font-size="9" fill="#c9d1d9" text-anchor="middle" transform="rotate(-45 608.58 235.00)">04.12.2025</text><text x="689.81" y="235.00" font-size="9" fill="#c9d1d9" text-anchor="middle" transform="rotate(-45 689.81 235.00)">18.12.2025</text><text x="771.04" y="235.00" font-size="9" fill="#c9d1d9" text-anchor="middle" transform="rotate(-45 771.04 235.00)">08.01.2026</text><text x="852.26" y="235.00" font-size="9" fill="#c9d1d9" text-anchor="middle" transform="rotate(-45 852.26 235.00)">29.01.2026</text>
  </g>
</svg>