<svg xmlns="http://www.w3.org/2000/svg" width="900" height="290" style="font-family: -apple-system, BlinkMacSystemFont, 'Segoe UI', Helvetica, Arial, sans-serif;">
  <rect width="100%" height="100%" fill="#0d1117"/>
  <g>
    <line x1="40" y1="220.00" x2="860" y2="220.00" stroke="#30363d"/><text x="32" y="224.00" font-size="10" fill="#c9d1d9" text-anchor="end">0</text><line x1="40" y1="175.00" x2="860" y2="175.00" stroke="#30363d"/><text x="32" y="179.00" font-size="10" fill="#c9d1d9" text-anchor="end">500</text><line x1="40" y1="130.00" x2="860" y2="130.00" stroke="#30363d"/><text x="32" y="134.00" font-size="10" fill="#c9d1d9" text-anchor="end">1k</text><line x1="40" y1="85.00" x2="860" y2="85.00" stroke="#30363d"/><text x="32" y="89.00" font-size="10" fill="#c9d1d9" text-anchor="end">1.5k</text><line x1="40" y1="40.00" x2="860" y2="40.00" stroke="#30363d"/><text x="32" y="44.00" font-size="10" fill="#c9d1d9" text-anchor="end">2k</text>
    <line x1="40.00" y1="40" x2="40.00" y2="220" stroke="#30363d" opacity="0.5"/><line x1="120.09" y1="40" x2="120.09" y2="220" stroke="#30363d" opacity="0.5"/><line x1="200.19" y1="40" x2="200.19" y2="220" stroke="#30363d" opacity="0.5"/><line x1="280.28" y1="40" x2="280.28" y2="220" stroke="#30363d" opacity="0.5"/><line x1="360.37" y1="40" x2="360.37" y2="220" stroke="#30363d" opacity="0.5"/><line x1="440.47" y1="40" x2="440.47" y2="220" stroke="#30363d" opacity="0.5"/><line x1="520.56" y1="40" x2="520.56" y2="220" stroke="#30363d" opacity="0.5"/><line x1="600.65" y1="40" x2="600.65" y2="220" stroke="#30363d" opacity="0.5"/><line x1="680.74" y1="40" x2="680.74" y2="220" stroke="#30363d" opacity="0.5"/><line x1="760.84" y1="40" x2="760.84" y2="220" stroke="#30363d" opacity="0.5"/><line x1="840.93" y1="40" x2="840.93" y2="220" stroke="#30363d" opacity="0.5"/>
    <line x1="40" y1="220" x2="860" y2="220" stroke="#30363d"/>
    <line x1="40" y1="40"   x2="40"   y2="220" stroke="#30363d"/>
    <path d="M 40.00 219.82 L 43.81 211.81 L 47.63 211.81 L 51.44 211.81 L 55.26 171.85 L 59.07 171.58 L 62.88 164.38 L 66.70 118.93 L 70.51 119.11 L 74.33 111.10 L 78.14 110.56 L 81.95 110.56 L 85.77 110.56 L 89.58 95.35 L 93.40 95.35 L 97.21 95.35 L 101.02 94.63 L 104.84 94.54 L 108.65 94.45 L 112.47 94.09 L 116.28 94.09 L 120.09 94.09 L 123.91 94.09 L 127.72 94.09 L 131.53 94.09 L 135.35 94.09 L 139.16 94.09 L 142.98 94.09 L 146.79 91.84 L 150.60 83.65 L 154.42 83.65 L 158.23 83.47 L 162.05 83.65 L 165.86 91.03 L 169.67 91.03 L 173.49 91.03 L 177.30 91.03 L 181.12 91.03 L 184.93 91.03 L 188.74 91.03 L 192.56 91.03 L 196.37 91.03 L 200.19 91.03 L 204.00 91.03 L 207.81 90.94 L 211.63 91.03 L 215.44 90.94 L 219.26 90.94 L 223.07 90.94 L 226.88 90.94 L 230.70 90.94 L 234.51 90.94 L 238.33 90.94 L 242.14 90.94 L 245.95 90.94 L 249.77 90.94 L 253.58 90.94 L 257.40 90.94 L 261.21 90.94 L 265.02 90.94 L 268.84 90.94 L 272.65 90.94 L 276.47 90.94 L 280.28 90.94 L 284.09 90.94 L 287.91 90.94 L 291.72 90.94 L 295.53 90.94 L 299.35 90.94 L 303.16 90.94 L 306.98 90.94 L 310.79 123.79 L 314.60 123.79 L 318.42 123.79 L 322.23 123.79 L 326.05 123.79 L 329.86 123.79 L 333.67 123.79 L 337.49 123.79 L 341.30 123.79 L 345.12 123.79 L 348.93 123.79 L 352.74 123.79 L 356.56 123.79 L 360.37 123.79 L 364.19 123.79 L 368.00 123.79 L 371.81 123.79 L 375.63 123.79 L 379.44 123.79 L 383.26 123.79 L 387.07 123.79 L 390.88 123.79 L 394.70 123.79 L 398.51 123.79 L 402.33 123.79 L 406.14 123.79 L 409.95 123.79 L 413.77 123.79 L 417.58 123.79 L 421.40 123.79 L 425.21 123.79 L 429.02 123.79 L 432.84 123.79 L 436.65 123.79 L 440.47 123.79 L 444.28 123.79 L 448.09 123.79 L 451.91 123.79 L 455.72 123.79 L 459.53 123.79 L 463.35 123.79 L 467.16 123.79 L 470.98 123.79 L 474.79 123.79 L 478.60 123.79 L 482.42 123.79 L 486.23 123.79 L 490.05 123.79 L 493.86 123.79 L 497.67 123.79 L 501.49 123.79 L 505.30 123.79 L 509.12 123.79 L 512.93 123.79 L 516.74 123.79 L 520.56 123.79 L 524.37 123.79 L 528.19 123.79 L 532.00 123.79 L 535.81 123.79 L 539.63 123.79 L 543.44 123.79 L 547.26 123.79 L 551.07 123.79 L 554.88 123.79 L 558.70 123.79 L 562.51 123.79 L 566.33 123.79 L 570.14 123.79 L 573.95 123.79 L 577.77 123.79 L 581.58 123.79 L 585.40 123.79 L 589.21 123.79 L 593.02 123.79 L 596.84 123.79 L 600.65 123.79 L 604.47 115.42 L 608.28 111.64 L 612.09 107.86 L 615.91 104.08 L 619.72 100.30 L 623.53 95.98 L 627.35 95.98 L 631.16 95.98 L 634.98 95.98 L 638.79 85.72 L 642.60 85.72 L 646.42 85.72 L 650.23 85.72 L 654.05 85.72 L 657.86 85.72 L 661.67 85.72 L 665.49 85.72 L 669.30 85.72 L 673.12 85.72 L 676.93 85.72 L 680.74 85.72 L 684.56 85.72 L 688.37 85.72 L 692.19 85.72 L 696.00 85.72 L 699.81 85.72 L 703.63 85.72 L 707.44 85.72 L 711.26 85.72 L 715.07 85.72 L 718.88 85.72 L 722.70 85.72 L 726.51 85.72 L 730.33 85.72 L 734.14 85.72 L 737.95 85.72 L 741.77 85.72 L 745.58 85.72 L 749.40 85.72 L 753.21 85.72 L 757.02 85.72 L 760.84 85.72 L 764.65 85.72 L 768.47 85.72 L 772.28 85.72 L 776.09 85.72 L 779.91 85.72 L 783.72 85.72 L 787.53 85.72 L 791.35 85.72 L 795.16 85.72 L 798.98 85.72 L 802.79 85.72 L 806.60 85.72 L 810.42 85.72 L 814.23 85.72 L 818.05 85.72 L 821.86 85.72 L 825.67 85.72 L 829.49 85.72 L 833.30 85.72 L 837.12 85.72 L 840.93 85.72 L 844.74 85.72 L 848.56 85.72 L 852.37 85.72 L 856.19 85.72 L 860.00 85.72" fill="none" stroke="#3fb950" stroke-width="2"/>
    <circle cx="860.00" cy="85.72" r="3" fill="#3fb950"/>
    <text x="40.00" y="235.00" font-size="9" fill="#c9d1d9" text-anchor="middle" transform="rotate(-45 40.00 235.00)">09.08.2025</text><text x="120.09" y="235.00" font-size="9" fill="#c9d1d9" text-anchor="middle" transform="rotate(-45 120.09 235.00)">15.08.2025</text><text x="200.19" y="235.00" font-size="9" fill="#c9d1d9" text-anchor="middle" transform="rotate(-45 200.19 235.00)">28.08.2025</text><text x="280.28" y="235.00" font-size="9" fill="#c9d1d9" text-anchor="middle" transform="rotate(-45 280.28 235.00)">13.09.2025</text><text x="360.37" y="235.00" font-size="9" fill="#c9d1d9" text-anchor="middle" transform="rotate(-45 360.37 235.00)">02.10.2025</text><text x="440.47" y="235.00" font-size="9" fill="#c9d1d9" text-anchor="middle" transform="rotate(-45 440.47 235.00)">23.10.2025</text><text x="520.56" y="235.00" font-size="9" fill="#c9d1d9" text-anchor="middle" transform="rotate(-45 520.56 235.00)">13.11.2025</text><text x="600.65" y="235.00" font-size="9" fill="#c9d1d9" text-anchor="middle" transform="rotate(-45 600.65 235.00)">04.12.2025</text><text x="680.74" y="235.00" font-size="9" fill="#c9d1d9" text-anchor="middle" transform="rotate(-45 680.74 235.00)">18.12.2025</text><text x="760.84" y="235.00" font-size="9" fill="#c9d1d9" text-anchor="middle" transform="rotate(-45 760.84 235.00)">08.01.2026</text><text x="840.93" y="235.00" font-size="9" fill="#c9d1d9" text-anchor="middle" transform="rotate(-45 840.93 235.00)">29.01.2026</text>
  </g>
</svg>