<svg xmlns="http://www.w3.org/2000/svg" width="900" height="290" style="font-family: -apple-system, BlinkMacSystemFont, 'Segoe UI', Helvetica, Arial, sans-serif;">
  <rect width="100%" height="100%" fill="white"/>
  <g>
    <line x1="40" y1="220.00" x2="860" y2="220.00" stroke="#e5e7eb"/><text x="32" y="224.00" font-size="10" fill="#111827" text-anchor="end">0</text><line x1="40" y1="175.00" x2="860" y2="175.00" stroke="#e5e7eb"/><text x="32" y="179.00" font-size="10" fill="#111827" text-anchor="end">500</text><line x1="40" y1="130.00" x2="860" y2="130.00" stroke="#e5e7eb"/><text x="32" y="134.00" font-size="10" fill="#111827" text-anchor="end">1k</text><line x1="40" y1="85.00" x2="860" y2="85.00" stroke="#e5e7eb"/><text x="32" y="89.00" font-size="10" fill="#111827" text-anchor="end">1.5k</text><line x1="40" y1="40.00" x2="860" y2="40.00" stroke="#e5e7eb"/><text x="32" y="44.00" font-size="10" fill="#111827" text-anchor="end">2k</text>
    <line x1="40.00" y1="40" x2="40.00" y2="220" stroke="#e5e7eb" opacity="0.5"/><line x1="119.61" y1="40" x2="119.61" y2="220" stroke="#e5e7eb" opacity="0.5"/><line x1="199.22" y1="40" x2="199.22" y2="220" stroke="#e5e7eb" opacity="0.5"/><line x1="278.83" y1="40" x2="278.83" y2="220" stroke="#e5e7eb" opacity="0.5"/><line x1="358.45" y1="40" x2="358.45" y2="220" stroke="#e5e7eb" opacity="0.5"/><line x1="438.06" y1="40" x2="438.06" y2="220" stroke="#e5e7eb" opacity="0.5"/><line x1="517.67" y1="40" x2="517.67" y2="220" stroke="#e5e7eb" opacity="0.5"/><line x1="597.28" y1="40" x2="597.28" y2="220" stroke="#e5e7eb" opacity="0.5"/><line x1="676.89" y1="40" x2="676.89" y2="220" stroke="#e5e7eb" opacity="0.5"/><line x1="756.50" y1="40" x2="756.50" y2="220" stroke="#e5e7eb" opacity="0.5"/><line x1="836.12" y1="40" x2="836.12" y2="220" stroke="#e5e7eb" opacity="0.5"/>
    <line x1="40" y1="220" x2="860" y2="220" stroke="#9ca3af"/>
    <line x1="40" y1="40"   x2="40"   y2="220" stroke="#9ca3af"/>
    <path d="M 40.00 219.82 L 43.98 211.81 L 47.96 211.81 L 51.94 211.81 L 55.92 171.85 L 59.90 171.58 L 63.88 164.38 L 67.86 118.93 L 71.84 119.11 L 75.83 111.10 L 79.81 110.56 L 83.79 110.56 L 87.77 110.56 L 91.75 95.35 L 95.73 95.35 L 99.71 95.35 L 103.69 94.63 L 107.67 94.54 L 111.65 94.45 L 115.63 94.09 L 119.61 94.09 L 123.59 94.09 L 127.57 94.09 L 131.55 94.09 L 135.53 94.09 L 139.51 94.09 L 143.50 94.09 L 147.48 94.09 L 151.46 91.84 L 155.44 83.65 L 159.42 83.65 L 163.40 83.47 L 167.38 83.65 L 171.36 91.03 L 175.34 91.03 L 179.32 91.03 L 183.30 91.03 L 187.28 91.03 L 191.26 91.03 L 195.24 91.03 L 199.22 91.03 L 203.20 91.03 L 207.18 91.03 L 211.17 91.03 L 215.15 90.94 L 219.13 91.03 L 223.11 90.94 L 227.09 90.94 L 231.07 90.94 L 235.05 90.94 L 239.03 90.94 L 243.01 90.94 L 246.99 90.94 L 250.97 90.94 L 254.95 90.94 L 258.93 90.94 L 262.91 90.94 L 266.89 90.94 L 270.87 90.94 L 274.85 90.94 L 278.83 90.94 L 282.82 90.94 L 286.80 90.94 L 290.78 90.94 L 294.76 90.94 L 298.74 90.94 L 302.72 90.94 L 306.70 90.94 L 310.68 90.94 L 314.66 90.94 L 318.64 90.94 L 322.62 123.79 L 326.60 123.79 L 330.58 123.79 L 334.56 123.79 L 338.54 123.79 L 342.52 123.79 L 346.50 123.79 L 350.49 123.79 L 354.47 123.79 L 358.45 123.79 L 362.43 123.79 L 366.41 123.79 L 370.39 123.79 L 374.37 123.79 L 378.35 123.79 L 382.33 123.79 L 386.31 123.79 L 390.29 123.79 L 394.27 123.79 L 398.25 123.79 L 402.23 123.79 L 406.21 123.79 L 410.19 123.79 L 414.17 123.79 L 418.16 123.79 L 422.14 123.79 L 426.12 123.79 L 430.10 123.79 L 434.08 123.79 L 438.06 123.79 L 442.04 123.79 L 446.02 123.79 L 450.00 123.79 L 453.98 123.79 L 457.96 123.79 L 461.94 123.79 L 465.92 123.79 L 469.90 123.79 L 473.88 123.79 L 477.86 123.79 L 481.84 123.79 L 485.83 123.79 L 489.81 123.79 L 493.79 123.79 L 497.77 123.79 L 501.75 123.79 L 505.73 123.79 L 509.71 123.79 L 513.69 123.79 L 517.67 123.79 L 521.65 123.79 L 525.63 123.79 L 529.61 123.79 L 533.59 123.79 L 537.57 123.79 L 541.55 123.79 L 545.53 123.79 L 549.51 123.79 L 553.50 123.79 L 557.48 123.79 L 561.46 123.79 L 565.44 123.79 L 569.42 123.79 L 573.40 123.79 L 577.38 123.79 L 581.36 123.79 L 585.34 123.79 L 589.32 123.79 L 593.30 123.79 L 597.28 123.79 L 601.26 123.79 L 605.24 123.79 L 609.22 123.79 L 613.20 123.79 L 617.18 123.79 L 621.17 123.79 L 625.15 123.79 L 629.13 115.42 L 633.11 111.64 L 637.09 107.86 L 641.07 104.08 L 645.05 100.30 L 649.03 95.98 L 653.01 95.98 L 656.99 95.98 L 660.97 95.98 L 664.95 85.72 L 668.93 85.72 L 672.91 85.72 L 676.89 85.72 L 680.87 85.72 L 684.85 85.72 L 688.83 85.72 L 692.82 85.72 L 696.80 85.72 L 700.78 85.72 L 704.76 85.72 L 708.74 85.72 L 712.72 85.72 L 716.70 85.72 L 720.68 85.72 L 724.66 85.72 L 728.64 85.72 L 732.62 85.72 L 736.60 85.72 L 740.58 85.72 L 744.56 85.72 L 748.54 85.72 L 752.52 85.72 L 756.50 85.72 L 760.49 85.72 L 764.47 85.72 L 768.45 85.72 L 772.43 85.72 L 776.41 85.72 L 780.39 85.72 L 784.37 85.72 L 788.35 85.72 L 792.33 85.72 L 796.31 85.72 L 800.29 85.72 L 804.27 85.72 L 808.25 85.72 L 812.23 85.72 L 816.21 85.72 L 820.19 85.72 L 824.17 85.72 L 828.16 85.72 L 832.14 85.72 L 836.12 85.72 L 840.10 85.72 L 844.08 85.72 L 848.06 85.72 L 852.04 85.72 L 856.02 85.72 L 860.00 85.72" fill="none" stroke="#111827" stroke-width="2"/>
    <circle cx="860.00" cy="85.72" r="3" fill="#111827"/>
    <text x="40.00" y="235.00" font-size="9" fill="#111827" text-anchor="middle" transform="rotate(-45 40.00 235.00)">09.08.2025</text><text x="119.61" y="235.00" font-size="9" fill="#111827" text-anchor="middle" transform="rotate(-45 119.61 235.00)">14.08.2025</text><text x="199.22" y="235.00" font-size="9" fill="#111827" text-anchor="middle" transform="rotate(-45 199.22 235.00)">26.08.2025</text><text x="278.83" y="235.00" font-size="9" fill="#111827" text-anchor="middle" transform="rotate(-45 278.83 235.00)">10.09.2025</text><text x="358.45" y="235.00" font-size="9" fill="#111827" text-anchor="middle" transform="rotate(-45 358.45 235.00)">28.09.2025</text><text x="438.06" y="235.00" font-size="9" fill="#111827" text-anchor="middle" transform="rotate(-45 438.06 235.00)">18.10.2025</text><text x="517.67" y="235.00" font-size="9" fill="#111827" text-anchor="middle" transform="rotate(-45 517.67 235.00)">07.11.2025</text><text x="597.28" y="235.00" font-size="9" fill="#111827" text-anchor="middle" transform="rotate(-45 597.28 235.00)">27.11.2025</text><text x="676.89" y="235.00" font-size="9" fill="#111827" text-anchor="middle" transform="rotate(-45 676.89 235.00)">10.12.2025</text><text x="756.50" y="235.00" font-size="9" fill="#111827" text-anchor="middle" transform="rotate(-45 756.50 235.00)">30.12.2025</text><text x="836.12" y="235.00" font-size="9" fill="#111827" text-anchor="middle" transform="rotate(-45 836.12 235.00)">19.01.2026</text>
  </g>
</svg>