<svg xmlns="http://www.w3.org/2000/svg" width="900" height="290" style="font-family: -apple-system, BlinkMacSystemFont, 'Segoe UI', Helvetica, Arial, sans-serif;">
  <rect width="100%" height="100%" fill="white"/>
  <g>
    <line x1="40" y1="220.00" x2="860" y2="220.00" stroke="#e5e7eb"/><text x="32" y="224.00" font-size="10" fill="#111827" text-anchor="end">0</text><line x1="40" y1="175.00" x2="860" y2="175.00" stroke="#e5e7eb"/><text x="32" y="179.00" font-size="10" fill="#111827" text-anchor="end">500</text><line x1="40" y1="130.00" x2="860" y2="130.00" stroke="#e5e7eb"/><text x="32" y="134.00" font-size="10" fill="#111827" text-anchor="end">1k</text><line x1="40" y1="85.00" x2="860" y2="85.00" stroke="#e5e7eb"/><text x="32" y="89.00" font-size="10" fill="#111827" text-anchor="end">1.5k</text><line x1="40" y1="40.00" x2="860" y2="40.00" stroke="#e5e7eb"/><text x="32" y="44.00" font-size="10" fill="#111827" text-anchor="end">2k</text>
    <line x1="40.00" y1="40" x2="40.00" y2="220" stroke="#e5e7eb" opacity="0.5"/><line x1="120.00" y1="40" x2="120.00" y2="220" stroke="#e5e7eb" opacity="0.5"/><line x1="200.00" y1="40" x2="200.00" y2="220" stroke="#e5e7eb" opacity="0.5"/><line x1="280.00" y1="40" x2="280.00" y2="220" stroke="#e5e7eb" opacity="0.5"/><line x1="360.00" y1="40" x2="360.00" y2="220" stroke="#e5e7eb" opacity="0.5"/><line x1="440.00" y1="40" x2="440.00" y2="220" stroke="#e5e7eb" opacity="0.5"/><line x1="520.00" y1="40" x2="520.00" y2="220" stroke="#e5e7eb" opacity="0.5"/><line x1="600.00" y1="40" x2="600.00" y2="220" stroke="#e5e7eb" opacity="0.5"/><line x1="680.00" y1="40" x2="680.00" y2="220" stroke="#e5e7eb" opacity="0.5"/><line x1="760.00" y1="40" x2="760.00" y2="220" stroke="#e5e7eb" opacity="0.5"/><line x1="840.00" y1="40" x2="840.00" y2="220" stroke="#e5e7eb" opacity="0.5"/>
    <line x1="40" y1="220" x2="860" y2="220" stroke="#9ca3af"/>
    <line x1="40" y1="40"   x2="40"   y2="220" stroke="#9ca3af"/>
    <path d="M 40.00 219.82 L 44.00 211.81 L 48.00 211.81 L 52.00 211.81 L 56.00 171.85 L 60.00 171.58 L 64.00 164.38 L 68.00 118.93 L 72.00 119.11 L 76.00 111.10 L 80.00 110.56 L 84.00 110.56 L 88.00 110.56 L 92.00 95.35 L 96.00 95.35 L 100.00 95.35 L 104.00 94.63 L 108.00 94.54 L 112.00 94.45 L 116.00 94.09 L 120.00 94.09 L 124.00 94.09 L 128.00 94.09 L 132.00 94.09 L 136.00 94.09 L 140.00 94.09 L 144.00 94.09 L 148.00 94.09 L 152.00 91.84 L 156.00 83.65 L 160.00 83.65 L 164.00 83.47 L 168.00 83.65 L 172.00 91.03 L 176.00 91.03 L 180.00 91.03 L 184.00 91.03 L 188.00 91.03 L 192.00 91.03 L 196.00 91.03 L 200.00 91.03 L 204.00 91.03 L 208.00 91.03 L 212.00 91.03 L 216.00 90.94 L 220.00 91.03 L 224.00 90.94 L 228.00 90.94 L 232.00 90.94 L 236.00 90.94 L 240.00 90.94 L 244.00 90.94 L 248.00 90.94 L 252.00 90.94 L 256.00 90.94 L 260.00 90.94 L 264.00 90.94 L 268.00 90.94 L 272.00 90.94 L 276.00 90.94 L 280.00 90.94 L 284.00 90.94 L 288.00 90.94 L 292.00 90.94 L 296.00 90.94 L 300.00 90.94 L 304.00 90.94 L 308.00 90.94 L 312.00 90.94 L 316.00 90.94 L 320.00 90.94 L 324.00 123.79 L 328.00 123.79 L 332.00 123.79 L 336.00 123.79 L 340.00 123.79 L 344.00 123.79 L 348.00 123.79 L 352.00 123.79 L 356.00 123.79 L 360.00 123.79 L 364.00 123.79 L 368.00 123.79 L 372.00 123.79 L 376.00 123.79 L 380.00 123.79 L 384.00 123.79 L 388.00 123.79 L 392.00 123.79 L 396.00 123.79 L 400.00 123.79 L 404.00 123.79 L 408.00 123.79 L 412.00 123.79 L 416.00 123.79 L 420.00 123.79 L 424.00 123.79 L 428.00 123.79 L 432.00 123.79 L 436.00 123.79 L 440.00 123.79 L 444.00 123.79 L 448.00 123.79 L 452.00 123.79 L 456.00 123.79 L 460.00 123.79 L 464.00 123.79 L 468.00 123.79 L 472.00 123.79 L 476.00 123.79 L 480.00 123.79 L 484.00 123.79 L 488.00 123.79 L 492.00 123.79 L 496.00 123.79 L 500.00 123.79 L 504.00 123.79 L 508.00 123.79 L 512.00 123.79 L 516.00 123.79 L 520.00 123.79 L 524.00 123.79 L 528.00 123.79 L 532.00 123.79 L 536.00 123.79 L 540.00 123.79 L 544.00 123.79 L 548.00 123.79 L 552.00 123.79 L 556.00 123.79 L 560.00 123.79 L 564.00 123.79 L 568.00 123.79 L 572.00 123.79 L 576.00 123.79 L 580.00 123.79 L 584.00 123.79 L 588.00 123.79 L 592.00 123.79 L 596.00 123.79 L 600.00 123.79 L 604.00 123.79 L 608.00 123.79 L 612.00 123.79 L 616.00 123.79 L 620.00 123.79 L 624.00 123.79 L 628.00 123.79 L 632.00 115.42 L 636.00 111.64 L 640.00 107.86 L 644.00 104.08 L 648.00 100.30 L 652.00 95.98 L 656.00 95.98 L 660.00 95.98 L 664.00 95.98 L 668.00 85.72 L 672.00 85.72 L 676.00 85.72 L 680.00 85.72 L 684.00 85.72 L 688.00 85.72 L 692.00 85.72 L 696.00 85.72 L 700.00 85.72 L 704.00 85.72 L 708.00 85.72 L 712.00 85.72 L 716.00 85.72 L 720.00 85.72 L 724.00 85.72 L 728.00 85.72 L 732.00 85.72 L 736.00 85.72 L 740.00 85.72 L 744.00 85.72 L 748.00 85.72 L 752.00 85.72 L 756.00 85.72 L 760.00 85.72 L 764.00 85.72 L 768.00 85.72 L 772.00 85.72 L 776.00 85.72 L 780.00 85.72 L 784.00 85.72 L 788.00 85.72 L 792.00 85.72 L 796.00 85.72 L 800.00 85.72 L 804.00 85.72 L 808.00 85.72 L 812.00 85.72 L 816.00 85.72 L 820.00 85.72 L 824.00 85.72 L 828.00 85.72 L 832.00 85.72 L 836.00 85.72 L 840.00 85.72 L 844.00 85.72 L 848.00 85.72 L 852.00 85.72 L 856.00 85.72 L 860.00 85.72" fill="none" stroke="#111827" stroke-width="2"/>
    <circle cx="860.00" cy="85.72" r="3" fill="#111827"/>
    <text x="40.00" y="235.00" font-size="9" fill="#111827" text-anchor="middle" transform="rotate(-45 40.00 235.00)">09.08.2025</text><text x="120.00" y="235.00" font-size="9" fill="#111827" text-anchor="middle" transform="rotate(-45 120.00 235.00)">14.08.2025</text><text x="200.00" y="235.00" font-size="9" fill="#111827" text-anchor="middle" transform="rotate(-45 200.00 235.00)">26.08.2025</text><text x="280.00" y="235.00" font-size="9" fill="#111827" text-anchor="middle" transform="rotate(-45 280.00 235.00)">10.09.2025</text><text x="360.00" y="235.00" font-size="9" fill="#111827" text-anchor="middle" transform="rotate(-45 360.00 235.00)">28.09.2025</text><text x="440.00" y="235.00" font-size="9" fill="#111827" text-anchor="middle" transform="rotate(-45 440.00 235.00)">18.10.2025</text><text x="520.00" y="235.00" font-size="9" fill="#111827" text-anchor="middle" transform="rotate(-45 520.00 235.00)">07.11.2025</text><text x="600.00" y="235.00" font-size="9" fill="#111827" text-anchor="middle" transform="rotate(-45 600.00 235.00)">27.11.2025</text><text x="680.00" y="235.00" font-size="9" fill="#111827" text-anchor="middle" transform="rotate(-45 680.00 235.00)">10.12.2025</text><text x="760.00" y="235.00" font-size="9" fill="#111827" text-anchor="middle" transform="rotate(-45 760.00 235.00)">30.12.2025</text><text x="840.00" y="235.00" font-size="9" fill="#111827" text-anchor="middle" transform="rotate(-45 840.00 235.00)">19.01.2026</text>
  </g>
</svg>