<svg xmlns="http://www.w3.org/2000/svg" width="900" height="290" style="font-family: -apple-system, BlinkMacSystemFont, 'Segoe UI', Helvetica, Arial, sans-serif;">
  <rect width="100%" height="100%" fill="white"/>
  <g>
    <line x1="40" y1="220.00" x2="860" y2="220.00" stroke="#e5e7eb"/><text x="32" y="224.00" font-size="10" fill="#111827" text-anchor="end">0</text><line x1="40" y1="175.00" x2="860" y2="175.00" stroke="#e5e7eb"/><text x="32" y="179.00" font-size="10" fill="#111827" text-anchor="end">500</text><line x1="40" y1="130.00" x2="860" y2="130.00" stroke="#e5e7eb"/><text x="32" y="134.00" font-size="10" fill="#111827" text-anchor="end">1k</text><line x1="40" y1="85.00" x2="860" y2="85.00" stroke="#e5e7eb"/><text x="32" y="89.00" font-size="10" fill="#111827" text-anchor="end">1.5k</text><line x1="40" y1="40.00" x2="860" y2="40.00" stroke="#e5e7eb"/><text x="32" y="44.00" font-size="10" fill="#111827" text-anchor="end">2k</text>
    <line x1="40.00" y1="40" x2="40.00" y2="220" stroke="#e5e7eb" opacity="0.5"/><line x1="120.49" y1="40" x2="120.49" y2="220" stroke="#e5e7eb" opacity="0.5"/><line x1="200.98" y1="40" x2="200.98" y2="220" stroke="#e5e7eb" opacity="0.5"/><line x1="281.47" y1="40" x2="281.47" y2="220" stroke="#e5e7eb" opacity="0.5"/><line x1="361.96" y1="40" x2="361.96" y2="220" stroke="#e5e7eb" opacity="0.5"/><line x1="442.45" y1="40" x2="442.45" y2="220" stroke="#e5e7eb" opacity="0.5"/><line x1="522.94" y1="40" x2="522.94" y2="220" stroke="#e5e7eb" opacity="0.5"/><line x1="603.44" y1="40" x2="603.44" y2="220" stroke="#e5e7eb" opacity="0.5"/><line x1="683.93" y1="40" x2="683.93" y2="220" stroke="#e5e7eb" opacity="0.5"/><line x1="764.42" y1="40" x2="764.42" y2="220" stroke="#e5e7eb" opacity="0.5"/><line x1="844.91" y1="40" x2="844.91" y2="220" stroke="#e5e7eb" opacity="0.5"/>
    <line x1="40" y1="220" x2="860" y2="220" stroke="#9ca3af"/>
    <line x1="40" y1="40"   x2="40"   y2="220" stroke="#9ca3af"/>
    <path d="M 40.00 219.82 L 45.03 211.81 L 50.06 211.81 L 55.09 211.81 L 60.12 171.85 L 65.15 171.58 L 70.18 164.38 L 75.21 118.93 L 80.25 119.11 L 85.28 111.10 L 90.31 110.56 L 95.34 110.56 L 100.37 110.56 L 105.40 95.35 L 110.43 95.35 L 115.46 95.35 L 120.49 94.63 L 125.52 94.54 L 130.55 94.45 L 135.58 94.09 L 140.61 94.09 L 145.64 94.09 L 150.67 94.09 L 155.71 94.09 L 160.74 94.09 L 165.77 94.09 L 170.80 94.09 L 175.83 94.09 L 180.86 91.84 L 185.89 83.65 L 190.92 83.65 L 195.95 83.47 L 200.98 83.65 L 206.01 91.03 L 211.04 91.03 L 216.07 91.03 L 221.10 91.03 L 226.13 91.03 L 231.17 91.03 L 236.20 91.03 L 241.23 91.03 L 246.26 91.03 L 251.29 91.03 L 256.32 91.03 L 261.35 90.94 L 266.38 91.03 L 271.41 90.94 L 276.44 90.94 L 281.47 90.94 L 286.50 90.94 L 291.53 90.94 L 296.56 90.94 L 301.60 90.94 L 306.63 90.94 L 311.66 90.94 L 316.69 90.94 L 321.72 90.94 L 326.75 90.94 L 331.78 90.94 L 336.81 90.94 L 341.84 90.94 L 346.87 90.94 L 351.90 90.94 L 356.93 90.94 L 361.96 90.94 L 366.99 90.94 L 372.02 90.94 L 377.06 90.94 L 382.09 90.94 L 387.12 90.94 L 392.15 90.94 L 397.18 123.79 L 402.21 123.79 L 407.24 123.79 L 412.27 123.79 L 417.30 123.79 L 422.33 123.79 L 427.36 123.79 L 432.39 123.79 L 437.42 123.79 L 442.45 123.79 L 447.48 123.79 L 452.52 123.79 L 457.55 123.79 L 462.58 123.79 L 467.61 123.79 L 472.64 123.79 L 477.67 123.79 L 482.70 123.79 L 487.73 123.79 L 492.76 123.79 L 497.79 123.79 L 502.82 123.79 L 507.85 123.79 L 512.88 123.79 L 517.91 123.79 L 522.94 123.79 L 527.98 123.79 L 533.01 123.79 L 538.04 123.79 L 543.07 123.79 L 548.10 123.79 L 553.13 123.79 L 558.16 123.79 L 563.19 123.79 L 568.22 123.79 L 573.25 123.79 L 578.28 123.79 L 583.31 123.79 L 588.34 123.79 L 593.37 123.79 L 598.40 123.79 L 603.44 123.79 L 608.47 123.79 L 613.50 123.79 L 618.53 123.79 L 623.56 123.79 L 628.59 123.79 L 633.62 123.79 L 638.65 123.79 L 643.68 123.79 L 648.71 123.79 L 653.74 123.79 L 658.77 123.79 L 663.80 123.79 L 668.83 123.79 L 673.87 123.79 L 678.90 123.79 L 683.93 123.79 L 688.96 123.79 L 693.99 123.79 L 699.02 123.79 L 704.05 123.79 L 709.08 123.79 L 714.11 123.79 L 719.14 123.79 L 724.17 123.79 L 729.20 123.79 L 734.23 123.79 L 739.26 123.79 L 744.29 123.79 L 749.33 123.79 L 754.36 123.79 L 759.39 123.79 L 764.42 123.79 L 769.45 123.79 L 774.48 123.79 L 779.51 123.79 L 784.54 115.42 L 789.57 111.64 L 794.60 107.86 L 799.63 104.08 L 804.66 100.30 L 809.69 95.98 L 814.72 95.98 L 819.75 95.98 L 824.79 95.98 L 829.82 85.72 L 834.85 85.72 L 839.88 85.72 L 844.91 85.72 L 849.94 85.72 L 854.97 85.72 L 860.00 85.72" fill="none" stroke="#111827" stroke-width="2"/>
    <circle cx="860.00" cy="85.72" r="3" fill="#111827"/>
    <text x="40.00" y="235.00" font-size="9" fill="#111827" text-anchor="middle" transform="rotate(-45 40.00 235.00)">09.08.2025</text><text x="120.49" y="235.00" font-size="9" fill="#111827" text-anchor="middle" transform="rotate(-45 120.49 235.00)">13.08.2025</text><text x="200.98" y="235.00" font-size="9" fill="#111827" text-anchor="middle" transform="rotate(-45 200.98 235.00)">21.08.2025</text><text x="281.47" y="235.00" font-size="9" fill="#111827" text-anchor="middle" transform="rotate(-45 281.47 235.00)">29.08.2025</text><text x="361.96" y="235.00" font-size="9" fill="#111827" text-anchor="middle" transform="rotate(-45 361.96 235.00)">14.09.2025</text><text x="442.45" y="235.00" font-size="9" fill="#111827" text-anchor="middle" transform="rotate(-45 442.45 235.00)">28.09.2025</text><text x="522.94" y="235.00" font-size="9" fill="#111827" text-anchor="middle" transform="rotate(-45 522.94 235.00)">14.10.2025</text><text x="603.44" y="235.00" font-size="9" fill="#111827" text-anchor="middle" transform="rotate(-45 603.44 235.00)">30.10.2025</text><text x="683.93" y="235.00" font-size="9" fill="#111827" text-anchor="middle" transform="rotate(-45 683.93 235.00)">15.11.2025</text><text x="764.42" y="235.00" font-size="9" fill="#111827" text-anchor="middle" transform="rotate(-45 764.42 235.00)">01.12.2025</text><text x="844.91" y="235.00" font-size="9" fill="#111827" text-anchor="middle" transform="rotate(-45 844.91 235.00)">10.12.2025</text>
  </g>
</svg>