<svg xmlns="http://www.w3.org/2000/svg" width="900" height="290" style="font-family: -apple-system, BlinkMacSystemFont, 'Segoe UI', Helvetica, Arial, sans-serif;">
  <rect width="100%" height="100%" fill="#0d1117"/>
  <g>
    <line x1="40" y1="220.00" x2="860" y2="220.00" stroke="#30363d"/><text x="32" y="224.00" font-size="10" fill="#c9d1d9" text-anchor="end">0</text><line x1="40" y1="175.00" x2="860" y2="175.00" stroke="#30363d"/><text x="32" y="179.00" font-size="10" fill="#c9d1d9" text-anchor="end">500</text><line x1="40" y1="130.00" x2="860" y2="130.00" stroke="#30363d"/><text x="32" y="134.00" font-size="10" fill="#c9d1d9" text-anchor="end">1k</text><line x1="40" y1="85.00" x2="860" y2="85.00" stroke="#30363d"/><text x="32" y="89.00" font-size="10" fill="#c9d1d9" text-anchor="end">1.5k</text><line x1="40" y1="40.00" x2="860" y2="40.00" stroke="#30363d"/><text x="32" y="44.00" font-size="10" fill="#c9d1d9" text-anchor="end">2k</text>
    <line x1="40.00" y1="40" x2="40.00" y2="220" stroke="#30363d" opacity="0.5"/><line x1="122.49" y1="40" x2="122.49" y2="220" stroke="#30363d" opacity="0.5"/><line x1="204.97" y1="40" x2="204.97" y2="220" stroke="#30363d" opacity="0.5"/><line x1="287.46" y1="40" x2="287.46" y2="220" stroke="#30363d" opacity="0.5"/><line x1="369.94" y1="40" x2="369.94" y2="220" stroke="#30363d" opacity="0.5"/><line x1="452.43" y1="40" x2="452.43" y2="220" stroke="#30363d" opacity="0.5"/><line x1="534.91" y1="40" x2="534.91" y2="220" stroke="#30363d" opacity="0.5"/><line x1="617.40" y1="40" x2="617.40" y2="220" stroke="#30363d" opacity="0.5"/><line x1="699.88" y1="40" x2="699.88" y2="220" stroke="#30363d" opacity="0.5"/><line x1="782.37" y1="40" x2="782.37" y2="220" stroke="#30363d" opacity="0.5"/>
    <line x1="40" y1="220" x2="860" y2="220" stroke="#30363d"/>
    <line x1="40" y1="40"   x2="40"   y2="220" stroke="#30363d"/>
    <path d="M 40.00 219.82 L 44.85 211.81 L 49.70 211.81 L 54.56 211.81 L 59.41 171.85 L 64.26 171.58 L 69.11 164.38 L 73.96 118.93 L 78.82 119.11 L 83.67 111.10 L 88.52 110.56 L 93.37 110.56 L 98.22 110.56 L 103.08 95.35 L 107.93 95.35 L 112.78 95.35 L 117.63 94.63 L 122.49 94.54 L 127.34 94.45 L 132.19 94.09 L 137.04 94.09 L 141.89 94.09 L 146.75 94.09 L 151.60 94.09 L 156.45 94.09 L 161.30 94.09 L 166.15 94.09 L 171.01 94.09 L 175.86 91.84 L 180.71 83.65 L 185.56 83.65 L 190.41 83.47 L 195.27 83.65 L 200.12 91.03 L 204.97 91.03 L 209.82 91.03 L 214.67 91.03 L 219.53 91.03 L 224.38 91.03 L 229.23 91.03 L 234.08 91.03 L 238.93 91.03 L 243.79 91.03 L 248.64 91.03 L 253.49 90.94 L 258.34 91.03 L 263.20 90.94 L 268.05 90.94 L 272.90 90.94 L 277.75 90.94 L 282.60 90.94 L 287.46 90.94 L 292.31 90.94 L 297.16 90.94 L 302.01 90.94 L 306.86 90.94 L 311.72 90.94 L 316.57 90.94 L 321.42 90.94 L 326.27 90.94 L 331.12 90.94 L 335.98 90.94 L 340.83 90.94 L 345.68 90.94 L 350.53 90.94 L 355.38 90.94 L 360.24 90.94 L 365.09 90.94 L 369.94 90.94 L 374.79 90.94 L 379.64 90.94 L 384.50 123.79 L 389.35 123.79 L 394.20 123.79 L 399.05 123.79 L 403.91 123.79 L 408.76 123.79 L 413.61 123.79 L 418.46 123.79 L 423.31 123.79 L 428.17 123.79 L 433.02 123.79 L 437.87 123.79 L 442.72 123.79 L 447.57 123.79 L 452.43 123.79 L 457.28 123.79 L 462.13 123.79 L 466.98 123.79 L 471.83 123.79 L 476.69 123.79 L 481.54 123.79 L 486.39 123.79 L 491.24 123.79 L 496.09 123.79 L 500.95 123.79 L 505.80 123.79 L 510.65 123.79 L 515.50 123.79 L 520.36 123.79 L 525.21 123.79 L 530.06 123.79 L 534.91 123.79 L 539.76 123.79 L 544.62 123.79 L 549.47 123.79 L 554.32 123.79 L 559.17 123.79 L 564.02 123.79 L 568.88 123.79 L 573.73 123.79 L 578.58 123.79 L 583.43 123.79 L 588.28 123.79 L 593.14 123.79 L 597.99 123.79 L 602.84 123.79 L 607.69 123.79 L 612.54 123.79 L 617.40 123.79 L 622.25 123.79 L 627.10 123.79 L 631.95 123.79 L 636.80 123.79 L 641.66 123.79 L 646.51 123.79 L 651.36 123.79 L 656.21 123.79 L 661.07 123.79 L 665.92 123.79 L 670.77 123.79 L 675.62 123.79 L 680.47 123.79 L 685.33 123.79 L 690.18 123.79 L 695.03 123.79 L 699.88 123.79 L 704.73 123.79 L 709.59 123.79 L 714.44 123.79 L 719.29 123.79 L 724.14 123.79 L 728.99 123.79 L 733.85 123.79 L 738.70 123.79 L 743.55 123.79 L 748.40 123.79 L 753.25 123.79 L 758.11 115.42 L 762.96 111.64 L 767.81 107.86 L 772.66 104.08 L 777.51 100.30 L 782.37 95.98 L 787.22 95.98 L 792.07 95.98 L 796.92 95.98 L 801.78 85.72 L 806.63 85.72 L 811.48 85.72 L 816.33 85.72 L 821.18 85.72 L 826.04 85.72 L 830.89 85.72 L 835.74 85.72 L 840.59 85.72 L 845.44 85.72 L 850.30 85.72 L 855.15 85.72 L 860.00 85.72" fill="none" stroke="#3fb950" stroke-width="2"/>
    <circle cx="860.00" cy="85.72" r="3" fill="#3fb950"/>
    <text x="40.00" y="235.00" font-size="9" fill="#c9d1d9" text-anchor="middle" transform="rotate(-45 40.00 235.00)">09.08.2025</text><text x="122.49" y="235.00" font-size="9" fill="#c9d1d9" text-anchor="middle" transform="rotate(-45 122.49 235.00)">13.08.2025</text><text x="204.97" y="235.00" font-size="9" fill="#c9d1d9" text-anchor="middle" transform="rotate(-45 204.97 235.00)">21.08.2025</text><text x="287.46" y="235.00" font-size="9" fill="#c9d1d9" text-anchor="middle" transform="rotate(-45 287.46 235.00)">01.09.2025</text><text x="369.94" y="235.00" font-size="9" fill="#c9d1d9" text-anchor="middle" transform="rotate(-45 369.94 235.00)">18.09.2025</text><text x="452.43" y="235.00" font-size="9" fill="#c9d1d9" text-anchor="middle" transform="rotate(-45 452.43 235.00)">03.10.2025</text><text x="534.91" y="235.00" font-size="9" fill="#c9d1d9" text-anchor="middle" transform="rotate(-45 534.91 235.00)">20.10.2025</text><text x="617.40" y="235.00" font-size="9" fill="#c9d1d9" text-anchor="middle" transform="rotate(-45 617.40 235.00)">06.11.2025</text><text x="699.88" y="235.00" font-size="9" fill="#c9d1d9" text-anchor="middle" transform="rotate(-45 699.88 235.00)">23.11.2025</text><text x="782.37" y="235.00" font-size="9" fill="#c9d1d9" text-anchor="middle" transform="rotate(-45 782.37 235.00)">04.12.2025</text>
  </g>
</svg>