<svg xmlns="http://www.w3.org/2000/svg" width="900" height="290" style="font-family: -apple-system, BlinkMacSystemFont, 'Segoe UI', Helvetica, Arial, sans-serif;">
  <rect width="100%" height="100%" fill="#0d1117"/>
  <g>
    <line x1="40" y1="220.00" x2="860" y2="220.00" stroke="#30363d"/><text x="32" y="224.00" font-size="10" fill="#c9d1d9" text-anchor="end">0</text><line x1="40" y1="175.00" x2="860" y2="175.00" stroke="#30363d"/><text x="32" y="179.00" font-size="10" fill="#c9d1d9" text-anchor="end">500</text><line x1="40" y1="130.00" x2="860" y2="130.00" stroke="#30363d"/><text x="32" y="134.00" font-size="10" fill="#c9d1d9" text-anchor="end">1k</text><line x1="40" y1="85.00" x2="860" y2="85.00" stroke="#30363d"/><text x="32" y="89.00" font-size="10" fill="#c9d1d9" text-anchor="end">1.5k</text><line x1="40" y1="40.00" x2="860" y2="40.00" stroke="#30363d"/><text x="32" y="44.00" font-size="10" fill="#c9d1d9" text-anchor="end">2k</text>
    <line x1="40.00" y1="40" x2="40.00" y2="220" stroke="#30363d" opacity="0.5"/><line x1="119.72" y1="40" x2="119.72" y2="220" stroke="#30363d" opacity="0.5"/><line x1="199.44" y1="40" x2="199.44" y2="220" stroke="#30363d" opacity="0.5"/><line x1="279.17" y1="40" x2="279.17" y2="220" stroke="#30363d" opacity="0.5"/><line x1="358.89" y1="40" x2="358.89" y2="220" stroke="#30363d" opacity="0.5"/><line x1="438.61" y1="40" x2="438.61" y2="220" stroke="#30363d" opacity="0.5"/><line x1="518.33" y1="40" x2="518.33" y2="220" stroke="#30363d" opacity="0.5"/><line x1="598.06" y1="40" x2="598.06" y2="220" stroke="#30363d" opacity="0.5"/><line x1="677.78" y1="40" x2="677.78" y2="220" stroke="#30363d" opacity="0.5"/><line x1="757.50" y1="40" x2="757.50" y2="220" stroke="#30363d" opacity="0.5"/><line x1="837.22" y1="40" x2="837.22" y2="220" stroke="#30363d" opacity="0.5"/>
    <line x1="40" y1="220" x2="860" y2="220" stroke="#30363d"/>
    <line x1="40" y1="40"   x2="40"   y2="220" stroke="#30363d"/>
    <path d="M 40.00 219.82 L 45.69 211.81 L 51.39 211.81 L 57.08 211.81 L 62.78 171.85 L 68.47 171.58 L 74.17 164.38 L 79.86 118.93 L 85.56 119.11 L 91.25 111.10 L 96.94 110.56 L 102.64 110.56 L 108.33 110.56 L 114.03 95.35 L 119.72 95.35 L 125.42 95.35 L 131.11 94.63 L 136.81 94.54 L 142.50 94.45 L 148.19 94.09 L 153.89 94.09 L 159.58 94.09 L 165.28 94.09 L 170.97 94.09 L 176.67 94.09 L 182.36 94.09 L 188.06 94.09 L 193.75 94.09 L 199.44 91.84 L 205.14 83.65 L 210.83 83.65 L 216.53 83.47 L 222.22 83.65 L 227.92 91.03 L 233.61 91.03 L 239.31 91.03 L 245.00 91.03 L 250.69 91.03 L 256.39 91.03 L 262.08 91.03 L 267.78 91.03 L 273.47 91.03 L 279.17 91.03 L 284.86 91.03 L 290.56 90.94 L 296.25 91.03 L 301.94 90.94 L 307.64 90.94 L 313.33 90.94 L 319.03 90.94 L 324.72 90.94 L 330.42 90.94 L 336.11 90.94 L 341.81 90.94 L 347.50 90.94 L 353.19 90.94 L 358.89 90.94 L 364.58 90.94 L 370.28 90.94 L 375.97 90.94 L 381.67 90.94 L 387.36 90.94 L 393.06 90.94 L 398.75 90.94 L 404.44 90.94 L 410.14 90.94 L 415.83 90.94 L 421.53 90.94 L 427.22 90.94 L 432.92 90.94 L 438.61 90.94 L 444.31 123.79 L 450.00 123.79 L 455.69 123.79 L 461.39 123.79 L 467.08 123.79 L 472.78 123.79 L 478.47 123.79 L 484.17 123.79 L 489.86 123.79 L 495.56 123.79 L 501.25 123.79 L 506.94 123.79 L 512.64 123.79 L 518.33 123.79 L 524.03 123.79 L 529.72 123.79 L 535.42 123.79 L 541.11 123.79 L 546.81 123.79 L 552.50 123.79 L 558.19 123.79 L 563.89 123.79 L 569.58 123.79 L 575.28 123.79 L 580.97 123.79 L 586.67 123.79 L 592.36 123.79 L 598.06 123.79 L 603.75 123.79 L 609.44 123.79 L 615.14 123.79 L 620.83 123.79 L 626.53 123.79 L 632.22 123.79 L 637.92 123.79 L 643.61 123.79 L 649.31 123.79 L 655.00 123.79 L 660.69 123.79 L 666.39 123.79 L 672.08 123.79 L 677.78 123.79 L 683.47 123.79 L 689.17 123.79 L 694.86 123.79 L 700.56 123.79 L 706.25 123.79 L 711.94 123.79 L 717.64 123.79 L 723.33 123.79 L 729.03 123.79 L 734.72 123.79 L 740.42 123.79 L 746.11 123.79 L 751.81 123.79 L 757.50 123.79 L 763.19 123.79 L 768.89 123.79 L 774.58 123.79 L 780.28 123.79 L 785.97 123.79 L 791.67 123.79 L 797.36 123.79 L 803.06 123.79 L 808.75 123.79 L 814.44 123.79 L 820.14 123.79 L 825.83 123.79 L 831.53 123.79 L 837.22 123.79 L 842.92 123.79 L 848.61 123.79 L 854.31 123.79 L 860.00 123.79" fill="none" stroke="#3fb950" stroke-width="2"/>
    <circle cx="860.00" cy="123.79" r="3" fill="#3fb950"/>
    <text x="40.00" y="235.00" font-size="9" fill="#c9d1d9" text-anchor="middle" transform="rotate(-45 40.00 235.00)">09.08.2025</text><text x="119.72" y="235.00" font-size="9" fill="#c9d1d9" text-anchor="middle" transform="rotate(-45 119.72 235.00)">13.08.2025</text><text x="199.44" y="235.00" font-size="9" fill="#c9d1d9" text-anchor="middle" transform="rotate(-45 199.44 235.00)">21.08.2025</text><text x="279.17" y="235.00" font-size="9" fill="#c9d1d9" text-anchor="middle" transform="rotate(-45 279.17 235.00)">28.08.2025</text><text x="358.89" y="235.00" font-size="9" fill="#c9d1d9" text-anchor="middle" transform="rotate(-45 358.89 235.00)">06.09.2025</text><text x="438.61" y="235.00" font-size="9" fill="#c9d1d9" text-anchor="middle" transform="rotate(-45 438.61 235.00)">20.09.2025</text><text x="518.33" y="235.00" font-size="9" fill="#c9d1d9" text-anchor="middle" transform="rotate(-45 518.33 235.00)">02.10.2025</text><text x="598.06" y="235.00" font-size="9" fill="#c9d1d9" text-anchor="middle" transform="rotate(-45 598.06 235.00)">16.10.2025</text><text x="677.78" y="235.00" font-size="9" fill="#c9d1d9" text-anchor="middle" transform="rotate(-45 677.78 235.00)">30.10.2025</text><text x="757.50" y="235.00" font-size="9" fill="#c9d1d9" text-anchor="middle" transform="rotate(-45 757.50 235.00)">13.11.2025</text><text x="837.22" y="235.00" font-size="9" fill="#c9d1d9" text-anchor="middle" transform="rotate(-45 837.22 235.00)">27.11.2025</text>
  </g>
</svg>