<svg xmlns="http://www.w3.org/2000/svg" width="900" height="290" style="font-family: -apple-system, BlinkMacSystemFont, 'Segoe UI', Helvetica, Arial, sans-serif;">
  <rect width="100%" height="100%" fill="#0d1117"/>
  <g>
    <line x1="40" y1="220.00" x2="860" y2="220.00" stroke="#30363d"/><text x="32" y="224.00" font-size="10" fill="#c9d1d9" text-anchor="end">0</text><line x1="40" y1="175.00" x2="860" y2="175.00" stroke="#30363d"/><text x="32" y="179.00" font-size="10" fill="#c9d1d9" text-anchor="end">500</text><line x1="40" y1="130.00" x2="860" y2="130.00" stroke="#30363d"/><text x="32" y="134.00" font-size="10" fill="#c9d1d9" text-anchor="end">1k</text><line x1="40" y1="85.00" x2="860" y2="85.00" stroke="#30363d"/><text x="32" y="89.00" font-size="10" fill="#c9d1d9" text-anchor="end">1.5k</text><line x1="40" y1="40.00" x2="860" y2="40.00" stroke="#30363d"/><text x="32" y="44.00" font-size="10" fill="#c9d1d9" text-anchor="end">2k</text>
    <line x1="40.00" y1="40" x2="40.00" y2="220" stroke="#30363d" opacity="0.5"/><line x1="121.10" y1="40" x2="121.10" y2="220" stroke="#30363d" opacity="0.5"/><line x1="202.20" y1="40" x2="202.20" y2="220" stroke="#30363d" opacity="0.5"/><line x1="283.30" y1="40" x2="283.30" y2="220" stroke="#30363d" opacity="0.5"/><line x1="364.40" y1="40" x2="364.40" y2="220" stroke="#30363d" opacity="0.5"/><line x1="445.49" y1="40" x2="445.49" y2="220" stroke="#30363d" opacity="0.5"/><line x1="526.59" y1="40" x2="526.59" y2="220" stroke="#30363d" opacity="0.5"/><line x1="607.69" y1="40" x2="607.69" y2="220" stroke="#30363d" opacity="0.5"/><line x1="688.79" y1="40" x2="688.79" y2="220" stroke="#30363d" opacity="0.5"/><line x1="769.89" y1="40" x2="769.89" y2="220" stroke="#30363d" opacity="0.5"/><line x1="850.99" y1="40" x2="850.99" y2="220" stroke="#30363d" opacity="0.5"/>
    <line x1="40" y1="220" x2="860" y2="220" stroke="#30363d"/>
    <line x1="40" y1="40"   x2="40"   y2="220" stroke="#30363d"/>
    <path d="M 40.00 219.82 L 49.01 211.81 L 58.02 211.81 L 67.03 211.81 L 76.04 171.85 L 85.05 171.58 L 94.07 164.38 L 103.08 118.93 L 112.09 119.11 L 121.10 111.10 L 130.11 110.56 L 139.12 110.56 L 148.13 110.56 L 157.14 95.35 L 166.15 95.35 L 175.16 95.35 L 184.18 94.63 L 193.19 94.54 L 202.20 94.45 L 211.21 94.09 L 220.22 94.09 L 229.23 94.09 L 238.24 94.09 L 247.25 94.09 L 256.26 94.09 L 265.27 94.09 L 274.29 94.09 L 283.30 94.09 L 292.31 91.84 L 301.32 83.65 L 310.33 83.65 L 319.34 83.47 L 328.35 83.65 L 337.36 91.03 L 346.37 91.03 L 355.38 91.03 L 364.40 91.03 L 373.41 91.03 L 382.42 91.03 L 391.43 91.03 L 400.44 91.03 L 409.45 91.03 L 418.46 91.03 L 427.47 91.03 L 436.48 90.94 L 445.49 91.03 L 454.51 90.94 L 463.52 90.94 L 472.53 90.94 L 481.54 90.94 L 490.55 90.94 L 499.56 90.94 L 508.57 90.94 L 517.58 90.94 L 526.59 90.94 L 535.60 90.94 L 544.62 90.94 L 553.63 90.94 L 562.64 90.94 L 571.65 90.94 L 580.66 90.94 L 589.67 90.94 L 598.68 90.94 L 607.69 90.94 L 616.70 90.94 L 625.71 90.94 L 634.73 90.94 L 643.74 90.94 L 652.75 90.94 L 661.76 90.94 L 670.77 90.94 L 679.78 123.79 L 688.79 123.79 L 697.80 123.79 L 706.81 123.79 L 715.82 123.79 L 724.84 123.79 L 733.85 123.79 L 742.86 123.79 L 751.87 123.79 L 760.88 123.79 L 769.89 123.79 L 778.90 123.79 L 787.91 123.79 L 796.92 123.79 L 805.93 123.79 L 814.95 123.79 L 823.96 123.79 L 832.97 123.79 L 841.98 123.79 L 850.99 123.79 L 860.00 123.79" fill="none" stroke="#3fb950" stroke-width="2"/>
    <circle cx="860.00" cy="123.79" r="3" fill="#3fb950"/>
    <text x="40.00" y="235.00" font-size="9" fill="#c9d1d9" text-anchor="middle" transform="rotate(-45 40.00 235.00)">09.08.2025</text><text x="121.10" y="235.00" font-size="9" fill="#c9d1d9" text-anchor="middle" transform="rotate(-45 121.10 235.00)">13.08.2025</text><text x="202.20" y="235.00" font-size="9" fill="#c9d1d9" text-anchor="middle" transform="rotate(-45 202.20 235.00)">13.08.2025</text><text x="283.30" y="235.00" font-size="9" fill="#c9d1d9" text-anchor="middle" transform="rotate(-45 283.30 235.00)">21.08.2025</text><text x="364.40" y="235.00" font-size="9" fill="#c9d1d9" text-anchor="middle" transform="rotate(-45 364.40 235.00)">22.08.2025</text><text x="445.49" y="235.00" font-size="9" fill="#c9d1d9" text-anchor="middle" transform="rotate(-45 445.49 235.00)">28.08.2025</text><text x="526.59" y="235.00" font-size="9" fill="#c9d1d9" text-anchor="middle" transform="rotate(-45 526.59 235.00)">04.09.2025</text><text x="607.69" y="235.00" font-size="9" fill="#c9d1d9" text-anchor="middle" transform="rotate(-45 607.69 235.00)">13.09.2025</text><text x="688.79" y="235.00" font-size="9" fill="#c9d1d9" text-anchor="middle" transform="rotate(-45 688.79 235.00)">21.09.2025</text><text x="769.89" y="235.00" font-size="9" fill="#c9d1d9" text-anchor="middle" transform="rotate(-45 769.89 235.00)">29.09.2025</text><text x="850.99" y="235.00" font-size="9" fill="#c9d1d9" text-anchor="middle" transform="rotate(-45 850.99 235.00)">08.10.2025</text>
  </g>
</svg>