<svg xmlns="http://www.w3.org/2000/svg" width="900" height="290" style="font-family: -apple-system, BlinkMacSystemFont, 'Segoe UI', Helvetica, Arial, sans-serif;">
  <rect width="100%" height="100%" fill="white"/>
  <g>
    <line x1="40" y1="220.00" x2="860" y2="220.00" stroke="#e5e7eb"/><text x="32" y="224.00" font-size="10" fill="#111827" text-anchor="end">0</text><line x1="40" y1="175.00" x2="860" y2="175.00" stroke="#e5e7eb"/><text x="32" y="179.00" font-size="10" fill="#111827" text-anchor="end">500</text><line x1="40" y1="130.00" x2="860" y2="130.00" stroke="#e5e7eb"/><text x="32" y="134.00" font-size="10" fill="#111827" text-anchor="end">1k</text><line x1="40" y1="85.00" x2="860" y2="85.00" stroke="#e5e7eb"/><text x="32" y="89.00" font-size="10" fill="#111827" text-anchor="end">1.5k</text><line x1="40" y1="40.00" x2="860" y2="40.00" stroke="#e5e7eb"/><text x="32" y="44.00" font-size="10" fill="#111827" text-anchor="end">2k</text>
    <line x1="40.00" y1="40" x2="40.00" y2="220" stroke="#e5e7eb" opacity="0.5"/><line x1="120.39" y1="40" x2="120.39" y2="220" stroke="#e5e7eb" opacity="0.5"/><line x1="200.78" y1="40" x2="200.78" y2="220" stroke="#e5e7eb" opacity="0.5"/><line x1="281.18" y1="40" x2="281.18" y2="220" stroke="#e5e7eb" opacity="0.5"/><line x1="361.57" y1="40" x2="361.57" y2="220" stroke="#e5e7eb" opacity="0.5"/><line x1="441.96" y1="40" x2="441.96" y2="220" stroke="#e5e7eb" opacity="0.5"/><line x1="522.35" y1="40" x2="522.35" y2="220" stroke="#e5e7eb" opacity="0.5"/><line x1="602.75" y1="40" x2="602.75" y2="220" stroke="#e5e7eb" opacity="0.5"/><line x1="683.14" y1="40" x2="683.14" y2="220" stroke="#e5e7eb" opacity="0.5"/><line x1="763.53" y1="40" x2="763.53" y2="220" stroke="#e5e7eb" opacity="0.5"/><line x1="843.92" y1="40" x2="843.92" y2="220" stroke="#e5e7eb" opacity="0.5"/>
    <line x1="40" y1="220" x2="860" y2="220" stroke="#9ca3af"/>
    <line x1="40" y1="40"   x2="40"   y2="220" stroke="#9ca3af"/>
    <path d="M 40.00 219.82 L 56.08 211.81 L 72.16 211.81 L 88.24 211.81 L 104.31 171.85 L 120.39 171.58 L 136.47 164.38 L 152.55 118.93 L 168.63 119.11 L 184.71 111.10 L 200.78 110.56 L 216.86 110.56 L 232.94 110.56 L 249.02 95.35 L 265.10 95.35 L 281.18 95.35 L 297.25 94.63 L 313.33 94.54 L 329.41 94.45 L 345.49 94.09 L 361.57 94.09 L 377.65 94.09 L 393.73 94.09 L 409.80 94.09 L 425.88 94.09 L 441.96 94.09 L 458.04 94.09 L 474.12 94.09 L 490.20 91.84 L 506.27 83.65 L 522.35 83.65 L 538.43 83.47 L 554.51 83.65 L 570.59 91.03 L 586.67 91.03 L 602.75 91.03 L 618.82 91.03 L 634.90 91.03 L 650.98 91.03 L 667.06 91.03 L 683.14 91.03 L 699.22 91.03 L 715.29 91.03 L 731.37 91.03 L 747.45 90.94 L 763.53 91.03 L 779.61 90.94 L 795.69 90.94 L 811.76 90.94 L 827.84 90.94 L 843.92 90.94 L 860.00 90.94" fill="none" stroke="#111827" stroke-width="2"/>
    <circle cx="860.00" cy="90.94" r="3" fill="#111827"/>
    <text x="40.00" y="235.00" font-size="9" fill="#111827" text-anchor="middle" transform="rotate(-45 40.00 235.00)">09.08.2025</text><text x="120.39" y="235.00" font-size="9" fill="#111827" text-anchor="middle" transform="rotate(-45 120.39 235.00)">09.08.2025</text><text x="200.78" y="235.00" font-size="9" fill="#111827" text-anchor="middle" transform="rotate(-45 200.78 235.00)">13.08.2025</text><text x="281.18" y="235.00" font-size="9" fill="#111827" text-anchor="middle" transform="rotate(-45 281.18 235.00)">13.08.2025</text><text x="361.57" y="235.00" font-size="9" fill="#111827" text-anchor="middle" transform="rotate(-45 361.57 235.00)">14.08.2025</text><text x="441.96" y="235.00" font-size="9" fill="#111827" text-anchor="middle" transform="rotate(-45 441.96 235.00)">19.08.2025</text><text x="522.35" y="235.00" font-size="9" fill="#111827" text-anchor="middle" transform="rotate(-45 522.35 235.00)">21.08.2025</text><text x="602.75" y="235.00" font-size="9" fill="#111827" text-anchor="middle" transform="rotate(-45 602.75 235.00)">21.08.2025</text><text x="683.14" y="235.00" font-size="9" fill="#111827" text-anchor="middle" transform="rotate(-45 683.14 235.00)">26.08.2025</text><text x="763.53" y="235.00" font-size="9" fill="#111827" text-anchor="middle" transform="rotate(-45 763.53 235.00)">28.08.2025</text><text x="843.92" y="235.00" font-size="9" fill="#111827" text-anchor="middle" transform="rotate(-45 843.92 235.00)">31.08.2025</text>
  </g>
</svg>