<svg xmlns="http://www.w3.org/2000/svg" width="900" height="290" style="font-family: -apple-system, BlinkMacSystemFont, 'Segoe UI', Helvetica, Arial, sans-serif;">
  <rect width="100%" height="100%" fill="white"/>
  <g>
    <line x1="40" y1="220.00" x2="860" y2="220.00" stroke="#e5e7eb"/><text x="32" y="224.00" font-size="10" fill="#111827" text-anchor="end">0</text><line x1="40" y1="175.00" x2="860" y2="175.00" stroke="#e5e7eb"/><text x="32" y="179.00" font-size="10" fill="#111827" text-anchor="end">500</text><line x1="40" y1="130.00" x2="860" y2="130.00" stroke="#e5e7eb"/><text x="32" y="134.00" font-size="10" fill="#111827" text-anchor="end">1k</text><line x1="40" y1="85.00" x2="860" y2="85.00" stroke="#e5e7eb"/><text x="32" y="89.00" font-size="10" fill="#111827" text-anchor="end">1.5k</text><line x1="40" y1="40.00" x2="860" y2="40.00" stroke="#e5e7eb"/><text x="32" y="44.00" font-size="10" fill="#111827" text-anchor="end">2k</text>
    <line x1="40.00" y1="40" x2="40.00" y2="220" stroke="#e5e7eb" opacity="0.5"/><line x1="119.35" y1="40" x2="119.35" y2="220" stroke="#e5e7eb" opacity="0.5"/><line x1="198.71" y1="40" x2="198.71" y2="220" stroke="#e5e7eb" opacity="0.5"/><line x1="278.06" y1="40" x2="278.06" y2="220" stroke="#e5e7eb" opacity="0.5"/><line x1="357.42" y1="40" x2="357.42" y2="220" stroke="#e5e7eb" opacity="0.5"/><line x1="436.77" y1="40" x2="436.77" y2="220" stroke="#e5e7eb" opacity="0.5"/><line x1="516.13" y1="40" x2="516.13" y2="220" stroke="#e5e7eb" opacity="0.5"/><line x1="595.48" y1="40" x2="595.48" y2="220" stroke="#e5e7eb" opacity="0.5"/><line x1="674.84" y1="40" x2="674.84" y2="220" stroke="#e5e7eb" opacity="0.5"/><line x1="754.19" y1="40" x2="754.19" y2="220" stroke="#e5e7eb" opacity="0.5"/><line x1="833.55" y1="40" x2="833.55" y2="220" stroke="#e5e7eb" opacity="0.5"/>
    <line x1="40" y1="220" x2="860" y2="220" stroke="#9ca3af"/>
    <line x1="40" y1="40"   x2="40"   y2="220" stroke="#9ca3af"/>
    <path d="M 40.00 219.82 L 44.41 211.81 L 48.82 211.81 L 53.23 211.81 L 57.63 171.85 L 62.04 171.58 L 66.45 164.38 L 70.86 118.93 L 75.27 119.11 L 79.68 111.10 L 84.09 110.56 L 88.49 110.56 L 92.90 110.56 L 97.31 95.35 L 101.72 95.35 L 106.13 95.35 L 110.54 94.63 L 114.95 94.54 L 119.35 94.45 L 123.76 94.09 L 128.17 94.09 L 132.58 94.09 L 136.99 94.09 L 141.40 94.09 L 145.81 94.09 L 150.22 94.09 L 154.62 94.09 L 159.03 94.09 L 163.44 91.84 L 167.85 83.65 L 172.26 83.65 L 176.67 83.47 L 181.08 83.65 L 185.48 91.03 L 189.89 91.03 L 194.30 91.03 L 198.71 91.03 L 203.12 91.03 L 207.53 91.03 L 211.94 91.03 L 216.34 91.03 L 220.75 91.03 L 225.16 91.03 L 229.57 91.03 L 233.98 90.94 L 238.39 91.03 L 242.80 90.94 L 247.20 90.94 L 251.61 90.94 L 256.02 90.94 L 260.43 90.94 L 264.84 90.94 L 269.25 90.94 L 273.66 90.94 L 278.06 90.94 L 282.47 90.94 L 286.88 90.94 L 291.29 90.94 L 295.70 90.94 L 300.11 90.94 L 304.52 90.94 L 308.92 90.94 L 313.33 90.94 L 317.74 90.94 L 322.15 90.94 L 326.56 90.94 L 330.97 90.94 L 335.38 90.94 L 339.78 90.94 L 344.19 90.94 L 348.60 90.94 L 353.01 123.79 L 357.42 123.79 L 361.83 123.79 L 366.24 123.79 L 370.65 123.79 L 375.05 123.79 L 379.46 123.79 L 383.87 123.79 L 388.28 123.79 L 392.69 123.79 L 397.10 123.79 L 401.51 123.79 L 405.91 123.79 L 410.32 123.79 L 414.73 123.79 L 419.14 123.79 L 423.55 123.79 L 427.96 123.79 L 432.37 123.79 L 436.77 123.79 L 441.18 123.79 L 445.59 123.79 L 450.00 123.79 L 454.41 123.79 L 458.82 123.79 L 463.23 123.79 L 467.63 123.79 L 472.04 123.79 L 476.45 123.79 L 480.86 123.79 L 485.27 123.79 L 489.68 123.79 L 494.09 123.79 L 498.49 123.79 L 502.90 123.79 L 507.31 123.79 L 511.72 123.79 L 516.13 123.79 L 520.54 123.79 L 524.95 123.79 L 529.35 123.79 L 533.76 123.79 L 538.17 123.79 L 542.58 123.79 L 546.99 123.79 L 551.40 123.79 L 555.81 123.79 L 560.22 123.79 L 564.62 123.79 L 569.03 123.79 L 573.44 123.79 L 577.85 123.79 L 582.26 123.79 L 586.67 123.79 L 591.08 123.79 L 595.48 123.79 L 599.89 123.79 L 604.30 123.79 L 608.71 123.79 L 613.12 123.79 L 617.53 123.79 L 621.94 123.79 L 626.34 123.79 L 630.75 123.79 L 635.16 123.79 L 639.57 123.79 L 643.98 123.79 L 648.39 123.79 L 652.80 123.79 L 657.20 123.79 L 661.61 123.79 L 666.02 123.79 L 670.43 123.79 L 674.84 123.79 L 679.25 123.79 L 683.66 123.79 L 688.06 123.79 L 692.47 115.42 L 696.88 111.64 L 701.29 107.86 L 705.70 104.08 L 710.11 100.30 L 714.52 95.98 L 718.92 95.98 L 723.33 95.98 L 727.74 95.98 L 732.15 85.72 L 736.56 85.72 L 740.97 85.72 L 745.38 85.72 L 749.78 85.72 L 754.19 85.72 L 758.60 85.72 L 763.01 85.72 L 767.42 85.72 L 771.83 85.72 L 776.24 85.72 L 780.65 85.72 L 785.05 85.72 L 789.46 85.72 L 793.87 85.72 L 798.28 85.72 L 802.69 85.72 L 807.10 85.72 L 811.51 85.72 L 815.91 85.72 L 820.32 85.72 L 824.73 85.72 L 829.14 85.72 L 833.55 85.72 L 837.96 85.72 L 842.37 85.72 L 846.77 85.72 L 851.18 85.72 L 855.59 85.72 L 860.00 85.72" fill="none" stroke="#111827" stroke-width="2"/>
    <circle cx="860.00" cy="85.72" r="3" fill="#111827"/>
    <text x="40.00" y="235.00" font-size="9" fill="#111827" text-anchor="middle" transform="rotate(-45 40.00 235.00)">09.08.2025</text><text x="119.35" y="235.00" font-size="9" fill="#111827" text-anchor="middle" transform="rotate(-45 119.35 235.00)">13.08.2025</text><text x="198.71" y="235.00" font-size="9" fill="#111827" text-anchor="middle" transform="rotate(-45 198.71 235.00)">22.08.2025</text><text x="278.06" y="235.00" font-size="9" fill="#111827" text-anchor="middle" transform="rotate(-45 278.06 235.00)">04.09.2025</text><text x="357.42" y="235.00" font-size="9" fill="#111827" text-anchor="middle" transform="rotate(-45 357.42 235.00)">21.09.2025</text><text x="436.77" y="235.00" font-size="9" fill="#111827" text-anchor="middle" transform="rotate(-45 436.77 235.00)">08.10.2025</text><text x="516.13" y="235.00" font-size="9" fill="#111827" text-anchor="middle" transform="rotate(-45 516.13 235.00)">26.10.2025</text><text x="595.48" y="235.00" font-size="9" fill="#111827" text-anchor="middle" transform="rotate(-45 595.48 235.00)">13.11.2025</text><text x="674.84" y="235.00" font-size="9" fill="#111827" text-anchor="middle" transform="rotate(-45 674.84 235.00)">01.12.2025</text><text x="754.19" y="235.00" font-size="9" fill="#111827" text-anchor="middle" transform="rotate(-45 754.19 235.00)">12.12.2025</text><text x="833.55" y="235.00" font-size="9" fill="#111827" text-anchor="middle" transform="rotate(-45 833.55 235.00)">30.12.2025</text>
  </g>
</svg>