<svg xmlns="http://www.w3.org/2000/svg" width="900" height="290" style="font-family: -apple-system, BlinkMacSystemFont, 'Segoe UI', Helvetica, Arial, sans-serif;">
  <rect width="100%" height="100%" fill="#0d1117"/>
  <g>
    <line x1="40" y1="220.00" x2="860" y2="220.00" stroke="#30363d"/><text x="32" y="224.00" font-size="10" fill="#c9d1d9" text-anchor="end">0</text><line x1="40" y1="175.00" x2="860" y2="175.00" stroke="#30363d"/><text x="32" y="179.00" font-size="10" fill="#c9d1d9" text-anchor="end">500</text><line x1="40" y1="130.00" x2="860" y2="130.00" stroke="#30363d"/><text x="32" y="134.00" font-size="10" fill="#c9d1d9" text-anchor="end">1k</text><line x1="40" y1="85.00" x2="860" y2="85.00" stroke="#30363d"/><text x="32" y="89.00" font-size="10" fill="#c9d1d9" text-anchor="end">1.5k</text><line x1="40" y1="40.00" x2="860" y2="40.00" stroke="#30363d"/><text x="32" y="44.00" font-size="10" fill="#c9d1d9" text-anchor="end">2k</text>
    <line x1="40.00" y1="40" x2="40.00" y2="220" stroke="#30363d" opacity="0.5"/><line x1="119.04" y1="40" x2="119.04" y2="220" stroke="#30363d" opacity="0.5"/><line x1="198.07" y1="40" x2="198.07" y2="220" stroke="#30363d" opacity="0.5"/><line x1="277.11" y1="40" x2="277.11" y2="220" stroke="#30363d" opacity="0.5"/><line x1="356.14" y1="40" x2="356.14" y2="220" stroke="#30363d" opacity="0.5"/><line x1="435.18" y1="40" x2="435.18" y2="220" stroke="#30363d" opacity="0.5"/><line x1="514.22" y1="40" x2="514.22" y2="220" stroke="#30363d" opacity="0.5"/><line x1="593.25" y1="40" x2="593.25" y2="220" stroke="#30363d" opacity="0.5"/><line x1="672.29" y1="40" x2="672.29" y2="220" stroke="#30363d" opacity="0.5"/><line x1="751.33" y1="40" x2="751.33" y2="220" stroke="#30363d" opacity="0.5"/><line x1="830.36" y1="40" x2="830.36" y2="220" stroke="#30363d" opacity="0.5"/>
    <line x1="40" y1="220" x2="860" y2="220" stroke="#30363d"/>
    <line x1="40" y1="40"   x2="40"   y2="220" stroke="#30363d"/>
    <path d="M 40.00 219.82 L 49.88 211.81 L 59.76 211.81 L 69.64 211.81 L 79.52 171.85 L 89.40 171.58 L 99.28 164.38 L 109.16 118.93 L 119.04 119.11 L 128.92 111.10 L 138.80 110.56 L 148.67 110.56 L 158.55 110.56 L 168.43 95.35 L 178.31 95.35 L 188.19 95.35 L 198.07 94.63 L 207.95 94.54 L 217.83 94.45 L 227.71 94.09 L 237.59 94.09 L 247.47 94.09 L 257.35 94.09 L 267.23 94.09 L 277.11 94.09 L 286.99 94.09 L 296.87 94.09 L 306.75 94.09 L 316.63 91.84 L 326.51 83.65 L 336.39 83.65 L 346.27 83.47 L 356.14 83.65 L 366.02 91.03 L 375.90 91.03 L 385.78 91.03 L 395.66 91.03 L 405.54 91.03 L 415.42 91.03 L 425.30 91.03 L 435.18 91.03 L 445.06 91.03 L 454.94 91.03 L 464.82 91.03 L 474.70 90.94 L 484.58 91.03 L 494.46 90.94 L 504.34 90.94 L 514.22 90.94 L 524.10 90.94 L 533.98 90.94 L 543.86 90.94 L 553.73 90.94 L 563.61 90.94 L 573.49 90.94 L 583.37 90.94 L 593.25 90.94 L 603.13 90.94 L 613.01 90.94 L 622.89 90.94 L 632.77 90.94 L 642.65 90.94 L 652.53 90.94 L 662.41 90.94 L 672.29 90.94 L 682.17 90.94 L 692.05 90.94 L 701.93 90.94 L 711.81 90.94 L 721.69 90.94 L 731.57 90.94 L 741.45 123.79 L 751.33 123.79 L 761.20 123.79 L 771.08 123.79 L 780.96 123.79 L 790.84 123.79 L 800.72 123.79 L 810.60 123.79 L 820.48 123.79 L 830.36 123.79 L 840.24 123.79 L 850.12 123.79 L 860.00 123.79" fill="none" stroke="#3fb950" stroke-width="2"/>
    <circle cx="860.00" cy="123.79" r="3" fill="#3fb950"/>
    <text x="40.00" y="235.00" font-size="9" fill="#c9d1d9" text-anchor="middle" transform="rotate(-45 40.00 235.00)">09.08.2025</text><text x="119.04" y="235.00" font-size="9" fill="#c9d1d9" text-anchor="middle" transform="rotate(-45 119.04 235.00)">12.08.2025</text><text x="198.07" y="235.00" font-size="9" fill="#c9d1d9" text-anchor="middle" transform="rotate(-45 198.07 235.00)">13.08.2025</text><text x="277.11" y="235.00" font-size="9" fill="#c9d1d9" text-anchor="middle" transform="rotate(-45 277.11 235.00)">18.08.2025</text><text x="356.14" y="235.00" font-size="9" fill="#c9d1d9" text-anchor="middle" transform="rotate(-45 356.14 235.00)">21.08.2025</text><text x="435.18" y="235.00" font-size="9" fill="#c9d1d9" text-anchor="middle" transform="rotate(-45 435.18 235.00)">26.08.2025</text><text x="514.22" y="235.00" font-size="9" fill="#c9d1d9" text-anchor="middle" transform="rotate(-45 514.22 235.00)">29.08.2025</text><text x="593.25" y="235.00" font-size="9" fill="#c9d1d9" text-anchor="middle" transform="rotate(-45 593.25 235.00)">06.09.2025</text><text x="672.29" y="235.00" font-size="9" fill="#c9d1d9" text-anchor="middle" transform="rotate(-45 672.29 235.00)">14.09.2025</text><text x="751.33" y="235.00" font-size="9" fill="#c9d1d9" text-anchor="middle" transform="rotate(-45 751.33 235.00)">21.09.2025</text><text x="830.36" y="235.00" font-size="9" fill="#c9d1d9" text-anchor="middle" transform="rotate(-45 830.36 235.00)">28.09.2025</text>
  </g>
</svg>