<svg xmlns="http://www.w3.org/2000/svg" width="900" height="290" style="font-family: -apple-system, BlinkMacSystemFont, 'Segoe UI', Helvetica, Arial, sans-serif;">
  <rect width="100%" height="100%" fill="#0d1117"/>
  <g>
    <line x1="40" y1="220.00" x2="860" y2="220.00" stroke="#30363d"/><text x="32" y="224.00" font-size="10" fill="#c9d1d9" text-anchor="end">0</text><line x1="40" y1="175.00" x2="860" y2="175.00" stroke="#30363d"/><text x="32" y="179.00" font-size="10" fill="#c9d1d9" text-anchor="end">500</text><line x1="40" y1="130.00" x2="860" y2="130.00" stroke="#30363d"/><text x="32" y="134.00" font-size="10" fill="#c9d1d9" text-anchor="end">1k</text><line x1="40" y1="85.00" x2="860" y2="85.00" stroke="#30363d"/><text x="32" y="89.00" font-size="10" fill="#c9d1d9" text-anchor="end">1.5k</text><line x1="40" y1="40.00" x2="860" y2="40.00" stroke="#30363d"/><text x="32" y="44.00" font-size="10" fill="#c9d1d9" text-anchor="end">2k</text>
    <line x1="40.00" y1="40" x2="40.00" y2="220" stroke="#30363d" opacity="0.5"/><line x1="118.10" y1="40" x2="118.10" y2="220" stroke="#30363d" opacity="0.5"/><line x1="196.19" y1="40" x2="196.19" y2="220" stroke="#30363d" opacity="0.5"/><line x1="274.29" y1="40" x2="274.29" y2="220" stroke="#30363d" opacity="0.5"/><line x1="352.38" y1="40" x2="352.38" y2="220" stroke="#30363d" opacity="0.5"/><line x1="430.48" y1="40" x2="430.48" y2="220" stroke="#30363d" opacity="0.5"/><line x1="508.57" y1="40" x2="508.57" y2="220" stroke="#30363d" opacity="0.5"/><line x1="586.67" y1="40" x2="586.67" y2="220" stroke="#30363d" opacity="0.5"/><line x1="664.76" y1="40" x2="664.76" y2="220" stroke="#30363d" opacity="0.5"/><line x1="742.86" y1="40" x2="742.86" y2="220" stroke="#30363d" opacity="0.5"/><line x1="820.95" y1="40" x2="820.95" y2="220" stroke="#30363d" opacity="0.5"/>
    <line x1="40" y1="220" x2="860" y2="220" stroke="#30363d"/>
    <line x1="40" y1="40"   x2="40"   y2="220" stroke="#30363d"/>
    <path d="M 40.00 219.82 L 79.05 211.81 L 118.10 211.81 L 157.14 211.81 L 196.19 171.85 L 235.24 171.58 L 274.29 164.38 L 313.33 118.93 L 352.38 119.11 L 391.43 111.10 L 430.48 110.56 L 469.52 110.56 L 508.57 110.56 L 547.62 95.35 L 586.67 95.35 L 625.71 95.35 L 664.76 94.63 L 703.81 94.54 L 742.86 94.45 L 781.90 94.09 L 820.95 94.09 L 860.00 94.09" fill="none" stroke="#3fb950" stroke-width="2"/>
    <circle cx="860.00" cy="94.09" r="3" fill="#3fb950"/>
    <text x="40.00" y="235.00" font-size="9" fill="#c9d1d9" text-anchor="middle" transform="rotate(-45 40.00 235.00)">09.08.2025</text><text x="118.10" y="235.00" font-size="9" fill="#c9d1d9" text-anchor="middle" transform="rotate(-45 118.10 235.00)">09.08.2025</text><text x="196.19" y="235.00" font-size="9" fill="#c9d1d9" text-anchor="middle" transform="rotate(-45 196.19 235.00)">09.08.2025</text><text x="274.29" y="235.00" font-size="9" fill="#c9d1d9" text-anchor="middle" transform="rotate(-45 274.29 235.00)">09.08.2025</text><text x="352.38" y="235.00" font-size="9" fill="#c9d1d9" text-anchor="middle" transform="rotate(-45 352.38 235.00)">12.08.2025</text><text x="430.48" y="235.00" font-size="9" fill="#c9d1d9" text-anchor="middle" transform="rotate(-45 430.48 235.00)">13.08.2025</text><text x="508.57" y="235.00" font-size="9" fill="#c9d1d9" text-anchor="middle" transform="rotate(-45 508.57 235.00)">13.08.2025</text><text x="586.67" y="235.00" font-size="9" fill="#c9d1d9" text-anchor="middle" transform="rotate(-45 586.67 235.00)">13.08.2025</text><text x="664.76" y="235.00" font-size="9" fill="#c9d1d9" text-anchor="middle" transform="rotate(-45 664.76 235.00)">13.08.2025</text><text x="742.86" y="235.00" font-size="9" fill="#c9d1d9" text-anchor="middle" transform="rotate(-45 742.86 235.00)">13.08.2025</text><text x="820.95" y="235.00" font-size="9" fill="#c9d1d9" text-anchor="middle" transform="rotate(-45 820.95 235.00)">14.08.2025</text>
  </g>
</svg>