<svg xmlns="http://www.w3.org/2000/svg" width="900" height="290" style="font-family: -apple-system, BlinkMacSystemFont, 'Segoe UI', Helvetica, Arial, sans-serif;">
  <rect width="100%" height="100%" fill="white"/>
  <g>
    <line x1="40" y1="220.00" x2="860" y2="220.00" stroke="#e5e7eb"/><text x="32" y="224.00" font-size="10" fill="#111827" text-anchor="end">0</text><line x1="40" y1="175.00" x2="860" y2="175.00" stroke="#e5e7eb"/><text x="32" y="179.00" font-size="10" fill="#111827" text-anchor="end">500</text><line x1="40" y1="130.00" x2="860" y2="130.00" stroke="#e5e7eb"/><text x="32" y="134.00" font-size="10" fill="#111827" text-anchor="end">1k</text><line x1="40" y1="85.00" x2="860" y2="85.00" stroke="#e5e7eb"/><text x="32" y="89.00" font-size="10" fill="#111827" text-anchor="end">1.5k</text><line x1="40" y1="40.00" x2="860" y2="40.00" stroke="#e5e7eb"/><text x="32" y="44.00" font-size="10" fill="#111827" text-anchor="end">2k</text>
    <line x1="40.00" y1="40" x2="40.00" y2="220" stroke="#e5e7eb" opacity="0.5"/><line x1="121.10" y1="40" x2="121.10" y2="220" stroke="#e5e7eb" opacity="0.5"/><line x1="202.20" y1="40" x2="202.20" y2="220" stroke="#e5e7eb" opacity="0.5"/><line x1="283.30" y1="40" x2="283.30" y2="220" stroke="#e5e7eb" opacity="0.5"/><line x1="364.40" y1="40" x2="364.40" y2="220" stroke="#e5e7eb" opacity="0.5"/><line x1="445.49" y1="40" x2="445.49" y2="220" stroke="#e5e7eb" opacity="0.5"/><line x1="526.59" y1="40" x2="526.59" y2="220" stroke="#e5e7eb" opacity="0.5"/><line x1="607.69" y1="40" x2="607.69" y2="220" stroke="#e5e7eb" opacity="0.5"/><line x1="688.79" y1="40" x2="688.79" y2="220" stroke="#e5e7eb" opacity="0.5"/><line x1="769.89" y1="40" x2="769.89" y2="220" stroke="#e5e7eb" opacity="0.5"/><line x1="850.99" y1="40" x2="850.99" y2="220" stroke="#e5e7eb" opacity="0.5"/>
    <line x1="40" y1="220" x2="860" y2="220" stroke="#9ca3af"/>
    <line x1="40" y1="40"   x2="40"   y2="220" stroke="#9ca3af"/>
    <path d="M 40.00 219.82 L 44.51 211.81 L 49.01 211.81 L 53.52 211.81 L 58.02 171.85 L 62.53 171.58 L 67.03 164.38 L 71.54 118.93 L 76.04 119.11 L 80.55 111.10 L 85.05 110.56 L 89.56 110.56 L 94.07 110.56 L 98.57 95.35 L 103.08 95.35 L 107.58 95.35 L 112.09 94.63 L 116.59 94.54 L 121.10 94.45 L 125.60 94.09 L 130.11 94.09 L 134.62 94.09 L 139.12 94.09 L 143.63 94.09 L 148.13 94.09 L 152.64 94.09 L 157.14 94.09 L 161.65 94.09 L 166.15 91.84 L 170.66 83.65 L 175.16 83.65 L 179.67 83.47 L 184.18 83.65 L 188.68 91.03 L 193.19 91.03 L 197.69 91.03 L 202.20 91.03 L 206.70 91.03 L 211.21 91.03 L 215.71 91.03 L 220.22 91.03 L 224.73 91.03 L 229.23 91.03 L 233.74 91.03 L 238.24 90.94 L 242.75 91.03 L 247.25 90.94 L 251.76 90.94 L 256.26 90.94 L 260.77 90.94 L 265.27 90.94 L 269.78 90.94 L 274.29 90.94 L 278.79 90.94 L 283.30 90.94 L 287.80 90.94 L 292.31 90.94 L 296.81 90.94 L 301.32 90.94 L 305.82 90.94 L 310.33 90.94 L 314.84 90.94 L 319.34 90.94 L 323.85 90.94 L 328.35 90.94 L 332.86 90.94 L 337.36 90.94 L 341.87 90.94 L 346.37 90.94 L 350.88 90.94 L 355.38 90.94 L 359.89 123.79 L 364.40 123.79 L 368.90 123.79 L 373.41 123.79 L 377.91 123.79 L 382.42 123.79 L 386.92 123.79 L 391.43 123.79 L 395.93 123.79 L 400.44 123.79 L 404.95 123.79 L 409.45 123.79 L 413.96 123.79 L 418.46 123.79 L 422.97 123.79 L 427.47 123.79 L 431.98 123.79 L 436.48 123.79 L 440.99 123.79 L 445.49 123.79 L 450.00 123.79 L 454.51 123.79 L 459.01 123.79 L 463.52 123.79 L 468.02 123.79 L 472.53 123.79 L 477.03 123.79 L 481.54 123.79 L 486.04 123.79 L 490.55 123.79 L 495.05 123.79 L 499.56 123.79 L 504.07 123.79 L 508.57 123.79 L 513.08 123.79 L 517.58 123.79 L 522.09 123.79 L 526.59 123.79 L 531.10 123.79 L 535.60 123.79 L 540.11 123.79 L 544.62 123.79 L 549.12 123.79 L 553.63 123.79 L 558.13 123.79 L 562.64 123.79 L 567.14 123.79 L 571.65 123.79 L 576.15 123.79 L 580.66 123.79 L 585.16 123.79 L 589.67 123.79 L 594.18 123.79 L 598.68 123.79 L 603.19 123.79 L 607.69 123.79 L 612.20 123.79 L 616.70 123.79 L 621.21 123.79 L 625.71 123.79 L 630.22 123.79 L 634.73 123.79 L 639.23 123.79 L 643.74 123.79 L 648.24 123.79 L 652.75 123.79 L 657.25 123.79 L 661.76 123.79 L 666.26 123.79 L 670.77 123.79 L 675.27 123.79 L 679.78 123.79 L 684.29 123.79 L 688.79 123.79 L 693.30 123.79 L 697.80 123.79 L 702.31 123.79 L 706.81 115.42 L 711.32 111.64 L 715.82 107.86 L 720.33 104.08 L 724.84 100.30 L 729.34 95.98 L 733.85 95.98 L 738.35 95.98 L 742.86 95.98 L 747.36 85.72 L 751.87 85.72 L 756.37 85.72 L 760.88 85.72 L 765.38 85.72 L 769.89 85.72 L 774.40 85.72 L 778.90 85.72 L 783.41 85.72 L 787.91 85.72 L 792.42 85.72 L 796.92 85.72 L 801.43 85.72 L 805.93 85.72 L 810.44 85.72 L 814.95 85.72 L 819.45 85.72 L 823.96 85.72 L 828.46 85.72 L 832.97 85.72 L 837.47 85.72 L 841.98 85.72 L 846.48 85.72 L 850.99 85.72 L 855.49 85.72 L 860.00 85.72" fill="none" stroke="#111827" stroke-width="2"/>
    <circle cx="860.00" cy="85.72" r="3" fill="#111827"/>
    <text x="40.00" y="235.00" font-size="9" fill="#111827" text-anchor="middle" transform="rotate(-45 40.00 235.00)">09.08.2025</text><text x="121.10" y="235.00" font-size="9" fill="#111827" text-anchor="middle" transform="rotate(-45 121.10 235.00)">13.08.2025</text><text x="202.20" y="235.00" font-size="9" fill="#111827" text-anchor="middle" transform="rotate(-45 202.20 235.00)">22.08.2025</text><text x="283.30" y="235.00" font-size="9" fill="#111827" text-anchor="middle" transform="rotate(-45 283.30 235.00)">04.09.2025</text><text x="364.40" y="235.00" font-size="9" fill="#111827" text-anchor="middle" transform="rotate(-45 364.40 235.00)">21.09.2025</text><text x="445.49" y="235.00" font-size="9" fill="#111827" text-anchor="middle" transform="rotate(-45 445.49 235.00)">08.10.2025</text><text x="526.59" y="235.00" font-size="9" fill="#111827" text-anchor="middle" transform="rotate(-45 526.59 235.00)">26.10.2025</text><text x="607.69" y="235.00" font-size="9" fill="#111827" text-anchor="middle" transform="rotate(-45 607.69 235.00)">13.11.2025</text><text x="688.79" y="235.00" font-size="9" fill="#111827" text-anchor="middle" transform="rotate(-45 688.79 235.00)">01.12.2025</text><text x="769.89" y="235.00" font-size="9" fill="#111827" text-anchor="middle" transform="rotate(-45 769.89 235.00)">12.12.2025</text><text x="850.99" y="235.00" font-size="9" fill="#111827" text-anchor="middle" transform="rotate(-45 850.99 235.00)">30.12.2025</text>
  </g>
</svg>